<?xml version="1.0" encoding="UTF-8"?>
<svg id="Layer_1" data-name="Layer 1" xmlns="http://www.w3.org/2000/svg" viewBox="0 0 421.2 117">
  <defs>
    <style>
      .cls-1 {
        fill: #fff;
      }
    </style>
  </defs>
  <rect class="cls-1" x="0" width="421.2" height="117"/>
  <g>
    <path class="cls-1" d="M165.08,2.71h87.83V83.97h-87.83V2.71Zm59.15,42.25c-.09,.09-.19,.18-.28,.28,.22,.21,.4,.55,.65,.61,.98,.24,.72,.78,.38,1.35-.55,.91-1.12,1.77-1.04,2.96,.12,1.88,.13,3.77,0,5.64-.11,1.58,.19,2.57,1.91,3.12,2.36,.75,4.59,1.93,6.94,2.7,.82,.27,2.14,.22,2.75-.28,1.79-1.46,2.97-3.47,3.26-5.79,.2-1.58,.1-3.21,.05-4.82-.02-.68-.13-1.41-.41-2.02-.62-1.34-1.32-2.64-2.08-3.91-.57-.95-1.26-1.83-1.94-2.71-.35-.46-.78-.56-1.12,.07-.23,.41-.5,.8-.71,1.22-.22,.46-.41,.48-.9,.25-1.94-.89-3.93-1.69-5.89-2.54-.39-.17-.77-.43-.52-.96,.84-1.83,1.67-3.66,2.54-5.47,1.29-2.68,2.64-5.34,3.94-8.03,1.43-2.96,2.81-5.93,4.23-8.89,1.2-2.51,2.45-4.98,3.61-7.51,.37-.81,.79-1.15,1.63-.79,.35,.15,.69,.35,1.04,.51,.46,.21,.93,.41,1.4,.62,.06-.07,.12-.14,.18-.21-.12-.19-.19-.45-.36-.56-.3-.19-.64-.32-.98-.42-1.84-.49-1.99-.81-1.11-2.43,.02-.04-.02-.11-.05-.2h-60.11c.16,1.67,.38,3.27,.47,4.89,.07,1.27-.03,2.55,0,3.82,0,.35,.13,.78,.36,1.03,1.25,1.38,2.53,2.73,3.85,4.05,1.69,1.69,3.47,3.29,5.1,5.04,.68,.73,1.35,.89,2.25,.89,9.84-.02,19.68-.01,29.52-.01,.81,0,1.21,.41,1.21,1.22,0,4.31,0,8.62,0,12.94,0,.68,.08,1.17,.9,1.3,.61,.1,1.21,.32,1.78,.59,1.89,.89,3.76,1.84,5.64,2.75,.97,.47,1.21,1.07,.79,2.05-.32,.74-1.14,1.05-1.97,.69-2.3-1-4.58-2.03-6.87-3.05h0Zm-33.98,2.56c-1.06,.56-1.91,1-2.76,1.45-1.59,.84-3.18,1.67-4.76,2.53-1.82,.99-3.61,2.02-5.43,3.01-.74,.41-.85,.75-.3,1.47,1.34,1.72,2.73,3.37,4.58,4.63,1.99,1.36,4.07,2.45,6.37,3.14,1.07,.32,2.14,.67,3.21,.98,1.44,.42,2.87,.83,4.32,1.19,1.19,.3,2.42,.43,3.59,.79,1.56,.48,3.08,1.06,4.59,1.67,1.03,.42,2.05,.88,3.01,1.45,1.09,.64,2.13,1.37,3.13,2.12,.86,.65,1.69,1.34,2.44,2.1,.74,.74,1.44,1.24,2.61,1.21,3.34-.1,6.68-.07,10.02,.02,1.03,.03,1.41-.49,1.81-1.26,.87-1.67,1.74-3.34,2.7-4.97,.6-1.01,.64-1.34-.22-2.16-1.53-1.47-3.08-2.93-4.6-4.41-1.21-1.18-2.77-1.85-4.29-2.16-1.82-.36-3.77-.08-5.76-.08,.18,.15,.28,.29,.42,.35,1.13,.52,2.26,1.02,3.4,1.52,1.76,.78,3.54,1.52,5.29,2.35,.68,.32,1.26,.83,1.14,1.84-.89-.35-1.68-.67-2.47-.98-1.13-.44-2.51,.18-2.93,1.33-.41,1.11,.14,2.01,1.42,2.48,.61,.22,1.16,.58,1.75,.88-.02,.13-.04,.26-.05,.4-.46,.08-.98,.32-1.37,.19-1.6-.53-3.18-1.13-4.73-1.79-1.88-.8-3.73-1.67-5.58-2.53-.27-.13-.5-.39-.68-.65-.64-.9,.02-1.62,.42-2.34,.55-1.02,1.15-2.01,1.81-3.17-4.33,0-8.4,0-12.46,.02-.26,0-.65,.29-.75,.54-.42,1.08-.75,2.19-1.11,3.29-.15,.44-.33,.72-.91,.54-.94-.3-1.9-.54-2.87-.75-.65-.14-.65-.55-.51-1.02,.26-.81,.55-1.61,.9-2.62h-4.28c-.1-.46-.16-.75-.24-1.08-1.11,.62-2.12,1.26-3.21,1.77-.43,.2-1.03,.25-1.48,.13-.7-.19-1.37-.55-2-.91-.34-.19-.93-.53-.24-.98,.84-.55,1.73-1.03,2.61-1.51,1.32-.72,2.67-1.4,3.98-2.13,.22-.12,.44-.46,.44-.71,.03-2.3,.02-4.6,.02-7.2h0Zm16.08,27.63c-.35-.29-.49-.45-.67-.54-2.14-1.16-4.26-2.36-6.69-2.84-.75-.15-1.44-.54-2.18-.73-1.18-.3-2.39-.49-3.57-.81-1.83-.49-3.68-.95-5.47-1.58-2.28-.81-4.57-1.62-6.72-2.71-2.12-1.07-3.95-2.61-5.57-4.38-1.45-1.57-2.54-3.35-3.56-5.2-.38-.7-.75-1.41-1.12-2.11-.06,.03-.12,.05-.17,.08v25.25h7.93c2.98,0,5.95,0,8.93-.02,.3,0,.75-.17,.86-.39,.23-.46,.27-1.02,.41-1.53,.51-1.87,1.01-3.74,1.58-5.6,.08-.26,.51-.64,.71-.6,1.25,.25,2.48,.59,3.78,.92-.6,2.13-1.2,4.18-1.74,6.25-.07,.27,.21,.91,.31,.91,1.19-.05,2.41-.05,3.55-.35,.94-.25,1.78-.89,2.65-1.37,2.06-1.12,3.91-2.73,6.75-2.65h0Zm-30.22-41.98c-1.07,2.6-1.99,5.19-2.54,7.99,.28-.02,.41,0,.51-.05,1.35-.72,2.71-1.45,4.05-2.19,1.86-1.03,3.7-2.09,5.57-3.09,.27-.15,.71-.11,1.02,0,.61,.22,1.19,.52,1.76,.84,.26,.15,.6,.41,.62,.65,.02,.2-.32,.52-.56,.66-1.51,.85-3.06,1.65-4.58,2.48-2.59,1.42-5.17,2.87-7.76,4.29-.53,.29-.82,.66-.7,1.3,.31,1.64,.58,3.3,.95,4.93,.09,.41,.5,.75,.72,1.06,.75-.38,1.38-.68,2-1.03,2.86-1.59,5.71-3.21,8.57-4.79,1.24-.68,2.49-1.33,3.75-1.98,.52-.27,.81-.61,.79-1.26-.05-1.45-.07-2.92,0-4.37,.05-.84-.37-1.37-.9-1.85-.43-.39-.96-.67-1.43-1.01-2.41-1.77-5.2-2.65-8.02-3.46-2.42-.69-4.88-1.25-7.33-1.82-.65-.15-1.34-.17-1.98-.24v4.27c.35-.66,.72-1.14,.88-1.68,.19-.68,.61-.66,1.1-.54,1.15,.28,2.3,.59,3.51,.91h0Zm4.99-14.18c-.67,2.24-1.27,4.26-1.93,6.47-1.44-.35-2.88-.7-4.22-1.02,.74-2.88,1.44-5.57,2.21-8.53-.5,.13-.75,.15-.95,.26-1.41,.74-2.8,1.51-4.21,2.24-.97,.5-1.73,1.01-1.53,2.35,.17,1.16,.06,2.36,.03,3.54-.02,.6,.25,.87,.8,1,1.57,.37,3.13,.75,4.69,1.15,1.49,.37,2.96,.91,4.47,1.1,2.25,.28,4.21,1.27,6.23,2.14,1.16,.5,2.28,1.09,3.54,1.7,0-1.15,.01-2.17-.01-3.19,0-.15-.14-.33-.26-.45-1.31-1.27-2.65-2.51-3.94-3.81-1.37-1.38-2.69-2.81-4.04-4.2-.23-.24-.51-.44-.87-.75h0Zm62.64,5.95c-.61,0-1.18,.05-1.73,0-1.93-.22-3.63,.37-5.13,1.49-3.85,2.89-3.43,6.83-.55,9.85,1.12,1.18,2.47,2.14,3.65,3.27,.68,.64,1.26,1.39,1.85,2.12,.61,.77,1.17,1.57,1.9,2.57v-7.63c-.23,.02-.42,0-.58,.05-2.08,.76-5.93-.01-7.1-2.41-.86-1.77-.63-3.57-.18-5.38,.01-.05,.1-.06,.14-.11,1.21-1.76,4.6-3.41,6.87-2.43,.25,.11,.56,.04,.86,.05v-1.44h0Zm.02,38.39c-.08-.05-.17-.09-.25-.14-.53,.72-1.12,1.41-1.56,2.18-.74,1.29-1.14,1.45-2.21,.41-1.93-1.89-4.3-1.7-6.67-1.55-.58,.04-1.17,.23-1.72,.43-.25,.09-.43,.39-.65,.59,.29,.28,.56,.58,.88,.82,.08,.06,.28-.03,.43-.08,1.69-.51,3.39-.49,5.08-.05,.56,.15,1.25,.32,1.57,.73,.78,.99,1.44,2.09,2.03,3.21,.85,1.62,1.6,3.3,2.41,4.94,.1,.21,.35,.34,.67,.63v-12.13h0ZM175.03,12.88c-1.58-1.59-2.92-2.92-4.25-4.26-.06,.05-.13,.11-.19,.16v6.78c1.55-.94,2.97-1.79,4.44-2.68Zm-2.55-6.15c-.12,.17-.23,.34-.35,.51,1.68,1.36,3.37,2.72,5,4.04-.25-1.29-.54-2.8-.85-4.3-.02-.1-.21-.24-.32-.24-1.16-.02-2.32-.01-3.48-.01h0Z"/>
    <path d="M224.23,44.96c2.29,1.02,4.57,2.05,6.87,3.05,.83,.36,1.66,.05,1.97-.69,.42-.98,.18-1.58-.79-2.05-1.88-.91-3.75-1.86-5.64-2.75-.56-.27-1.17-.49-1.78-.59-.82-.13-.9-.62-.9-1.3,.02-4.31,0-8.62,0-12.94,0-.81-.4-1.22-1.21-1.22-9.84,0-19.68,0-29.52,.01-.9,0-1.58-.16-2.25-.89-1.62-1.75-3.41-3.34-5.1-5.04-1.31-1.32-2.59-2.68-3.85-4.05-.23-.25-.35-.68-.36-1.03-.03-1.27,.07-2.55,0-3.82-.09-1.61-.3-3.22-.47-4.89h60.12c.02,.08,.07,.16,.05,.2-.88,1.62-.73,1.94,1.11,2.43,.34,.09,.68,.23,.98,.42,.17,.11,.24,.37,.36,.56-.06,.07-.12,.14-.18,.21-.47-.2-.93-.4-1.4-.62-.35-.16-.68-.36-1.04-.51-.84-.37-1.26-.02-1.63,.79-1.15,2.53-2.41,5-3.61,7.51-1.42,2.96-2.8,5.94-4.23,8.89-1.29,2.68-2.64,5.34-3.94,8.03-.87,1.81-1.7,3.64-2.54,5.47-.24,.53,.13,.79,.52,.96,1.96,.85,3.95,1.65,5.89,2.54,.49,.22,.68,.21,.9-.25,.2-.42,.48-.81,.71-1.22,.35-.63,.77-.53,1.12-.07,.68,.88,1.37,1.76,1.94,2.71,.76,1.26,1.47,2.57,2.08,3.91,.28,.61,.39,1.34,.41,2.02,.05,1.61,.15,3.24-.05,4.82-.29,2.33-1.47,4.34-3.26,5.79-.61,.5-1.93,.55-2.75,.28-2.36-.77-4.58-1.95-6.94-2.7-1.71-.55-2.02-1.53-1.91-3.12,.13-1.87,.12-3.77,0-5.64-.08-1.2,.49-2.05,1.04-2.96,.34-.57,.6-1.11-.38-1.35-.25-.06-.43-.4-.65-.61,.09-.09,.19-.18,.28-.28h0Zm2.75,1.99c-.83,1.52-1.59,2.93-2.35,4.33-.45,.82-.24,1.64,.52,2.08,.65,.36,1.18,.17,1.52-.41,.77-1.32,1.47-2.68,2.19-4.04,.31-.58,.38-1.07-.41-1.33-.5-.17-.97-.41-1.47-.63h0Z"/>
    <path d="M190.25,47.52c0,2.6,.01,4.9-.02,7.2,0,.24-.22,.58-.44,.71-1.31,.74-2.66,1.41-3.98,2.13-.88,.48-1.77,.96-2.61,1.51-.69,.45-.1,.78,.24,.98,.63,.37,1.3,.72,2,.91,.46,.12,1.06,.08,1.48-.13,1.08-.51,2.1-1.15,3.21-1.77,.07,.33,.14,.61,.24,1.08h4.28c-.35,1.01-.64,1.81-.9,2.62-.15,.47-.14,.88,.51,1.02,.96,.21,1.93,.45,2.87,.75,.58,.18,.76-.1,.91-.54,.36-1.1,.69-2.21,1.11-3.29,.09-.25,.49-.54,.75-.54,4.07-.03,8.13-.02,12.46-.02-.67,1.15-1.26,2.15-1.81,3.17-.39,.73-1.05,1.44-.42,2.34,.18,.25,.41,.52,.68,.65,1.85,.87,3.7,1.74,5.58,2.53,1.55,.66,3.13,1.26,4.73,1.79,.39,.13,.91-.12,1.37-.19,.02-.13,.04-.26,.05-.4-.58-.3-1.14-.66-1.75-.88-1.28-.47-1.84-1.37-1.42-2.48,.42-1.15,1.8-1.77,2.93-1.33,.79,.31,1.58,.62,2.47,.98,.12-1.01-.46-1.51-1.14-1.84-1.74-.82-3.52-1.57-5.29-2.35-1.14-.5-2.27-1.01-3.4-1.52-.14-.06-.25-.2-.42-.35,1.99,0,3.94-.28,5.76,.08,1.52,.3,3.08,.98,4.29,2.16,1.52,1.48,3.08,2.93,4.6,4.41,.86,.83,.81,1.16,.22,2.16-.96,1.62-1.84,3.29-2.7,4.97-.39,.76-.77,1.28-1.81,1.26-3.34-.09-6.68-.12-10.02-.02-1.18,.04-1.87-.46-2.61-1.21-.76-.76-1.59-1.46-2.44-2.1-1.01-.76-2.04-1.49-3.13-2.12-.96-.56-1.98-1.03-3.01-1.45-1.51-.61-3.04-1.19-4.59-1.67-1.17-.36-2.4-.49-3.59-.79-1.45-.36-2.88-.78-4.32-1.19-1.08-.31-2.14-.66-3.21-.98-2.31-.68-4.38-1.78-6.37-3.14-1.85-1.26-3.24-2.91-4.58-4.63-.56-.72-.45-1.07,.3-1.47,1.82-.99,3.61-2.02,5.43-3.01,1.58-.86,3.17-1.69,4.76-2.53,.85-.45,1.7-.89,2.76-1.45h0Zm29.86,20.15c.08,.1,.27,.49,.58,.64,1.43,.69,2.87,1.38,4.34,1.96,1.27,.5,1.29,.44,1.98-.71,.05-.08,.1-.14,.15-.22,.58-.84,.56-.98-.42-1.4-1.57-.68-3.15-1.34-4.75-1.95-.95-.37-1.88,.34-1.88,1.68h0Z"/>
    <path d="M206.33,75.14c-2.84-.08-4.69,1.54-6.75,2.65-.88,.48-1.71,1.11-2.65,1.37-1.14,.3-2.36,.3-3.55,.35-.1,0-.38-.64-.31-.91,.54-2.07,1.14-4.13,1.74-6.25-1.3-.33-2.53-.68-3.78-.92-.2-.04-.63,.34-.71,.6-.56,1.86-1.06,3.73-1.58,5.6-.14,.51-.18,1.07-.41,1.53-.11,.22-.56,.39-.86,.39-2.98,.03-5.95,.02-8.93,.02h-7.93v-25.25c.06-.03,.12-.05,.17-.08,.37,.7,.74,1.41,1.12,2.11,1.01,1.85,2.11,3.63,3.56,5.2,1.63,1.77,3.46,3.31,5.57,4.38,2.15,1.08,4.44,1.9,6.72,2.71,1.79,.63,3.64,1.1,5.47,1.58,1.18,.31,2.39,.5,3.57,.81,.74,.19,1.44,.58,2.18,.73,2.43,.49,4.55,1.68,6.69,2.84,.18,.09,.32,.25,.67,.54h0Z"/>
    <path d="M176.11,33.16c-1.21-.32-2.36-.63-3.51-.91-.49-.12-.91-.14-1.1,.54-.15,.54-.52,1.02-.88,1.68v-4.27c.64,.07,1.32,.09,1.98,.24,2.45,.58,4.91,1.13,7.33,1.82,2.81,.8,5.61,1.69,8.02,3.46,.47,.35,1,.63,1.43,1.01,.54,.48,.95,1.01,.9,1.85-.08,1.45-.05,2.91,0,4.37,.02,.65-.27,.99-.79,1.26-1.25,.65-2.51,1.3-3.75,1.98-2.86,1.59-5.71,3.2-8.57,4.79-.62,.34-1.25,.65-2,1.03-.22-.32-.63-.65-.72-1.06-.37-1.63-.63-3.28-.95-4.93-.12-.63,.17-1.01,.7-1.3,2.59-1.42,5.17-2.87,7.76-4.29,1.52-.84,3.06-1.64,4.58-2.48,.25-.14,.59-.46,.56-.66-.03-.24-.36-.5-.62-.65-.56-.32-1.15-.62-1.76-.84-.31-.11-.75-.14-1.02,0-1.87,1-3.71,2.07-5.57,3.09-1.34,.74-2.7,1.47-4.05,2.19-.09,.05-.23,.02-.51,.05,.55-2.8,1.47-5.39,2.54-7.99h0Z"/>
    <path d="M181.1,18.99c.36,.31,.64,.5,.87,.75,1.35,1.4,2.67,2.83,4.04,4.2,1.29,1.29,2.63,2.54,3.94,3.81,.12,.12,.26,.3,.26,.45,.02,1.02,.01,2.04,.01,3.19-1.26-.61-2.38-1.2-3.54-1.7-2.02-.87-3.98-1.85-6.23-2.14-1.51-.19-2.98-.73-4.47-1.1-1.56-.39-3.13-.78-4.69-1.15-.55-.13-.81-.4-.8-1,.03-1.18,.14-2.38-.03-3.54-.19-1.34,.57-1.85,1.53-2.35,1.41-.73,2.8-1.51,4.21-2.24,.2-.11,.45-.13,.95-.26-.76,2.95-1.46,5.65-2.21,8.53,1.34,.32,2.78,.68,4.22,1.02,.66-2.21,1.27-4.24,1.93-6.47h0Z"/>
    <path d="M243.74,24.94v1.44c-.3-.01-.62,.05-.86-.05-2.27-.98-5.66,.67-6.87,2.43-.03,.05-.12,.07-.14,.11-.45,1.81-.68,3.61,.18,5.38,1.17,2.4,5.02,3.17,7.1,2.41,.16-.06,.35-.04,.58-.05v7.63c-.74-1-1.29-1.81-1.9-2.57-.58-.73-1.17-1.48-1.85-2.12-1.18-1.12-2.53-2.09-3.65-3.27-2.88-3.02-3.31-6.96,.55-9.85,1.5-1.12,3.2-1.71,5.13-1.49,.55,.06,1.12,0,1.73,0h0Z"/>
    <path d="M243.75,63.32v12.13c-.32-.29-.57-.42-.67-.63-.81-1.64-1.56-3.32-2.41-4.94-.59-1.12-1.25-2.21-2.03-3.21-.32-.41-1.01-.58-1.57-.73-1.69-.45-3.39-.46-5.08,.05-.14,.04-.35,.14-.43,.08-.31-.25-.59-.55-.88-.82,.21-.2,.39-.5,.65-.59,.55-.2,1.14-.39,1.72-.43,2.37-.15,4.74-.34,6.67,1.55,1.07,1.05,1.47,.89,2.21-.41,.44-.77,1.04-1.45,1.56-2.18,.08,.05,.17,.09,.25,.14h0Z"/>
    <path d="M175.03,12.88c-1.48,.89-2.89,1.75-4.44,2.68v-6.78c.06-.05,.13-.11,.19-.16,1.33,1.34,2.67,2.68,4.25,4.26h0Z"/>
    <path d="M172.48,6.72c1.16,0,2.32,0,3.48,.01,.11,0,.3,.14,.32,.24,.31,1.5,.6,3.01,.85,4.3-1.64-1.32-3.32-2.68-5-4.04,.12-.17,.23-.34,.35-.51h0Z"/>
    <path class="cls-1" d="M226.98,46.95c.5,.22,.97,.47,1.47,.63,.79,.26,.72,.75,.41,1.33-.72,1.35-1.43,2.71-2.19,4.04-.33,.58-.87,.77-1.52,.41-.76-.43-.97-1.25-.52-2.08,.77-1.4,1.53-2.81,2.35-4.33h0Z"/>
    <path class="cls-1" d="M220.11,67.68c0-1.35,.94-2.05,1.88-1.68,1.6,.62,3.18,1.28,4.75,1.95,.98,.42,1,.55,.42,1.4-.05,.07-.11,.14-.15,.22-.69,1.15-.72,1.21-1.98,.71-1.48-.58-2.91-1.26-4.34-1.96-.31-.15-.49-.54-.58-.64h0Z"/>
  </g>
  <g>
    <path d="M141.07,97.72l4.67,11.57h-1.12l-1.4-3.57h-5.46l-1.4,3.57h-1.08l4.69-11.57h1.1Zm-.61,.95c-.02,.18-.09,.38-.18,.61l-2.21,5.58h4.83l-2.21-5.58c-.09-.23-.16-.44-.18-.61h-.07Z"/>
    <path d="M148.63,100.54l.19,1.19h.09c.93-.98,2.03-1.45,3.18-1.45,1.61,0,3.01,.84,3.01,2.77v6.25h-.95v-6.21c0-1.17-.7-1.98-2.24-1.98-1.31,0-2.4,.72-2.96,1.58v6.61h-.95v-6.72l-.23-1.85,.84-.18h0Z"/>
    <path d="M158.5,100.83c.66-.3,1.84-.56,2.84-.56,2.26,0,3.36,.91,3.36,2.36v4.99l.21,1.73-.79,.14-.28-1.38h-.07c-.86,.96-1.92,1.38-3.01,1.38-1.71,0-3.06-.93-3.06-2.62,0-1.98,1.51-2.84,3.48-2.84,.86,0,1.59,.09,2.57,.19v-1.26c0-1.19-.56-1.89-2.55-1.89-.91,0-1.96,.21-2.78,.58l.09-.82h0Zm5.25,4.11c-.89-.12-1.73-.19-2.52-.19-1.63,0-2.59,.63-2.59,2.06s1.03,1.89,2.33,1.89,2.24-.66,2.78-1.54v-2.22h0Z"/>
    <path d="M168.9,96.63v10.94l.23,1.7-.84,.23-.33-1.52v-11.13l.95-.21h0Z"/>
    <path d="M172.05,100.47l2.57,6.86c.12,.32,.23,.7,.23,.95l.07,.04,2.92-7.84h.98l-4.13,10.38c-.58,1.45-1.28,2.29-2.43,2.29-.45,0-.95-.11-1.31-.26l-.12-.82c.44,.18,.95,.26,1.29,.26,.52,0,1.22-.11,1.71-1.35l.72-1.77-.18-.11-3.34-8.63h1.02Z"/>
    <path d="M186.73,100.47v.75l-5.35,7.31,.05,.07c.16-.09,.47-.11,.66-.11h4.74v.79h-6.51v-.77l5.35-7.31-.05-.07c-.21,.09-.47,.11-.68,.11h-4.48v-.77h6.27Z"/>
    <path d="M189.07,104.7c0,2.54,1.19,3.97,3.61,3.97,1.08,0,1.82-.21,2.57-.61l-.09,.84c-.82,.4-1.77,.59-2.64,.59-2.59,0-4.37-1.68-4.37-4.62,0-2.69,1.73-4.6,4.01-4.6s3.39,1.44,3.39,3.69c0,.16-.04,.54-.07,.74h-6.4Zm5.51-.75c0-2.01-.84-2.89-2.5-2.89-1.24,0-2.69,.84-2.96,2.96l5.46-.07h0Z"/>
    <path d="M205.89,97.72c2.4,0,3.95,1.21,3.95,3.39s-1.65,3.5-3.94,3.5h-2.62v4.67h-.98v-11.57h3.59Zm-2.61,6.09h2.59c1.7,0,2.94-.91,2.94-2.69,0-1.63-1.08-2.52-2.94-2.52h-2.59v5.21h0Z"/>
    <path d="M211.7,100.83c.66-.3,1.84-.56,2.84-.56,2.26,0,3.36,.91,3.36,2.36v4.99l.21,1.73-.79,.14-.28-1.38h-.07c-.86,.96-1.92,1.38-3.01,1.38-1.71,0-3.06-.93-3.06-2.62,0-1.98,1.51-2.84,3.48-2.84,.86,0,1.59,.09,2.57,.19v-1.26c0-1.19-.56-1.89-2.55-1.89-.91,0-1.96,.21-2.78,.58l.09-.82h0Zm5.25,4.11c-.89-.12-1.73-.19-2.52-.19-1.63,0-2.59,.63-2.59,2.06s1.03,1.89,2.33,1.89,2.24-.66,2.78-1.54v-2.22h0Z"/>
    <path d="M222.29,98.05h.25l-.11,2.5h3.25l-.25,.82-3.01-.12v5.21c0,1.59,.33,2.21,1.71,2.21,.54,0,1.05-.09,1.58-.33l-.05,.79c-.59,.25-1.31,.37-1.78,.37-2.03,0-2.43-1.22-2.43-2.91l.04-5.18-1.58-.11v-.58l1.58-.16,.21-2.31,.59-.21h0Z"/>
    <path d="M228.74,96.63v3.83c0,.42,0,.75-.05,1.26h.11c.82-.98,1.94-1.45,3.06-1.45,1.65,0,3.03,.84,3.03,2.77v6.25h-.95v-6.21c0-1.15-.7-1.98-2.26-1.98-1.31,0-2.4,.72-2.94,1.63v6.56h-.95v-12.44l.95-.21h0Z"/>
    <path d="M245.82,104.89c0,2.78-1.75,4.6-4.17,4.6s-4.17-1.82-4.17-4.6,1.77-4.62,4.17-4.62,4.17,1.82,4.17,4.62Zm-7.35,0c0,2.28,1.28,3.78,3.18,3.78s3.18-1.51,3.18-3.78-1.28-3.83-3.18-3.83-3.18,1.54-3.18,3.83Z"/>
    <path d="M249.36,96.63v10.94l.23,1.7-.84,.23-.33-1.52v-11.13l.95-.21h0Z"/>
    <path d="M260.35,104.89c0,2.78-1.75,4.6-4.17,4.6s-4.17-1.82-4.17-4.6,1.77-4.62,4.17-4.62,4.17,1.82,4.17,4.62Zm-7.35,0c0,2.28,1.28,3.78,3.18,3.78s3.18-1.51,3.18-3.78-1.28-3.83-3.18-3.83-3.18,1.54-3.18,3.83Z"/>
    <path d="M269.62,100.42h.59l-.12,.86-1.82-.18c.59,.51,.96,1.24,.96,2.08,0,1.56-1.36,2.89-3.31,2.89-.19,0-.63-.02-1.08-.14-1,.14-1.22,.63-1.22,.95,0,.98,1.49,.96,2.78,.96,1.51,0,3.66,.21,3.66,2.21,0,1.33-1.29,3.1-4.34,3.1-1.7,0-3.83-.66-3.83-2.47,0-.77,.4-1.84,2.01-2.29v-.09c-.75-.16-1.17-.63-1.17-1.19,0-.37,.16-1.03,1.36-1.38v-.05c-.98-.45-1.51-1.44-1.51-2.48,0-1.7,1.33-2.91,3.31-2.91,.63,0,1.19,.12,1.66,.35l2.07-.21h0Zm-6.82,10.15c0,1.8,2.36,1.85,3.03,1.85,2.34,0,3.31-1.14,3.31-2.33,0-.93-.63-1.51-2.91-1.51-.16,0-.63,0-1.38-.05-1.51,.38-2.05,1.15-2.05,2.03Zm3.1-5.16c1.71,0,2.41-1.08,2.41-2.22,0-1.21-.7-2.21-2.41-2.21s-2.4,1-2.4,2.21,.7,2.22,2.4,2.22Z"/>
    <path d="M272.14,100.47l2.57,6.86c.12,.32,.23,.7,.23,.95l.07,.04,2.92-7.84h.98l-4.13,10.38c-.58,1.45-1.28,2.29-2.43,2.29-.45,0-.95-.11-1.31-.26l-.12-.82c.44,.18,.95,.26,1.29,.26,.52,0,1.22-.11,1.71-1.35l.72-1.77-.18-.11-3.34-8.63h1.02Z"/>
  </g>
</svg>