<?xml version="1.0" encoding="UTF-8"?>
<svg id="Layer_1" data-name="Layer 1" xmlns="http://www.w3.org/2000/svg" xmlns:xlink="http://www.w3.org/1999/xlink" viewBox="0 0 2340.52 409.36">
  <defs>
    <style>
      .cls-1 {
        fill: #fff;
      }

      .cls-2 {
        fill: #eaa844;
      }

      .cls-3 {
        fill: #d55f15;
      }

      .cls-4 {
        fill: #f6c648;
      }

      .cls-5 {
        fill: #214857;
      }

      .cls-6 {
        fill: url(#linear-gradient);
      }
    </style>
    <linearGradient id="linear-gradient" x1="518.76" y1="64.41" x2="1831.23" y2="64.41" gradientTransform="translate(0 412) scale(1 -1)" gradientUnits="userSpaceOnUse">
      <stop offset="0" stop-color="#f4be44"/>
      <stop offset="1" stop-color="#d45d16"/>
    </linearGradient>
  </defs>
  <rect class="cls-1" width="2340.52" height="409.36"/>
  <path class="cls-5" d="M1606.39,40.97c-22.26-19.3-43.03-28.95-75.97-28.95s-53.42,9.65-75.37,29.24c-21.97,19.9-32.96,45.93-32.96,78.11s10.7,59.97,32.65,80.14c21.37,20.19,42.14,30.42,75.97,30.42s55.8-10.23,77.17-30.42c21.35-20.17,32.05-46.8,32.05-78.98s-11.28-59.95-33.54-79.56h0Zm-14.3,153.15c-16.98,18.79-33.72,28.32-61.31,28.32s-43.39-9.54-60.37-28.32c-17.45-18.81-25.94-43.86-25.94-74.63s8.74-54.2,26.19-72.74c17.45-18.23,33.72-27.23,59.88-27.23s42.7,9,60.37,26.97c17.69,18.25,26.65,43.03,26.65,74.1s-8.49,54.73-25.47,73.54h0Z"/>
  <path class="cls-5" d="M365.09,128.29c-8.54-7.53-20.3-12.75-34.72-15.64,10.59-3.21,19.41-7.55,25.9-13.06,10.88-8.69,16.18-20.59,16.18-35.08,0-36.26-32.36-52.48-89.72-52.48h-46.21V228.04h52.37c20.59,0,37.35-1.16,50.01-4.35,12.95-2.9,23.82-9.29,32.07-19.14,8.54-10.14,12.64-22.33,12.64-36.24,0-15.96-6.17-29.28-18.52-40.02h0ZM274.19,26.8c3.23,0,7.06-.29,10.01-.29,15.58,0,25.29,1.74,30.89,4.64,5.88,2.9,10.01,6.98,12.95,12.19,2.63,4.93,4.41,12.75,4.41,23.2,0,15.07-3.83,24.94-10.9,31.02-7.06,5.79-20.88,9.56-43.23,9.56-.89,0-2.65,0-4.12-.29V26.8h0Zm57.36,175.72c-7.06,7.24-17.94,9.27-34.41,9.27h-22.95V121.33h9.4c23.24,0,38.24,4.06,46.49,11.01,8.54,7.27,12.95,18.56,12.95,35.1s-4.12,27.54-11.48,35.08Z"/>
  <path class="cls-5" d="M553.8,12.02h-10.87l-90.62,216.01h18.84l30.01-76.84,35.59-88.72,37.07,88.72,15.28,36.24s4.73,11.03,16.78,40.6h40.9L553.8,12.02Z"/>
  <path class="cls-5" d="M843.16,12.02l-66.48,113.66L709.89,12.02h-47.07l83.84,132.51v83.5h37.66v-85.53L864.64,12.02h-21.48Z"/>
  <path class="cls-5" d="M1055.87,143.77c-4.12-9.45-10.01-17.14-17.94-23.04-7.35-5.62-19.43-13.3-36.19-23.07-17.36-10.05-28.53-18.61-34.41-25.41-5.59-6.51-7.96-13.91-7.06-22.17,.58-6.8,3.81-12.7,9.4-18.32,5.3-4.75,13.24-7.11,24.71-5.93,11.48,1.18,21.48,6.51,29.42,15.67,2.07,2.36,3.83,4.72,7.64,10.94l12.37-10.05c-9.43-12.7-16.78-20.1-24.71-23.93-7.64-3.86-16.18-6.22-25-7.11-16.18-1.76-30.31,1.78-42.08,10.94-11.77,9.16-18.52,21.57-20.3,37.24-1.16,10.05,.31,19.81,4.41,29.26,3.83,9.47,10.01,17.45,18.25,23.96,7.64,6.2,19.41,13.88,35.01,22.46,17.34,9.74,28.53,18.03,34.12,25.12,5.59,6.8,7.64,14.78,6.77,23.93-.89,8.87-5.3,16.85-13.26,23.64-7.93,6.51-18.52,9.76-31.47,7.69-20.01-3.25-31.18-11.52-49.43-37.53l-10.59,11.81c13.84,22.17,40.31,38.42,60.91,40.49,19.99,2.36,37.06-1.47,50.59-11.81,13.53-10.36,21.19-24.83,23.24-42.86,1.18-11.54-.29-22.17-4.41-31.94v.02Z"/>
  <path class="cls-5" d="M1296.49,12.02V107.4h-108.53V12.02h-37.66V228.03h37.66V121.62h108.53v106.41h37.64V12.02h-37.64Z"/>
  <path class="cls-5" d="M1857.46,154.38c-10.01-13.04-18.54-21.17-25.9-26.39-2.65-2.32-5.3-3.77-7.64-5.21,15-3.48,26.76-10.45,35.3-18.56,10.88-10.14,16.18-22.62,16.18-37.11,0-12.48-4.12-23.2-12.37-32.18-8.22-9-19.12-14.22-32.05-17.98-12.95-3.77-29.42-4.93-49.43-4.93h-49.72V228.03h37.35v-99.46l5.3,.29c55.31,0,85.02,86.98,87.96,99.17h32.36c-21.48-52.48-37.35-73.65-37.35-73.65h.01Zm-47.06-44.37c-2.94,.87-6.2,2.05-9.72,2.92-3.52,.87-7.06,1.74-10.59,1.74h-20.9V27.67l9.43,.29c24.71,0,39.71,2.9,45.6,10.16,6.77,7.82,10.3,17.96,10.3,31.89,0,7.82-1.18,14.2-2.94,19.43-2.05,5.21-4.7,8.98-7.93,12.17-3.83,3.48-8.25,6.95-13.24,8.4h-.01Z"/>
  <path class="cls-5" d="M2021.8,24.66h92.95V11.73h-130.91V229.46h130.3v-13.1h-92.35V121.62h60.88v-14.22h-60.88V24.66h.01Z"/>
  <circle class="cls-5" cx="1460.52" cy="131.91" r="8.48"/>
  <circle class="cls-2" cx="1597.76" cy="111.98" r="8.48"/>
  <circle class="cls-5" cx="1519.06" cy="187.38" r="8.48"/>
  <circle class="cls-5" cx="1519.06" cy="53.82" r="6.04"/>
  <circle class="cls-5" cx="1499.27" cy="35.24" r="6.04"/>
  <circle class="cls-5" cx="1519.06" cy="72.39" r="6.04"/>
  <circle class="cls-5" cx="1519.06" cy="90.96" r="6.04"/>
  <circle class="cls-5" cx="1519.06" cy="132.99" r="6.04"/>
  <circle class="cls-5" cx="1499.27" cy="132.99" r="6.04"/>
  <circle class="cls-5" cx="1597.76" cy="132.99" r="6.04"/>
  <circle class="cls-2" cx="1559.05" cy="132.99" r="6.04"/>
  <circle class="cls-5" cx="1578.8" cy="132.99" r="6.04"/>
  <circle class="cls-2" cx="1578.8" cy="150.62" r="6.04"/>
  <circle class="cls-2" cx="1597.76" cy="149.4" r="6.04"/>
  <circle class="cls-5" cx="1597.76" cy="90.96" r="6.04"/>
  <circle class="cls-5" cx="1578.8" cy="168.25" r="6.04"/>
  <circle class="cls-5" cx="1519.06" cy="151.56" r="6.04"/>
  <circle class="cls-5" cx="1499.27" cy="149.4" r="6.04"/>
  <circle class="cls-5" cx="1479.41" cy="169.33" r="6.04"/>
  <circle class="cls-5" cx="1460.52" cy="150.62" r="6.04"/>
  <circle class="cls-5" cx="1460.52" cy="109.54" r="6.04"/>
  <circle class="cls-5" cx="1460.52" cy="90.96" r="6.04"/>
  <circle class="cls-5" cx="1499.27" cy="90.96" r="6.04"/>
  <circle class="cls-5" cx="1479.41" cy="73.3" r="6.04"/>
  <circle class="cls-5" cx="1499.27" cy="187.38" r="6.04"/>
  <circle class="cls-5" cx="1499.27" cy="205.69" r="6.04"/>
  <circle class="cls-5" cx="1519.06" cy="168.25" r="4.16"/>
  <circle class="cls-5" cx="1559.05" cy="150.62" r="4.16"/>
  <circle class="cls-5" cx="1499.27" cy="110.09" r="4.16"/>
  <circle class="cls-5" cx="1499.27" cy="51.94" r="4.16"/>
  <circle class="cls-2" cx="1539.5" cy="187.38" r="4.16"/>
  <circle class="cls-2" cx="1539.5" cy="53.82" r="8.48"/>
  <circle class="cls-2" cx="1539.5" cy="132.99" r="8.48"/>
  <g>
    <circle class="cls-2" cx="1519.06" cy="32.8" r="8.48"/>
    <circle class="cls-2" cx="1519.06" cy="111.98" r="8.48"/>
    <circle class="cls-2" cx="1499.27" cy="72.39" r="8.48"/>
    <circle class="cls-2" cx="1479.41" cy="149.4" r="6.04"/>
    <circle class="cls-2" cx="1479.41" cy="131.91" r="6.04"/>
    <circle class="cls-2" cx="1479.41" cy="109.54" r="6.04"/>
    <circle class="cls-2" cx="1479.41" cy="90.96" r="6.04"/>
    <circle class="cls-2" cx="1479.41" cy="51.38" r="6.04"/>
    <circle class="cls-2" cx="1519.06" cy="205.69" r="4.16"/>
    <circle class="cls-2" cx="1480.24" cy="187.38" r="4.16"/>
    <circle class="cls-2" cx="1499.27" cy="168.25" r="8.48"/>
  </g>
  <circle class="cls-5" cx="1539.5" cy="205.69" r="8.48"/>
  <circle class="cls-5" cx="1539.5" cy="72.39" r="6.04"/>
  <circle class="cls-2" cx="1559.05" cy="72.39" r="6.04"/>
  <circle class="cls-5" cx="1559.05" cy="53.82" r="6.04"/>
  <circle class="cls-2" cx="1559.05" cy="90.96" r="6.04"/>
  <circle class="cls-5" cx="1578.8" cy="90.96" r="6.04"/>
  <circle class="cls-5" cx="1578.8" cy="111.98" r="6.04"/>
  <circle class="cls-2" cx="1559.05" cy="111.98" r="6.04"/>
  <circle class="cls-5" cx="1539.5" cy="111.98" r="6.04"/>
  <circle class="cls-5" cx="1539.5" cy="32.8" r="6.04"/>
  <circle class="cls-5" cx="1539.5" cy="151.84" r="6.04"/>
  <circle class="cls-2" cx="1539.5" cy="168.25" r="6.04"/>
  <circle class="cls-5" cx="1559.05" cy="168.25" r="6.04"/>
  <circle class="cls-5" cx="1559.05" cy="187.38" r="6.04"/>
  <circle class="cls-2" cx="1559.05" cy="205.69" r="6.04"/>
  <circle class="cls-2" cx="1539.5" cy="90.96" r="4.16"/>
  <circle class="cls-5" cx="1559.05" cy="32.8" r="4.16"/>
  <circle class="cls-5" cx="1578.8" cy="72.39" r="4.16"/>
  <circle class="cls-2" cx="1578.8" cy="187.38" r="4.16"/>
  <circle class="cls-2" cx="1578.8" cy="53.82" r="4.16"/>
  <g>
    <rect class="cls-4" x="236.52" y="343.35" width="225.33" height="6.64"/>
    <rect class="cls-3" x="1888.82" y="343.35" width="225.33" height="6.64"/>
    <path class="cls-6" d="M529.91,383.67h50.7v10.33h-61.85v-92.99h11.16v82.65h-.01Zm94.8,10.34h11.16v-92.99h-11.16v92.99Zm61.72,0h11.16v-42.43h48.77v-10.33h-48.77v-29.9h55.52v-10.33h-66.68v92.99h0Zm122.62-41.88h48.77v-10.33h-48.77v-30.45h55.52v-10.33h-66.68v92.99h67.36v-10.33h-56.21v-31.55h.01Zm217.68-4.96c-5.92-2.89-9.09-3.72-15.57-5.24-8.82-2.2-12.54-3.44-18.04-6.06-5.37-2.62-7.58-6.06-7.58-10.61,0-8.68,8.68-14.88,20.11-14.88,10.61,0,19.15,5.65,20.66,13.23l11.16-3.31c-1.52-5.92-5.24-10.88-11.16-14.74-5.79-3.99-12.81-5.92-20.94-5.92-8.96,0-16.39,2.48-22.18,7.44-5.79,4.82-8.68,11.16-8.68,18.88,0,6.06,1.65,10.74,5.24,14.05,2.75,2.62,3.86,3.99,7.85,5.79l4.55,2.07c.97,.41,2.76,1.1,5.24,1.93l5.24,1.52c.96,.14,2.75,.69,5.51,1.38,6.06,1.52,9.64,2.75,14.05,5.1,4.55,2.34,6.89,5.92,6.89,10.75s-2.2,8.54-6.48,11.57c-4.27,3.03-9.51,4.55-15.98,4.55s-11.43-1.38-15.84-4.27c-4.41-2.9-7.03-6.34-7.71-10.47l-11.02,3.3c1.65,6.48,5.65,11.71,11.85,15.98,6.2,4.27,13.78,6.34,22.73,6.34,9.78,0,17.91-2.62,24.11-7.72,6.34-5.1,9.51-11.84,9.51-20.11-.55-11.02-5.23-16.81-13.5-20.53l-.02-.02Zm103.06-36.78c13.23,0,24.52,6.61,31,17.22l10.75-3.99c-8.13-14.74-23.56-23.97-41.74-23.97-13.64,0-25.07,4.55-34.3,13.78-9.09,9.09-13.64,20.53-13.64,34.16s4.55,25.07,13.64,34.3c9.23,9.09,20.66,13.64,34.3,13.64,18.05,0,33.61-9.23,41.74-24.11l-10.75-4c-6.47,10.61-17.77,17.22-31,17.22-10.33,0-19.01-3.58-26.04-10.61-7.03-7.02-10.47-15.84-10.47-26.45s3.44-19.42,10.47-26.45c7.03-7.16,15.71-10.74,26.04-10.74h0Zm88.18,83.62h11.16v-92.99h-11.16v92.99Zm72.89-41.88h48.77v-10.33h-48.77v-30.45h55.52v-10.33h-66.68v92.99h67.37v-10.33h-56.21v-31.55h0Zm169.73,22.59l-58.69-73.7h-9.78v92.99h10.75v-73.7l58.69,73.7h9.78v-92.99h-10.75v73.7h0Zm105.55-64.33c13.23,0,24.52,6.61,31,17.22l10.74-3.99c-8.13-14.74-23.56-23.97-41.74-23.97-13.64,0-25.07,4.55-34.3,13.78-9.09,9.09-13.64,20.53-13.64,34.16s4.55,25.07,13.64,34.3c9.23,9.09,20.66,13.64,34.3,13.64,18.05,0,33.61-9.23,41.74-24.11l-10.74-4c-6.47,10.61-17.77,17.22-31,17.22-10.33,0-19.01-3.58-26.03-10.61-7.03-7.02-10.47-15.84-10.47-26.45s3.44-19.42,10.47-26.45c7.02-7.16,15.7-10.74,26.03-10.74h0Zm99.33,41.74h48.77v-10.33h-48.77v-30.45h55.52v-10.33h-66.68v92.99h67.37v-10.33h-56.21v-31.55h0Zm152.24-4.96c-5.92-2.89-9.09-3.72-15.57-5.24-8.82-2.2-12.54-3.44-18.04-6.06-5.37-2.62-7.58-6.06-7.58-10.61,0-8.68,8.68-14.88,20.11-14.88,10.61,0,19.15,5.65,20.66,13.23l11.16-3.31c-1.52-5.92-5.24-10.88-11.16-14.74-5.79-3.99-12.81-5.92-20.94-5.92-8.96,0-16.39,2.48-22.18,7.44-5.79,4.82-8.68,11.16-8.68,18.88,0,6.06,1.65,10.74,5.24,14.05,2.75,2.62,3.86,3.99,7.85,5.79l4.55,2.07c.97,.41,2.75,1.1,5.24,1.93l5.24,1.52c.97,.14,2.75,.69,5.51,1.38,6.06,1.52,9.64,2.75,14.05,5.1,4.55,2.34,6.89,5.92,6.89,10.75s-2.2,8.54-6.47,11.57-9.51,4.55-15.98,4.55-11.43-1.38-15.84-4.27c-4.41-2.9-7.03-6.34-7.72-10.47l-11.02,3.3c1.65,6.48,5.65,11.71,11.85,15.98,6.2,4.27,13.78,6.34,22.73,6.34,9.78,0,17.91-2.62,24.11-7.72,6.34-5.1,9.51-11.84,9.51-20.11-.55-11.02-5.24-16.81-13.5-20.53l-.02-.02Z"/>
  </g>
</svg>