<?xml version="1.0" encoding="UTF-8"?>
<svg id="Layer_1" data-name="Layer 1" xmlns="http://www.w3.org/2000/svg" viewBox="0 0 812.64 126.24">
  <defs>
    <style>
      .cls-1 {
        fill: #193b57;
      }

      .cls-2 {
        fill: #fff;
      }

      .cls-3 {
        fill: #f6f6f6;
      }

      .cls-4 {
        fill: #3691ca;
      }

      .cls-5 {
        fill: #f8f8f9;
      }

      .cls-6 {
        fill: #070606;
      }

      .cls-7 {
        fill: #f5f4f4;
      }

      .cls-8 {
        fill: #3491c9;
      }

      .cls-9 {
        fill: #3992ca;
      }

      .cls-10 {
        fill: #fdfeff;
      }

      .cls-11 {
        fill: #0c0b0b;
      }

      .cls-12 {
        fill: #f6f8fc;
      }

      .cls-13 {
        fill: #1b1919;
      }

      .cls-14 {
        fill: #1c1a1a;
      }

      .cls-15 {
        fill: #2f90c9;
      }

      .cls-16 {
        fill: #fdfdfd;
      }

      .cls-17 {
        fill: #fbfbfb;
      }

      .cls-18 {
        fill: #0f0e0e;
      }

      .cls-19 {
        fill: #151313;
      }

      .cls-20 {
        fill: #181716;
      }

      .cls-21 {
        fill: #060505;
      }

      .cls-22 {
        fill: #fafcfd;
      }

      .cls-23 {
        fill: #1d1b1b;
      }

      .cls-24 {
        fill: #f5f7fb;
      }

      .cls-25 {
        fill: #3090c9;
      }

      .cls-26 {
        fill: #010101;
      }

      .cls-27 {
        fill: #fcfdfe;
      }
    </style>
  </defs>
  <path class="cls-2" d="M0,126.24V0H812.64V126.24H0Zm23.27-6.96l.08,.04s-.06-.02-.09-.03c-.08-.08-.16-.16-.23-.24,0-.06,0-.12,0-.18-.04,.02-.08,.03-.12,.05,.05,.04,.1,.08,.15,.12,.08,.08,.15,.16,.23,.25ZM24.66,1.39c-.08,.08-.16,.15-.25,.23-4.55,4.95-8.34,10.38-10.27,16.92-.91,3.1-1.2,6.25-.62,9.46,.99,5.49,4.36,9.37,8.51,12.74,.2,.16,.65,.29,.83,.18,1.35-.8,2.67-1.66,4.01-2.5-1.3-1.19-2.47-2.25-3.64-3.32,.06-.17,.13-.33,.19-.5h10.39c-1.91,1.66-3.72,3.47-5.77,4.95-3.25,2.35-6.77,4.32-9.96,6.73-5.1,3.84-6.16,9.72-2.95,15.22,2.22,3.8,5.5,6.7,8.57,9.77,2.79,2.79,5.53,5.63,8.29,8.45-2.26,.09-4.53,.2-6.79,.28-1,.03-2.01,0-3.24,0,1.39-1.52,2.65-2.9,3.99-4.36-1.41-1.35-2.81-2.68-4.43-4.22-2.84,2.99-5.77,5.73-8.3,8.8-6.15,7.47-6.64,15.62-2.3,24.15,2.35,4.62,5.65,8.5,9.3,12.12,.76,.75,1.56,1.47,2.33,2.2,.07-.07,.13-.13,.2-.2-1.09-1.76-2.18-3.51-3.45-5.57,5.5-.12,10.61-.22,15.71-.33-1.47,2.38-2.95,4.77-4.4,7.11-.02,0,.07,.02,.11-.02,5.11-4.3,9.72-9.04,12.85-15.02,2.48-4.74,3.5-9.75,2.22-15.05-1.03-4.26-3.32-7.86-6.26-11.02-3.46-3.71-7.1-7.24-10.59-10.91-1.3-1.36-2.42-2.88-3.82-4.57h4.66c-.47,.65-.85,1.18-1.27,1.77,1.46,1.55,2.87,3.04,4.48,4.75,2.31-2.58,4.6-4.92,6.62-7.47,2.02-2.55,3-5.52,2.48-8.85-.75-4.77-4.21-7.38-7.8-9.94-1.68,1.32-3.27,2.57-4.88,3.84,.62,.92,1.16,1.72,1.86,2.76h-6.39c1.33-2.19,3.22-3.76,5.12-5.32,2.68-2.2,5.48-4.27,7.97-6.67,4.45-4.3,5.97-9.73,5.17-15.78-.52-3.96-2.02-7.62-4.02-11.08-2.05-3.56-4.36-6.93-7.2-9.91-.06-.06-.12-.12-.19-.18,0,.04-.02,.07-.03,.11,.08,.02,.16,.03,.23,.05,.13,.33,.23,.68,.38,1,1.61,3.34,3.22,6.68,4.83,10.02-5.93,.16-11.86,.32-17.92,.48,.3-.81,.48-1.55,.82-2.22,1.48-2.91,3-5.8,4.51-8.7,.06-.1,.12-.21,.17-.31,.02-.08,.05-.16,.07-.23-.05,.06-.09,.12-.14,.17ZM674.3,86.4c.54,0,.98,0,1.41,0,15.35,0,30.7,.02,46.05-.02,2.06,0,4.15-.19,6.19-.49,5.54-.83,9.11-4.05,10.26-9.14,.9-3.99,.73-8.05,.42-12.05-.36-4.54-3-7.51-7.48-8.69-.3-.08-.61-.14-1.15-.26,.39-.17,.52-.25,.66-.28,3.67-.92,6.01-3.2,6.41-6.98,.46-4.4,.62-8.85-.38-13.22-.94-4.12-3.57-6.7-7.68-7.62-1.93-.43-3.94-.72-5.91-.72-15.87-.06-31.74-.03-47.61-.03-.38,0-.77,.04-1.19,.06v59.46ZM358.95,26.88v59.52h1.53c15.27,0,30.55,.02,45.82-.02,1.99,0,3.99-.18,5.96-.49,5.82-.92,9.28-4.03,10.44-9.29,.84-3.83,.71-7.73,.44-11.59-.3-4.32-2.53-7.41-6.8-8.78-.54-.17-1.1-.3-1.94-.52,.45-.16,.61-.23,.79-.28,3.77-1,6.04-3.41,6.41-7.3,.39-4.02,.45-8.06-.27-12.06-.81-4.51-3.4-7.44-7.9-8.43-2.01-.45-4.11-.72-6.16-.73-15.63-.06-31.27-.03-46.9-.03h-1.41Zm-97.94,39.12c.69,0,1.07,0,1.44,0,3.07-.08,6.15-.04,9.21-.28,5.61-.43,9.61-3.49,10.87-8.72,1.69-6.99,1.66-14.1,.02-21.11-1.06-4.5-4.09-7.32-8.64-8.28-1.9-.4-3.86-.7-5.79-.71-15.91-.06-31.82-.03-47.73-.03-.39,0-.78,0-1.22,0v59.44h9.06v-20.32c6.89,0,13.68-.01,20.47,.03,.44,0,.96,.31,1.32,.62,7.19,6.33,14.36,12.7,21.56,19.02,.48,.42,1.25,.69,1.89,.7,3.6,.07,7.2,.03,10.79,.03,.33,0,.65-.04,1.15-.07-8.17-6.8-16.16-13.46-24.41-20.33Zm-86.15,20.4c5.56,0,11.12,.04,16.67-.02,1.95-.02,3.91-.19,5.83-.5,5.46-.89,9.06-3.94,10.27-9.45,.44-2.01,.79-4.09,.81-6.15,.09-8.92,.09-17.84,.02-26.76-.02-2.1-.32-4.22-.74-6.28-1.02-5.03-3.99-8.35-9.05-9.54-1.89-.44-3.86-.76-5.79-.77-11.39-.08-22.79-.07-34.19-.03-2.11,0-4.23,.19-6.31,.5-5.67,.85-9.1,4.01-10.32,9.66-.53,2.48-.85,5.05-.88,7.58-.11,7.88-.09,15.76,0,23.64,.03,2.42,.27,4.87,.69,7.25,.92,5.27,3.86,8.88,9.22,10.06,2.17,.48,4.42,.73,6.63,.77,5.72,.1,11.43,.04,17.15,.04Zm312,0c5.44,0,10.87,.04,16.31-.02,2.03-.02,4.07-.18,6.08-.48,5.93-.9,9.45-4.14,10.6-9.87,.47-2.34,.74-4.75,.76-7.13,.09-8.16,.09-16.32,0-24.47-.03-2.34-.3-4.71-.74-7.01-.99-5.21-4.06-8.62-9.32-9.73-2.25-.48-4.58-.75-6.88-.77-10.87-.08-21.75-.06-32.62-.01-2.11,0-4.23,.18-6.32,.5-5.39,.83-9.13,3.7-10.42,9.18-.47,2.01-.82,4.09-.85,6.15-.11,8.88-.1,17.75-.06,26.63,0,1.95,.25,3.91,.55,5.83,.89,5.68,4.03,9.23,9.35,10.39,2.17,.48,4.42,.73,6.64,.78,5.63,.11,11.27,.04,16.91,.04Zm-193.8-.08h56.17v-8.98h-47.1v-16.68h45.79v-8.36h-45.78v-16.36h47.1v-8.98h-56.17v59.36ZM806.85,26.88c-.46,0-.89,0-1.32,0-13.47,0-26.95-.02-40.42,.02-2.27,0-4.55,.19-6.79,.5-5.99,.84-9.65,4.05-10.83,9.58-.88,4.14-.84,8.35-.24,12.52,.81,5.57,4.06,9.08,9.57,10.28,2.36,.51,4.8,.84,7.21,.9,5.19,.13,10.39,.01,15.59,.05,4.39,.03,8.79,.07,13.18,.24,3.77,.15,6,1.99,6.38,5.23,.2,1.69,.21,3.43,.06,5.12-.31,3.63-2.04,5.33-5.69,5.72-1.58,.17-3.18,.28-4.78,.28-12.83,.02-25.67,.01-38.5,.01h-1.38c-.2,3.13-.39,6.06-.59,9.06h1.35c13.75,0,27.51,.03,41.26-.03,2.38-.01,4.79-.28,7.12-.74,5.11-1,8.7-3.85,9.96-9.1,1.02-4.24,1.04-8.56,.47-12.85-.75-5.74-4.19-9.17-9.75-10.37-2.55-.55-5.2-.89-7.81-.94-6.39-.13-12.79-.02-19.19-.05-3.07-.02-6.15-.06-9.22-.23-3.92-.22-5.88-2.11-6.27-6-.14-1.45-.09-2.94,.04-4.4,.24-2.78,1.8-4.58,4.52-5.17,1.31-.29,2.68-.47,4.03-.48,13.19-.03,26.39-.02,39.58-.02,.43,0,.86,0,1.33,0,.39-3.08,.76-6.05,1.14-9.12ZM131.5,35.77c-2.28-5.46-7.43-8.88-13.26-8.88-11.48-.01-22.95-.03-34.43,.02-2.11,0-4.23,.17-6.31,.5-5.3,.85-8.94,3.73-10.07,9.15-.52,2.48-.88,5.04-.92,7.58-.11,8.32-.1,16.64,0,24.96,.02,2.34,.3,4.7,.74,7,.95,4.93,3.81,8.3,8.8,9.45,2.24,.51,4.57,.81,6.87,.83,11.72,.08,23.43,.04,35.15,.03,1.03,0,2.08-.06,3.09-.25,4.64-.87,8.1-3.38,10.27-7.6,.16-.32,.24-.96,.05-1.14-1.84-1.8-3.74-3.54-5.6-5.28,.05-.08-.05,.04-.12,.18-1.63,3.29-4.32,4.95-7.94,5-5.12,.07-10.24,.04-15.35,.04-6.48,0-12.96,.02-19.43-.06-4.74-.06-7.26-2.39-7.46-7.06-.21-5.07-.21-10.15-.22-15.22,0-3.95,.05-7.91,.23-11.86,.17-3.8,2.1-6.1,5.53-6.82,.97-.2,1.98-.3,2.97-.3,10.96-.02,21.91-.02,32.87,0,3.79,0,6.68,1.59,8.46,5.02,.08,.15,.16,.3,.07,.14,2.02-1.82,4.04-3.64,6-5.4Zm536.26,50.61c-.2-.36-.32-.56-.43-.76-4.25-7.61-8.51-15.22-12.76-22.83-6.5-11.64-13.01-23.28-19.49-34.94-.38-.69-.78-1.02-1.63-1-2.52,.07-5.04,.04-7.55,.01-.65,0-1.04,.14-1.39,.78-9.87,17.65-19.76,35.29-29.65,52.93-1.06,1.9-2.11,3.8-3.23,5.83,3.38,0,6.61,.02,9.83-.03,.34,0,.8-.41,1-.76,2.47-4.36,4.92-8.74,7.33-13.14,.4-.74,.85-.97,1.67-.97,12.11,.03,24.22,.03,36.33,0,.98,0,1.47,.32,1.93,1.15,2.51,4.6,5.08,9.17,7.62,13.73h10.43Zm-136.17-59.47v59.43h55.44v-9.1h-46.52V26.91h-8.92Zm-89.4,59.45V26.96h-8.78v59.4h8.78Zm-67.89,33.62c0-1.87-.02-3.63,0-5.38,.01-.79,.04-1.6,.21-2.37,.45-2.01,2.19-3.15,4.3-2.91,2.04,.23,3.09,1.42,3.15,3.66,.03,1.32,0,2.64,0,3.96,0,1.02,0,2.04,0,3.03h1.68c0-2.07-.05-4.1,.02-6.12,.03-.86,.19-1.76,.53-2.54,.71-1.61,2.62-2.32,4.6-1.88,1.58,.35,2.48,1.6,2.51,3.61,.03,2.31,0,4.61,0,6.92h1.66c0-2.65,.09-5.25-.02-7.83-.11-2.62-2-4.26-4.63-4.36-2.15-.08-3.88,.7-5.23,2.4-1.01-1.68-2.42-2.36-4.24-2.4-1.81-.05-3.28,.63-4.65,2.09v-2h-1.61v12.14h1.68Zm187.06-5.57c2.88-1.36,3.92-3.06,3.67-5.86-.2-2.21-1.76-4.21-4.13-4.53-2.89-.38-5.85-.33-8.75-.46v16.41h1.72v-5.18c1.73,0,3.36-.03,4.98,.02,.4,.01,.91,.23,1.15,.53,.89,1.12,1.77,2.27,2.51,3.5,.65,1.09,1.47,1.4,2.73,1.04-1.29-1.82-2.55-3.6-3.88-5.47Zm48.13-11.9v17.42h1.56c.04-.68,.07-1.28,.11-2.02,2.6,2.94,6.81,2.48,8.86,.54,2.34-2.22,2.59-6.1,.51-8.59-1.2-1.43-2.78-2.05-4.63-2.1-1.89-.05-3.43,.69-4.83,2.29v-7.53h-1.57Zm-210.23,15.21c2.44,3.08,6.56,2.69,8.63,.96,2.5-2.1,2.93-6.11,.92-8.65-1.19-1.5-2.78-2.19-4.68-2.27-1.95-.08-3.52,.68-4.96,2.29v-2.25h-1.53v16.69h1.61v-6.77Zm-166.74,2.25h1.79v-5.25c2.02,0,3.9,.1,5.77-.02,3.07-.19,5.22-2.24,5.37-4.94,.17-3.19-1.42-5.44-4.7-5.84-2.69-.33-5.46-.07-8.21-.07v16.11ZM4.91,61.2c-2.54,.01-4.66,2.16-4.63,4.69,.03,2.46,2.14,4.56,4.62,4.58,2.54,.03,4.68-2.09,4.67-4.63,0-2.56-2.11-4.66-4.66-4.64Zm349.18,55.46c-3.28,3.08-7.95,2.15-10.04-.1-2.34-2.51-2.41-6.73-.14-9.3,2.01-2.27,6.59-3.47,10.08-.38,.39-.33,.78-.65,1.17-.97-3.28-3.5-9.31-3.31-12.62,.3-3.19,3.48-2.67,9.33,1.04,12.26,3.78,2.98,9.92,1.89,11.41-.68-.31-.39-.61-.77-.9-1.14Zm225.49-2.34c-.24-1.13-.32-2.14-.68-3.04-1.18-2.92-4.53-4.27-7.72-3.23-2.87,.94-4.59,4.05-3.87,7.1,.62,2.64,2.31,4.25,4.96,4.72,2.38,.43,4.59,.04,6.36-1.9-.35-.38-.64-.71-.93-1.03-3.49,3.13-8.68,1.06-8.7-2.62h10.6Zm-55.88,0c.13-3.5-1.84-6.03-4.93-6.52-3.2-.51-6.08,1.17-6.99,4.09-.94,3.04,.45,6.27,3.28,7.53,2.7,1.2,6.7,.55,7.8-1.57-.28-.3-.58-.61-.88-.93-1.85,1.71-3.95,1.97-6.15,1.07-1.53-.62-2.41-1.85-2.54-3.68h10.4Zm-60.28,0c.39-3.09-1.5-5.74-4.53-6.44-3.13-.73-6.26,.9-7.27,3.8-1.06,3.03,.28,6.34,3.11,7.7,2.64,1.27,6.82,.63,7.94-1.61-.28-.26-.59-.55-.9-.85-1.87,1.73-3.97,1.98-6.17,1.08-1.52-.62-2.41-1.85-2.53-3.68h10.34Zm-194.8-.01c-.23-1.1-.3-2.11-.66-3-1.17-2.92-4.51-4.29-7.71-3.26-2.92,.95-4.63,4.11-3.87,7.2,.64,2.59,2.32,4.15,4.91,4.63,2.38,.44,4.58,.05,6.39-1.9-.36-.39-.67-.71-.98-1.04-1.93,1.74-4.06,1.98-6.29,1-1.46-.64-2.29-1.85-2.39-3.62h10.6Zm44.9,.02c.13-3.5-1.83-6.03-4.93-6.52-3.2-.51-6.09,1.17-6.99,4.09-.94,3.04,.45,6.27,3.27,7.53,2.7,1.2,6.69,.55,7.8-1.57-.28-.3-.58-.61-.88-.93-1.85,1.71-3.95,1.97-6.15,1.08-1.53-.62-2.41-1.85-2.54-3.68h10.4Zm118.95,3.61c-.33-.36-.62-.68-.94-1.02-1.82,1.72-3.91,1.98-6.12,1.11-1.55-.61-2.43-1.86-2.59-3.7h10.41c.28-4.39-3.33-7.42-7.49-6.44-2.6,.61-4.44,2.65-4.63,5.14-.23,2.96,1.1,5.36,3.57,6.44,2.68,1.17,5.99,.56,7.8-1.53Zm208.05-1.02c-1.82,1.7-3.91,1.98-6.12,1.1-1.55-.61-2.43-1.87-2.6-3.71h10.41c.23-3.28-1.61-5.78-4.63-6.45-3.09-.69-6.17,.93-7.18,3.76-1.07,2.99,.18,6.24,2.94,7.67,2.74,1.42,6.53,.78,8.08-1.39-.29-.31-.58-.64-.89-.98Zm-202.16,3.06c0-2.19-.03-4.26,0-6.34,.03-1.69,.56-3.16,2.21-3.93,3.06-1.42,5.68,.27,5.69,3.66,.01,2.19,0,4.37,0,6.58h1.66c0-2.64,.08-5.24-.02-7.82-.09-2.18-1.37-3.67-3.47-4.18-2.27-.55-4.31-.07-6.12,1.88v-7.27h-1.59v17.42h1.61Zm166.49-.02c0-2.84,.07-5.63-.03-8.42-.05-1.43-.79-2.66-2.17-3.21-2.79-1.12-5.43-.67-8,1.02,.28,.46,.5,.83,.62,1.04,1.28-.4,2.45-.9,3.68-1.11,2.75-.48,4.41,1.06,4.12,3.78-1.58,0-3.18-.06-4.77,.02-1.52,.07-2.96,.47-3.68,2.02-1.06,2.29,.59,4.64,3.4,4.9,1.9,.17,3.66-.16,5.2-1.74v1.71h1.61Zm-241.82,.05c3.63,0,6.23-2.55,6.23-6.13,0-3.59-2.58-6.12-6.25-6.11-3.65,0-6.25,2.55-6.24,6.13,0,3.56,2.62,6.12,6.25,6.12Zm115.15-.03c0-2.64,.06-5.15-.02-7.66-.09-2.71-2-4.47-4.71-4.56-1.88-.06-3.48,.5-4.89,2.1v-2.04h-1.6v12.15h1.63c0-2.19-.03-4.34,0-6.49,.05-2.58,1.71-4.19,4.24-4.18,2.43,0,3.65,1.39,3.66,4.15,0,.28,0,.56,0,.84,0,1.9,0,3.81,0,5.7h1.67Zm-188.82-1.45c2.43,1.57,4.97,1.83,7.62,1.17,1.75-.44,2.71-1.67,2.71-3.21,0-1.53-.82-2.46-2.75-2.96-1.27-.33-2.57-.53-3.84-.85-.86-.21-1.62-.65-1.55-1.69,.07-.98,.82-1.36,1.69-1.59,1.87-.49,3.6-.03,5.33,.76,.24-.46,.46-.86,.71-1.32-2.4-1.16-4.73-1.51-7.16-.63-1.59,.57-2.34,1.66-2.28,3.13,.05,1.37,.76,2.22,2.44,2.69,1.34,.38,2.71,.6,4.07,.92,.87,.2,1.64,.62,1.62,1.63-.01,1.09-.79,1.55-1.77,1.78-2.18,.52-4.15-.09-6.09-1.15-.23,.41-.45,.79-.76,1.32Zm191.47,.02c2.44,1.57,5.01,1.83,7.7,1.12,1.74-.46,2.65-1.7,2.62-3.27-.03-1.46-.86-2.38-2.72-2.86-1.27-.33-2.57-.52-3.84-.84-.85-.21-1.63-.64-1.57-1.67,.06-.98,.8-1.38,1.67-1.61,1.87-.49,3.61-.06,5.34,.76,.26-.44,.48-.84,.76-1.32-2.41-1.14-4.74-1.52-7.17-.65-1.59,.57-2.35,1.65-2.31,3.11,.05,1.38,.75,2.24,2.42,2.71,1.34,.38,2.71,.61,4.07,.92,.92,.21,1.71,.65,1.65,1.72-.06,1.02-.81,1.46-1.74,1.69-2.19,.53-4.16-.08-6.12-1.15-.23,.42-.46,.82-.75,1.34ZM50.04,105.09c-2.26-.01-3.96,1.65-3.98,3.87-.01,2.2,1.7,3.97,3.9,4,2.14,.04,3.96-1.75,3.99-3.93,.03-2.21-1.68-3.94-3.91-3.95Zm231.73,12.47c-.38-.26-.76-.52-1.12-.76-2.29,2.09-5.18,2.24-7.01,.41-1.71-1.71-1.79-4.77-.11-6.52,1.86-1.94,4.9-2.04,7.14,.27,.37-.25,.75-.51,1.13-.77-1.44-2.18-4.23-2.99-7.01-2.13-2.63,.82-4.21,3.1-4.16,6.03,.04,2.75,1.76,4.94,4.44,5.68,2.76,.77,5.34-.07,6.69-2.22Zm222.73,.52c-1.41-3.17-2.79-6.11-4.01-9.11-.48-1.17-1.12-1.44-2.3-1.06,1.66,3.74,3.32,7.43,4.94,11.13,.27,.63,.52,1.02,1.35,1.02,.82,0,1.11-.35,1.32-1.03,.16-.49,.43-.94,.64-1.41,1.45-3.25,2.9-6.5,4.35-9.77-1.16-.27-1.87-.04-2.25,1.15-.36,1.17-.99,2.26-1.49,3.38-.83,1.84-1.65,3.68-2.55,5.69Zm-177.17-7.02c-1.76-.01-3.14,1.31-3.17,3.03-.03,1.72,1.34,3.1,3.09,3.12,1.79,.02,3.12-1.27,3.13-3.04,.01-1.79-1.27-3.1-3.05-3.11Zm210.64,0c-1.78-.02-3.13,1.27-3.16,3.02-.03,1.75,1.3,3.11,3.05,3.13,1.77,.02,3.13-1.28,3.16-3.02,.03-1.76-1.29-3.1-3.05-3.13ZM10.83,77.97c1.6-.03,3.06-1.52,3.05-3.11-.01-1.63-1.45-3.06-3.08-3.06-1.73,0-3.13,1.44-3.09,3.15,.04,1.64,1.5,3.05,3.12,3.02Zm573.57,42.01v-17.43h-1.55v17.43h1.55Zm40.92-17.47v17.43h1.55v-17.43h-1.55Zm-375.22,17.46c.06-.07,.1-.1,.1-.13,.02-2.03,.01-4.07,.04-6.1,.04-2.26,1-3.67,2.87-4.17,.52-.14,1.08-.15,1.63-.22v-1.73c-.9,.22-1.74,.3-2.48,.63-.72,.32-1.32,.9-2.09,1.45v-1.89h-1.53v12.16h1.46Zm163.37-12.17v12.13h1.61c0-1.87,0-3.66,0-5.46,0-3.53,1.01-4.69,4.5-5.16v-1.54c-1.82-.09-3.27,.54-4.56,2.18v-2.16h-1.55Zm175.84,0v12.15h1.58v-12.15h-1.58Zm-93.45,12.17v-12.15h-1.55v12.15h1.55Zm-210.77-12.19v12.15h1.55v-12.15h-1.55Zm-242.32,8.17c1.36,0,2.44-1.04,2.45-2.37,.01-1.31-1.1-2.42-2.44-2.43-1.3-.01-2.43,1.11-2.45,2.42-.02,1.33,1.06,2.38,2.44,2.38ZM5.07,74.65c0-1.18-.77-1.96-1.93-1.96-1.14,0-1.97,.82-1.97,1.95,0,1.12,.83,1.95,1.96,1.95,1.17,0,1.94-.77,1.94-1.94Zm45.1,25.3c-1.02,0-1.87,.88-1.85,1.93,.01,1,.81,1.78,1.83,1.8,1.09,.01,1.91-.77,1.92-1.83,0-1.01-.88-1.9-1.9-1.9Zm540.1,2.32c-.19,0-.37,.01-.56,.02-.31,.46-.81,.9-.88,1.4-.11,.81,.55,1.32,1.27,1.14,.46-.12,1.04-.77,1.08-1.22,.04-.41-.58-.88-.91-1.33Zm-303.07,1.73c0-.19,.01-.37,.02-.56-.45-.32-.86-.82-1.35-.92-.77-.16-1.4,.38-1.25,1.15,.09,.46,.72,1.07,1.17,1.13,.43,.06,.94-.51,1.41-.8Zm208.11-1.72c-.19,0-.37,0-.56,0-.33,.45-.85,.87-.93,1.36-.14,.8,.5,1.34,1.23,1.18,.46-.1,1.06-.73,1.12-1.18,.05-.41-.54-.9-.86-1.36ZM25.09,.8l-.05,.08h.07s-.02-.08-.02-.08Z"/>
  <path class="cls-21" d="M674.3,86.4V26.94c.42-.02,.8-.06,1.19-.06,15.87,0,31.74-.03,47.61,.03,1.97,0,3.98,.3,5.91,.72,4.11,.91,6.74,3.49,7.68,7.62,1,4.37,.85,8.82,.38,13.22-.4,3.78-2.74,6.06-6.41,6.98-.14,.04-.28,.12-.66,.28,.54,.12,.85,.18,1.15,.26,4.48,1.18,7.12,4.15,7.48,8.69,.31,4,.48,8.07-.42,12.05-1.14,5.1-4.72,8.31-10.26,9.14-2.04,.31-4.13,.49-6.19,.49-15.35,.04-30.7,.02-46.05,.02-.44,0-.87,0-1.41,0Zm9.07-9.09c.25,.01,.41,.03,.56,.03,12.43,0,24.86,0,37.29-.01,1.23,0,2.47-.11,3.69-.3,2.9-.45,4.52-2.08,4.72-5,.15-2.18,.15-4.38-.04-6.55-.23-2.6-1.57-4-4.17-4.54-1.39-.29-2.84-.43-4.27-.43-12.19-.03-24.38-.02-36.57-.02-.39,0-.78,0-1.21,0v16.83Zm-.02-25.23c.55,0,.99,0,1.42,0,11.83,0,23.66,0,35.5,0,1.15,0,2.31-.09,3.46-.22,2.18-.26,3.69-1.55,4.21-3.67,.67-2.71,.65-5.46,.18-8.2-.34-1.94-1.5-3.24-3.46-3.66-.85-.19-1.74-.3-2.61-.3-12.55-.02-25.1-.01-37.65-.01-.34,0-.69,.04-1.04,.06v16.02Z"/>
  <path class="cls-25" d="M358.95,26.88h1.41c15.63,0,31.27-.03,46.9,.03,2.06,0,4.15,.28,6.16,.73,4.49,1,7.09,3.93,7.9,8.43,.72,4,.66,8.04,.27,12.06-.38,3.89-2.64,6.3-6.41,7.3-.17,.05-.34,.12-.79,.28,.83,.22,1.39,.35,1.94,.52,4.27,1.37,6.51,4.46,6.8,8.78,.26,3.85,.4,7.76-.44,11.59-1.16,5.26-4.61,8.37-10.44,9.29-1.96,.31-3.97,.48-5.96,.49-15.27,.04-30.55,.02-45.82,.02h-1.53V26.88Zm8.91,50.56c.52,0,.99,0,1.45,0,11.59,0,23.18,0,34.77,0,1.36,0,2.72-.06,4.07-.18,3.99-.34,5.95-2.19,6.14-5.97,.09-1.87,0-3.76-.18-5.62-.28-2.79-1.64-4.24-4.35-4.84-.78-.17-1.58-.3-2.37-.3-12.99-.03-25.98-.03-38.97-.04-.18,0-.37,.07-.56,.1v16.85Zm.04-41.44v16.08h.92c12.34,0,24.69,0,37.03,0,.48,0,.96,0,1.44-.05,3.15-.29,4.96-1.68,5.31-4.54,.27-2.16,.32-4.39,.11-6.55-.32-3.4-1.9-4.72-5.31-4.93-.36-.02-.72-.01-1.08-.01-12.34,0-24.69,0-37.03,0h-1.39Z"/>
  <path class="cls-21" d="M261.02,66c8.25,6.87,16.25,13.53,24.41,20.33-.5,.03-.83,.07-1.15,.07-3.6,0-7.2,.04-10.79-.03-.64-.01-1.41-.28-1.89-.7-7.21-6.32-14.37-12.68-21.56-19.02-.35-.31-.87-.62-1.32-.62-6.79-.04-13.59-.03-20.47-.03v20.32h-9.06V26.88c.44,0,.83,0,1.22,0,15.91,0,31.82-.02,47.73,.03,1.93,0,3.9,.3,5.79,.71,4.55,.96,7.58,3.78,8.64,8.28,1.65,7,1.67,14.11-.02,21.11-1.26,5.23-5.27,8.28-10.87,8.72-3.06,.24-6.14,.19-9.21,.28-.38,0-.76,0-1.44,0Zm-32.82-7.51h1.42c11.63,0,23.26,0,34.89,0,1.36,0,2.71-.06,4.07-.15,2.82-.19,4.7-1.65,5.44-4.39,1.07-4,.93-8.09,.3-12.12-.66-4.21-2.82-5.82-7.1-5.82-12.63,0-25.26,0-37.89,0-.38,0-.76,0-1.13,0v22.49Z"/>
  <path class="cls-6" d="M174.87,86.4c-5.72,0-11.44,.07-17.15-.04-2.22-.04-4.47-.29-6.63-.77-5.37-1.18-8.3-4.79-9.22-10.06-.42-2.39-.66-4.83-.69-7.25-.08-7.88-.1-15.76,0-23.64,.04-2.53,.35-5.1,.88-7.58,1.22-5.65,4.65-8.81,10.32-9.66,2.08-.31,4.21-.49,6.31-.5,11.39-.04,22.79-.05,34.19,.03,1.94,.01,3.9,.33,5.79,.77,5.06,1.19,8.03,4.51,9.05,9.54,.42,2.06,.72,4.18,.74,6.28,.08,8.92,.07,17.84-.02,26.76-.02,2.05-.37,4.13-.81,6.15-1.2,5.51-4.8,8.56-10.27,9.45-1.92,.31-3.88,.48-5.83,.5-5.56,.07-11.12,.02-16.67,.02Zm-.02-9.11c5.76,0,11.51,.04,17.27-.02,4.03-.04,6.19-1.76,6.96-5.37,.2-.93,.31-1.9,.32-2.85,.04-7.6,.06-15.19,.04-22.79,0-1.39-.11-2.8-.29-4.18-.44-3.26-2.1-5.09-5.19-5.77-.81-.18-1.66-.31-2.49-.31-11.07-.02-22.15-.07-33.22,0-5.13,.03-7.66,2.33-7.79,7.38-.22,8.51-.14,17.02-.17,25.53,0,.79,.08,1.6,.23,2.38,.8,4.16,2.89,5.93,7.19,5.97,5.71,.05,11.43,.01,17.15,0Z"/>
  <path class="cls-25" d="M486.87,86.4c-5.64,0-11.27,.07-16.91-.04-2.22-.04-4.47-.3-6.64-.78-5.32-1.17-8.47-4.72-9.35-10.39-.3-1.93-.54-3.89-.55-5.83-.04-8.88-.04-17.75,.06-26.63,.02-2.06,.38-4.14,.85-6.15,1.29-5.48,5.03-8.35,10.42-9.18,2.08-.32,4.21-.49,6.32-.5,10.87-.05,21.75-.07,32.62,.01,2.3,.02,4.63,.29,6.88,.77,5.25,1.11,8.33,4.52,9.32,9.73,.44,2.3,.71,4.67,.74,7.01,.09,8.16,.09,16.32,0,24.47-.03,2.38-.3,4.79-.76,7.13-1.14,5.73-4.67,8.96-10.6,9.87-2.01,.31-4.05,.46-6.08,.48-5.44,.07-10.87,.02-16.31,.02Zm.08-50.4c-5.51,0-11.03-.03-16.54,0-4.21,.03-6.67,1.66-7.49,5-.3,1.23-.5,2.52-.51,3.78-.06,7.59-.07,15.19-.03,22.78,0,1.59,.19,3.19,.5,4.75,.51,2.62,2.16,4.25,4.8,4.69,1.45,.24,2.93,.4,4.4,.4,9.83,.03,19.66,.02,29.49,0,1.2,0,2.4-.07,3.59-.19,3.69-.38,5.57-2.1,6.15-5.73,.23-1.41,.38-2.86,.38-4.29-.01-7.83-.03-15.66-.16-23.49-.07-4.21-1.82-6.6-5.17-7.38-1.04-.24-2.13-.34-3.2-.35-5.39-.03-10.79-.02-16.18-.02Z"/>
  <path class="cls-21" d="M293.06,86.32V26.96h56.17v8.98h-47.1v16.36h45.78v8.36h-45.79v16.68h47.1v8.98h-56.17Z"/>
  <path class="cls-21" d="M806.85,26.88c-.38,3.07-.75,6.04-1.14,9.12-.47,0-.9,0-1.33,0-13.19,0-26.39-.01-39.58,.02-1.34,0-2.71,.19-4.03,.48-2.72,.6-4.28,2.39-4.52,5.17-.12,1.46-.18,2.95-.04,4.4,.38,3.89,2.35,5.78,6.27,6,3.07,.17,6.15,.22,9.22,.23,6.4,.03,12.8-.08,19.19,.05,2.61,.05,5.26,.39,7.81,.94,5.56,1.2,9,4.63,9.75,10.37,.56,4.29,.54,8.62-.47,12.85-1.26,5.24-4.85,8.1-9.96,9.1-2.34,.46-4.74,.73-7.12,.74-13.75,.07-27.51,.03-41.26,.03h-1.35c.2-3,.39-5.93,.59-9.06h1.38c12.83,0,25.67,0,38.5-.01,1.59,0,3.19-.11,4.78-.28,3.65-.4,5.39-2.1,5.69-5.72,.14-1.7,.14-3.43-.06-5.12-.39-3.23-2.61-5.08-6.38-5.23-4.39-.18-8.78-.21-13.18-.24-5.2-.04-10.4,.08-15.59-.05-2.41-.06-4.85-.39-7.21-.9-5.51-1.2-8.76-4.7-9.57-10.28-.6-4.17-.64-8.38,.24-12.52,1.18-5.53,4.84-8.75,10.83-9.58,2.24-.31,4.53-.49,6.79-.5,13.47-.05,26.95-.02,40.42-.02,.43,0,.87,0,1.32,0Z"/>
  <path class="cls-21" d="M131.5,35.77c-1.96,1.76-3.97,3.58-6,5.4,.08,.16,0,0-.07-.14-1.78-3.43-4.68-5.01-8.46-5.02-10.96-.02-21.91-.01-32.87,0-.99,0-2,.1-2.97,.3-3.43,.72-5.36,3.02-5.53,6.82-.18,3.95-.23,7.91-.23,11.86,0,5.08,0,10.16,.22,15.22,.19,4.67,2.72,7.01,7.46,7.06,6.48,.08,12.95,.05,19.43,.06,5.12,0,10.24,.03,15.35-.04,3.62-.05,6.31-1.71,7.94-5,.07-.14,.17-.27,.12-.18,1.86,1.74,3.76,3.47,5.6,5.28,.19,.18,.11,.82-.05,1.14-2.17,4.22-5.63,6.73-10.27,7.6-1.01,.19-2.06,.25-3.09,.25-11.72,.02-23.43,.05-35.15-.03-2.29-.02-4.63-.31-6.87-.83-4.99-1.15-7.85-4.52-8.8-9.45-.44-2.3-.72-4.66-.74-7-.09-8.32-.1-16.64,0-24.96,.03-2.53,.4-5.09,.92-7.58,1.14-5.41,4.77-8.3,10.07-9.15,2.08-.33,4.21-.49,6.31-.5,11.48-.05,22.95-.03,34.43-.02,5.84,0,10.99,3.42,13.26,8.88Z"/>
  <path class="cls-21" d="M667.75,86.38h-10.43c-2.54-4.56-5.11-9.13-7.62-13.73-.45-.83-.94-1.16-1.93-1.15-12.11,.04-24.22,.03-36.33,0-.82,0-1.27,.23-1.67,.97-2.4,4.4-4.86,8.78-7.33,13.14-.19,.34-.66,.75-1,.76-3.22,.06-6.45,.03-9.83,.03,1.12-2.03,2.17-3.93,3.23-5.83,9.89-17.64,19.79-35.28,29.65-52.93,.35-.63,.73-.78,1.39-.78,2.52,.03,5.04,.06,7.55-.01,.86-.02,1.25,.31,1.63,1,6.48,11.65,12.99,23.29,19.49,34.94,4.25,7.61,8.51,15.22,12.76,22.83,.11,.2,.23,.4,.43,.76Zm-22.21-22.19c-5.31-9.44-10.56-18.76-15.86-28.18-5.3,9.42-10.55,18.75-15.86,28.18h31.72Z"/>
  <path class="cls-1" d="M32,79.72c-2.76-2.82-5.5-5.66-8.29-8.45-3.07-3.07-6.35-5.97-8.57-9.77-3.21-5.5-2.15-11.38,2.95-15.22,3.2-2.41,6.72-4.38,9.96-6.73,2.05-1.48,3.85-3.29,5.77-4.95,.63-.8,1.26-1.6,1.89-2.4,.48-.9,.95-1.79,1.43-2.69,.26-.79,.52-1.58,.78-2.37l.62-2.4c.1-.8,.19-1.6,.29-2.4-.07-.94-.14-1.89-.22-2.83-.09-.75-.18-1.51-.26-2.26-.17-.92-.34-1.85-.51-2.77-.23-.76-.47-1.52-.7-2.28-1.61-3.34-3.23-6.68-4.83-10.02-.15-.32-.26-.67-.38-1,0,0-.02,.03-.02,.03,2.84,2.98,5.15,6.35,7.2,9.91,1.99,3.46,3.5,7.12,4.02,11.08,.8,6.05-.72,11.48-5.17,15.78-2.49,2.4-5.29,4.47-7.97,6.67-1.9,1.56-3.79,3.14-5.12,5.32h6.39c-.7-1.04-1.24-1.84-1.86-2.76,1.61-1.26,3.2-2.51,4.88-3.84,3.59,2.57,7.05,5.17,7.8,9.94,.52,3.33-.46,6.3-2.48,8.85-2.02,2.55-4.32,4.89-6.62,7.47-1.61-1.7-3.02-3.2-4.48-4.75,.42-.59,.81-1.12,1.27-1.77h-4.66c1.4,1.69,2.52,3.21,3.82,4.57,3.5,3.67,7.14,7.2,10.59,10.91,2.94,3.16,5.23,6.76,6.26,11.02,1.28,5.3,.26,10.32-2.22,15.05-3.13,5.98-7.74,10.72-12.85,15.02-.04,.04-.13,.02-.11,.02,1.45-2.34,2.93-4.73,4.4-7.11,.4-.8,.8-1.59,1.2-2.39,.36-.82,.72-1.63,1.08-2.45,.27-.87,.54-1.73,.82-2.6,.2-.88,.4-1.76,.6-2.64,.12-.8,.24-1.59,.35-2.39,.02-.88,.03-1.75,.05-2.63-.02-.75-.04-1.49-.06-2.24-.15-.88-.29-1.76-.44-2.63-.22-.8-.44-1.59-.65-2.39-.35-.94-.71-1.88-1.06-2.82-.39-.75-.78-1.49-1.18-2.24-.64-1.02-1.28-2.03-1.93-3.05-.6-.8-1.2-1.6-1.8-2.39Zm.2-27.34c-2.18,0-4.16,0-6.15,0-2.71,0-2.88,.18-2.77,2.9h9.27c-.13-1.08-.23-1.98-.34-2.9Zm-9.03,5.39c.21,.75,.42,1.31,.52,1.89,.14,.84,.52,1.17,1.43,1.12,1.79-.1,3.59-.06,5.39-.12,.31-.01,.78-.16,.88-.38,.37-.82,.62-1.69,.89-2.5h-9.11Z"/>
  <path class="cls-21" d="M531.58,26.91h8.92v50.32h46.52v9.1h-55.44V26.91Z"/>
  <path class="cls-9" d="M36.23,110.19c-.4,.8-.8,1.59-1.2,2.39-5.1,.11-10.2,.22-15.71,.33,1.27,2.05,2.36,3.81,3.45,5.57-.07,.07-.13,.13-.2,.2-.78-.73-1.57-1.45-2.33-2.2-3.65-3.61-6.96-7.5-9.3-12.12-4.34-8.54-3.85-16.68,2.3-24.15,2.53-3.07,5.46-5.81,8.3-8.8,1.62,1.54,3.02,2.88,4.43,4.22-1.34,1.47-2.6,2.84-3.99,4.36,1.24,0,2.24,.03,3.24,0,2.26-.08,4.53-.18,6.79-.28,.6,.8,1.2,1.6,1.8,2.39-3.99,.12-7.98,.25-11.97,.37-1.96,.06-2.8,.79-3.35,3.05,5.77-.12,11.51-.25,17.24-.37,.39,.75,.78,1.49,1.18,2.24-.56,.04-1.11,.11-1.67,.12-5.78,.12-11.56,.23-17.34,.38-.36,0-.87,.25-1.02,.53-.36,.68-.55,1.45-.85,2.33,7.45-.19,14.7-.37,21.95-.55,.22,.8,.44,1.59,.65,2.39-3.19,.07-6.38,.13-9.57,.2-4.23,.09-8.46,.21-12.69,.27-.71,.01-1.02,.23-1.03,.95,0,.54-.1,1.08-.17,1.69,8.04-.16,15.97-.32,23.9-.48,.02,.75,.04,1.49,.06,2.24-7.97,.21-15.93,.41-24.06,.62,.08,.96,.16,1.79,.23,2.62,8.07-.21,15.92-.41,23.78-.61-.12,.8-.24,1.59-.36,2.39-7.62,.18-15.23,.35-22.84,.53-.16,2.19,.21,2.61,2.13,2.57,6.7-.15,13.41-.31,20.11-.46-.27,.87-.54,1.73-.82,2.6-.42-.07-.83-.22-1.25-.21-3.43,.06-6.85,.17-10.28,.22-2.82,.04-5.64,0-8.5,0,.32,2.52,.67,2.88,2.69,2.84,5.42-.12,10.84-.27,16.25-.41Z"/>
  <path class="cls-15" d="M442.18,86.36h-8.78V26.96h8.78v59.4Z"/>
  <path class="cls-8" d="M37.92,27.14c-.26,.79-.52,1.58-.78,2.37-5.74,.13-11.49,.26-17.32,.4,.89,2.61,1.13,2.76,3.46,2.68,4.14-.14,8.28-.26,12.42-.39-.63,.8-1.26,1.6-1.89,2.4-3.46,0-6.93,0-10.39,0-.06,.17-.13,.33-.19,.5,1.17,1.07,2.34,2.13,3.64,3.32-1.34,.85-2.65,1.71-4.01,2.5-.18,.11-.63-.01-.83-.18-4.15-3.37-7.52-7.24-8.51-12.74-.58-3.21-.29-6.36,.62-9.46,1.93-6.54,5.71-11.97,10.27-16.92,.05,.05,.09,.09,.14,.14-1.51,2.9-3.03,5.79-4.51,8.7-.34,.66-.53,1.41-.82,2.22,6.06-.16,11.99-.32,17.92-.48,.23,.76,.47,1.52,.7,2.28-6.41,.2-12.83,.39-19.34,.6-.19,.91-.35,1.74-.55,2.73,6.93-.19,13.66-.37,20.4-.55,.09,.75,.18,1.51,.26,2.26-6.92,.21-13.84,.43-20.77,.64v2.81c7.06-.21,14.02-.42,20.98-.62-.1,.8-.19,1.6-.29,2.4-6.74,.17-13.48,.33-20.21,.5-.12,2.02,.2,2.4,1.99,2.36,5.87-.14,11.73-.3,17.6-.46Z"/>
  <path class="cls-18" d="M374.29,119.98h-1.68v-12.14h1.61v2c1.37-1.46,2.84-2.13,4.65-2.09,1.82,.05,3.24,.73,4.24,2.4,1.35-1.7,3.08-2.49,5.23-2.4,2.63,.1,4.52,1.74,4.63,4.36,.11,2.59,.02,5.18,.02,7.83h-1.66c0-2.31,.02-4.62,0-6.92-.03-2.01-.92-3.26-2.51-3.61-1.99-.44-3.89,.28-4.6,1.88-.34,.78-.5,1.69-.53,2.54-.08,2.03-.02,4.06-.02,6.12h-1.68c0-.99,0-2.01,0-3.03,0-1.32,.03-2.64,0-3.96-.06-2.24-1.11-3.43-3.15-3.66-2.12-.24-3.85,.9-4.3,2.91-.17,.77-.2,1.58-.21,2.37-.03,1.75,0,3.51,0,5.38Z"/>
  <path class="cls-18" d="M561.35,114.41c1.33,1.88,2.59,3.66,3.88,5.47-1.25,.35-2.07,.04-2.73-1.04-.74-1.23-1.62-2.38-2.51-3.5-.24-.3-.75-.52-1.15-.53-1.62-.06-3.25-.02-4.98-.02v5.18h-1.72v-16.41c2.9,.13,5.85,.08,8.75,.46,2.37,.31,3.92,2.31,4.13,4.53,.26,2.81-.78,4.5-3.67,5.86Zm-7.45-9.06v8.03c2.09-.11,4.13-.08,6.13-.35,2.15-.29,3.32-1.85,3.25-3.9-.07-2.08-1.3-3.56-3.44-3.75-1.93-.17-3.89-.04-5.94-.04Z"/>
  <path class="cls-19" d="M609.48,102.51h1.57v7.53c1.4-1.6,2.94-2.34,4.83-2.29,1.85,.05,3.43,.67,4.63,2.1,2.08,2.49,1.83,6.37-.51,8.59-2.05,1.94-6.26,2.41-8.86-.54-.04,.75-.07,1.35-.11,2.02h-1.56v-17.42Zm1.62,11.3c-.03,2.7,1.86,4.66,4.49,4.67,2.65,0,4.6-1.92,4.62-4.57,.02-2.64-1.92-4.65-4.52-4.7-2.57-.05-4.56,1.95-4.59,4.61Z"/>
  <path class="cls-19" d="M399.25,117.72v6.77h-1.61v-16.69h1.53v2.25c1.44-1.62,3.02-2.38,4.96-2.29,1.9,.08,3.49,.77,4.68,2.27,2.01,2.54,1.58,6.55-.92,8.65-2.07,1.74-6.2,2.12-8.63-.96Zm0-3.94c-.04,2.72,1.84,4.69,4.49,4.71,2.67,.01,4.62-1.93,4.63-4.59,0-2.65-1.98-4.67-4.58-4.68-2.54-.01-4.5,1.96-4.53,4.57Z"/>
  <path class="cls-18" d="M232.52,119.97v-16.11c2.76,0,5.52-.26,8.21,.07,3.28,.4,4.87,2.64,4.7,5.84-.14,2.69-2.29,4.74-5.37,4.94-1.87,.12-3.74,.02-5.77,.02v5.25h-1.79Zm1.77-6.58c2.18-.12,4.26-.1,6.3-.38,1.93-.26,3-1.65,3.11-3.54,.11-1.95-.82-3.54-2.78-3.89-2.15-.39-4.38-.36-6.63-.52v8.33Z"/>
  <path class="cls-8" d="M4.91,61.2c2.55-.01,4.65,2.08,4.66,4.64,0,2.54-2.13,4.66-4.67,4.63-2.48-.03-4.59-2.12-4.62-4.58-.03-2.53,2.09-4.68,4.63-4.69Z"/>
  <path class="cls-23" d="M354.08,116.66c.29,.37,.59,.74,.9,1.14-1.49,2.57-7.63,3.65-11.41,.68-3.72-2.93-4.24-8.78-1.04-12.26,3.31-3.6,9.34-3.8,12.62-.3-.38,.32-.77,.64-1.17,.97-3.49-3.09-8.07-1.89-10.08,.38-2.27,2.57-2.2,6.79,.14,9.3,2.09,2.24,6.75,3.17,10.04,.1Z"/>
  <path class="cls-20" d="M579.57,114.32h-10.6c.02,3.69,5.21,5.76,8.7,2.62,.29,.32,.58,.64,.93,1.03-1.77,1.94-3.98,2.33-6.36,1.9-2.65-.47-4.34-2.09-4.96-4.72-.72-3.05,1-6.15,3.87-7.1,3.19-1.05,6.54,.31,7.72,3.23,.36,.9,.44,1.91,.68,3.04Zm-10.63-1.34h8.74c-.29-2.72-2.57-3.78-4.38-3.77-2.21,0-4.2,1.45-4.37,3.77Z"/>
  <path class="cls-20" d="M523.69,114.33h-10.4c.12,1.82,1.01,3.05,2.54,3.68,2.2,.9,4.3,.64,6.15-1.07,.3,.32,.59,.63,.88,.93-1.1,2.12-5.1,2.78-7.8,1.57-2.83-1.26-4.22-4.49-3.28-7.53,.9-2.92,3.78-4.61,6.99-4.09,3.09,.49,5.06,3.02,4.93,6.52Zm-10.41-1.34h8.75c-.28-2.68-2.52-3.78-4.37-3.77-2.18,0-4.19,1.4-4.37,3.77Z"/>
  <path class="cls-20" d="M463.41,114.32h-10.34c.12,1.82,1,3.05,2.53,3.68,2.2,.9,4.3,.64,6.17-1.08,.31,.3,.62,.59,.9,.85-1.12,2.24-5.29,2.88-7.94,1.61-2.84-1.36-4.17-4.67-3.11-7.7,1.01-2.89,4.14-4.53,7.27-3.8,3.03,.71,4.92,3.35,4.53,6.44Zm-1.62-1.32c-.4-2.42-2.08-3.84-4.44-3.8-2.35,.04-3.96,1.47-4.27,3.8h8.71Z"/>
  <path class="cls-20" d="M268.61,114.31h-10.6c.1,1.77,.93,2.98,2.39,3.62,2.22,.98,4.35,.74,6.29-1,.31,.33,.62,.65,.98,1.04-1.8,1.95-4.01,2.33-6.39,1.9-2.59-.48-4.27-2.03-4.91-4.63-.76-3.09,.94-6.25,3.87-7.2,3.19-1.03,6.53,.34,7.71,3.26,.36,.9,.43,1.91,.66,3Zm-1.88-1.31c-.41-2.43-2.08-3.84-4.45-3.8-2.35,.05-3.96,1.48-4.27,3.8h8.71Z"/>
  <path class="cls-20" d="M313.51,114.33h-10.4c.13,1.82,1.01,3.05,2.54,3.68,2.2,.9,4.3,.64,6.15-1.08,.3,.32,.59,.63,.88,.93-1.11,2.12-5.1,2.77-7.8,1.57-2.82-1.26-4.21-4.49-3.27-7.53,.9-2.92,3.78-4.61,6.99-4.09,3.09,.5,5.06,3.02,4.93,6.52Zm-1.64-1.33c-.58-2.55-2.23-3.89-4.57-3.8-2.3,.09-3.82,1.46-4.2,3.8h8.77Z"/>
  <path class="cls-20" d="M432.46,117.93c-1.81,2.09-5.12,2.7-7.8,1.53-2.47-1.08-3.81-3.48-3.57-6.44,.2-2.49,2.04-4.53,4.63-5.14,4.16-.98,7.78,2.05,7.49,6.44h-10.41c.17,1.83,1.05,3.08,2.59,3.7,2.2,.87,4.3,.61,6.12-1.11,.31,.34,.61,.66,.94,1.02Zm-.89-4.91c-.47-2.52-2.23-3.95-4.6-3.82-2.33,.13-3.89,1.57-4.1,3.82h8.71Z"/>
  <path class="cls-20" d="M640.51,116.92c.31,.34,.61,.66,.89,.98-1.55,2.18-5.34,2.81-8.08,1.39-2.76-1.43-4.01-4.68-2.94-7.67,1.02-2.84,4.09-4.45,7.18-3.76,3.02,.67,4.85,3.16,4.63,6.45h-10.41c.17,1.85,1.05,3.1,2.6,3.71,2.2,.87,4.3,.6,6.12-1.1Zm.03-3.92c-.4-2.42-2.08-3.84-4.44-3.8-2.35,.04-3.96,1.47-4.27,3.8h8.71Z"/>
  <path class="cls-11" d="M438.35,119.98h-1.61v-17.42h1.59v7.27c1.8-1.95,3.84-2.43,6.12-1.88,2.1,.51,3.38,2,3.47,4.18,.1,2.59,.02,5.18,.02,7.82h-1.66c0-2.2,0-4.39,0-6.58-.02-3.4-2.63-5.09-5.69-3.66-1.65,.77-2.18,2.24-2.21,3.93-.04,2.07,0,4.15,0,6.34Z"/>
  <path class="cls-20" d="M604.84,119.95h-1.61v-1.71c-1.53,1.58-3.29,1.91-5.2,1.74-2.81-.25-4.46-2.61-3.4-4.9,.71-1.55,2.15-1.95,3.68-2.02,1.59-.08,3.19-.02,4.77-.02,.3-2.72-1.37-4.27-4.12-3.78-1.23,.22-2.41,.72-3.68,1.11-.13-.21-.35-.58-.62-1.04,2.56-1.68,5.2-2.14,8-1.02,1.37,.55,2.12,1.77,2.17,3.21,.09,2.79,.03,5.58,.03,8.42Zm-1.78-5.63c-1.35,0-2.7-.01-4.05,0-.4,0-.8,.07-1.19,.14-.94,.17-1.65,.66-1.8,1.66-.14,.92,.23,1.68,1.08,2.07,1.55,.72,3.13,.66,4.58-.21,1.29-.77,1.8-1.98,1.38-3.67Z"/>
  <path class="cls-13" d="M363.02,120c-3.64,0-6.25-2.55-6.25-6.12,0-3.58,2.59-6.13,6.24-6.13,3.66,0,6.25,2.53,6.25,6.11,0,3.58-2.6,6.13-6.23,6.13Zm.06-1.53c2.58-.01,4.48-1.95,4.49-4.59,0-2.67-1.97-4.7-4.56-4.68-2.6,.02-4.57,2.04-4.55,4.69,.01,2.67,1.95,4.59,4.63,4.58Z"/>
  <path class="cls-18" d="M478.17,119.97h-1.67c0-1.9,0-3.8,0-5.7,0-.28,0-.56,0-.84-.01-2.76-1.24-4.14-3.66-4.15-2.53,0-4.19,1.6-4.24,4.18-.04,2.15,0,4.3,0,6.49h-1.63v-12.15h1.6v2.04c1.41-1.6,3.01-2.16,4.89-2.1,2.71,.09,4.62,1.84,4.71,4.56,.08,2.51,.02,5.03,.02,7.66Z"/>
  <path class="cls-13" d="M289.35,118.52c.31-.54,.52-.91,.76-1.32,1.94,1.06,3.9,1.67,6.09,1.15,.99-.24,1.76-.69,1.77-1.78,.01-1.01-.75-1.42-1.62-1.63-1.35-.32-2.73-.54-4.07-.92-1.68-.47-2.39-1.32-2.44-2.69-.06-1.47,.69-2.55,2.28-3.13,2.43-.88,4.76-.52,7.16,.63-.25,.46-.46,.86-.71,1.32-1.73-.79-3.46-1.24-5.33-.76-.87,.23-1.62,.61-1.69,1.59-.08,1.03,.69,1.47,1.55,1.69,1.27,.32,2.57,.52,3.84,.85,1.93,.5,2.75,1.43,2.75,2.96,0,1.54-.96,2.77-2.71,3.21-2.65,.66-5.19,.4-7.62-1.17Z"/>
  <path class="cls-13" d="M480.82,118.54c.29-.52,.51-.93,.75-1.34,1.96,1.08,3.93,1.68,6.12,1.15,.94-.23,1.68-.67,1.74-1.69,.06-1.08-.73-1.51-1.65-1.72-1.35-.31-2.73-.54-4.07-.92-1.67-.47-2.37-1.33-2.42-2.71-.05-1.46,.72-2.54,2.31-3.11,2.43-.87,4.76-.49,7.17,.65-.28,.48-.51,.88-.76,1.32-1.73-.82-3.47-1.25-5.34-.76-.87,.23-1.61,.63-1.67,1.61-.06,1.03,.73,1.46,1.57,1.67,1.27,.32,2.57,.51,3.84,.84,1.86,.49,2.69,1.4,2.72,2.86,.03,1.56-.88,2.81-2.62,3.27-2.68,.71-5.26,.44-7.7-1.12Z"/>
  <path class="cls-8" d="M50.04,105.09c2.23,0,3.94,1.74,3.91,3.95-.03,2.18-1.85,3.96-3.99,3.93-2.19-.04-3.91-1.8-3.9-4,.01-2.22,1.71-3.88,3.98-3.87Z"/>
  <path class="cls-14" d="M281.77,117.55c-1.35,2.15-3.94,2.98-6.69,2.22-2.69-.75-4.4-2.94-4.44-5.68-.04-2.93,1.53-5.21,4.16-6.03,2.78-.86,5.57-.05,7.01,2.13-.38,.26-.76,.51-1.13,.77-2.23-2.31-5.28-2.21-7.14-.27-1.67,1.75-1.6,4.81,.11,6.52,1.83,1.83,4.71,1.68,7.01-.41,.36,.25,.74,.51,1.12,.76Z"/>
  <path class="cls-23" d="M504.5,118.07c.9-2.01,1.73-3.85,2.55-5.69,.51-1.12,1.13-2.21,1.49-3.38,.37-1.2,1.08-1.42,2.25-1.15-1.45,3.27-2.9,6.52-4.35,9.77-.21,.47-.48,.92-.64,1.41-.22,.67-.51,1.02-1.32,1.03-.82,0-1.07-.39-1.35-1.02-1.62-3.7-3.28-7.4-4.94-11.13,1.19-.38,1.83-.1,2.3,1.06,1.23,3,2.6,5.94,4.01,9.11Z"/>
  <path class="cls-18" d="M327.33,111.05c1.79,.01,3.07,1.32,3.05,3.11-.01,1.77-1.34,3.06-3.13,3.04-1.75-.02-3.12-1.4-3.09-3.12,.03-1.72,1.41-3.04,3.17-3.03Z"/>
  <path class="cls-11" d="M537.98,111.05c1.76,.02,3.08,1.37,3.05,3.13-.03,1.74-1.39,3.05-3.16,3.02-1.75-.02-3.08-1.38-3.05-3.13,.03-1.75,1.38-3.04,3.16-3.02Z"/>
  <path class="cls-4" d="M10.83,77.97c-1.62,.03-3.08-1.38-3.12-3.02-.05-1.72,1.36-3.16,3.09-3.15,1.63,0,3.07,1.43,3.08,3.06,.01,1.59-1.45,3.09-3.05,3.11Z"/>
  <path class="cls-26" d="M584.4,119.98h-1.55v-17.43h1.55v17.43Z"/>
  <path class="cls-26" d="M625.32,102.5h1.55v17.43h-1.55v-17.43Z"/>
  <path class="cls-18" d="M250.11,119.97h-1.46v-12.16h1.53v1.89c.77-.55,1.37-1.12,2.09-1.45,.73-.33,1.58-.42,2.48-.63v1.73c-.55,.07-1.1,.08-1.63,.22-1.86,.5-2.83,1.91-2.87,4.17-.03,2.03-.03,4.07-.04,6.1,0,.03-.05,.06-.1,.13Z"/>
  <path class="cls-18" d="M413.47,107.8h1.55v2.16c1.29-1.64,2.74-2.27,4.56-2.18v1.54c-3.49,.47-4.5,1.63-4.5,5.16,0,1.79,0,3.59,0,5.46h-1.61v-12.13Z"/>
  <path class="cls-26" d="M589.31,107.81h1.58v12.15h-1.58v-12.15Z"/>
  <path class="cls-26" d="M495.87,119.98h-1.55v-12.15h1.55v12.15Z"/>
  <path class="cls-26" d="M285.1,107.79h1.55v12.15h-1.55v-12.15Z"/>
  <path class="cls-4" d="M42.78,115.95c-1.38,0-2.46-1.06-2.44-2.38,.02-1.31,1.15-2.43,2.45-2.42,1.34,.01,2.45,1.11,2.44,2.43-.01,1.33-1.09,2.38-2.45,2.37Z"/>
  <path class="cls-8" d="M5.07,74.65c0,1.18-.77,1.95-1.94,1.94-1.13,0-1.97-.84-1.96-1.95,0-1.13,.84-1.95,1.97-1.95,1.16,0,1.93,.78,1.93,1.96Z"/>
  <path class="cls-4" d="M50.17,99.95c1.02,0,1.9,.89,1.9,1.9,0,1.07-.83,1.85-1.92,1.83-1.02-.01-1.82-.79-1.83-1.8-.02-1.05,.83-1.93,1.85-1.93Z"/>
  <path class="cls-23" d="M590.27,102.27c.33,.44,.95,.92,.91,1.33-.04,.46-.62,1.1-1.08,1.22-.72,.19-1.38-.33-1.27-1.14,.07-.5,.57-.93,.88-1.4,.19,0,.37-.01,.56-.02Z"/>
  <path class="cls-23" d="M287.2,104c-.48,.29-.99,.86-1.41,.8-.45-.06-1.08-.67-1.17-1.13-.15-.77,.48-1.31,1.25-1.15,.49,.1,.91,.6,1.35,.92,0,.19-.01,.37-.02,.56Z"/>
  <path class="cls-23" d="M495.31,102.28c.31,.46,.91,.95,.86,1.36-.06,.45-.66,1.08-1.12,1.18-.73,.16-1.37-.38-1.23-1.18,.09-.49,.61-.91,.93-1.36,.19,0,.37,0,.56,0Z"/>
  <path class="cls-8" d="M24.73,1.45c-.06,.1-.12,.21-.17,.31-.04-.05-.09-.09-.14-.14,.08-.08,.16-.15,.25-.23,0,0,.06,.06,.06,.06Z"/>
  <path class="cls-8" d="M24.66,1.39c.05-.06,.09-.12,.14-.17-.02,.08-.05,.16-.07,.23,0,0-.06-.06-.06-.06Z"/>
  <path class="cls-1" d="M31.93,1.17c-.08-.02-.16-.03-.23-.05,0-.04,.02-.07,.03-.11,.06,.06,.12,.12,.19,.18,0,0,.02-.03,.02-.03Z"/>
  <polygon class="cls-8" points="25.09 .8 25.11 .89 25.04 .88 25.09 .8"/>
  <path class="cls-9" d="M23.04,119.03s-.1-.08-.15-.12c.04-.02,.08-.03,.12-.05,0,.06,0,.12,0,.18,0,0,.02-.02,.02-.02Z"/>
  <path class="cls-9" d="M23.02,119.05c.08,.08,.16,.16,.23,.24,0,0,.01-.01,.01-.01-.08-.08-.15-.16-.23-.25,0,0-.02,.02-.02,.02Z"/>
  <path class="cls-9" d="M23.26,119.29s.06,.02,.09,.03c-.03-.01-.05-.03-.08-.04,0,0-.01,.01-.01,.01Z"/>
  <path class="cls-2" d="M683.36,77.31v-16.83c.43,0,.82,0,1.21,0,12.19,0,24.38-.01,36.57,.02,1.42,0,2.87,.14,4.27,.43,2.6,.54,3.94,1.94,4.17,4.54,.19,2.17,.2,4.38,.04,6.55-.21,2.92-1.82,4.54-4.72,5-1.22,.19-2.46,.3-3.69,.3-12.43,.02-24.86,.01-37.29,.01-.16,0-.31-.02-.56-.03Z"/>
  <path class="cls-2" d="M683.35,52.08v-16.02c.35-.02,.7-.06,1.04-.06,12.55,0,25.1,0,37.65,.01,.87,0,1.76,.12,2.61,.3,1.96,.43,3.13,1.73,3.46,3.66,.48,2.73,.49,5.49-.18,8.2-.52,2.12-2.03,3.41-4.21,3.67-1.15,.13-2.31,.22-3.46,.22-11.83,.02-23.66,0-35.5,0-.44,0-.87,0-1.42,0Z"/>
  <path class="cls-27" d="M367.86,77.44v-16.85c.19-.04,.37-.1,.56-.1,12.99,0,25.98,.01,38.97,.04,.79,0,1.59,.13,2.37,.3,2.72,.6,4.08,2.05,4.35,4.84,.18,1.86,.27,3.75,.18,5.62-.18,3.79-2.14,5.64-6.14,5.97-1.35,.11-2.71,.17-4.07,.18-11.59,.01-23.18,0-34.77,0-.47,0-.94,0-1.45,0Z"/>
  <path class="cls-2" d="M367.9,36h1.39c12.34,0,24.69,0,37.03,0,.36,0,.72,0,1.08,.01,3.42,.2,4.99,1.53,5.31,4.93,.2,2.16,.15,4.39-.11,6.55-.35,2.85-2.16,4.25-5.31,4.54-.48,.04-.96,.05-1.44,.05-12.34,0-24.69,0-37.03,0h-.92v-16.08Z"/>
  <path class="cls-16" d="M228.2,58.49v-22.49c.37,0,.75,0,1.13,0,12.63,0,25.26,0,37.89,0,4.28,0,6.45,1.61,7.1,5.82,.63,4.02,.77,8.12-.3,12.12-.73,2.74-2.62,4.2-5.44,4.39-1.35,.09-2.71,.15-4.07,.15-11.63,.01-23.26,0-34.89,0h-1.42Z"/>
  <path class="cls-2" d="M174.84,77.29c-5.72,0-11.43,.04-17.15-.01-4.3-.04-6.39-1.81-7.19-5.97-.15-.78-.23-1.59-.23-2.38,.03-8.51-.05-17.02,.17-25.53,.13-5.05,2.66-7.35,7.79-7.38,11.07-.08,22.15-.03,33.22,0,.83,0,1.68,.13,2.49,.31,3.09,.68,4.75,2.51,5.19,5.77,.19,1.38,.29,2.78,.29,4.18,.01,7.6,0,15.19-.04,22.79,0,.95-.12,1.92-.32,2.85-.76,3.61-2.93,5.33-6.96,5.37-5.76,.06-11.51,.02-17.27,.02Z"/>
  <path class="cls-10" d="M486.95,36c5.4,0,10.79-.02,16.18,.02,1.07,0,2.16,.1,3.2,.35,3.36,.78,5.1,3.16,5.17,7.38,.13,7.83,.15,15.66,.16,23.49,0,1.43-.15,2.87-.38,4.29-.58,3.62-2.45,5.35-6.15,5.73-1.19,.12-2.39,.18-3.59,.19-9.83,.01-19.66,.02-29.49,0-1.47,0-2.95-.16-4.4-.4-2.65-.45-4.29-2.08-4.8-4.69-.3-1.56-.49-3.16-.5-4.75-.04-7.59-.02-15.19,.03-22.78,0-1.26,.21-2.55,.51-3.78,.82-3.34,3.28-4.97,7.49-5,5.51-.03,11.03,0,16.54,0Z"/>
  <path class="cls-17" d="M645.54,64.19h-31.72c5.3-9.42,10.55-18.75,15.86-28.18,5.3,9.42,10.55,18.74,15.86,28.18Z"/>
  <path class="cls-22" d="M39.08,100.11c-7.86,.2-15.71,.4-23.78,.61-.07-.83-.15-1.66-.23-2.62,8.13-.21,16.1-.42,24.06-.62-.02,.88-.03,1.76-.05,2.63Z"/>
  <path class="cls-22" d="M39.07,95.24c-7.93,.16-15.86,.32-23.9,.48,.06-.61,.16-1.15,.17-1.69,0-.72,.32-.94,1.03-.95,4.23-.07,8.46-.18,12.69-.27,3.19-.07,6.38-.13,9.57-.2,.15,.88,.29,1.76,.44,2.63Z"/>
  <path class="cls-12" d="M38.83,22.34c-6.96,.21-13.92,.41-20.98,.62v-2.81c6.93-.21,13.85-.43,20.77-.64,.07,.94,.14,1.89,.22,2.83Z"/>
  <path class="cls-22" d="M38.12,105.14c-6.7,.15-13.41,.3-20.11,.46-1.92,.04-2.29-.38-2.13-2.57,7.61-.18,15.22-.35,22.84-.53-.2,.88-.4,1.76-.6,2.64Z"/>
  <path class="cls-22" d="M37.97,90.21c-7.25,.18-14.5,.36-21.95,.55,.31-.88,.49-1.65,.85-2.33,.15-.29,.67-.53,1.02-.53,5.78-.15,11.56-.25,17.34-.38,.56-.01,1.11-.08,1.67-.12,.35,.94,.71,1.88,1.06,2.82Z"/>
  <path class="cls-12" d="M38.36,17.25c-6.74,.18-13.47,.36-20.4,.55,.2-.99,.37-1.81,.55-2.73,6.51-.2,12.92-.4,19.34-.6,.17,.93,.34,1.85,.51,2.77Z"/>
  <path class="cls-22" d="M36.23,110.19c-5.42,.14-10.84,.29-16.25,.41-2.02,.04-2.37-.32-2.69-2.84,2.86,0,5.68,.03,8.5,0,3.43-.05,6.85-.16,10.28-.22,.41,0,.83,.14,1.25,.21-.36,.82-.72,1.63-1.08,2.45Z"/>
  <path class="cls-24" d="M37.92,27.14c-5.87,.15-11.73,.31-17.6,.46-1.78,.04-2.1-.34-1.99-2.36,6.73-.17,13.47-.33,20.21-.5-.21,.8-.42,1.6-.63,2.4Z"/>
  <path class="cls-22" d="M35.73,85.16c-5.73,.12-11.47,.25-17.24,.37,.55-2.25,1.39-2.98,3.35-3.05,3.99-.12,7.98-.25,11.97-.37,.64,1.02,1.28,2.03,1.93,3.05Z"/>
  <path class="cls-24" d="M35.71,32.2c-4.14,.13-8.28,.25-12.42,.39-2.33,.08-2.58-.07-3.46-2.68,5.83-.13,11.57-.26,17.32-.4-.48,.9-.95,1.79-1.43,2.69Z"/>
  <path class="cls-5" d="M32.2,52.37c.11,.92,.22,1.82,.34,2.9h-9.27c-.1-2.72,.06-2.9,2.77-2.9,1.99,0,3.97,0,6.15,0Z"/>
  <path class="cls-5" d="M23.17,57.77h9.11c-.28,.81-.53,1.68-.89,2.5-.1,.22-.57,.37-.88,.38-1.8,.06-3.6,.02-5.39,.12-.91,.05-1.29-.28-1.43-1.12-.1-.57-.31-1.13-.52-1.89Z"/>
  <path class="cls-3" d="M553.9,105.35c2.05,0,4.01-.13,5.94,.04,2.13,.19,3.36,1.67,3.44,3.75,.07,2.05-1.1,3.61-3.25,3.9-2,.27-4.03,.24-6.13,.35v-8.03Z"/>
  <path class="cls-17" d="M611.1,113.81c.03-2.66,2.02-4.66,4.59-4.61,2.6,.05,4.54,2.07,4.52,4.7-.02,2.65-1.97,4.58-4.62,4.57-2.63,0-4.52-1.97-4.49-4.67Z"/>
  <path class="cls-17" d="M399.24,113.77c.04-2.61,1.99-4.58,4.53-4.57,2.6,.01,4.58,2.04,4.58,4.68,0,2.66-1.96,4.61-4.63,4.59-2.64-.01-4.53-1.99-4.49-4.71Z"/>
  <path class="cls-3" d="M234.28,113.39v-8.33c2.25,.16,4.48,.13,6.63,.52,1.96,.35,2.89,1.94,2.78,3.89-.11,1.89-1.17,3.27-3.11,3.54-2.04,.28-4.12,.26-6.3,.38Z"/>
  <path class="cls-17" d="M568.94,112.98c.16-2.32,2.15-3.76,4.37-3.77,1.81,0,4.09,1.05,4.38,3.77h-8.74Z"/>
  <path class="cls-17" d="M513.28,112.98c.19-2.37,2.19-3.77,4.37-3.77,1.85,0,4.1,1.1,4.37,3.77h-8.75Z"/>
  <path class="cls-17" d="M461.79,113c-2.91,0-5.81,0-8.71,0,.31-2.32,1.91-3.75,4.27-3.8,2.37-.04,4.04,1.37,4.44,3.8Z"/>
  <path class="cls-17" d="M266.73,113c-2.91,0-5.81,0-8.71,0,.3-2.32,1.91-3.75,4.27-3.8,2.37-.05,4.04,1.37,4.45,3.8Z"/>
  <path class="cls-17" d="M311.88,113h-8.77c.37-2.34,1.9-3.71,4.2-3.8,2.33-.09,3.99,1.25,4.57,3.8Z"/>
  <path class="cls-17" d="M431.58,113.02h-8.71c.22-2.25,1.77-3.69,4.1-3.82,2.37-.13,4.14,1.3,4.6,3.82Z"/>
  <path class="cls-17" d="M640.54,113c-2.91,0-5.81,0-8.71,0,.31-2.33,1.92-3.75,4.27-3.8,2.37-.04,4.04,1.38,4.44,3.8Z"/>
  <path class="cls-7" d="M603.06,114.32c.43,1.69-.09,2.9-1.38,3.67-1.45,.87-3.04,.92-4.58,.21-.86-.4-1.22-1.16-1.08-2.07,.15-1,.86-1.48,1.8-1.66,.39-.07,.79-.14,1.19-.14,1.35-.02,2.7,0,4.05,0Z"/>
  <path class="cls-17" d="M363.08,118.48c-2.68,.01-4.61-1.91-4.63-4.58-.01-2.65,1.95-4.68,4.55-4.69,2.58-.02,4.56,2.02,4.56,4.68,0,2.64-1.9,4.58-4.49,4.59Z"/>
</svg>