<?xml version="1.0" encoding="UTF-8"?>
<svg id="Layer_1" data-name="Layer 1" xmlns="http://www.w3.org/2000/svg" viewBox="0 0 421.2 117">
  <defs>
    <style>
      .cls-1 {
        fill: #35a3b2;
      }

      .cls-2 {
        fill: #195173;
      }

      .cls-3 {
        fill: #fff;
      }

      .cls-4 {
        fill: #1a5273;
      }

      .cls-5 {
        fill: #37a3b2;
      }

      .cls-6 {
        fill: #fefefe;
      }

      .cls-7 {
        fill: #36a3b2;
      }

      .cls-8 {
        fill: #fdfdfd;
      }
    </style>
  </defs>
  <rect class="cls-3" x="0" width="421.2" height="117"/>
  <g>
    <path class="cls-6" d="M424.4,21.84v73.32H-3.2V21.84h427.6ZM326.33,50.95v-26.59l-.33-.33h-9.65l-.33.33v64.67h10.31v-25.5c0-1.39,1.53-4.96,2.32-6.22,4.81-7.63,18.61-8.04,21.43,1.34.17.57.6,2.2.6,2.69v27.68h10.09v-32.06c0-3.01-2.54-8.18-4.68-10.32-6.84-6.82-22.04-5.98-28,1.79l-1.76,2.51ZM370.21,54.45h14.15c.78,0,3.27-.82,4.12-1.15,12.43-4.87,11.59-23.3-1.21-27.14-3.42-1.03-12.68-1.25-16.3-.83-.32.04-.56.03-.76.34v28.78ZM52.28,44.35c1.41-2.43,3.89-4.48,5.39-6.77.17-.27.42-.5.25-.86-.13-.28-2.66-2.25-3.12-2.59C30.97,16.62-3.84,35.88,3.4,65.93c5.62,23.36,34.25,30.45,52.3,15.66.53-.44,2.45-1.85,2.29-2.47l-6.01-6.51c-6.35,5.78-14.86,8.68-23.37,6.25-17.92-5.11-21.22-29.59-5.11-39.02,8.45-4.94,18.58-3.72,26.06,2.37.55.44,2.13,2.49,2.72,2.15ZM190.31,70.43c11.16-.36,25.05,2.19,33.35-7.11,5.64-6.31,6.48-17.59,2.71-25.04-7.76-15.32-31.95-9.6-45.84-10.76l-.76.34v32.94c-9.28.53-22.79-2.37-29.27,6.15-2.88,3.79-3.03,9.92-1.05,14.14,5,10.63,23.01,10.51,30.32,2.48v5.25h10.53v-18.38ZM294.52,31.47h-10.09v12.69h-6.58v7.66h6.58v26.37c0,1.22,1.22,4.44,1.88,5.56,4.63,7.89,15.87,6.37,22.67,2.4l-2.4-7.86c-3.29,1.27-9.52,3.94-11.45-.5-.12-.27-.62-1.65-.62-1.79v-24.18h13.49l.33-.33v-7l-.33-.33h-13.49v-12.69ZM403.78,32.35h-5.48l7.02,10.83-7.68,11.27h5.38c1.88-2.45,3.45-5.14,5.31-7.6.11-.14-.03-.38.39-.28l4.94,7.88h5.7l-7.46-11.27,6.8-10.83h-4.94l-5.05,7.44c-.42.1-.28-.14-.39-.28-1.62-2.12-3.06-4.91-4.54-7.16ZM174.73,42.2c-6.73-.84-13.59.29-19.68,3.24-.95.46-2.87,1.44-3.66,2.04-.19.14-.38.21-.36.51l3.87,6.67c.56.16,2.49-1.3,3.14-1.63,4.16-2.09,8.57-3.32,13.28-2.73,1.18.15,2.27.55,3.4.87v-8.97ZM271.7,89.03v-31.4c-.93-13.91-13.22-16.79-25.09-15.18-5.04.68-9.31,2.92-13.71,5.25l.02.69,3.7,6.5c.34.24,3.43-1.84,4.08-2.15,4.99-2.4,12.14-3.7,17.13-.73,1.7,1.01,3.8,3.83,3.8,5.84v3.17c-8.67.61-20.47-2.14-27.53,4.16-4.29,3.83-5.13,10.24-3.01,15.46,4.59,11.29,23.29,11.2,30.75,2.92v5.47h9.87ZM146.43,42.2h-3.18c-2.89,0-7.83,2.79-9.85,4.84l-3.2,4.35v-8.97h-10.09v46.62h10.09v-25.06c0-5.53,6.89-12.15,12.4-12.15h3.51l.33-.33v-9.3ZM74.03,42.41h-10.09v30.75c-.36,16.21,21.71,21.43,31.27,10.62.96-1.08,1.56-2.43,2.52-3.5v8.75h10.09v-46.62h-10.09c-.14,8.56.29,17.16-.25,25.69-2.27,15.83-23.45,15.01-23.45,1.34v-27.03Z"/>
    <path class="cls-2" d="M190.31,70.43v18.38h-10.53v-5.25c-7.31,8.04-25.32,8.16-30.32-2.48-1.98-4.21-1.83-10.35,1.05-14.14,6.48-8.52,19.99-5.62,29.27-6.15V27.86l.76-.34c13.89,1.16,38.08-4.56,45.84,10.76,3.77,7.45,2.93,18.72-2.71,25.04-8.31,9.3-22.19,6.75-33.35,7.11ZM190.31,61.02h16.56c5.97,0,11.16-4.5,11.71-10.42,1.57-16.96-17.31-13.27-28.27-13.65v24.07ZM179.77,68.24h-14.81c-.68,0-2.91.51-3.61.77-4.93,1.82-4.83,8.41-.6,10.87s11.84,1.41,15.61-1.58c1.19-.94,3.41-3.61,3.41-5.14v-4.92Z"/>
    <path class="cls-4" d="M326.33,50.95l1.76-2.51c5.96-7.77,21.16-8.61,28-1.79,2.15,2.14,4.68,7.31,4.68,10.32v32.06h-10.09v-27.68c0-.48-.43-2.12-.6-2.69-2.82-9.39-16.62-8.98-21.43-1.34-.79,1.26-2.32,4.83-2.32,6.22v25.5h-10.31V24.36l.33-.33h9.65l.33.33v26.59Z"/>
    <path class="cls-7" d="M52.28,44.35c-.59.34-2.17-1.71-2.72-2.15-7.48-6.09-17.61-7.32-26.06-2.37-16.11,9.43-12.81,33.91,5.11,39.02,8.51,2.43,17.02-.47,23.37-6.25l6.01,6.51c.16.61-1.75,2.03-2.29,2.47-18.05,14.79-46.68,7.71-52.3-15.66-7.23-30.05,27.57-49.3,51.39-31.79.47.34,2.99,2.31,3.12,2.59.17.36-.07.59-.25.86-1.5,2.29-3.98,4.34-5.39,6.77Z"/>
    <path class="cls-2" d="M271.7,89.03h-9.87v-5.47c-7.46,8.28-26.17,8.37-30.75-2.92-2.12-5.22-1.28-11.63,3.01-15.46,7.06-6.3,18.86-3.55,27.53-4.16v-3.17c0-2.01-2.09-4.83-3.8-5.84-4.99-2.97-12.14-1.68-17.13.73-.65.31-3.74,2.39-4.08,2.15l-3.7-6.5-.02-.69c4.4-2.33,8.68-4.57,13.71-5.25,11.87-1.61,24.16,1.27,25.09,15.18v31.4ZM261.61,68.46h-15.69c-.39,0-2.15.48-2.64.65-4.68,1.59-4.98,7.73-1.27,10.48,4.62,3.42,14.11,1.77,17.74-2.59.51-.61,1.86-2.91,1.86-3.61v-4.92Z"/>
    <path class="cls-7" d="M74.03,42.41v27.03c0,13.67,21.18,14.49,23.45-1.34.54-8.53.11-17.13.25-25.69h10.09v46.62h-10.09v-8.75c-.96,1.07-1.56,2.42-2.52,3.5-9.56,10.81-31.63,5.59-31.26-10.62v-30.75s10.09,0,10.09,0Z"/>
    <path class="cls-2" d="M294.52,31.47v12.69h13.49l.33.33v7l-.33.33h-13.49v24.18c0,.14.5,1.53.62,1.79,1.93,4.45,8.16,1.78,11.45.5l2.4,7.86c-6.81,3.96-18.04,5.49-22.67-2.4-.66-1.12-1.88-4.34-1.88-5.56v-26.37h-6.58v-7.66h6.58v-12.69h10.09Z"/>
    <path class="cls-1" d="M146.43,42.2v9.3l-.33.33h-3.51c-5.51,0-12.4,6.62-12.4,12.15v25.06h-10.09v-46.62h10.09v8.97l3.2-4.35c2.02-2.05,6.96-4.84,9.85-4.84h3.18Z"/>
    <path class="cls-7" d="M370.21,54.45v-28.78c.19-.31.44-.3.76-.34,3.62-.42,12.88-.2,16.3.83,12.8,3.84,13.64,22.27,1.21,27.14-.84.33-3.34,1.15-4.12,1.15h-14.15ZM375.26,50.07h8.45c1.23,0,4.04-1.38,5.04-2.19,5.35-4.34,4.62-13.63-1.57-16.81-.5-.26-2.84-1.13-3.25-1.13h-8.67v20.13Z"/>
    <path class="cls-5" d="M403.78,32.35c1.49,2.25,2.93,5.05,4.54,7.16.11.14-.03.38.39.28l5.05-7.44h4.94l-6.8,10.83,7.46,11.27h-5.7l-4.94-7.88c-.42-.1-.28.14-.39.28-1.86,2.46-3.44,5.15-5.31,7.6h-5.38l7.68-11.27-7.02-10.83h5.48Z"/>
    <path class="cls-7" d="M174.73,42.2v8.97c-1.13-.32-2.22-.72-3.4-.87-4.71-.59-9.11.64-13.28,2.73-.65.33-2.58,1.79-3.14,1.63l-3.87-6.67c-.02-.3.17-.37.36-.51.79-.59,2.71-1.57,3.66-2.04,6.08-2.95,12.94-4.08,19.68-3.24Z"/>
    <path class="cls-6" d="M190.31,61.02v-24.07c10.97.38,29.84-3.31,28.27,13.65-.55,5.92-5.74,10.42-11.71,10.42h-16.56Z"/>
    <path class="cls-8" d="M179.77,68.24v4.92c0,1.53-2.22,4.2-3.41,5.14-3.77,2.99-11.4,4.02-15.61,1.58s-4.33-9.05.6-10.87c.71-.26,2.94-.77,3.61-.77h14.81Z"/>
    <path class="cls-8" d="M261.61,68.46v4.92c0,.7-1.35,3-1.86,3.61-3.62,4.35-13.12,6-17.74,2.59-3.71-2.74-3.41-8.89,1.27-10.48.49-.17,2.25-.65,2.64-.65h15.69Z"/>
    <path class="cls-8" d="M375.26,50.07v-20.13h8.67c.41,0,2.75.87,3.25,1.13,6.19,3.18,6.92,12.47,1.57,16.81-1,.81-3.81,2.19-5.04,2.19h-8.45Z"/>
  </g>
</svg>