<?xml version="1.0" encoding="UTF-8"?>
<svg id="Layer_1" data-name="Layer 1" xmlns="http://www.w3.org/2000/svg" viewBox="0 0 421.2 117">
  <defs>
    <style>
      .cls-1 {
        fill: #fff;
      }

      .cls-2 {
        fill: #faba0c;
      }
    </style>
  </defs>
  <rect class="cls-1" x="0" width="421.2" height="117"/>
  <g id="Layer_1-2" data-name="Layer 1">
    <g>
      <polygon points="96.64 51.91 119.3 44.6 136.95 34.34 131.41 42.82 153.08 41.2 137.79 48.62 158.27 46 175.31 39.67 205.84 8.86 208.95 22.08 218.56 22.08 200.65 40.82 225.66 29.51 222.66 36.83 232.22 36.94 219.27 45.4 239.59 39.94 256.8 46.11 238.44 31.04 255.87 22.19 268.7 35.24 276.89 35.24 282.63 43.11 286.83 38.19 324.46 52.34 289.29 32.68 282.19 31.48 257.01 14.93 236.42 26.62 205.95 4.99 173.09 34.87 171.28 34.87 161.56 30.99 151.99 35.46 138.43 29.39 96.64 51.91"/>
      <path class="cls-2" d="M179.05,1.68c-16.73,0-30.52,12.54-32.5,28.73l3.38,1.51c1.27-14.97,13.82-26.73,29.12-26.73,6.37,0,12.27,2.04,17.07,5.5l2.65-2.41c-5.49-4.15-12.32-6.61-19.72-6.61Z"/>
      <g>
        <polygon points="77.25 85.28 99.74 85.28 99.74 82.42 77.25 82.42 77.25 73.17 101.29 73.17 101.29 70.28 74.2 70.28 74.2 98.43 101.68 98.43 101.68 95.57 77.25 95.57 77.25 85.28"/>
        <polygon points="131.28 94.76 108.62 70.28 104.94 70.28 104.94 98.43 108.03 98.43 108.03 73.98 130.68 98.43 134.37 98.43 134.37 70.28 131.28 70.28 131.28 94.76"/>
        <path d="M167.03,73.93c-2.81-2.42-6.88-3.65-12.09-3.65h-15.77v28.15h15.77c5.21,0,9.28-1.22,12.09-3.63,2.83-2.42,4.26-5.93,4.26-10.43s-1.43-8.02-4.26-10.45h0Zm-12.09,21.64h-12.68v-22.4h12.68c8.55,0,13.26,3.98,13.26,11.2s-4.71,11.2-13.26,11.2Z"/>
        <polygon points="178.61 85.28 201.1 85.28 201.1 82.42 178.61 82.42 178.61 73.17 202.65 73.17 202.65 70.28 175.56 70.28 175.56 98.43 203.04 98.43 203.04 95.57 178.61 95.57 178.61 85.28"/>
        <path d="M222.42,70.28h-3.16l-15.14,28.15h3.35l3.74-6.89h19.18l3.77,6.89h3.31l-14.94-27.94-.11-.21h0Zm6.5,18.4h-16.19l8.1-15.25,8.1,15.25h0Z"/>
        <polygon points="254.65 94.81 241.6 70.49 241.48 70.28 238.02 70.28 252.96 98.22 253.07 98.43 256.16 98.43 271.21 70.28 267.74 70.28 254.65 94.81"/>
        <path d="M305.46,73.46c-3.41-2.72-8.13-4.15-13.63-4.15s-10.2,1.44-13.62,4.15c-3.44,2.73-5.26,6.51-5.26,10.91s1.82,8.17,5.26,10.9c3.41,2.7,8.12,4.13,13.62,4.13s10.22-1.43,13.63-4.13c3.43-2.72,5.25-6.49,5.25-10.9s-1.81-8.18-5.25-10.91h0Zm-13.63,23.09c-9.44,0-15.79-4.89-15.79-12.17s6.34-12.17,15.79-12.17,15.79,4.89,15.79,12.17-6.34,12.17-15.79,12.17Z"/>
        <path d="M345.69,94.53l-.27,.45c-.56,.94-1.21,1.4-1.99,1.4-.96,0-1.54-.58-2.12-2.16l-1.55-4.01c-.51-1.34-1.25-2.93-2.6-4.04,2.17-.29,4.02-1.07,5.4-2.27,1.62-1.41,2.48-3.31,2.48-5.49,0-2.39-.98-4.44-2.83-5.92-1.82-1.45-4.32-2.22-7.22-2.22h-19.93v28.15h3.09v-11.67h13.92c2.09,0,3.54,1.24,4.57,3.91l1.75,4.47c.66,1.75,1.86,4.07,4.77,4.07,1.71,0,3.13-.82,4.22-2.43l.18-.26-1.86-1.98h0Zm-27.58-21.36h16.72c4.16,0,7.07,2.2,7.07,5.36s-2.91,5.32-7.07,5.32h-16.72v-10.68Z"/>
      </g>
      <g>
        <path d="M160.53,108.45h2.34c1.56,0,2.65,.92,2.65,2.22s-1.1,2.21-2.65,2.21h-1.5v3.21h-.84v-7.64h0Zm2.34,3.65c1.05,0,1.79-.59,1.79-1.43s-.74-1.45-1.79-1.45h-1.5v2.88h1.5Z"/>
        <path d="M173.41,108.45h1.04l3,7.64h-.97l-.79-2.09h-3.52l-.8,2.09h-.92l2.97-7.64h0Zm2.02,4.79l-1.49-3.94h-.02l-1.5,3.94h3.01Z"/>
        <path d="M184.01,109.22h-1.83v-.77h4.47v.77h-1.78v6.87h-.86v-6.87h0Z"/>
        <path d="M192.57,108.45h.86v3.23h3.6v-3.23h.86v7.64h-.86v-3.64h-3.6v3.64h-.86v-7.64Z"/>
        <path d="M203.76,112.15c0-2.39,1.57-3.95,3.96-3.95s3.97,1.57,3.97,3.95-1.57,3.94-3.97,3.94-3.96-1.57-3.96-3.94Zm7.06,0c0-1.91-1.22-3.18-3.1-3.18s-3.1,1.27-3.1,3.18,1.22,3.17,3.1,3.17,3.1-1.27,3.1-3.17Z"/>
        <path d="M217.78,108.45h.86v6.87h2.95v.77h-3.81v-7.64h0Z"/>
        <path d="M226.95,112.15c0-2.39,1.57-3.95,3.96-3.95s3.98,1.57,3.98,3.95-1.57,3.94-3.98,3.94-3.96-1.57-3.96-3.94Zm7.06,0c0-1.91-1.22-3.18-3.1-3.18s-3.1,1.27-3.1,3.18,1.22,3.17,3.1,3.17,3.1-1.27,3.1-3.17Z"/>
        <path d="M240.59,112.15c0-2.29,1.59-3.95,3.79-3.95s3.5,1.02,3.93,2.69l-.78,.02c-.44-1.18-1.2-1.94-3.15-1.94-1.7,0-2.92,1.32-2.92,3.18s1.31,3.17,3.13,3.17c1.48,0,2.96-.83,2.99-2.42h-2.87v-.77h3.74c.01,.13,.01,.24,.01,.37,0,2.31-1.72,3.6-3.87,3.6-2.32,0-4-1.66-4-3.94h0Z"/>
        <path d="M256.82,112.2l-2.63-3.75h.95l2.11,2.92h0l2.06-2.92h.97l-2.62,3.75v3.89h-.86v-3.89h0Z"/>
      </g>
    </g>
  </g>
</svg>