<?xml version="1.0" encoding="UTF-8"?>
<svg id="Layer_1" data-name="Layer 1" xmlns="http://www.w3.org/2000/svg" viewBox="0 0 2500 613.61">
  <defs>
    <style>
      .cls-1 {
        fill: #32ee88;
      }

      .cls-2 {
        fill: #fff;
      }

      .cls-3 {
        fill: #022031;
      }

      .cls-4 {
        fill: #08c169;
      }

      .cls-5 {
        fill: #05d071;
      }
    </style>
  </defs>
  <rect class="cls-2" y="-.32" width="2502" height="612"/>
  <g>
    <g>
      <path class="cls-1" d="M512.2,540.48c-9.2,0-16.6-7.4-16.6-16.6v-14.1c0-36.6,26.3-62.5,54.2-89.9,33.2-32.6,67.5-66.4,67.5-123.6s-34.3-91-67.5-123.7c-27.8-27.4-54.2-53.3-54.2-89.9v-14.1c0-9.2,7.4-16.6,16.6-16.6s16.6,7.4,16.6,16.6v14.1c0,22.7,20.5,42.8,44.2,66.2,34.5,33.9,77.4,76.2,77.4,147.3s-42.9,113.4-77.4,147.3c-23.7,23.4-44.2,43.5-44.2,66.2v14.1c0,9.2-7.4,16.7-16.6,16.7Z"/>
      <path class="cls-5" d="M485.3,240.88c0,6.6,4.8,12.1,11.1,13.1-3.1,8.9-5.3,18.5-6.3,28.9h-5.7c-7.3,0-13.3,5.9-13.3,13.3s6,13.3,13.3,13.3h5.7c1,10.5,3.2,20.1,6.3,29-6.3,1.1-11.1,6.5-11.1,13.1,0,7.3,5.9,13.3,13.3,13.3h10.5c12,19.3,28.1,35.7,44.2,51.5,1.2,1.2,2.3,2.4,3.5,3.5,6.8,6.7,13.5,13.3,19.8,20.1,19.3,20.7,34.3,42.2,34.3,69.8v14.1c0,9.2-7.5,16.7-16.6,16.7s-16.6-7.5-16.6-16.7v-1.6h3.3c7.3,0,13.3-5.9,13.3-13.3s-6-13.3-13.3-13.3h-5.9c-3.9-10.8-11.9-21.3-21.8-32.1-6.1-6.5-12.8-13.1-19.8-20-1.2-1.1-2.4-2.3-3.6-3.6-33.8-33.3-73.8-75.1-73.8-143.7s40-110.5,73.8-143.7c1.2-1.3,2.4-2.5,3.6-3.6,7-6.9,13.7-13.5,19.8-20,9.9-10.8,17.9-21.3,21.8-32.1h5.9c7.3,0,13.3-5.9,13.3-13.3s-6-13.3-13.3-13.3h-3.3v-1.6c0-9.2,7.4-16.6,16.6-16.6s16.6,7.4,16.6,16.6v14.1c0,27.6-15,49.1-34.3,69.8-6.3,6.7-13,13.3-19.8,20.1-1.2,1.1-2.3,2.3-3.5,3.5-16.1,15.9-32.2,32.2-44.2,51.5h-10.5c-7.3-.1-13.3,5.9-13.3,13.2Z"/>
      <path class="cls-3" d="M489.4,296.18c0,4.6.2,9,.7,13.3h-5.7c-7.3,0-13.3-5.9-13.3-13.3s6-13.3,13.3-13.3h5.7c-.5,4.3-.7,8.7-.7,13.3Z"/>
      <path class="cls-1" d="M647.1,296.18c0,7.3-5.9,13.3-13.3,13.3h-143.7c-.5-4.3-.7-8.7-.7-13.3s.2-9,.7-13.3h143.8c7.3.1,13.2,6,13.2,13.3Z"/>
      <path class="cls-3" d="M509.1,227.58c-5.1,8.2-9.5,16.9-12.7,26.4-6.3-1.1-11.1-6.5-11.1-13.1,0-7.3,5.9-13.3,13.3-13.3h10.5Z"/>
      <path class="cls-1" d="M634.4,240.88c0,7.3-5.9,13.3-13.3,13.3h-122.5c-.7,0-1.5-.1-2.2-.2,3.3-9.5,7.6-18.2,12.7-26.4h112c7.4,0,13.3,6,13.3,13.3Z"/>
      <path class="cls-3" d="M509.1,364.78h-10.5c-7.3,0-13.3-5.9-13.3-13.3,0-6.6,4.8-12,11.1-13.1,3.3,9.6,7.6,18.2,12.7,26.4Z"/>
      <path class="cls-1" d="M628.2,351.58c0,7.3-5.9,13.3-13.3,13.3h-105.8c-5.1-8.2-9.5-16.9-12.7-26.3.7-.1,1.5-.2,2.2-.2h116.3c7.4-.1,13.3,5.8,13.3,13.2Z"/>
      <path class="cls-3" d="M594.4,508.98c0,7.3-6,13.3-13.3,13.3h-3.3v-12.5c0-4.8-.9-9.5-2.7-14.1h5.9c7.4-.1,13.4,5.9,13.4,13.3Z"/>
      <path class="cls-1" d="M577.8,509.78v12.5h-50.1c-7.3,0-13.3-5.9-13.3-13.3s5.9-13.3,13.3-13.3h47.5c1.7,4.5,2.6,9.3,2.6,14.1Z"/>
      <path class="cls-3" d="M594.4,83.58c0,7.3-6,13.3-13.3,13.3h-5.9c1.7-4.6,2.7-9.3,2.7-14.1v-12.5h3.3c7.2-.1,13.2,5.9,13.2,13.3Z"/>
      <path class="cls-1" d="M577.8,70.18v12.5c0,4.8-.9,9.5-2.7,14.1h-47.5c-7.3,0-13.3-5.9-13.3-13.3s5.9-13.3,13.3-13.3h50.2Z"/>
    </g>
    <path class="cls-3" d="M755.1,593.38h0c-3.6,0-6.5-2.9-6.5-6.5V26.38c0-3.6,2.9-6.5,6.5-6.5h0c3.6,0,6.5,2.9,6.5,6.5v560.4c.1,3.6-2.8,6.6-6.5,6.6Z"/>
    <g>
      <path class="cls-4" d="M991.3,228.18v25.1h23.8v29.7c-11.5,11.1-24.5,16.7-39.2,16.7-15.9,0-35.1-6.4-46.5-19.2-11.3-12.8-16.9-28.3-16.9-46.5s5.7-33.7,16.9-46.6c11.3-12.9,24.9-19.3,40.8-19.3,14.9,0,27.7,5.4,38.4,16.1,1.6,1.6,2.3,2.3,2.3,2.3l20.1-16.4s-.4-.7-2-2.6c-6.4-7.5-15.5-13.9-27.2-19.1-8-3.6-16.6-5.8-25.3-6.3-26.7-1.7-48.7,7.5-66.2,27.6-16.1,18.5-24.1,40-24.1,64.3s8.1,46.3,24.5,64.5,41.8,27.4,65.1,27.4c12.7,0,24.5-2.9,35.2-8.6,10.8-5.7,19.6-12.3,26.5-19.7,1.7-2.7,2.6-3.9,2.6-3.9v-65.4c0-.1-.1-.1-.1-.1h-48.7Z"/>
      <path class="cls-4" d="M1124,194.28c-17.3,0-31.7,6.7-43,20-11.4,13.3-17.1,29-17.1,47,0,19.2,6.6,35.7,19.8,49.5,10.5,11,25.3,17.1,40.6,17.3,21.1.3,38.6-7.4,52.4-23,1.6-1.8,2-2.5,2-2.5l-15.6-16.1c-6,6.6-11.9,11.3-17.8,13.8-5.2,2.3-11.9,3.4-20,3.4s-15.7-3.1-22.3-9.3c-6.5-6.2-10.5-13.5-11.9-22h92.6s.7-2.9.7-8.7c0-20-5.9-36.5-17.6-49.7-11.7-13.1-26-19.7-42.8-19.7ZM1091.2,250.18c1.1-8.8,4.6-16.4,10.7-22.6,6.1-6.3,13.5-9.4,22.4-9.4s15.8,3.2,21.9,9.5c6.1,6.4,9.8,13.9,11,22.5h-66Z"/>
      <path class="cls-4" d="M1445.4,305.08c1.6-1.8,2-2.5,2-2.5l-15.6-16.1c-6,6.6-11.9,11.3-17.8,13.8-5.2,2.3-11.9,3.4-20,3.4s-15.7-3.1-22.3-9.3c-6.5-6.2-10.5-13.5-11.9-22h92.6s.7-2.9.7-8.7c0-20-5.9-36.5-17.6-49.7s-26-19.7-42.8-19.7-31.7,6.7-43,20c-11.4,13.3-17.1,29-17.1,47,0,19.2,6.6,35.7,19.8,49.5,10.5,11,25.3,17.1,40.6,17.3,21,.3,38.5-7.4,52.4-23ZM1370.5,227.58c6.1-6.3,13.5-9.4,22.4-9.4s15.8,3.2,21.9,9.5c6.1,6.4,9.8,13.9,11,22.5h-66c1.1-8.8,4.6-16.4,10.7-22.6Z"/>
      <path class="cls-4" d="M1944.9,194.28c-17.3,0-31.7,6.7-43,20-11.4,13.3-17.1,29-17.1,47,0,19.2,6.6,35.7,19.8,49.5,10.5,11,25.3,17.1,40.6,17.3,21.1.3,38.6-7.4,52.4-23,1.6-1.8,2-2.5,2-2.5l-15.6-16.1c-6,6.6-11.9,11.3-17.8,13.8-5.2,2.3-11.9,3.4-20,3.4s-15.7-3.1-22.3-9.3c-6.5-6.2-10.5-13.5-11.9-22h92.6s.7-2.9.7-8.7c0-20-5.9-36.5-17.6-49.7-11.8-13.1-26-19.7-42.8-19.7ZM1912,250.18c1.1-8.8,4.6-16.4,10.7-22.6,6.1-6.3,13.5-9.4,22.4-9.4s15.8,3.2,21.9,9.5c6.1,6.4,9.8,13.9,11,22.5h-66Z"/>
      <path class="cls-4" d="M2233.5,263.68c0-20-5.9-36.5-17.6-49.7-11.7-13.2-26-19.7-42.8-19.7s-31.7,6.7-43,20c-11.4,13.3-17.1,29-17.1,47,0,19.2,6.6,35.7,19.8,49.5,10.5,11,25.3,17.1,40.6,17.3,21.1.3,38.6-7.4,52.4-23,1.6-1.8,2-2.5,2-2.5l-15.6-16.1c-6,6.6-11.9,11.3-17.8,13.8-5.2,2.3-11.9,3.4-20,3.4s-15.7-3.1-22.3-9.3c-6.5-6.2-10.5-13.5-11.9-22h92.6c.1.1.7-2.8.7-8.7ZM2140.3,250.18c1.1-8.8,4.6-16.4,10.7-22.6,6.1-6.3,13.5-9.4,22.4-9.4s15.8,3.2,21.9,9.5c6.1,6.4,9.8,13.9,11,22.5h-66Z"/>
      <path class="cls-4" d="M1527.8,300.38c-19.3,0-32-7.4-42.2-20.5l-25.2,13.7c25.4,32.2,49,32.2,69.7,32.2,18,0,32.3-5.1,43-15.3,10.7-10.2,16.1-22.4,16.1-36.7-.2-12.3-3.9-22.5-11.1-30.5s-18-15-32.5-20.7c-19.4-7-32.5-12.8-39.2-17.2-6.7-4.4-10-10.2-10-17.2,0-4.7,1.1-8.8,3.2-12.2,2.1-3.4,4.9-5.9,8.2-7.3,3.3-1.4,6.5-2.5,9.6-3.1s6.1-.9,9-.9c12.8,0,23,7.6,35,17.8,2.4,2.4,4,3.5,4,3.5l18-21.1s-1.1-.8-3.3-2.7c-16.9-14.5-33.1-24.3-53.1-24.3-18.1,0-32.6,4.6-43.3,13.7-10.7,9.1-16.1,21.1-16.1,35.9,0,13.9,4.3,25.3,12.9,34,8.6,8.8,21.7,16,39.3,21.5,14.3,4.5,24.5,9.1,30.8,13.8,6.3,4.7,9.4,10.3,9.4,16.8s-2.5,12.4-7.6,17.2c-5.1,4.7-13.8,9.6-24.6,9.6Z"/>
      <path class="cls-4" d="M1675.6,192.48c-6.9,0-13.7,1.9-20.5,5.7-6.8,3.8-12.2,8.5-16.3,14.2v-16.3c0-.7-.5-1.2-1.2-1.2h-23.8c-.4,0-.7.3-.7.7v180.6c0,.4.3.7.7.7h24.3c.4,0,.7-.3.7-.7v-70.6c4.2,6,9.7,10.9,16.3,14.7,6.6,3.8,13.5,5.7,20.5,5.7,17.3,0,31.4-6.4,42.4-19.1,10.9-12.7,16.4-28.5,16.4-47.4s-5.4-34.8-16.3-47.7c-10.8-12.8-25-19.3-42.5-19.3ZM1697.2,288.38c-6.6,8.1-14.7,12.2-24.2,12.2s-17.7-4.1-24.6-12.2-10.3-17.8-10.3-28.9,3.4-21,10.2-29.1c6.8-8.1,15.1-12.2,24.8-12.2s17.6,4.1,24.2,12.2,9.9,17.8,9.9,29.1-3.3,20.8-10,28.9Z"/>
      <path class="cls-4" d="M2097.6,198.08c-2.5-.7-4.9-1.1-7.1-1.1-16.4,0-32.2,6.2-40.1,20.5l.1-15.3s-1.1-.1-2.1-.1h-21.1c-.4,0-.7.3-.7.7v120.4c0,.4.3.7.7.7h24.6c.4,0,.7-.3.7-.7v-53.1c0-17.7,3.2-30,9.7-39.7,6.4-9.6,19.7-9.9,33.8-7.1,2.8.5,4.5,1.5,4.5,1.5l-.1-25.6c0,.1-.6-.4-2.9-1.1Z"/>
      <path class="cls-4" d="M1286.1,203.48c-7.5-3.9-16.9-5.3-24.3-5.3-21,0-35.5,18.5-35.5,18.5h0v-13.8h-25.1v119.7h25.1v-69.4c0-9.6,3.7-18.9,10.7-25.5,5.5-5.1,12.5-9.5,20.8-9.5,7.7,0,13.5,3.4,17.8,7.5,6.2,6.1,9.3,14.7,9.3,23.4v73.6h25.1v-82.1c-.1-16.7-10.2-30.2-23.9-37.1Z"/>
      <path class="cls-4" d="M1839.6,203.48c-7.5-3.9-16.9-5.3-24.3-5.3-21,0-35.5,18.5-35.5,18.5h0v-79h-25.1v184.9h25.1v-69.4c0-9.6,3.7-18.9,10.7-25.5,5.5-5.1,12.5-9.5,20.8-9.5,7.7,0,13.5,3.4,17.8,7.5,6.2,6.1,9.3,14.7,9.3,23.4v73.6h25.1v-82.1c-.1-16.7-10.1-30.2-23.9-37.1Z"/>
      <polygon class="cls-4" points="1413.1 429.38 1392.8 429.38 1392.8 530.48 1458.3 530.48 1458.3 514.48 1413.1 514.48 1413.1 429.38"/>
      <path class="cls-4" d="M1497.5,429.18l-36.4,101.3h21.3l6.7-19.3h40.3l6.7,19.3h21.5l-36.4-101.3h-23.7ZM1494.6,494.98l14.6-42.3,14.6,42.3h-29.2Z"/>
      <path class="cls-4" d="M1628.5,478.68c5.2-1.6,9.4-4.4,12.5-8.4s4.7-8.9,4.7-14.8c0-5-1.3-9.5-3.8-13.5-2.6-4-6.3-7.1-11.3-9.3-5-2.2-10.9-3.3-17.8-3.3h-41.7v101.2h43.6c6.9,0,12.8-1.2,17.8-3.5s8.9-5.5,11.5-9.6c2.7-4.1,4-8.9,4-14.3,0-6-1.8-11.3-5.5-15.9-3.6-4.7-8.3-7.6-14-8.6ZM1591.4,445.78h18.5c4.8,0,8.6,1.1,11.2,3.3,2.6,2.2,3.9,5.4,3.9,9.4s-1.3,7.2-3.9,9.3c-2.6,2.2-6.3,3.3-11.2,3.3h-18.5v-25.3ZM1623.3,510.48c-2.8,2.3-6.6,3.5-11.5,3.5h-20.4v-27.2h20c4.9,0,8.8,1.2,11.7,3.7,2.9,2.5,4.3,5.9,4.3,10.2.1,4.2-1.3,7.5-4.1,9.8Z"/>
      <path class="cls-4" d="M1699.9,473.18c-1.9-.4-3.8-1-5.6-1.7-4.9-1.9-10-4.7-13.1-9-3.4-4.8-2.7-11.1,2.2-14.7,5.3-3.8,14.5-2.4,19.6,1,3,2,5.3,5.1,6.5,8.5.1.3,1.3,4.8,1.1,4.8h19.1c.5,0-1.2-8.1-1.4-8.8-3.1-10.1-10.5-19-20.5-22.9-10.5-4-25.4-3.7-34.8,2.9-11.4,7.9-14.9,24.6-8.9,36.8,5.6,11.2,17.2,17.1,29.1,19.1,8.6,1.5,20.9,6.9,19.7,17.6-.8,7.5-8.5,11.1-15.3,11.1-19.7,0-18.5-15.6-18.5-15.6h-19.3c-.7,0,1.8,10.7,2.2,11.7,1.3,3.4,3.3,6.6,5.9,9.3,4.9,5.1,11.5,8.1,18.3,9.5,1.3.3,2.6.5,3.9.6,11.8,1.4,25.6-1.5,34.3-10.1,9.7-9.7,9.4-26.1,1.2-36.6-6.3-7.6-16-11.7-25.7-13.5Z"/>
    </g>
  </g>
</svg>