<?xml version="1.0" encoding="UTF-8"?>
<svg id="Layer_1" data-name="Layer 1" xmlns="http://www.w3.org/2000/svg" xmlns:xlink="http://www.w3.org/1999/xlink" viewBox="0 0 3991.76 1020.64">
  <defs>
    <style>
      .cls-1 {
        fill: #fff;
      }

      .cls-2 {
        fill: #7bedff;
      }

      .cls-3 {
        fill: url(#linear-gradient);
      }
    </style>
    <linearGradient id="linear-gradient" x1="1994.87" y1="326.94" x2="1994.87" y2="1152.37" gradientTransform="translate(0 1022.18) scale(1 -1)" gradientUnits="userSpaceOnUse">
      <stop offset="0" stop-color="#5b38b8"/>
      <stop offset=".05" stop-color="#5e3cbf"/>
      <stop offset=".11" stop-color="#6647d2"/>
      <stop offset=".19" stop-color="#745bf2"/>
      <stop offset=".21" stop-color="#7962fe"/>
      <stop offset=".3" stop-color="#796ffe"/>
      <stop offset=".46" stop-color="#7a93fe"/>
      <stop offset=".67" stop-color="#7cccfe"/>
      <stop offset=".78" stop-color="#7debfe"/>
    </linearGradient>
  </defs>
  <rect class="cls-1" width="3991.76" height="1020.64"/>
  <path class="cls-3" d="M2565.98,22.68c-40.31,12.57-140.88,32.07-223.66,32.07s-163.36-7.36-214.44-11.09c-51.08-3.72-72.61,16.08-71.75,32.72.87,16.64,20.38,31,12.34,69.74-8.03,38.74-33.28,50.5-33.28,50.5,26.4-28.98,22.04-61.02,22.04-61.02-8.33,45.96-62.37,79.01-62.37,79.01,0,0-54.03-33.05-62.37-79.01,0,0-4.36,32.04,22.04,61.02,0,0-25.25-11.76-33.28-50.5-8.04-38.74,11.48-53.09,12.34-69.74.86-16.64-20.66-36.44-71.74-32.72-51.09,3.74-131.65,11.09-214.44,11.09s-183.36-19.51-223.67-32.07c-40.3-12.58-49.52-1.83-41.74,18.05,7.78,19.87,54.38,63.72,143.21,69.35,88.81,5.63,240.38-1.05,261.71-1.18,20.38-.12,26,2.23,25.95,3.02-.11,1.51-10.55,2-54.66,6.75-44.12,4.73-169.2,10.78-206.68,10.78s-53.07-.48-57.54,4.17c-4.47,4.64-3.09,30.07,33.33,45.53,36.43,15.46,95.74,9.76,130.75,5.42,35.03-4.35,126.81-17.2,155.03-19.01,26.04-1.68,20.49,3.15,2.81,6.45-19.05,3.55-80.11,17.63-142.36,26.94-45.61,6.82-84.85,5.41-83.65,16.79,1.18,11.04,38.14,29.91,97.28,27.74,59.13-2.17,54.12-9.51,116.68-21.45,63.78-12.18,71.45-12.09,72.53-10.46,1.09,1.63-41.11,15.57-76.6,25.94-33.16,9.69-46.78,14.42-56.56,17.68-9.77,3.26-3.17,22.22,31.03,26.57,34.21,4.35,82-11.86,104.72-20.85,23.76-9.4,71.06-22.15,73.77-18.35,0,0-49.2,31.69-45.37,84.81,2.66,36.98,41.21,71.17,66.68,91.29-67.29,52.35-61.14,95.34-45.06,129.12,11.25,23.64,39.01,51.91,54.67,66.75-26.78,30.55-29.28,64.6-28.82,79.91.03,1,1.46,1.09,1.63.1,6.6-40.2,38.39-69.76,38.39-69.76,0,0,31.79,29.56,38.4,69.76.16.98,1.58.89,1.62-.1.46-15.32-2.03-49.36-28.82-79.91,15.66-14.84,43.41-43.11,54.67-66.75,16.09-33.78,22.23-76.78-45.05-129.12,25.47-20.12,64.01-54.31,66.67-91.29,3.83-53.13-45.37-84.81-45.37-84.81,2.72-3.8,50,8.95,73.78,18.35,22.71,8.99,70.49,25.2,104.71,20.85,34.21-4.35,40.8-23.31,31.03-26.57s-23.4-7.99-56.55-17.68c-35.5-10.37-77.68-24.31-76.6-25.94,1.08-1.63,8.75-1.72,72.52,10.46,62.56,11.94,57.55,19.28,116.68,21.45,59.14,2.17,96.1-16.7,97.28-27.74,1.2-11.38-38.04-9.97-83.65-16.79-62.25-9.32-123.29-23.39-142.35-26.94-17.69-3.31-23.24-8.13,2.81-6.45,28.2,1.81,119.99,14.66,155.01,19.01,35.03,4.34,94.32,10.04,130.75-5.42,36.42-15.46,37.8-40.89,33.33-45.53-4.46-4.64-20.05-4.17-57.54-4.17s-162.57-6.05-206.67-10.78c-44.12-4.74-54.54-5.24-54.66-6.75-.07-.79,5.57-3.15,25.94-3.02,21.33.12,172.9,6.8,261.71,1.18,88.82-5.63,135.43-49.48,143.21-69.35,7.78-19.88-1.43-30.62-41.74-18.05h-.01ZM1994.86,233.18c9.55,7.59,22.21,17.36,33.64,29.08h-67.28c11.43-11.72,24.09-21.49,33.64-29.08ZM1932.47,321.32h124.77c-.28,10.84-4.78,21.62-11.25,31.62h-102.27c-6.47-10-10.97-20.78-11.25-31.62ZM2045.15,510.15v.15h-100.58v-.15c-.15-11.19,3.51-21.86,8.92-31.46h82.76c5.4,9.6,9.06,20.27,8.92,31.46h-.02ZM1946.29,524.03h97.12c-2.49,11.01-7.45,21.77-13.32,31.62h-70.49c-5.87-9.84-10.82-20.61-13.32-31.62h0ZM1994.86,600.74c-2.96-3.83-14.75-15.59-26.17-31.37h52.35c-11.42,15.78-23.21,27.54-26.17,31.37h0ZM2026.94,464.97h-64.16c14.4-18.16,32.08-30.01,32.08-30.01,0,0,17.68,11.85,32.08,30.01h0ZM1994.86,402.47s-22.73-14.91-40.76-35.81h81.52c-18.03,20.9-40.76,35.81-40.76,35.81ZM2055.86,307.6h-122c2.51-11.47,8.23-22.04,15.47-31.62h91.07c7.24,9.58,12.95,20.14,15.47,31.62h0ZM1959.43,143.18c0-19.56,15.86-35.42,35.42-35.42s35.42,15.86,35.42,35.42-15.86,35.42-35.42,35.42-35.42-15.86-35.42-35.42Z"/>
  <g>
    <path class="cls-2" d="M1128.05,843.75c-.68,4.14-2.35,8.05-5.01,11.73s-5.35,6.45-8.05,8.3c-6-4.56-12.98-8.3-20.92-11.22-7.95-2.92-15.98-4.37-24.09-4.37-9.05,0-17.2,2.22-24.47,6.66-7.27,4.44-13.04,11.64-17.31,21.62s-6.4,23.33-6.4,40.07c0,22.49,4.18,39.12,12.55,49.89,8.37,10.78,20.92,16.17,37.66,16.17,8.96,0,17.29-.99,24.98-2.98s13.52-3.82,17.5-5.52l13.82,20.03c-5.07,1.86-10.97,3.61-17.69,5.26s-13.8,2.98-21.24,3.99-14.83,1.52-22.19,1.52c-13.61,0-25.09-2.37-34.42-7.1-9.34-4.73-16.86-11.22-22.57-19.46-5.71-8.24-9.85-17.69-12.43-28.34-2.58-10.65-3.87-21.89-3.87-33.73,0-16.14,2.11-29.99,6.34-41.52,4.23-11.54,9.95-20.96,17.18-28.28,7.23-7.31,15.34-12.7,24.34-16.17,9-3.46,18.28-5.2,27.83-5.2,10.48,0,20.96,1.69,31.44,5.07s19.48,7.9,27.01,13.57h.01ZM1109.15,910.57c7.1,0,12.07,1.52,14.9,4.56s4.25,7.31,4.25,12.81v5.71h-46.91c-2.2,0-4.31-.27-6.34-.82-2.03-.55-3.7-1.65-5.01-3.3s-1.97-4.12-1.97-7.42c0-1.94.21-3.95.63-6.02.42-2.07.89-3.91,1.39-5.52h39.06ZM1102.56,949.75c0-5.83.17-11.29.51-16.36s.97-9.51,1.9-13.31l23.33,7.86v66.19l-25.74.51v-44.88h0Z"/>
    <path class="cls-2" d="M1206.27,830.06l1.65-1.65h24.6v22.06c0,3.55.04,6.45.13,8.69.08,2.24.13,5.09.13,8.56v99.03c0,2.2-.04,4.27-.13,6.21s-.13,4.1-.13,6.47v22.44h-10.78c-4.74,0-8.5-1.48-11.28-4.44-2.79-2.96-4.18-7.01-4.18-12.17v-155.19h-.01ZM1309.99,828.41c.42,2.03.68,3.95.76,5.77.08,1.82.13,3.49.13,5.01s-.17,3.4-.51,5.64-.89,4.37-1.65,6.4h-67.45c-2.96,0-6.02-.04-9.19-.13-3.17-.08-6.02-.17-8.56-.25v-22.44h86.47ZM1296.3,902.96c.42,1.69.74,3.59.95,5.71.21,2.11.32,3.93.32,5.45s-.11,3.32-.32,5.39c-.21,2.07-.53,4.04-.95,5.9h-47.67c-1.95,0-4.4-.02-7.35-.06-2.96-.04-6.02-.11-9.19-.19s-6.02-.13-8.56-.13v-21.68c2.54-.08,5.39-.15,8.56-.19,3.17-.04,6.23-.08,9.19-.13,2.96-.04,5.41-.06,7.35-.06h47.67ZM1314.94,978.91c0,8.28-1.25,14.18-3.74,17.69-2.49,3.51-7.21,5.26-14.14,5.26h-73.54v-21.81c4.06-.25,8.07-.51,12.05-.76,3.97-.25,8.54-.38,13.69-.38h65.68Z"/>
    <path class="cls-2" d="M1388.98,828.66c2.2-.42,4.9-.74,8.11-.95,3.21-.21,5.83-.32,7.86-.32,2.2,0,4.8.09,7.8.25,3,.17,5.81.42,8.43.76l-7.1,31.32-2.16.51c.34,5.83.68,12.36,1.01,19.59.34,7.23.61,14.54.82,21.94.21,7.4.32,14.22.32,20.48v79.37c-2.28.34-4.48.59-6.59.76-2.11.17-4.06.25-5.83.25s-3.78-.09-6.02-.25c-2.24-.17-4.46-.42-6.66-.76v-172.94h.01ZM1428.92,895.1c-3.04-6.17-5.9-12.24-8.56-18.19-2.66-5.96-5.18-11.6-7.54-16.93l-12.68-15.22,21.05-16.36,53.63,106.38c3.21,6.59,6.23,13.04,9.07,19.34,2.83,6.3,5.47,12.07,7.92,17.31l13.31,13.95-22.06,16.23-54.14-106.51ZM1515.39,828.79v172.56c-1.35.25-3,.49-4.95.7s-3.89.36-5.83.44c-1.95.08-3.76.13-5.45.13-2.45,0-5.07-.09-7.86-.25-2.79-.17-5.54-.42-8.24-.76l7.35-30.05,2.16-.25c-.34-6.85-.68-14.07-1.01-21.68-.34-7.61-.59-15.09-.76-22.44s-.25-13.95-.25-19.78v-63.27c0-5.92,1.03-10.19,3.11-12.81,2.07-2.62,5.85-3.93,11.35-3.93h8.88l1.52,1.39h-.02Z"/>
    <path class="cls-2" d="M1600.21,830.06l1.65-1.65h24.6v22.06c0,3.55.04,6.45.13,8.69.08,2.24.13,5.09.13,8.56v99.03c0,2.2-.04,4.27-.13,6.21s-.13,4.1-.13,6.47v22.44h-10.78c-4.74,0-8.5-1.48-11.28-4.44-2.79-2.96-4.18-7.01-4.18-12.17v-155.19h0ZM1703.93,828.41c.42,2.03.68,3.95.76,5.77.08,1.82.13,3.49.13,5.01s-.17,3.4-.51,5.64-.89,4.37-1.65,6.4h-67.45c-2.96,0-6.02-.04-9.19-.13-3.17-.08-6.02-.17-8.56-.25v-22.44h86.47ZM1690.24,902.96c.42,1.69.74,3.59.95,5.71.21,2.11.32,3.93.32,5.45s-.11,3.32-.32,5.39c-.21,2.07-.53,4.04-.95,5.9h-47.67c-1.95,0-4.4-.02-7.35-.06-2.96-.04-6.02-.11-9.19-.19s-6.02-.13-8.56-.13v-21.68c2.54-.08,5.39-.15,8.56-.19,3.17-.04,6.23-.08,9.19-.13,2.96-.04,5.41-.06,7.35-.06h47.67ZM1708.87,978.91c0,8.28-1.25,14.18-3.74,17.69-2.49,3.51-7.21,5.26-14.14,5.26h-73.54v-21.81c4.06-.25,8.07-.51,12.05-.76,3.97-.25,8.54-.38,13.69-.38h65.68Z"/>
    <path class="cls-2" d="M1872.94,828.41c1.18-.34,2.81-.61,4.88-.82s4.16-.32,6.28-.32c2.7,0,5.32.21,7.86.63s4.56.97,6.09,1.65l.89,1.78-52.49,85.08-11.03,11.92-44.25,73.29c-1.27.34-2.98.61-5.14.82-2.15.21-4.29.32-6.4.32-2.71,0-5.35-.21-7.92-.63-2.58-.42-4.71-1.01-6.4-1.78l-.76-1.78,58.58-94.21,11.03-11.92,38.8-64.03h-.02ZM1770.62,832.59c2.79-2.03,5.77-3.53,8.94-4.5,3.17-.97,6.15-1.46,8.94-1.46,3.38,0,6.4.76,9.07,2.28s5.26,4.31,7.8,8.37l99.03,160.14c-2.79,1.95-5.77,3.42-8.94,4.44-3.17,1.01-6.15,1.52-8.94,1.52-3.38,0-6.43-.78-9.13-2.35-2.71-1.56-5.37-4.37-7.99-8.43l-98.77-160.01h-.01Z"/>
    <path class="cls-2" d="M1980.08,828.54c3.04-.59,6.32-.93,9.83-1.01s6.32-.13,8.43-.13,4.84.04,7.92.13c3.08.09,6.15.42,9.19,1.01l24.09,79.37c.59,2.03,1.4,4.9,2.41,8.62s2.05,7.69,3.11,11.92c1.06,4.23,2.01,8.14,2.85,11.73s1.39,6.28,1.65,8.05h1.39c.25-1.77.8-4.46,1.65-8.05.84-3.59,1.82-7.5,2.92-11.73,1.1-4.23,2.13-8.2,3.11-11.92.97-3.72,1.75-6.59,2.35-8.62l24.22-79.37c3.21-.59,6.32-.93,9.32-1.01s5.6-.13,7.8-.13,4.86.04,8.24.13,6.68.42,9.89,1.01l13.44,172.69c-1.86.51-4.06.89-6.59,1.14-2.54.25-4.9.38-7.1.38s-4.14-.06-6.09-.19c-1.95-.13-3.93-.36-5.96-.7l-5.96-92.81c-.25-4.65-.51-10.02-.76-16.1-.25-6.09-.49-12.25-.7-18.51-.21-6.25-.4-11.92-.57-16.99h-1.39l-34.87,117.66c-2.03.34-4.33.59-6.91.76-2.58.17-4.88.25-6.91.25-1.86,0-4.06-.08-6.59-.25-2.54-.17-4.82-.42-6.85-.76l-34.87-117.66h-1.39c-.17,5.07-.36,10.74-.57,16.99-.21,6.26-.42,12.43-.63,18.51-.21,6.09-.49,11.46-.82,16.1l-5.96,92.81c-1.94.34-3.95.57-6.02.7-2.07.13-4.16.19-6.28.19s-4.52-.13-6.97-.38-4.61-.63-6.47-1.14l13.44-172.69h-.02Z"/>
    <path class="cls-2" d="M2343.08,915.01c0,9.89-.66,19.36-1.96,28.4-1.31,9.05-3.87,17.5-7.67,25.36s-9.55,14.92-17.24,21.17c-3.64,3.04-8.05,5.5-13.25,7.35-5.2,1.86-10.52,3.23-15.98,4.12-5.45.89-10.42,1.33-14.9,1.33-6.85,0-13.1-.04-18.77-.13-5.66-.09-11.41-.21-17.24-.38s-12.43-.34-19.78-.51l-1.65-1.52v-170.41l1.65-1.52c7.35-.25,13.93-.44,19.72-.57,5.79-.13,11.54-.21,17.24-.25,5.71-.04,11.98-.06,18.83-.06,4.48,0,9.45.44,14.9,1.33s10.78,2.28,15.98,4.18,9.61,4.37,13.25,7.42c7.61,6.26,13.33,13.31,17.18,21.17,3.85,7.86,6.42,16.29,7.73,25.29,1.31,9,1.96,18.41,1.96,28.21v.02ZM2315.06,915.01c0-7.52-.51-15.17-1.52-22.95-1.01-7.78-3-14.9-5.96-21.36-2.96-6.47-7.29-11.69-13-15.66-5.71-3.97-13.25-5.96-22.63-5.96-5.33,0-10.27-.02-14.84-.06-4.56-.04-9.76-.11-15.6-.19v132.12c5.83,0,11.03.02,15.6.06,4.56.04,9.51.06,14.84.06,9.38,0,16.93-1.99,22.63-5.96,5.71-3.97,10.04-9.21,13-15.72s4.95-13.65,5.96-21.43,1.52-15.43,1.52-22.95h0Z"/>
    <path class="cls-2" d="M2539.73,1001.86h-11.28c-4.56,0-8.33-1.44-11.28-4.31-2.96-2.87-4.44-7.06-4.44-12.55v-156.08l1.65-1.52h10.4c5.41,0,9.26,1.37,11.54,4.12s3.42,7.08,3.42,13v157.35h-.01ZM2612.77,978.4c0,9.05-1.4,15.22-4.18,18.51-2.79,3.3-7.44,4.94-13.95,4.94h-66.19l-13.95-19.78c7.86-1.27,16.06-2.2,24.6-2.79,8.54-.59,16.27-.89,23.2-.89h50.47Z"/>
    <path class="cls-2" d="M2721.05,828.41c2.11-.34,4.69-.59,7.73-.76s5.71-.25,7.99-.25c2.03,0,4.58.09,7.67.25,3.08.17,5.56.47,7.42.89l56.93,171.42c-1.95,1.19-4.33,2.05-7.16,2.6-2.83.55-5.69.82-8.56.82-4.31,0-7.63-.97-9.95-2.92-2.33-1.94-4.37-5.71-6.15-11.28l-27.89-88.25c-2.37-7.44-4.74-15.28-7.1-23.52-2.37-8.24-4.48-15.7-6.34-22.38h-1.4c-.85,3.8-1.86,7.95-3.04,12.43-1.19,4.48-2.37,8.83-3.55,13.06-1.19,4.23-2.24,7.9-3.17,11.03l-35.12,110.31c-1.61.34-3.42.59-5.45.76-2.03.17-4.1.25-6.21.25-2.28,0-4.59-.17-6.91-.51-2.33-.34-4.37-.76-6.15-1.27l-.76-1.39,57.18-171.3h-.01ZM2717.62,959.77c-.76,0-2.34-.02-4.75-.06s-4.84-.08-7.29-.13c-2.45-.04-4.06-.06-4.82-.06h-12.55l8.37-21.94h11.03c.76,0,2.22-.02,4.37-.06s4.29-.08,6.4-.13c2.11-.04,3.55-.06,4.31-.06h25.36c.84,0,2.32.02,4.44.06,2.11.04,4.29.09,6.53.13s3.74.06,4.5.06h11.29l7.23,21.94h-12.43c-.76,0-2.39.02-4.88.06s-4.97.09-7.42.13c-2.45.04-4.06.06-4.82.06h-34.87Z"/>
    <path class="cls-2" d="M2877.5,828.28c9.3-.17,18.32-.36,27.07-.57s17.31-.32,25.68-.32c12.43,0,22.74,1.84,30.94,5.52s14.31,8.92,18.32,15.72c4.01,6.8,6.02,14.98,6.02,24.53,0,6.43-1.42,12.38-4.25,17.88s-6.72,10.02-11.67,13.57c-4.95,3.55-10.71,5.66-17.31,6.34v-3.68c7.02.17,13.69,2.28,20.03,6.34,6.34,4.06,11.52,9.51,15.53,16.36s6.02,14.54,6.02,23.08c0,9.38-2.11,17.81-6.34,25.3-4.23,7.48-10.78,13.4-19.65,17.75-8.88,4.35-20.37,6.53-34.49,6.53-10.23,0-19.72-.11-28.47-.32s-17.9-.4-27.45-.57l-1.65-1.52v-170.41l1.65-1.52h.02ZM2902.61,982.33c5.33,0,10.59-.04,15.78-.13,5.2-.08,10.21-.13,15.03-.13,6.85,0,12.43-.95,16.74-2.85s7.63-4.39,9.95-7.48c2.32-3.08,3.93-6.4,4.82-9.95s1.33-6.93,1.33-10.14c0-4.23-.97-8.73-2.92-13.5-1.94-4.77-5.41-8.81-10.4-12.11-4.99-3.3-12.05-4.95-21.17-4.95h-39.81v-20.92h37.28c7.94,0,14.03-1.33,18.26-3.99s7.12-6.02,8.69-10.08c1.56-4.06,2.35-8.11,2.35-12.17s-.74-8.2-2.22-12.17c-1.48-3.97-4.27-7.27-8.37-9.89s-10.17-3.93-18.19-3.93c-3.55,0-7.95-.02-13.19-.06s-9.89-.11-13.95-.19v134.65h-.01Z"/>
  </g>
</svg>