<?xml version="1.0" encoding="UTF-8"?>
<svg id="Layer_1" data-name="Layer 1" xmlns="http://www.w3.org/2000/svg" viewBox="0 0 844.41 99.32">
  <defs>
    <style>
      .cls-1 {
        fill: #fff;
      }

      .cls-2 {
        fill: #fafcf4;
      }

      .cls-3 {
        fill: #92c616;
      }

      .cls-4 {
        fill: #ecf8f9;
      }

      .cls-5 {
        fill: #0989cb;
      }

      .cls-6 {
        fill: #f1fafa;
      }

      .cls-7 {
        fill: #0589cd;
      }

      .cls-8 {
        fill: #058acd;
      }

      .cls-9 {
        fill: #f7faee;
      }

      .cls-10 {
        fill: #f6fcfc;
      }

      .cls-11 {
        fill: #93c619;
      }

      .cls-12 {
        fill: #f3fafb;
      }

      .cls-13 {
        fill: #f8fbf0;
      }

      .cls-14 {
        fill: #0589ce;
      }

      .cls-15 {
        fill: #92c615;
      }

      .cls-16 {
        fill: #048ace;
      }

      .cls-17 {
        fill: #f7fcfc;
      }

      .cls-18 {
        fill: #f9fcf3;
      }

      .cls-19 {
        fill: #f6faeb;
      }

      .cls-20 {
        fill: #fbfcf7;
      }

      .cls-21 {
        fill: #fbfcf6;
      }

      .cls-22 {
        fill: #f5faea;
      }
    </style>
  </defs>
  <rect class="cls-1" width="844.41" height="99.32"/>
  <path class="cls-15" d="M585.42,5.03c16.67,.37,33,.09,49.15,1.34,11.44,.89,20.55,6.51,27.42,13.91,10.06,10.85,13.62,23.06,11.26,36.4-2.35,13.26-9.73,24.11-23.91,31.69-6.61,3.53-14.04,5.37-21.9,5.5-13.48,.22-26.98,.07-40.46,.07-.48,0-.95-.09-1.55-.14V5.03h-.01Zm33.05,71.35c1.89-.75,4.03-1.26,5.62-2.3,5.4-3.55,5.69-10.93,.81-14.87-3.35-2.7-8.09-3.21-11.7-1.24-4.6,2.5-6.55,8.44-4.22,12.58,1.81,3.21,4.46,5.42,9.5,5.83h-.01Zm31.94-27.48c-.04-.64-.04-1.28-.12-1.91-.41-3.22-4.16-6.79-7.77-7.43-4.45-.78-8.42,.82-10.84,4.37-2.56,3.75-2.07,8.36,1.23,11.65,3.93,3.91,10.25,4.05,14.44,.3,2.21-1.99,3.3-4.3,3.07-6.98h0Zm-16.55-13.26c-.14-.04-.29-.08-.43-.11,0-.4,.04-.8,0-1.19-.42-3.82-3.73-6.98-7.98-7.64-3.76-.58-7.78,1.18-9.58,4.39-1.33,2.38-1.54,4.86-.49,7.42,1.26,3.05,3.72,5.11,7.63,5.64,3.86,.52,6.74-1.19,8.63-3.69,1.09-1.44,1.5-3.2,2.22-4.82Zm9.32,30.68c.03-3.58-2.42-6.03-6.13-6.13-3.58-.1-6.41,2.51-6.43,5.92-.02,3.44,2.66,5.96,6.35,5.97,3.58,.02,6.18-2.4,6.21-5.76Zm-25.16-17.21c.04-3.02-2.25-5.27-5.31-5.23-2.85,.03-5.47,2.46-5.46,5.06,.02,2.77,2.4,4.98,5.4,5.01,3.26,.03,5.33-1.83,5.37-4.82h0Zm10.71,2.81c0-2.14-1.62-3.75-3.84-3.8-2.27-.05-4.26,1.78-4.19,3.83,.07,1.94,2.05,3.76,4.08,3.73,2.13-.02,3.94-1.75,3.95-3.77h0Zm7.18-18.2c.03,1.96,1.98,3.8,4,3.76,1.94-.02,4.06-1.99,4.08-3.79,.03-2.06-1.97-3.83-4.25-3.77-2.23,.06-3.87,1.68-3.84,3.79h.01Zm-20.08-6.6c-.06-2.07-1.98-3.8-4.08-3.7-2.1,.1-3.84,1.93-3.75,3.96,.1,2.27,1.66,3.64,4.08,3.56,2.32-.06,3.82-1.59,3.75-3.83Z"/>
  <path class="cls-14" d="M72.1,61.03c-.38-5.29-.87-10.57-1.11-15.87-.1-2.18,.31-4.39,.49-6.59,1.47-3.35,2.66-6.8,4.45-10.04,7.44-13.46,19.65-22.31,38.49-24.16,12.12-1.19,22.84,1.9,32.27,7.96,5.42,3.48,9.61,7.76,13.28,12.67-4.83,3.25-9.53,6.4-14.39,9.67-2.04-2.13-3.87-4.19-5.9-6.12-8.05-7.69-19.75-10.13-31.28-6.28-8.48,2.84-13.51,8.34-16.06,15.17-4.24,11.36-3.63,22.46,5.23,32.4,6.44,7.22,15.58,10.1,26.74,8.52,10.89-1.54,17.3-6.97,20.83-14.97,.13-.3,.18-.62,.22-.93,.06-.39,.07-.78,.13-1.55h-27.61v-15.02c1.05-.05,2.01-.13,2.98-.13,13.69,0,27.39,.04,41.08-.04,2.32-.02,3.09,.47,3.17,2.38,.45,10.02-1.25,19.65-7.31,28.62-15.24,22.6-54.36,25.21-74.74,3.72-5.52-5.82-8.8-12.41-10.96-19.42Z"/>
  <path class="cls-3" d="M757.25,93.93c-5.58,0-10.72-.46-15.67,.1-7.9,.91-12.46-1.36-15.98-7.08-4.44-7.22-10.13-13.94-15.29-20.87-.45-.61-.95-1.18-1.77-2.18-2.35,3.13-4.52,5.99-6.65,8.87-4.88,6.59-9.72,13.22-14.67,19.78-.48,.63-1.65,1.31-2.51,1.32-8.08,.1-16.17,.06-24.95,.06,2.03-2.68,3.75-5.02,5.55-7.32,9.48-12.12,18.95-24.25,28.54-36.31,1.01-1.28,1.12-2.08,.1-3.37-10.27-13.04-20.45-26.11-30.64-39.18-.49-.63-.84-1.32-1.54-2.43h11.57c3.7,0,7.4,.13,11.09-.05,2.64-.13,4.11,.62,5.44,2.46,5.87,8.06,11.95,16.02,17.95,24.02,.15,.2,.36,.37,.95,.96,1.74-2.2,3.42-4.23,4.98-6.31,4.81-6.44,9.54-12.92,14.42-19.33,.57-.76,1.85-1.64,2.82-1.66,7.69-.14,15.39-.07,23.08-.06,.36,0,.72,.18,1.45,.36-1.7,2.29-3.25,4.47-4.91,6.58-8.97,11.45-17.93,22.92-27.02,34.3-1.35,1.69-1.12,2.85,.16,4.45,10.77,13.54,21.42,27.13,32.1,40.7,.44,.57,.77,1.19,1.41,2.19h0Z"/>
  <path class="cls-7" d="M549.03,75.61c1.78-6.11,3.56-12.21,5.34-18.31,2.37-8.13,4.72-16.27,7.17-24.38,.18-.59,1.1-1.46,1.7-1.48,5.47-.11,10.95-.06,16.82-.06-1.58,5.1-3.08,9.94-4.58,14.77-4.71,15.2-9.45,30.39-14.08,45.6-.52,1.69-1.39,2.29-3.63,2.23-6.19-.14-12.38-.05-19.05-.05-3.83-12.1-7.67-24.23-11.72-37.05-.6,1.12-.97,1.61-1.14,2.14-3.33,10.64-6.71,21.26-9.88,31.93-.65,2.18-1.52,3.2-4.63,3.05-5.38-.25-10.79-.14-16.18-.04-1.77,.03-2.43-.45-2.83-1.76-5.28-17.05-10.61-34.09-15.93-51.13-.98-3.14-1.92-6.29-2.93-9.6h18.24c4.23,14.72,8.46,29.46,12.7,44.2h.57c1.63-5.02,3.28-10.02,4.89-15.04,2.85-8.93,5.64-17.87,8.6-26.78,.21-.64,1.5-1.44,2.33-1.48,3.89-.16,7.79,0,11.68-.1,1.79-.04,2.33,.56,2.74,1.86,3.97,12.81,8.04,25.59,12.09,38.38,.34,1.08,.81,2.12,1.22,3.18l.51-.1-.02,.02Z"/>
  <path class="cls-8" d="M460.15,71.4c4.27,2.96,8.31,5.75,12.29,8.51-3.7,8.56-17.35,15.48-29.76,15.19-16.8-.39-29.41-9.08-33.17-23.15-2.8-10.48-1.66-20.61,5.73-29.84,10.18-12.73,31.15-16,45.63-7.14,8.09,4.95,11.78,11.91,12.93,19.74,.53,3.6,.11,7.29,.25,10.94,.07,1.71-.84,2.11-2.85,2.1-13.78-.06-27.57-.03-41.35-.03h-3.56c-.07,4.67,5.33,10,11.38,11.56,10.2,2.64,17.06-1.12,22.46-7.86h.02Zm-2.52-15.16c-1.27-8.08-7.54-12.37-16.99-11.93-7.27,.33-14.06,6-14.1,11.93h31.09Z"/>
  <path class="cls-7" d="M187.09,67.7c1.48,5.96,5.4,9.87,12.06,11.63,10.04,2.64,16.82-1.35,22.2-7.89,3.95,2.75,7.75,5.3,11.37,8.01,.48,.36,.42,1.67-.02,2.23-6.65,8.62-16.12,13.47-29.08,13.43-17.04-.06-29.21-9.66-32.95-23.07-2.75-9.85-1.67-19.44,4.53-28.46,6.49-9.44,19.67-14.86,32.51-13.36,13.24,1.55,23.85,9.57,26.24,20.45,1.05,4.81,.85,9.79,1.32,14.69,.18,1.93-.82,2.41-3.12,2.39-13.99-.08-27.98-.04-41.97-.05h-3.1v-.02Zm.38-11.47h31.21c-.52-7.03-6.94-11.98-15.28-11.94-8.45,.04-15.55,5.25-15.93,11.94Z"/>
  <path class="cls-16" d="M305.92,93.64h-17.42v-2.62c0-10.27,.03-20.53-.04-30.8,0-1.98-.14-4-.7-5.92-1.62-5.53-7.08-8.92-13.5-8.63-7.26,.33-13.05,4.59-13.81,10.34-.3,2.29-.21,4.61-.22,6.91,0,9.39,0,18.79,0,28.17v2.58h-17.68V31.49h16.64v6c3.41-1.97,6.23-4.17,9.6-5.45,15.36-5.83,32.19,.88,35.95,14.19,.74,2.62,1.24,5.34,1.27,8.02,.13,12.65,.06,25.31,.06,37.96,0,.39-.08,.78-.15,1.43h0Z"/>
  <path class="cls-8" d="M305.82,31.39c5.9,0,11.48-.07,17.05,.08,.78,.02,1.93,1,2.2,1.7,5.36,14.14,10.61,28.32,15.89,42.48,.11,.3,.34,.56,.81,1.32,1.78-4.68,3.43-8.93,5.03-13.19,3.77-10.05,7.58-20.08,11.23-30.16,.65-1.79,1.64-2.34,3.94-2.27,5.06,.15,10.13,.05,15.6,.05-2.4,6-4.64,11.66-6.92,17.32-5.78,14.38-11.62,28.74-17.31,43.13-.68,1.72-1.7,2.14-3.8,2.1-5.49-.11-10.99,.04-16.48-.1-.95-.02-2.43-.83-2.71-1.51-8.12-19.78-16.12-39.6-24.13-59.4-.15-.37-.2-.77-.39-1.53h-.01Z"/>
  <path class="cls-5" d="M384.01,31.47h17.45v12.63c0,13.36,.03,26.73,0,40.08,0,1.42-.16,2.87-.61,4.23-1.05,3.25-4.68,5.53-8.38,5.49-3.81-.04-7.48-2.54-8.39-5.84-.3-1.08-.43-2.21-.43-3.31,.03-17.18,.09-34.36,.16-51.54,0-.54,.12-1.09,.2-1.75h0Zm15.4,12.06c-.06-3.44-3.29-6.37-6.97-6.31-3.73,.06-6.72,2.99-6.64,6.51,.08,3.54,3.17,6.36,6.89,6.29,3.67-.06,6.77-3.07,6.72-6.49Zm-1.52,19.12c-.02-2.85-2.4-5.03-5.46-4.98-2.9,.05-5.19,2.2-5.26,4.94-.07,2.78,2.37,5.12,5.35,5.13,3.04,0,5.39-2.22,5.37-5.08Zm-5.43,13.01c-2.29,.04-3.84,1.6-3.78,3.84,.06,2.04,1.68,3.56,3.82,3.56s4.03-1.66,4.01-3.73c-.02-2.11-1.78-3.7-4.05-3.66h0Z"/>
  <path class="cls-11" d="M392.03,6.89c6.14,.06,10.97,4.21,10.73,9.27-.11,2.32-1.14,4.92-2.79,6.82-3.96,4.54-11.57,4.08-15.48-.62-2.98-3.58-2.76-8.78,.46-12.29,1.96-2.14,4.52-3.26,7.09-3.17h0Z"/>
  <path class="cls-21" d="M618.47,76.37c-5.04-.41-7.69-2.63-9.5-5.83-2.34-4.14-.38-10.09,4.22-12.58,3.62-1.96,8.36-1.46,11.7,1.24,4.89,3.95,4.59,11.33-.81,14.87-1.59,1.04-3.73,1.55-5.62,2.3h.01Z"/>
  <path class="cls-20" d="M650.41,48.9c.23,2.68-.86,4.99-3.07,6.98-4.18,3.76-10.51,3.62-14.44-.3-3.3-3.29-3.79-7.9-1.23-11.65,2.42-3.55,6.39-5.15,10.84-4.37,3.62,.64,7.36,4.2,7.77,7.43,.08,.63,.08,1.27,.12,1.91h0Z"/>
  <path class="cls-2" d="M633.86,35.64c-.72,1.62-1.13,3.38-2.22,4.82-1.89,2.5-4.78,4.21-8.63,3.69-3.91-.53-6.37-2.58-7.63-5.64-1.05-2.56-.85-5.04,.49-7.42,1.8-3.21,5.82-4.97,9.58-4.39,4.25,.65,7.55,3.81,7.98,7.64,.04,.39,0,.79,0,1.19,.14,.04,.29,.08,.43,.11Z"/>
  <path class="cls-18" d="M643.18,66.33c-.03,3.36-2.63,5.77-6.21,5.76-3.69-.02-6.37-2.54-6.35-5.97,.02-3.4,2.85-6,6.43-5.92,3.71,.1,6.16,2.55,6.13,6.13Z"/>
  <path class="cls-13" d="M618.02,49.12c-.04,3-2.11,4.86-5.37,4.82-3-.03-5.38-2.23-5.4-5.01-.02-2.59,2.6-5.02,5.46-5.06,3.07-.04,5.35,2.22,5.31,5.23h0Z"/>
  <path class="cls-22" d="M628.73,51.94c0,2.02-1.82,3.76-3.95,3.77-2.03,.02-4.01-1.79-4.08-3.73-.07-2.06,1.92-3.88,4.19-3.83,2.22,.05,3.85,1.65,3.84,3.8h0Z"/>
  <path class="cls-19" d="M635.91,33.73c-.04-2.1,1.6-3.73,3.84-3.79,2.28-.06,4.28,1.71,4.25,3.77-.03,1.8-2.14,3.76-4.08,3.79-2.02,.02-3.97-1.81-4-3.76h-.01Z"/>
  <path class="cls-9" d="M615.83,27.12c.07,2.23-1.43,3.76-3.75,3.83-2.42,.07-3.98-1.29-4.08-3.56-.09-2.03,1.65-3.86,3.75-3.96,2.1-.1,4.02,1.63,4.08,3.7Z"/>
  <path class="cls-17" d="M457.63,56.25h-31.09c.05-5.92,6.84-11.59,14.1-11.93,9.45-.44,15.72,3.84,16.99,11.93Z"/>
  <path class="cls-10" d="M187.46,56.23c.39-6.7,7.48-11.9,15.93-11.94,8.34-.04,14.76,4.91,15.28,11.94h-31.21Z"/>
  <path class="cls-12" d="M399.41,43.53c.06,3.42-3.05,6.43-6.72,6.49-3.72,.06-6.81-2.75-6.89-6.29-.08-3.52,2.91-6.44,6.64-6.51,3.68-.06,6.91,2.86,6.97,6.31Z"/>
  <path class="cls-6" d="M397.89,62.65c.02,2.86-2.33,5.09-5.37,5.08-2.98,0-5.42-2.34-5.35-5.13,.07-2.73,2.36-4.89,5.26-4.94,3.06-.05,5.44,2.12,5.46,4.98Z"/>
  <path class="cls-4" d="M392.46,75.66c2.27-.04,4.03,1.55,4.05,3.66,.02,2.07-1.77,3.73-4.01,3.73s-3.76-1.51-3.82-3.56c-.06-2.22,1.48-3.8,3.78-3.84h0Z"/>
</svg>