<?xml version="1.0" encoding="UTF-8"?>
<svg id="Layer_1" data-name="Layer 1" xmlns="http://www.w3.org/2000/svg" xmlns:xlink="http://www.w3.org/1999/xlink" viewBox="0 0 421.2 117">
  <defs>
    <style>
      .cls-1 {
        fill: url(#linear-gradient-2);
      }

      .cls-2 {
        fill: #fff;
      }

      .cls-3 {
        fill: #34519c;
      }

      .cls-4 {
        fill: url(#linear-gradient-3);
      }

      .cls-5 {
        fill: url(#linear-gradient);
      }
    </style>
    <linearGradient id="linear-gradient" x1="104.47" y1="33.96" x2="104.47" y2="104.77" gradientTransform="translate(0 117) scale(1 -1)" gradientUnits="userSpaceOnUse">
      <stop offset="0" stop-color="#fff"/>
      <stop offset="1" stop-color="#000"/>
    </linearGradient>
    <linearGradient id="linear-gradient-2" x1="223.89" x2="223.89" y2="105.13" xlink:href="#linear-gradient"/>
    <linearGradient id="linear-gradient-3" x1="308.99" x2="308.99" y2="105.25" xlink:href="#linear-gradient"/>
  </defs>
  <rect class="cls-2" x="0" width="421.2" height="117"/>
  <path class="cls-5" d="M164.13,12.23H72.44s-18.92,16.97-27.1,56.28c-2.32,11.72,2.32,14.53,2.32,14.53h102.07s10.5-22.71,12.21-39.43h-47.13l-2.81,5.37,6.35,6.1-6.35,17.09h-19.9s-1.34-7.81,1.34-16.6,8.06-21.49,8.06-21.49c0,0,2.93-10.13,11.35-12.21h47s4.4-5.01,4.4-9.64h-.12Z"/>
  <polygon class="cls-1" points="181.34 11.87 178.9 21.51 199.78 21.51 177.68 83.04 221.51 83.04 243.85 21.63 267.78 21.63 270.1 11.87 181.34 11.87"/>
  <polygon class="cls-4" points="277.3 11.75 274.5 21.39 295.49 21.76 276.94 74.01 255.82 74.01 252.4 83.04 341.16 83.04 343.84 73.89 320.77 73.89 339.93 21.88 363.13 21.88 365.57 11.75 277.3 11.75"/>
  <g>
    <path class="cls-3" d="M44.24,80.72h-.12c-.24-.24-4.88-3.3-2.56-15.26,8.18-39.07,27.1-56.4,27.23-56.65h.12c0-.12,92.54-.12,92.54-.12v.61c0,4.76-4.27,9.77-4.52,10.01v.24h-47.37c-7.94,2.08-10.87,11.72-10.87,11.84,0,.24-5.25,12.94-8.06,21.49-2.32,7.2-1.71,13.92-1.47,15.75h18.92l5.98-16.36-6.35-6.1,3.17-6.1h48.22v.73c-1.83,16.73-12.21,39.43-12.33,39.68v.37H43.99l.24-.12Z"/>
    <path class="cls-2" d="M160.95,9.3c0,4.52-4.4,9.64-4.4,9.64h-47c-8.42,2.08-11.35,12.21-11.35,12.21,0,0-5.25,12.7-8.06,21.49-2.81,8.79-1.34,16.6-1.34,16.6h19.9l6.35-17.09-6.35-6.1,2.81-5.37h47.13c-1.71,16.73-12.21,39.43-12.21,39.43H44.36s-4.52-2.81-2.32-14.53c8.18-39.31,27.1-56.28,27.1-56.28h91.69m1.34-1.22H68.78l-.37,.37c-.73,.73-19.29,17.7-27.47,56.89-2.44,12.45,2.56,15.63,2.81,15.75h.24c0,.12,.37,.12,.37,.12h102.8l.37-.73c.49-.98,10.62-23.07,12.33-39.92v-1.34c.12,0-1.22,0-1.22,0h-47.86l-.37,.61-2.81,5.37-.37,.85,.61,.61,5.74,5.62-5.74,15.63h-17.95c-.24-2.32-.61-8.42,1.47-15.02,2.81-8.55,7.94-21.24,8.06-21.37h0s2.81-9.4,10.38-11.35h47.37l.37-.37c.24-.24,4.64-5.49,4.64-10.38v-1.22h0v-.12Z"/>
  </g>
  <g>
    <polygon class="cls-3" points="173.65 80.72 195.63 19.19 174.87 19.19 177.68 8.45 267.66 8.45 264.97 19.31 241.17 19.31 218.7 80.72 173.65 80.72"/>
    <path class="cls-2" d="M266.93,9.06l-2.32,9.64h-23.81l-22.46,61.41h-43.71l21.98-61.53h-20.88l2.44-9.52h88.76m1.59-1.22h-91.2l-.24,.85-2.44,9.52-.37,1.59h20.63l-21.49,59.82-.61,1.59h46.39l.24-.85,22.1-60.56h23.93l.24-.98,2.32-9.64,.37-1.47h0l.12,.12Z"/>
  </g>
  <g>
    <polygon class="cls-3" points="248.37 80.72 252.15 70.47 273.27 70.47 291.47 19.44 270.59 19.07 273.64 8.2 363.25 8.2 360.45 19.56 337.13 19.56 318.45 70.35 341.52 70.35 338.35 80.72 248.37 80.72"/>
    <path class="cls-2" d="M362.4,8.82l-2.44,10.13h-23.2l-19.17,52.01h23.07l-2.81,9.03h-88.76l3.42-8.91h21.12l18.56-52.25-21-.37,2.81-9.52h88.27m1.71-1.34h-90.83l-.24,.85-2.81,9.52-.49,1.59h1.59l19.29,.37-17.7,49.81h-21.12l-.24,.73-3.42,8.91-.61,1.71h91.32l.24-.85,2.81-9.03,.49-1.59h-22.95l18.19-49.57h23.32l.24-.98,2.44-10.13,.37-1.47h0l.12,.12Z"/>
  </g>
  <g>
    <path d="M47.17,99.77h4.27v2.69c0,1.22-.12,2.2-.49,3.05s-.85,1.59-1.47,2.08-1.47,.73-2.32,.73-1.71-.24-2.32-.73-1.22-1.1-1.59-1.95-.49-1.83-.49-2.93v-4.64c0-1.22,.12-2.2,.49-3.05s.85-1.59,1.47-2.08c.61-.49,1.47-.73,2.32-.73s1.34,.24,1.95,.61,1.1,.98,1.47,1.59c.37,.73,.73,1.47,.85,2.44h-1.83c-.12-.85-.49-1.47-.98-1.83-.49-.49-.98-.61-1.47-.61-.73,0-1.34,.37-1.83,.98-.49,.73-.73,1.59-.73,2.69v4.64c0,.98,.24,1.83,.73,2.44s1.1,.85,1.95,.85,1.34-.37,1.83-.98,.73-1.59,.73-2.69v-.73h-2.56v-1.83Z"/>
    <path d="M54.13,108.19v-15.51h1.71v15.51h-1.71Zm.85-13.43v-2.08h7.2v2.08h-7.2Zm0,6.71v-2.08h6.23v2.08h-6.23Zm0,6.71v-2.08h7.2v2.08h-7.2Z"/>
    <path d="M64.63,108.19v-15.51h1.59l6.1,12.09-.24,.24v-12.33h1.71v15.51h-1.59l-6.1-11.84,.24-.24v12.09s-1.71,0-1.71,0Z"/>
    <path d="M76.84,108.19v-15.51h1.71v15.51h-1.71Zm.85-13.43v-2.08h7.2v2.08h-7.2Zm0,6.71v-2.08h6.23v2.08h-6.23Zm0,6.71v-2.08h7.2v2.08h-7.2Z"/>
    <path d="M85.99,94.76v-2.08h8.79v2.08h-8.79Zm3.54,13.43v-14.28h1.71v14.28h-1.71Z"/>
    <path d="M98.2,92.69v15.51h-1.71v-15.51h1.71Z"/>
    <path d="M105.4,108.32c-.85,0-1.59-.24-2.32-.73-.61-.49-1.1-1.1-1.47-2.08-.37-.85-.49-1.83-.49-3.05v-4.27c0-1.22,.12-2.2,.49-3.05s.85-1.59,1.47-2.08c.61-.49,1.47-.73,2.32-.73s1.34,.24,1.95,.61,1.1,.98,1.47,1.59c.37,.73,.73,1.47,.85,2.44h-1.83c0-.49-.24-.98-.49-1.34s-.61-.61-.85-.85c-.37-.24-.73-.37-1.1-.37-.73,0-1.34,.37-1.83,.98-.49,.73-.73,1.59-.73,2.69v4.27c0,1.1,.24,1.95,.73,2.69,.49,.61,1.1,.98,1.83,.98s1.1-.24,1.59-.61c.49-.49,.85-1.1,.98-1.83h1.83c-.12,.98-.37,1.71-.85,2.44-.37,.73-.85,1.22-1.47,1.59s-1.22,.61-1.95,.61l-.12,.12Z"/>
    <path d="M115.17,94.76v-2.08h8.79v2.08h-8.79Zm3.42,13.43v-14.28h1.71v14.28h-1.71Z"/>
    <path d="M125.55,108.19v-15.51h1.71v15.51h-1.71Zm.85-13.43v-2.08h7.2v2.08h-7.2Zm0,6.71v-2.08h6.23v2.08h-6.23Zm0,6.71v-2.08h7.2v2.08h-7.2Z"/>
    <path d="M140.2,108.32c-.85,0-1.59-.24-2.32-.73-.61-.49-1.1-1.1-1.47-2.08-.37-.85-.49-1.83-.49-3.05v-4.27c0-1.22,.12-2.2,.49-3.05,.37-.85,.85-1.59,1.47-2.08,.61-.49,1.47-.73,2.32-.73s1.34,.24,1.95,.61,1.1,.98,1.47,1.59c.37,.73,.73,1.47,.85,2.44h-1.83c0-.49-.24-.98-.49-1.34s-.61-.61-.85-.85c-.37-.24-.73-.37-1.1-.37-.73,0-1.34,.37-1.83,.98-.49,.73-.73,1.59-.73,2.69v4.27c0,1.1,.24,1.95,.73,2.69,.49,.61,1.1,.98,1.83,.98s1.1-.24,1.59-.61c.49-.49,.85-1.1,.98-1.83h1.83c-.12,.98-.37,1.71-.85,2.44-.37,.73-.85,1.22-1.47,1.59s-1.22,.61-1.95,.61l-.12,.12Z"/>
    <path d="M146.79,108.19v-15.51h1.71v15.51h-1.71Zm1.1-6.59v-2.08h6.96v2.08h-6.96Zm5.98,6.59v-15.51h1.71v15.51h-1.71Z"/>
    <path d="M158.63,108.19v-15.51h1.59l6.1,12.09-.24,.24v-12.33h1.71v15.51h-1.59l-6.1-11.84,.24-.24v12.09s-1.71,0-1.71,0Z"/>
    <path d="M174.99,108.32c-.85,0-1.59-.24-2.32-.73-.61-.49-1.22-1.1-1.59-1.95s-.49-1.83-.49-3.05v-4.4c0-1.1,.12-2.2,.49-3.05s.85-1.59,1.59-1.95,1.47-.73,2.32-.73,1.59,.24,2.32,.73,1.22,1.1,1.59,1.95,.49,1.83,.49,3.05v4.4c0,1.1-.12,2.2-.49,3.05-.37,.85-.85,1.59-1.59,1.95-.61,.49-1.47,.73-2.32,.73Zm0-2.08c.73,0,1.47-.37,1.83-.98,.49-.61,.73-1.47,.73-2.56v-4.52c0-1.1-.24-1.95-.73-2.56s-1.1-.98-1.83-.98-1.34,.37-1.83,.98-.73,1.47-.73,2.56v4.52c0,1.1,.24,1.95,.73,2.56,.49,.61,1.1,.98,1.83,.98Z"/>
    <path d="M182.08,108.19v-15.51h1.71v15.51h-1.71Zm.85,0v-2.08h7.08v2.08h-7.08Z"/>
    <path d="M195.87,108.32c-.85,0-1.59-.24-2.32-.73-.61-.49-1.22-1.1-1.59-1.95s-.49-1.83-.49-3.05v-4.4c0-1.1,.12-2.2,.49-3.05s.85-1.59,1.59-1.95,1.47-.73,2.32-.73,1.59,.24,2.32,.73,1.22,1.1,1.59,1.95,.49,1.83,.49,3.05v4.4c0,1.1-.12,2.2-.49,3.05-.37,.85-.85,1.59-1.59,1.95-.61,.49-1.47,.73-2.32,.73Zm0-2.08c.73,0,1.47-.37,1.83-.98,.49-.61,.73-1.47,.73-2.56v-4.52c0-1.1-.24-1.95-.73-2.56s-1.1-.98-1.83-.98-1.34,.37-1.83,.98-.73,1.47-.73,2.56v4.52c0,1.1,.24,1.95,.73,2.56,.49,.61,1.1,.98,1.83,.98Z"/>
    <path d="M206.98,99.77h4.27v2.69c0,1.22-.12,2.2-.49,3.05-.37,.85-.85,1.59-1.47,2.08s-1.47,.73-2.32,.73-1.71-.24-2.32-.73-1.22-1.1-1.59-1.95-.49-1.83-.49-2.93v-4.64c0-1.22,.12-2.2,.49-3.05,.37-.85,.85-1.59,1.47-2.08,.61-.49,1.47-.73,2.32-.73s1.34,.24,1.95,.61,1.1,.98,1.47,1.59c.37,.73,.73,1.47,.85,2.44h-1.83c-.12-.85-.49-1.47-.98-1.83-.49-.49-.98-.61-1.47-.61-.73,0-1.34,.37-1.83,.98-.49,.73-.73,1.59-.73,2.69v4.64c0,.98,.24,1.83,.73,2.44,.49,.61,1.1,.85,1.95,.85s1.34-.37,1.83-.98,.73-1.59,.73-2.69v-.73h-2.56v-1.83Z"/>
    <path d="M215.65,92.69v15.51h-1.71v-15.51h1.71Z"/>
    <path d="M222.85,108.32c-.85,0-1.59-.24-2.32-.73-.61-.49-1.1-1.1-1.47-2.08-.37-.85-.49-1.83-.49-3.05v-4.27c0-1.22,.12-2.2,.49-3.05,.37-.85,.85-1.59,1.47-2.08,.61-.49,1.47-.73,2.32-.73s1.34,.24,1.95,.61,1.1,.98,1.47,1.59c.37,.73,.73,1.47,.85,2.44h-1.83c0-.49-.24-.98-.49-1.34s-.61-.61-.85-.85c-.37-.24-.73-.37-1.1-.37-.73,0-1.34,.37-1.83,.98-.49,.73-.73,1.59-.73,2.69v4.27c0,1.1,.24,1.95,.73,2.69,.49,.61,1.1,.98,1.83,.98s1.1-.24,1.59-.61c.49-.49,.85-1.1,.98-1.83h1.83c-.12,.98-.37,1.71-.85,2.44-.37,.73-.85,1.22-1.47,1.59s-1.22,.61-1.95,.61l-.12,.12Z"/>
    <path d="M227.86,108.19l4.64-15.51h1.47l4.64,15.51h-1.83l-3.42-12.58-3.42,12.58h-2.08Zm2.08-3.42v-2.08h6.59v2.08h-6.59Z"/>
    <path d="M240.43,108.19v-15.51h1.71v15.51h-1.71Zm.85,0v-2.08h7.08v2.08h-7.08Z"/>
    <path d="M256.92,92.69v15.51h-1.71v-15.51h1.71Z"/>
    <path d="M259.97,108.19v-15.51h1.59l6.1,12.09-.24,.24v-12.33h1.71v15.51h-1.59l-6.1-11.84,.24-.24v12.09s-1.71,0-1.71,0Z"/>
    <path d="M272.3,108.19v-15.51h1.59l6.1,12.09-.24,.24v-12.33h1.71v15.51h-1.59l-6.1-11.84,.24-.24v12.09s-1.71,0-1.71,0Z"/>
    <path d="M288.66,108.32c-.85,0-1.59-.24-2.32-.73-.61-.49-1.22-1.1-1.59-1.95s-.49-1.83-.49-3.05v-4.4c0-1.1,.12-2.2,.49-3.05s.85-1.59,1.59-1.95,1.47-.73,2.32-.73,1.59,.24,2.32,.73,1.22,1.1,1.59,1.95,.49,1.83,.49,3.05v4.4c0,1.1-.12,2.2-.49,3.05s-.85,1.59-1.59,1.95c-.61,.49-1.47,.73-2.32,.73Zm0-2.08c.73,0,1.47-.37,1.83-.98,.49-.61,.73-1.47,.73-2.56v-4.52c0-1.1-.24-1.95-.73-2.56s-1.1-.98-1.83-.98-1.34,.37-1.83,.98-.73,1.47-.73,2.56v4.52c0,1.1,.24,1.95,.73,2.56s1.1,.98,1.83,.98Z"/>
    <path d="M298.55,108.19l-4.03-15.51h1.95l2.93,12.21,2.93-12.21h1.95l-4.03,15.51h-1.71Z"/>
    <path d="M304.16,108.19l4.64-15.51h1.47l4.64,15.51h-1.83l-3.42-12.58-3.42,12.58h-2.08Zm2.08-3.42v-2.08h6.59v2.08h-6.59Z"/>
    <path d="M314.66,94.76v-2.08h8.79v2.08h-8.79Zm3.54,13.43v-14.28h1.71v14.28h-1.71Z"/>
    <path d="M326.87,92.69v15.51h-1.71v-15.51h1.71Z"/>
    <path d="M334.07,108.32c-.85,0-1.59-.24-2.32-.73-.61-.49-1.22-1.1-1.59-1.95s-.49-1.83-.49-3.05v-4.4c0-1.1,.12-2.2,.49-3.05s.85-1.59,1.59-1.95,1.47-.73,2.32-.73,1.59,.24,2.32,.73,1.22,1.1,1.59,1.95,.49,1.83,.49,3.05v4.4c0,1.1-.12,2.2-.49,3.05s-.85,1.59-1.59,1.95c-.61,.49-1.47,.73-2.32,.73Zm0-2.08c.73,0,1.47-.37,1.83-.98,.49-.61,.73-1.47,.73-2.56v-4.52c0-1.1-.24-1.95-.73-2.56s-1.1-.98-1.83-.98-1.34,.37-1.83,.98-.73,1.47-.73,2.56v4.52c0,1.1,.24,1.95,.73,2.56s1.1,.98,1.83,.98Z"/>
    <path d="M341.16,108.19v-15.51h1.59l6.1,12.09-.24,.24v-12.33h1.71v15.51h-1.59l-6.1-11.84,.24-.24v12.09s-1.71,0-1.71,0Z"/>
    <path d="M357.15,108.32c-.61,0-1.22,0-1.71-.24-.49-.12-.98-.37-1.47-.61-.49-.24-.85-.61-1.34-1.1l1.1-1.71c.49,.49,.98,.85,1.59,1.1s1.22,.37,1.83,.37,1.59-.24,2.08-.61,.73-.98,.73-1.71h0c0-.61-.12-1.1-.37-1.34-.24-.37-.61-.49-.98-.73-.37-.12-.85-.24-1.34-.37-.49,0-.98-.24-1.47-.37s-.85-.37-1.34-.61c-.37-.24-.73-.73-.98-1.22-.24-.49-.37-1.22-.37-2.2h0c0-1.47,.37-2.56,1.1-3.42s1.83-1.22,3.3-1.22,1.34,.12,1.95,.37c.61,.24,1.22,.73,1.83,1.22l-.98,1.71c-.49-.49-.98-.73-1.47-.98-.49-.24-.98-.37-1.47-.37-.85,0-1.47,.24-1.95,.61s-.73,.98-.73,1.83h0c0,.61,.12,1.1,.37,1.34,.24,.37,.61,.49,1.1,.73l1.47,.37c.49,0,.85,.24,1.34,.37,.49,.12,.85,.37,1.22,.73,.37,.24,.73,.73,.85,1.22,.24,.49,.37,1.22,.37,2.08h0c0,1.47-.37,2.56-1.22,3.3s-1.95,1.22-3.42,1.22l.37,.24Z"/>
  </g>
</svg>