<?xml version="1.0" encoding="UTF-8"?>
<svg id="Layer_1" data-name="Layer 1" xmlns="http://www.w3.org/2000/svg" xmlns:xlink="http://www.w3.org/1999/xlink" viewBox="0 0 2551.94 670.89">
  <defs>
    <style>
      .cls-1 {
        fill: #cccdde;
      }

      .cls-2 {
        fill: #c9d3e1;
      }

      .cls-3 {
        fill: #1f1d34;
      }

      .cls-4 {
        fill: #121126;
      }

      .cls-5 {
        fill: #333f70;
      }

      .cls-6 {
        fill: #eff1f4;
      }

      .cls-7 {
        fill: #989eb8;
      }

      .cls-8 {
        fill: #747483;
      }

      .cls-9 {
        fill: #adabb6;
      }

      .cls-10 {
        fill: #3e5a94;
      }

      .cls-11 {
        fill: #94a5c5;
      }

      .cls-12 {
        fill: #e4e8ef;
      }

      .cls-13 {
        fill: #5f789d;
      }

      .cls-14 {
        fill: #345486;
      }

      .cls-15 {
        fill: #6d6c7c;
      }

      .cls-16 {
        fill: #4c5283;
      }

      .cls-17 {
        fill: #d9dde8;
      }

      .cls-18 {
        fill: #6d86ae;
      }

      .cls-19 {
        fill: #b2b3cb;
      }

      .cls-20 {
        fill: url(#linear-gradient-2);
      }

      .cls-21 {
        fill: #c4cbdc;
      }

      .cls-22 {
        fill: #5874a4;
      }

      .cls-23 {
        fill: #626170;
      }

      .cls-24 {
        fill: #787789;
      }

      .cls-25 {
        fill: #35334b;
      }

      .cls-26 {
        fill: #e8ecf2;
      }

      .cls-27 {
        fill: #6b7299;
      }

      .cls-28 {
        fill: #435c8a;
      }

      .cls-29 {
        fill: #f6f8fa;
      }

      .cls-30 {
        fill: #202773;
      }

      .cls-31 {
        fill: #6e819f;
      }

      .cls-32 {
        fill: #697fa2;
      }

      .cls-33 {
        fill: #151726;
      }

      .cls-34 {
        fill: #5f78a1;
      }

      .cls-35 {
        fill: #a6a9c1;
      }

      .cls-36 {
        fill: #3f5b92;
      }

      .cls-37 {
        fill: #d7dde9;
      }

      .cls-38 {
        fill: #5c779b;
      }

      .cls-39 {
        fill: #7d85a4;
      }

      .cls-40 {
        fill: #c8c8ce;
      }

      .cls-41 {
        fill: #f7f8fa;
      }

      .cls-42 {
        fill: #fff;
      }

      .cls-43 {
        fill: #131227;
      }

      .cls-44 {
        fill: #7b8aad;
      }

      .cls-45 {
        fill: #1e2b69;
      }

      .cls-46 {
        fill: #b0b3cc;
      }

      .cls-47 {
        fill: #525261;
      }

      .cls-48 {
        fill: #282b2d;
      }

      .cls-49 {
        fill: #1e1c34;
      }

      .cls-50 {
        fill: #cad4de;
      }

      .cls-51 {
        fill: #586e9e;
      }

      .cls-52 {
        fill: none;
      }

      .cls-53 {
        fill: #37588f;
      }

      .cls-54 {
        fill: #e7eaf2;
      }

      .cls-55 {
        fill: #37354a;
      }

      .cls-56 {
        fill: #6c719f;
      }

      .cls-57 {
        fill: #415c87;
      }

      .cls-58 {
        fill: #496598;
      }

      .cls-59 {
        fill: #1d2b63;
      }

      .cls-60 {
        fill: #222f67;
      }

      .cls-61 {
        fill: #1d2f66;
      }

      .cls-62 {
        fill: #96a5c0;
      }

      .cls-63 {
        fill: #5b799c;
      }

      .cls-64 {
        fill: #c7d0de;
      }

      .cls-65 {
        fill: #f5f5f6;
      }

      .cls-66 {
        fill: #546d99;
      }

      .cls-67 {
        fill: #17122b;
      }

      .cls-68 {
        fill: #3a4477;
      }

      .cls-69 {
        fill: #4a649b;
      }

      .cls-70 {
        fill: #1e2032;
      }

      .cls-71 {
        fill: #171424;
      }

      .cls-72 {
        fill: #25336e;
      }

      .cls-73 {
        fill: #615f70;
      }

      .cls-74 {
        fill: #355282;
      }

      .cls-75 {
        fill: #c2c9d7;
      }

      .cls-76 {
        fill: #e7eaf4;
      }

      .cls-77 {
        fill: #95a1bc;
      }

      .cls-78 {
        fill: #e2e7ee;
      }

      .cls-79 {
        fill: #667da8;
      }

      .cls-80 {
        fill: #6e87a6;
      }

      .cls-81 {
        fill: #3e477c;
      }

      .cls-82 {
        fill: #f8f9fb;
      }

      .cls-83 {
        fill: #cad3e2;
      }

      .cls-84 {
        fill: #f8f8fa;
      }

      .cls-85 {
        fill: #f2f1f6;
      }

      .cls-86 {
        fill: #1b192f;
      }

      .cls-87 {
        fill: #6c7ba6;
      }

      .cls-88 {
        fill: #b8bacd;
      }

      .cls-89 {
        fill: #9eafca;
      }

      .cls-90 {
        fill: #2e2c40;
      }

      .cls-91 {
        fill: #c6cede;
      }

      .cls-92 {
        fill: #47517c;
      }

      .cls-93 {
        fill: #39538a;
      }

      .cls-94 {
        fill: #344d8a;
      }

      .cls-95 {
        fill: #48608f;
      }

      .cls-96 {
        fill: #5a74a0;
      }

      .cls-97 {
        fill: #3e4579;
      }

      .cls-98 {
        fill: #58618e;
      }

      .cls-99 {
        fill: #424879;
      }

      .cls-100 {
        fill: #446494;
      }

      .cls-101 {
        fill: #3b5488;
      }

      .cls-102 {
        fill: #9dafc7;
      }

      .cls-103 {
        fill: #8e8c9a;
      }

      .cls-104 {
        fill: #273269;
      }

      .cls-105 {
        fill: #34518c;
      }

      .cls-106 {
        fill: #ececed;
      }

      .cls-107 {
        fill: #5b799b;
      }

      .cls-108 {
        fill: #141126;
      }

      .cls-109 {
        fill: #283170;
      }

      .cls-110 {
        fill: #14122a;
      }

      .cls-111 {
        fill: #8095ac;
      }

      .cls-112 {
        fill: #959ab9;
      }

      .cls-113 {
        fill: #45648e;
      }

      .cls-114 {
        fill: #f8f7f9;
      }

      .cls-115 {
        fill: #f7f7f8;
      }

      .cls-116 {
        fill: #506e9b;
      }

      .cls-117 {
        fill: #7888a9;
      }

      .cls-118 {
        fill: #4e4d5f;
      }

      .cls-119 {
        fill: #395785;
      }

      .cls-120 {
        fill: #3b3b4b;
      }

      .cls-121 {
        fill: #364f88;
      }

      .cls-122 {
        fill: #cdd5e4;
      }

      .cls-123 {
        fill: #8498b1;
      }

      .cls-124 {
        fill: #1a1a2f;
      }

      .cls-125 {
        fill: #5a7098;
      }

      .cls-126 {
        fill: #f7f6fb;
      }

      .cls-127 {
        fill: #d0dae9;
      }

      .cls-128 {
        fill: #383848;
      }

      .cls-129 {
        fill: #29293e;
      }

      .cls-130 {
        fill: #586a99;
      }

      .cls-131 {
        fill: #2f4c89;
      }

      .cls-132 {
        fill: #29336f;
      }

      .cls-133 {
        fill: #8596b8;
      }

      .cls-134 {
        fill: #5f78a9;
      }

      .cls-135 {
        fill: #507093;
      }

      .cls-136 {
        fill: #e8edf4;
      }

      .cls-137 {
        fill: #3e588c;
      }

      .cls-138 {
        fill: #f2f3f8;
      }

      .cls-139 {
        fill: #141028;
      }

      .cls-140 {
        fill: #c1c0c2;
      }

      .cls-141 {
        fill: #506092;
      }

      .cls-142 {
        fill: #476691;
      }

      .cls-143 {
        fill: #1b2962;
      }

      .cls-144 {
        fill: #9094b3;
      }

      .cls-145 {
        fill: #6880ab;
      }

      .cls-146 {
        fill: #212d65;
      }

      .cls-147 {
        fill: #6982a6;
      }

      .cls-148 {
        fill: #f8f8fb;
      }

      .cls-149 {
        fill: #53709d;
      }

      .cls-150 {
        fill: url(#linear-gradient);
      }

      .cls-151 {
        fill: #677fa4;
      }

      .cls-152 {
        fill: #3c5e89;
      }

      .cls-153 {
        fill: #eae9ef;
      }

      .cls-154 {
        fill: #303c6c;
      }

      .cls-155 {
        clip-path: url(#clippath);
      }

      .cls-156 {
        fill: #131126;
      }

      .cls-157 {
        fill: #2f3873;
      }

      .cls-158 {
        fill: #a6b3c7;
      }

      .cls-159 {
        fill: #3f4c7f;
      }

      .cls-160 {
        fill: #b5c0d6;
      }

      .cls-161 {
        fill: #eef0f3;
      }

      .cls-162 {
        fill: #364070;
      }

      .cls-163 {
        fill: #e1e6ec;
      }

      .cls-164 {
        fill: #807e8b;
      }

      .cls-165 {
        fill: #547196;
      }

      .cls-166 {
        fill: #f7f7f9;
      }

      .cls-167 {
        fill: #667ba2;
      }

      .cls-168 {
        fill: #333972;
      }

      .cls-169 {
        fill: #384276;
      }
    </style>
    <clipPath id="clippath">
      <rect class="cls-52" x="800.67" y="507.62" width="845.16" height="105.1"/>
    </clipPath>
    <linearGradient id="linear-gradient" x1="1223.75" y1="709.87" x2="1223.75" y2="521.5" gradientUnits="userSpaceOnUse">
      <stop offset=".5" stop-color="#fff" stop-opacity="0"/>
      <stop offset=".51" stop-color="#fbfbfb" stop-opacity=".05"/>
      <stop offset=".6" stop-color="#e7e5e5" stop-opacity=".34"/>
      <stop offset=".69" stop-color="#d6d3d2" stop-opacity=".58"/>
      <stop offset=".78" stop-color="#c9c5c4" stop-opacity=".76"/>
      <stop offset=".86" stop-color="#bfbbba" stop-opacity=".89"/>
      <stop offset=".94" stop-color="#b9b5b4" stop-opacity=".97"/>
      <stop offset="1" stop-color="#b8b3b2"/>
    </linearGradient>
    <linearGradient id="linear-gradient-2" x1="383.13" y1="419.01" x2="2174.82" y2="419.01" gradientUnits="userSpaceOnUse">
      <stop offset="0" stop-color="#1c1c10"/>
      <stop offset="1" stop-color="#0159a4"/>
    </linearGradient>
  </defs>
  <rect class="cls-42" x=".97" width="2547" height="666"/>
  <g class="cls-155">
    <path class="cls-150" d="M911.01,529.37c1.15,4.78,2.99,18.67,2.99,24.17,0,2.39,0,4.3-1.84,4.3-1.61,0-2.07-.96-2.53-3.59-1.61-9.8-4.37-12.46-10.34-15.32-5.98-2.87-15.63-2.87-21.61-2.87-23.45,0-27.13,3.59-27.59,20.08-.23,6.93,0,28.93,0,37.06v18.89c0,1.43.23,2.39,1.38,2.39,5.52,0,28.28-.24,32.64-.72,8.51-.96,11.72-4.54,12.87-9.32.69-3.11.77-4.2,1-6.6,0-1.2.46-2.15,2.07-2.15,2.07,0,2.07,2.63,2.07,4.54,0,1.67.61,9.23.84,14.01.92,12.19,1.84,16.02,1.84,17.45s-.69,1.91-1.61,1.91c-1.15,0-2.07-1.2-3.68-3.11-2.07-2.39-5.52-3.11-11.03-3.59-5.29-.48-31.73-.48-36.78-.48-1.38,0-1.61.96-1.61,2.63v60.49c0,1.67.46,2.39,1.61,2.39,4.6,0,28.74-.48,32.64-.96,11.49-1.43,13.79-4.3,15.4-8.61,1.15-2.87,1.6-5.03,1.6-6.7,0-2.15.46-3.35,2.07-3.35s2.07,1.43,2.3,2.63c.46,2.87.7,11.48.93,13.87.69,11,1.84,13.87,1.84,15.54,0,1.2-.23,2.15-1.38,2.15s-2.53-.72-3.68-.96c-1.84-.48-5.52-.96-9.89-1.43-4.37-.24-50.12-.24-57.47-.24-3.22,0-8.28-.45-14.25-.21-5.75,0-8.89.24-15.09.24-3.45,0-5.06-.48-5.06-2.15s1.38-2.15,3.91-2.15c3.22,0,3.6-.24,5.44-.72,7.59-1.67,10.72-3.28,11.18-11.41.46-7.65.46-14.34.46-50.68v-42.08c0-21.99,0-40.88-1.15-50.92-.92-6.93-1.6-11.23-6.36-13.3-.76-.2-1.93-2.17-5.38-2.17-2.76,0-3.68-.72-3.68-1.91,0-1.67,1.61-2.39,4.6-2.39,4.6,0,7.5.21,12.79.21,5.52.24,8.86-.11,11.39-.11,6.9,0,14.08.22,23.97-.25,9.89-.24,22.53-.72,39.77-.72,8.74,0,10.81,0,12.41,6.22ZM1642.84,529.37c-1.61-6.22-3.68-6.22-12.41-6.22-17.24,0-29.89.48-39.77.72-9.89.48-17.07.25-23.97.25-2.53,0-5.87.35-11.39.11-5.29,0-8.19-.21-12.79-.21-2.99,0-4.6.72-4.6,2.39,0,1.2.92,1.91,3.68,1.91,3.45,0,4.62,1.96,5.38,2.17,4.76,2.07,5.44,6.37,6.36,13.3,1.15,10.04,1.15,28.93,1.15,50.92v42.08c0,36.34,0,43.03-.46,50.68-.46,8.13-3.59,9.73-11.18,11.41-1.84.48-2.22.72-5.44.72-2.53,0-3.91.48-3.91,2.15s1.61,2.15,5.06,2.15c6.21,0,9.35-.24,15.09-.24,5.98-.24,11.03.21,14.25.21,7.36,0,53.11,0,57.47.24,4.37.48,8.05.96,9.89,1.43,1.15.24,2.53.96,3.68.96s1.38-.96,1.38-2.15c0-1.67-1.15-4.54-1.84-15.54-.23-2.39-.47-11-.93-13.87-.23-1.2-.69-2.63-2.3-2.63s-2.07,1.2-2.07,3.35c0,1.67-.45,3.83-1.6,6.7-1.61,4.3-3.91,7.17-15.4,8.61-3.91.48-28.05.96-32.64.96-1.15,0-1.61-.72-1.61-2.39v-60.49c0-1.67.23-2.63,1.61-2.63,5.06,0,31.5,0,36.78.48,5.52.48,8.97,1.2,11.03,3.59,1.61,1.91,2.53,3.11,3.68,3.11.92,0,1.61-.48,1.61-1.91s-.92-5.26-1.84-17.45c-.23-4.78-.84-12.33-.84-14.01,0-1.91,0-4.54-2.07-4.54-1.61,0-2.07.96-2.07,2.15-.23,2.39-.31,3.49-1,6.6-1.15,4.78-4.37,8.37-12.87,9.32-4.37.48-27.13.72-32.64.72-1.15,0-1.38-.96-1.38-2.39v-18.89c0-8.13-.23-30.12,0-37.06.46-16.5,4.14-20.08,27.59-20.08,5.98,0,15.63,0,21.61,2.87,5.98,2.87,8.74,5.52,10.34,15.32.46,2.63.92,3.59,2.53,3.59,1.84,0,1.84-1.91,1.84-4.3,0-5.5-1.84-19.39-2.99-24.17ZM1107.82,700.32c-2.34-.34-1.79,0-4.69-.72-6.77-1.91-7.49-6.93-7.74-20.32l-.83-147.34c0-5.26-.97-7.41-3.14-7.41-2.66,0-5.56,2.63-8.22,5.26-15.23,14.34-48,42.14-73.13,66.77-26.35,25.82-57.46,55.7-61.81,60.25h-.73l2.17-100.41c.48-18.65,3.63-24.86,8.46-26.54,4.11-1.43,8.7-1.67,12.57-1.67,2.66,0,4.11-.48,4.11-1.91,0-1.91-2.18-2.39-5.56-2.39-15.71,0-20.61.72-25.2.72-2.18,0-14.52-1.7-27.09-1.7-3.14,0-5.32.24-5.32,2.39,0,1.43,1.45,1.91,3.87,1.91,3.14,0,7.49.24,10.88,1.2,6.28,1.91,7.25,8.85,7.49,29.64l-1.13,142.52c0,4.78.73,8.13,3.14,8.13,2.66,0,4.83-3.11,8.94-7.41,2.9-3.11,43.93-42.08,79.22-76.74,16.44-16.26,50.9-51.16,55.01-54.99h1.21v107.82c-.24,14.58-2.42,19.13-8.22,21.52-3.63,1.43-11.13,1.43-14.52,1.43-2.9,0-3.87.72-3.87,2.15,0,1.91,2.66,2.15,6.28,2.15,12.57,0,21.63-.72,26.7-.72,2.66,0,7.61.72,19.46.72,3.14,0,5.56-.24,5.56-2.15,0-1.43-1.02-1.73-3.89-2.15ZM1297.09,618.62c0,54.75-40.14,88.48-95.52,88.48-67.56,0-99.01-51.97-99.01-92.85s28.8-92.75,97.67-92.75c60.95,0,96.87,42.37,96.87,97.12ZM1271.92,611.11c0-69.09-44.93-80.37-61.72-80.37-55.28,0-80.96,41.31-80.96,91.04,0,59.53,37.88,74.7,65.47,74.7,44.41,0,77.22-29.28,77.22-85.37ZM1536.94,526.51c0-1.91-2.76-2.63-5.98-2.63-5.75,0-33.2-.28-42.4.43-5.29.48-7.13,1.44-7.04,3.22.11,2.06,1.29,1.32,2.9,2.04,1.38.48,2.07,4.59,1.15,11.28l-10.89,116.22h-.92l-59.69-120.52c-5.29-11.24-6.44-13.39-8.51-13.39s-5.27,4.61-8.95,11.78c-5.52,11-51.9,103.54-59.94,121.47h-.92l-8.64-108.15c-.46-4.3-.69-7.41-.69-11.24,0-4.54,2.99-6.69,6.9-7.65,4.14-.96,5.2-1.2,7.5-1.2,1.84,0,3.45-.48,3.45-1.67,0-2.15-2.07-2.63-5.52-2.63-9.66,0-17.84.72-21.98.72-4.37,0-13.81-.72-21.16-.72-2.3,0-4.14.48-4.14,2.63,0,1.2,1.38,1.67,3.68,1.67,1.84,0,1.85,0,5.3.72,6.44,1.43,8.28,10.76,9.43,18.89l17.98,155.88c.69,4.06,2.07,6.22,3.91,6.22s3.22-1.2,6.21-7.41l74.73-135.79,68.1,134.69c1.84,3.83,2.99,5.74,5.06,5.74s3.45-2.39,4.14-7.41l17.76-144.97c2.07-15.06,4.37-21.99,11.26-24.15,6.67-2.15,11.27-2.39,14.25-2.39,2.07,0,3.68-.24,3.68-1.67Z"/>
  </g>
  <g>
    <ellipse class="cls-148" cx="1800.24" cy="30.13" rx="15.97" ry="5.05" transform="translate(126.86 694.64) rotate(-22.62)"/>
    <ellipse class="cls-148" cx="1838.97" cy="15.97" rx="15.97" ry="3.01" transform="translate(30.54 350.11) rotate(-10.97)"/>
    <ellipse class="cls-114" cx="1759.71" cy="17.56" rx="15.97" ry="3.01" transform="translate(28.79 335.06) rotate(-10.97)"/>
    <ellipse class="cls-166" cx="1762.27" cy="48.72" rx="17.47" ry="5.53" transform="translate(116.79 681.47) rotate(-22.62)"/>
    <ellipse class="cls-115" cx="1718.53" cy="73.7" rx="18.21" ry="6.35" transform="translate(193.39 869.14) rotate(-30)"/>
    <ellipse class="cls-65" cx="1671.08" cy="104.33" rx="19.06" ry="6.88" transform="translate(216.81 934.08) rotate(-33.28)"/>
    <ellipse class="cls-106" cx="1621.6" cy="138.34" rx="21.21" ry="7.66" transform="translate(190.03 912.5) rotate(-33.28)"/>
    <ellipse class="cls-40" cx="1572.47" cy="172.11" rx="20.37" ry="7.36" transform="translate(145.88 855.56) rotate(-31.84)"/>
    <ellipse class="cls-9" cx="1523.63" cy="204.26" rx="20.37" ry="7.36" transform="translate(102 789.18) rotate(-30)"/>
    <ellipse class="cls-8" cx="1477.69" cy="231.09" rx="18.21" ry="6.26" transform="translate(58.64 703.6) rotate(-27.3)"/>
    <ellipse class="cls-118" cx="1435.16" cy="253.23" rx="18.21" ry="5.31" transform="translate(12.1 567.42) rotate(-22.46)"/>
    <path class="cls-90" d="M1379.87,272.67c6.17-4.42,9.53-6.32,14.79-7.99,8.6-2.74,16.25-2.47,16.81-.37.56,2.11-6.08,5.65-14.79,7.99-11.06,2.97-16.81.37-16.81.37Z"/>
    <path class="cls-108" d="M1357.37,280.74c-1.91-.28-2.13-2.97-.29-3.57,2.04-.67,3.81-1.04,6.01-1.28,6.14-.67,11.23.43,11.31,1.82.09,1.39-4.84,2.81-11,3.22-2.42.16-4.42.05-6.04-.18Z"/>
    <ellipse class="cls-108" cx="1282.94" cy="250.62" rx="12.18" ry="7.26"/>
    <ellipse class="cls-4" cx="1264.79" cy="227.69" rx="12.18" ry="9.09"/>
    <ellipse class="cls-139" cx="1249.58" cy="199.39" rx="11.77" ry="11.26"/>
    <ellipse class="cls-156" cx="1236.18" cy="167.41" rx="13.59" ry="12.13" transform="translate(243.69 923.15) rotate(-45)"/>
    <ellipse class="cls-43" cx="1224.39" cy="133.82" rx="13.59" ry="12.13" transform="translate(263.99 904.97) rotate(-45)"/>
    <ellipse class="cls-67" cx="1211.31" cy="101.8" rx="12.4" ry="11.07" transform="translate(282.8 886.34) rotate(-45)"/>
    <ellipse class="cls-33" cx="1198.13" cy="74.38" rx="11.67" ry="9.33" transform="translate(61.25 459.81) rotate(-22.28)"/>
    <ellipse class="cls-86" cx="1178.57" cy="49.92" rx="12.71" ry="7.25"/>
    <ellipse class="cls-3" cx="1158.16" cy="32.32" rx="12.71" ry="5.1"/>
    <ellipse class="cls-148" cx="1779.67" cy="23.51" rx="15.97" ry="4.17" transform="translate(63.54 495.4) rotate(-16.13)"/>
    <ellipse class="cls-148" cx="1744.02" cy="38.87" rx="17.47" ry="5.53" transform="translate(119.18 673.69) rotate(-22.62)"/>
    <ellipse class="cls-126" cx="1700.87" cy="61.5" rx="18.21" ry="6.35" transform="translate(197.12 858.67) rotate(-30)"/>
    <ellipse class="cls-85" cx="1654.69" cy="89.62" rx="19.06" ry="6.88" transform="translate(222.19 922.67) rotate(-33.28)"/>
    <ellipse class="cls-153" cx="1606.06" cy="122.01" rx="21.21" ry="7.66" transform="translate(196.44 901.3) rotate(-33.28)"/>
    <ellipse class="cls-1" cx="1556.84" cy="156.42" rx="20.37" ry="7.36" transform="translate(151.8 844.96) rotate(-31.84)"/>
    <ellipse class="cls-112" cx="1506.54" cy="190.64" rx="20.37" ry="7.36" transform="translate(106.52 778.81) rotate(-30)"/>
    <ellipse class="cls-27" cx="1461.05" cy="219.65" rx="18.21" ry="6.26" transform="translate(62.04 694.7) rotate(-27.3)"/>
    <ellipse class="cls-16" cx="1415.8" cy="243.8" rx="18.21" ry="5.31" transform="translate(14.24 559.31) rotate(-22.46)"/>
    <path class="cls-154" d="M1358.54,267.15c6.17-4.42,9.53-6.32,14.79-7.99,8.6-2.74,16.25-2.47,16.81-.37s-6.08,5.65-14.79,7.99c-11.06,2.97-16.81.37-16.81.37Z"/>
    <ellipse class="cls-45" cx="1254.04" cy="259.4" rx="6.05" ry="12.18" transform="translate(911.48 1493.32) rotate(-86.17)"/>
    <path class="cls-162" d="M1293.07,279.86c-.03.42-.36.81-.95,1.14h-19.96c-2.76-.79-4.48-1.81-4.42-2.83.12-1.82,5.89-2.9,12.89-2.43,6.99.47,12.56,2.32,12.44,4.13Z"/>
    <ellipse class="cls-32" cx="1249.18" cy="275.88" rx="9.78" ry="2"/>
    <ellipse class="cls-94" cx="1224.94" cy="267.26" rx="4.87" ry="12.18" transform="translate(876.48 1471.61) rotate(-86.17)"/>
    <ellipse class="cls-143" cx="1233.87" cy="239.54" rx="12.18" ry="9.09"/>
    <ellipse class="cls-59" cx="1217.05" cy="213.1" rx="11.77" ry="11.26"/>
    <ellipse class="cls-30" cx="1202.98" cy="182.65" rx="13.59" ry="12.13" transform="translate(223.19 904.13) rotate(-45)"/>
    <ellipse class="cls-146" cx="1191.27" cy="150.22" rx="13.59" ry="12.13" transform="translate(242.69 886.36) rotate(-45)"/>
    <ellipse class="cls-72" cx="1178.2" cy="117.15" rx="12.4" ry="11.07" transform="translate(262.25 867.42) rotate(-45)"/>
    <ellipse class="cls-104" cx="1165.86" cy="87.61" rx="11.67" ry="9.33" transform="translate(53.83 448.56) rotate(-22.28)"/>
    <ellipse class="cls-132" cx="1148.84" cy="60.83" rx="12.71" ry="9.35"/>
    <path class="cls-5" d="M1116.99,40.55c0-3.52,5.69-6.37,12.71-6.37,7.02,0,12.71,2.85,12.71,6.37,0,3.52-5.69,6.37-12.71,6.37-7.02,0-12.71-2.85-12.71-6.37Z"/>
    <ellipse class="cls-114" cx="1725.23" cy="30.13" rx="15.97" ry="5.05" transform="translate(76.46 538.92) rotate(-18.15)"/>
    <ellipse class="cls-29" cx="1682.72" cy="50.8" rx="17.47" ry="5.53" transform="translate(109.87 651.03) rotate(-22.62)"/>
    <ellipse class="cls-138" cx="1638.12" cy="75.89" rx="18.9" ry="6.59" transform="translate(181.52 829.23) rotate(-30)"/>
    <ellipse class="cls-76" cx="1590.91" cy="106.66" rx="19.68" ry="7.11" transform="translate(202.38 890.47) rotate(-33.28)"/>
    <ellipse class="cls-64" cx="1541.61" cy="140.55" rx="21.21" ry="7.66" transform="translate(175.7 868.98) rotate(-33.28)"/>
    <ellipse class="cls-77" cx="1491.55" cy="174.77" rx="20.37" ry="7.36" transform="translate(132.29 813.27) rotate(-31.84)"/>
    <ellipse class="cls-147" cx="1442.91" cy="207" rx="20.37" ry="7.03" transform="translate(89.82 749.19) rotate(-30)"/>
    <ellipse class="cls-135" cx="1397.53" cy="233.36" rx="18.21" ry="5.86" transform="translate(30.47 605.76) rotate(-24.72)"/>
    <ellipse class="cls-152" cx="1355.45" cy="254.97" rx="16.5" ry="4.85" transform="translate(-6.42 473.07) rotate(-19.75)"/>
    <path class="cls-93" d="M1305.06,274.02c-2.69-.35-3.19-4.02-.7-5.1,3.27-1.42,5.99-2.21,9.48-2.81,8.9-1.52,16.44-.21,16.7,1.95.26,2.16-6.8,4.76-15.76,5.88-3.96.49-7.19.41-9.72.08Z"/>
    <ellipse class="cls-121" cx="1203.97" cy="250.62" rx="12.18" ry="7.26"/>
    <ellipse class="cls-131" cx="1185.64" cy="226.36" rx="12.18" ry="10.41"/>
    <ellipse class="cls-105" cx="1170.89" cy="198.3" rx="12.91" ry="12.35"/>
    <ellipse class="cls-14" cx="1157.97" cy="165.83" rx="13.59" ry="12.13" transform="translate(221.91 867.38) rotate(-45)"/>
    <ellipse class="cls-137" cx="1147.24" cy="133.3" rx="13.1" ry="11.7" transform="translate(241.76 850.26) rotate(-45)"/>
    <ellipse class="cls-36" cx="1133.68" cy="100.79" rx="12.4" ry="11.07" transform="translate(260.77 831.15) rotate(-45)"/>
    <ellipse class="cls-113" cx="1117.72" cy="73.14" rx="12.3" ry="9.83" transform="translate(55.72 429.23) rotate(-22.28)"/>
    <ellipse class="cls-141" cx="1100.66" cy="49.92" rx="12.71" ry="7.25"/>
    <ellipse class="cls-149" cx="1081.53" cy="32.32" rx="12.71" ry="5.1"/>
    <ellipse class="cls-68" cx="1106.43" cy="25.78" rx="12.71" ry="4.13"/>
    <ellipse class="cls-82" cx="1704.78" cy="23.87" rx="15.72" ry="4.31" transform="translate(60.49 474.6) rotate(-16.13)"/>
    <ellipse class="cls-41" cx="1664.52" cy="40.93" rx="17.47" ry="5.53" transform="translate(112.27 643.27) rotate(-22.62)"/>
    <ellipse class="cls-6" cx="1620.63" cy="63.98" rx="18.21" ry="6.63" transform="translate(185.13 818.89) rotate(-30)"/>
    <ellipse class="cls-78" cx="1575.74" cy="92.39" rx="19.06" ry="6.88" transform="translate(207.72 879.8) rotate(-33.28)"/>
    <ellipse class="cls-122" cx="1525.82" cy="125.74" rx="21.21" ry="7.66" transform="translate(181.24 857.88) rotate(-33.28)"/>
    <ellipse class="cls-102" cx="1476.68" cy="159.15" rx="22.06" ry="7.84" transform="translate(183.41 889.46) rotate(-35.6)"/>
    <ellipse class="cls-123" cx="1426.72" cy="192.75" rx="20.37" ry="7.36" transform="translate(94.77 739.18) rotate(-30)"/>
    <ellipse class="cls-145" cx="1380.46" cy="221.86" rx="18.74" ry="6.26" transform="translate(52.04 657.98) rotate(-27.3)"/>
    <ellipse class="cls-63" cx="1335.97" cy="246.46" rx="18.21" ry="5.31" transform="translate(7.17 529.02) rotate(-22.46)"/>
    <path class="cls-13" d="M1285.91,269.87c-2.71.03-3.71-3.55-1.4-4.96,3.04-1.86,5.63-3.02,9-4.09,8.6-2.74,16.25-2.47,16.81-.37s-6.08,5.65-14.79,7.99c-3.86,1.04-7.07,1.39-9.62,1.42Z"/>
    <ellipse class="cls-165" cx="1175.06" cy="259.72" rx="12.66" ry="6.5"/>
    <ellipse class="cls-66" cx="1198.84" cy="273.56" rx="3.62" ry="11.16" transform="translate(845.84 1451.45) rotate(-86.17)"/>
    <path class="cls-66" d="M1234.92,281h-21.08c.56-1.84,5.46-2.99,11.33-2.6,4.3.29,7.97,1.32,9.75,2.6Z"/>
    <ellipse class="cls-125" cx="1155.08" cy="238.81" rx="12.18" ry="9.09"/>
    <ellipse class="cls-22" cx="1139.09" cy="212.52" rx="11.77" ry="11.26"/>
    <ellipse class="cls-38" cx="1125.37" cy="182.45" rx="13.59" ry="12.13" transform="translate(200.6 849.2) rotate(-45)"/>
    <ellipse class="cls-167" cx="1114.44" cy="149.42" rx="13.59" ry="12.13" transform="translate(220.76 831.79) rotate(-45)"/>
    <ellipse class="cls-31" cx="1102.35" cy="115.04" rx="12.4" ry="11.07" transform="translate(241.53 813.17) rotate(-45)"/>
    <ellipse class="cls-80" cx="1087.5" cy="85.22" rx="11.67" ry="10.52" transform="translate(48.88 418.68) rotate(-22.28)"/>
    <ellipse class="cls-117" cx="1071.14" cy="60.83" rx="12.71" ry="8.29"/>
    <ellipse class="cls-111" cx="1051.81" cy="40.55" rx="12.71" ry="5.1"/>
    <ellipse class="cls-133" cx="1027.94" cy="25.44" rx="12.71" ry="3.79"/>
    <path class="cls-116" d="M1068.82,21.78c0,1.84-4.98,3.32-11.14,3.32s-11.14-1.48-11.14-3.32c0-.32.34-.57.9-.77h20.48c.56.19.9.45.9.77Z"/>
    <path class="cls-49" d="M1147.28,21.67c0,2.06-5.61,3.73-12.54,3.73-6.26,0-11.46-2.2-12.39-4.38h24.39c.34.19.53.4.53.65Z"/>
    <path class="cls-97" d="M1092.42,21.02c-1.26,1.29-5.22,2.22-9.92,2.22-3.8,0-7.12-.99-8.91-2.22h18.83Z"/>
    <path class="cls-84" d="M1724.14,15.23c-.23-1.9,11.36-2.84,11.36-2.84,0,0,11.48-1.81,11.71.09s-4.75,4.05-11.12,4.81c-6.37.76-11.72-.16-11.94-2.06Z"/>
    <path class="cls-148" d="M1829.54,10.9c-.24,2.21-6.05,4.67-13.41,5.58-7.68.96-14.29-1.25-14.62-3.91l11.57-1.68h16.45Z"/>
    <path class="cls-114" d="M1781.43,11.06l8.39-.17s8.39-.31,8.39,1.07-3.76,2.5-8.39,2.5-8.39-1.8-8.39-3.4Z"/>
    <path class="cls-148" d="M1875.83,10.9c-.86,1.16-3.96,2.35-7.77,2.81-2.5.32-4.8.08-6.41-.47-1.16-.38-1.02-2.05.18-2.22l.85-.12h13.16Z"/>
    <ellipse class="cls-71" cx="1303.6" cy="266.61" rx="12.08" ry="3.93"/>
    <path class="cls-60" d="M1340.2,273.73c4.36-.65,13.11-.6,12.63.84s-4.09,5.41-15.51,5.89-19.6,1.2-20.2,0,1.68-2.71,5.29-3.28,8.42-.21,10.34-.69,5.79-2.52,7.46-2.77Z"/>
  </g>
  <g>
    <path class="cls-11" d="M1439.46,14.37h21.08c-.56,1.84-5.46,2.99-11.34,2.6-4.3-.29-7.97-1.32-9.74-2.6Z"/>
    <ellipse class="cls-55" cx="872.95" cy="263.48" rx="15.97" ry="5.05" transform="translate(-34.19 355.97) rotate(-22.62)"/>
    <ellipse class="cls-55" cx="835.98" cy="276.59" rx="15.97" ry="3.01" transform="translate(-37.35 164.07) rotate(-10.97)"/>
    <path class="cls-69" d="M930.92,274.77c.29,1.5-5.36,3.87-12.99,5.55h-18.25c.95-1.64,7.2-3.95,14.99-5.47,8.65-1.68,15.93-1.71,16.25-.08Z"/>
    <ellipse class="cls-55" cx="912.67" cy="246.65" rx="17.47" ry="5.53" transform="translate(-24.66 369.96) rotate(-22.62)"/>
    <ellipse class="cls-55" cx="956.41" cy="221.67" rx="18.21" ry="6.35" transform="translate(17.3 507.9) rotate(-30)"/>
    <ellipse class="cls-55" cx="1003.86" cy="191.04" rx="19.06" ry="6.88" transform="translate(59.8 582.18) rotate(-33.28)"/>
    <ellipse class="cls-128" cx="1053.34" cy="157.03" rx="21.21" ry="7.66" transform="translate(86.58 603.75) rotate(-33.28)"/>
    <ellipse class="cls-25" cx="1102.48" cy="123.26" rx="20.37" ry="7.36" transform="translate(100.91 600.24) rotate(-31.84)"/>
    <ellipse class="cls-48" cx="1151.32" cy="91.11" rx="20.37" ry="7.36" transform="translate(108.69 587.87) rotate(-30)"/>
    <ellipse class="cls-70" cx="1197.25" cy="64.28" rx="18.21" ry="6.26" transform="translate(103.91 556.38) rotate(-27.3)"/>
    <ellipse class="cls-124" cx="1239.78" cy="42.14" rx="18.21" ry="5.31" transform="translate(77.92 476.78) rotate(-22.46)"/>
    <path class="cls-110" d="M1295.07,22.7c-6.17,4.42-9.53,6.32-14.79,7.99-8.6,2.74-16.25,2.47-16.81.37s6.08-5.65,14.79-7.99c11.06-2.97,16.81-.37,16.81-.37Z"/>
    <path class="cls-71" d="M1321.15,14.79c.47.08.49.74.03.86-3.71.94-6.05,1.37-9.33,1.66-6.14.55-11.19.07-11.24-.7s4.91-1.71,11.07-2.11c4.63-.3,7.72,0,9.47.3Z"/>
    <ellipse class="cls-129" cx="1392.01" cy="44.75" rx="12.18" ry="7.26"/>
    <ellipse class="cls-120" cx="1410.15" cy="67.68" rx="12.18" ry="9.09"/>
    <ellipse class="cls-47" cx="1425.36" cy="95.98" rx="11.77" ry="11.26"/>
    <ellipse class="cls-73" cx="1438.76" cy="127.96" rx="13.59" ry="12.13" transform="translate(330.92 1054.83) rotate(-45)"/>
    <ellipse class="cls-23" cx="1450.56" cy="161.55" rx="13.59" ry="12.13" transform="translate(310.62 1073.02) rotate(-45)"/>
    <ellipse class="cls-15" cx="1463.63" cy="193.57" rx="12.4" ry="11.07" transform="translate(291.82 1091.64) rotate(-45)"/>
    <ellipse class="cls-24" cx="1476.81" cy="220.98" rx="11.67" ry="9.33" transform="translate(26.48 576.42) rotate(-22.28)"/>
    <path class="cls-164" d="M1509.09,245.45c0,4.01-5.69,7.25-12.71,7.25-7.02,0-12.71-3.25-12.71-7.25s5.69-7.25,12.71-7.25c7.02,0,12.71,3.25,12.71,7.25Z"/>
    <ellipse class="cls-103" cx="1516.79" cy="263.05" rx="12.71" ry="5.1"/>
    <ellipse class="cls-81" cx="895.27" cy="271.86" rx="15.97" ry="4.17" transform="translate(-40.28 259.45) rotate(-16.13)"/>
    <ellipse class="cls-81" cx="930.93" cy="256.5" rx="17.47" ry="5.53" transform="translate(-27.05 377.73) rotate(-22.62)"/>
    <ellipse class="cls-159" cx="974.07" cy="233.87" rx="18.21" ry="6.35" transform="translate(13.57 518.37) rotate(-30)"/>
    <ellipse class="cls-99" cx="1020.25" cy="205.75" rx="19.06" ry="6.88" transform="translate(54.42 593.58) rotate(-33.28)"/>
    <ellipse class="cls-169" cx="1068.89" cy="173.36" rx="21.21" ry="7.66" transform="translate(80.17 614.96) rotate(-33.28)"/>
    <ellipse class="cls-168" cx="1118.1" cy="138.95" rx="20.37" ry="7.36" transform="translate(94.98 610.84) rotate(-31.84)"/>
    <ellipse class="cls-157" cx="1168.4" cy="104.73" rx="20.37" ry="7.36" transform="translate(104.17 598.23) rotate(-30)"/>
    <ellipse class="cls-109" cx="1213.89" cy="75.72" rx="18.21" ry="6.26" transform="translate(100.52 565.28) rotate(-27.3)"/>
    <ellipse class="cls-61" cx="1259.14" cy="51.57" rx="18.21" ry="5.31" transform="translate(75.78 484.89) rotate(-22.46)"/>
    <path class="cls-60" d="M1316.41,28.22c-6.17,4.42-9.53,6.32-14.79,7.99-8.6,2.74-16.25,2.47-16.81.37s6.08-5.65,14.79-7.99c11.06-2.97,16.81-.37,16.81-.37Z"/>
    <ellipse class="cls-92" cx="1420.9" cy="35.97" rx="6.05" ry="12.18" transform="translate(1290.13 1451.3) rotate(-86.17)"/>
    <path class="cls-162" d="M1410.15,18.34c-.11,1.82-5.88,2.9-12.88,2.43-6.99-.47-12.56-2.31-12.44-4.13.07-1.07,2.1-1.89,5.18-2.28h9.52c6.11.64,10.74,2.32,10.62,3.97Z"/>
    <ellipse class="cls-32" cx="1425.77" cy="19.49" rx="9.78" ry="2"/>
    <ellipse class="cls-32" cx="1450.01" cy="28.11" rx="4.87" ry="12.18" transform="translate(1325.13 1473.01) rotate(-86.17)"/>
    <ellipse class="cls-98" cx="1441.07" cy="55.83" rx="12.18" ry="9.09"/>
    <ellipse class="cls-56" cx="1457.89" cy="82.27" rx="11.77" ry="11.26"/>
    <ellipse class="cls-39" cx="1471.97" cy="112.72" rx="13.59" ry="12.13" transform="translate(351.42 1073.85) rotate(-45)"/>
    <ellipse class="cls-144" cx="1483.67" cy="145.15" rx="13.59" ry="12.13" transform="translate(331.92 1091.63) rotate(-45)"/>
    <ellipse class="cls-7" cx="1496.75" cy="178.22" rx="12.4" ry="11.07" transform="translate(312.37 1110.56) rotate(-45)"/>
    <ellipse class="cls-35" cx="1509.09" cy="207.76" rx="11.67" ry="9.33" transform="translate(33.9 587.67) rotate(-22.28)"/>
    <ellipse class="cls-19" cx="1526.1" cy="234.54" rx="12.71" ry="9.35"/>
    <ellipse class="cls-46" cx="1545.24" cy="254.82" rx="12.71" ry="6.37"/>
    <ellipse class="cls-100" cx="949.71" cy="265.24" rx="15.97" ry="5.05" transform="translate(-35.37 309.04) rotate(-18.15)"/>
    <ellipse class="cls-142" cx="992.22" cy="244.57" rx="17.47" ry="5.53" transform="translate(-17.75 400.39) rotate(-22.62)"/>
    <ellipse class="cls-95" cx="1036.82" cy="219.48" rx="18.9" ry="6.59" transform="translate(29.17 547.81) rotate(-30)"/>
    <ellipse class="cls-28" cx="1084.03" cy="188.71" rx="19.68" ry="7.11" transform="translate(74.23 625.79) rotate(-33.28)"/>
    <ellipse class="cls-57" cx="1133.33" cy="154.82" rx="21.21" ry="7.66" transform="translate(100.91 647.28) rotate(-33.28)"/>
    <ellipse class="cls-10" cx="1183.39" cy="120.59" rx="20.37" ry="7.36" transform="translate(114.49 642.53) rotate(-31.84)"/>
    <ellipse class="cls-74" cx="1232.03" cy="88.37" rx="20.37" ry="7.03" transform="translate(120.87 627.86) rotate(-30)"/>
    <ellipse class="cls-119" cx="1277.41" cy="62.01" rx="18.21" ry="5.86" transform="translate(91.11 539.83) rotate(-24.72)"/>
    <ellipse class="cls-53" cx="1319.5" cy="40.4" rx="16.5" ry="4.85" transform="translate(63.98 448.3) rotate(-19.75)"/>
    <path class="cls-101" d="M1369.89,21.35c2.69.35,3.19,4.02.7,5.1-3.27,1.42-5.99,2.21-9.48,2.81-8.9,1.52-16.44.21-16.7-1.95s6.8-4.76,15.76-5.88c3.96-.49,7.19-.41,9.72-.08Z"/>
    <ellipse class="cls-44" cx="1470.97" cy="44.75" rx="12.18" ry="7.26"/>
    <ellipse class="cls-62" cx="1489.3" cy="69.01" rx="12.18" ry="10.41"/>
    <ellipse class="cls-158" cx="1504.06" cy="97.07" rx="12.91" ry="12.35"/>
    <ellipse class="cls-160" cx="1516.97" cy="129.54" rx="13.59" ry="12.13" transform="translate(352.71 1110.6) rotate(-45)"/>
    <ellipse class="cls-21" cx="1527.7" cy="162.07" rx="13.1" ry="11.7" transform="translate(332.85 1127.72) rotate(-45)"/>
    <ellipse class="cls-91" cx="1541.27" cy="194.58" rx="12.4" ry="11.07" transform="translate(313.84 1146.83) rotate(-45)"/>
    <ellipse class="cls-2" cx="1557.23" cy="222.23" rx="12.3" ry="9.83" transform="translate(32.01 607) rotate(-22.28)"/>
    <path class="cls-50" d="M1586.99,245.45c0,4.01-5.69,7.25-12.71,7.25-7.02,0-12.71-3.25-12.71-7.25s5.69-7.25,12.71-7.25c7.02,0,12.71,3.25,12.71,7.25Z"/>
    <ellipse class="cls-127" cx="1593.41" cy="263.05" rx="12.71" ry="5.1"/>
    <path class="cls-88" d="M1581.22,269.59c0,2.28-5.69,4.13-12.71,4.13-7.02,0-12.71-1.85-12.71-4.13,0-2.28,5.69-4.13,12.71-4.13,7.02,0,12.71,1.85,12.71,4.13Z"/>
    <ellipse class="cls-18" cx="970.17" cy="271.5" rx="15.72" ry="4.31" transform="translate(-37.24 280.24) rotate(-16.13)"/>
    <ellipse class="cls-151" cx="1010.43" cy="254.44" rx="17.47" ry="5.53" transform="translate(-20.14 408.15) rotate(-22.62)"/>
    <ellipse class="cls-87" cx="1054.31" cy="231.39" rx="18.21" ry="6.63" transform="translate(25.56 558.15) rotate(-30)"/>
    <ellipse class="cls-134" cx="1099.2" cy="202.98" rx="19.06" ry="6.88" transform="translate(68.89 636.45) rotate(-33.28)"/>
    <ellipse class="cls-96" cx="1149.12" cy="169.63" rx="21.21" ry="7.66" transform="translate(95.37 658.37) rotate(-33.28)"/>
    <ellipse class="cls-107" cx="1198.26" cy="136.22" rx="22.06" ry="7.84" transform="translate(144.7 723.08) rotate(-35.6)"/>
    <ellipse class="cls-51" cx="1248.22" cy="102.62" rx="20.37" ry="7.36" transform="translate(115.92 637.86) rotate(-30)"/>
    <ellipse class="cls-130" cx="1294.48" cy="73.51" rx="18.74" ry="6.26" transform="translate(110.51 602) rotate(-27.3)"/>
    <ellipse class="cls-34" cx="1338.98" cy="48.91" rx="18.21" ry="5.31" transform="translate(82.86 515.19) rotate(-22.46)"/>
    <path class="cls-101" d="M1389.03,25.5c2.71-.03,3.71,3.55,1.4,4.96-3.04,1.86-5.63,3.02-9,4.09-8.6,2.74-16.25,2.47-16.81.37-.56-2.11,6.08-5.65,14.79-7.99,3.86-1.04,7.07-1.39,9.62-1.42Z"/>
    <ellipse class="cls-89" cx="1499.88" cy="35.65" rx="12.66" ry="6.5"/>
    <ellipse class="cls-11" cx="1476.11" cy="21.81" rx="3.62" ry="11.16" transform="translate(1355.78 1493.17) rotate(-86.17)"/>
    <ellipse class="cls-75" cx="1519.86" cy="56.56" rx="12.18" ry="9.09"/>
    <ellipse class="cls-83" cx="1535.86" cy="82.84" rx="11.77" ry="11.26"/>
    <ellipse class="cls-37" cx="1549.57" cy="112.92" rx="13.59" ry="12.13" transform="translate(374.01 1128.78) rotate(-45)"/>
    <ellipse class="cls-163" cx="1560.5" cy="145.95" rx="13.59" ry="12.13" transform="translate(353.86 1146.19) rotate(-45)"/>
    <ellipse class="cls-12" cx="1572.59" cy="180.33" rx="12.4" ry="11.07" transform="translate(333.09 1164.81) rotate(-45)"/>
    <ellipse class="cls-54" cx="1587.44" cy="210.15" rx="11.67" ry="10.52" transform="translate(38.84 617.56) rotate(-22.28)"/>
    <ellipse class="cls-26" cx="1603.8" cy="234.54" rx="12.71" ry="8.29"/>
    <ellipse class="cls-136" cx="1623.14" cy="254.82" rx="12.71" ry="5.1"/>
    <path class="cls-161" d="M1659.72,269.93c0,2.09-5.69,3.79-12.71,3.79-7.02,0-12.71-1.7-12.71-3.79,0-2.09,5.69-3.79,12.71-3.79s12.71,1.7,12.71,3.79Z"/>
    <path class="cls-17" d="M1628.4,273.59s0,.08-.02.11h-22.24s-.02-.08-.02-.11c0-1.83,4.98-3.33,11.13-3.33s11.14,1.49,11.14,3.33Z"/>
    <path class="cls-103" d="M1552.19,273.7h-24.52c0-2.06,5.61-3.74,12.54-3.74,5.64,0,10.41,1.79,11.98,3.74Z"/>
    <path class="cls-88" d="M1600.22,273.7h-16.8c1.76-.94,5.14-1.57,9.02-1.57,3.1,0,5.88.65,7.78,1.57Z"/>
    <path class="cls-79" d="M950.81,280.13c0,.06,0,.12-.03.19h-20.54c2.03-.99,5.12-1.83,8.62-2.25,6.37-.76,11.72.17,11.94,2.06Z"/>
    <path class="cls-81" d="M873.33,280.32h-26.23c2.28-1.51,6.63-2.88,11.71-3.5,7.3-.91,13.62,1.03,14.52,3.5Z"/>
    <path class="cls-58" d="M891.66,280.32h-14.03c1.39-.81,4.23-1.38,7.5-1.38,2.64,0,4.98.58,6.53,1.38Z"/>
    <path class="cls-140" d="M813.28,280.32h-12.61c1.2-.6,2.51-1.09,3.89-1.45,3.31-.82,6.36-.19,8.5,1.27.08.05.15.11.22.18Z"/>
    <ellipse class="cls-71" cx="1371.34" cy="28.76" rx="12.08" ry="3.93"/>
    <path class="cls-60" d="M1335.12,21.76c-4.36.65-13.11.6-12.63-.84s4.09-5.41,15.51-5.89c11.42-.48,19.6-1.2,20.2,0s-1.68,2.71-5.29,3.28c-3.61.57-8.42.21-10.34.69s-5.79,2.52-7.46,2.77Z"/>
  </g>
  <path class="cls-38" d="M1012.18,24.6l-14.27-2.39c-.57-.09-.51-1.19.06-1.19h14.39c.76,0,1.38.8,1.38,1.8h0c0,1.08-.73,1.92-1.55,1.78Z"/>
  <path class="cls-20" d="M914,491.51c0,5.5-1.84,19.39-2.99,24.17-1.61,6.22-3.68,6.22-12.41,6.22-17.24,0-29.89-.48-39.77-.72-9.89-.48-17.07-.25-23.97-.25-2.53,0-5.87-.35-11.39-.11-5.29,0-8.19.21-12.79.21-2.99,0-4.6-.72-4.6-2.39,0-1.2.92-1.91,3.68-1.91,3.45,0,4.62-1.96,5.38-2.17,4.76-2.07,5.44-6.37,6.36-13.3,1.13-9.91,1.15-28.44,1.15-50.07-.95.95-2.63,1.31-4.48,1.31-3.27,0-6.12.42-11.02,1.27-11.02,2.12-15.1,9.34-15.51,24.2-.41,12.74-.41,29.72-.41,50.94v46.7c0,11.46-.41,12.31-5.31,15.28-26.53,14.43-62.2,19.1-94.04,19.1-100.02,0-188.6-49.25-188.6-166.42,0-67.93,33.88-115.48,71.03-138.83,39.19-24.62,75.52-27.59,109.81-27.59,28.17,0,64.09,5.09,72.26,6.79,8.57,1.7,22.86,4.25,32.25,4.67,4.9.42,5.72,2.12,5.72,5.09,0,4.67-2.86,8.92-2.86,61.99,0,6.79-1.22,8.92-4.49,8.92-2.86,0-3.67-2.12-4.08-5.52-1.22-9.76-.8-22.71-11.42-34.59-12.25-13.59-46.58-30.31-92.71-30.31-22.45,0-63.58.58-92.11,25.26-26.44,22.88-44.89,56.84-44.89,109.06,0,91.28,57.15,161.72,159.88,163.22,10.61.15,35.5-3.16,45.29-7.83,6.12-2.97,7.76-8.49,7.76-15.71v-39.91c0-21.23,0-37.36-.41-50.1-.41-14.43-2.56-21.45-16.03-24.42-3.27-.85-10.21-1.27-15.92-1.27-3.67,0-6.12-.85-6.12-3.4,0-3.4,2.86-4.25,8.57-4.25,21.23,0,34.83,1.27,47.08,1.27s29.95-1.27,43.42-1.27c3.65,0,6.14.4,7.34,1.76v-38.35c0-36.34,0-43.03-.46-50.68-.46-8.13-3.59-9.73-11.18-11.41-1.84-.48-2.22-.72-5.44-.72-2.53,0-3.91-.48-3.91-2.15s1.61-2.15,5.06-2.15c6.21,0,9.35.24,15.09.24,5.98.24,11.03-.21,14.25-.21,7.36,0,53.11,0,57.47-.24,4.37-.48,8.05-.96,9.89-1.43,1.15-.24,2.53-.96,3.68-.96s1.38.96,1.38,2.15c0,1.67-1.15,4.54-1.84,15.54-.23,2.39-.47,11-.93,13.87-.23,1.2-.69,2.63-2.3,2.63s-2.07-1.2-2.07-3.35c0-1.67-.45-3.83-1.6-6.7-1.61-4.3-3.91-7.17-15.4-8.61-3.91-.48-28.05-.96-32.64-.96-1.15,0-1.61.72-1.61,2.39v60.49c0,1.67.23,2.63,1.61,2.63,5.06,0,31.5,0,36.78-.48,5.52-.48,8.97-1.2,11.03-3.59,1.61-1.91,2.53-3.11,3.68-3.11.92,0,1.61.48,1.61,1.91s-.92,5.26-1.84,17.45c-.23,4.78-.84,12.33-.84,14.01,0,1.91,0,4.54-2.07,4.54-1.61,0-2.07-.96-2.07-2.15-.23-2.39-.31-3.49-1-6.6-1.15-4.78-4.37-8.37-12.87-9.32-4.37-.48-27.13-.72-32.64-.72-1.15,0-1.38.96-1.38,2.39v18.89c0,8.13-.23,30.12,0,37.06.46,16.5,4.14,20.08,27.59,20.08,5.98,0,15.63,0,21.61-2.87,5.98-2.87,8.74-5.52,10.34-15.32.46-2.63.92-3.59,2.53-3.59,1.84,0,1.84,1.91,1.84,4.3ZM1643.99,487.21c-1.61,0-2.07.96-2.53,3.59-1.61,9.8-4.37,12.46-10.34,15.32-5.98,2.87-15.63,2.87-21.61,2.87-23.45,0-27.13-3.59-27.59-20.08-.23-6.93,0-28.93,0-37.06v-18.89c0-1.43.23-2.39,1.38-2.39,5.52,0,28.28.24,32.64.72,8.51.96,11.72,4.54,12.87,9.32.69,3.11.77,4.2,1,6.6,0,1.2.46,2.15,2.07,2.15,2.07,0,2.07-2.63,2.07-4.54,0-1.67.61-9.23.84-14.01.92-12.19,1.84-16.02,1.84-17.45s-.69-1.91-1.61-1.91c-1.15,0-2.07,1.2-3.68,3.11-2.07,2.39-5.52,3.11-11.03,3.59-5.29.48-31.73.48-36.78.48-1.38,0-1.61-.96-1.61-2.63v-60.49c0-1.67.46-2.39,1.61-2.39,4.6,0,28.74.48,32.64.96,11.49,1.43,13.79,4.3,15.4,8.61,1.15,2.87,1.6,5.03,1.6,6.7,0,2.15.46,3.35,2.07,3.35s2.07-1.43,2.3-2.63c.46-2.87.7-11.48.93-13.87.69-11,1.84-13.87,1.84-15.54,0-1.2-.23-2.15-1.38-2.15s-2.53.72-3.68.96c-1.84.48-5.52.96-9.89,1.43-4.37.24-50.12.24-57.47.24-3.22,0-8.28.45-14.25.21-5.75,0-8.89-.24-15.09-.24-3.45,0-5.06.48-5.06,2.15s1.38,2.15,3.91,2.15c3.22,0,3.6.24,5.44.72,7.59,1.67,10.72,3.28,11.18,11.41.46,7.65.46,14.34.46,50.68v42.08c0,21.99,0,40.88-1.15,50.92-.92,6.93-1.6,11.23-6.36,13.3-.76.2-1.93,2.17-5.38,2.17-2.76,0-3.68.72-3.68,1.91,0,1.67,1.61,2.39,4.6,2.39,4.6,0,7.5-.21,12.79-.21,5.52-.24,8.86.11,11.39.11,6.9,0,14.08-.22,23.97.25,9.89.24,22.53.72,39.77.72,8.74,0,10.81,0,12.41-6.22,1.15-4.78,2.99-18.67,2.99-24.17,0-2.39,0-4.3-1.84-4.3ZM1107.82,344.74c2.87-.42,3.89-.71,3.89-2.15,0-1.91-2.42-2.15-5.56-2.15-11.84,0-16.8.72-19.46.72-5.08,0-14.13-.72-26.7-.72-3.63,0-6.28.24-6.28,2.15,0,1.43.97,2.15,3.87,2.15,3.38,0,10.89,0,14.52,1.43,5.8,2.39,7.98,6.93,8.22,21.52v107.82h-1.21c-4.11-3.83-38.57-38.73-55.01-54.99-35.29-34.67-76.31-73.63-79.22-76.74-4.11-4.3-6.28-7.41-8.94-7.41-2.42,0-3.14,3.35-3.14,8.13l1.13,142.52c-.24,20.8-1.21,27.73-7.49,29.64-3.38.96-7.73,1.2-10.88,1.2-2.42,0-3.87.48-3.87,1.91,0,2.15,2.18,2.39,5.32,2.39,12.57,0,24.91-1.7,27.09-1.7,4.59,0,9.49.72,25.2.72,3.38,0,5.56-.48,5.56-2.39,0-1.43-1.45-1.91-4.11-1.91-3.87,0-8.46-.24-12.57-1.67-4.83-1.67-7.98-7.89-8.46-26.54l-2.17-100.41h.73c4.35,4.54,35.47,34.43,61.81,60.25,25.14,24.62,57.91,56.42,73.13,70.77,2.66,2.63,5.56,5.26,8.22,5.26,2.18,0,3.14-2.15,3.14-7.41l.83-151.33c.24-13.39.97-18.41,7.74-20.32,2.9-.72,2.35-.38,4.69-.72ZM1297.09,426.44c0,54.75-36.89,98.09-97.83,98.09-68.87,0-96.7-51.4-96.7-93.72s31.46-92.85,99.01-92.85c55.38,0,95.52,33.73,95.52,88.48ZM1271.92,433.94c0-56.09-32.81-85.37-77.22-85.37-27.59,0-65.47,15.17-65.47,74.7,0,49.73,25.69,91.04,80.96,91.04,16.8,0,61.72-11.28,61.72-80.37ZM1533.27,516.87c-2.99,0-7.59-.24-14.25-2.39-6.9-2.15-9.2-9.08-11.26-24.15l-17.76-144.97c-.69-5.02-2.07-7.41-4.14-7.41s-3.22,1.91-5.06,5.74l-68.1,134.69-74.73-135.79c-2.99-6.22-4.37-7.41-6.21-7.41s-3.22,2.15-3.91,6.22l-17.98,155.88c-1.15,8.13-2.99,17.45-9.43,18.89-3.45.72-3.46.72-5.3.72-2.3,0-3.68.48-3.68,1.67,0,2.15,1.84,2.63,4.14,2.63,7.36,0,16.79-.72,21.16-.72,4.14,0,12.32.72,21.98.72,3.45,0,5.52-.48,5.52-2.63,0-1.2-1.61-1.67-3.45-1.67-2.3,0-3.36-.24-7.5-1.2-3.91-.96-6.9-3.11-6.9-7.65,0-3.83.23-6.93.69-11.24l8.64-108.15h.92c8.05,17.93,54.43,110.48,59.94,121.47,3.68,7.17,6.88,11.78,8.95,11.78s3.22-2.15,8.51-13.39l59.69-120.52h.92l10.89,116.22c.92,6.69.23,10.8-1.15,11.28-1.61.72-2.79-.02-2.9,2.04-.09,1.78,1.75,2.74,7.04,3.22,9.2.72,36.65.43,42.4.43,3.22,0,5.98-.72,5.98-2.63,0-1.43-1.61-1.67-3.68-1.67ZM2003.16,440.36c0,53.96-21.82,95.07-44.88,119.48-18.94,20.13-61.77,50.53-137.95,50.53-14.82,0-31.71-1.28-47.35-2.57-15.65-1.28-30.06-2.57-40.35-2.57-4.53,0-5.69,0-15.57.43-9.47,0-16.21.86-24.45.86-5.35,0-8.24-1.28-8.24-4.28,0-2.88,3.45-3.25,5.64-3.36,2.82-.14,5.63-.49,8.4-1.03,2.12-.41,4.42-.76,6.34-1.81,2.89-1.57,4.65-4.47,5.81-7.45,1.84-4.74,2.62-10.01,3.2-15.04,2.06-17.99,2.06-51.82,2.06-91.21v-75.37c0-65.09,0-77.08-.82-90.78-.82-14.56-.29-21.41-13.88-24.41-3.29-.86-10.29-1.28-16.06-1.28-4.53,0-7-.86-7-3.85s2.88-3.85,9.06-3.85c21.82,0,36.04,1.28,47.57,1.28,12.77,0,38.71-1.28,63.41-1.28,51.47,0,120.24,0,165.12,48.82,20.59,22.27,39.94,57.81,39.94,108.77ZM1964.93,454.51c0-54.39-24.64-93.76-42.34-111.32-37.88-37.68-96.06-43.7-128.18-43.7-8.24,0-32.06.04-35.55,1.3-6.16,2.21-5.82,8.95-5.82,13.66-.41,14.56,0,51.82,0,85.65v53.96c0,45.39.41,78.37.82,86.5.41,10.71.78,32.54,4.08,37.26,5.35,8.14,27.34,16.94,59.87,16.94,42,0,79.21-8.41,103.91-30.68,26.35-23.55,43.22-65.46,43.22-109.57ZM2171.8,518.28c-2.09,0-4.87-.24-8.82-1.45-6.03-1.93-9.51-4.82-13.45-10.13-5.8-7.72-44.51-71.41-51.93-83.23l39.17-58.62c6.96-10.61,11.6-17.37,16.93-18.82,3.25-.96,6.03-1.45,8.35-1.45s3.71-.72,3.71-2.17-1.62-2.17-4.17-2.17c-8.58,0-18.09.72-22.73.72s-10.3-.72-19.35-.72c-3.25,0-4.87.72-4.87,2.17,0,1.69,1.39,2.17,2.78,2.17,1.86,0,5.1,0,7.42.72s3.94,2.65,3.94,4.34c0,1.93-.7,5.79-2.55,9.17-3.48,6.75-28.93,43.37-35.65,53.99-9.05-16.4-22.83-37.1-32.81-56.4-1.39-2.65-2.32-5.55-2.32-7s.7-3.14,2.78-3.86c1.86-.72,4.87-.96,6.26-.96,2.09,0,3.48-.48,3.48-2.17s-1.39-2.17-4.64-2.17c-8.58,0-17.97.72-21.22.72-10.9,0-26.17-.72-31.74-.72-3.02,0-4.64.48-4.64,1.93,0,1.69.93,2.41,2.32,2.41,2.32,0,6.03.48,9.74,1.69,8.12,2.65,12.87,7.49,18.44,17.14l40.42,64.91-46.26,71.26c-7.89,11.58-13.56,15.55-20.29,17.48-3.48.96-4.96,1.21-6.58,1.21-1.86,0-3.25.72-3.25,2.17s1.16,2.17,3.48,2.17h3.94c3.71,0,13.08-.72,17.48-.72,5.8,0,20.41.72,21.8.72h2.68c3.02,0,4.64-.48,4.64-2.17,0-1.45-1.39-2.17-2.78-2.17-1.86,0-2.45-.24-3.84-.48-2.09-.48-4.18-1.93-4.41-4.1-.23-2.65.93-6.27,3.25-10.13l37.25-62.56c10.67,18.09,28.62,46.88,41.38,70.52,1.62,3.14.7,5.31-.46,5.55-2.09.48-3.25,1.21-3.25,2.65,0,1.69,1.86,2.17,7.89,2.41,17.86.48,28.54.48,34.1.48h6.96c2.55,0,4.41-.72,4.41-2.41,0-1.45-1.39-1.93-3.02-1.93ZM450.23,516.43c-3.28,0-8.09-.45-11.15-.91-6.56-.91-8.09-5-8.74-11.14-.87-9.77-.87-66.88-.87-88.92v-40c0-34.55,0-40.91.44-48.18.44-7.95,2.19-11.82,8.09-12.96,2.62-.45,4.37-.68,6.56-.68s3.5-.45,3.5-2.27c0-1.36-1.75-1.82-4.59-1.82-8.3,0-21.2.68-26.66.68-6.34,0-20.11-.68-28.41-.68-3.5,0-5.24.45-5.24,1.82,0,1.82,1.31,2.27,3.5,2.27,2.62,0,5.46.23,7.87.91,4.81,1.14,6.99,5,7.43,12.73.44,7.27.44,13.64.44,48.18v40c0,22.05,0,79.15-1.09,88.7-.66,6.59-1.97,10.45-6.34,11.36-1.97.45-4.59.91-7.87.91-2.62,0-3.5.68-3.5,1.82,0,1.59,1.53,2.27,4.37,2.27,8.74,0,22.51-.68,27.54-.68,5.9,0,19.67.68,34.09.68,2.4,0,4.15-.68,4.15-2.27,0-1.14-1.09-1.82-3.5-1.82ZM416.21,286.26c16.18,0,29.31-13.12,29.31-29.31s-13.12-29.31-29.31-29.31-29.31,13.12-29.31,29.31,13.12,29.31,29.31,29.31Z"/>
</svg>