<?xml version="1.0" encoding="UTF-8"?>
<svg id="Layer_1" data-name="Layer 1" xmlns="http://www.w3.org/2000/svg" viewBox="0 0 678.41 122.09">
  <defs>
    <style>
      .cls-1 {
        fill: #fff;
      }

      .cls-2 {
        fill: #91c748;
      }

      .cls-3 {
        fill: #306833;
      }

      .cls-4 {
        fill: #1a988c;
      }

      .cls-5 {
        fill: #306532;
      }

      .cls-6 {
        fill: #90c73f;
      }

      .cls-7 {
        fill: #abbd3d;
      }

      .cls-8 {
        fill: #11274a;
      }

      .cls-9 {
        fill: #d5df3e;
      }

      .cls-10 {
        fill: #8ec743;
      }

      .cls-11 {
        fill: #a7b540;
      }

      .cls-12 {
        fill: #a9b748;
      }

      .cls-13 {
        fill: #679e41;
      }
    </style>
  </defs>
  <rect class="cls-1" width="678.41" height="122.09"/>
  <g>
    <rect class="cls-8" x="467.93" y="6.8" width="106.25" height="106.25"/>
    <g>
      <path class="cls-11" d="M530.08,63.49c-.38,0-.74-.23-.89-.61-.19-.49,.05-1.05,.54-1.24,3.48-1.36,6.05-3.82,7.63-7.33,1.2-2.66,1.36-4.96,1.36-4.98,.03-.53,.49-.93,1.01-.89,.53,.03,.93,.48,.89,1.01,0,.11-.17,2.61-1.5,5.58-1.77,3.96-4.78,6.86-8.71,8.39-.11,.04-.23,.07-.35,.07Z"/>
      <path class="cls-11" d="M536.52,58.28c-.33,0-.61-.26-.63-.6-.02-.35,.24-.65,.6-.68,6.12-.39,8.84-3.5,8.87-3.54,.23-.27,.63-.3,.9-.07,.27,.23,.3,.63,.08,.89-.12,.15-3.07,3.56-9.76,3.99-.01,0-.03,0-.04,0Z"/>
      <path class="cls-11" d="M530.47,54.52c-.08,0-.17-.02-.25-.05-2.01-.85-3.5-2.37-4.3-4.38-.6-1.51-.61-2.77-.61-2.82,0-.35,.29-.64,.64-.64h0c.35,0,.64,.28,.64,.64,0,.02,.01,1.11,.54,2.39,.69,1.69,1.9,2.91,3.6,3.63,.32,.14,.47,.51,.34,.83-.1,.24-.34,.39-.59,.39Zm-3.89-7.25h0Z"/>
      <path class="cls-3" d="M516.11,58.77c-.2,0-.41-.1-.53-.28-.2-.29-.12-.69,.17-.88,1.61-1.08,2.72-2.52,3.29-4.27,.44-1.32,.39-2.34,.39-2.35-.02-.35,.25-.65,.6-.67,.35-.02,.65,.25,.67,.6,.01,.19,.21,4.74-4.25,7.74-.11,.07-.23,.11-.36,.11Z"/>
      <path class="cls-3" d="M517.19,65.79c-.15,0-.31-.04-.45-.11-4.56-2.45-7.31-6.12-8.81-8.77-1.63-2.87-2.18-5.16-2.2-5.25-.12-.51,.2-1.03,.71-1.15,.51-.12,1.03,.2,1.15,.71,0,.03,.53,2.17,2.04,4.81,1.38,2.41,3.89,5.75,8.02,7.97,.46,.25,.64,.83,.39,1.29-.17,.32-.5,.5-.84,.5Z"/>
      <path class="cls-3" d="M510.96,60.52c-2.88,0-5.84-1.14-8.55-3.31-2.08-1.66-3.28-3.31-3.33-3.38-.21-.29-.14-.68,.14-.89,.29-.21,.68-.14,.89,.14h0s1.17,1.6,3.12,3.15c1.77,1.4,4.57,3.07,7.9,3.01,.35,0,.64,.27,.65,.63,0,.35-.27,.64-.63,.65-.06,0-.13,0-.19,0Z"/>
      <path class="cls-3" d="M529.4,83.19c-.16,.31-.34,.6-.54,.88h-11.08c-.2-.28-.38-.57-.54-.88h12.16Z"/>
      <path class="cls-3" d="M530.17,80.51c-.03,.31-.07,.6-.13,.88h-13.45c-.06-.28-.1-.57-.13-.88h13.71Z"/>
      <path class="cls-3" d="M530.18,95.68h-13.72c.05-.3,.11-.59,.19-.88h13.35c.08,.28,.14,.57,.19,.88Z"/>
      <path class="cls-3" d="M529.26,93h-11.88c.16-.3,.35-.59,.54-.88h10.8c.2,.28,.38,.57,.54,.88Z"/>
      <path class="cls-3" d="M529.71,66.52c-.17,.3-.35,.59-.54,.88h-11.7c-.19-.28-.37-.58-.54-.88h12.78Z"/>
      <path class="cls-3" d="M530.77,63.84s0,.04-.01,.06c-.07,.28-.15,.55-.24,.82h-14.39c-.09-.27-.17-.54-.24-.82,0-.02,0-.04-.01-.06h14.9Z"/>
      <path class="cls-3" d="M530.13,78.71h-13.63c.04-.3,.11-.59,.19-.88h13.24c.08,.28,.15,.57,.19,.88Z"/>
      <path class="cls-3" d="M529.13,76.03h-11.62c.19-.3,.4-.6,.62-.88h10.38c.22,.28,.43,.57,.62,.88Z"/>
      <path class="cls-13" d="M531.1,69.29c-.07-.05-.17,0-.17,.08,0,.25-.03,.75-.11,1.52-.06,.61-.18,1.47-.07,2.02,.22,1.17,1.17,3.29,3.6,4.15,0,0,1.18-1.98,.53-4.66-.48-1.97-2.12-2.93-2.94-3.3-.1-.05-.19,.08-.12,.16,.36,.42,.91,1.22,1.06,2.36s.17,2.53,.89,3.77c0,0-1.06-.93-1.19-2.48-.18-2.18-.77-3.07-1.48-3.63Z"/>
      <path class="cls-4" d="M544.27,50.9c-.03,.07,.03,.14,.1,.12,.2-.05,.6-.14,1.24-.25,.5-.09,1.21-.19,1.63-.4,.88-.45,2.34-1.73,2.45-3.96,0,0-1.86-.54-3.84,.61-1.46,.85-1.83,2.45-1.93,3.21-.01,.1,.11,.15,.16,.06,.25-.4,.75-1.04,1.63-1.42s1.97-.71,2.79-1.6c0,0-.49,1.1-1.7,1.56-1.7,.64-2.26,1.34-2.54,2.06Z"/>
      <path class="cls-12" d="M539.96,46.36c.02,.06,.1,.07,.14,.02,.11-.16,.34-.48,.72-.96,.3-.38,.74-.9,.91-1.3,.36-.87,.65-2.66-.56-4.26,0,0-1.61,.81-2.34,2.85-.53,1.5,.12,2.83,.5,3.41,.05,.07,.16,.03,.15-.06-.06-.43-.07-1.19,.32-2s.97-1.74,1.04-2.86c0,0,.29,1.06-.29,2.14-.82,1.51-.81,2.35-.59,3.02Z"/>
      <path class="cls-12" d="M523.34,39.44c.05,.06,.15,.03,.17-.04,.04-.21,.14-.62,.33-1.25,.15-.5,.38-1.19,.37-1.66-.03-1.01-.59-2.93-2.7-4.05,0,0-1.38,1.44-1.19,3.78,.14,1.72,1.52,2.79,2.22,3.23,.09,.05,.19-.03,.14-.12-.27-.41-.66-1.16-.62-2.13s.23-2.12-.25-3.28c0,0,.84,.95,.72,2.26-.17,1.84,.25,2.67,.82,3.26Z"/>
      <path class="cls-4" d="M518.31,43.69s.13,.03,.14-.03c.04-.18,.12-.52,.28-1.06,.13-.42,.33-1.01,.31-1.41-.03-.86-.5-2.49-2.29-3.44,0,0-1.18,1.23-1.01,3.21,.12,1.46,1.29,2.37,1.88,2.74,.07,.05,.16-.03,.12-.1-.23-.35-.56-.99-.53-1.81s.19-1.8-.21-2.78c0,0,.71,.81,.61,1.92-.14,1.56,.21,2.27,.7,2.77Z"/>
      <path class="cls-7" d="M512.81,42.32c.05,.04,.13,.01,.14-.05,.02-.18,.06-.53,.17-1.08,.08-.43,.22-1.04,.17-1.44-.11-.85-.75-2.42-2.64-3.19,0,0-1.04,1.34-.67,3.3,.27,1.44,1.53,2.22,2.15,2.53,.08,.04,.16-.04,.11-.11-.27-.32-.66-.93-.71-1.75s0-1.81-.5-2.75c0,0,.79,.73,.81,1.85,.02,1.57,.44,2.24,.98,2.68Z"/>
      <path class="cls-9" d="M509.05,46.82s.13,.01,.13-.06c.02-.2,.06-.6,.15-1.22,.08-.49,.2-1.17,.15-1.62-.12-.95-.75-2.69-2.58-3.49,0,0-.99,1.54-.62,3.72,.28,1.6,1.5,2.45,2.11,2.77,.08,.04,.15-.05,.1-.13-.26-.35-.64-1.02-.7-1.94s-.01-2.03-.51-3.06c0,0,.77,.79,.8,2.04,.03,1.76,.45,2.49,.97,2.97Z"/>
      <path class="cls-7" d="M501.54,49.87c.07-.02,.09-.11,.03-.15-.16-.12-.48-.38-.96-.8-.37-.33-.89-.82-1.31-1.01-.89-.41-2.76-.77-4.52,.48,0,0,.74,1.74,2.84,2.58,1.54,.61,2.99-.05,3.63-.44,.08-.05,.04-.17-.05-.16-.46,.05-1.25,.04-2.08-.4s-1.76-1.09-2.94-1.19c0,0,1.14-.28,2.23,.37,1.53,.92,2.41,.93,3.13,.72Z"/>
      <path class="cls-7" d="M501.39,58.82s.02-.11-.04-.12c-.19-.03-.56-.11-1.13-.25-.45-.11-1.08-.29-1.5-.28-.9,.02-2.58,.41-3.48,1.96,0,0,1.36,1.03,3.43,.9,1.53-.09,2.42-1.1,2.77-1.61,.04-.06-.04-.14-.11-.1-.35,.2-1.01,.48-1.87,.44s-1.91-.18-2.91,.17c0,0,.8-.61,1.98-.52,1.65,.13,2.37-.17,2.87-.58Z"/>
      <path class="cls-13" d="M505.27,61.87s.01-.12-.06-.12c-.2-.01-.59-.05-1.2-.14-.48-.07-1.16-.18-1.6-.13-.94,.12-2.64,.72-3.41,2.43,0,0,1.53,.92,3.67,.55,1.58-.27,2.4-1.41,2.71-1.98,.04-.07-.06-.14-.13-.09-.34,.25-1,.61-1.9,.67s-2.01,.03-3.02,.5c0,0,.77-.73,2.01-.76,1.73-.04,2.45-.44,2.92-.93Z"/>
      <path class="cls-4" d="M506.73,63.96c.02-.08-.06-.15-.14-.11-.23,.09-.7,.27-1.44,.51-.58,.19-1.42,.43-1.88,.74-.99,.66-2.59,2.31-2.48,4.76,0,0,2.26,.24,4.48-1.38,1.64-1.19,1.91-3,1.94-3.85,0-.11-.15-.14-.2-.04-.25,.48-.78,1.27-1.77,1.85s-2.26,1.14-3.13,2.26c0,0,.46-1.29,1.84-2.01,1.94-1.01,2.53-1.88,2.78-2.72Z"/>
      <path class="cls-7" d="M508.59,69.29c-.02-.07-.11-.1-.16-.04-.14,.16-.41,.46-.86,.92-.36,.36-.88,.85-1.09,1.26-.45,.88-.87,2.78,.4,4.71,0,0,1.85-.61,2.78-2.7,.68-1.54,.01-3.09-.37-3.78-.05-.09-.18-.06-.17,.04,.04,.48,.01,1.3-.47,2.11s-1.18,1.72-1.32,2.93c0,0-.27-1.2,.44-2.27,1-1.5,1.04-2.41,.83-3.17Z"/>
      <path class="cls-13" d="M514.67,67.81c-.02-.06-.1-.07-.13-.02-.1,.16-.32,.46-.67,.91-.28,.36-.69,.85-.85,1.24-.33,.82-.59,2.52,.55,4.01,0,0,1.51-.78,2.18-2.71,.49-1.42-.13-2.67-.49-3.21-.04-.07-.15-.03-.14,.06,.06,.41,.07,1.12-.29,1.89s-.9,1.65-.96,2.71c0,0-.28-1,.26-2.02,.76-1.43,.75-2.22,.54-2.85Z"/>
      <path class="cls-13" d="M506.61,48.14c.08,.02,.14-.05,.11-.13-.09-.23-.25-.68-.47-1.4-.17-.57-.4-1.38-.69-1.83-.63-.97-2.23-2.53-4.63-2.44,0,0-.27,2.19,1.28,4.36,1.14,1.6,2.91,1.87,3.74,1.9,.1,0,.14-.14,.04-.19-.47-.25-1.23-.77-1.78-1.73s-1.08-2.2-2.16-3.06c0,0,1.26,.45,1.94,1.8,.96,1.89,1.8,2.47,2.62,2.72Z"/>
      <path class="cls-9" d="M546.59,43.06c0,.06,.07,.1,.11,.07,.11-.08,.34-.23,.72-.44,.3-.17,.74-.39,.94-.63,.43-.52,.94-1.74,.2-3.29,0,0-1.36,.06-2.22,1.25-.63,.87-.37,2.05-.18,2.61,.02,.07,.12,.08,.12,.01,.03-.34,.14-.89,.57-1.34s1.03-.91,1.25-1.7c0,0,.07,.86-.56,1.44-.87,.8-1,1.42-.94,2Z"/>
      <path class="cls-5" d="M542.82,37.53s.06,.08,.09,.06c.09-.06,.27-.18,.58-.34,.24-.13,.59-.3,.75-.5,.33-.42,.72-1.42,.08-2.72,0,0-1.11,.02-1.78,.98-.5,.71-.25,1.69-.08,2.16,.02,.06,.1,.07,.1,.02,.01-.28,.09-.74,.43-1.09s.81-.73,.97-1.37c0,0,.08,.71-.42,1.18-.69,.64-.78,1.15-.72,1.63Z"/>
      <path class="cls-13" d="M535.48,35.6s.06,.09,.09,.07c.1-.06,.3-.18,.63-.34,.26-.13,.64-.3,.82-.5,.37-.43,.82-1.48,.2-2.88,0,0-1.18-.03-1.93,.96-.56,.73-.33,1.79-.18,2.29,.02,.06,.1,.08,.11,.02,.03-.3,.13-.78,.51-1.14s.9-.74,1.09-1.42c0,0,.05,.76-.5,1.23-.76,.65-.88,1.19-.83,1.7Z"/>
      <path class="cls-12" d="M527.52,33.2s.09,.06,.11,.03c.07-.1,.22-.28,.49-.57,.21-.23,.54-.56,.65-.83,.24-.61,.38-1.96-.8-3.26,0,0-1.26,.6-1.62,2.06-.25,1,.36,1.93,.68,2.35,.04,.05,.12,.04,.11-.02-.08-.29-.15-.79,.07-1.32s.63-1.18,.59-2.03c0,0,.33,.81-.06,1.57-.52,.99-.44,1.55-.22,2.02Z"/>
      <path class="cls-9" d="M521.12,24.07s-.86,.96-.65,2.28c.15,.9,1,1.43,1.43,1.64,.05,.03,.12-.02,.08-.06-.17-.2-.42-.58-.41-1.1,0-.51,.12-1.19-.22-1.86,0,0,.58,.53,.51,1.29-.09,1,.18,1.42,.54,1.71,.03,.03,.09,.02,.1-.02,.03-.11,.09-.31,.22-.64,.1-.27,.26-.65,.26-.92,0-.58-.38-1.73-1.86-2.34Z"/>
      <path class="cls-5" d="M514.83,29.48s-.7,1.27-.13,2.67c.39,.95,1.46,1.31,1.98,1.44,.07,.02,.12-.05,.08-.08-.24-.18-.61-.53-.73-1.1-.12-.56-.18-1.34-.71-1.98,0,0,.77,.44,.89,1.29,.16,1.11,.56,1.51,1.02,1.74,.04,.02,.11,0,.11-.05,0-.12,.02-.37,.07-.76,.04-.32,.12-.78,.05-1.07-.16-.64-.85-1.8-2.63-2.09Z"/>
      <path class="cls-4" d="M508.52,29.94s-.61,1.11-.12,2.33c.34,.83,1.27,1.15,1.73,1.26,.06,.01,.11-.04,.07-.07-.21-.16-.53-.47-.63-.96-.1-.49-.15-1.17-.62-1.73,0,0,.67,.38,.77,1.13,.14,.97,.49,1.32,.89,1.52,.04,.02,.09,0,.1-.04,0-.11,.02-.32,.06-.66,.04-.28,.11-.68,.05-.94-.14-.56-.75-1.57-2.29-1.82Z"/>
      <path class="cls-5" d="M494.58,40.76s-.19,1.44,.8,2.45c.68,.69,1.76,.56,2.27,.45,.06-.01,.09-.1,.04-.11-.28-.06-.73-.22-1.03-.68-.3-.46-.62-1.13-1.33-1.48,0,0,.84,.07,1.24,.78,.53,.94,1.02,1.12,1.52,1.13,.05,0,.09-.05,.08-.09-.04-.11-.11-.34-.2-.72-.07-.3-.16-.76-.32-.99-.36-.51-1.39-1.26-3.07-.76Z"/>
      <path class="cls-4" d="M489.33,54.38s1.16,1.07,2.68,.82c1.03-.17,1.59-1.21,1.81-1.73,.03-.07-.03-.14-.07-.1-.22,.21-.65,.51-1.24,.49-.59-.02-1.39-.15-2.14,.25,0,0,.58-.7,1.46-.61,1.16,.12,1.63-.2,1.95-.64,.03-.04,.01-.12-.03-.13-.12-.04-.37-.11-.76-.27-.31-.13-.77-.33-1.08-.33-.67,0-1.98,.45-2.58,2.25Z"/>
      <path class="cls-9" d="M488.63,61.06s1.04,.87,2.33,.59c.88-.19,1.32-1.1,1.49-1.56,.02-.06-.03-.12-.07-.08-.18,.19-.54,.46-1.05,.47-.51,.01-1.2-.07-1.83,.3,0,0,.47-.62,1.23-.58,1,.05,1.39-.24,1.65-.63,.02-.04,0-.1-.03-.11-.11-.03-.32-.08-.66-.2-.28-.1-.68-.25-.94-.24-.58,.03-1.68,.46-2.13,2.04Z"/>
      <path class="cls-5" d="M492.13,69.96s1.22,.59,2.41,0c.81-.4,1.01-1.39,1.06-1.88,0-.06-.06-.11-.08-.07-.13,.23-.41,.58-.9,.71-.49,.13-1.18,.22-1.7,.74,0,0,.3-.72,1.05-.87,.98-.19,1.29-.57,1.44-1.01,.01-.04-.02-.1-.06-.1-.11,0-.33,0-.69-.03-.29-.03-.72-.08-.97,0-.55,.17-1.52,.86-1.57,2.49Z"/>
      <path class="cls-13" d="M499.29,76.42s1.53,.1,2.55-1.03c.7-.77,.52-1.92,.38-2.46-.02-.07-.11-.09-.12-.03-.05,.3-.21,.79-.67,1.15-.47,.36-1.16,.74-1.51,1.52,0,0,.04-.9,.77-1.38,.96-.63,1.14-1.17,1.13-1.7,0-.05-.06-.1-.1-.08-.12,.05-.35,.14-.75,.26-.32,.1-.79,.22-1.03,.42-.52,.42-1.27,1.57-.68,3.34Z"/>
      <path class="cls-4" d="M503.05,83.58s1.43-.38,1.95-1.62c.36-.85-.23-1.74-.55-2.14-.04-.05-.13-.05-.12,0,.06,.26,.1,.72-.19,1.15-.3,.43-.79,.96-.82,1.71,0,0-.29-.75,.2-1.37,.65-.81,.62-1.31,.41-1.74-.02-.04-.09-.06-.12-.04-.09,.08-.27,.22-.59,.44-.25,.18-.64,.42-.78,.65-.32,.5-.58,1.68,.6,2.96Z"/>
      <path class="cls-9" d="M511.32,82.21s1.2-.81,1.35-2.36c.1-1.06-.67-1.91-1.07-2.29-.05-.05-.13-.02-.11,.04,.13,.28,.28,.79,.13,1.36-.16,.57-.46,1.31-.29,2.16,0,0-.47-.78-.18-1.61,.38-1.09,.21-1.65-.09-2.09-.03-.04-.1-.05-.12-.01-.06,.11-.19,.32-.42,.66-.18,.27-.47,.65-.54,.95-.16,.66-.08,2.06,1.34,3.2Z"/>
      <path class="cls-12" d="M487.07,45.18s.38,1.48,1.6,1.87c.83,.27,1.75-.48,2.08-.85,.19-.21,.08-.29,.03-.27-.24,.09-.67,.17-1.1-.08-.44-.25-1.03-.53-1.74-.48,0,0,.69-.36,1.31,.06,.82,.56,1.29,.48,1.69,.23,.04-.02,.05-.09,.02-.12-.08-.08-.23-.24-.47-.53-.19-.23-.46-.59-.69-.71-.51-.27-1.64-.41-2.74,.88Z"/>
      <path class="cls-12" d="M501.08,33.76s-.69,1.13-.25,2.31c.3,.8,1.24,1.06,1.71,1.15,.06,.01,.11-.05,.07-.08-.21-.14-.52-.43-.6-.91-.08-.48-.1-1.15-.55-1.68,0,0,.67,.34,.73,1.07,.09,.95,.43,1.28,.83,1.46,.04,.02,.1-.01,.1-.05,0-.11,.04-.32,.1-.66,.05-.28,.15-.68,.1-.93-.11-.54-.68-1.52-2.26-1.68Z"/>
      <path class="cls-4" d="M541.39,31.79s.05,.06,.08,.04c.07-.05,.22-.13,.48-.25,.2-.1,.51-.23,.64-.38,.3-.33,.66-1.16,.05-2.27,0,0-1.06,.07-1.62,.93-.39,.59-.11,1.34,.05,1.68,.02,.04,.08,.05,.08,0,0-.2,.04-.55,.32-.83s.7-.61,.84-1.16c0,0,.08,.6-.35,.99-.58,.52-.63,.89-.56,1.24Z"/>
      <path class="cls-6" d="M538.94,79.07c-.26-1.12-1.4-1.65-1.97-1.86-.07-.03-.14,.05-.09,.1,.25,.24,.61,.69,.67,1.33,.06,.62,.03,1.4,.49,2.08,0,0-.7-.5-.74-1.36-.05-1.22-.44-1.72-.93-2.04-.05-.03-.12,0-.12,.05-.01,.14-.04,.43-.12,.87-.06,.34-.16,.82-.1,1.13,.12,.64,.72,1.78,2.35,2.25,0,0,.9-1.06,.55-2.55Z"/>
      <path class="cls-4" d="M544.72,80.1c-.48-.89-1.63-1.09-2.18-1.13-.07,0-.12,.07-.06,.1,.27,.15,.7,.45,.9,.98,.19,.51,.33,1.18,.9,1.65,0,0-.75-.27-.97-.98-.31-1.02-.78-1.36-1.29-1.52-.05-.01-.11,.02-.1,.07,.02,.13,.06,.37,.08,.76,.02,.3,.04,.74,.15,.98,.25,.52,1.04,1.35,2.62,1.38,0,0,.58-1.11-.06-2.29Z"/>
      <path class="cls-5" d="M547.07,71.96c-.82-.74-2.09-.53-2.68-.36-.07,.02-.09,.12-.03,.13,.34,.05,.89,.21,1.29,.68,.39,.46,.78,1.1,1.54,1.38,0,0-.87,0-1.37-.66-.71-.95-1.31-1.12-1.9-1.1-.06,0-.1,.06-.08,.11,.07,.12,.2,.37,.37,.76,.13,.31,.31,.75,.52,.96,.45,.44,1.58,1.02,3.23,.46,0,0,.19-1.36-.9-2.35Z"/>
      <path class="cls-13" d="M552.1,67.84c-.83-.58-1.94-.25-2.46-.04-.07,.03-.07,.12,0,.12,.31,0,.83,.09,1.24,.48,.4,.37,.83,.91,1.54,1.08,0,0-.79,.09-1.31-.45-.74-.78-1.3-.87-1.83-.79-.05,0-.08,.07-.06,.1,.07,.1,.22,.31,.42,.65,.16,.26,.36,.64,.58,.81,.46,.35,1.53,.75,2.97,.06,0,0,.02-1.25-1.07-2.03Z"/>
      <path class="cls-5" d="M555.64,59.71c-.79-.55-1.85-.24-2.34-.03-.06,.03-.07,.11,0,.11,.3,0,.79,.08,1.18,.45,.38,.35,.79,.87,1.47,1.03,0,0-.75,.09-1.25-.43-.7-.74-1.24-.83-1.74-.75-.05,0-.08,.07-.06,.1,.07,.1,.21,.29,.4,.61,.15,.25,.34,.61,.55,.77,.44,.33,1.46,.71,2.82,.06,0,0,.02-1.19-1.02-1.93Z"/>
      <path class="cls-12" d="M555.33,49.41c-1.14,.03-1.92,1.09-2.25,1.63-.04,.07,.01,.15,.07,.11,.29-.2,.81-.48,1.45-.4,.61,.07,1.36,.27,2.12-.06,0,0-.65,.62-1.49,.47-1.19-.21-1.77,.09-2.19,.52-.04,.04-.03,.12,.02,.13,.14,.04,.4,.13,.81,.3,.32,.13,.76,.34,1.07,.34,.65,0,1.89-.36,2.73-1.94,0,0-.82-1.15-2.34-1.11Z"/>
      <path class="cls-12" d="M554.5,42.57c-.73,.49-.74,1.53-.7,2.07,0,.07,.09,.11,.11,.06,.1-.28,.32-.71,.8-.94,.47-.22,1.12-.42,1.46-.98,0,0-.07,.72-.76,.99-.97,.38-1.22,.86-1.28,1.4,0,.05,.05,.11,.09,.1,.13-.03,.38-.08,.78-.12,.33-.04,.8-.07,1.04-.22,.51-.31,1.2-1.2,.7-2.68,0,0-1.26-.33-2.23,.32Z"/>
      <path class="cls-12" d="M535.15,69.59c-.08,0-.14,.07-.11,.13,.1,.19,.27,.57,.52,1.17,.19,.48,.44,1.16,.75,1.52,.66,.76,2.29,1.9,4.64,1.45,0,0,.18-1.99-1.43-3.67-1.19-1.24-2.93-1.21-3.75-1.11-.1,.01-.13,.15-.03,.18,.47,.15,1.24,.49,1.82,1.27s1.15,1.79,2.25,2.38c0,0-1.25-.21-1.98-1.3-1.02-1.53-1.86-1.92-2.68-2.01Z"/>
      <path class="cls-5" d="M531.05,44.11c.03-1.18,.45-4.86,4.71-4.77,0,0,.31,4.2-4.18,5.3-.07,.02-.12-.05-.1-.11,.18-.5,.93-2.17,3.21-3.58,0,0-2.04,.43-3.48,3.2-.04,.08-.16,.05-.16-.04Z"/>
      <path class="cls-2" d="M527.13,42.81c-.45-1.23-1.65-5.6,2.95-7.93,0,0,3.08,4.78-2.05,8.17-.06,.04-.13,0-.14-.07-.01-.51,.09-2.37,1.84-6.08,0,0-1.97,1.86-2.44,5.88-.01,.09-.14,.11-.17,.02Z"/>
      <path class="cls-12" d="M541.53,62s3.93-.53,5.11,3.88c0,0-4.12,1.09-5.46-3.56,0,0,2.13,1.27,4.12,2.91,0,0-1.48-2.31-3.77-3.22Z"/>
      <path class="cls-13" d="M543.69,58.6s3.91-.99,5.61,3.33c0,0-4.04,1.58-5.93-2.97,0,0,2.3,1.04,4.5,2.46,0,0-1.76-2.16-4.18-2.82Z"/>
      <path class="cls-4" d="M537.79,63.72s3.72,.22,4.01,4.49c0,0-3.99,.27-4.39-4.26,0,0,1.73,1.55,3.28,3.42,0,0-.94-2.39-2.89-3.64Z"/>
      <path class="cls-10" d="M548.07,54.79s2.89-2.68,6.18,.06c0,0-2.56,3.07-6.12,.23,0,0,2.32-.18,4.74,0,0,0-2.55-.82-4.8-.28Z"/>
      <g>
        <path class="cls-8" d="M105.96,18.05v51.64c0,.46-.18,.86-.54,1.2-.36,.33-.78,.5-1.24,.5h-7.13c-.46,0-.88-.17-1.24-.5-.36-.33-.54-.73-.54-1.2V18.05c0-.46,.18-.86,.54-1.2,.36-.33,.77-.5,1.24-.5h7.13c.46,0,.88,.17,1.24,.5,.36,.33,.54,.73,.54,1.2Z"/>
        <path class="cls-8" d="M144.48,40.96v28.73c0,.46-.18,.86-.54,1.2-.36,.33-.78,.5-1.24,.5h-7.13c-.46,0-.88-.17-1.24-.5-.36-.33-.54-.73-.54-1.2v-26.25c0-1.3-.46-2.42-1.39-3.35-.93-.93-2.01-1.39-3.26-1.39-1.36,0-2.49,.45-3.37,1.35-.88,.9-1.33,2.03-1.33,3.39v26.25c0,.46-.18,.86-.54,1.2-.36,.33-.78,.5-1.24,.5h-7.13c-.46,0-.88-.17-1.24-.5-.36-.33-.54-.73-.54-1.2V32.13c0-.46,.18-.86,.54-1.2,.36-.33,.77-.5,1.24-.5h6.52c.46,0,.88,.16,1.24,.48,.36,.32,.54,.72,.54,1.22v1.52c2.67-2.55,5.75-3.83,9.26-3.83,3.07,0,5.74,1.1,8,3.3,2.26,2.2,3.39,4.81,3.39,7.82Z"/>
        <path class="cls-8" d="M182.55,40.96v28.73c0,.46-.18,.86-.54,1.2-.36,.33-.78,.5-1.24,.5h-7.13c-.46,0-.88-.17-1.24-.5-.36-.33-.54-.73-.54-1.2v-26.25c0-1.3-.46-2.42-1.39-3.35-.93-.93-2.01-1.39-3.26-1.39-1.36,0-2.49,.45-3.37,1.35-.88,.9-1.33,2.03-1.33,3.39v26.25c0,.46-.18,.86-.54,1.2-.36,.33-.78,.5-1.24,.5h-7.13c-.46,0-.88-.17-1.24-.5-.36-.33-.54-.73-.54-1.2V32.13c0-.46,.18-.86,.54-1.2,.36-.33,.77-.5,1.24-.5h6.52c.46,0,.88,.16,1.24,.48,.36,.32,.54,.72,.54,1.22v1.52c2.67-2.55,5.75-3.83,9.26-3.83,3.07,0,5.74,1.1,8,3.3,2.26,2.2,3.39,4.81,3.39,7.82Z"/>
        <path class="cls-8" d="M193.79,33.96c2.88-2.75,6.52-4.13,10.91-4.13s8.02,1.38,10.89,4.13c2.87,2.75,4.3,6.2,4.3,10.35v13.82c0,4.03-1.49,7.33-4.46,9.91-2.97,2.58-6.56,3.87-10.76,3.87s-7.79-1.29-10.76-3.87c-2.97-2.58-4.46-5.88-4.46-9.91v-13.82c0-4.14,1.44-7.59,4.33-10.35Zm7.69,27.82c.83,.9,1.89,1.35,3.19,1.35s2.37-.45,3.19-1.35c.83-.9,1.24-2,1.24-3.3v-15.13c0-1.3-.41-2.41-1.24-3.3-.83-.9-1.89-1.35-3.19-1.35s-2.37,.45-3.19,1.35c-.83,.9-1.24,2-1.24,3.3v15.13c0,1.3,.41,2.41,1.24,3.3Z"/>
        <path class="cls-8" d="M245.97,71.39h-12.61c-.9-.06-1.49-.71-1.78-1.96l-7.87-37.3c0-1.01,.59-1.58,1.78-1.7h7.13c1.01,.12,1.61,.68,1.78,1.7l5.26,26.95,5.26-26.95c.17-1.01,.77-1.58,1.78-1.7h7.13c1.19,.12,1.78,.68,1.78,1.7l-7.87,37.3c-.29,1.25-.88,1.9-1.78,1.96Z"/>
        <path class="cls-8" d="M278.31,60.61c.35-.9,.85-1.38,1.52-1.43h7.82c.96,.12,1.43,.59,1.43,1.43-.46,3.39-2.09,6.14-4.89,8.24-2.8,2.1-6.12,3.15-9.98,3.15-4.2,0-7.79-1.29-10.76-3.87-2.97-2.58-4.46-5.88-4.46-9.91v-13.91c0-4.14,1.42-7.59,4.26-10.35,2.84-2.75,6.49-4.13,10.95-4.13s8.01,1.38,10.82,4.13c2.81,2.75,4.22,6.2,4.22,10.35v8.13c0,.46-.16,.88-.48,1.24-.32,.36-.72,.54-1.22,.54h-17.87v4.26c0,1.3,.41,2.41,1.24,3.3,.83,.9,1.92,1.35,3.28,1.35,1.01,0,1.91-.25,2.67-.76,.77-.51,1.24-1.09,1.41-1.76Zm-8.61-17.26v2.83h8.87v-2.83c0-1.3-.41-2.41-1.24-3.3-.83-.9-1.89-1.35-3.19-1.35s-2.44,.45-3.24,1.35c-.8,.9-1.2,2-1.2,3.3Z"/>
        <path class="cls-8" d="M311.79,69.78l-4.17-8.52-4.17,8.52c-.46,1.07-1.25,1.61-2.35,1.61h-7.56c-.46,0-.88-.17-1.24-.5-.36-.33-.54-.73-.54-1.2l10.26-18.69-10.26-18.87c0-.46,.18-.86,.54-1.2,.36-.33,.78-.5,1.24-.5h7.56c1.07,0,1.85,.54,2.35,1.61l4.17,8.52,4.17-8.52c.46-1.07,1.23-1.61,2.3-1.61h7.61c.46,0,.88,.16,1.24,.48,.36,.32,.54,.72,.54,1.22l-10.26,18.87,10.26,18.69c0,.46-.18,.86-.54,1.2-.36,.33-.78,.5-1.24,.5h-7.61c-1.07,0-1.84-.54-2.3-1.61Z"/>
        <path class="cls-8" d="M352.69,71.39h-22.78c-.46,0-.88-.17-1.24-.5-.36-.33-.54-.73-.54-1.2V18.05c0-.46,.18-.86,.54-1.2,.36-.33,.77-.5,1.24-.5h7.13c.46,0,.88,.17,1.24,.5,.36,.33,.54,.73,.54,1.2V62.48h13.87c.46,0,.86,.18,1.2,.54,.33,.36,.5,.78,.5,1.24v5.35c0,.46-.17,.88-.5,1.24-.33,.36-.73,.54-1.2,.54Z"/>
        <path class="cls-8" d="M388.46,30.44c.46,0,.88,.16,1.24,.48,.36,.32,.54,.72,.54,1.22v37.64c0,.41-.17,.79-.52,1.15-.35,.36-.77,.54-1.26,.54h-6.48c-.46,0-.88-.18-1.24-.54-.36-.36-.54-.75-.54-1.15v-1.13c-2.55,2.32-5.64,3.46-9.26,3.43-3.16,0-5.85-1.08-8.06-3.24-2.22-2.16-3.33-4.76-3.33-7.8v-20.08c0-3.01,1.13-5.62,3.39-7.82,2.26-2.2,4.93-3.3,8-3.3,3.51,0,6.59,1.28,9.26,3.83v-1.52c0-.46,.18-.86,.54-1.2,.36-.33,.77-.5,1.24-.5h6.48Zm-8.87,28.12v-15.13c0-1.36-.45-2.49-1.35-3.39-.9-.9-2.03-1.35-3.39-1.35-1.25,0-2.31,.46-3.2,1.39-.88,.93-1.33,2.04-1.33,3.35v15.13c0,1.25,.46,2.33,1.37,3.26,.91,.93,1.96,1.39,3.15,1.39,1.36,0,2.49-.46,3.39-1.39,.9-.93,1.35-2.01,1.35-3.26Z"/>
        <path class="cls-8" d="M417.41,29.83c3.16,0,5.85,1.08,8.06,3.24,2.22,2.16,3.33,4.76,3.33,7.8v20.08c0,3.01-1.13,5.62-3.39,7.82-2.26,2.2-4.93,3.3-8,3.3-3.62,0-6.71-1.19-9.26-3.56v1.17c0,.46-.18,.86-.54,1.2-.36,.33-.78,.5-1.24,.5h-6.52c-.46,0-.88-.17-1.24-.5-.36-.33-.54-.73-.54-1.2V18.05c0-.46,.18-.86,.54-1.2,.36-.33,.77-.5,1.24-.5h7.13c.46,0,.88,.17,1.24,.5,.36,.33,.54,.73,.54,1.2v14.95c2.43-2.11,5.32-3.17,8.65-3.17Zm.61,28.65v-15.13c0-1.3-.45-2.42-1.35-3.35-.9-.93-1.97-1.39-3.22-1.39-1.36,0-2.49,.45-3.37,1.35-.88,.9-1.33,2.03-1.33,3.39v15.13c0,1.3,.44,2.42,1.33,3.35,.88,.93,2.01,1.39,3.37,1.39,1.19,0,2.25-.48,3.17-1.43,.93-.96,1.39-2.06,1.39-3.3Z"/>
      </g>
      <g>
        <path class="cls-8" d="M102.74,87.96h4.16c1.39,0,2.54,.43,3.43,1.28,.9,.86,1.25,2.01,1.04,3.47l-.08,.45c-.07,.6-.29,1.2-.65,1.79-.36,.59-.81,1.04-1.36,1.34,.41,.16,.78,.66,1.1,1.48,.32,.82,.43,1.61,.34,2.36l-.03,.19c-.23,1.48-.92,2.69-2.06,3.62-1.15,.93-2.4,1.39-3.76,1.39h-4.56c-.15,0-.27-.06-.38-.17-.11-.11-.15-.25-.13-.39l2.31-16.29c.02-.15,.09-.27,.21-.38,.12-.11,.26-.16,.41-.16Zm2.5,14.58c.45,0,.89-.22,1.31-.65,.43-.43,.68-.98,.78-1.66,.09-.67-.02-1.21-.32-1.62-.31-.41-.68-.61-1.13-.61h-1.72l-.62,4.53h1.7Zm-.08-11.79l-.62,4.42h1.33c.47,0,.91-.18,1.32-.55,.41-.37,.66-.89,.76-1.57l.03-.22c.09-.68-.02-1.2-.32-1.55-.31-.36-.69-.54-1.16-.54h-1.33Z"/>
        <path class="cls-8" d="M112.36,102.03l1.26-9.08c.07-.36,.29-.54,.65-.54h2.25c.15,0,.27,.05,.38,.15,.11,.1,.14,.23,.1,.38l-1.15,8.3c-.05,.41,.04,.76,.3,1.06,.25,.29,.57,.44,.97,.44,.43,0,.8-.14,1.12-.43s.51-.64,.57-1.07l1.15-8.3c.07-.36,.29-.54,.65-.54h2.25c.15,0,.27,.05,.37,.15,.1,.1,.13,.23,.1,.38l-1.65,11.87c-.02,.15-.09,.27-.21,.38-.12,.11-.26,.16-.42,.16h-2.05c-.15,0-.27-.05-.38-.16-.11-.11-.15-.23-.13-.38l.08-.48c-.95,.81-1.98,1.21-3.09,1.21-.97,0-1.77-.35-2.38-1.04-.62-.7-.86-1.52-.74-2.47Z"/>
        <path class="cls-8" d="M129.18,92.94l-1.66,11.87c-.02,.15-.09,.27-.21,.38-.12,.11-.26,.16-.41,.16h-2.25c-.15,0-.27-.05-.38-.16-.11-.11-.15-.23-.13-.38l1.66-11.87c.07-.36,.29-.54,.65-.54h2.25c.15,0,.27,.05,.38,.16,.11,.11,.14,.23,.1,.38Zm.7-4.9l-.37,2.54c-.02,.15-.09,.27-.21,.38-.12,.11-.26,.16-.41,.16h-2.25c-.15,0-.27-.05-.37-.16-.1-.11-.14-.23-.12-.38l.36-2.54c.02-.13,.09-.25,.23-.36,.13-.11,.27-.17,.42-.17h2.25c.15,0,.27,.05,.36,.15,.1,.1,.13,.22,.12,.37Z"/>
        <path class="cls-8" d="M135.66,88.49l-2.31,16.32c-.02,.15-.09,.27-.21,.38-.12,.11-.26,.16-.41,.16h-2.25c-.15,0-.27-.05-.38-.16-.11-.11-.15-.23-.13-.38l2.31-16.32c.02-.15,.09-.27,.21-.38,.12-.11,.26-.16,.41-.16h2.25c.15,0,.27,.05,.38,.16,.11,.11,.15,.23,.13,.38Z"/>
        <path class="cls-8" d="M141.05,92.22c1.05,0,1.92,.33,2.6,1l.67-4.73c.02-.15,.09-.27,.21-.38,.12-.11,.26-.16,.41-.16h2.25c.15,0,.27,.05,.38,.16,.11,.11,.14,.23,.12,.38l-2.29,16.32c-.02,.15-.09,.27-.21,.38-.12,.11-.26,.16-.42,.16h-2.05c-.15,0-.27-.05-.38-.16-.11-.11-.15-.23-.13-.38l.05-.37c-.9,.75-1.93,1.13-3.09,1.13-.97,0-1.77-.35-2.39-1.04-.62-.69-.86-1.52-.7-2.48l.89-6.35c.13-.95,.59-1.77,1.39-2.46,.8-.69,1.69-1.03,2.69-1.03Zm-.78,4.27l-.67,4.78c-.05,.39,.04,.74,.28,1.04,.24,.3,.55,.45,.93,.45,.43,0,.81-.15,1.13-.45,.32-.3,.52-.65,.58-1.04l.67-4.78c.05-.43-.04-.79-.28-1.07s-.58-.43-1.01-.43c-.39,0-.75,.15-1.07,.44-.32,.29-.51,.65-.56,1.06Z"/>
        <path class="cls-8" d="M152.89,92.94l-1.66,11.87c-.02,.15-.09,.27-.21,.38-.12,.11-.26,.16-.41,.16h-2.25c-.15,0-.27-.05-.38-.16-.11-.11-.15-.23-.13-.38l1.66-11.87c.07-.36,.29-.54,.65-.54h2.25c.15,0,.27,.05,.38,.16,.11,.11,.14,.23,.1,.38Zm.7-4.9l-.37,2.54c-.02,.15-.09,.27-.21,.38-.12,.11-.26,.16-.41,.16h-2.25c-.15,0-.27-.05-.37-.16-.1-.11-.14-.23-.12-.38l.36-2.54c.02-.13,.09-.25,.23-.36,.13-.11,.27-.17,.42-.17h2.25c.15,0,.27,.05,.36,.15,.1,.1,.13,.22,.12,.37Z"/>
        <path class="cls-8" d="M164.7,95.73l-1.29,9.08c-.02,.15-.09,.27-.21,.38-.12,.11-.26,.16-.41,.16h-2.25c-.15,0-.27-.05-.38-.16-.11-.11-.15-.23-.13-.38l1.18-8.3c.05-.41-.04-.76-.3-1.06-.25-.29-.58-.44-.97-.44-.43,0-.81,.14-1.13,.43-.32,.28-.51,.64-.56,1.07l-1.18,8.3c-.02,.15-.09,.27-.21,.38-.12,.11-.26,.16-.41,.16h-2.25c-.15,0-.27-.05-.38-.16-.11-.11-.15-.23-.13-.38l1.66-11.87c.07-.36,.29-.54,.65-.54h2.06c.15,0,.27,.05,.38,.15,.11,.1,.13,.23,.09,.38l-.05,.48c.95-.81,1.99-1.21,3.11-1.21,.97,0,1.77,.35,2.38,1.04,.62,.7,.86,1.52,.74,2.47Z"/>
        <path class="cls-8" d="M176.48,92.43c.15,0,.27,.05,.36,.15,.09,.1,.13,.22,.11,.36l-1.83,13.05c-.13,.97-.68,1.82-1.64,2.56-.97,.73-2.01,1.1-3.14,1.1h-.25c-1.07,0-2-.32-2.78-.97-.78-.65-1.13-1.42-1.06-2.32,.07-.36,.29-.54,.65-.54h1.95c.27,0,.44,.15,.52,.45,.16,.54,.56,.81,1.18,.81,.32,0,.62-.13,.91-.38,.28-.25,.46-.58,.54-1l.3-2.23c-.93,.75-1.96,1.13-3.09,1.13-.97,0-1.77-.35-2.39-1.04-.62-.7-.86-1.52-.7-2.47l.76-5.37c.13-.95,.6-1.78,1.41-2.49,.81-.71,1.7-1.06,2.67-1.06,1.09,0,2.01,.41,2.76,1.24l.05-.48c.07-.34,.29-.51,.65-.51h2.06Zm-3.92,7.87l.54-3.82c.05-.43-.04-.78-.28-1.06-.24-.27-.58-.41-1.01-.41-.39,0-.75,.14-1.07,.43-.32,.28-.51,.63-.56,1.04l-.54,3.82c-.05,.39,.04,.74,.28,1.03,.24,.29,.55,.44,.93,.44,.43,0,.81-.15,1.14-.44,.33-.29,.52-.64,.58-1.03Z"/>
        <path class="cls-8" d="M188.78,105.35h-.99c-1.37,0-2.35-.34-2.94-1.01-.59-.67-.76-1.89-.51-3.66l.78-5.56h-1.24c-.15,0-.27-.06-.36-.17-.1-.11-.14-.25-.12-.39l.22-1.58c.07-.38,.28-.56,.62-.56h1.25l.41-3.06c.07-.36,.29-.54,.65-.54h2.25c.15,0,.27,.05,.38,.15,.11,.1,.14,.23,.1,.38l-.43,3.06h1.72c.15,0,.26,.06,.35,.17s.12,.24,.1,.4l-.22,1.61c-.02,.15-.08,.28-.2,.39s-.25,.17-.39,.17h-1.72l-.8,5.59c-.09,.58-.05,1.01,.13,1.31,.18,.29,.63,.46,1.34,.49,.13,0,.24,.06,.34,.17,.1,.11,.13,.25,.12,.39l-.26,1.69c-.02,.15-.08,.28-.2,.39-.11,.11-.25,.17-.39,.17Z"/>
        <path class="cls-8" d="M191.28,104.81l2.31-16.32c.02-.15,.09-.27,.21-.38,.12-.11,.26-.16,.41-.16h2.25c.15,0,.27,.05,.38,.16,.11,.11,.15,.23,.13,.38l-.67,4.75c.9-.7,1.85-1.04,2.87-1.03,.97,0,1.77,.35,2.38,1.04,.62,.69,.86,1.52,.74,2.48l-1.29,9.08c-.02,.15-.09,.27-.21,.38-.12,.11-.26,.16-.41,.16h-2.25c-.15,0-.27-.05-.38-.16-.11-.11-.15-.23-.13-.38l1.18-8.3c.05-.41-.04-.76-.3-1.06-.25-.29-.58-.44-.97-.44-.43,0-.81,.14-1.13,.43-.32,.28-.51,.64-.56,1.07l-1.18,8.3c-.02,.15-.09,.27-.21,.38-.12,.11-.26,.16-.41,.16h-2.25c-.15,0-.27-.05-.38-.16-.11-.11-.15-.23-.13-.38Z"/>
        <path class="cls-8" d="M209.71,101.94c.13-.28,.31-.43,.54-.45h2.47c.3,.04,.43,.19,.4,.45-.3,1.07-.94,1.94-1.92,2.6-.98,.66-2.07,1-3.29,1-1.33,0-2.41-.41-3.25-1.24-.84-.82-1.16-1.86-.97-3.12l.62-4.4c.18-1.31,.79-2.4,1.81-3.27,1.03-.87,2.24-1.31,3.64-1.31s2.47,.44,3.24,1.31,1.06,1.96,.87,3.27l-.36,2.57c-.02,.15-.08,.28-.2,.39-.11,.11-.25,.17-.39,.17h-5.66l-.19,1.35c-.05,.41,.03,.76,.25,1.04,.22,.28,.55,.43,.98,.43,.32,0,.61-.08,.87-.24s.44-.35,.53-.56Zm-1.96-5.45l-.14,.89h2.8l.15-.89c.05-.41-.03-.76-.25-1.04-.22-.28-.55-.43-.97-.43s-.79,.14-1.08,.43c-.29,.28-.46,.63-.52,1.04Z"/>
        <path class="cls-8" d="M224.52,98.56l-.87,6.25c-.02,.15-.09,.27-.21,.38-.12,.11-.26,.16-.41,.16h-2.25c-.15,0-.27-.05-.38-.16-.11-.11-.15-.23-.13-.38l2.31-16.32c.02-.15,.09-.27,.21-.38,.12-.11,.26-.16,.41-.16h7.2c.15,0,.27,.06,.36,.17,.1,.11,.14,.25,.12,.39l-.25,1.69c-.02,.15-.09,.28-.21,.39-.12,.11-.26,.17-.41,.17h-4.4l-.7,4.99h3.06c.15,0,.27,.05,.36,.16s.14,.24,.12,.4l-.25,1.68c-.02,.15-.09,.28-.21,.39s-.26,.17-.41,.17h-3.08Z"/>
        <path class="cls-8" d="M229.9,102.03l1.26-9.08c.07-.36,.29-.54,.65-.54h2.25c.15,0,.27,.05,.38,.15,.11,.1,.14,.23,.1,.38l-1.15,8.3c-.05,.41,.04,.76,.3,1.06,.25,.29,.57,.44,.97,.44,.43,0,.8-.14,1.12-.43s.51-.64,.57-1.07l1.15-8.3c.07-.36,.29-.54,.65-.54h2.25c.15,0,.27,.05,.37,.15,.1,.1,.13,.23,.1,.38l-1.65,11.87c-.02,.15-.09,.27-.21,.38-.12,.11-.26,.16-.42,.16h-2.05c-.15,0-.27-.05-.38-.16-.11-.11-.15-.23-.13-.38l.08-.48c-.95,.81-1.98,1.21-3.09,1.21-.97,0-1.77-.35-2.38-1.04-.62-.7-.86-1.52-.74-2.47Z"/>
        <path class="cls-8" d="M247.5,105.35h-.99c-1.37,0-2.35-.34-2.94-1.01-.59-.67-.76-1.89-.51-3.66l.78-5.56h-1.24c-.15,0-.27-.06-.36-.17-.1-.11-.14-.25-.12-.39l.22-1.58c.07-.38,.28-.56,.62-.56h1.25l.41-3.06c.07-.36,.29-.54,.65-.54h2.25c.15,0,.27,.05,.38,.15,.11,.1,.14,.23,.1,.38l-.43,3.06h1.72c.15,0,.26,.06,.35,.17s.12,.24,.1,.4l-.22,1.61c-.02,.15-.08,.28-.2,.39s-.25,.17-.39,.17h-1.72l-.8,5.59c-.09,.58-.05,1.01,.13,1.31,.18,.29,.63,.46,1.34,.49,.13,0,.24,.06,.34,.17,.1,.11,.13,.25,.12,.39l-.26,1.69c-.02,.15-.08,.28-.2,.39-.11,.11-.25,.17-.39,.17Z"/>
        <path class="cls-8" d="M250.27,102.03l1.26-9.08c.07-.36,.29-.54,.65-.54h2.25c.15,0,.27,.05,.38,.15,.11,.1,.14,.23,.1,.38l-1.15,8.3c-.05,.41,.04,.76,.3,1.06,.25,.29,.57,.44,.97,.44,.43,0,.8-.14,1.12-.43s.51-.64,.57-1.07l1.15-8.3c.07-.36,.29-.54,.65-.54h2.25c.15,0,.27,.05,.37,.15,.1,.1,.13,.23,.1,.38l-1.65,11.87c-.02,.15-.09,.27-.21,.38-.12,.11-.26,.16-.42,.16h-2.05c-.15,0-.27-.05-.38-.16-.11-.11-.15-.23-.13-.38l.08-.48c-.95,.81-1.98,1.21-3.09,1.21-.97,0-1.77-.35-2.38-1.04-.62-.7-.86-1.52-.74-2.47Z"/>
        <path class="cls-8" d="M269.95,95.5h-.11c-.71,0-1.45,.26-2.2,.79-.75,.53-1.21,1.35-1.39,2.48l-.84,6.05c-.02,.15-.09,.27-.21,.38-.12,.11-.26,.16-.41,.16h-2.25c-.15,0-.27-.05-.38-.16-.11-.11-.15-.23-.13-.38l1.66-11.87c.07-.36,.29-.54,.65-.54h2.06c.15,0,.27,.05,.38,.15,.11,.1,.14,.23,.09,.38l-.14,1.18c1.2-1.25,2.42-1.88,3.65-1.88,.15,0,.26,.05,.35,.16s.12,.24,.1,.4l-.27,2.13c-.07,.38-.28,.56-.62,.56Z"/>
        <path class="cls-8" d="M276.76,101.94c.13-.28,.31-.43,.54-.45h2.47c.3,.04,.44,.19,.4,.45-.3,1.07-.94,1.94-1.92,2.6-.98,.66-2.07,1-3.29,1-1.33,0-2.41-.41-3.25-1.24-.84-.82-1.16-1.86-.97-3.12l.62-4.4c.18-1.31,.79-2.4,1.81-3.27s2.24-1.31,3.64-1.31,2.47,.44,3.24,1.31,1.06,1.96,.87,3.27l-.36,2.57c-.02,.15-.08,.28-.2,.39-.11,.11-.25,.17-.39,.17h-5.66l-.19,1.35c-.05,.41,.03,.76,.25,1.04,.22,.28,.55,.43,.98,.43,.32,0,.61-.08,.87-.24s.44-.35,.53-.56Zm-1.96-5.45l-.14,.89h2.8l.15-.89c.06-.41-.03-.76-.25-1.04-.22-.28-.55-.43-.97-.43s-.79,.14-1.08,.43c-.29,.28-.46,.63-.52,1.04Z"/>
        <path class="cls-8" d="M290.14,93.52c1.04-.87,2.25-1.31,3.63-1.31s2.48,.44,3.26,1.31c.79,.87,1.09,1.96,.89,3.27l-.62,4.37c-.16,1.27-.77,2.32-1.83,3.13s-2.24,1.22-3.57,1.22-2.41-.41-3.24-1.22c-.83-.82-1.16-1.86-.98-3.13l.62-4.37c.18-1.31,.79-2.4,1.83-3.27Zm1.22,8.79c.22,.28,.54,.43,.95,.43s.77-.14,1.06-.43c.3-.28,.47-.63,.53-1.04l.69-4.78c.05-.41-.03-.76-.25-1.04-.22-.28-.55-.43-.96-.43s-.77,.14-1.07,.43c-.3,.28-.47,.63-.53,1.04l-.67,4.78c-.06,.41,.03,.76,.25,1.04Z"/>
        <path class="cls-8" d="M299.66,104.81l1.37-9.7h-1.24c-.15,0-.27-.06-.36-.17-.1-.11-.14-.25-.12-.39l.22-1.58c.07-.38,.28-.56,.62-.56h1.25c.25-1.69,.75-2.85,1.52-3.49,.76-.64,1.83-.96,3.21-.96h.89c.15,0,.27,.06,.36,.17,.1,.11,.14,.25,.12,.39l-.22,1.47c-.02,.15-.09,.28-.21,.39-.12,.11-.26,.17-.41,.17-.68,.02-1.13,.14-1.37,.35-.23,.22-.38,.53-.45,.94l-.08,.56h1.72c.15,0,.26,.06,.35,.17s.12,.24,.1,.4l-.22,1.61c-.02,.15-.08,.28-.2,.39s-.25,.17-.39,.17h-1.72l-1.39,9.67c-.02,.15-.09,.27-.21,.38-.12,.11-.26,.16-.41,.16h-2.25c-.15,0-.27-.05-.37-.16-.1-.11-.14-.23-.12-.38Z"/>
        <path class="cls-8" d="M317.03,105.35h-4.56c-.15,0-.27-.05-.38-.16-.11-.11-.15-.23-.13-.38l2.31-16.32c.02-.15,.09-.27,.21-.38,.12-.11,.26-.16,.41-.16h4.56c1.48,0,2.65,.47,3.49,1.39,.84,.93,1.17,2.1,.99,3.51l-1.07,7.63c-.18,1.41-.83,2.57-1.94,3.49-1.11,.92-2.4,1.37-3.89,1.37Zm2.42-4.67l1.13-8.02c.09-.64-.02-1.12-.32-1.42-.31-.31-.71-.46-1.2-.46h-1.74l-1.66,11.79h1.75c.49,0,.93-.15,1.33-.46,.4-.31,.64-.78,.74-1.42Z"/>
        <path class="cls-8" d="M329.46,92.94l-1.66,11.87c-.02,.15-.09,.27-.21,.38-.12,.11-.26,.16-.41,.16h-2.25c-.15,0-.27-.05-.38-.16-.11-.11-.15-.23-.13-.38l1.66-11.87c.07-.36,.29-.54,.65-.54h2.25c.15,0,.27,.05,.38,.16,.11,.11,.14,.23,.1,.38Zm.7-4.9l-.37,2.54c-.02,.15-.09,.27-.21,.38-.12,.11-.26,.16-.41,.16h-2.25c-.15,0-.27-.05-.37-.16-.1-.11-.14-.23-.12-.38l.36-2.54c.02-.13,.09-.25,.23-.36s.27-.17,.42-.17h2.25c.15,0,.27,.05,.36,.15,.1,.1,.14,.22,.12,.37Z"/>
        <path class="cls-8" d="M341.01,92.41c.15,0,.27,.05,.37,.15,.1,.1,.13,.23,.1,.38l-1.65,11.9c-.02,.13-.09,.25-.23,.36-.13,.11-.28,.17-.43,.17h-2.05c-.15,0-.27-.06-.36-.17-.1-.11-.14-.24-.12-.36l.05-.36c-.9,.73-1.93,1.09-3.09,1.09-1,0-1.8-.34-2.4-1.02-.6-.68-.83-1.5-.69-2.47l.89-6.35c.13-.95,.6-1.78,1.41-2.47,.81-.7,1.7-1.04,2.67-1.04,1.11,0,2.03,.4,2.76,1.21l.05-.48c.07-.36,.29-.54,.65-.54h2.06Zm-4.05,8.89l.67-4.78c.05-.43-.04-.79-.28-1.07-.24-.28-.58-.43-1.01-.43-.39,0-.75,.15-1.07,.44-.32,.29-.51,.65-.56,1.06l-.67,4.78c-.06,.39,.04,.74,.28,1.03,.24,.29,.55,.44,.93,.44,.43,0,.81-.15,1.14-.44,.33-.29,.52-.64,.58-1.03Z"/>
        <path class="cls-8" d="M353.05,92.43c.15,0,.27,.05,.36,.15,.09,.1,.13,.22,.11,.36l-1.83,13.05c-.13,.97-.68,1.82-1.64,2.56-.97,.73-2.01,1.1-3.14,1.1h-.25c-1.07,0-2-.32-2.78-.97-.78-.65-1.13-1.42-1.06-2.32,.07-.36,.29-.54,.65-.54h1.95c.27,0,.44,.15,.52,.45,.17,.54,.56,.81,1.18,.81,.32,0,.62-.13,.91-.38,.28-.25,.46-.58,.54-1l.3-2.23c-.93,.75-1.96,1.13-3.09,1.13-.97,0-1.77-.35-2.39-1.04-.62-.7-.86-1.52-.7-2.47l.76-5.37c.13-.95,.6-1.78,1.41-2.49,.81-.71,1.7-1.06,2.67-1.06,1.09,0,2.01,.41,2.76,1.24l.05-.48c.07-.34,.29-.51,.65-.51h2.06Zm-3.92,7.87l.54-3.82c.05-.43-.04-.78-.28-1.06-.24-.27-.58-.41-1.01-.41-.39,0-.75,.14-1.07,.43-.32,.28-.51,.63-.56,1.04l-.54,3.82c-.06,.39,.04,.74,.28,1.03,.24,.29,.55,.44,.93,.44,.43,0,.81-.15,1.14-.44,.33-.29,.52-.64,.58-1.03Z"/>
        <path class="cls-8" d="M365.33,95.73l-1.29,9.08c-.02,.15-.09,.27-.21,.38-.12,.11-.26,.16-.41,.16h-2.25c-.15,0-.27-.05-.38-.16-.11-.11-.15-.23-.13-.38l1.18-8.3c.05-.41-.04-.76-.3-1.06-.25-.29-.57-.44-.97-.44-.43,0-.81,.14-1.13,.43-.32,.28-.51,.64-.56,1.07l-1.18,8.3c-.02,.15-.09,.27-.21,.38-.12,.11-.26,.16-.41,.16h-2.25c-.15,0-.27-.05-.38-.16-.11-.11-.15-.23-.13-.38l1.66-11.87c.07-.36,.29-.54,.65-.54h2.06c.15,0,.27,.05,.38,.15,.11,.1,.14,.23,.09,.38l-.06,.48c.95-.81,1.99-1.21,3.11-1.21,.97,0,1.77,.35,2.38,1.04,.62,.7,.86,1.52,.74,2.47Z"/>
        <path class="cls-8" d="M369.18,93.52c1.04-.87,2.25-1.31,3.63-1.31s2.48,.44,3.26,1.31c.79,.87,1.09,1.96,.89,3.27l-.62,4.37c-.16,1.27-.77,2.32-1.83,3.13-1.05,.82-2.24,1.22-3.57,1.22s-2.41-.41-3.24-1.22c-.83-.82-1.16-1.86-.98-3.13l.62-4.37c.18-1.31,.79-2.4,1.83-3.27Zm1.22,8.79c.22,.28,.54,.43,.95,.43s.77-.14,1.06-.43c.3-.28,.47-.63,.53-1.04l.69-4.78c.05-.41-.03-.76-.25-1.04-.22-.28-.55-.43-.96-.43s-.77,.14-1.07,.43c-.3,.28-.47,.63-.53,1.04l-.67,4.78c-.06,.41,.03,.76,.25,1.04Z"/>
        <path class="cls-8" d="M377.99,101.94c.02-.13,.09-.24,.23-.35,.13-.11,.27-.16,.42-.16h1.75c.32,0,.51,.17,.56,.51,.02,.25,.14,.46,.35,.63,.22,.17,.5,.25,.86,.25,.9,0,1.4-.3,1.5-.91,.04-.34-.07-.62-.33-.84-.26-.22-.65-.47-1.2-.74-.45-.21-.82-.4-1.11-.58-.29-.17-.64-.44-1.04-.78-.4-.35-.69-.76-.87-1.24s-.22-1.02-.12-1.62c.18-1.31,.75-2.28,1.71-2.92,.96-.64,2.01-.95,3.15-.95,1.05,0,1.95,.31,2.7,.94,.75,.63,1.13,1.55,1.15,2.77-.04,.34-.24,.51-.62,.51h-1.74c-.25,0-.44-.17-.56-.51-.04-.25-.16-.46-.38-.65-.22-.19-.47-.28-.78-.28-.07,0-.17,0-.3,.03s-.31,.12-.55,.3-.38,.43-.41,.75c-.02,.15,0,.29,.06,.42,.06,.13,.19,.28,.38,.44,.2,.16,.35,.29,.47,.38,.12,.1,.35,.25,.7,.47,.35,.22,.59,.36,.71,.43,.43,.28,.75,.5,.95,.65,.21,.15,.46,.38,.75,.69,.29,.31,.49,.65,.59,1.03,.1,.38,.11,.81,.04,1.29-.13,.88-.6,1.71-1.42,2.49s-2.01,1.17-3.59,1.17c-.79,0-1.46-.12-2.01-.36-.55-.24-.97-.56-1.24-.95-.27-.39-.47-.77-.58-1.14-.11-.37-.17-.75-.19-1.14Z"/>
        <path class="cls-8" d="M394.16,105.35h-.99c-1.37,0-2.35-.34-2.94-1.01-.59-.67-.76-1.89-.51-3.66l.78-5.56h-1.24c-.15,0-.27-.06-.36-.17-.1-.11-.14-.25-.12-.39l.22-1.58c.07-.38,.28-.56,.62-.56h1.25l.41-3.06c.07-.36,.29-.54,.65-.54h2.25c.15,0,.27,.05,.38,.15,.11,.1,.14,.23,.1,.38l-.43,3.06h1.72c.15,0,.26,.06,.35,.17s.12,.24,.1,.4l-.22,1.61c-.02,.15-.08,.28-.2,.39s-.25,.17-.39,.17h-1.72l-.8,5.59c-.09,.58-.05,1.01,.13,1.31,.18,.29,.63,.46,1.34,.49,.13,0,.24,.06,.34,.17,.1,.11,.13,.25,.12,.39l-.26,1.69c-.02,.15-.08,.28-.2,.39s-.25,.17-.39,.17Z"/>
        <path class="cls-8" d="M401.7,92.94l-1.66,11.87c-.02,.15-.09,.27-.21,.38-.12,.11-.26,.16-.41,.16h-2.25c-.15,0-.27-.05-.38-.16-.11-.11-.15-.23-.13-.38l1.66-11.87c.07-.36,.29-.54,.65-.54h2.25c.15,0,.27,.05,.38,.16,.11,.11,.14,.23,.1,.38Zm.7-4.9l-.37,2.54c-.02,.15-.09,.27-.21,.38-.12,.11-.26,.16-.41,.16h-2.25c-.15,0-.27-.05-.37-.16-.1-.11-.14-.23-.12-.38l.36-2.54c.02-.13,.09-.25,.23-.36s.27-.17,.42-.17h2.25c.15,0,.27,.05,.36,.15,.1,.1,.14,.22,.12,.37Z"/>
        <path class="cls-8" d="M407.12,105.54c-1.33,0-2.42-.41-3.26-1.22-.85-.82-1.17-1.86-.98-3.13l.62-4.4c.18-1.31,.8-2.4,1.84-3.27,1.04-.87,2.26-1.31,3.65-1.31s2.47,.44,3.25,1.31c.78,.87,1.07,1.96,.88,3.27-.02,.15-.09,.27-.21,.38-.12,.11-.26,.16-.41,.16h-2.25c-.15,0-.27-.05-.38-.15-.11-.1-.14-.23-.12-.38l.06-.3c.05-.41-.03-.76-.24-1.04-.22-.28-.54-.43-.97-.43s-.78,.14-1.1,.43c-.32,.28-.51,.63-.56,1.04l-.67,4.78c-.05,.41,.04,.76,.28,1.04,.24,.28,.57,.43,.98,.43s.79-.14,1.08-.43c.29-.28,.46-.63,.52-1.04l.04-.3c.07-.36,.29-.54,.65-.54h2.24c.15,0,.27,.05,.38,.15,.11,.1,.14,.23,.1,.38-.18,1.31-.78,2.4-1.79,3.27-1.01,.87-2.21,1.31-3.61,1.31Z"/>
        <path class="cls-8" d="M413.83,101.94c.02-.13,.09-.24,.23-.35,.13-.11,.27-.16,.42-.16h1.75c.32,0,.51,.17,.56,.51,.02,.25,.14,.46,.35,.63,.22,.17,.5,.25,.86,.25,.9,0,1.4-.3,1.5-.91,.04-.34-.07-.62-.33-.84-.26-.22-.65-.47-1.2-.74-.45-.21-.82-.4-1.11-.58-.29-.17-.64-.44-1.04-.78-.4-.35-.69-.76-.87-1.24s-.22-1.02-.12-1.62c.18-1.31,.75-2.28,1.71-2.92,.96-.64,2.01-.95,3.15-.95,1.05,0,1.95,.31,2.7,.94,.75,.63,1.13,1.55,1.15,2.77-.04,.34-.24,.51-.62,.51h-1.74c-.25,0-.44-.17-.56-.51-.04-.25-.16-.46-.38-.65-.22-.19-.47-.28-.78-.28-.07,0-.17,0-.3,.03s-.31,.12-.55,.3-.38,.43-.41,.75c-.02,.15,0,.29,.06,.42,.06,.13,.19,.28,.38,.44,.2,.16,.35,.29,.47,.38,.12,.1,.35,.25,.7,.47,.35,.22,.59,.36,.71,.43,.43,.28,.75,.5,.95,.65,.21,.15,.46,.38,.75,.69,.29,.31,.49,.65,.59,1.03,.1,.38,.11,.81,.04,1.29-.13,.88-.6,1.71-1.42,2.49s-2.01,1.17-3.59,1.17c-.79,0-1.46-.12-2.01-.36-.55-.24-.97-.56-1.24-.95-.27-.39-.47-.77-.58-1.14-.11-.37-.17-.75-.19-1.14Z"/>
      </g>
      <g>
        <path class="cls-3" d="M524.75,88.1c-.07,.06-.14,.13-.21,.2-.4,.37-.81,.73-1.22,1.09-.13,.11-.27,.23-.4,.34-.05,.04-.1,.09-.15,.13-.86,.74-1.7,1.47-2.41,2.26-.26,.28-.5,.57-.72,.88-.41,.56-.75,1.15-.99,1.8-.1,.28-.19,.57-.25,.88-.08,.41-.13,.84-.13,1.29,0,.01,0,.02,0,.03h-1.91s0-.02,0-.03c0-.45,.03-.88,.1-1.29,.05-.3,.11-.59,.19-.88,.18-.65,.43-1.24,.73-1.8,.16-.3,.35-.59,.54-.88,.95-1.37,2.21-2.5,3.42-3.55,.11-.1,.23-.2,.34-.29,.07-.06,.14-.12,.21-.18,.47-.4,.92-.79,1.35-1.2,.03-.03,.06-.05,.09-.08,.03,.03,.06,.05,.09,.08,.43,.4,.88,.79,1.35,1.2Z"/>
        <path class="cls-3" d="M530.21,79.73c0,.27-.01,.53-.04,.78-.03,.31-.07,.6-.13,.88-.14,.66-.36,1.26-.64,1.8-.16,.31-.34,.6-.54,.88-.79,1.12-1.85,2.04-2.93,2.99-.21,.18-.42,.37-.64,.56-.02-.02-.05-.04-.07-.06-.43-.37-.89-.77-1.33-1.18,0,0-.02-.02-.04-.04,.28-.25,.55-.49,.82-.72,.63-.55,1.2-1.05,1.7-1.55,.28-.29,.54-.58,.77-.88,.42-.55,.74-1.13,.93-1.8,.08-.28,.14-.57,.18-.88,.03-.25,.05-.51,.05-.78,0-.36-.04-.69-.11-1.02-.06-.3-.16-.6-.27-.88-.27-.66-.67-1.25-1.16-1.81-.27-.3-.55-.59-.86-.88-.62-.58-1.32-1.12-2-1.65-.02-.01-.04-.03-.06-.04-.18-.14-.35-.27-.53-.41-.05-.04-.11-.08-.16-.12-.47-.38-.93-.74-1.37-1.1-.19-.16-.38-.31-.56-.47-1.52-1.29-2.8-2.54-3.76-3.95-.19-.28-.37-.58-.54-.88-.32-.57-.59-1.17-.8-1.81-.09-.27-.17-.54-.24-.82,0-.02,0-.04-.01-.06-1.52-6.02-.34-14.38,.24-17.7,.09-.52,.59-.87,1.1-.78,.52,.09,.87,.59,.78,1.1-1.16,6.69-1.26,13.03-.25,16.96,.04,.14,.07,.28,.12,.42,.09,.3,.2,.59,.32,.88,.27,.64,.62,1.23,1.03,1.81,.21,.3,.44,.59,.69,.88,.8,.93,1.76,1.81,2.87,2.74,.18,.15,.37,.31,.56,.46,.33,.27,.67,.55,1.03,.83,.16,.13,.33,.26,.5,.39,.06,.04,.11,.09,.17,.13,.13,.1,.27,.21,.41,.32,1.06,.83,2.19,1.76,3.09,2.88,.22,.28,.43,.57,.62,.88,.34,.55,.62,1.15,.81,1.81,.08,.28,.15,.57,.19,.88,.05,.33,.07,.67,.07,1.02Z"/>
      </g>
      <path class="cls-11" d="M530.77,63.84s0,.04-.01,.06c-.07,.28-.15,.55-.24,.82-.22,.64-.48,1.24-.8,1.81-.17,.3-.35,.59-.54,.88-1.08,1.58-2.55,2.96-4.32,4.42-.44,.36-.9,.73-1.37,1.1-.05,.04-.11,.08-.16,.12-.17,.14-.35,.27-.53,.41-.7,.55-1.42,1.1-2.06,1.7-.3,.28-.59,.57-.86,.88-.48,.55-.89,1.15-1.16,1.81-.12,.28-.21,.57-.27,.88-.07,.32-.11,.66-.11,1.02,0,.28,.02,.54,.05,.78,.04,.31,.1,.6,.18,.88,.2,.67,.52,1.26,.93,1.8,.23,.3,.49,.59,.77,.88,.5,.51,1.07,1.01,1.7,1.55,.44,.38,.89,.78,1.35,1.21,.03,.03,.06,.05,.09,.08,.43,.4,.88,.79,1.35,1.2,.07,.06,.14,.12,.21,.18,1.31,1.13,2.72,2.34,3.76,3.84,.2,.28,.38,.57,.54,.88,.31,.56,.56,1.16,.73,1.8,.08,.28,.14,.57,.19,.88,.06,.41,.1,.84,.1,1.29,0,.01,0,.02,0,.03h-1.91s0-.02,0-.03c0-.46-.04-.89-.13-1.29-.06-.3-.15-.59-.25-.88-.24-.65-.58-1.25-.99-1.8-.22-.3-.46-.59-.72-.88-.76-.83-1.65-1.6-2.57-2.39-.13-.11-.26-.23-.4-.34-.41-.35-.82-.72-1.22-1.09-.07-.07-.14-.13-.21-.2-.4-.36-.79-.71-1.17-1.04-1.09-.95-2.14-1.87-2.93-2.99-.2-.28-.38-.57-.54-.88-.28-.54-.51-1.14-.64-1.8-.06-.28-.1-.57-.13-.88-.02-.25-.04-.51-.04-.78,0-.35,.03-.69,.07-1.02,.04-.3,.11-.59,.19-.88,.19-.65,.47-1.25,.81-1.81,.19-.3,.4-.6,.62-.88,1.01-1.27,2.33-2.29,3.49-3.2,.06-.04,.11-.09,.17-.13,.17-.13,.34-.26,.5-.39,.35-.28,.7-.55,1.03-.83,1.34-1.09,2.5-2.12,3.43-3.2,.25-.29,.48-.58,.69-.88,.41-.57,.75-1.17,1.03-1.81,.12-.28,.23-.57,.32-.88,.04-.14,.08-.28,.12-.42,1-3.93,.91-10.27-.25-16.96-.09-.52,.26-1.01,.78-1.1,.52-.09,1.01,.26,1.1,.78,.58,3.32,1.75,11.68,.24,17.7Z"/>
    </g>
  </g>
</svg>