<?xml version="1.0" encoding="UTF-8"?>
<svg id="Layer_1" data-name="Layer 1" xmlns="http://www.w3.org/2000/svg" viewBox="0 0 576 158.4">
  <defs>
    <style>
      .cls-1 {
        fill: #fff;
      }

      .cls-2 {
        fill: #417ca5;
      }

      .cls-3 {
        fill: #1e6397;
      }

      .cls-4 {
        fill: #434c4e;
      }

      .cls-5 {
        fill: #f2f2f1;
      }

      .cls-6 {
        fill: #647d8d;
      }

      .cls-7 {
        fill: #444e4f;
      }

      .cls-8 {
        fill: #f7f7f7;
      }

      .cls-9 {
        fill: #434d4f;
      }

      .cls-10 {
        fill: #444d4f;
      }

      .cls-11 {
        fill: #444c4e;
      }
    </style>
  </defs>
  <rect class="cls-1" width="576" height="158.4"/>
  <g>
    <path class="cls-11" d="M172.25,152.71v-31.99h14.81c4.58,0,7.68,1.01,9.3,3.02s2.44,5.88,2.44,11.58c0,6.94-.72,11.57-2.17,13.9s-4.33,3.49-8.66,3.49h-15.73Zm3.61-3.05h10.43c3.83,0,6.3-.77,7.41-2.3s1.66-4.95,1.66-10.24c0-5.81-.48-9.49-1.44-11.04s-3.26-2.32-6.9-2.32h-11.16v25.9Z"/>
    <path class="cls-11" d="M211.25,120.72v31.99h-3.61v-31.99h3.61Z"/>
    <path class="cls-11" d="M241.11,145.94h-16.2l-2.46,6.77h-3.82l11.72-31.99h5.06l11.95,31.99h-3.77l-2.48-6.77Zm-1.05-2.72l-7.1-19.55-7.01,19.55h14.11Z"/>
    <path class="cls-11" d="M266.09,136.8h13.71c.06,.83,.09,1.99,.09,3.49,0,5.77-.71,9.33-2.12,10.7s-5.11,2.05-11.07,2.05c-5.64,0-9.27-.81-10.88-2.43s-2.41-5.25-2.41-10.89l-.02-4.71,.02-2.84c0-4.73,.89-7.88,2.68-9.45s5.39-2.34,10.82-2.34,8.94,.51,10.52,1.54,2.37,3.31,2.37,6.86v1.22h-3.54v-.8c0-2.61-.54-4.22-1.61-4.84s-3.86-.93-8.38-.93c-4.17,0-6.78,.5-7.83,1.49s-1.57,3.47-1.57,7.44l-.05,4.24,.02,4.57c0,4.03,.58,6.51,1.75,7.43s4.27,1.38,9.32,1.38c3.86,0,6.25-.44,7.16-1.31s1.37-3.16,1.37-6.87c0-.3-.06-.95-.19-1.97h-10.17v-3.05Z"/>
    <path class="cls-11" d="M315.76,120.72v31.99h-5.93l-13.41-21.77-2.18-3.59-1.08-1.78-1.08-1.78h-.09l.02,1.2,.02,1.22v26.51h-3.61v-31.99h5.91l11.7,19.08,3.05,5.02,1.52,2.48,1.5,2.51h.09l-.02-1.2-.02-1.22v-26.67h3.61Z"/>
    <path class="cls-11" d="M337.58,120.39c6.05,0,9.83,.88,11.34,2.65s2.27,6.18,2.27,13.24c0,7.61-.73,12.3-2.18,14.09s-5.27,2.67-11.44,2.67-9.95-.88-11.43-2.65-2.21-6.33-2.21-13.69v-2.25l.05-3.02c0-4.25,.96-7.15,2.87-8.71s5.49-2.33,10.72-2.33Zm-.02,3.05c-5.06,0-8.02,.56-8.88,1.69s-1.29,4.98-1.29,11.58,.43,10.48,1.29,11.6,3.82,1.69,8.88,1.69,8.05-.56,8.91-1.69,1.29-4.99,1.29-11.6v-2.09l-.02-3.02c0-3.53-.59-5.77-1.78-6.73s-3.98-1.43-8.39-1.43Z"/>
    <path class="cls-11" d="M381.29,129.39h-3.59c0-2.58-.43-4.21-1.29-4.91s-2.88-1.04-6.07-1.04c-3.78,0-6.22,.33-7.31,1s-1.64,2.14-1.64,4.44c0,2.58,.43,4.15,1.29,4.71s3.41,.95,7.66,1.15c4.98,.22,8.15,.85,9.5,1.9s2.03,3.39,2.03,7.03c0,3.94-.78,6.48-2.33,7.64s-4.99,1.73-10.3,1.73c-4.61,0-7.68-.58-9.2-1.75s-2.29-3.51-2.29-7.04l-.02-1.43h3.59v.8c0,2.86,.44,4.64,1.31,5.33s3.12,1.04,6.73,1.04c4.14,0,6.69-.35,7.64-1.04s1.43-2.55,1.43-5.57c0-1.95-.32-3.25-.97-3.9s-2-1.04-4.07-1.16l-3.75-.19-3.56-.19c-5.42-.38-8.13-3.19-8.13-8.44,0-3.64,.79-6.07,2.37-7.29s4.73-1.83,9.45-1.83,7.9,.57,9.35,1.7,2.18,3.57,2.18,7.3Z"/>
    <path class="cls-11" d="M401.4,124.07v28.64h-3.61v-28.64h-10.43v-3.35h24.38v3.35h-10.34Z"/>
    <path class="cls-11" d="M422.59,120.72v31.99h-3.61v-31.99h3.61Z"/>
    <path class="cls-11" d="M453.76,142.03h3.59v1.22c0,4.36-.74,7.08-2.23,8.17s-5.22,1.63-11.2,1.63c-5.36,0-8.77-.96-10.22-2.87s-2.18-6.42-2.18-13.51c0-5.55,.16-9.04,.49-10.46s1.27-2.71,2.81-3.83c1.81-1.31,5.73-1.97,11.74-1.97,4.08,0,6.82,.63,8.24,1.9s2.12,3.71,2.12,7.34l.02,.87h-3.59l-.02-.98c0-2.58-.42-4.23-1.25-4.97s-2.72-1.1-5.66-1.1c-5.16,0-8.3,.43-9.45,1.29s-1.71,3.24-1.71,7.15c0,8.98,.38,14.25,1.15,15.8s3.38,2.32,7.85,2.32,6.9-.34,7.96-1.01,1.58-2.36,1.58-5.06l-.05-1.9Z"/>
    <path class="cls-11" d="M487.4,129.39h-3.59c0-2.58-.43-4.21-1.29-4.91s-2.88-1.04-6.07-1.04c-3.78,0-6.22,.33-7.31,1s-1.64,2.14-1.64,4.44c0,2.58,.43,4.15,1.29,4.71s3.41,.95,7.66,1.15c4.98,.22,8.15,.85,9.5,1.9s2.03,3.39,2.03,7.03c0,3.94-.78,6.48-2.33,7.64s-4.99,1.73-10.3,1.73c-4.61,0-7.68-.58-9.2-1.75s-2.29-3.51-2.29-7.04l-.02-1.43h3.59v.8c0,2.86,.44,4.64,1.31,5.33s3.12,1.04,6.73,1.04c4.14,0,6.69-.35,7.64-1.04s1.43-2.55,1.43-5.57c0-1.95-.32-3.25-.97-3.9s-2-1.04-4.07-1.16l-3.75-.19-3.56-.19c-5.42-.38-8.13-3.19-8.13-8.44,0-3.64,.79-6.07,2.37-7.29s4.73-1.83,9.45-1.83,7.9,.57,9.35,1.7,2.18,3.57,2.18,7.3Z"/>
  </g>
  <path class="cls-9" d="M381.56,109.34h-22.33V37.95h21.98c.22,2.48,.44,5.01,.67,7.65,24.99-13.73,38.11-12.39,50.21,5.3,1.8-1.7,3.52-3.41,5.32-5.04,7.92-7.19,16.98-10.72,27.89-9.23,12.44,1.7,22.3,11.39,22.66,23.98,.47,16.07,.11,32.17,.11,48.6h-22.66c0-1.47,0-3.04,0-4.61,0-12.29,.08-24.58-.04-36.86-.11-10.8-4.75-16.29-13.31-16.14-8.85,.16-17.18,8.46-17.19,17.12,0,13.41,0,26.83,0,40.54h-22.7c0-6.46,0-12.88,0-19.3,0-8.14,.18-16.28-.06-24.41-.33-11.36-10-17.26-20.32-12.36-6.44,3.06-10.9,7.14-10.43,15.6,.74,13.38,.2,26.84,.2,40.53Z"/>
  <path class="cls-4" d="M135.04,37.9h21.89c.14,1.74,.26,3.34,.45,5.67,6.58-4.97,13.57-7.69,21.51-7.24,17.63,1.01,30.95,14.86,31.71,34.08,.26,6.47-.77,13.38-2.95,19.47-6.28,17.54-26.2,25.68-44.56,18.97-1.84-.67-3.65-1.43-5.99-2.35v46.21h-22.06V37.9Zm22.12,36.8c0,4.47-.11,8.94,.07,13.41,.05,1.31,.55,3.01,1.47,3.81,7.93,6.86,21.3,4.38,26.19-4.88,3.3-6.24,3.6-12.92,2.31-19.8-2.51-13.38-13.91-18.58-25.85-11.89-3.11,1.75-4.58,3.77-4.27,7.44,.33,3.95,.08,7.94,.08,11.91Z"/>
  <path class="cls-10" d="M276.13,37.9h22.51c0,4.26-.01,8.37,0,12.48,.05,11.46-.21,22.93,.27,34.36,.4,9.65,9.1,14.15,17.47,9.19,5.31-3.15,8.96-7.48,8.79-14.47-.33-13.74-.1-27.49-.1-41.48h22.49V109.27h-22.2v-9.18c-1.86,1.57-3.03,2.55-4.19,3.55-9.91,8.6-24.11,9.92-34.26,3.17-6.73-4.47-10.47-10.98-10.67-18.78-.42-16.57-.13-33.15-.13-50.14Z"/>
  <path class="cls-7" d="M266.95,56.61c-7.03-2.23-13.7-4.6-20.52-6.38-2.42-.63-5.34-.21-7.81,.5-1.42,.41-3.18,2.28-3.34,3.65-.16,1.34,1.2,3.45,2.49,4.23,2.96,1.78,6.31,2.91,9.46,4.39,3.75,1.75,7.63,3.33,11.17,5.44,9.71,5.8,13.56,14.36,11.5,24.8-1.73,8.74-8.92,15.25-19.3,17-10.71,1.81-21.19,.65-31.46-2.88-2.79-.96-3.96-2.41-3.75-5.43,.27-3.75,.06-7.53,.06-11.73,5.76,1.71,10.85,3.67,16.13,4.65,4.18,.77,8.62,.7,12.86,.26,1.7-.18,4.36-2.27,4.47-3.66,.15-1.78-1.37-4.49-2.98-5.48-3.64-2.24-7.82-3.58-11.71-5.44-3.88-1.86-7.95-3.52-11.44-5.97-11.93-8.38-11.68-24.35,.18-32.75,11.31-8,31.43-6.5,42.11-.98,.97,.5,1.72,2.3,1.79,3.54,.22,4.13,.08,8.28,.08,12.22Z"/>
  <path class="cls-10" d="M92.66,79.37c0-17.92-.12-35.85,.09-53.77,.05-4.08-.91-6.99-4.59-8.99-3.55-1.93-6.44-4.49-4.93-9.11,1.55-4.73,5.27-5.81,9.88-5.73,10.16,.16,20.33-.01,30.5,.11,1.92,.02,4.1,.3,5.71,1.23,4.94,2.83,5.16,9.31,.04,11.92-5.46,2.78-6.56,6.58-6.52,12.3,.27,35.02,.15,70.04,.1,105.06,0,2.79-.22,5.66-.9,8.35-1.97,7.85-7.92,12.61-14.85,12.22-7.14-.4-12.95-6-14.13-13.84-.37-2.45-.38-4.96-.39-7.45-.03-17.43-.02-34.85-.02-52.28Zm26.41-25.66l.11-.02c.1-.98,.19-1.97,.29-2.95,.11-.11,.33-.25,.31-.33-.07-.27-.22-.53-.34-.79V19.35h-23.26V53.63c-.06,27.74-.13,55.48-.14,83.22,0,.9,.58,1.8,.89,2.7,1.72,8.48,9.83,12.38,16.55,7.39,2.61-1.94,3.78-5.78,5.61-8.75,.3-1.24,.86-2.47,.86-3.71,.05-25.88,.05-51.75,0-77.63,0-1.05-.57-2.1-.88-3.15ZM108.44,4.88c-5.48,0-10.98-.29-16.42,.17-1.75,.15-4.44,2.08-4.74,3.58-.59,3,1.91,4.11,4.8,4.11,10.63-.03,21.26,.15,31.87-.18,1.69-.05,4.43-2.09,4.73-3.6,.59-3-1.89-4.12-4.8-4.09-5.15,.05-10.29,.01-15.44,.01Z"/>
  <path class="cls-3" d="M119.08,138.19c-1.83,2.98-3,6.82-5.61,8.76-6.72,4.99-14.83,1.09-16.55-7.39,.01-1.66,.03-3.31,.03-4.97,0-24.85,.12-49.7-.11-74.55-.04-4.49,1.31-5.76,5.64-5.47,5.47,.37,10.97,.11,16.46,.13,.04,27.83,.09,55.66,.13,83.49Zm-14.93-37.73c0-12.11,.04-24.22-.06-36.34-.01-1.21-.92-2.41-1.42-3.62-.67,1.21-1.91,2.42-1.92,3.63-.11,23.73-.11,47.45-.01,71.18,0,1.3,1.1,2.6,1.69,3.91,.57-1.3,1.63-2.6,1.64-3.91,.13-11.61,.08-23.23,.08-34.84Z"/>
  <path class="cls-8" d="M96.18,53.63V19.35h23.26c0,10.23,0,20.25,0,30.28,.01,.37,.02,.74,.04,1.12-.1,.98-.19,1.97-.29,2.95-7.67-.02-15.34-.04-23-.06Z"/>
  <path class="cls-5" d="M108.44,4.88c5.15,0,10.29,.04,15.44-.01,2.9-.03,5.39,1.09,4.8,4.09-.3,1.5-3.04,3.55-4.73,3.6-10.62,.33-21.25,.15-31.87,.18-2.89,0-5.39-1.11-4.8-4.11,.29-1.5,2.99-3.43,4.74-3.58,5.44-.46,10.94-.17,16.42-.17Z"/>
  <path class="cls-2" d="M96.18,53.63c7.67,.02,15.34,.04,23,.06,0,0-.11,.02-.11,.02-.04,.33-.08,.66-.12,.99-5.49-.01-11,.24-16.46-.13-4.33-.29-5.68,.97-5.64,5.47,.23,24.85,.11,49.7,.11,74.55,0,1.66-.02,3.31-.03,4.97-.31-.9-.89-1.8-.89-2.7,.01-27.74,.08-55.48,.14-83.22Z"/>
  <path class="cls-6" d="M118.95,54.69c.04-.33,.08-.66,.12-.99,.3,1.05,.87,2.1,.88,3.15,.05,25.88,.05,51.75,0,77.63,0,1.24-.56,2.47-.86,3.71-.04-27.83-.08-55.67-.13-83.5Z"/>
</svg>