<?xml version="1.0" encoding="UTF-8"?>
<svg id="Layer_1" data-name="Layer 1" xmlns="http://www.w3.org/2000/svg" xmlns:xlink="http://www.w3.org/1999/xlink" viewBox="0 0 2328.89 355.68">
  <defs>
    <style>
      .cls-1 {
        fill: #c4cace;
      }

      .cls-2 {
        fill: #0b5394;
      }

      .cls-3 {
        fill: url(#linear-gradient);
      }
    </style>
    <linearGradient id="linear-gradient" x1="146.53" y1="336.93" x2="146.53" y2="30.82" gradientUnits="userSpaceOnUse">
      <stop offset="0" stop-color="#00c9ff"/>
      <stop offset="1" stop-color="#92fe9d"/>
    </linearGradient>
  </defs>
  <path class="cls-3" d="M50.84,280.41h0c6.5,0,12.86-1.83,18.39-5.29,7.89-4.91,13.39-12.61,15.49-21.67,1.58-6.86,1.06-13.89-1.43-20.33l38.74-24.2c4.97,4.93,11.17,8.17,17.91,9.46v49.62c-6.79,1.29-13.04,4.57-18.03,9.56-6.57,6.57-10.18,15.31-10.18,24.6,0,19.18,15.61,34.77,34.8,34.77s34.79-15.59,34.79-34.77c0-16.93-12.16-31.05-28.21-34.14v-49.64c6.74-1.28,12.95-4.53,17.92-9.46l38.75,24.21c-2.49,6.44-3.02,13.46-1.44,20.32,2.09,9.06,7.58,16.76,15.47,21.67,5.54,3.47,11.9,5.3,18.4,5.3,12.08,0,23.11-6.12,29.5-16.36,4.91-7.88,6.47-17.21,4.38-26.25-2.09-9.05-7.59-16.74-15.46-21.65-5.54-3.47-11.9-5.31-18.4-5.31-9.84,0-18.93,4.11-25.43,11.14l-38.36-23.97c5.47-12.71,3.05-28.02-7.3-38.38-4.99-5-11.24-8.28-18.03-9.57l-.03-50.33c16.05-3.09,28.21-17.22,28.21-34.15,0-19.17-15.6-34.76-34.79-34.76s-34.79,15.6-34.79,34.77c0,9.3,3.61,18.04,10.17,24.61,5,5,11.25,8.27,18.04,9.56l.03,50.31c-6.79,1.29-13.03,4.57-18.02,9.57-10.36,10.36-12.78,25.68-7.3,38.39l-38.35,23.96c-6.51-7.03-15.6-11.13-25.44-11.13-6.51,0-12.87,1.84-18.39,5.3-7.89,4.91-13.39,12.6-15.48,21.66-2.09,9.04-.53,18.37,4.38,26.25,6.37,10.24,17.4,16.35,29.49,16.35Z"/>
  <g>
    <path class="cls-2" d="M554.63,266.6v42.24h-192.63c-3.03,0-5.87-.54-8.52-1.63-2.57-1.09-4.82-2.57-6.77-4.43-1.87-1.94-3.34-4.2-4.43-6.77-1.09-2.57-1.63-5.37-1.63-8.4h0V75.83h42.24v190.77h171.75Zm207.69-75.26v59.27c0,5.91-1.05,12.25-3.15,19.02-2.02,6.77-5.33,13.03-9.92,18.79-4.59,5.83-10.62,10.7-18.08,14.58-7.39,3.89-16.41,5.83-27.07,5.83h-76.19c-5.83,0-12.13-1.01-18.9-3.03-6.77-2.1-13.03-5.44-18.79-10.03-5.83-4.59-10.7-10.62-14.58-18.08-3.89-7.39-5.83-16.41-5.83-27.07h0c0-5.83,1.01-12.13,3.03-18.9,2.1-6.85,5.44-13.18,10.03-19.02,4.59-5.76,10.58-10.58,17.97-14.47,7.47-3.89,16.49-5.83,27.07-5.83h76.19v40.25h-76.19c-5.76,0-10.19,1.75-13.3,5.25s-4.67,7.86-4.67,13.07h0c0,5.52,1.79,9.84,5.37,12.95,3.66,3.11,7.97,4.67,12.95,4.67h75.84c5.76,0,10.23-1.75,13.42-5.25,3.11-3.42,4.67-7.74,4.67-12.95h0v-59.04c0-5.52-1.71-9.92-5.13-13.18-3.42-3.19-7.74-4.78-12.95-4.78h-92.76v-40.14h92.76c5.91,0,12.25,1.01,19.02,3.03,6.77,2.1,13.03,5.44,18.79,10.03,5.83,4.59,10.7,10.58,14.58,17.97,3.89,7.47,5.83,16.49,5.83,27.07h0Zm229.74,1.05v57.17c0,3.97-.47,8.17-1.4,12.6-.93,4.43-2.37,8.87-4.32,13.3-1.94,4.36-4.47,8.56-7.58,12.6-3.03,3.97-6.77,7.51-11.2,10.62-4.36,3.11-9.41,5.56-15.17,7.35-5.76,1.87-12.25,2.8-19.49,2.8h-76.19c-4.04,0-8.28-.47-12.72-1.4-4.43-.93-8.83-2.37-13.18-4.32-4.43-1.94-8.63-4.43-12.6-7.47-4.04-3.11-7.58-6.88-10.62-11.32-3.11-4.36-5.6-9.41-7.47-15.17-1.79-5.83-2.68-12.37-2.68-19.6h0V58.92h42.24V249.57c0,5.21,1.63,9.33,4.9,12.37,3.19,3.11,7.23,4.67,12.13,4.67h76.19c5.29,0,9.45-1.56,12.48-4.67,2.96-3.19,4.43-7.31,4.43-12.37h0v-57.17c0-5.37-1.59-9.53-4.78-12.48-3.11-2.96-7.16-4.43-12.13-4.43h-76.19v-42.24h76.19c4.04,0,8.28,.47,12.72,1.4,4.43,.86,8.83,2.26,13.18,4.2,4.43,1.94,8.63,4.47,12.6,7.58,4.04,3.11,7.58,6.85,10.62,11.2,3.03,4.43,5.44,9.49,7.23,15.17,1.87,5.76,2.8,12.29,2.8,19.6h0Zm254.71,74.21v42.24h-192.63c-3.03,0-5.87-.54-8.52-1.63-2.57-1.09-4.78-2.57-6.65-4.43-1.94-1.94-3.46-4.2-4.55-6.77-1.09-2.57-1.63-5.37-1.63-8.4h0V75.83h42.35v190.77h171.63Zm69.31-207.69v38.27h-42.24V58.92h42.24Zm0,74.32v175.6h-42.24V133.24h42.24Zm235.1,78.06v97.54h-42.24v-97.54c0-5.52-.97-10.46-2.92-14.82-1.87-4.36-4.43-8.13-7.7-11.32-3.27-3.11-7.08-5.52-11.43-7.23-4.43-1.63-9.18-2.45-14.23-2.45h-73.97v133.36h-42.24V154.12c0-2.88,.54-5.6,1.63-8.17,1.09-2.57,2.61-4.78,4.55-6.65s4.24-3.34,6.88-4.43c2.57-1.09,5.33-1.63,8.28-1.63h95.21c5.29,0,10.89,.58,16.8,1.75,5.91,1.17,11.75,3.07,17.5,5.72,5.83,2.72,11.36,6.11,16.57,10.15,5.29,4.04,9.96,8.95,14,14.7,4.04,5.83,7.27,12.52,9.68,20.07,2.41,7.62,3.62,16.18,3.62,25.67h0Zm143.86,1.63l99.53,95.91h-61.02l-85.06-82.26c-4.82-4.28-7.04-9.68-6.65-16.22h0c.16-3.03,.93-5.87,2.33-8.52,1.32-2.64,3.19-4.9,5.6-6.77h0l77.12-62.19h67.67l-99.53,80.04Zm-63.94-154.01v249.92h-42.24V58.92h42.24Z"/>
    <path class="cls-1" d="M2062.44,173.38v37.92c0,14.23-2.45,27.3-7.35,39.2-4.98,11.9-11.78,22.17-20.42,30.8-8.71,8.63-19.02,15.36-30.92,20.19-11.9,4.9-24.85,7.35-38.85,7.35h-113.99c-3.03,0-5.87-.54-8.52-1.63-2.57-1.09-4.78-2.57-6.65-4.43-1.94-1.94-3.46-4.2-4.55-6.77-1.09-2.57-1.63-5.37-1.63-8.4h0V97.19c0-2.96,.54-5.72,1.63-8.28,1.09-2.64,2.61-4.94,4.55-6.88,1.87-1.94,4.08-3.46,6.65-4.55,2.64-1.09,5.48-1.63,8.52-1.63h113.99c14,0,26.95,2.45,38.85,7.35,11.9,4.82,22.21,11.55,30.92,20.19,8.63,8.63,15.44,18.94,20.42,30.92,4.9,11.98,7.35,25.01,7.35,39.09h0Zm-42.24,37.92v-37.92c0-8.25-1.32-15.79-3.97-22.64-2.64-6.85-6.42-12.68-11.32-17.5-4.9-4.82-10.73-8.56-17.5-11.2-6.77-2.64-14.27-3.97-22.52-3.97h-92.99v148.53h92.99c8.25,0,15.75-1.32,22.52-3.97,6.77-2.64,12.6-6.38,17.5-11.2,4.9-4.82,8.67-10.62,11.32-17.38,2.64-6.77,3.97-14.35,3.97-22.75h0Zm217.37-78.06h58.22l-75.96,82.84,85.52,92.76h-58.22l-56.24-61.26-56.12,61.26h-58.34l85.29-93.11-75.61-82.49h57.87l46.67,50.87,46.9-50.87Z"/>
  </g>
</svg>