<?xml version="1.0" encoding="UTF-8"?>
<svg id="Layer_1" data-name="Layer 1" xmlns="http://www.w3.org/2000/svg" viewBox="0 0 421.2 117">
  <defs>
    <style>
      .cls-1 {
        fill: #e9262a;
      }

      .cls-2 {
        fill: #e8262a;
      }

      .cls-3 {
        fill: #fff;
      }

      .cls-4 {
        fill: #e9262d;
      }

      .cls-5 {
        fill: #0f0f0f;
      }

      .cls-6 {
        fill: #0d0e0e;
      }

      .cls-7 {
        fill: #e92629;
      }

      .cls-8 {
        fill: #101010;
      }
    </style>
  </defs>
  <rect class="cls-3" x="0" width="421.2" height="117"/>
  <rect class="cls-4" x="197.74" y="88.49" width="218.86" height="15.48"/>
  <path class="cls-1" d="M145.21,13.09v34.33c12.66-12.42,32.27-10,38.9,7.23s2.25,44.24-17.99,49.01c-8.6,2.03-16.04-.25-22.25-6.43.37,1.29-1.17,6.06-2.36,6.06h-13.81V13.09h17.51ZM153.78,52.96c-2.1.43-7.83,4.37-8.43,6.38.75,5.63-1.73,24.27.5,28.17,3.25,5.69,14.55,5.1,18.92.66,7.94-8.07,8.22-39.16-10.99-35.21Z"/>
  <path class="cls-2" d="M115.58,103.29h-11.11c-1.82,0-3.89-5.02-3.71-6.73-3.66,1.43-5.59,4.15-9.44,5.71-14.56,5.91-32.11.22-29.56-18.1,1.95-14.02,25.79-17.23,36.98-17.22.78-11.72-5.22-16.98-16.63-12.92-9.35,3.32-11.81,8.4-17.76-4.88,13.96-12.55,43.18-15.54,49.69,6.2.53,1.76,1.54,6.97,1.54,8.56v39.38ZM98.75,77.04c-6.94.89-24.1.91-20.57,12.15,1.74,5.53,10.9,4.03,14.97,2.1,1.01-.48,5.6-3.84,5.6-4.5v-9.76Z"/>
  <polygon class="cls-7" points="23.33 15.11 23.33 88.49 57.67 88.49 57.67 103.29 4.47 103.29 4.47 16.12 5.48 15.11 23.33 15.11"/>
  <path class="cls-6" d="M312.46,68.05c-15.72-16.17-9.41-46.97,12.71-53.8,28.49-8.8,52.01,16.73,41.05,44.4-8.16,20.6-38.78,24.81-53.76,9.4ZM323.24,61.32c3.4,3.23,9.55,5.16,14.21,4.96,25.07-1.09,23.8-45.66-3.94-42.34-17.25,2.06-20.95,27.24-10.27,37.38Z"/>
  <path class="cls-8" d="M274.85,13.09c2.55.2,6.57.96,9.09,1.68,17.97,5.13,17.31,28.71.68,35l18.18,26.59h-14.48c-.69,0-2.03-1.56-2.53-2.18-4.57-5.71-7.9-14.47-12.66-20.33-2.07-1.67-4.94-.91-7.37-1.05v23.56h-13.47V13.09h22.56ZM265.76,43.39c9.38,1.13,21.6-2.09,17.88-14.17-.59-1.93-4.96-5.35-6.77-5.35h-11.11v19.52Z"/>
  <path class="cls-8" d="M211.21,76.37h-13.47V14.1l1.01-1.01h22.9l5.9.83c19.91,3.07,23.14,31.13,4.89,38.9-.79.34-5.72,2-6.08,2h-14.14l-1.01,1.01v20.53ZM211.21,44.73h11.11c.19,0,3.1-1,3.51-1.2,6.02-3.02,6.82-13.49,1.78-17.54-.56-.45-3.52-2.12-3.94-2.12h-12.46v20.87Z"/>
  <path class="cls-5" d="M402.25,64.05c1.74-1.88,2.2-6.66.92-8.92-2.53-4.46-15.9-5.95-20.87-9.43-10.5-7.36-8.58-23.81,2.18-30.04,6.62-3.83,18.57-3.59,25.41-.23,6.14,3.02,6.45,4.98,2.29,10.42-3.72,4.86-6.8-1.01-11.57-1.82-3.62-.61-9.09-.84-11.26,2.56-6.66,10.41,13.79,12.22,19.63,16,7.51,4.86,9.07,12.1,6.74,20.47-5.05,18.11-31.78,17.79-42.78,5.59,1.74-1.9,3.58-7.38,6.31-7.77,3.09-.43,7.72,4.73,12.14,5.34,3.02.42,8.65.2,10.84-2.17Z"/>
</svg>