<?xml version="1.0" encoding="UTF-8"?>
<svg id="Layer_1" data-name="Layer 1" xmlns="http://www.w3.org/2000/svg" viewBox="0 0 419.03 112.25">
  <defs>
    <style>
      .cls-1 {
        fill: #fff;
      }

      .cls-2 {
        fill: #f1aa58;
      }

      .cls-3 {
        fill: #e04c51;
      }

      .cls-4 {
        fill: #ee9758;
      }

      .cls-5 {
        fill: #e56b54;
      }

      .cls-6 {
        fill: #ed9558;
      }

      .cls-7 {
        fill: #231f20;
      }
    </style>
  </defs>
  <rect class="cls-1" width="419.03" height="112.25"/>
  <path class="cls-6" d="M69.76,89.9h0c-.71,.19-1.44-.22-1.65-.92l-7.53-25.02c-.22-.73,.21-1.5,.95-1.7h0c.71-.19,1.44,.22,1.65,.92l7.53,25.02c.22,.73-.21,1.5-.95,1.7Z"/>
  <path class="cls-6" d="M74.29,93.38h0c-.33-.66,.06-1.53,.88-1.97l29.11-15.71c.85-.46,1.84-.27,2.19,.41h0c.33,.66-.06,1.53-.88,1.97l-29.11,15.71c-.85,.46-1.84,.27-2.19-.41Z"/>
  <path class="cls-6" d="M125.21,4.03h0c.51-.53,1.42-.49,2.08,.09l23.2,20.7c.68,.61,.81,1.57,.28,2.12h0c-.51,.53-1.42,.49-2.08-.09L125.49,6.15c-.68-.61-.81-1.57-.28-2.12Z"/>
  <path class="cls-2" d="M73.26,95.53h0c.14-.72,.97-1.18,1.89-1.04l32.68,5.1c.96,.15,1.63,.9,1.49,1.65h0c-.14,.72-.97,1.18-1.89,1.04l-32.68-5.1c-.96-.15-1.63-.9-1.49-1.65Z"/>
  <path class="cls-4" d="M111.63,74.22h0c.02-.73,1.18-1.33,2.62-1.34l51.2-.4c1.5-.01,2.72,.61,2.7,1.38h0c-.02,.73-1.18,1.33-2.62,1.34l-51.2,.4c-1.5,.01-2.72-.61-2.7-1.38Z"/>
  <path class="cls-4" d="M153.11,29.09h0c.71-.2,1.57,.57,1.94,1.74l13.33,41.65c.39,1.22,.1,2.4-.63,2.61h0c-.71,.2-1.57-.57-1.94-1.74l-13.33-41.65c-.39-1.22-.1-2.4,.63-2.61Z"/>
  <path class="cls-3" d="M112.27,71.55h0c-.53-.51-.19-1.75,.76-2.8l33.8-37.39c.99-1.1,2.26-1.56,2.81-1.03h0c.53,.51,.19,1.75-.76,2.8l-33.8,37.39c-.99,1.1-2.26,1.56-2.81,1.03Z"/>
  <path class="cls-5" d="M111.78,102.18h0c-.63-.38-.33-2.16,.68-4.01l35.85-66.05c1.05-1.94,2.46-3.21,3.12-2.81h0c.63,.38,.33,2.16-.68,4.01l-35.85,66.05c-1.05,1.94-2.46,3.21-3.12,2.81Z"/>
  <path class="cls-2" d="M110.22,74.33h0c-.7,.21-1.72-.92-2.3-2.57L87.25,13.16c-.61-1.72-.5-3.32,.23-3.55h0c.7-.21,1.72,.92,2.3,2.57l20.67,58.6c.61,1.72,.5,3.32-.23,3.55Z"/>
  <path class="cls-2" d="M111.01,76.31h0c.73,0,1.33,.51,1.34,1.14l.4,22.22c.01,.65-.61,1.18-1.38,1.17h0c-.73,0-1.33-.51-1.34-1.14l-.4-22.22c-.01-.65,.61-1.18,1.38-1.17Z"/>
  <path class="cls-3" d="M61.78,63.9h0c-.72-.14-1.19-.86-1.06-1.61l5.18-30.6c.13-.78,.86-1.31,1.62-1.16h0c.72,.14,1.19,.86,1.06,1.61l-5.18,30.6c-.13,.78-.86,1.31-1.62,1.16Z"/>
  <path class="cls-3" d="M86.82,11.04h0c-.09-.73,.55-1.42,1.45-1.56L124.83,3.67c.94-.15,1.79,.36,1.89,1.12h0c.09,.73-.55,1.42-1.45,1.56l-36.56,5.8c-.94,.15-1.79-.36-1.89-1.12Z"/>
  <path class="cls-3" d="M86.89,11.06h0c.21-.7,1.53-.97,2.99-.61l59.29,14.93c1.52,.38,2.6,1.31,2.38,2.04h0c-.21,.7-1.53,.97-2.99,.61l-59.29-14.93c-1.52-.38-2.6-1.31-2.38-2.04Z"/>
  <path class="cls-3" d="M126.1,3.97h0c.71,.19,.99,1.56,.64,3.09l-14.31,62.27c-.37,1.6-1.28,2.75-2.02,2.54h0c-.71-.19-.99-1.56-.64-3.09L124.08,6.51c.37-1.6,1.28-2.75,2.02-2.54Z"/>
  <path class="cls-3" d="M107.45,71.26l-.53,.49c-.39,.37-1.01,.35-1.39-.03l-39.04-39.03c-.4-.4-.39-1.05,.03-1.44l.53-.49c.39-.37,1.01-.35,1.39,.03l39.04,39.03c.4,.4,.39,1.05-.03,1.44Z"/>
  <path class="cls-6" d="M120.9,21.26h0c.39,.61,.24,1.42-.36,1.84l-57.71,40.93c-.63,.45-1.51,.28-1.93-.37h0c-.39-.61-.24-1.42,.36-1.84L118.97,20.89c.63-.45,1.51-.28,1.93,.37Z"/>
  <polygon class="cls-6" points="119.67 21.6 121.84 23.24 74.97 91.63 72.81 89.99 119.67 21.6"/>
  <circle class="cls-5" cx="84.35" cy="47.35" r="5.65"/>
  <circle class="cls-2" cx="70.83" cy="94.75" r="5.65"/>
  <circle class="cls-5" cx="112.42" cy="103.14" r="5.65"/>
  <circle class="cls-4" cx="109.96" cy="74.63" r="5.65"/>
  <circle class="cls-3" cx="122.03" cy="20.29" r="5.65"/>
  <circle class="cls-2" cx="152.66" cy="27.34" r="5.65"/>
  <g>
    <path class="cls-7" d="M118.86,77.52v-23.13h6.62v17.74h10.62v5.39h-17.24Z"/>
    <path class="cls-7" d="M139.36,77.52v-23.13h6.62v23.13h-6.62Z"/>
    <path class="cls-7" d="M151.31,77.52v-23.13h6.99l7.25,12.46h.3l-.59-4.36v-8.1h6.62v23.13h-6.99l-7.25-12.46h-.3l.59,4.36v8.1h-6.62Z"/>
    <path class="cls-7" d="M177.21,77.52v-23.13h17.24v3.7l-1.92,1.69h-8.69v3.54h6.99v5.15h-6.99v3.67h10.62v5.39h-17.24Z"/>
    <path class="cls-7" d="M196.6,77.52v-2.81l6.99-20.32h8.62l6.96,20.32v2.81h-6.59l-4.51-17.58h-.37l-4.51,17.58h-6.59Zm6.96-3.96v-5.19h8.81v5.19h-8.81Z"/>
    <path class="cls-7" d="M222.54,77.52v-23.13h14.43c1.11,0,2.08,.2,2.92,.61,.84,.41,1.49,.99,1.94,1.73,.46,.75,.68,1.62,.68,2.61v5.29c0,.88-.22,1.64-.65,2.26s-.96,1.11-1.57,1.44c-.62,.33-1.2,.5-1.74,.5h-.3v-1.39l4.92,7.24v2.84h-6.51l-4.03-7.93h-3.48v7.93h-6.62Zm12.14-13.32c.37,0,.65-.09,.85-.28s.3-.44,.3-.74v-2.38c0-.31-.1-.56-.3-.74-.2-.19-.48-.28-.85-.28h-5.51v4.43h5.51Z"/>
    <path class="cls-7" d="M262.38,77.52c-1.11,0-2.08-.2-2.92-.61-.84-.41-1.49-.99-1.94-1.73-.46-.75-.68-1.62-.68-2.61v-13.22c0-.99,.23-1.86,.68-2.61,.46-.75,1.1-1.33,1.94-1.73,.84-.41,1.81-.61,2.92-.61h12.51v3.7l-1.92,1.69h-8.29c-.39,0-.69,.09-.89,.28-.2,.19-.3,.44-.3,.74v10.31c0,.31,.1,.56,.3,.74,.2,.19,.49,.28,.89,.28h10.21v5.39h-12.51Z"/>
    <path class="cls-7" d="M276.93,77.52v-2.81l6.99-20.32h8.62l6.96,20.32v2.81h-6.59l-4.51-17.58h-.37l-4.51,17.58h-6.59Zm6.96-3.96v-5.19h8.81v5.19h-8.81Z"/>
    <path class="cls-7" d="M302.86,77.52v-23.13h14.43c1.11,0,2.08,.2,2.92,.61,.84,.41,1.49,.99,1.94,1.73,.46,.75,.68,1.62,.68,2.61v5.29c0,.88-.22,1.64-.65,2.26s-.96,1.11-1.57,1.44c-.62,.33-1.2,.5-1.74,.5h-.3v-1.39l4.92,7.24v2.84h-6.51l-4.03-7.93h-3.48v7.93h-6.62Zm12.14-13.32c.37,0,.65-.09,.85-.28s.3-.44,.3-.74v-2.38c0-.31-.1-.56-.3-.74-.2-.19-.48-.28-.85-.28h-5.51v4.43h5.51Z"/>
    <path class="cls-7" d="M327.69,77.52v-23.13h17.24v3.7l-1.92,1.69h-8.7v3.54h6.99v5.15h-6.99v3.67h10.62v5.39h-17.24Z"/>
    <path class="cls-7" d="M118.86,104.31v-23.13h14.54c1.11,0,2.08,.2,2.92,.61,.84,.41,1.49,.99,1.94,1.74,.46,.75,.68,1.62,.68,2.61v13.22c0,.99-.23,1.86-.68,2.61-.46,.75-1.1,1.33-1.94,1.73-.84,.41-1.81,.61-2.92,.61h-14.54Zm12.28-5.39c.34,0,.62-.09,.83-.28,.21-.19,.31-.43,.31-.74v-10.31c0-.31-.11-.56-.31-.74-.21-.19-.49-.28-.83-.28h-5.66v12.36h5.66Z"/>
    <path class="cls-7" d="M143.84,104.31v-23.13h6.62v23.13h-6.62Z"/>
    <path class="cls-7" d="M153.79,104.31v-2.81l6.99-20.32h8.62l6.96,20.32v2.81h-6.59l-4.51-17.58h-.37l-4.51,17.58h-6.59Zm6.96-3.96v-5.19h8.81v5.19h-8.81Z"/>
    <path class="cls-7" d="M184.09,104.31c-1.11,0-2.08-.2-2.92-.61-.84-.41-1.49-.99-1.94-1.73-.46-.75-.68-1.62-.68-2.61v-13.22c0-.99,.23-1.86,.68-2.61,.46-.75,1.1-1.33,1.94-1.74,.84-.41,1.81-.61,2.92-.61h12.51v3.7l-1.78,1.68h-8.44c-.39,0-.69,.09-.89,.28-.2,.19-.3,.44-.3,.74v10.31c0,.31,.1,.56,.3,.74,.2,.19,.49,.28,.89,.28h4.92v-7.67h6.66v13.05h-13.88Z"/>
    <path class="cls-7" d="M202.78,104.31v-23.13h6.99l7.25,12.46h.3l-.59-4.36v-8.1h6.62v23.13h-6.99l-7.25-12.46h-.3l.59,4.36v8.1h-6.62Z"/>
    <path class="cls-7" d="M233.79,104.64c-1.11,0-2.08-.2-2.92-.61-.84-.41-1.49-.99-1.94-1.73-.46-.75-.68-1.62-.68-2.61v-13.88c0-.99,.23-1.86,.68-2.61,.46-.75,1.1-1.33,1.94-1.73,.84-.41,1.81-.61,2.92-.61h9.4c1.11,0,2.08,.2,2.92,.61,.84,.41,1.49,.99,1.94,1.73,.46,.75,.68,1.62,.68,2.61v13.88c0,.99-.23,1.86-.68,2.61-.46,.75-1.1,1.33-1.94,1.73-.84,.41-1.81,.61-2.92,.61h-9.4Zm7.1-5.39c.34,0,.62-.09,.83-.28,.21-.19,.31-.44,.31-.74v-10.97c0-.31-.11-.56-.31-.74-.21-.19-.49-.28-.83-.28h-4.81c-.39,0-.69,.09-.89,.28-.2,.19-.3,.43-.3,.74v10.97c0,.31,.1,.56,.3,.74,.2,.19,.49,.28,.89,.28h4.81Z"/>
    <path class="cls-7" d="M252.58,104.31v-5.39h11.47c.34,0,.62-.09,.83-.28,.21-.19,.31-.43,.31-.74v-1.09c0-.24-.09-.47-.28-.68-.18-.21-.42-.34-.72-.38l-6.59-1.19c-1.01-.2-1.89-.53-2.65-.99-.75-.46-1.34-1.06-1.76-1.79-.42-.73-.63-1.53-.63-2.41v-3.24c0-.99,.23-1.86,.68-2.61,.46-.75,1.1-1.33,1.94-1.74,.84-.41,1.81-.61,2.92-.61h12.99v3.7l-1.92,1.68h-8.84c-.35,0-.62,.09-.83,.28-.21,.19-.31,.44-.31,.74v.69c0,.26,.1,.5,.3,.69,.2,.2,.44,.33,.74,.4l6.59,1.19c.99,.18,1.86,.5,2.63,.96,.76,.46,1.36,1.06,1.78,1.78,.42,.73,.63,1.53,.63,2.41v3.63c0,.99-.23,1.86-.68,2.61s-1.1,1.33-1.94,1.73c-.84,.41-1.81,.61-2.92,.61h-13.73Z"/>
    <path class="cls-7" d="M280.07,104.31v-17.51h-6.92v-5.62h20.5v3.9l-1.92,1.72h-5v17.51h-6.66Z"/>
    <path class="cls-7" d="M296.87,104.31v-23.13h6.62v23.13h-6.62Z"/>
    <path class="cls-7" d="M313.93,104.31c-1.11,0-2.08-.2-2.92-.61-.84-.41-1.49-.99-1.94-1.73-.46-.75-.68-1.62-.68-2.61v-13.22c0-.99,.23-1.86,.68-2.61,.46-.75,1.1-1.33,1.94-1.74,.84-.41,1.81-.61,2.92-.61h12.51v3.7l-1.92,1.68h-8.29c-.39,0-.69,.09-.89,.28-.2,.19-.3,.44-.3,.74v10.31c0,.31,.1,.56,.3,.74,.2,.19,.49,.28,.89,.28h10.21v5.39h-12.51Z"/>
    <path class="cls-7" d="M329.43,104.31v-5.39h11.47c.34,0,.62-.09,.83-.28,.21-.19,.31-.43,.31-.74v-1.09c0-.24-.09-.47-.28-.68-.18-.21-.42-.34-.72-.38l-6.59-1.19c-1.01-.2-1.89-.53-2.65-.99-.75-.46-1.34-1.06-1.76-1.79-.42-.73-.63-1.53-.63-2.41v-3.24c0-.99,.23-1.86,.68-2.61,.46-.75,1.1-1.33,1.94-1.74,.84-.41,1.81-.61,2.92-.61h12.99v3.7l-1.92,1.68h-8.84c-.35,0-.62,.09-.83,.28-.21,.19-.31,.44-.31,.74v.69c0,.26,.1,.5,.3,.69,.2,.2,.44,.33,.74,.4l6.59,1.19c.99,.18,1.86,.5,2.63,.96,.76,.46,1.36,1.06,1.78,1.78,.42,.73,.63,1.53,.63,2.41v3.63c0,.99-.23,1.86-.68,2.61s-1.1,1.33-1.94,1.73c-.84,.41-1.81,.61-2.92,.61h-13.73Z"/>
  </g>
</svg>