<?xml version="1.0" encoding="UTF-8"?>
<svg id="Layer_1" data-name="Layer 1" xmlns="http://www.w3.org/2000/svg" viewBox="0 0 421.2 117">
  <defs>
    <style>
      .cls-1 {
        fill: #fcfcfd;
      }

      .cls-2 {
        fill: #fff;
      }

      .cls-3 {
        fill: #d5ddec;
      }

      .cls-4 {
        fill: #92add2;
      }

      .cls-5 {
        fill: #bdbdbd;
      }

      .cls-6 {
        fill: #1d99bf;
      }

      .cls-7 {
        fill: #4a81b6;
      }

      .cls-8 {
        fill: #b22b2a;
      }

      .cls-9 {
        fill: #d8cee6;
      }

      .cls-10 {
        fill: #8da9ce;
      }

      .cls-11 {
        fill: #2c292f;
      }

      .cls-12 {
        fill: #435aad;
      }

      .cls-13 {
        fill: #5c6ab3;
      }

      .cls-14 {
        fill: #4b4748;
      }

      .cls-15 {
        fill: #9676b5;
      }

      .cls-16 {
        fill: #2e9cc1;
      }

      .cls-17 {
        fill: #29262c;
      }

      .cls-18 {
        fill: #1797c1;
      }

      .cls-19 {
        fill: none;
        stroke: #4a81b6;
        stroke-linecap: round;
        stroke-miterlimit: 10;
      }

      .cls-20 {
        fill: #beabd3;
      }

      .cls-21 {
        fill: #becce3;
      }

      .cls-22 {
        fill: #7278bb;
      }

      .cls-23 {
        fill: #bac9e1;
      }

      .cls-24 {
        fill: #9899cc;
      }

      .cls-25 {
        fill: #231f20;
      }
    </style>
  </defs>
  <rect class="cls-2" x="0" width="421.2" height="117"/>
  <path class="cls-25" d="M113.44,35.18c1.4,0,2.07,.59,2.07,1.85,0,.59-.15,1.18-.52,1.85l-19.19,33.14c-.59,1.03-1.4,1.92-2.58,2.58s-2.21,1.11-3.17,1.11H38.38c-1.4,0-2.14-.59-2.14-1.85,0-.59,.15-1.18,.52-1.85l19.19-33.14c.59-1.03,1.4-1.92,2.58-2.58,1.18-.74,2.21-1.11,3.25-1.11h51.66Zm-26.42,7.38c.37-.66,.52-1.25,.52-1.85,0-1.25-.66-1.85-2.07-1.85-1.03,0-2.07,.37-3.25,1.11-1.11,.74-1.99,1.62-2.58,2.58l-14.91,25.76c-.37,.66-.52,1.25-.52,1.85,0,1.25,.66,1.85,2.07,1.85,1.03,0,2.14-.37,3.25-1.11,1.18-.74,1.99-1.62,2.58-2.58l14.91-25.76h0Z"/>
  <path class="cls-25" d="M176.32,35.18c1.4,0,2.07,.59,2.07,1.85,0,.59-.15,1.18-.52,1.85l-4.28,7.38c-.59,1.03-1.4,1.92-2.58,2.58s-2.21,1.11-3.17,1.11h-18.45c-1.4,0-2.14-.59-2.14-1.85,0-.59,.15-1.18,.52-1.85l2.14-3.69c.37-.66,.52-1.25,.52-1.85,0-1.25-.66-1.85-2.07-1.85-1.03,0-2.14,.37-3.25,1.03-1.11,.74-1.99,1.62-2.58,2.58l-17.05,29.52c-.59,1.03-1.4,1.92-2.58,2.66s-2.21,1.11-3.17,1.11h-18.38c-1.4,0-2.14-.59-2.14-1.85,0-.59,.15-1.18,.52-1.85l19.19-33.14c.59-1.03,1.4-1.92,2.58-2.58,1.18-.74,2.21-1.11,3.25-1.11l51.59-.07h0Z"/>
  <path class="cls-25" d="M89.97,80.94c-.44-.74-1.4-1.03-2.95-1.03H30.26c-2.66,0-1.55-2.14-1.55-2.14L55.21,31.94c.59-1.11,.89-2.21,.89-3.54,0-.89-.15-1.55-.44-2.07l-10.18-17.34c-.3-.44-.66-.66-1.18-.66-.81,0-1.62,.66-2.36,1.99l-12.25,21.18L2.07,79.17c-.37,.66-.52,1.25-.52,1.85v.15h0s-.07,.66,.59,1.85c0,.07,.07,.15,.07,.15l9.45,16.09c.52,.81,1.33,1.62,2.58,2.21s2.36,.96,3.54,.89l56.75-.07c1.25,0,2.44-.3,3.54-.96,.74-.44,1.25-.89,1.55-1.48l10.33-17.71c.22-.3,.22-.74,0-1.18h0Z"/>
  <g>
    <path class="cls-25" d="M182.59,35.55v4.06h-.37v-4.06h-1.03v-.37h2.51v.37h-1.11Z"/>
    <path class="cls-25" d="M187.02,39.61v-2.8l-1.03,2.88h-.22l-1.03-2.88v2.8h-.37v-4.43h.22l1.33,3.62h0l1.33-3.62h.22v4.43h-.44Z"/>
  </g>
  <g>
    <path class="cls-23" d="M141.78,75.04c.15-1.18-.66-2.21-1.77-2.36s-2.21,.66-2.29,1.77,.66,2.21,1.77,2.36,2.14-.59,2.29-1.77Z"/>
    <path class="cls-20" d="M144.36,74.74c-.15,1.18,.66,2.21,1.77,2.36s2.21-.66,2.29-1.77-.66-2.21-1.77-2.36-2.21,.59-2.29,1.77Z"/>
    <path class="cls-15" d="M141.71,78.43c-1.25-.15-2.44,.74-2.58,1.99s.74,2.44,1.99,2.58,2.44-.74,2.58-1.99-.74-2.44-1.99-2.58Z"/>
    <path class="cls-10" d="M135.36,78.51c-1.25-.15-2.44,.74-2.58,1.99s.74,2.44,1.99,2.58,2.44-.74,2.58-1.99-.74-2.44-1.99-2.58Z"/>
    <path class="cls-21" d="M185.47,67.88c-.44-.07-.89,.07-1.25,.37h0c-1.33,1.03-3.99,.74-5.02-.59h0c-.3-.3-.66-.59-1.11-.59-.59-.07-1.11,.15-1.48,.59h0c-1.11,1.25-3.54,1.4-4.87,.3h0c-.22-.22-.59-.37-.89-.44-.66-.07-1.33,.22-1.62,.81h0c-.89,1.4-3.03,1.99-4.43,1.11h0c-.22-.15-.44-.22-.66-.22-.89-.15-1.77,.52-1.92,1.48s.52,1.77,1.48,1.92c.66,.07,1.33-.22,1.62-.81h0c.89-1.4,3.03-1.99,4.43-1.11h0c.22,.15,.44,.22,.66,.22,.59,.07,1.11-.15,1.48-.59h0c1.11-1.25,3.54-1.4,4.87-.3h0c.22,.22,.59,.37,.89,.44,.44,.07,.89-.07,1.25-.37h0c1.33-1.03,3.99-.74,5.02,.59h0c.3,.3,.66,.59,1.11,.59,.89,.15,1.77-.52,1.85-1.48,.22-.96-.44-1.85-1.4-1.92h0Z"/>
    <circle class="cls-4" cx="157.79" cy="73.41" r="1.85"/>
    <path class="cls-4" d="M152.7,74.67c-1.18-.15-2.21,.66-2.29,1.77s.66,2.21,1.77,2.36,2.21-.66,2.29-1.77c.15-1.18-.66-2.21-1.77-2.36Z"/>
    <path class="cls-7" d="M148.27,78.36c-1.25-.15-2.44,.74-2.58,1.99s.74,2.44,1.99,2.58,2.44-.74,2.58-1.99-.74-2.44-1.99-2.58Z"/>
    <path class="cls-9" d="M173.07,63.08c-.22-.22-.59-.44-.96-.52-.59-.07-1.11,.15-1.4,.59h0c-.89,1.25-4.06,1.7-5.24,.74h0c-.22-.15-.44-.22-.74-.3-.66-.07-1.25,.3-1.55,.81h0c-.66,1.33-3.25,2.29-4.72,1.48h0c-.15-.07-.37-.15-.59-.15-.81-.07-1.55,.44-1.85,1.18h0c-.52,1.62-2.14,2.58-3.99,2.07h0c-.07,0-.22-.07-.3-.07-1.03-.15-1.99,.59-2.07,1.62s.59,1.99,1.62,2.07c.96,.15,1.77-.52,2.07-1.33h0c.52-1.77,2.21-2.66,3.84-2.21h0c.07,0,.15,.07,.22,.07,.74,.07,1.4-.3,1.7-.96h0c.74-1.55,3.32-2.36,4.65-1.7h0c.15,.07,.3,.15,.44,.15,.59,.07,1.11-.15,1.4-.59h0c.89-1.25,4.06-1.7,5.24-.74h0c.22,.15,.44,.22,.74,.3,.44,.07,.89-.07,1.18-.37h0c1.11-1.03,4.43-.89,5.46,.22h0c.22,.22,.59,.44,.96,.52,.81,.07,1.55-.52,1.7-1.33,.07-.81-.52-1.62-1.33-1.7-.44-.07-.89,.07-1.18,.37h0c-.96,1.03-4.28,.89-5.31-.22h0Z"/>
    <path class="cls-3" d="M166.06,59.69c-.22-.22-.44-.3-.74-.37-.52-.07-1.03,.22-1.33,.59h0c-.74,1.18-4.21,1.99-5.46,1.18h0c-.15-.15-.37-.22-.66-.22-.66-.07-1.33,.3-1.62,.96h0c-.59,1.4-3.25,2.58-4.8,1.99h0c-.15-.07-.3-.07-.44-.15-.89-.15-1.7,.44-1.85,1.33h0c-.37,1.62-2.14,2.95-3.99,2.51h-.15c-1.03-.15-1.99,.59-2.07,1.62s.59,1.99,1.62,2.07,1.92-.52,2.07-1.55h0c.37-1.85,2.21-3.03,3.84-2.73h.07c.81,.07,1.55-.37,1.77-1.03h0c.59-1.55,3.32-2.66,4.72-2.14h0c.07,.07,.22,.07,.37,.07,.59,.07,1.18-.22,1.48-.74h0c.81-1.33,4.28-2.07,5.46-1.33h0c.15,.07,.37,.15,.52,.22,.44,.07,.89-.15,1.18-.44h0c.96-.96,4.87-1.11,5.83-.22h0c.22,.22,.44,.3,.74,.37,.74,.07,1.4-.44,1.55-1.18s-.44-1.4-1.18-1.55c-.44-.07-.89,.15-1.18,.44h0c-.81,1.03-4.72,1.18-5.76,.3h0Z"/>
  </g>
  <g>
    <path class="cls-7" d="M98.16,94.82c-.15,.3-.3,.52-.52,.74s-.44,.37-.74,.52-.59,.15-.96,.15h-3.1v-9.67h3.1c.3,0,.66,.07,.96,.15s.52,.3,.74,.52,.37,.44,.52,.74,.15,.59,.15,.96v4.94c0,.37,0,.66-.15,.96h0Zm-.66-5.9c0-.22-.07-.44-.15-.59s-.22-.37-.3-.52-.3-.22-.52-.3-.37-.15-.59-.15h-2.14v8.04h2.14c.22,0,.44-.07,.59-.15s.37-.22,.52-.3,.22-.3,.3-.52,.15-.37,.15-.59v-4.94h0Z"/>
    <path class="cls-7" d="M100.45,96.22v-9.67h.89v9.67h-.89Z"/>
    <path class="cls-7" d="M107.17,94.01h-3.1l-.66,2.29h-.89l2.88-9.67h.44l2.88,9.67h-.96l-.59-2.29Zm-2.88-.81h2.58l-1.25-4.5h0l-1.33,4.5h0Z"/>
    <path class="cls-7" d="M115.21,96.22h-.3l-.52-.81c-.22,.3-.44,.52-.74,.66s-.66,.22-1.03,.22h-.44c-.3,0-.66-.07-.96-.15s-.52-.3-.74-.52-.37-.44-.52-.74-.15-.59-.15-.96v-5.17c0-.3,.07-.66,.15-.96,.15-.3,.3-.52,.52-.74s.44-.37,.74-.52,.59-.15,.96-.15h.66c.3,0,.66,.07,.96,.15s.52,.3,.74,.52,.37,.44,.52,.74,.15,.59,.15,.96v.37l-.89,.15v-.52c0-.22-.07-.44-.15-.59s-.22-.37-.3-.52-.3-.22-.52-.3-.37-.15-.59-.15h-.59c-.22,0-.44,.07-.59,.15s-.37,.22-.52,.3-.22,.3-.3,.52-.15,.37-.15,.59v5.24c0,.22,.07,.44,.15,.59s.22,.37,.3,.52,.3,.22,.52,.3,.37,.15,.59,.15h.59c.22,0,.44-.07,.59-.15s.37-.22,.52-.3,.22-.3,.3-.52,.15-.37,.15-.59v-1.99h-1.55v-.81h2.44v5.02h0Z"/>
    <path class="cls-7" d="M122.37,96.22l-4.06-7.09-.07-.44v7.45h-.89v-9.59h.44l4.06,7.09,.07,.44v-7.53h.89v9.67h-.44Z"/>
    <path class="cls-7" d="M130.12,94.96c-.15,.3-.3,.52-.52,.74s-.44,.37-.74,.52-.59,.15-.96,.15h-.66c-.3,0-.66-.07-.96-.15s-.52-.3-.74-.52-.37-.44-.52-.74-.15-.59-.15-.96v-5.24c0-.3,.07-.66,.15-.96s.3-.52,.52-.74,.44-.37,.74-.52,.59-.15,.96-.15h.66c.3,0,.66,.07,.96,.15s.52,.3,.74,.52,.37,.44,.52,.74,.15,.59,.15,.96v5.24c.07,.37,0,.66-.15,.96Zm-.66-6.13c0-.22-.07-.44-.15-.59s-.22-.37-.3-.52-.3-.22-.52-.3-.37-.15-.59-.15h-.59c-.22,0-.44,.07-.59,.15s-.37,.22-.52,.3-.22,.3-.3,.52-.15,.37-.15,.59v5.24c0,.22,.07,.44,.15,.59s.22,.37,.3,.52,.3,.22,.52,.3,.37,.15,.59,.15h.59c.22,0,.44-.07,.59-.15s.37-.22,.52-.3,.22-.3,.3-.52,.15-.37,.15-.59v-5.24Z"/>
    <path class="cls-7" d="M137.72,94.01c0,.3-.07,.66-.22,.96s-.3,.52-.52,.74-.44,.37-.81,.52-.59,.15-.96,.15h-.66c-.3,0-.66-.07-.96-.15s-.59-.3-.81-.52-.37-.44-.52-.74-.22-.59-.22-.96v-.37l.89-.15v.52c0,.22,.07,.44,.15,.59s.22,.37,.37,.52,.3,.22,.52,.3,.44,.15,.59,.15h.59c.22,0,.44-.07,.59-.15s.37-.22,.52-.3,.3-.3,.37-.52,.15-.37,.15-.59v-.3c0-.3-.07-.59-.22-.81s-.3-.44-.52-.59-.44-.3-.74-.37-.59-.22-.81-.3-.59-.22-.81-.37-.52-.3-.74-.52-.37-.44-.52-.74-.22-.66-.22-1.03v-.22c0-.3,.07-.66,.15-.96s.3-.52,.52-.74,.44-.37,.74-.52,.59-.15,.96-.15h.59c.3,0,.66,.07,.96,.15s.52,.3,.74,.52,.37,.44,.52,.74,.15,.59,.15,.96v.22l-.89,.15v-.37c0-.22-.07-.44-.15-.59s-.22-.37-.3-.52-.3-.22-.52-.3-.37-.15-.59-.15h-.52c-.22,0-.44,.07-.59,.15s-.37,.22-.52,.3-.22,.3-.3,.52-.15,.37-.15,.59v.15c0,.3,.07,.59,.22,.81s.3,.37,.52,.52,.44,.3,.74,.37,.59,.22,.81,.37,.59,.22,.81,.37,.52,.3,.74,.52,.37,.44,.52,.74,.22,.66,.22,1.03l.15,.37h0Z"/>
    <path class="cls-7" d="M141.93,87.36v8.86h-.89v-8.86h-2.29v-.81h5.46v.81h-2.29Z"/>
    <path class="cls-7" d="M145.62,96.22v-9.67h.89v9.67h-.89Z"/>
    <path class="cls-7" d="M153.88,94.96c-.15,.3-.3,.52-.52,.74s-.44,.37-.74,.52-.59,.15-.96,.15h-.66c-.3,0-.66-.07-.96-.15s-.52-.3-.74-.52-.37-.44-.52-.74-.15-.59-.15-.96v-5.24c0-.3,.07-.66,.15-.96s.3-.52,.52-.74,.44-.37,.74-.52,.59-.15,.96-.15h.66c.3,0,.66,.07,.96,.15s.52,.3,.74,.52,.37,.44,.52,.74,.15,.59,.15,.96v.37l-.89,.15v-.52c0-.22-.07-.44-.15-.59s-.22-.37-.3-.52-.3-.22-.52-.3-.37-.15-.59-.15h-.59c-.22,0-.44,.07-.59,.15s-.37,.22-.52,.3-.22,.3-.3,.52-.15,.37-.15,.59v5.24c0,.22,.07,.44,.15,.59s.22,.37,.3,.52,.3,.22,.52,.3,.37,.15,.59,.15h.59c.22,0,.44-.07,.59-.15s.37-.22,.52-.3,.22-.3,.3-.52,.15-.37,.15-.59v-.52l.89,.15v.37c0,.3-.07,.66-.15,.96h0Z"/>
    <path class="cls-7" d="M161.34,94.01c0,.3-.07,.66-.22,.96s-.3,.52-.52,.74-.44,.37-.81,.52-.59,.15-.96,.15h-.66c-.3,0-.66-.07-.96-.15s-.59-.3-.81-.52-.37-.44-.52-.74-.22-.59-.22-.96v-.37l.89-.15v.52c0,.22,.07,.44,.15,.59s.22,.37,.37,.52,.3,.22,.52,.3,.44,.15,.59,.15h.59c.22,0,.44-.07,.59-.15s.37-.22,.52-.3,.3-.3,.37-.52,.15-.37,.15-.59v-.3c0-.3-.07-.59-.22-.81s-.3-.44-.52-.59-.44-.3-.74-.37-.59-.22-.81-.3-.59-.22-.81-.37-.52-.3-.74-.52-.37-.44-.52-.74-.22-.66-.22-1.03v-.22c0-.3,.07-.66,.15-.96s.3-.52,.52-.74,.44-.37,.74-.52,.59-.15,.96-.15h.59c.3,0,.66,.07,.96,.15s.52,.3,.74,.52,.37,.44,.52,.74,.15,.59,.15,.96v.22l-.89,.15v-.37c0-.22-.07-.44-.15-.59s-.22-.37-.3-.52-.3-.22-.52-.3-.37-.15-.59-.15h-.52c-.22,0-.44,.07-.59,.15s-.37,.22-.52,.3-.22,.3-.3,.52-.15,.37-.15,.59v.15c0,.3,.07,.59,.22,.81s.3,.37,.52,.52,.44,.3,.74,.37,.59,.22,.81,.37,.59,.22,.81,.37,.52,.3,.74,.52,.37,.44,.52,.74,.22,.66,.22,1.03l.15,.37h0Z"/>
  </g>
  <path d="M391.4,29.53c-.41,.08-.73-.16-.9-.65-.33-.73-.65-1.46-.98-2.2-.08-.24-.24-.33-.41-.33h-5.7c-.24,0-.41,.08-.49,.33-.33,.81-.73,1.63-1.06,2.36-.16,.33-.33,.41-.65,.41h-.41c-.41,0-.49-.16-.33-.57,.08-.24,.16-.49,.33-.65,1.63-3.66,3.34-7.24,4.96-10.9,.08-.16,.16-.41,.41-.41,.33-.08,.49,.08,.65,.41,.73,1.63,1.46,3.17,2.2,4.8,.98,2.2,1.95,4.39,2.93,6.59v.08c.24,.57,.16,.73-.57,.73h0Zm-7.81-4.23h5.04c.33,0,.24-.08,.16-.24-.81-1.71-1.55-3.5-2.36-5.21,0-.08-.08-.24-.16-.24-.16,0-.16,.16-.16,.24-.49,1.14-1.06,2.36-1.55,3.5-.33,.57-.65,1.22-.98,1.95h0Z"/>
  <path d="M396.52,17.08c.65,.08,1.55-.08,2.36,.08,1.87,.24,3.34,1.87,3.34,3.66,.08,2.03-1.22,3.74-3.09,4.15-.57,.08-1.14,.08-1.71,.08h-1.87c-.24,0-.33,.08-.33,.24v3.58c0,.49-.08,.57-.57,.57-.55,0-.81-.27-.81-.81v-11.31c0-.33,.08-.33,.33-.33,.81,.16,1.55,.08,2.36,.08h0Zm-1.22,4.07h0v2.28c0,.16,.08,.24,.24,.24h2.52c.33,0,.57,0,.9-.16,1.14-.33,1.95-1.55,1.87-2.6-.08-1.3-.98-2.28-2.28-2.36-.98-.08-1.95,0-2.85-.08-.33,0-.41,.08-.41,.41,.08,.73,0,1.55,0,2.28h0Z"/>
  <path d="M375.04,29.69c-3.17,0-5.86-2.28-6.35-5.45-.57-3.42,1.87-6.67,5.37-7.24,1.87-.33,3.58,.16,5.04,1.3,.49,.41,.49,.49,.08,.98-.49,.49-.41,.49-.98,.08-2.93-2.28-7-.98-7.97,2.6-.81,3.01,1.14,5.94,4.23,6.35,1.22,.16,2.28-.08,3.34-.81,.24-.16,.49-.33,.65-.49s.33-.08,.49,0h.08c.65,.57,.65,.65,0,1.22-1.14,.98-2.52,1.46-3.99,1.46h0Z"/>
  <path d="M370.89,36.85c.24-.57,.41-.98,.65-1.46,.08-.24,.24-.16,.41-.16,.24,0,.08,.16,.08,.24v1.79c0,.08,0,.24-.16,.24s-.16-.08-.16-.24v-1.46c-.16,.41-.41,.9-.57,1.38,0,.08-.08,.16-.08,.16,0,.08-.08,.16-.16,.16s-.16-.08-.16-.16c-.16-.41-.33-.81-.49-1.22,0-.08-.08-.16-.16-.16v1.38c0,.08,.08,.24-.16,.24s-.16-.16-.16-.24v-1.71c0-.08-.08-.24,.08-.24s.33-.08,.49,.16c.16,.41,.33,.81,.49,1.22,0-.16,0-.08,.08,.08h0Z"/>
  <path d="M383.91,35.55v1.63c0,.16,0,.24-.16,.24s-.16-.08-.16-.16v-1.79c0-.08-.08-.24,.08-.24s.33-.08,.41,.16c.16,.24,.33,.57,.57,.81s.33,.57,.57,.9v-1.63c0-.08,0-.24,.16-.24s.16,0,.16,.16v1.87c0,.08,0,.16-.08,.16-.16,0-.33,0-.41-.16-.33-.49-.65-.98-.98-1.38,0-.08,0-.16-.16-.33h0Z"/>
  <path d="M401.97,37.34c-.73,0-1.22-.49-1.22-1.22,0-.65,.49-1.22,1.22-1.22,.65,0,1.22,.49,1.22,1.22s-.49,1.22-1.22,1.22h0Zm-.81-1.14c0,.49,.33,.9,.81,.9s.81-.41,.81-.81c0-.49-.33-.9-.81-.9-.41-.08-.81,.33-.81,.81h0Z"/>
  <path d="M398.23,36.12c0,.73-.49,1.22-1.22,1.22-.65,0-1.22-.49-1.22-1.14s.49-1.22,1.22-1.22,1.22,.49,1.22,1.14Zm-1.95,.08c0,.49,.33,.9,.81,.9s.81-.41,.81-.9-.41-.9-.81-.9c-.49,0-.81,.33-.81,.9h0Z"/>
  <path d="M358.2,36.69c0,.65-.08,.73-.81,.73-.65,0-1.22-.41-1.22-.98-.08-.65,.24-1.22,.9-1.38,.33-.08,.65-.08,.98,.16,.08,0,.16,.08,.08,.16s-.08,.16-.24,.08c-.24-.16-.49-.16-.81-.08-.49,.16-.73,.73-.49,1.22,.16,.41,.81,.65,1.22,.41,.24-.16,.08-.33,.08-.49s-.16-.08-.24-.16c-.08,0-.24,0-.24-.16s.16-.16,.24-.16c.38,.06,.57,.27,.57,.65h0Z"/>
  <path d="M405.8,36.61c0,.65-.08,.73-.81,.73-.65,0-1.14-.33-1.3-.9-.16-.65,.16-1.22,.73-1.38,.41-.16,.73-.16,1.06,.08,.08,0,.24,.08,.16,.24s-.16,.16-.33,.08c-.41-.24-.98-.16-1.22,.33-.24,.41-.08,.98,.33,1.22,.24,.16,.57,.16,.81,0,.33-.08,.08-.33,.16-.57,0-.16-.16-.08-.24-.08s-.24,.08-.24-.16c0-.16,.16-.16,.24-.16,.49,0,.65,.16,.65,.57h0Z"/>
  <path d="M348.27,37.42c-.65,0-1.22-.49-1.22-1.22s.49-1.22,1.22-1.22c.65,0,1.22,.49,1.22,1.22-.08,.73-.57,1.22-1.22,1.22h0Zm.81-1.14c0-.49-.33-.9-.81-.9s-.9,.33-.9,.9c0,.49,.33,.9,.81,.9s.9-.41,.9-.9h0Z"/>
  <path d="M376.75,37.34c-.33,.08-.49,0-.57-.24-.08-.16-.24-.41-.33-.57s-.16-.16-.33-.16-.08,.16-.08,.24v.57c0,.16-.08,.16-.16,.16s-.16-.08-.16-.16v-1.87c0-.11,.06-.16,.16-.16h.81c.33,0,.49,.16,.57,.49s0,.57-.33,.65c-.24,.08-.16,.16-.08,.33,.16,.24,.33,.49,.49,.73h0Zm-1.3-1.55c0,.24-.08,.41,.24,.41,.41,0,.57-.08,.57-.41,0-.24-.16-.33-.57-.33-.24-.08-.24,.08-.24,.33h0Z"/>
  <path d="M393.35,36.12v-.9c0-.16,0-.24,.16-.24s.16,.08,.16,.16c0,.24-.08,.57,.08,.65,.16,.16,.49,0,.73,.08,.33,.08,.41-.08,.41-.41v-.41c0-.08,.08-.16,.16-.16s.16,0,.16,.16v2.03c0,.16-.08,.16-.16,.16s-.16-.08-.16-.16v-.65c0-.16,0-.24-.16-.24h-.08c-.24,0-.65-.08-.81,.08s0,.49-.08,.81c0,.08,0,.24-.16,.24s-.16-.08-.16-.24c-.08-.33-.08-.65-.08-.98h0Z"/>
  <path d="M390.99,37.26c-.24,.08-.41,0-.49-.24s-.16-.33-.41-.24h-.33c-.33-.08-.57,0-.57,.41,0,.16-.16,.16-.24,.16-.11,0-.14-.06-.08-.16,.33-.65,.57-1.3,.9-1.95,0-.08,.08-.16,.24-.16,.08,0,.16,0,.16,.16,.24,.65,.49,1.38,.81,2.03h0Zm-1.14-1.79c-.16,.41-.24,.65-.41,.98h.81c-.08-.33-.24-.57-.41-.98h0Z"/>
  <path d="M372.85,36.28v-.98c0-.11,.06-.16,.16-.16h1.14c.08,0,.16,0,.16,.16s-.08,.16-.16,.16h-.73c-.16,0-.24,0-.24,.24,0,.27,.14,.41,.41,.41h.49c.08,0,.16,0,.16,.16s-.08,.16-.16,.16h-.65c-.16,0-.24,.08-.24,.24v.24c0,.16,.08,.16,.16,.16h.81c.08,0,.16,0,.16,.16s-.08,.16-.16,.16h-1.14c-.16,0-.24-.08-.16-.24v-.9h0Z"/>
  <path d="M359.01,36.28v-.9c0-.16,.08-.24,.24-.16h1.06c.08,0,.24,0,.24,.16s-.16,.16-.24,.16h-.73c-.33,0-.16,.16-.16,.33s-.08,.33,.16,.33h.65c.11,0,.16,.06,.16,.16,0,.16-.08,.16-.16,.16h-.65c-.16,0-.24,0-.24,.16v.24c0,.16,0,.24,.24,.24h.73c.08,0,.24,0,.24,.16s-.08,.16-.24,.16h-1.14c-.16,0-.24-.08-.16-.24,.08-.41,.08-.73,0-.98h0Z"/>
  <path class="cls-8" d="M360.48,24.16c0,.41-.33,.73-.73,.73s-.73-.33-.73-.81c0-.41,.33-.73,.73-.73,.33,.08,.73,.41,.73,.81h0Z"/>
  <path class="cls-8" d="M356.08,26.93c.41,0,.73,.33,.73,.73s-.33,.81-.73,.73c-.41,0-.73-.33-.73-.81-.08-.33,.24-.65,.73-.65Z"/>
  <path class="cls-18" d="M365.77,22.37c0,.41-.33,.73-.73,.73s-.81-.33-.81-.73,.33-.73,.73-.73c.49,0,.81,.33,.81,.73h0Z"/>
  <path class="cls-18" d="M357.87,28.63c.41,0,.73,.33,.73,.73s-.33,.81-.73,.81-.81-.33-.81-.73,.33-.81,.81-.81h0Z"/>
  <path class="cls-18" d="M356.82,18.79c0,.41-.33,.73-.73,.73s-.81-.33-.73-.73c0-.41,.33-.73,.73-.73,.41-.08,.73,.24,.73,.73h0Z"/>
  <path class="cls-18" d="M358.61,22.37c0,.41-.33,.73-.73,.73s-.81-.33-.73-.81c0-.41,.41-.73,.81-.73,.33,.08,.65,.41,.65,.81h0Z"/>
  <path class="cls-18" d="M352.5,24.97c-.41,0-.73-.33-.73-.73s.33-.73,.73-.73,.81,.33,.81,.81c-.08,.33-.41,.65-.81,.65h0Z"/>
  <path d="M354.05,36.28v-.9c0-.16,0-.24,.16-.24h1.06c.08,0,.16,0,.16,.16s-.08,.16-.16,.16h-.81c-.33,0-.16,.16-.16,.33s-.08,.33,.16,.33h.73c.08,0,.16,0,.16,.16s-.08,.16-.16,.16h-.65c-.16,0-.24,0-.24,.16v.24c0,.16,0,.24,.16,.24h.81c.11,0,.16,.06,.16,.16,0,.16-.08,.16-.16,.16h-1.22c-.16,0-.16-.08-.16-.16,.16-.41,.16-.73,.16-.98h0Z"/>
  <path class="cls-18" d="M359.66,16.35c.49,0,.73,.33,.73,.73s-.33,.73-.73,.73-.81-.33-.81-.73,.41-.73,.81-.73h0Z"/>
  <path d="M369.1,37.34c-.33,.08-.41,0-.49-.24s-.16-.33-.41-.24h-.33c-.33-.08-.57,0-.65,.41-.08,.24-.24,.16-.41,.16,.33-.73,.65-1.46,.98-2.12,.08-.16,.33-.16,.41,0,.33,.65,.65,1.3,.9,2.03h0Zm-.65-.81c-.16-.33-.24-.65-.41-.98-.16,.41-.24,.65-.41,.98h.81Z"/>
  <path d="M383.02,37.34c-.24,.08-.41,0-.49-.24s-.16-.33-.41-.24h-.24c-.33-.08-.57,0-.65,.41-.08,.24-.24,.08-.41,.16,.16-.41,.33-.81,.49-1.22,.16-.33,.24-.57,.41-.9,.08-.16,.33-.24,.41-.08,.33,.73,.57,1.38,.9,2.12h0Zm-.73-.81c-.16-.33-.24-.65-.41-.98-.16,.33-.24,.65-.41,.98h.81Z"/>
  <path d="M387.08,36.2v-.9c0-.16,0-.24,.24-.24,.33,0,.57,0,.9,.08s.49,.24,.49,.57-.16,.57-.49,.65c-.08,0-.16,0-.33,.08-.27,0-.41,.14-.41,.41v.41c0,.16-.08,.16-.16,.16s-.16-.08-.16-.16c-.08-.41-.08-.73-.08-1.06h0Zm.33-.57c0,.24-.08,.41,.33,.41s.57-.08,.57-.41c0-.24-.16-.33-.57-.33-.24,0-.33,.08-.33,.33h0Z"/>
  <path d="M408.4,37.34c-.24,0-.41,0-.57-.16-.08-.08-.24-.08-.08-.16,.08-.08,.16-.24,.33-.08,.08,.16,.24,.16,.41,.16s.33-.08,.41-.33c0-.24-.08-.24-.33-.33-.16-.08-.33-.08-.49-.16-.24-.08-.41-.33-.33-.57,0-.24,.16-.41,.41-.57,.33-.16,.57-.08,.9,0,.08,0,.24,.08,.08,.16-.08,.08-.08,.24-.33,.08-.08-.08-.16-.08-.24-.08-.16,0-.41,0-.49,.24s.08,.41,.33,.41c.08,0,.16,0,.16,.08,.49,.16,.65,.41,.57,.81-.08,.33-.41,.49-.73,.49h0Z"/>
  <path d="M412.71,34.98c.16,0,.33,0,.49,.08,.08,.08,.24,.08,.16,.24-.08,.08-.16,.24-.33,.08-.08-.08-.16-.08-.33-.08s-.41,0-.41,.24c-.08,.24,.08,.33,.24,.41s.33,.08,.41,.16c.41,.16,.49,.73,.16,1.06-.33,.24-.9,.24-1.14,0-.08-.08-.16-.08-.08-.16s.16-.24,.24-.08c.16,.16,.41,.16,.57,.16,.16-.08,.24-.16,.24-.33s-.08-.24-.24-.24c-.08-.08-.24-.08-.33-.16-.41-.16-.65-.41-.57-.81,.16-.33,.49-.57,.9-.57h0Z"/>
  <path d="M379.6,37.42c-.49,0-.9-.24-1.14-.73-.16-.49,0-.98,.33-1.3s.9-.41,1.3-.16c.08,.08,.33,.08,.24,.24s-.24,.16-.41,0c-.33-.24-.73-.16-.98,.16-.33,.33-.24,.9,0,1.22,.24,.24,.73,.33,1.06,.08,.08,0,.08-.16,.16-.08,.08,0,.16,.08,.24,.16,0,.08-.08,.08-.08,.16-.24,.16-.49,.24-.73,.24h0Z"/>
  <path d="M344.86,36.28c0,.33,.08,.57,.41,.73s.65,.16,.9-.08c.16-.16,.24,0,.33,.08s0,.16-.08,.24c-.41,.33-1.06,.33-1.46,0-.49-.41-.57-1.14-.24-1.63,.33-.49,.98-.65,1.55-.33,.08,.08,.24,.08,.16,.24-.08,.16-.16,.16-.41,.08-.24-.16-.49-.16-.81,0s-.33,.24-.33,.65h0Z"/>
  <path d="M410.36,36.28v-.73c0-.16-.08-.24-.24-.24h-.33c-.08,0-.16,0-.16-.16,0-.08,0-.16,.16-.16h1.46c.16,0,.16,.08,.16,.16,0,.16-.08,.16-.16,.16-.38,0-.57,.19-.57,.57v1.22c0,.08,0,.16-.16,.16s-.16-.08-.16-.24v-.73h0Z"/>
  <path d="M363.9,36.61c0,.41-.41,.81-.81,.81s-.81-.41-.81-.81,.41-.81,.81-.81c.49,0,.9,.41,.81,.81h0Zm-.33,0c0-.33-.16-.49-.49-.49s-.49,.16-.49,.49,.16,.49,.49,.49c.33,.08,.57-.16,.49-.49h0Z"/>
  <path d="M398.96,36.12v-.81c0-.08-.08-.33,.16-.33s.16,.16,.16,.33v1.46c0,.16,.08,.24,.24,.24h.65c.08,0,.16,0,.16,.16s-.08,.16-.16,.16h-1.06c-.16,0-.16-.08-.16-.16v-1.06h0Z"/>
  <path d="M391.72,36.36v-.81c0-.16,0-.24-.24-.24h-.41c-.08,0-.16,0-.16-.16,0-.08,0-.16,.16-.16h1.46c.16,0,.16,.08,.16,.16,0,.16-.08,.16-.16,.16-.16,0-.41-.08-.57,0-.16,.16,0,.41-.08,.65v1.14c0,.11-.06,.16-.16,.16-.16,0-.16-.08-.16-.16,.16-.24,.16-.49,.16-.73h0Z"/>
  <path d="M350.14,36.28v-.9c0-.08,0-.24,.16-.24s.16,.16,.16,.24v1.46c0,.16,0,.24,.24,.24h.65c.11,0,.16,.06,.16,.16,0,.16-.08,.16-.16,.16h-.98c-.16,0-.16-.08-.16-.16-.08-.41-.08-.73-.08-.98h0Z"/>
  <path d="M352.1,36.28v-.9c0-.08,0-.24,.16-.24s.16,.16,.16,.24v1.46c0,.16,0,.24,.24,.24h.65c.08,0,.16,0,.24,.16,0,.16-.08,.16-.16,.16h-.98c-.16,0-.16-.08-.16-.16-.16-.41-.16-.73-.16-.98h0Z"/>
  <path d="M364.71,36.77v-.41c0-.16,0-.24-.16-.16-.08,0-.16,0-.16-.08s0-.16,.08-.16c.33,0,.24-.16,.24-.33,0-.41,.24-.65,.65-.57,.08,0,.16,0,.08,.16,0,.08,0,.16-.08,.16-.24,0-.33,.16-.33,.33s0,.41,.24,.33c.08,0,.08,.08,.08,.16s-.08,.08-.16,.08c-.16,0-.24,.08-.24,.24v.81c0,.08,0,.16-.16,.16s-.16-.08-.16-.16c.08-.24,.08-.41,.08-.57h0Z"/>
  <path class="cls-8" d="M361.45,28.23c-.33,0-.57-.24-.57-.57s.24-.57,.57-.57,.57,.24,.57,.57c0,.24-.24,.57-.57,.57h0Z"/>
  <path class="cls-11" d="M356.57,29.45c0,.33-.24,.57-.57,.49-.33,0-.57-.24-.49-.57,0-.33,.33-.57,.57-.49,.33,0,.49,.24,.49,.57h0Z"/>
  <path class="cls-11" d="M357.87,20.09c.33,0,.57,.24,.57,.57s-.24,.49-.57,.49-.57-.24-.57-.57c0-.24,.24-.49,.57-.49h0Z"/>
  <path class="cls-11" d="M360.23,27.66c0,.33-.24,.57-.49,.57-.33,0-.57-.24-.57-.57s.24-.57,.49-.57,.57,.24,.57,.57Z"/>
  <path class="cls-17" d="M358.44,24.16c0,.33-.24,.57-.57,.49-.33,0-.49-.24-.49-.57s.24-.57,.57-.49c.24,.08,.49,.33,.49,.57h0Z"/>
  <path class="cls-8" d="M356.57,20.58c0,.33-.24,.49-.57,.49s-.57-.24-.57-.57,.24-.57,.57-.57c.33,.16,.57,.41,.57,.65h0Z"/>
  <path class="cls-17" d="M358.44,17.08c0,.33-.24,.49-.49,.57-.33,0-.57-.24-.57-.49s.24-.57,.57-.57c.24-.08,.49,.16,.49,.49Z"/>
  <path class="cls-17" d="M363.24,25.38c.33,0,.57,.24,.57,.57s-.24,.49-.57,.49-.57-.24-.57-.57c.08-.33,.33-.49,.57-.49Z"/>
  <path class="cls-17" d="M354.78,20.58c0,.33-.24,.57-.49,.57-.33,0-.57-.24-.57-.57s.24-.57,.49-.57c.33,0,.57,.24,.57,.57Z"/>
  <path class="cls-17" d="M362.02,18.87c0,.33-.24,.57-.57,.49-.33,0-.49-.24-.49-.57s.24-.57,.57-.49c.24,.08,.49,.33,.49,.57h0Z"/>
  <path class="cls-17" d="M359.66,21.88c.33,0,.57,.24,.57,.57s-.24,.57-.57,.57-.57-.24-.57-.57,.24-.57,.57-.57Z"/>
  <path class="cls-17" d="M356.57,25.87c0,.33-.24,.57-.49,.57-.33,0-.57-.24-.57-.49,0-.33,.24-.57,.49-.57,.33-.08,.57,.16,.57,.49h0Z"/>
  <path class="cls-17" d="M365.03,24.73c-.33,0-.57-.24-.57-.57s.24-.49,.57-.49,.57,.24,.57,.57c0,.24-.24,.49-.57,.49Z"/>
  <path class="cls-17" d="M363.81,22.37c0,.33-.24,.57-.57,.57s-.57-.24-.57-.57,.24-.57,.57-.57c.33,.08,.57,.33,.57,.57Z"/>
  <path class="cls-17" d="M354.78,24.16c0,.33-.24,.57-.57,.57s-.49-.24-.57-.49c0-.33,.24-.57,.57-.57s.57,.24,.57,.49Z"/>
  <path class="cls-8" d="M362.02,17.08c0,.33-.24,.49-.57,.57-.33,0-.57-.24-.57-.57s.24-.49,.57-.49,.57,.16,.57,.49Z"/>
  <path class="cls-8" d="M365.6,25.87c0,.33-.24,.49-.57,.49s-.57-.24-.57-.49c0-.33,.24-.57,.57-.57,.33,.08,.57,.33,.57,.57h0Z"/>
  <path class="cls-8" d="M359.66,18.38c.33,0,.57,.24,.57,.49,0,.33-.24,.57-.57,.57s-.57-.24-.57-.49c0-.33,.24-.57,.57-.57h0Z"/>
  <path class="cls-17" d="M354.29,19.44c-.33,0-.57-.24-.57-.49,0-.33,.24-.57,.57-.57s.57,.24,.57,.57c-.08,.24-.33,.49-.57,.49Z"/>
  <path class="cls-18" d="M362.02,29.45c0,.33-.24,.49-.57,.49s-.57-.24-.57-.57,.33-.49,.57-.49c.33,0,.57,.24,.57,.57h0Z"/>
  <path class="cls-8" d="M362.02,22.37c0,.33-.24,.49-.57,.49s-.57-.24-.57-.49c0-.33,.24-.57,.57-.57,.33,.08,.57,.33,.57,.57h0Z"/>
  <path class="cls-8" d="M354.29,25.38c.33,0,.49,.24,.49,.49,0,.33-.24,.57-.57,.57s-.49-.24-.49-.57,.24-.49,.57-.49h0Z"/>
  <path class="cls-18" d="M356.57,24.16c0,.33-.24,.57-.57,.57s-.57-.24-.57-.49c0-.33,.24-.57,.57-.57s.57,.24,.57,.49Z"/>
  <path class="cls-18" d="M363.81,20.58c0,.33-.24,.57-.49,.57-.33,0-.57-.24-.57-.49,0-.33,.24-.57,.57-.57,.24,0,.49,.24,.49,.49Z"/>
  <path class="cls-18" d="M353.07,20.58c0,.33-.24,.57-.49,.57-.33,0-.57-.24-.57-.49,0-.33,.24-.57,.57-.57,.24,0,.49,.24,.49,.49h0Z"/>
  <path class="cls-5" d="M352.02,25.87c0-.33,.24-.49,.57-.49s.49,.24,.49,.57-.24,.57-.57,.49-.57-.24-.49-.57h0Z"/>
  <path class="cls-18" d="M359.66,26.44c-.33,0-.57-.24-.57-.49,0-.33,.24-.49,.57-.57,.33,0,.57,.24,.57,.57,0,.24-.24,.49-.57,.49Z"/>
  <path class="cls-18" d="M363.24,28.15c-.33,0-.57-.24-.49-.49,0-.33,.24-.57,.57-.57s.57,.24,.57,.57c-.08,.33-.33,.49-.65,.49h0Z"/>
  <path class="cls-18" d="M363.24,24.73c-.33,0-.49-.24-.49-.57s.24-.49,.57-.49,.49,.24,.49,.57c0,.24-.24,.49-.57,.49Z"/>
  <path class="cls-5" d="M361.45,21.15c-.33,0-.57-.24-.57-.49s.33-.57,.57-.57,.49,.33,.49,.57c.08,.24-.16,.49-.49,.49h0Z"/>
  <path class="cls-18" d="M354.78,27.66c0,.33-.24,.49-.57,.49s-.49-.24-.49-.49c0-.33,.24-.57,.57-.57s.49,.24,.49,.57h0Z"/>
  <path class="cls-5" d="M354.21,22.94c-.33,0-.57-.24-.49-.49,0-.33,.24-.57,.57-.57s.49,.24,.49,.57c0,.24-.24,.49-.57,.49h0Z"/>
  <path class="cls-5" d="M362.02,24.16c0,.33-.24,.57-.49,.49-.33,0-.57-.24-.57-.57s.24-.49,.57-.49c.24,.08,.49,.33,.49,.57Z"/>
  <path class="cls-5" d="M357.39,18.87c0-.33,.24-.49,.57-.49,.24,0,.57,.24,.49,.57,0,.24-.24,.49-.57,.49s-.57-.24-.49-.57h0Z"/>
  <path class="cls-5" d="M365.52,20.58c0,.33-.16,.49-.49,.49s-.57-.24-.57-.49c0-.33,.24-.57,.57-.57s.49,.33,.49,.57h0Z"/>
  <path class="cls-5" d="M357.39,25.87c0-.33,.16-.57,.49-.57s.57,.24,.57,.49-.24,.49-.57,.57c-.33,.08-.49-.16-.49-.49h0Z"/>
  <path d="M406.94,36.2v.98c0,.08,0,.16-.16,.16s-.16-.08-.16-.16v-1.95c0-.16,.08-.16,.16-.16,.16,0,.16,.08,.16,.16v.98h0Z"/>
  <path d="M377.65,36.28v.9c0,.08,0,.16-.16,.16s-.16-.08-.16-.16v-1.87c0-.08,0-.16,.16-.16s.16,.08,.16,.16v.98Z"/>
  <path class="cls-11" d="M355.76,22.37c0-.24,.16-.33,.33-.33s.33,.16,.33,.33-.08,.33-.33,.33-.33-.08-.33-.33Z"/>
  <path class="cls-11" d="M361.78,25.87c0,.24-.08,.33-.33,.33-.16,0-.33-.08-.33-.33,0-.16,.08-.33,.33-.33s.33,.16,.33,.33h0Z"/>
  <path class="cls-11" d="M352.83,22.37c0,.16-.08,.33-.33,.33-.16,0-.33-.08-.33-.33s.08-.33,.33-.33,.33,.16,.33,.33h0Z"/>
  <path class="cls-11" d="M359.66,29.77c-.16,0-.33-.08-.33-.33s.08-.33,.33-.33c.16,0,.33,.08,.33,.33s-.08,.24-.33,.33h0Z"/>
  <path class="cls-11" d="M357.87,27.98c-.16,0-.33-.08-.33-.33s.08-.33,.33-.33c.16,0,.33,.08,.33,.33,0,.16-.08,.33-.33,.33h0Z"/>
  <path class="cls-11" d="M363.65,18.87c0,.24-.16,.33-.33,.33s-.33-.16-.33-.33,.08-.33,.33-.33,.24,.16,.33,.33h0Z"/>
  <path class="cls-18" d="M356.41,17.08c0,.24-.08,.33-.33,.33s-.33-.08-.33-.33c0-.16,.08-.33,.33-.33,.16,0,.24,.08,.33,.33Z"/>
  <path class="cls-18" d="M359.99,20.58c0,.24-.08,.33-.33,.33-.16,0-.33-.08-.33-.33s.08-.33,.33-.33,.33,.16,.33,.33h0Z"/>
  <path class="cls-16" d="M404.99,32.78c-.16,0-.33-.08-.33-.24s.08-.24,.24-.24,.33,.08,.33,.24-.08,.24-.24,.24Z"/>
  <path class="cls-16" d="M351.12,32.21c.16,0,.33,.08,.33,.24s-.08,.33-.33,.33c-.16,0-.33-.08-.33-.33,.08-.16,.16-.24,.33-.24Z"/>
  <path class="cls-16" d="M378.05,32.78c-.16,0-.24-.16-.24-.24,0-.16,.08-.33,.33-.24,.16,0,.24,.16,.24,.24,0,.16-.16,.24-.33,.24Z"/>
  <path class="cls-16" d="M362.51,32.54c0,.16-.16,.33-.33,.24-.16,0-.24-.16-.24-.24,0-.16,.16-.24,.33-.24,.16-.08,.24,.08,.24,.24h0Z"/>
  <path class="cls-16" d="M393.92,32.21c.16,0,.33,.08,.33,.24s-.08,.33-.33,.24c-.16,0-.24-.08-.24-.24-.08-.16,.08-.24,.24-.24h0Z"/>
  <path class="cls-16" d="M367.23,32.46c0,.16-.08,.24-.24,.24s-.33-.08-.33-.24,.08-.33,.33-.24c.16,0,.24,.16,.24,.24h0Z"/>
  <path class="cls-16" d="M382.85,32.78c-.24,0-.33-.08-.33-.33,0-.16,.08-.24,.33-.24,.16,0,.33,.08,.33,.33-.08,.16-.16,.24-.33,.24Z"/>
  <path class="cls-16" d="M389.12,32.78c-.16,0-.33-.08-.33-.24s.08-.33,.33-.33c.16,0,.24,.08,.33,.24,0,.24-.08,.33-.33,.33h0Z"/>
  <path class="cls-16" d="M346.73,32.46c0,.16-.08,.24-.24,.33-.16,0-.33-.08-.33-.24s.08-.24,.24-.33c.16,0,.24,.08,.33,.24h0Z"/>
  <path class="cls-16" d="M373.58,32.46c0,.16-.08,.24-.24,.33-.16,0-.33-.08-.33-.24s.08-.24,.24-.33c.24,0,.33,.08,.33,.24Z"/>
  <path class="cls-16" d="M409.7,32.78c-.16,0-.33-.08-.33-.24s.08-.24,.24-.24,.33,.08,.33,.24-.08,.24-.24,.24Z"/>
  <path class="cls-16" d="M359.09,32.78c-.16,0-.33-.08-.33-.24s.08-.33,.24-.33,.33,.08,.33,.24c0,.24-.08,.33-.24,.33Z"/>
  <path class="cls-16" d="M370.16,32.78c-.16,0-.33-.08-.33-.24s.08-.33,.33-.33c.16,0,.33,.08,.24,.33,0,.16-.08,.24-.24,.24Z"/>
  <path class="cls-16" d="M371.71,32.21c.16,0,.33,.08,.24,.33,0,.16-.08,.24-.24,.24s-.24-.08-.33-.24c.08-.24,.16-.33,.33-.33h0Z"/>
  <path class="cls-16" d="M375.21,32.46c0,.16-.08,.24-.24,.24s-.33-.08-.33-.24,.08-.24,.24-.24,.24,.08,.33,.24h0Z"/>
  <path class="cls-16" d="M376.75,32.46c0,.16-.08,.24-.24,.24s-.33-.08-.33-.24,.08-.33,.33-.24c.16,0,.24,.08,.24,.24h0Z"/>
  <path class="cls-16" d="M364.14,32.46c0,.16-.08,.24-.24,.33-.16,0-.33-.08-.33-.24s.08-.24,.24-.24c.16-.08,.24,0,.33,.16h0Z"/>
  <path class="cls-16" d="M348.27,32.46c0,.16-.08,.24-.33,.24-.16,0-.24-.08-.24-.24s.08-.24,.24-.24c.24,0,.33,.08,.33,.24h0Z"/>
  <path class="cls-16" d="M349.57,32.21c.16,0,.33,.16,.24,.33,0,.16-.08,.24-.33,.24-.16,0-.24-.08-.24-.24,.08-.24,.16-.33,.33-.33Z"/>
  <path class="cls-16" d="M413.12,32.54c0,.16-.08,.24-.24,.24s-.33-.08-.33-.24,.08-.24,.24-.24c.24-.08,.33,0,.33,.24h0Z"/>
  <path class="cls-16" d="M365.36,32.21c.16,0,.33,.08,.33,.24s-.08,.33-.24,.33-.24-.08-.33-.24c0-.24,.08-.33,.24-.33h0Z"/>
  <path class="cls-16" d="M408.4,32.46c0,.16-.08,.33-.24,.33s-.33-.08-.33-.24,.08-.24,.33-.24c.16-.08,.24,0,.24,.16h0Z"/>
  <path class="cls-16" d="M406.86,32.46c0,.16-.08,.24-.24,.33-.16,0-.33-.08-.33-.24s.08-.24,.24-.33c.16,0,.24,.08,.33,.24Z"/>
  <path class="cls-16" d="M402.06,32.46c0,.16-.16,.33-.33,.24-.16,0-.24-.16-.24-.33s.08-.24,.33-.24c.16,.08,.24,.16,.24,.33h0Z"/>
  <path class="cls-16" d="M400.18,32.21c.16,0,.33,.08,.33,.33,0,.16-.08,.24-.24,.24s-.33-.08-.33-.24,.08-.33,.24-.33h0Z"/>
  <path class="cls-16" d="M398.88,32.54c0,.16-.08,.24-.33,.24-.16,0-.33-.16-.33-.33s.08-.24,.33-.24,.33,.08,.33,.33Z"/>
  <path class="cls-16" d="M381.23,32.21c.16,0,.33,.16,.24,.33,0,.16-.08,.24-.33,.24-.16,0-.24-.08-.24-.24,0-.24,.16-.33,.33-.33h0Z"/>
  <path class="cls-16" d="M397.34,32.46c0,.16-.08,.24-.24,.24s-.33-.08-.33-.24,.08-.24,.33-.24c.16,0,.24,.08,.24,.24Z"/>
  <path class="cls-16" d="M392.29,32.21c.16,0,.24,.08,.24,.24s-.08,.33-.24,.33-.24-.08-.33-.24c0-.24,.16-.33,.33-.33h0Z"/>
  <path class="cls-16" d="M390.99,32.54c0,.16-.08,.24-.33,.24-.16,0-.24-.08-.24-.24s.08-.24,.24-.24c.24-.08,.33,0,.33,.24h0Z"/>
  <path class="cls-16" d="M354.29,32.21c.16,0,.33,.08,.33,.24s-.08,.33-.24,.33-.24-.08-.33-.24c0-.24,.08-.33,.24-.33h0Z"/>
  <path class="cls-16" d="M356.17,32.54c0,.16-.08,.24-.24,.24s-.33-.08-.33-.24,.08-.24,.24-.24c.24-.08,.33,0,.33,.24Z"/>
  <path class="cls-16" d="M385.95,32.78c-.16,0-.33-.08-.33-.33,0-.16,.08-.24,.24-.24s.33,.08,.33,.33c.08,.16-.08,.24-.24,.24h0Z"/>
  <path class="cls-16" d="M379.68,32.78c-.16,0-.33-.08-.33-.24s.08-.33,.33-.33c.16,0,.24,.08,.24,.24,0,.24-.08,.33-.24,.33h0Z"/>
  <path class="cls-16" d="M357.47,32.21c.16,0,.33,.16,.33,.33s-.08,.24-.33,.24c-.16,0-.33-.08-.33-.24,.08-.24,.16-.33,.33-.33Z"/>
  <path class="cls-16" d="M368.86,32.46c0,.16-.08,.24-.24,.24s-.33-.08-.33-.24,.08-.24,.24-.24c.24,0,.33,.16,.33,.24Z"/>
  <path class="cls-16" d="M411.25,32.21c.16,0,.33,.08,.33,.33,0,.16-.08,.24-.24,.24s-.24-.08-.33-.24c0-.24,.08-.33,.24-.33h0Z"/>
  <path class="cls-16" d="M352.75,32.21c.16,0,.33,.08,.33,.33,0,.16-.08,.24-.24,.24s-.24-.08-.33-.24c-.08-.24,.08-.33,.24-.33h0Z"/>
  <path class="cls-16" d="M387.57,32.78c-.16,0-.24-.08-.24-.24s.08-.33,.33-.33c.16,0,.33,.08,.24,.33-.08,.16-.16,.24-.33,.24h0Z"/>
  <path class="cls-16" d="M360.64,32.78c-.16,0-.24-.08-.24-.24s.08-.33,.33-.24c.16,0,.24,.16,.24,.33-.08,.08-.16,.16-.33,.16Z"/>
  <path class="cls-16" d="M395.47,32.21c.16,0,.33,.16,.33,.33s-.08,.24-.33,.24c-.16,0-.33-.08-.24-.33-.08-.16,.08-.24,.24-.24h0Z"/>
  <path class="cls-16" d="M403.36,32.21c.16,0,.33,.16,.24,.33,0,.16-.08,.24-.33,.24s-.24-.08-.24-.24c.08-.24,.16-.33,.33-.33h0Z"/>
  <path class="cls-16" d="M384.64,32.54c0,.16-.08,.24-.24,.24s-.33-.08-.33-.24,.08-.24,.24-.24c.24-.08,.33,0,.33,.24h0Z"/>
  <path class="cls-6" d="M414.1,25.05s.08-.16,.16-.08c0,.08,0,.16-.16,.08t0,0Z"/>
  <g>
    <path class="cls-1" d="M360.61,96h-13.72c-.14,0-.21-.07-.21-.21v-28.91c0-.14,.07-.21,.21-.21h63.79c.14,0,.21,.07,.21,.21v28.91c0,.21-.1,.31-.31,.31h-49.86c.1-.1,.1-.21,.1-.31v-12.15c0-.21-.1-.31-.31-.42-.42-.21-.84-.52-.94-1.05-.1-.31-.21-.42-.52-.42h-12.15c-.21,0-.31,.1-.31,.31s.1,.52,.1,.73c.1,.94,.31,1.89,.52,2.83,.21,.63,.42,1.26,.73,1.89,.63,1.36,1.47,2.72,2.51,3.88,.73,.84,1.57,1.57,2.51,2.2,1.15,.84,2.41,1.47,3.77,1.89,1.05,.31,1.99,.63,3.14,.63,.21-.21,.52-.1,.73-.1h0Zm46.72-7.54s.1,0,0,0c.31,0,.42-.1,.52-.31,.1-.52-.21-.73-.52-.94-.21-.1-.52-.21-.42-.52s.42-.21,.63-.21h.1c.1,0,.21,.21,.21-.1,0-.21-.1-.21-.21-.21h-.42c-.31,0-.52,.1-.63,.42s.1,.42,.31,.63c.1,.1,.21,.31,.42,.31l.1,.1c0,.1,.1,.1,.21,.21,0,.21,0,.31-.21,.31h-.42c-.42-.1-.84,0-1.15,0-.1-.1-.1-.21-.1-.31,0-.42,0-.73,.1-1.05,0-.21,.1-.31,.31-.31,.1,0,.31,.1,.31-.1s-.21-.1-.31-.1h-.1c-.1,0-.21,0-.21-.21,0-.1,0-.21-.21-.21-.1,0-.21,.1-.21,.21s0,.21-.21,.21c-.07,0-.14,.03-.21,.1-.1,.1,0,.1,.1,.1,.21,.1,.21,.21,.21,.42v1.36c.1,.21,.31,.31,.52,.31h.42c.1,0,.1-.1,.1-.1,.21,0,.42,.21,.63,.1,0-.1,.1-.1,.31-.1h0Zm-6.6-.42h0c0-.1-.1-.1,0,0-.31-.1-.31-.31-.42-.52,0-.21,.1-.21,.31-.21h1.15c.1,0,.21,0,.31-.1,.1-.31,0-.73-.31-.94-.31-.21-.63-.1-.94-.1-.52,0-.84,.42-.94,.84-.21,.21-.21,.42,0,.73v.21c.1,.31,.31,.42,.63,.52h.84c.31,0,.31-.21,.31-.31,0-.21-.21,0-.31-.1h-.63s.05,0,0,0h0Zm-8.38-3.77h0c0,.1,.1,.21,.21,.1,.1,0,.1,.1,.21,.1s.21,.1,.21,.1c.31,.1,.63,0,.94-.21,.42-.21,.63-.63,.63-1.15s-.31-.84-.84-1.05c-.42-.1-1.26,.1-1.47,.63-.07,0-.1,.03-.1,.1-.1,.31,0,.63,0,.84,0,.07,.03,.1,.1,.1v.1c0,.21,.03,.31,.1,.31Zm7.23-4.19c.1,0,.1-.1,.1-.21,.21-.1,.1-.31,.21-.42,.21-.42,0-.94-.42-1.15-.21-.21-.42-.21-.73-.21-.1,0-.31,0-.31,.1h-.1c-.07,0-.14,.03-.21,.1-.52,.21-.73,1.15-.31,1.68,0,.07,.03,.1,.1,.1h0c0,.21,.21,.1,.31,.21h.1c.1,0,.21,.21,.42,.1h.31c.1,.1,.21-.1,.31-.1h.1c-.1,0,0,0,.1-.21h0Zm-2.09,4.19s0,.05,0,0c0,.21,.21,.21,.31,.31h.1c.42,.21,.73,.21,1.15,0,.1,0,.1-.1,.1-.21,.1,0,.1-.1,0-.1-.1-.1-.21,0-.21,.1h-.73c-.21,0-.52-.1-.63-.31-.1-.21-.1-.31,0-.52,0-.1,.21-.1,.31-.1h1.26c.14,0,.21-.07,.21-.21,0-.42-.21-.63-.42-.73-.31-.21-.94-.1-1.26,.1-.52,.42-.52,.94-.42,1.47,0,.07,.03,.1,.1,.1,.1,0,0,0,.1,.1t0,0h0Zm9.01,.21c0,.1,.21,.1,.31,.1s.1-.1,.1-.21v-.84c.1,0,.1-.1,.1-.21s0-.21,.1-.21,.1,0,.1-.1v-.1h.1c.42-.21,.84-.21,1.15,0,0,.52,0,1.05-.1,1.57,0,.21,0,.31,.21,.21,.21,0,.21-.1,.21-.31,.07-.07,.07-.14,0-.21v-1.15c.1-.1,0-.1,0-.1v-.1c0-.1-.1-.21-.21-.21-.1-.1-.21-.1-.21-.1,0-.1-.1-.21-.21-.1h-.42c-.21,0-.42,.1-.63,.21,0,0,0-.1-.1-.1-.21-.21-.42-.1-.42,.1-.1,.42-.1,.73,0,1.15v.63c-.07,0-.1,.03-.1,.1h0Zm3.35-2.41c0-.1,.1-.1,0-.21-.1,0-.21,0-.21,.1,0,.21-.21,.31-.31,.42-.1,.21,0,.21,.21,.31v1.47c0,.21,.1,.31,.21,.42,.21,.21,.42,.21,.63,0,.1,0,.1-.1,.1-.21s-.21-.1-.21-.1h-.21c-.21,0-.1-.21-.21-.31v-1.05c0-.21,.1-.31,.31-.31h.31c.1,0,.21-.1,.1-.21,0-.1-.1-.1-.21-.1-.21,0-.31,0-.52-.21t0,0h0Zm-18.54-5.87c.21,.1,.21-.1,.21-.21s0-.21-.1-.21h-.31c-.63,.1-1.05-.31-.94-.94,0-.42,.31-.73,.63-.73h.73c.1,0,.1,.1,.1,0s.1-.21-.1-.21c-.42-.1-.84-.1-1.26,0-.73,.31-.84,1.47-.31,1.99,0,.1,0,.21,.21,.1h.1c0,.1,.1,.21,.21,.1,.31,.21,.52,.21,.84,.1Zm12.57,7.44c0,.42,.1,.73,.52,.84,.42,.21,.94,.21,1.36,.1,.1,0,.1-.1,.1-.21s-.1-.1-.1-.1c-.21,.1-.52,.1-.73,0-.42,0-.63-.21-.63-.63,0-.21,0-.31,.21-.31h1.26c.31,0,.42,0,.31-.42-.1-.21-.1-.42-.42-.52,0-.21-.21-.1-.31-.21-.42-.21-.84,0-1.15,.21-.42,.52-.52,.84-.42,1.26Zm-1.36,2.62c-.1,.52-.1,1.05-.1,1.57v.42c0,.14,.07,.21,.21,.21,.21,0,.21-.1,.21-.21v-.73c.1-.42,0-.94,.52-1.15,.42-.21,.94,.1,.94,.52s0,.84-.1,1.26v.21h.21c.1-.1,.1-.21,.1-.31v-1.36c0-.21-.1-.42-.31-.42-.52-.21-1.05-.21-1.47,.1-.1-.1,0-.21-.21-.1,.21-.1,0-.21,0,0h0Zm-6.91-7.23c.1-.21,0-.31,0-.52v-.1c-.1-.31-.42-.31-.73-.42-.21,0-.42-.1-.63,.1h-.21c-.21,0-.21,.1-.21,.21,0,.21,.1,.1,.21,.1,.31,0,.63-.1,.94,0,.1,0,.31,0,.31,.21s-.1,.21-.21,.31c-.31,.1-.63,.21-.94,.31-.31,.1-.52,.31-.52,.52-.1,.21,.1,.42,.31,.52,.31,.21,.63,.21,.94,.1,.1,0,.31-.1,.31-.21,0-.21-.21-.1-.31-.1h-.1c-.21,0-.42,0-.52-.21v-.42c.31-.21,.73-.21,1.15-.42,.1,0,.21,0,.21,.1,0,.21,0,.52-.1,.73,0,.1-.1,.21,.1,.31,.21,.1,.42,.1,.42-.1s.1-.52,0-.73c-.42,0-.42-.1-.42-.31Zm-6.81,9.43h.84c.21,0,.21-.21,.21-.31-.1-.1-.21-.1-.42,0-.1-.1-.21,0-.31,0-.31,0-.73-.1-.94-.42s0-.52,.31-.52h1.26c.1,0,.21,0,.21-.1,.1-.21-.1-.52-.31-.73-.31-.21-.63-.21-.94-.21s-.63,.21-.73,.52c-.21,.31-.21,.73-.1,1.05,.1,.31,.52,.73,.94,.73Zm-2.2-14.35h0c-.07-.07-.14-.1-.21-.1h-.31s-.1,0,0,.1v1.68c0,.1-.1,.42,.1,.42,.31,0,.21-.31,.21-.42,.1-.42-.1-.84,.1-1.15,.21-.31,.63-.42,1.05-.31,.31,.1,.31,.31,.31,.63,0,.42,0,.73-.1,1.15,0,.1,0,.21,.21,.21,.1,0,.21,0,.21-.21,0-.42,.1-.94,.1-1.36,0-.31-.21-.73-.52-.73-.21-.21-.42-.21-.73,0h-.21c-.21-.1-.21,0-.21,.1h0Zm-1.15,6.18c0,.21,.1,.21,.31,.21,.1,0,.21-.1,.21-.31v-1.47c0-.31-.21-.42-.42-.52-.42-.21-.84,0-1.26,0-.1,0-.1,.1-.1,.21s.1,.1,.21,.1c.31-.1,.63-.1,.94-.1,.21,0,.31,.1,.31,.21s-.1,.21-.31,.31c-.31,.1-.63,.21-.94,.31-.31,.1-.42,.31-.52,.52s.1,.42,.21,.52c.31,.21,.73,.31,1.15,.1,.1,0,.21-.1,.21-.1,0-.21-.21-.21-.21-.21-.21,0-.42,.1-.63,0-.21-.1-.31-.31-.1-.52s.52-.31,.73-.31c.1,0,.21,0,.21-.1h.21v.42c-.1,0-.1,.1,0,.21-.1,.21-.21,.42-.21,.52h0Zm2.51,3.67c-.1,.52-.1,1.05-.21,1.57,0,.1,0,.21,.1,.1h.21c.21-.1,.1-.42,.1-.52v-.52c.21,.1,.31,.1,.52,.21,.21,0,.42,.1,.52-.1h.21c.07,0,.1-.03,.1-.1,.42-.21,.63-.94,.52-1.36-.21-.63-.63-.84-1.26-.84-.31,0-.52,.1-.84,.1-.21,0-.21,.1-.21,.21,.1,.42,.1,.84,.21,1.26h0Zm5.34,3.98c0,.1,0,.21,.1,.21,.21,.21,1.05,.42,1.26,.21,.1,0,.21,0,.21-.21h.1c0,.1,0,.31,.21,.21,.14,0,.21-.07,.21-.21v-.84c.1-.63,.1-1.15,.1-1.78,0-.21-.1-.21-.21-.21-.31,0-.1,.21-.1,.31,0,.28-.14,.42-.42,.42-.52,0-.94,.1-1.36,.52-.31,.31-.42,1.15-.1,1.36Zm-9.32-1.68c0,.63,0,1.26-.1,1.99,0,.1,0,.21,.1,.21s.31,.1,.31-.1v-.63c.1-.21,.1-.42,.1-.63v-.31c0-.31,.31-.42,.52-.42,.21-.1,.42,0,.63,.21,.1,.1,.1,.21,.1,.31,0,.42-.1,.84-.1,1.26,0,.1,.1,.21,.21,.21s.21,0,.21-.21c0-.42,.1-.84,.1-1.26,0-.31,.31-.63,.63-.63s.42,.21,.42,.63v.42c0,.31,0,.52-.1,.84,0,.1,0,.21,.21,.21,.1,0,.21,0,.21-.21,0-.52,.1-.94,.1-1.47,0-.31-.21-.63-.42-.73-.31,0-.73-.1-.94,.1-.1,.1-.21,.1-.42,0-.31-.21-.84-.21-1.15,0-.07,0-.1-.03-.1-.1-.21,.1-.31,.1-.52,.31h0Zm2.83-2.72s-.1,.1,0,.1v.1c-.21,.21-.1,.31-.1,.52,0,.1,0,.21,.1,.21,.14,0,.21-.07,.21-.21,.1-.31,.1-.73,.1-1.05v-.52c0-.1-.1-.21-.21-.31-.1,0-.1-.1-.1-.1-.1-.1-.21-.21-.31-.1h-.31c-.1,0-.21,0-.21,.1h-.21c-.1,0-.1,.21-.31,.1-.42-.42-.84-.31-1.26-.1-.1,0-.1,.1-.21,0-.1-.1-.21-.1-.31-.1s-.1,.1-.1,.21c0,.63,.1,1.26-.1,1.78,0,.1,0,.21,.21,.21,.1,0,.21,0,.21-.1v-.31c.1-.42,0-.84,.21-1.15,.1-.21,.42-.31,.73-.31,.21,.1,.31,.31,.31,.52,0,.42,0,.73-.1,1.15,0,.1,0,.31,.21,.31s.21-.1,.21-.21c0-.31,.1-.73,.1-1.05,0-.42,.21-.63,.73-.63,.31,0,.52,.1,.42,.63,.1,.21,.1,.31,.1,.31h0Zm16.97-5.34c-.1,0-.21,.1-.21,.21-.1,.31-.21,.52-.31,.84v.1c0,.1-.1,.1-.1,.21v.21c-.1,.21-.21,.31-.31,0-.21-.42-.42-.84-.42-1.36,0-.1-.1-.21-.21-.21-.31,.1-.63-.21-1.05,0-.1,.1-.21,.1-.42,0-.1-.1-.31,0-.31,.21v1.68c0,.1,0,.31,.21,.31s.21-.21,.21-.31c0-.42,0-.84,.1-1.26,.1-.31,.63-.63,.94-.42l.1,.1c.21,.52,.31,.94,.52,1.47,.31,.73,0,1.15-.73,1.15-.1,0-.21,0-.21,.1s.1,.21,.1,.21c.31,.1,.73,0,.94-.31s.31-.63,.42-.94c.21-.63,.63-1.15,.84-1.68,.07,0,.1-.03,.1-.1,0-.31-.1-.21-.21-.21h0Zm-41.69-5.13v6.08c0,.21,.1,.31,.21,.42,.42,.21,.73,.52,.84,.84,.1,.21,.21,.21,.42,.21h2.93c.1,0,.21,0,.31-.1,0-.1-.1-.1-.21-.21-1.15-1.15-2.41-2.41-3.56-3.56-.21-.21-.21-.31,0-.52,1.57-1.36,3.14-2.83,4.61-4.19,.63-.63,1.26-1.15,1.89-1.78,.1-.1,.21-.21,.42,0s.42,.42,.63,.63c.21,.21,.21,.31,0,.52-.52,.42-1.05,.94-1.57,1.36-1.36,1.26-2.72,2.51-4.09,3.77-.1,.1-.31,.21-.1,.52,.84,.73,1.57,1.57,2.41,2.3,.35,.35,.35,.66,0,.94-.1,.1-.21,.1-.21,.21s.21,.1,.31,.1h8.48c.21,0,.31-.1,.31-.31-.1-.84-.21-1.68-.42-2.41-.21-.84-.52-1.68-.84-2.51-.63-1.36-1.36-2.62-2.3-3.67-1.05-1.26-2.3-2.2-3.67-3.04-1.15-.63-2.41-1.15-3.67-1.47-.73-.21-1.47-.31-2.2-.42-.1,0-.21,0-.31-.1-.52-.21-.63-.1-.63,.42v5.97h0Zm-1.26,0v-6.08c0-.31-.1-.31-.42-.31s-.52,.1-.73,.1c-.63,0-1.26,.1-1.89,.31-.84,.21-1.68,.52-2.51,.84-1.36,.63-2.51,1.36-3.67,2.3-1.05,.94-1.99,1.99-2.72,3.25-.84,1.36-1.47,2.72-1.78,4.29-.21,.73-.31,1.47-.31,2.2,0,.1,0,.21-.1,.31-.1,.31-.1,.42,.31,.42h12.46c.1,0,.21,0,.21-.1,.21-.42,.52-.73,.94-.94,.21-.1,.21-.21,.21-.42v-6.18h0Zm8.9,8.59h-6.08c-.21,0-.31,0-.31,.21-.1,.52-.52,.94-.94,1.15-.21,.1-.31,.31-.31,.52v11.84c0,.42,.21,.6,.63,.52,.73,0,1.57-.21,2.3-.31,.73-.21,1.47-.42,2.2-.73,.94-.42,1.89-.84,2.62-1.47,1.26-.84,2.41-1.89,3.35-3.14,.73-1.05,1.36-2.09,1.89-3.25,.31-.84,.63-1.68,.84-2.51s.31-1.68,.31-2.51c0-.31-.1-.42-.31-.42-2.09,.1-4.09,.1-6.18,.1h0Zm13.62-8.27v-.52c0-.07-.03-.14-.1-.21-.63-.21-1.26-.21-1.78,0-.84,.31-1.36,.73-1.36,1.89,0,.73,.31,1.15,.94,1.47,.52,.21,1.15,.42,1.78,.21,.1-.1,.31,.1,.42-.1,.1-.1,.1-.31,.1-.52,0-.07-.07-.1-.21-.1-.42,.1-.84,.1-1.26,0s-.63-.42-.63-.94,.21-.84,.63-1.05c.42-.31,.94-.21,1.47-.1h0Zm.21,14.98c-.31-.84-.63-1.47-.84-2.3-.21-.63-.21-.73-.94-.73h-.21c-.21,0-.31,0-.42,.21-.42,.73-.73,1.36-1.15,1.99-.1,.21-.21,.42-.31,.63,.21,.1,.52,0,.73,0s.31,0,.31-.21c.1-.42,.42-.63,.84-.52h.1c.35,0,.56,.18,.63,.52,0,.1,.1,.31,.31,.31,.42,.1,.73,.1,.94,.1h0Zm-1.78-7.96h1.26c.14,0,.21-.07,.21-.21v-.31c0-.21-.1-.21-.21-.21h-1.15c-.21,0-.31-.1-.31-.31,0-.63,0-1.36,.1-1.99,.1-.42,0-.42-.42-.42h-.52c-.1,0-.21,0-.21,.21,.1,.52-.1,1.15-.1,1.68,0,.42,0,.84-.1,1.26-.1,.21,0,.31,.21,.31h1.26Zm.63,4.19h.42c.1,0,.21-.1,.21-.21,0-1.05-.1-1.99,.1-3.04,0-.14-.07-.21-.21-.21h-.73c-.21,0-.31,.1-.31,.21,0,.84-.1,1.78-.1,2.62,0,.42,.21,.63,.63,.63Zm-20.95-4.29c-.73,0-1.15,.52-1.15,1.05s.52,1.05,1.15,1.15c.52,0,1.15-.52,1.15-1.15-.1-.63-.63-1.15-1.15-1.05Zm34.57,7.02s-.1,0,0,0v.73c0,.1-.1,.31,.21,.42,.31,0,.21-.21,.21-.42,0-.42-.1-.84,.1-1.26,.1-.21,.42-.42,.63-.42,.31,.1,.42,.21,.42,.52v1.36c0,.1,0,.21,.21,.21s.21,0,.21-.21v-.52c0-.31-.1-.63,.1-.94,.1-.21,.52-.42,.73-.31,.31,.1,.31,.31,.31,.52,0,.42,0,.73-.1,1.15,0,.21,0,.31,.21,.31s.21-.1,.21-.31v-1.47c0-.31-.1-.42-.31-.52-.31-.1-.73-.1-1.05,.1-.1,.1-.21,.1-.21,.1-.21-.21-.42-.1-.73-.21-.1,0-.31-.1-.42,.1-.1,.21-.21,.1-.31,0s-.21-.1-.31-.1-.1,.1-.1,.21v.94h0Zm6.91-3.14v.21c0,.1,0,.31,.21,.31s.21-.1,.21-.21c0-.42,0-.73,.1-1.15,.1-.31,0-.63-.31-.84-.31-.21-.84-.21-1.15,.1-.1,.1-.21,.1-.31,0-.31-.21-.63-.31-.94-.1-.1,.1-.31,.21-.42,0-.1-.1-.31-.1-.31,.1,0,.63-.1,1.26-.1,1.89,0,.1,0,.21,.21,.21,.1,0,.21,0,.21-.21,0-.42,.1-.84,.1-1.26,0-.31,.31-.52,.73-.52,.31,0,.42,.1,.42,.52v.42c0,.31-.1,.52-.1,.84,0,.1,0,.21,.21,.21,.1,0,.21,0,.21-.21,0-.42,.1-.84,.1-1.26s.21-.52,.73-.52c.31,0,.42,.1,.42,.52-.1,.31-.31,.63-.21,.94h0Zm-16.44-4.4v.42c0,.21,.21,.31,.31,.21,.21-.31,.42-.1,.52,0,.31,.1,.52,.1,.84,0,.73-.1,.94-1.26,.63-1.78-.31-.52-.73-.52-1.15-.52-.21,0-.31,.21-.42,.1-.1-.1,0-.31,0-.52,0-.1,0-.21-.21-.21-.1,0-.21,0-.21,.21-.21,.63-.21,1.36-.31,2.09h0Zm7.44-4.5h0v-.84c0-.21-.1-.31-.31-.42-.42-.1-.84-.1-1.36,0-.1,0-.21,.1-.21,.21s0,.21,.1,.1c.31-.21,.73-.1,1.05-.1,.1,0,.21,.1,.21,.21,0,.21-.1,.31-.21,.31-.21,0-.31,.1-.52,.1s-.52,.1-.73,.21c-.31,.21-.31,.84-.1,.94,.31,.21,.73,.21,1.15,.1,.21,0,.21-.21,.21-.31s-.21-.1-.21-.1c-.21,.1-.42,.1-.63,0-.1-.1-.21-.1-.21-.21s0-.21,.21-.31c.31-.21,.63-.21,.94-.31,.1-.1,.21,.1,.1,.21v.84c0,.1,0,.21,.21,.21s.21-.1,.21-.21c.1-.1,.1-.42,.1-.63h0Zm-3.04,11.21c0-.21,0-.31-.21-.31s-.21,.21-.21,.31v1.57c0,.21-.21,.42,.1,.52,.31,0,.21-.31,.21-.42,.1-.42,0-.84,.1-1.15,.21-.31,.63-.52,.94-.42,.31,.1,.42,.21,.42,.73v1.15c0,.1,0,.21,.21,.21,.1,0,.21,0,.21-.1v-1.47c0-.21,0-.52-.31-.52-.52-.42-1.05-.63-1.47-.1Zm-1.78-7.12c-.1,.63,.52,1.15,1.26,1.15s1.26-.42,1.26-1.26c0-.73-.52-1.15-1.15-1.15-.73,0-1.36,.42-1.36,1.26h0Zm6.7,4.82c-.21-.42-.31-.73-.42-1.15-.1-.1-.1-.31-.21-.42-.1-.21-.21-.21-.42-.21-.21,.1,0,.21,0,.21,.21,.63,.42,1.15,.63,1.68,.1,.21,.1,.31,.31,.31s.31-.1,.31-.21c.31-.52,.52-1.15,.84-1.68,.1-.1,.1-.21,0-.31-.1-.1-.21-.1-.31,.1-.1,.31-.21,.52-.42,.84,0,.21-.1,.52-.31,.84h0Zm.42-4.82h0v.63c0,.42,.42,.73,.84,.52,.1,0,.21-.1,.21-.21s-.21-.1-.31-.1c-.31,0-.42-.1-.42-.42v-.73c0-.35,.18-.52,.52-.52,.1,0,.21,0,.21-.1s-.1-.1-.21-.1h-.21c-.21,0-.31-.1-.21-.21,0-.1,.1-.21-.1-.21-.1,0-.21,.1-.21,.21s-.1,.31-.31,.31c-.1,0-.1,.21,0,.21,.21,0,.21,.1,.21,.31v.42h0Zm-1.26-5.97c0-.1,0-.21-.1-.21-.21,0-.31,.1-.31,.31-.1,.84,.1,1.57-.1,2.41,0,.1-.1,.31,.1,.42,.21,0,.21-.1,.31-.31,.1-.94,0-1.78,.1-2.62Zm-2.72,4.82c-.1,0-.21,0-.21,.1,0,.63-.1,1.26-.1,1.89,0,.21,.1,.21,.21,.21s.21-.1,.21-.21v-.63c0-.31,0-.52,.1-.84s.31-.42,.63-.31c.1,0,.21,0,.21-.1s-.1-.21-.1-.21c-.1-.1-.21-.1-.31,0s-.31,.31-.63,.1h0Zm-8.38-3.14v.84c0,.1-.1,.31,.21,.31,.21,0,.21-.1,.21-.31,0-.84-.1-1.68,.1-2.51,0-.1,0-.21-.21-.21-.1,0-.21,0-.21,.21,0,.52-.1,1.05-.1,1.68Zm7.86,7.65c.1,0,.31,.1,.31-.21s-.21-.21-.31-.21-.21,.1-.21,.1c-.1,0-.21,.21-.42,0,0-.1-.31,0-.31,.1,0,.63-.1,1.26-.1,1.89,0,.1,.1,.21,.21,.21s.21,0,.21-.21c0-.42,.1-.84,.1-1.15-.1-.42,0-.52,.52-.52Zm-6.39-7.65h0v-.84c0-.1,.1-.31-.21-.31-.21,0-.21,.1-.21,.31,0,.52,0,1.15-.1,1.68,0,.21,0,.31,.21,.31s.31-.1,.21-.31c.1-.21,.1-.52,.1-.84Zm3.77,0h0v-.94c0-.1,0-.21-.1-.21s-.21,0-.21,.21c0,.63,.1,1.26-.1,1.89,0,.1,.1,.21,.21,.21s.21,0,.21-.21v-.94h0Zm-3.98-1.89c-.1,0-.21,0-.21,.21s.1,.21,.21,.21,.21-.1,.21-.21c.1-.21-.1-.21-.21-.21Zm3.88,0c-.1,0-.21,0-.21,.1,0,.21,.1,.21,.21,.21s.21-.1,.21-.21c.1-.1-.1-.1-.21-.1Z"/>
    <path class="cls-24" d="M360.61,96c-.21-.1-.42-.1-.73-.1-1.05-.1-2.09-.31-3.14-.63-1.36-.42-2.62-1.05-3.77-1.89-.94-.63-1.78-1.36-2.51-2.2-1.05-1.15-1.89-2.41-2.51-3.88-.31-.63-.52-1.26-.73-1.89-.21-.94-.42-1.78-.52-2.83,0-.21-.1-.52-.1-.73s0-.31,.31-.31h12.15c.31,0,.42,.1,.52,.42,.1,.52,.52,.84,.94,1.05,.21,.1,.31,.21,.31,.42v12.15c0,.1,0,.21-.21,.42,.1,0,0,0,0,0h0Zm-7.86-5.13c.07-.07,.14-.14,.21-.21,1.05-.94,1.99-1.89,3.04-2.83,1.15-1.05,2.3-2.09,3.46-3.25,.1-.1,.21-.21,0-.42-.21-.21-.31-.31-.52-.52s-.42-.21-.63,0c-1.36,1.47-2.83,2.83-4.29,4.09-.63,.63-1.36,1.15-1.99,1.78-.21,.1-.21,.31,0,.42,.21,.21,.42,.42,.52,.52,.07,.21,.14,.35,.21,.42h0Z"/>
    <path class="cls-13" d="M362.07,73.06v-5.97c0-.52,.1-.63,.63-.42,.1,0,.21,.1,.31,.1,.73,0,1.47,.21,2.2,.42,1.36,.31,2.51,.84,3.67,1.47,1.36,.84,2.62,1.78,3.67,3.04,.94,1.15,1.78,2.3,2.3,3.67,.31,.84,.63,1.68,.84,2.51s.31,1.68,.42,2.41c0,.31-.1,.31-.31,.31h-8.48c-.1,0-.21,0-.31-.1,0-.1,.1-.21,.21-.21,.35-.35,.35-.66,0-.94-.84-.73-1.57-1.57-2.41-2.3-.21-.21,0-.31,.1-.52,1.36-1.26,2.72-2.51,4.09-3.77,.52-.42,1.05-.94,1.57-1.36,.21-.21,.31-.31,0-.52-.21-.21-.42-.42-.63-.63-.1-.1-.21-.1-.42,0-.63,.63-1.15,1.26-1.89,1.78-1.57,1.36-3.04,2.83-4.61,4.19-.21,.21-.21,.31,0,.52,1.15,1.15,2.41,2.41,3.56,3.56,.1,.1,.21,.1,.21,.21s-.21,.1-.31,.1h-2.93c-.21,0-.31,0-.42-.21-.21-.42-.42-.73-.84-.84-.21-.1-.21-.21-.21-.42v-6.08h0Z"/>
    <path class="cls-12" d="M360.82,73.06v5.97c0,.21,0,.42-.21,.42-.42,.21-.73,.52-.94,.94-.07,.07-.14,.1-.21,.1h-12.46c-.31,0-.42-.1-.31-.42,0-.1,.1-.21,.1-.31,0-.73,.21-1.47,.31-2.2,.31-1.57,1.05-2.93,1.78-4.29,.73-1.26,1.68-2.3,2.72-3.25,1.05-.94,2.3-1.68,3.67-2.3,.84-.42,1.68-.63,2.51-.84,.63-.1,1.26-.31,1.89-.31,.21,0,.52-.1,.73-.1,.31,0,.42,0,.42,.31v6.28h0Zm-.84,2.3c-.21,.21-.31,.52-.42,.73-.73,1.26-1.68,2.3-3.25,2.62-.52,.1-.94,0-1.36-.1-.84-.21-1.47-.84-1.99-1.47-.73-.94-1.05-1.99-.63-3.14,.21-.94,.73-1.57,1.47-2.2,.42-.42,.94-.73,1.47-.94,.21-.1,.21-.21,0-.31-.21-.21-.42-.31-.52-.52-.1-.1-.21-.1-.42,0s-.42,.31-.63,.42c-1.26,1.05-2.41,2.2-2.72,3.88-.21,.84-.1,1.57,.21,2.41,.42,1.05,1.15,1.99,2.09,2.62,.73,.52,1.57,.84,2.41,.84,.73,0,1.57-.21,2.2-.63,.84-.52,1.57-1.26,2.2-2.09s.73-.84,.1-1.78c-.1-.1-.21-.21-.21-.31h0Z"/>
    <path class="cls-22" d="M369.72,81.65h6.08c.31,0,.42,.1,.31,.42-.1,.84-.21,1.68-.31,2.51-.21,.84-.42,1.68-.84,2.51-.52,1.15-1.15,2.2-1.89,3.25-.94,1.26-2.09,2.3-3.35,3.14-.84,.63-1.68,1.05-2.62,1.47-.73,.31-1.47,.52-2.2,.73-.73,.21-1.57,.31-2.3,.31-.63,0-.63,.1-.63-.52v-11.84c0-.21,.1-.42,.31-.52,.52-.21,.84-.63,.94-1.15,.1-.21,.21-.21,.31-.21,2.09-.1,4.19-.1,6.18-.1h0Zm-4.92,1.78c-.1,0-.21,0-.21,.1-.21,.21-.31,.42-.52,.52-.31,.21-.21,.52-.1,.73,.21,.73,.52,1.47,.73,2.2,.21,.63,.42,1.26,.63,1.89,.1,.42,.31,.94,.42,1.36,.1,.42,.31,.94,.42,1.36,.1,.52,.31,1.05,.52,1.57,.1,.31,.21,.63,.31,.94,.1,.21,.21,.31,.31,.1s.31-.31,.42-.42c.31-.21,.42-.52,.21-.84-.1-.21-.1-.31-.21-.52-.31-.94-.73-1.89-.94-2.83,0-.1-.21-.31,0-.52,.73-.73,1.47-1.36,2.09-2.09,.1-.1,.21-.1,.31-.1,1.15,.52,2.3,1.05,3.46,1.68,.21,.1,.31,.1,.42-.1,.21-.21,.42-.42,.52-.63,.21-.21,.21-.31-.1-.42-1.05-.52-2.09-.94-3.14-1.47-1.57-.73-3.14-1.47-4.71-2.2-.31-.1-.52-.31-.84-.31h0Z"/>
    <path class="cls-12" d="M383.34,73.38c-.52-.1-1.05-.21-1.47,0s-.63,.52-.63,1.05,.21,.84,.63,.94c.42,.1,.84,.1,1.26,0,.07,0,.14,.03,.21,.1,0,.21,0,.31-.1,.52s-.31,.1-.42,.1c-.63,.21-1.15,.1-1.78-.21-.63-.21-.94-.73-.94-1.47,0-1.05,.63-1.57,1.36-1.89,.63-.21,1.26-.21,1.78,0,.1,0,.1,.1,.1,.21v.63h0Z"/>
    <path class="cls-12" d="M383.55,88.36h-.84c-.21,0-.21-.1-.31-.31-.07-.35-.28-.52-.63-.52h-.1c-.52-.1-.73,.1-.84,.52,0,.21-.21,.21-.31,.21h-.73c.1-.21,.21-.42,.31-.63,.42-.63,.73-1.36,1.15-1.99,.1-.21,.21-.31,.42-.21h.21c.63,0,.73,0,.94,.73,.21,.63,.52,1.36,.73,2.2h0Zm-1.78-2.3c-.1,.21-.21,.42-.31,.63s-.1,.31,.21,.31h.31c.1,0,.21,0,.1-.1-.1-.31-.1-.63-.31-.84Z"/>
    <path class="cls-12" d="M381.77,80.4h-1.15c-.21,0-.31-.1-.21-.31,.21-.42,.1-.84,.1-1.26,0-.52,.21-1.15,.1-1.68,0-.1,0-.21,.21-.21h.52c.42,0,.52,0,.42,.42-.1,.63-.1,1.26-.1,1.99,0,.21,.1,.31,.31,.31h1.15c.14,0,.21,.07,.21,.21v.31c0,.21-.1,.21-.21,.21-.52,0-.94,0-1.36,0Z"/>
    <path class="cls-12" d="M382.39,84.59c-.63,0-.52,0-.52-.52,0-.84,.1-1.78,.1-2.62,0-.21,.1-.31,.31-.21h.73c.21,0,.21,.1,.21,.21-.21,1.05-.1,1.99-.1,3.04,0,.21-.1,.21-.21,.21-.31-.1-.42-.1-.52-.1Z"/>
    <path class="cls-24" d="M361.45,80.29c.52-.1,1.05,.52,1.15,1.05,0,.63-.63,1.15-1.15,1.15-.63,0-1.15-.52-1.15-1.15,0-.52,.42-1.15,1.15-1.05Z"/>
    <path class="cls-14" d="M403.03,79.56h0c.1-.1,.21-.1,.21-.21s0-.1-.1-.1v-.1h.21c.1-.31,.31-.63,.42-.94,.1,0,.31-.1,.31,.1-.1,0-.1,.1-.1,.1-.21,.63-.63,1.15-.84,1.68-.1,.31-.31,.63-.42,.94-.21,.31-.63,.42-.94,.31-.1,0-.21-.1-.1-.21,0-.1,.1-.1,.21-.1,.73,0,.94-.42,.73-1.15-.21-.52-.31-.94-.52-1.47,0,0,0-.1-.1-.1-.31-.21-.84,.1-.94,.42-.1,.42-.1,.84-.1,1.26,0,.1,0,.31-.21,.31s-.21-.1-.21-.31v-1.68c0-.21,.1-.31,.31-.21s.31,.1,.42,0c.31-.21,.63,.1,1.05,0,.1,0,.21,.1,.21,.21,.1,.42,.31,.84,.52,1.26,0,.42,.1,.31,.21,.1-.21,.1-.1,.1-.21-.1,.1,0,0,0,0,0h0Z"/>
    <path class="cls-14" d="M396.01,87.31v-.94c0-.1,0-.21,.1-.21s.21-.1,.31,.1c.1,.1,.21,.21,.31,0,.1-.1,.31-.1,.42-.1,.21,.1,.52,0,.73,.21,.1,.1,.21,0,.21-.1,.31-.31,.73-.21,1.05-.1,.21,0,.31,.21,.31,.52v1.47c0,.21,0,.31-.21,.31s-.21-.21-.21-.31c.1-.42,.1-.73,.1-1.15,0-.31,0-.52-.31-.52-.21-.1-.63,.1-.73,.31-.21,.31-.1,.63-.1,.94v.52c0,.21-.1,.21-.21,.21-.21,0-.21-.1-.21-.21v-1.36c0-.31-.1-.52-.42-.52-.21,0-.52,.21-.63,.42-.21,.42-.1,.84-.1,1.26,0,.21,.1,.42-.21,.42s-.21-.21-.21-.42c-.1-.21-.1-.52,0-.73-.1,0,0,0,0,0h0Z"/>
    <path class="cls-14" d="M402.92,84.17c0-.31,.1-.63,.1-.94s-.1-.52-.42-.52c-.42,0-.63,0-.73,.52,0,.42-.1,.84-.1,1.26,0,.1-.1,.21-.21,.21s-.21-.1-.21-.21c0-.31,.1-.52,.1-.84v-.42c0-.42-.1-.52-.42-.52-.42,0-.73,.21-.73,.52,0,.42-.21,.84-.1,1.26,0,.21-.1,.21-.21,.21-.21,0-.21-.1-.21-.21,0-.63,.21-1.26,.1-1.89,0-.21,.21-.21,.31-.1,.21,.21,.31,.1,.42,0,.31-.21,.63-.1,.94,.1,.1,.1,.21,.1,.31,0,.31-.31,.73-.31,1.15-.1,.31,.21,.31,.52,.31,.84-.1,.42-.1,.73-.1,1.15,0,.1,0,.21-.21,.21s-.21-.1-.21-.31c.07-.07,.1-.14,.1-.21h0Z"/>
    <path class="cls-14" d="M385.96,82.49h0c.31,.1,.31-.1,.31-.1h.31c0,.1,0,.21,.1,.21s.21,0,.21-.1c.1,0,.1,.1,.1,.1,0,.14,.07,.24,.21,.31v.52c-.1,.31-.21,.73-.1,1.05,0,.21-.1,.21-.21,.21-.21,0-.21-.1-.1-.21,.1-.21,.1-.42,.1-.52v-.52c0-.52-.1-.63-.42-.63-.42,0-.63,.21-.73,.63,0,.31-.1,.73-.1,1.05,0,.21-.1,.21-.21,.21-.21,0-.21-.21-.21-.31,.1-.42,.1-.73,.1-1.15,0-.21,0-.42-.31-.52s-.63,0-.73,.31c-.21,.42-.1,.84-.21,1.15v.31c0,.1-.1,.1-.21,.1s-.21-.1-.21-.21c.21-.63,.1-1.15,.1-1.78,0-.1,0-.21,.1-.21s.21-.1,.31,.1c.07,.07,.14,.07,.21,0,.42-.21,.84-.31,1.26,.1,0,.1,.1,0,.31-.1-.1,0,0,0,0,0h0Z"/>
    <path class="cls-14" d="M384.59,86.26c.31-.21,.84-.21,1.15,0,.14,.07,.28,.07,.42,0,.31-.21,.63-.21,.94-.1,.21,0,.42,.42,.42,.73,0,.52-.1,.94-.1,1.47,0,.21-.1,.21-.21,.21s-.21,0-.21-.21c0-.31,0-.52,.1-.84v-.42c0-.42-.21-.63-.42-.63-.31,0-.63,.31-.63,.63,0,.42-.1,.84-.1,1.26,0,.1-.1,.21-.21,.21s-.21,0-.21-.21c0-.42,.1-.84,.1-1.26,0-.1,0-.21-.1-.31-.1-.21-.31-.31-.63-.21-.21,.1-.42,.21-.52,.42v.31c-.21,.21-.1,.42-.1,.63v.63c-.21,0-.31,0-.31-.31,.1-.52,.1-1.05,.1-1.57,0-.1,0-.21-.1-.21,.1-.21,.21-.21,.42,0v.1c.07-.14,.14-.24,.21-.31h0Z"/>
    <path class="cls-14" d="M386.48,79.77c.1-.63,.1-1.36,.1-2.09,0-.21,.1-.21,.21-.21,.21,0,.21,.1,.21,.21,0,.21-.1,.42,0,.52,.1,.21,.31-.1,.42-.1,.42,0,.94,0,1.15,.52,.31,.52,.1,1.68-.63,1.78-.31,.1-.52,.1-.84,0-.1-.1-.31-.31-.52,0-.1,.1-.31,.1-.31-.21,.21-.1,.21-.21,.21-.42h0Zm1.89-.52c0-.1,0-.42-.1-.52-.31-.31-.84-.21-1.15-.21s-.21,.42-.21,.63v.31c0,.42,.21,.63,.52,.73,.52,0,.94-.21,.94-.94h0Z"/>
    <path class="cls-14" d="M393.92,75.26v.73c0,.1-.1,.21-.21,.21-.21,0-.21-.1-.21-.21v-.84c0-.1,0-.21-.1-.21-.31,.1-.63,.21-.94,.31-.1,.1-.21,.21-.21,.31,0,.21,.1,.21,.21,.21,.21,.1,.42,.1,.63,0,.1,0,.21-.1,.21,.1,0,.1,0,.31-.21,.31-.42,0-.73,.1-1.15-.1-.21-.1-.31-.73,.1-.94,.21-.1,.52-.21,.73-.21s.31-.1,.52-.1c.1,0,.21-.21,.21-.31s-.1-.21-.21-.21c-.31,0-.73-.1-1.05,.1-.1,.1-.1,0-.1-.1s.1-.21,.21-.21c.42-.1,.94-.1,1.36,0,.21,0,.31,.21,.31,.42-.1,.1-.1,.42-.1,.73h0Z"/>
    <path class="cls-14" d="M394.96,88.25s-.05,0,0,0c-.21,0-.42,.1-.52-.1,.21,0,.31-.1,.42-.21,.21-.31,.21-.63,.21-1.05s0-.42-.42-.42c-.21,0-.42,0-.63,.1-.31,.1-.52,.31-.52,.73,0,.63,0,.73,.42,.84-.1,.21-.21,.1-.42,.1-.1,0-.21-.21-.31-.21-.21-.21-.1-1.05,.1-1.36,.42-.42,.84-.52,1.36-.52,.28,0,.42-.14,.42-.42,0-.1-.1-.31,.1-.31s.21,0,.21,.21c0,.63,0,1.26-.1,1.78v.84c0,.21-.1,.21-.21,.21,0-.1,.1-.31-.1-.21h0Z"/>
    <path class="cls-14" d="M390.88,86.47c.52-.42,.94-.31,1.47-.21,.31,0,.31,.31,.31,.52v1.47c0,.21-.1,.1-.21,.1s-.21,0-.21-.21v-1.15c0-.52,0-.63-.42-.73-.31-.1-.73,.1-.94,.42-.21,.42-.1,.84-.1,1.15,0,.21,.1,.52-.21,.42-.31,0-.1-.31-.1-.52v-1.57c0-.1,0-.31,.21-.31,.1,.31,.21,.42,.21,.63Z"/>
    <path class="cls-14" d="M388.16,85.63h-.21c0-.1,.1-.21,.1-.31v-1.26c0-.07-.03-.14-.1-.21v-1.26c0-.14,.07-.21,.21-.21,.31,0,.52-.1,.84-.1,.63,0,1.05,.21,1.26,.84,.1,.42-.1,1.05-.52,1.36-.07,0-.1,.03-.1,.1h-.63c-.21,0-.1-.1,0-.21,.63,0,.73-.21,.84-.73,.1-.31,0-.73-.31-.84-.31-.21-.73-.1-1.05-.1-.1,0-.1,.1-.1,.21,0,.42-.1,.84,.1,1.26-.21,.21-.31,.42-.21,.73-.1,.21-.1,.42-.1,.73h0Z"/>
    <path class="cls-14" d="M389.1,79.35c0-.84,.63-1.26,1.26-1.26s1.15,.31,1.15,1.15-.52,1.26-1.26,1.26c-.52,0-1.15-.52-1.15-1.15Zm1.26-.94c-.52,0-.84,.31-.84,.84s.31,.94,.84,.94c.63,0,.84-.42,.84-.94s-.31-.84-.84-.84Z"/>
    <path class="cls-14" d="M385.43,79.24h0c-.21-.1-.31,0-.31,.1-.31,0-.52,.1-.73,.31s-.1,.42,.1,.52c.21,.1,.42,0,.63,0,.1,0,.21-.1,.21,.1s-.1,.21-.21,.21c-.42,.1-.73,.1-1.15-.1-.21-.1-.31-.31-.21-.52,.1-.31,.31-.42,.52-.52,.31-.1,.63-.21,.94-.31,.1,0,.31-.1,.31-.31,0-.1-.1-.21-.31-.21-.31-.1-.63,0-.94,.1-.1,0-.21,.1-.21-.1,0-.1,0-.21,.1-.21,.42,0,.84-.21,1.26,0,.21,.1,.42,.21,.42,.52v.94c-.31,0-.21,.21-.21,.31,0,.21,0,.31-.21,.31,0-.1,0-.31,.1-.42s0-.1,0-.21,0-.31-.1-.52c.1,0,.1-.1,0,0t0,0h0Z"/>
    <path class="cls-14" d="M385.96,74.01c.1,0,.21-.1,.31,0,0,.1-.1,.21,.1,.21,0,0,.1,0,0-.1h.1c.07,0,.1-.03,.1-.1h.94c.42,0,.63,.42,.52,.73,0,.42-.1,.94-.1,1.36,0,.1-.1,.21-.21,.21s-.21-.1-.21-.21c0-.42,0-.73,.1-1.15,0-.31,0-.52-.31-.63-.42-.1-.84,.1-1.05,.31-.21,.42-.1,.84-.1,1.15,0,.21,.1,.52-.21,.42-.31,0-.1-.31-.1-.42,.1-.63,.1-1.15,.1-1.78h0Z"/>
    <path class="cls-14" d="M389.62,88.46h-.21c-.21-.21-.42-.21-.63,0-.42,0-.84-.42-.84-.73s-.1-.73,.1-1.05c.21-.31,.42-.42,.73-.52,.31,0,.63-.1,.94,.21,.21,.21,.42,.52,.31,.73,0,.1-.1,.1-.21,.1h-1.26c-.31,0-.42,.21-.31,.52,.21,.31,.63,.42,.94,.42,.1,0,.21-.1,.31,0-.1,.1,.1,.21,.1,.31Zm-1.26-1.57c.42,.1,.84,0,1.26,0,.1,0,.1-.1,.1-.21-.1-.1-.21-.31-.52-.31-.42,0-.84,0-.84,.52Z"/>
    <path class="cls-14" d="M395.59,78.51h0c-.1,.21-.1,.42,0,.52v.42c-.21,.1-.21,.21-.21,.52,0,.21,.1,.42-.21,.42-.21,0-.1-.21-.1-.31,0-.21,.1-.52,.1-.73,0-.1,0-.21-.21-.1-.31,.1-.73,.21-1.15,.42,0-.07-.03-.1-.1-.1-.1,.1-.21,.21-.21,.31,0,.21,.1,.1,.21,.1,.1,.21,.31,.21,.52,.21h.1c.1,0,.31-.1,.31,.1s-.21,.21-.31,.21c-.31,.1-.63,0-.94-.1-.21-.1-.31-.31-.31-.52,.1-.31,.31-.52,.52-.52,.31-.1,.63-.21,.94-.31,.1,0,.31-.1,.21-.31,0-.21-.1-.21-.31-.21-.31-.1-.63,0-.94,0-.1,0-.21,.1-.21-.1,0-.1,0-.21,.21-.21h.21c.31,0,.63,0,.94,.1,.63,.1,.73,.21,.94,.21h0Z"/>
    <path class="cls-14" d="M392.76,84.59c-.1,0-.1-.1-.21-.1,0-.1-.1-.1-.21-.1h0c0-.07-.03-.1-.1-.1v-.1c0-.07-.03-.1-.1-.1v-.84c.07,0,.1-.03,.1-.1,.21-.52,1.05-.73,1.47-.63,.52,.21,.73,.52,.84,1.05,0,.42-.1,.84-.63,1.15-.42-.21-.73,0-1.15-.1,0-.1,0,0,0,0h0Zm-.31-.94v.21c0,.07,.03,.1,.1,.1,0,.1,.1,.1,.1,.21s0,.1,.1,.1h.31c.07,.07,.14,.07,.21,0h.31c.07,0,.1-.03,.1-.1,.42-.31,.42-.94,.21-1.26-.31-.42-.63-.31-1.05-.21-.31,.1-.42,.42-.42,.73-.1,.1-.1,.21,0,.21h0Z"/>
    <path class="cls-14" d="M402.51,86.26c0-.21,.1-.1,.21-.1,.21,0,.1,.21,.21,.21,.52-.31,.94-.31,1.47-.1,.21,.1,.31,.21,.31,.42v1.36c0,.1-.1,.21-.1,.31h-.21c-.1,0-.1-.1,0-.21,.1-.42,.1-.84,.1-1.26,0-.52-.52-.73-.94-.52-.52,.21-.52,.73-.52,1.15v.73c0,.1,0,.21-.21,.21-.1,0-.21,0-.21-.21v-.42c.1,0,.21,.1,.21-.21v-1.15c-.21,0-.1-.21-.31-.21h0Z"/>
    <path class="cls-14" d="M395.8,84.17c.21-.21,.31-.52,.42-.84,.1-.21,.31-.52,.42-.84,.1-.21,.21-.21,.31-.1s0,.21,0,.31c-.31,.52-.52,1.15-.84,1.68-.1,.1-.1,.21-.31,.21s-.21-.1-.31-.31c-.21-.52-.52-1.15-.63-1.68,0-.1-.21-.21,0-.21,.1-.1,.31,0,.42,.21,.1,.1,.1,.31,.21,.42,0,.31,.1,.73,.31,1.15h0Z"/>
    <path class="cls-14" d="M398.84,80.5h-.31c0-.1,0-.21,.1-.21s.1-.1,.1-.21c.63,0,.94-.94,.52-1.47-.21-.31-.63-.31-.94-.21-.31,0-.42,.31-.52,.52-.1,.1,0,.31,0,.52,0,.42,.21,.63,.52,.63,0,.1-.1,.1-.21,.1s-.1,0-.1,.1h-.1c0-.21-.1-.21-.31-.21h0c0-.07-.03-.1-.1-.1-.31-.52-.21-1.47,.31-1.68,.07,0,.14-.03,.21-.1h.1c.42-.1,.73,.1,1.15,.1,.42,.21,.63,.73,.42,1.15-.1,.1,0,.31-.21,.42-.1,0-.1,.1-.1,.21h0c-.21,0-.31,.1-.31,.21h-.1c.1-.1,0-.1-.1,.21h0Z"/>
    <path class="cls-14" d="M405.75,82.49c.21,.1,.31,.31,.42,.52,.1,.31,0,.42-.31,.42h-1.26c-.21,0-.31,.1-.21,.31,.1,.42,.21,.63,.63,.63h.73c.07,0,.1,.03,.1,.1,0,.1,0,.21-.1,.21-.42,.1-.94,.21-1.36-.1-.31-.21-.52-.52-.52-.84,0-.21,.1-.31,.1-.52,0-.42,.52-.73,.84-.52-.21,.1-.31,.1-.42,.31-.07,.07-.1,.14-.1,.21,0,.1,.1,.1,.21,.1h1.26v-.21c-.21-.1-.21-.31-.42-.42,.1-.31,.21-.1,.42-.21Z"/>
    <path class="cls-14" d="M397.27,83.96c-.1-.52,0-1.05,.42-1.47,.31-.21,.94-.31,1.26-.1,.21,.21,.52,.42,.42,.73,0,.21-.1,.21-.21,.21h-1.26c-.1,0-.31-.1-.31,.1s-.1,.31,0,.52,.42,.31,.63,.31c.1,.1,.21,.1,.42,0h.31c.1,0,.1,.1,.21,.1,0,.1,0,.21-.1,.21,0-.1-.1-.1-.21-.1-.31,.1-.52,.1-.84,0,0,0-.1,0-.1,.1h-.1c0-.21-.1-.21-.31-.21h0c0-.07-.03-.1-.1-.1v-.1c0-.1,0-.21-.1-.21h0Zm1.05-.73h.63v-.31c-.31-.42-1.05-.31-1.26,.1-.1,.21-.1,.31,.1,.31,.21-.1,.42-.1,.52-.1h0Z"/>
    <path class="cls-14" d="M390.04,76c-.63-.52-.42-1.68,.31-1.99,.42-.21,.84-.1,1.26,0,.1,0,.1,.1,.1,.21s-.1,.1-.1,0h-.73c-.31,0-.63,.31-.63,.73-.1,.63,.31,1.05,.94,.94h.31c.1,0,.1,.1,.1,.21-.1,0-.31,0-.21,.21h-.73c-.1,0,0-.31-.21-.1h-.1c-.14-.14-.24-.21-.31-.21Z"/>
    <path class="cls-14" d="M396.22,79.35v-.63c0-.1,0-.21-.21-.31-.21,0-.1-.21,0-.21,.21,0,.21-.21,.31-.31,0-.1,.1-.21,.21-.21s.1,.21,.1,.21c0,.21,.1,.31,.21,.21h.21c.1,0,.21,0,.21,.1s-.1,.1-.21,.1c-.35,0-.52,.18-.52,.52v.73c0,.31,.1,.42,.42,.42,.1,0,.21-.1,.31,.1,0,.21-.1,.21-.21,.21-.42,.21-.84-.1-.84-.52v-.42h0Z"/>
    <path class="cls-14" d="M400.31,87.52c0,.21,0,.42,.31,.42,0,.07,.03,.1,.1,.1h0v.21c-.21,0-.31-.1-.52-.21-.07-.07-.14-.07-.21,0v-.94c0-.42,.42-.84,.94-.84,.31,0,.63,0,.94,.1,.31,.21,.42,.52,.31,.94h-1.57c-.1,0-.21,.1-.31,.21-.1-.1-.1,0,0,0Zm.73-.52h.63c.07,0,.1-.03,.1-.1-.21,.1-.1-.21-.31-.31-.31-.1-.84-.1-1.05,.1-.1,.1-.21,.1-.1,.21,0,.1,.21,.1,.31,.1s.21,0,.42,0Z"/>
    <path class="cls-14" d="M405.23,88.15v-1.36c0-.21,.1-.31-.21-.42-.1,0-.1-.1-.1-.1,0-.1,.1-.1,.21-.1,.21,0,.21-.1,.21-.21,0-.21,.1-.21,.21-.21s.21,.1,.21,.21c0,.21,.1,.21,.21,.21h.1c.1,0,.31-.1,.31,.1s-.21,.1-.31,.1c-.21,0-.31,.1-.31,.31-.1,.31-.1,.73-.1,1.05,0,.1,0,.21,.1,.31,0,.1,.1,.1,.21,.1s.21,0,.31,.1c0,.07-.03,.1-.1,.1,0-.1-.1-.1-.1-.1-.31,.1-.63,0-.84-.1h0Z"/>
    <path class="cls-14" d="M394.96,73.38c-.1,.84,0,1.68-.1,2.51,0,.21,0,.31-.31,.31-.21,0-.21-.21-.1-.42,.1-.84,0-1.57,.1-2.41,0-.21,.1-.31,.31-.31,.1,.1,.21,.21,.1,.31Z"/>
    <path class="cls-14" d="M392.24,78.2c.21,.21,.42,0,.73-.1h.31c.1,0,.1,.1,.1,.21s-.1,.1-.21,.1c-.31,0-.52,.1-.63,.31s-.1,.52-.1,.84v.63c0,.1-.1,.21-.21,.21s-.21,0-.21-.21c0-.63,.21-1.26,.1-1.89-.1-.1,0-.1,.1-.1h0Z"/>
    <path class="cls-14" d="M383.86,75.05c0-.52,.1-1.15,.1-1.68,0-.21,.1-.21,.21-.21s.21,.1,.21,.21c-.21,.84-.1,1.68-.1,2.51,0,.21,0,.31-.21,.31s-.21-.21-.21-.31v-.84Z"/>
    <path class="cls-14" d="M391.72,82.7c-.42,0-.63,.1-.63,.63,0,.42-.21,.84-.1,1.15,0,.1-.1,.21-.21,.21s-.21,0-.21-.21c0-.63,.1-1.26,.1-1.89,0-.21,.21-.21,.31-.1,.1,.21,.21,0,.42,0,.1,0,.1-.1,.21-.1s.31-.1,.31,.21c.1,.21-.1,0-.21,.1Z"/>
    <path class="cls-14" d="M409.52,82.07c0-.1,.1-.1,.21-.1v.42c0,.31,.21,.1,.42,.1s.21,.1,.21,.21h-.31c-.21,0-.31,.1-.31,.31,0,0-.1,0-.1,.1h.1v.73c-.1,.1-.1,.21,0,.21,0,.1,0,.31,.21,.31,.1,.1,.21,.1,.21,0,.1,0,.21-.1,.21,.1,0,.1,0,.21-.1,.21h-.63c-.21-.1-.21-.21-.21-.42v-1.47s0-.1-.1-.1c-.21,0-.31,0-.21-.31,.42,.1,.52,0,.42-.31h0Z"/>
    <path class="cls-14" d="M407.32,88.15c.21,0,.21-.21,.21-.31,.1-.1,0-.21-.1-.31,0-.1-.1,0-.1,.1l-.1-.1c-.1-.1-.21-.31-.42-.31-.21-.21-.31-.31-.31-.63,.1-.31,.31-.42,.63-.42h.42c.1,0,.21,0,.21,.21s-.1,.1-.21,.1h-.1c-.21,0-.52-.1-.63,.21-.1,.31,.21,.42,.42,.52,.31,.21,.63,.52,.52,.94-.21,0-.31,.21-.52,.31l-.1-.1h0c.1-.1,.21-.21,.21-.21h0Z"/>
    <path class="cls-14" d="M385.33,75.05v.94c0,.21-.1,.31-.21,.31s-.21-.1-.21-.31c.1-.52,.1-1.15,.1-1.68,0-.1,0-.31,.21-.31s.21,.1,.21,.31c-.1,.21-.1,.42-.1,.73h0Z"/>
    <path class="cls-14" d="M389.1,75.05v.94c0,.21-.1,.21-.21,.21s-.21-.1-.21-.21c.1-.63,.1-1.26,.1-1.89,0-.21,.1-.21,.21-.21s.21,0,.1,.21v.94h0Z"/>
    <path class="cls-14" d="M407.64,82.28h.42c.1,.1,.1,.21,.21,.1,.1,0,.21,0,.21,.1s.1,.21,.21,.21v1.36c-.07,.07-.07,.14,0,.21,0,.21,0,.31-.21,.31v-1.47c0-.1,.1-.21-.1-.31-.42-.21-.84-.21-1.15,0h-.1c0-.1,.1-.21,.31-.21,.1,0,.21-.1,.21-.31h0Z"/>
    <path class="cls-14" d="M407.01,83.12c0,.1,0,.21-.1,.21-.07,.07-.1,.14-.1,.21v.84c0,.1,0,.21-.1,.21s-.21,0-.31-.1c.1-.1,.1-.21,0-.21-.1-.21,0-.42,0-.63,.21,.1,.1,.21,.21,.42,.1-.52,0-.94,0-1.36,0-.21,.1-.21,.21-.21,0,0,0,.1,.1,.1,.1,.1-.1,.31,.1,.31h0v.21c0-.21,0-.1,0,0h0Z"/>
    <path class="cls-13" d="M404.81,82.6c-.31-.21-.84,.1-.84,.52,0,.21-.1,.31-.1,.52-.1-.42,0-.84,.31-1.05,.31-.31,.73-.42,1.15-.21,.1,0,.31,0,.31,.21-.1,.1-.31-.21-.42,.1-.1-.1-.21-.1-.42-.1h0Z"/>
    <path class="cls-22" d="M388.89,84.38c0,.1-.1,.21,0,.21h.42c-.1,.21-.31,.1-.52,.1s-.31-.1-.52-.21c-.1,.21,0,.31,0,.52s.1,.42-.1,.52v-.73c0-.31,.1-.52,.21-.73,.21,.1,.31,.31,.52,.31h0Z"/>
    <path class="cls-22" d="M394.44,88.15c.1,.21,.31,.1,.42,.1,0,.1-.1,.1-.21,.21-.31,.21-1.05,0-1.26-.21-.07-.07-.1-.14-.1-.21,.1,0,.21,.1,.31,.21,.1,0,.31,.21,.42-.1,.1-.1,.21,0,.42,0h0Z"/>
    <path class="cls-22" d="M387.95,83.96c.1,0,.1,.1,.1,.21v1.26c0,.1-.1,.21-.1,.31-.07,0-.1-.03-.1-.1-.1-.63,0-1.15,.1-1.68Z"/>
    <path class="cls-24" d="M407.01,82.39c-.14,0-.21,.07-.21,.21v1.36c-.1-.1,0-.31-.21-.42-.1-.42,0-.73,0-1.15,0-.1,.1-.1,.42,0Z"/>
    <path class="cls-24" d="M402.51,86.26c.21,0,.1,.1,.1,.21v1.15c0,.21-.1,.21-.21,.21,0-.52,0-1.05,.1-1.57h0Z"/>
    <path class="cls-24" d="M400.31,87.52c-.1,0-.1-.1-.1-.21s.1-.21,.31-.21h1.57c-.1,.1-.21,.1-.31,.1h-1.15c-.21,.1-.31,.1-.31,.31h0Z"/>
    <path class="cls-13" d="M383.97,86.26c.1,0,.1,.1,.1,.21,0,.52,0,1.05-.1,1.57,0,.21,0,.31,.31,.31,0,.21-.21,.1-.31,.1-.21,0-.1-.1-.1-.21,.1-.63,.1-1.36,.1-1.99Z"/>
    <path class="cls-22" d="M406.17,88.36c-.1-.1-.21-.1-.31-.1s-.21,0-.21-.1c.42,.1,.84-.1,1.15,0,0,.1,0,.21-.1,.31-.1,.1-.31-.1-.52-.1Z"/>
    <path class="cls-22" d="M408.37,82.81c.21,0,.1,.21,.1,.31v1.47c-.21,.1-.31-.1-.21-.21,.21-.52,.1-1.05,.1-1.57h0Z"/>
    <path class="cls-22" d="M385.43,80.29c.31,0,.21-.1,.21-.31,0-.1-.1-.31,.21-.31v.52c0,.21-.1,.21-.21,.31,0,0-.21-.1-.21-.21Z"/>
    <path class="cls-14" d="M385.12,73.17c.1,0,.21,0,.21,.1s-.1,.21-.21,.21-.21,0-.21-.21c0-.1,.1-.1,.21-.1Z"/>
    <path class="cls-14" d="M388.99,73.17c.1,0,.21,0,.21,.21,0,.1-.1,.21-.21,.21s-.31-.1-.21-.21c0-.21,.1-.21,.21-.21Z"/>
    <path class="cls-22" d="M395.59,78.51c-.21,0-.31-.1-.42-.21-.31-.1-.63-.1-.94-.1,.21-.21,.42-.1,.63-.1s.52,.1,.73,.42h0Z"/>
    <path class="cls-13" d="M397.9,84.59c0-.1,.1-.1,.1-.1,.31,.1,.52,.1,.84,0,.1,0,.21,0,.21,.1-.42,.21-.84,.21-1.15,0Z"/>
    <path class="cls-22" d="M395.17,80.4c.21,0,.21-.21,.21-.42-.1-.21,0-.31,.21-.52,.1,.21,0,.52,0,.73s-.21,.31-.42,.21Z"/>
    <path class="cls-22" d="M401.35,88.15h0c.21,0,.42-.1,.42,.1,0,.1,0,.42-.31,.31h-.1v-.1c.1-.21,0-.21,0-.31h0Z"/>
    <path class="cls-24" d="M399.99,87.94c.1-.1,.21-.1,.21,0,.1,.1,.31,.31,.52,.21,0,.1-.1,.1-.1,.21-.31,0-.52-.1-.63-.42h0Z"/>
    <path class="cls-22" d="M392.76,84.59s0-.1,0,0c.42,.1,.84-.1,1.15-.1-.31,.21-.63,.31-.94,.21-.1,0-.21-.1-.21-.1h0Z"/>
    <path class="cls-24" d="M407.11,82.81c-.21,0,0-.21-.1-.31,.21-.1,.42-.21,.63-.21,0,.21-.1,.31-.21,.31-.21,0-.21,.1-.31,.21Z"/>
    <path class="cls-13" d="M403.76,78.2c-.1,.31-.31,.63-.42,.94,0,.1-.1,.1-.21,0,.1-.31,.21-.52,.31-.84,.1,0,.21-.1,.31-.1h0Z"/>
    <path class="cls-22" d="M399.36,78.3c-.42,0-.73-.21-1.15-.1,.1-.1,.21-.1,.31-.1,.42,0,.63,0,.84,.21Z"/>
    <path class="cls-13" d="M398.84,80.19c0,.1,0,.21-.1,.21s-.1,.1-.1,.21c-.21,.1-.31-.1-.42-.1,0-.1,.1-.1,.1-.1,.07,0,.14-.03,.21-.1,0-.1,.1-.1,.31-.1Z"/>
    <path class="cls-24" d="M406.8,88.46c0-.1,0-.21,.1-.31h.42c0,.1-.1,.21,0,.31h0v.1c-.21-.1-.31-.1-.52-.1Z"/>
    <path class="cls-22" d="M405.23,88.15c.21,.1,.52,.21,.73,.21,.07,0,.1,.03,.1,.1h-.42c-.1,0-.31,0-.42-.31h0Z"/>
    <path class="cls-22" d="M387.11,84.38c-.1-.42,0-.73,.1-1.05,0,.31,0,.73-.1,1.05Z"/>
    <path class="cls-22" d="M389.62,88.46c0-.1-.21-.21-.1-.31,.1-.1,.21-.1,.42,0-.1,.1-.1,.31-.31,.31h0Z"/>
    <path class="cls-13" d="M410.47,82.7c.1-.21,0-.21-.21-.21-.1,0-.31,.1-.42-.1,.1,.1,.31,.1,.52,.1,.1,0,.21,0,.21,.1,0,0,0,.1-.1,.1Z"/>
    <path class="cls-13" d="M409.63,84.59h.63c-.1,.21-.31,.21-.63,0Z"/>
    <path class="cls-24" d="M393.92,79.98c-.1,0-.21,0-.21-.1,0-.21,.1-.31,.21-.31s.1,0,.1,.1c-.1,.1-.1,.21-.1,.31Z"/>
    <path class="cls-24" d="M387.63,74.01h-.73c.31-.21,.52-.21,.73,0Z"/>
    <path class="cls-24" d="M399.89,87v.73c-.1-.21-.1-.52,0-.73Z"/>
    <path class="cls-13" d="M384.28,87.73c0-.21-.1-.42,.1-.63,0,.21,0,.42-.1,.63Z"/>
    <path class="cls-22" d="M400.52,88.46c0-.1,.1-.1,.1-.21v-.21h.21s0,.1,.1,.1c-.1,0-.21,0-.21,.1v.21h-.21Z"/>
    <path class="cls-24" d="M388.78,88.46c.21-.21,.42-.21,.63,0h-.63Z"/>
    <path class="cls-22" d="M386.9,82.49c0,.1-.1,.1-.21,.1s-.1-.1-.1-.21c.1-.1,.21,0,.31,.1Z"/>
    <path class="cls-13" d="M409.52,82.07c.1,.31,0,.42-.31,.42,.21-.21,.31-.21,.31-.42Z"/>
    <path class="cls-22" d="M407.43,88.46c.21-.1,.21-.31,.52-.31-.1,.21-.31,.31-.52,.31h0Z"/>
    <path class="cls-24" d="M400.83,88.46v-.21c.21,.1,.42,0,.52,.1v.1h-.52Z"/>
    <path class="cls-22" d="M386.79,83.85c0,.21,.1,.42-.1,.52,0-.21-.1-.42,.1-.52Z"/>
    <path class="cls-22" d="M406.8,87.21c.21,0,.31,.1,.42,.31-.21-.1-.31-.21-.42-.31Z"/>
    <path class="cls-22" d="M395.59,79.04c-.1-.21-.1-.31,0-.52v.52Z"/>
    <path class="cls-13" d="M399.15,84.48c-.1,0-.1-.1-.21-.1,.07-.07,.14-.1,.21-.1s.07,.07,0,.21Z"/>
    <path class="cls-13" d="M398.84,80.5c.14-.21,.24-.24,.31-.1-.1,0-.21,.1-.31,.1Z"/>
    <path class="cls-24" d="M391.3,76.21c-.1-.21,0-.21,.21-.21,0,.21,0,.31-.21,.21Z"/>
    <path class="cls-13" d="M397.48,84.38c.1,0,.21,.1,.31,.21-.1-.1-.31-.1-.31-.21Z"/>
    <path class="cls-13" d="M398.63,84.38c-.1,.1-.21,.1-.42,0h.42Z"/>
    <path class="cls-22" d="M394.96,88.25c.21,0,.1,.21,.21,.21-.31,0-.21-.1-.21-.21Z"/>
    <path class="cls-13" d="M397.79,80.08c.21,0,.31,.1,.31,.21-.1,0-.31,0-.31-.21Z"/>
    <path class="cls-13" d="M399.26,80.4c0-.21,.1-.21,.31-.21-.1,.1-.21,.1-.31,.21Z"/>
    <path class="cls-22" d="M387.21,82.81c-.21,0-.21-.1-.21-.31,.1,.1,.21,.21,.21,.31Z"/>
    <path class="cls-22" d="M407.32,87.52h0c.1,0,.21,0,.21,.21-.1,0-.1-.1-.21-.21Z"/>
    <path class="cls-24" d="M401.04,88.15s-.05,0,0,0c.1-.1,.21-.1,.42-.1,0,0,0,.1-.1,.1h-.31Z"/>
    <path class="cls-22" d="M386.27,82.28c-.1,.1-.1,.21-.21,.1,0-.1,.1-.1,.21-.1Z"/>
    <path class="cls-24" d="M390.35,76.1c.21-.21,.1,.1,.21,.1-.1,.1-.21,0-.21-.1Z"/>
    <path class="cls-24" d="M385.01,79.35c.1-.1,.1-.21,.21-.1,0,.1-.1,.1-.21,.1Z"/>
    <path class="cls-22" d="M406.9,83.54c0-.1,0-.21,.1-.21,0,.1,0,.21-.1,.21Z"/>
    <path class="cls-24" d="M408.27,82.39c-.1,0-.21,0-.21-.1,.1,0,.21,0,.21,.1Z"/>
    <path class="cls-24" d="M386.48,74.11s-.1,.1,0,0c-.21,0-.1-.1-.1-.1,0,0,.1,0,.1,.1Z"/>
    <path class="cls-13" d="M409.84,84.06c-.1-.1-.1-.21,0-.21v.21Z"/>
    <path class="cls-22" d="M406.49,84.27c.1,.1,.1,.21,0,.21v-.21Z"/>
    <path class="cls-24" d="M408.69,82.7c-.1,0-.21-.1-.21-.21,.21,0,.21,.1,.21,.21Z"/>
    <path class="cls-13" d="M403.13,79.35s.05,0,0,0c.1,.21,0,.21-.1,.21,.1-.1,.1-.21,.1-.21Z"/>
    <path class="cls-13" d="M410.26,84.38c-.07,.07-.14,.07-.21,0h.21Z"/>
    <path class="cls-24" d="M390.04,76c.07,0,.14,.03,.21,.1-.21,.1-.21,0-.21-.1Z"/>
    <path class="cls-22" d="M392.34,84.38c.1,0,.1,.1,.21,.1-.1,0-.21,0-.21-.1Z"/>
    <path class="cls-22" d="M389.52,84.59c0-.1,0-.21,.1-.1,0,.07-.03,.1-.1,.1Z"/>
    <path class="cls-22" d="M398.21,78.2c0,.1-.1,.1-.21,.1,0-.1,.1-.1,.21-.1Z"/>
    <path class="cls-13" d="M397.27,83.96c.1,0,.1,.1,.1,.1-.07,0-.1-.03-.1-.1Z"/>
    <path class="cls-24" d="M386.69,74.01c0,.1-.1,.1-.1,.1,0-.1,0-.21,.1-.1Z"/>
    <path class="cls-13" d="M409.84,82.07c-.1,0,0-.1,0-.21,.1,.1,0,.21,0,.21Z"/>
    <path class="cls-24" d="M408.79,84.27c-.07-.07-.07-.14,0-.21,0,.1,.1,.21,0,.21Z"/>
    <path class="cls-13" d="M399.57,80.08c0-.1,0-.21,.1-.21,0,.14-.03,.21-.1,.21Z"/>
    <path class="cls-24" d="M385.54,79.66v.21c-.07-.07-.07-.14,0-.21Z"/>
    <path class="cls-13" d="M403.03,79.56s.1,0,0,0c.1,.21,0,.21,0,.1v-.1Z"/>
    <path class="cls-13" d="M384.59,86.26l-.1,.1c-.1,0,0-.1,.1-.1-.1,0-.1,.1,0,0Z"/>
    <path class="cls-24" d="M385.43,79.24s0-.05,0,0c.1-.1,.1,0,0,0h0Z"/>
    <path class="cls-13" d="M403.97,78.41c0-.07,.03-.1,.1-.1s.03,.03-.1,.1Z"/>
    <path class="cls-24" d="M400.72,88.04s-.05,0,0,0c-.1-.1,0,0,0,0Z"/>
    <path class="cls-13" d="M409.42,82.7s.1,0,0,0c.1,.1,0,.1,0,.1v-.1Z"/>
    <path class="cls-22" d="M392.24,84.17c.07,0,.1,.03,.1,.1s-.03,.03-.1-.1Z"/>
    <path class="cls-13" d="M397.37,84.17c.1,0,.1,.1,0,0t0,0Z"/>
    <path class="cls-24" d="M408.79,82.91c-.1,0-.1-.1,0-.1,0,0,.1,.1,0,.1Z"/>
    <path class="cls-22" d="M392.24,83.02c0,.07-.03,.1-.1,.1s-.03-.03,.1-.1Z"/>
    <path class="cls-24" d="M407.01,83.12c0-.07,.03-.1,.1-.1l-.1,.1Z"/>
    <path class="cls-13" d="M409.84,83.12c0-.1-.1-.1,0,0-.1-.1,0-.1,0-.1v.1Z"/>
    <path class="cls-22" d="M385.96,82.49s-.1,0,0,0t0,0Z"/>
    <path class="cls-13" d="M397.69,79.98s.1,.1,0,0c0,.1-.1,.1,0,0Z"/>
    <path class="cls-22" d="M392.14,83.96c.1,0,.1,.1,.1,.1-.07,0-.1-.03-.1-.1Z"/>
    <path class="cls-24" d="M407.11,82.91s0-.1,0,0t0,0c.1-.1,.1,0,0,0Z"/>
    <path class="cls-24" d="M407.32,88.46s0-.1,0,0t0,0c0-.1,.1,0,0,0t0,0c.1,0,0,0,0,0Z"/>
    <path class="cls-1" d="M352.75,90.87c-.07-.07-.14-.14-.21-.21-.21-.21-.42-.42-.52-.52-.21-.21-.1-.31,0-.42,.63-.63,1.36-1.15,1.99-1.78,1.47-1.36,2.93-2.72,4.29-4.09,.21-.21,.42-.21,.63,0,.21,.21,.31,.31,.52,.52,.21,.1,.1,.21,0,.42-1.15,1.05-2.3,2.09-3.46,3.25-1.05,.94-1.99,1.89-3.04,2.83-.07-.07-.14-.07-.21,0h0Z"/>
    <path class="cls-1" d="M359.98,75.37c.07,.07,.14,.14,.21,.21,.63,.84,.52,.84-.1,1.78-.63,.84-1.36,1.57-2.2,2.09-.73,.42-1.47,.63-2.2,.63-.84,0-1.68-.31-2.41-.84-.94-.73-1.68-1.57-2.09-2.62-.31-.73-.42-1.57-.21-2.41,.31-1.68,1.47-2.83,2.72-3.88,.21-.1,.42-.31,.63-.42,.14-.07,.28-.07,.42,0,.21,.21,.42,.31,.52,.52,.21,.1,.21,.21,0,.31-.52,.31-1.05,.63-1.47,.94-.73,.63-1.26,1.36-1.47,2.2-.31,1.15-.1,2.2,.63,3.14,.52,.63,1.15,1.26,1.99,1.47,.42,.1,.94,.21,1.36,.1,1.57-.31,2.51-1.36,3.25-2.62,.1-.1,.21-.42,.42-.63Z"/>
    <path class="cls-1" d="M364.8,83.43c.31,0,.52,.21,.73,.31,1.57,.73,3.14,1.57,4.71,2.2,1.05,.52,2.09,.94,3.14,1.47,.31,.1,.31,.21,.1,.42s-.42,.42-.52,.63c-.1,.1-.21,.21-.42,.1-1.15-.63-2.3-1.15-3.46-1.68-.21-.1-.21,0-.31,.1-.73,.73-1.36,1.47-2.09,2.09-.21,.21,0,.42,0,.52,.31,.94,.63,1.89,.94,2.83,.1,.21,.1,.42,.21,.52,.21,.31,.1,.63-.21,.84-.21,.1-.31,.31-.42,.42-.21,.21-.31,.1-.31-.1-.1-.31-.21-.63-.31-.94-.21-.52-.31-1.05-.52-1.57-.1-.42-.31-.94-.42-1.36-.1-.42-.31-.94-.42-1.36-.21-.63-.42-1.26-.63-1.89-.21-.73-.52-1.47-.73-2.2-.1-.31-.1-.52,.1-.73,.21-.1,.42-.31,.52-.52,.1-.1,.21-.1,.31-.1h0Zm.52,1.57c-.1,.1,0,.21,0,.31,.21,.52,.31,.94,.42,1.47,.1,.31,.21,.52,.31,.84,0,0,0,.31,.21,.1,.52-.52,.94-.94,1.47-1.47,.1-.1,.1-.21-.1-.21-.1,0-.31-.1-.42-.21-.63-.21-1.26-.52-1.89-.84h0Z"/>
    <path class="cls-1" d="M381.77,86.05c.21,.21,.21,.52,.31,.73,0,.07-.03,.1-.1,.1h-.31c-.21,0-.31-.1-.21-.31,.1-.1,.21-.31,.31-.52Z"/>
    <path class="cls-1" d="M388.36,79.24c0,.84-.42,1.05-.94,.94-.31,0-.52-.31-.52-.73v-.31c0-.21-.1-.63,.21-.63,.42-.1,.84-.21,1.15,.21,.21,.1,.1,.31,.1,.52h0Z"/>
    <path class="cls-1" d="M394.44,88.15h-.52c-.42-.21-.42-.31-.42-.84,0-.42,.21-.52,.52-.73,.21-.1,.42-.1,.63-.1,.28,0,.42,.14,.42,.42,0,.31,0,.73-.21,1.05-.1,.1-.31,.1-.42,.21h0Z"/>
    <path class="cls-1" d="M388.89,84.38c-.21,0-.31-.21-.52-.21-.21-.42-.1-.84-.1-1.26,0-.1,0-.21,.1-.21,.31,0,.73-.1,1.05,.1s.42,.52,.31,.84c-.1,.52-.21,.73-.84,.73Z"/>
    <path class="cls-1" d="M390.35,78.41c.52,0,.84,.31,.84,.84,0,.42-.31,.94-.84,.94-.42,0-.84-.31-.84-.94,0-.52,.31-.84,.84-.84Z"/>
    <path class="cls-1" d="M388.36,86.89c.1-.52,.42-.52,.84-.52,.21,0,.42,.1,.52,.31,.1,.1,.1,.21-.1,.21-.52,.1-.94,.1-1.26,0Z"/>
    <path class="cls-1" d="M393.18,84.38h-.31c0-.07-.03-.1-.1-.1,0-.1-.1-.1-.1-.21s0-.1-.1-.1v-.42c0-.31,.1-.63,.42-.73,.31-.1,.73-.21,1.05,.21,.21,.31,.21,.94-.21,1.26-.07,0-.1,.03-.1,.1h-.52Z"/>
    <path class="cls-22" d="M392.45,83.43v.21c-.1,0-.1-.1,0-.21Z"/>
    <path class="cls-22" d="M393.18,84.38h.21c-.1,.1-.21,.1-.21,0Z"/>
    <path class="cls-22" d="M392.45,83.96c.1,0,.1,.1,.1,.1-.07,0-.1-.03-.1-.1Z"/>
    <path class="cls-22" d="M392.76,84.27c.07,0,.1,.03,.1,.1-.1,0-.1-.1-.1-.1Z"/>
    <path class="cls-22" d="M393.71,84.27c0-.07,.03-.1,.1-.1,0,.1-.1,.21-.1,.1Z"/>
    <path class="cls-1" d="M398.84,80.19h-.31c-.42-.1-.52-.31-.52-.63v-.52c.1-.21,.21-.42,.52-.52,.31,0,.73-.1,.94,.21,.31,.52,0,1.47-.63,1.47h0Z"/>
    <path class="cls-1" d="M404.81,82.6c.1-.1,.31-.1,.42,0,.21,0,.31,.31,.42,.42,.1,0,0,.1,0,.21s-.1,0-.21,0h-1.05c-.1,0-.21,0-.21-.1s0-.21,.1-.21c.21-.1,.42-.21,.52-.31Z"/>
    <path class="cls-1" d="M398.32,83.22h-.52c-.21,0-.21-.1-.1-.31,.21-.52,1.05-.52,1.26-.1,.1,.1,.1,.21,0,.31,0,.1-.21,0-.21,0-.1,.21-.21,.1-.42,.1Z"/>
    <path class="cls-1" d="M401.04,87h-.42c-.1,0-.21,0-.31-.1,0-.1,.1-.21,.1-.21,.21-.21,.73-.31,1.05-.1,.1,.1,0,.31,.31,.31,0,.07-.03,.1-.1,.1-.21,0-.42,0-.63,0Z"/>
    <path class="cls-14" d="M401.04,88.15h.31c.1,0,.1,.1,.1,.21-.21-.1-.42,0-.52-.1s0,0,.1-.1h0Z"/>
    <path class="cls-22" d="M365.32,85.01c.63,.31,1.36,.63,1.99,.84,.1,.1,.31,.1,.42,.21,.21,.1,.1,.1,.1,.21-.52,.52-.94,.94-1.47,1.47-.21,.21-.21-.1-.21-.1-.1-.31-.21-.63-.31-.84-.21-.52-.31-.94-.42-1.47-.1,0-.21-.1-.1-.31Z"/>
  </g>
  <line class="cls-19" x1="201.52" y1="10.24" x2="201.52" y2="106.11"/>
  <g>
    <path class="cls-25" d="M286.09,16.07c.52-.07,1.18-.15,1.85-.15,1.25,0,2.14,.3,2.8,.89,.59,.59,.96,1.33,.96,2.44s-.37,2.07-.96,2.66c-.66,.66-1.7,.96-3.03,.96-.66,0-1.18,0-1.62-.07v-6.72h0Zm.89,6.05c.22,.07,.52,.07,.89,.07,1.92,0,2.95-1.03,2.95-2.88,0-1.62-.89-2.66-2.8-2.66-.44,0-.81,.07-1.03,.07v5.39h0Z"/>
    <path class="cls-25" d="M292.81,19.46v-1.55h.81v.96h0c.22-.66,.74-1.11,1.33-1.11h.22v.81h-.3c-.66,0-1.11,.52-1.18,1.18v3.1h-.89v-3.39h0Z"/>
    <path class="cls-25" d="M297.16,16.51c0,.3-.22,.52-.59,.52-.3,0-.52-.22-.52-.52s.22-.59,.59-.59,.52,.3,.52,.59Zm-1.03,6.27v-4.94h.89v4.94h-.89Z"/>
    <path class="cls-25" d="M298.86,17.91l.96,2.73c.15,.44,.3,.89,.37,1.25h0c.07-.44,.22-.81,.44-1.25l.96-2.73h.96l-1.92,4.94h-.89l-1.85-4.94h.96Z"/>
    <path class="cls-25" d="M303.81,20.5c0,1.18,.81,1.7,1.7,1.7,.66,0,1.03-.15,1.33-.22l.15,.66c-.3,.15-.89,.3-1.62,.3-1.48,0-2.44-.96-2.44-2.51s.89-2.66,2.29-2.66c1.62,0,2.07,1.4,2.07,2.29v.44h-3.47Zm2.66-.59c0-.59-.22-1.48-1.25-1.48-.89,0-1.33,.81-1.4,1.48h2.66Z"/>
    <path class="cls-25" d="M221,27.07h3.69v.74h-2.8v2.29h2.58v.74h-2.58v3.1h-.89v-6.86h0Z"/>
    <path class="cls-25" d="M225.8,26.7h.89v7.23h-.89v-7.23Z"/>
    <path class="cls-25" d="M232.59,31.42c0,1.85-1.25,2.58-2.44,2.58-1.33,0-2.36-.96-2.36-2.51s1.11-2.58,2.44-2.58,2.36,1.03,2.36,2.51h0Zm-3.84,.07c0,1.11,.59,1.92,1.48,1.92s1.48-.81,1.48-1.92c0-.81-.44-1.92-1.48-1.92s-1.48,.96-1.48,1.92h0Z"/>
    <path class="cls-25" d="M234.06,28.98l.66,2.51c.15,.52,.3,1.03,.37,1.55h0c.07-.52,.3-1.03,.44-1.55l.81-2.51h.74l.74,2.44c.15,.59,.3,1.11,.44,1.62h0c.07-.52,.22-1.03,.37-1.62l.74-2.44h.89l-1.55,4.94h-.81l-.74-2.36c-.15-.52-.3-1.03-.44-1.62h0c-.15,.59-.3,1.11-.44,1.62l-.81,2.36h-.81l-1.48-4.94h.89Z"/>
    <path class="cls-25" d="M245.5,31.42c0,1.85-1.25,2.58-2.44,2.58-1.33,0-2.36-.96-2.36-2.51s1.11-2.58,2.44-2.58,2.36,1.03,2.36,2.51h0Zm-3.91,.07c0,1.11,.59,1.92,1.48,1.92s1.48-.81,1.48-1.92c0-.81-.44-1.92-1.48-1.92s-1.48,.96-1.48,1.92h0Z"/>
    <path class="cls-25" d="M251.04,31.42c0,1.85-1.25,2.58-2.44,2.58-1.33,0-2.36-.96-2.36-2.51s1.11-2.58,2.44-2.58,2.36,1.03,2.36,2.51h0Zm-3.84,.07c0,1.11,.59,1.92,1.48,1.92s1.48-.81,1.48-1.92c0-.81-.44-1.92-1.48-1.92s-1.48,.96-1.48,1.92h0Z"/>
    <path class="cls-25" d="M256.43,26.7v7.23h-.81v-.89h0c-.3,.52-.89,.96-1.7,.96-1.18,0-2.14-1.03-2.14-2.51,0-1.62,1.03-2.66,2.21-2.66,.74,0,1.25,.37,1.48,.74h0v-2.95c.07,.07,.96,.07,.96,.07Zm-.89,4.28c0-.15,0-.3-.07-.37-.15-.59-.59-1.03-1.33-1.03-.89,0-1.48,.81-1.48,1.92,0,.96,.52,1.85,1.48,1.85,.59,0,1.11-.37,1.33-1.03,0-.15,.07-.22,.07-.37v-.96h0Z"/>
    <path class="cls-25" d="M257.24,35.18c.22-.59,.52-1.7,.59-2.44l1.03-.07c-.22,.89-.66,1.99-.96,2.44l-.66,.07h0Z"/>
    <path class="cls-25" d="M267.86,30.9c-.07-.96-.07-2.07-.07-2.95h0c-.22,.81-.52,1.62-.89,2.58l-1.18,3.32h-.66l-1.11-3.25c-.3-.96-.59-1.85-.81-2.66h0c0,.89-.07,1.99-.15,3.03l-.15,2.95h-.81l.44-6.86h1.11l1.18,3.32c.3,.81,.52,1.62,.66,2.29h0c.15-.66,.44-1.4,.74-2.29l1.18-3.32h1.11l.44,6.86h-.89l-.15-3.03h0Z"/>
    <path class="cls-25" d="M270.15,32.82c.37,.22,.96,.44,1.55,.44,.89,0,1.4-.52,1.4-1.18s-.37-1.03-1.33-1.33c-1.11-.37-1.85-.96-1.85-1.92,0-1.03,.89-1.85,2.21-1.85,.74,0,1.18,.15,1.48,.3l-.22,.74c-.22-.15-.66-.3-1.33-.3-.96,0-1.33,.59-1.33,1.03,0,.66,.44,.96,1.33,1.33,1.18,.44,1.77,1.03,1.77,1.99,0,1.03-.81,1.99-2.36,1.99-.66,0-1.4-.22-1.77-.44l.44-.81h0Z"/>
    <path class="cls-25" d="M277.31,32.9c.22,.15,.81,.44,1.48,.44,1.11,0,1.48-.74,1.48-1.25,0-.89-.81-1.33-1.7-1.33h-.52v-.74h.52c.66,0,1.48-.3,1.48-1.11,0-.52-.37-.96-1.18-.96-.52,0-1.03,.22-1.33,.44l-.22-.66c.37-.22,1.03-.52,1.7-.52,1.33,0,1.92,.81,1.92,1.55,0,.66-.37,1.25-1.18,1.55h0c.81,.15,1.48,.81,1.48,1.7,0,1.03-.81,1.99-2.44,1.99-.74,0-1.4-.22-1.7-.44l.22-.66h0Z"/>
    <path class="cls-25" d="M282.85,33.27h.74c.52-.07,1.03-.3,1.4-.66,.44-.37,.74-.96,.89-1.77h0c-.37,.44-.89,.74-1.55,.74-1.18,0-1.92-.89-1.92-1.99,0-1.25,.89-2.36,2.21-2.36s2.21,1.11,2.21,2.8c0,1.48-.52,2.44-1.11,3.1-.52,.52-1.18,.81-1.92,.89-.3,.07-.59,.07-.81,.07l-.15-.81h0Zm.37-3.76c0,.81,.52,1.4,1.25,1.4,.59,0,1.03-.3,1.33-.66,.07-.07,.07-.15,.07-.3,0-1.11-.44-1.99-1.33-1.99-.81-.07-1.33,.59-1.33,1.55h0Z"/>
    <path class="cls-25" d="M287.57,33.93v-.52l.74-.66c1.7-1.62,2.44-2.44,2.44-3.47,0-.66-.3-1.33-1.33-1.33-.59,0-1.11,.3-1.4,.59l-.3-.59c.44-.37,1.11-.66,1.85-.66,1.4,0,1.99,.96,1.99,1.92,0,1.25-.89,2.21-2.29,3.54l-.52,.52h2.95v.74c.07-.07-4.13-.07-4.13-.07Z"/>
    <path class="cls-25" d="M292.96,32.9c.22,.15,.81,.44,1.48,.44,1.11,0,1.48-.74,1.48-1.25,0-.89-.81-1.33-1.7-1.33h-.52v-.74h.52c.66,0,1.48-.3,1.48-1.11,0-.52-.37-.96-1.18-.96-.52,0-1.03,.22-1.33,.44l-.22-.66c.37-.22,1.03-.52,1.7-.52,1.33,0,1.92,.81,1.92,1.55,0,.66-.37,1.25-1.18,1.55h0c.81,.15,1.48,.81,1.48,1.7,0,1.03-.81,1.99-2.44,1.99-.74,0-1.4-.22-1.7-.44l.22-.66h0Z"/>
    <path class="cls-25" d="M297.98,33.93v-.52l.74-.66c1.7-1.62,2.44-2.44,2.44-3.47,0-.66-.3-1.33-1.33-1.33-.59,0-1.11,.3-1.4,.59l-.3-.59c.44-.37,1.11-.66,1.85-.66,1.4,0,1.99,.96,1.99,1.92,0,1.25-.89,2.21-2.29,3.54l-.52,.52h2.95v.74c.07-.07-4.13-.07-4.13-.07Z"/>
    <path class="cls-25" d="M224.47,65.59c-.15,0-.44,0-.66,.07-1.4,.22-2.14,1.25-2.29,2.36h0c.3-.44,.89-.74,1.62-.74,1.18,0,1.99,.81,1.99,2.14,0,1.18-.81,2.29-2.21,2.29s-2.36-1.11-2.36-2.8c0-1.33,.44-2.29,1.11-2.95,.52-.52,1.25-.89,2.14-.96,.3-.07,.52-.07,.66-.07v.66h0Zm-.22,3.84c0-.96-.52-1.55-1.33-1.55-.52,0-1.03,.3-1.25,.81-.07,.07-.07,.22-.07,.37,0,1.11,.52,1.92,1.48,1.92,.66,0,1.18-.59,1.18-1.55h0Z"/>
    <path class="cls-25" d="M230.3,68.25c0,2.21-.81,3.47-2.29,3.47-1.33,0-2.14-1.18-2.21-3.39,0-2.21,.96-3.39,2.29-3.39s2.21,1.18,2.21,3.32h0Zm-3.54,.07c0,1.7,.52,2.66,1.33,2.66,.89,0,1.33-1.03,1.33-2.73s-.44-2.66-1.33-2.66c-.81,0-1.33,.89-1.33,2.73Z"/>
    <path class="cls-25" d="M233.1,65.81h0l-1.18,.59-.15-.66,1.48-.81h.74v6.57h-.89v-5.68h0Z"/>
    <path class="cls-25" d="M236.42,71.05c0-.37,.22-.66,.59-.66s.59,.3,.59,.66-.22,.66-.59,.66-.59-.3-.59-.66Z"/>
    <path class="cls-25" d="M241.22,71.57v-1.77h-3.03v-.59l2.95-4.21h.96v4.13h.89v.66h-.89v1.77h-.89Zm0-2.51v-3.25h0c-.22,.37-.37,.66-.52,.96l-1.62,2.21h0l2.14,.07h0Z"/>
    <path class="cls-25" d="M248.09,68.25c0,2.21-.81,3.47-2.29,3.47-1.33,0-2.14-1.18-2.21-3.39,0-2.21,.96-3.39,2.29-3.39s2.21,1.18,2.21,3.32h0Zm-3.62,.07c0,1.7,.52,2.66,1.33,2.66,.89,0,1.33-1.03,1.33-2.73s-.44-2.66-1.33-2.66c-.74,0-1.33,.89-1.33,2.73Z"/>
    <path class="cls-25" d="M250.82,65.81h0l-1.18,.59-.15-.66,1.48-.81h.74v6.57h-.89v-5.68h0Z"/>
    <path class="cls-25" d="M254.14,71.05c0-.37,.22-.66,.59-.66s.59,.3,.59,.66-.22,.66-.59,.66c-.3,0-.59-.3-.59-.66Z"/>
    <path class="cls-25" d="M256.72,70.98h.74c.52-.07,1.03-.3,1.4-.66,.44-.37,.74-.96,.89-1.77h0c-.37,.44-.89,.74-1.55,.74-1.18,0-1.92-.89-1.92-1.99,0-1.25,.89-2.36,2.21-2.36s2.21,1.11,2.21,2.8c0,1.48-.52,2.44-1.11,3.1-.52,.52-1.18,.81-1.92,.89-.3,.07-.59,.07-.81,.07l-.15-.81h0Zm.3-3.84c0,.81,.52,1.4,1.25,1.4,.59,0,1.03-.3,1.33-.66,.07-.07,.07-.15,.07-.3,0-1.11-.44-1.99-1.33-1.99-.74-.07-1.33,.66-1.33,1.55h0Z"/>
    <path class="cls-25" d="M265.8,68.25c0,2.21-.81,3.47-2.29,3.47-1.33,0-2.14-1.18-2.21-3.39,0-2.21,.96-3.39,2.29-3.39s2.21,1.18,2.21,3.32h0Zm-3.62,.07c0,1.7,.52,2.66,1.33,2.66,.89,0,1.33-1.03,1.33-2.73s-.44-2.66-1.33-2.66c-.74,0-1.33,.89-1.33,2.73Z"/>
    <path class="cls-25" d="M270.89,65v.59l-2.88,5.98h-.89l2.88-5.83h-3.25v-.74h4.13Z"/>
    <path class="cls-25" d="M276.13,65v.59l-2.88,5.98h-.89l2.88-5.83h-3.25v-.74h4.13Z"/>
    <path class="cls-25" d="M279.45,68.25v-1.62h.81l.07,.81h0c.37-.59,.96-.96,1.77-.96,1.18,0,2.07,1.03,2.07,2.51,0,1.77-1.11,2.66-2.21,2.66-.66,0-1.18-.3-1.48-.81h0v2.66h-.89l-.15-5.24h0Zm.89,1.33v.37c.15,.59,.74,1.03,1.33,1.03,.96,0,1.48-.81,1.48-1.92,0-.96-.52-1.85-1.48-1.85-.59,0-1.18,.44-1.33,1.11,0,.07-.07,.22-.07,.37v.89h.07Z"/>
    <path class="cls-25" d="M285.28,64.41h.89v3.03h0c.15-.22,.37-.44,.66-.66,.3-.15,.59-.22,.89-.22,.66,0,1.7,.44,1.7,2.14v2.95h-.89v-2.8c0-.81-.3-1.48-1.11-1.48-.59,0-1.03,.44-1.18,.89-.07,.15-.07,.22-.07,.44v2.95h-.89v-7.23h0Z"/>
    <path class="cls-25" d="M295.32,69.06c0,1.85-1.25,2.58-2.44,2.58-1.33,0-2.36-.96-2.36-2.51s1.11-2.58,2.44-2.58,2.36,1.03,2.36,2.51h0Zm-3.91,.07c0,1.11,.59,1.92,1.48,1.92s1.48-.81,1.48-1.92c0-.81-.44-1.92-1.48-1.92s-1.48,.96-1.48,1.92h0Z"/>
    <path class="cls-25" d="M296.5,68.03v-1.33h.81l.07,.81h0c.22-.44,.81-.89,1.62-.89,.66,0,1.77,.44,1.77,2.07v2.95h-1.03v-2.8c0-.81-.3-1.48-1.11-1.48-.59,0-1.03,.44-1.18,.89,0,.07-.07,.3-.07,.44v2.95h-.89v-3.62h0Z"/>
    <path class="cls-25" d="M302.63,69.28c0,1.18,.81,1.7,1.7,1.7,.66,0,1.03-.07,1.33-.22l.15,.66c-.3,.15-.89,.3-1.62,.3-1.48,0-2.44-1.03-2.44-2.51s.89-2.66,2.29-2.66c1.62,0,2.07,1.4,2.07,2.29v.44h-3.47Zm2.58-.59c0-.59-.22-1.48-1.25-1.48-.89,0-1.33,.81-1.4,1.48h2.66Z"/>
    <path class="cls-25" d="M224.47,77.84c-.15,0-.44,0-.66,.07-1.4,.22-2.14,1.25-2.29,2.36h0c.3-.44,.89-.74,1.62-.74,1.18,0,1.99,.81,1.99,2.14,0,1.18-.81,2.29-2.21,2.29s-2.36-1.11-2.36-2.8c0-1.33,.44-2.29,1.11-2.95,.52-.52,1.25-.89,2.14-.96,.3-.07,.52-.07,.66-.07v.66h0Zm-.22,3.76c0-.96-.52-1.55-1.33-1.55-.52,0-1.03,.3-1.25,.81-.07,.07-.07,.22-.07,.37,0,1.11,.52,1.92,1.48,1.92,.66,.07,1.18-.59,1.18-1.55h0Z"/>
    <path class="cls-25" d="M230.3,80.43c0,2.21-.81,3.47-2.29,3.47-1.33,0-2.14-1.18-2.21-3.39,0-2.21,.96-3.39,2.29-3.39s2.21,1.18,2.21,3.32h0Zm-3.54,.07c0,1.7,.52,2.66,1.33,2.66,.89,0,1.33-1.03,1.33-2.73s-.44-2.66-1.33-2.66c-.81,0-1.33,.96-1.33,2.73Z"/>
    <path class="cls-25" d="M233.1,77.99h0l-1.18,.59-.15-.66,1.48-.81h.74v6.57h-.89v-5.68h0Z"/>
    <path class="cls-25" d="M236.42,83.23c0-.37,.22-.66,.59-.66s.59,.3,.59,.66-.22,.66-.59,.66-.59-.3-.59-.66Z"/>
    <path class="cls-25" d="M241.22,83.75v-1.77h-3.03v-.59l2.95-4.21h.96v4.13h.89v.66h-.89v1.77h-.89Zm0-2.44v-3.25h0c-.22,.37-.37,.66-.52,.96l-1.62,2.21h0l2.14,.07h0Z"/>
    <path class="cls-25" d="M248.09,80.43c0,2.21-.81,3.47-2.29,3.47-1.33,0-2.14-1.18-2.21-3.39,0-2.21,.96-3.39,2.29-3.39s2.21,1.18,2.21,3.32h0Zm-3.62,.07c0,1.7,.52,2.66,1.33,2.66,.89,0,1.33-1.03,1.33-2.73s-.44-2.66-1.33-2.66c-.74,0-1.33,.96-1.33,2.73Z"/>
    <path class="cls-25" d="M250.82,77.99h0l-1.18,.59-.15-.66,1.48-.81h.74v6.57h-.89v-5.68h0Z"/>
    <path class="cls-25" d="M254.14,83.23c0-.37,.22-.66,.59-.66s.59,.3,.59,.66-.22,.66-.59,.66c-.3,0-.59-.3-.59-.66Z"/>
    <path class="cls-25" d="M256.72,83.16h.74c.52-.07,1.03-.3,1.4-.66,.44-.37,.74-.96,.89-1.77h0c-.37,.44-.89,.74-1.55,.74-1.18,0-1.92-.89-1.92-1.99,0-1.25,.89-2.36,2.21-2.36s2.21,1.11,2.21,2.8c0,1.48-.52,2.44-1.11,3.1-.52,.52-1.18,.81-1.92,.89-.3,.07-.59,.07-.81,.07l-.15-.81h0Zm.3-3.84c0,.81,.52,1.4,1.25,1.4,.59,0,1.03-.3,1.33-.66,.07-.07,.07-.15,.07-.3,0-1.11-.44-1.99-1.33-1.99-.74,0-1.33,.66-1.33,1.55h0Z"/>
    <path class="cls-25" d="M265.8,80.43c0,2.21-.81,3.47-2.29,3.47-1.33,0-2.14-1.18-2.21-3.39,0-2.21,.96-3.39,2.29-3.39s2.21,1.18,2.21,3.32h0Zm-3.62,.07c0,1.7,.52,2.66,1.33,2.66,.89,0,1.33-1.03,1.33-2.73s-.44-2.66-1.33-2.66c-.74,0-1.33,.96-1.33,2.73Z"/>
    <path class="cls-25" d="M270.89,77.18v.59l-2.88,5.98h-.89l2.88-5.83h-3.25v-.74h4.13Z"/>
    <path class="cls-25" d="M271.7,82.12c0-.81,.52-1.4,1.33-1.77h0c-.74-.37-1.03-.89-1.03-1.48,0-1.03,.89-1.77,2.07-1.77,1.25,0,1.92,.81,1.92,1.62,0,.59-.3,1.18-1.11,1.55h0c.81,.3,1.33,.89,1.33,1.7,0,1.18-.96,1.92-2.21,1.92-1.4,0-2.29-.81-2.29-1.77h0Zm3.62-.07c0-.81-.59-1.18-1.48-1.4-.74,.22-1.18,.74-1.18,1.33,0,.66,.44,1.25,1.33,1.25s1.33-.44,1.33-1.18h0Zm-2.51-3.32c0,.66,.52,1.03,1.25,1.18,.59-.22,1.03-.59,1.03-1.18,0-.52-.3-1.11-1.11-1.11-.74,.07-1.18,.59-1.18,1.11h0Z"/>
    <path class="cls-25" d="M279.53,83.75v-4.21h-.66v-.66h.66v-.22c0-.66,.15-1.33,.59-1.7,.37-.3,.81-.44,1.18-.44,.3,0,.59,.07,.74,.15l-.15,.66c-.15-.07-.3-.07-.59-.07-.74,0-.96,.66-.96,1.4v.3h1.18v.66h-1.18v4.21l-.81-.07h0Z"/>
    <path class="cls-25" d="M285.13,83.75l-.07-.59h0c-.3,.37-.81,.74-1.48,.74-1.03,0-1.48-.66-1.48-1.4,0-1.18,1.03-1.85,2.95-1.85v-.07c0-.44-.07-1.11-1.11-1.11-.44,0-.96,.15-1.25,.37l-.22-.59c.37-.3,1.03-.44,1.62-.44,1.48,0,1.85,1.03,1.85,1.99v1.85c0,.44,0,.81,.07,1.18l-.89-.07h0Zm-.07-2.51c-.96,0-2.07,.15-2.07,1.11,0,.59,.37,.89,.81,.89,.66,0,1.03-.44,1.18-.81,0-.07,.07-.22,.07-.3v-.89h0Z"/>
    <path class="cls-25" d="M287.79,78.88l.74,1.03c.15,.3,.37,.52,.52,.81h0c.15-.3,.3-.52,.52-.81l.66-1.03h.96l-1.7,2.36,1.7,2.51h-1.03l-.74-1.11c-.22-.3-.37-.59-.52-.81h0c-.15,.3-.37,.59-.52,.81l-.74,1.11h-.96l1.77-2.51-1.7-2.44h1.03v.07Z"/>
    <path class="cls-25" d="M221,89.13h.89v6.13h2.95v.74h-3.84v-6.86Z"/>
    <path class="cls-25" d="M231.26,92.46c0,2.36-1.4,3.62-3.17,3.62s-3.1-1.4-3.1-3.47,1.33-3.62,3.17-3.62,3.1,1.48,3.1,3.47h0Zm-5.31,.15c0,1.48,.81,2.8,2.21,2.8s2.21-1.33,2.21-2.88c0-1.33-.74-2.8-2.21-2.8s-2.21,1.33-2.21,2.88h0Z"/>
    <path class="cls-25" d="M232.44,89.21c.44-.07,1.11-.15,1.7-.15,.96,0,1.55,.15,1.99,.59,.37,.3,.52,.81,.52,1.33,0,.89-.59,1.48-1.33,1.77h0c.52,.15,.81,.66,1.03,1.4,.22,.96,.37,1.62,.52,1.92h-.89c-.07-.22-.3-.81-.44-1.62-.22-.96-.59-1.33-1.4-1.33h-.81v2.95h-.89v-6.86h0Zm.89,3.1h.89c.96,0,1.55-.52,1.55-1.33,0-.89-.66-1.25-1.55-1.25-.44,0-.74,.07-.89,.07v2.51h0Z"/>
    <path class="cls-25" d="M242.18,88.77v7.23h-.81v-.89h0c-.3,.52-.89,.96-1.7,.96-1.18,0-2.14-1.03-2.14-2.51,0-1.62,1.03-2.66,2.21-2.66,.74,0,1.25,.37,1.48,.74h0v-2.95l.96,.07h0Zm-.96,4.28c0-.07,0-.3-.07-.37-.15-.59-.59-1.03-1.33-1.03-.89,0-1.48,.81-1.48,1.92,0,1.03,.52,1.85,1.48,1.85,.59,0,1.11-.37,1.33-1.03,0-.15,.07-.22,.07-.37v-.96h0Z"/>
    <path class="cls-25" d="M244.62,89.65c0,.3-.22,.52-.59,.52-.3,0-.52-.22-.52-.52s.22-.59,.59-.59,.52,.3,.52,.59Zm-.96,6.35v-4.94h.89v4.94h-.89Z"/>
    <path class="cls-25" d="M248.75,96l-.07-.59h0c-.3,.37-.81,.74-1.48,.74-1.03,0-1.48-.66-1.48-1.4,0-1.18,1.03-1.85,2.95-1.85v-.15c0-.44-.07-1.11-1.11-1.11-.44,0-.96,.15-1.25,.37l-.22-.59c.37-.3,1.03-.44,1.62-.44,1.48,0,1.85,1.03,1.85,1.99v1.85c0,.44,0,.81,.07,1.18,0,0-.89,0-.89,0Zm-.15-2.51c-.96,0-2.07,.15-2.07,1.11,0,.59,.37,.89,.81,.89,.66,0,1.03-.44,1.18-.81,0-.07,.07-.22,.07-.3v-.89h0Z"/>
    <path class="cls-25" d="M255.17,91.05c0,.37-.07,.74-.07,1.33v2.88c0,1.11-.22,1.85-.74,2.21-.44,.44-1.18,.59-1.77,.59s-1.25-.15-1.62-.44l.22-.66c.3,.22,.81,.37,1.48,.37,.89,0,1.55-.44,1.55-1.7v-.52h0c-.3,.44-.81,.81-1.55,.81-1.18,0-2.07-1.03-2.07-2.36,0-1.7,1.11-2.58,2.21-2.58,.89,0,1.33,.44,1.55,.81h0v-.74s.81,0,.81,0Zm-.96,1.92c0-.15,0-.3-.07-.44-.15-.52-.59-.96-1.25-.96-.89,0-1.48,.74-1.48,1.85,0,.96,.52,1.77,1.48,1.77,.52,0,1.03-.37,1.25-.89,.07-.15,.07-.3,.07-.44v-.89h0Z"/>
    <path class="cls-25" d="M256.5,92.38v-1.33h.81l.07,.81h0c.22-.44,.81-.89,1.62-.89,.66,0,1.77,.44,1.77,2.07v2.95h-.89v-2.8c0-.81-.3-1.48-1.11-1.48-.59,0-1.03,.44-1.18,.89,0,.07-.07,.3-.07,.44v2.95h-.89l-.15-3.62h0Z"/>
    <path class="cls-25" d="M266.61,93.49c0,1.85-1.25,2.58-2.44,2.58-1.33,0-2.36-.96-2.36-2.51s1.11-2.58,2.44-2.58,2.36,.96,2.36,2.51h0Zm-3.91,0c0,1.11,.59,1.92,1.48,1.92s1.48-.81,1.48-1.92c0-.81-.44-1.92-1.48-1.92s-1.48,1.03-1.48,1.92h0Z"/>
    <path class="cls-25" d="M267.64,95.04c.3,.15,.74,.37,1.18,.37,.66,0,.96-.3,.96-.74s-.22-.66-.89-.89c-.89-.3-1.33-.81-1.33-1.4,0-.81,.66-1.4,1.7-1.4,.52,0,.96,.15,1.18,.3l-.22,.66c-.22-.15-.52-.3-1.03-.3s-.81,.3-.81,.66c0,.44,.3,.59,.96,.81,.89,.3,1.33,.74,1.33,1.48,0,.89-.66,1.48-1.85,1.48-.52,0-1.03-.15-1.4-.3l.22-.74h0Z"/>
    <path class="cls-25" d="M272.81,89.65v1.4h1.25v.66h-1.25v2.66c0,.59,.15,.96,.66,.96,.22,0,.37,0,.52-.07l.07,.66c-.15,.07-.44,.15-.81,.15-.44,0-.74-.15-.96-.37-.22-.3-.37-.66-.37-1.25v-2.66h-.74v-.66h.74v-1.18l.89-.3h0Z"/>
    <path class="cls-25" d="M276.13,89.65c0,.3-.22,.52-.59,.52-.3,0-.52-.22-.52-.52s.22-.59,.59-.59,.52,.3,.52,.59Zm-1.03,6.35v-4.94h.89v4.94h-.89Z"/>
    <path class="cls-25" d="M281,95.78c-.22,.15-.74,.3-1.4,.3-1.48,0-2.44-1.03-2.44-2.51s1.03-2.58,2.66-2.58c.52,0,1.03,.15,1.25,.22l-.22,.66c-.22-.15-.52-.22-1.03-.22-1.11,0-1.77,.81-1.77,1.85,0,1.11,.74,1.85,1.7,1.85,.52,0,.81-.15,1.11-.22l.15,.66h0Z"/>
    <path class="cls-25" d="M281.96,95.04c.3,.15,.74,.37,1.18,.37,.66,0,.96-.3,.96-.74s-.22-.66-.89-.89c-.89-.3-1.33-.81-1.33-1.4,0-.81,.66-1.4,1.7-1.4,.52,0,.96,.15,1.18,.3l-.22,.66c-.22-.15-.52-.3-1.03-.3s-.81,.3-.81,.66c0,.44,.3,.59,.96,.81,.89,.3,1.33,.74,1.33,1.48,0,.89-.66,1.48-1.85,1.48-.52,0-1.03-.15-1.4-.3l.22-.74h0Z"/>
    <path class="cls-25" d="M285.72,95.41c0-.37,.22-.66,.59-.66s.59,.3,.59,.66-.22,.66-.59,.66c-.3,0-.59-.3-.59-.66Z"/>
    <path class="cls-25" d="M291.56,95.78c-.22,.15-.74,.3-1.4,.3-1.48,0-2.44-1.03-2.44-2.51s1.03-2.58,2.66-2.58c.52,0,1.03,.15,1.25,.22l-.22,.66c-.22-.15-.52-.22-1.03-.22-1.11,0-1.77,.81-1.77,1.85,0,1.11,.74,1.85,1.7,1.85,.52,0,.81-.15,1.11-.22l.15,.66h0Z"/>
    <path class="cls-25" d="M297.02,93.49c0,1.85-1.25,2.58-2.44,2.58-1.33,0-2.36-.96-2.36-2.51s1.11-2.58,2.44-2.58,2.36,.96,2.36,2.51h0Zm-3.91,0c0,1.11,.59,1.92,1.48,1.92s1.48-.81,1.48-1.92c0-.81-.44-1.92-1.48-1.92s-1.48,1.03-1.48,1.92h0Z"/>
    <path class="cls-25" d="M298.12,92.38v-1.33h.81v.81h0c.3-.44,.74-.89,1.55-.89,.66,0,1.18,.44,1.4,.96h0c.15-.3,.37-.52,.52-.66,.3-.22,.59-.37,1.11-.37,.66,0,1.62,.44,1.62,2.14v2.88h-.89v-2.8c0-.96-.37-1.55-1.03-1.55-.52,0-.89,.37-1.03,.81,0,.15-.07,.3-.07,.44v3.03h-.89v-2.95c0-.81-.37-1.33-1.03-1.33-.59,0-.96,.44-1.11,.89-.07,.15-.07,.3-.07,.44v2.95h-.89v-3.47h0Z"/>
    <g>
      <path d="M223.34,22.57v-1.65h-2.98v-.77l3.14-4.45h.69v4.45h.93v.77h-.93v1.65h-.84Zm0-2.42v-3.1l-2.15,3.1h2.15Z"/>
      <path d="M225.97,19.18c0-.81,.08-1.47,.25-1.96s.41-.88,.75-1.14,.75-.41,1.25-.41c.37,0,.69,.07,.97,.22,.28,.15,.51,.36,.69,.64,.18,.28,.32,.62,.43,1.02,.1,.4,.15,.94,.15,1.62,0,.8-.08,1.45-.25,1.95-.16,.49-.41,.88-.75,1.14-.33,.27-.75,.41-1.25,.41-.66,0-1.18-.24-1.56-.71-.45-.57-.68-1.51-.68-2.79h0Zm.86,0c0,1.13,.13,1.87,.4,2.25,.27,.38,.59,.56,.97,.56s.72-.18,.97-.56,.4-1.12,.4-2.25-.13-1.88-.4-2.25-.59-.56-.99-.56-.69,.16-.93,.49c-.29,.42-.44,1.19-.44,2.32h0Z"/>
      <path d="M231.31,19.18c0-.81,.08-1.47,.25-1.96s.41-.88,.75-1.14,.75-.41,1.25-.41c.37,0,.69,.07,.97,.22,.28,.15,.51,.36,.69,.64,.18,.28,.32,.62,.43,1.02,.1,.4,.15,.94,.15,1.62,0,.8-.08,1.45-.25,1.95-.16,.49-.41,.88-.75,1.14-.33,.27-.75,.41-1.25,.41-.66,0-1.18-.24-1.56-.71-.45-.57-.68-1.51-.68-2.79h0Zm.86,0c0,1.13,.13,1.87,.4,2.25,.27,.38,.59,.56,.97,.56s.72-.18,.97-.56,.4-1.12,.4-2.25-.13-1.88-.4-2.25-.59-.56-.99-.56-.69,.16-.93,.49c-.29,.42-.44,1.19-.44,2.32h0Z"/>
      <path d="M239.82,22.57h-.84v-5.37c-.21,.19-.47,.38-.8,.58s-.63,.34-.89,.44v-.81c.47-.22,.89-.49,1.24-.8,.35-.32,.61-.62,.75-.92h.55v6.89h-.01Z"/>
      <path d="M244.95,22.57v-6.87h.91v6.06h3.38v.81h-4.29Z"/>
      <path d="M253.46,21.95c-.31,.27-.61,.45-.9,.56s-.6,.16-.93,.16c-.55,0-.97-.13-1.26-.4s-.44-.61-.44-1.03c0-.24,.06-.46,.17-.66,.11-.2,.26-.36,.44-.49s.38-.21,.61-.27c.16-.04,.41-.09,.75-.13,.68-.08,1.18-.18,1.51-.29v-.22c0-.35-.08-.58-.24-.72-.21-.19-.54-.29-.96-.29-.4,0-.69,.07-.88,.21s-.33,.38-.42,.74l-.83-.11c.07-.35,.2-.63,.37-.86,.17-.21,.42-.38,.75-.5s.7-.18,1.13-.18,.77,.05,1.03,.15c.27,.1,.46,.23,.58,.38,.13,.15,.21,.34,.27,.58,.03,.14,.04,.41,.04,.77v1.12c0,.78,.01,1.28,.05,1.49,.04,.21,.11,.41,.21,.6h-.88c-.09-.18-.14-.38-.17-.61Zm-.07-1.88c-.3,.13-.77,.23-1.38,.32-.35,.05-.59,.1-.74,.17s-.25,.15-.33,.27c-.08,.12-.12,.25-.12,.4,0,.22,.09,.41,.26,.56s.42,.22,.75,.22,.61-.07,.86-.21c.25-.14,.44-.34,.56-.58,.09-.19,.13-.47,.13-.84v-.31h0Z"/>
      <path d="M255.55,22.57v-6.87h.84v3.92l1.99-2.02h1.09l-1.9,1.85,2.1,3.13h-1.04l-1.65-2.55-.6,.57v1.97h-.83Z"/>
      <path d="M263.75,20.97l.87,.11c-.14,.51-.39,.91-.77,1.19-.37,.28-.85,.42-1.42,.42-.73,0-1.31-.22-1.73-.67-.43-.45-.64-1.08-.64-1.88s.21-1.48,.65-1.95,.99-.69,1.68-.69,1.21,.23,1.63,.68c.42,.45,.63,1.09,.63,1.91v.22h-3.71c.03,.55,.18,.97,.46,1.25s.63,.44,1.04,.44c.31,0,.58-.08,.79-.24,.22-.16,.39-.42,.52-.77h0Zm-2.77-1.37h2.78c-.04-.42-.14-.73-.32-.94-.27-.32-.62-.49-1.05-.49-.38,0-.72,.13-.97,.39s-.41,.61-.44,1.04Z"/>
      <path d="M265.67,22.57v-6.87h.84v6.87h-.84Z"/>
      <path d="M271.06,21.95c-.31,.27-.61,.45-.9,.56s-.6,.16-.93,.16c-.55,0-.97-.13-1.26-.4s-.44-.61-.44-1.03c0-.24,.06-.46,.17-.66,.11-.2,.26-.36,.44-.49s.38-.21,.61-.27c.16-.04,.41-.09,.75-.13,.68-.08,1.18-.18,1.51-.29v-.22c0-.35-.08-.58-.24-.72-.21-.19-.54-.29-.96-.29-.4,0-.69,.07-.88,.21s-.33,.38-.42,.74l-.83-.11c.07-.35,.2-.63,.37-.86,.17-.21,.42-.38,.75-.5s.7-.18,1.13-.18,.77,.05,1.03,.15c.27,.1,.46,.23,.58,.38,.13,.15,.21,.34,.27,.58,.03,.14,.04,.41,.04,.77v1.12c0,.78,.01,1.28,.05,1.49,.04,.21,.11,.41,.21,.6h-.88c-.09-.18-.14-.38-.17-.61Zm-.07-1.88c-.3,.13-.77,.23-1.38,.32-.35,.05-.59,.1-.74,.17s-.25,.15-.33,.27c-.08,.12-.12,.25-.12,.4,0,.22,.09,.41,.26,.56s.42,.22,.75,.22,.61-.07,.86-.21c.25-.14,.44-.34,.56-.58,.09-.19,.13-.47,.13-.84v-.31h0Z"/>
      <path d="M273.15,22.57v-4.97h.76v.71c.37-.55,.89-.82,1.59-.82,.3,0,.58,.05,.83,.16s.44,.25,.56,.42,.21,.38,.27,.62c.03,.15,.04,.43,.04,.82v3.06h-.84v-3.03c0-.35-.03-.6-.1-.77s-.18-.31-.35-.41c-.17-.1-.36-.15-.59-.15-.36,0-.67,.11-.93,.34s-.39,.66-.39,1.3v2.72h-.85Z"/>
      <path d="M281.72,22.57v-.63c-.32,.49-.78,.74-1.39,.74-.4,0-.76-.11-1.09-.32-.33-.22-.59-.52-.77-.92s-.27-.84-.27-1.35,.08-.94,.25-1.35c.16-.41,.41-.72,.75-.93s.7-.32,1.11-.32c.3,0,.57,.07,.8,.19,.24,.13,.43,.3,.57,.49v-2.47h.84v6.87h-.78Zm-2.66-2.49c0,.63,.13,1.11,.4,1.43,.27,.32,.58,.47,.95,.47s.68-.15,.94-.45c.26-.3,.38-.76,.38-1.38,0-.68-.13-1.18-.39-1.5s-.58-.48-.97-.48-.69,.15-.94,.46-.38,.79-.38,1.45Z"/>
    </g>
  </g>
</svg>