<?xml version="1.0" encoding="UTF-8"?>
<svg id="Layer_1" xmlns="http://www.w3.org/2000/svg" xmlns:xlink="http://www.w3.org/1999/xlink" version="1.1" viewBox="0 0 2418.2 565.4">
  <!-- Generator: Adobe Illustrator 29.2.1, SVG Export Plug-In . SVG Version: 2.1.0 Build 116)  -->
  <defs>
    <style>
      .st0 {
        fill: url(#linear-gradient2);
      }

      .st1 {
        fill: url(#linear-gradient1);
      }

      .st2 {
        fill: url(#linear-gradient3);
      }

      .st3 {
        fill: url(#linear-gradient);
      }

      .st4 {
        fill: #00aeef;
      }

      .st5 {
        fill: #c1d82f;
      }

      .st6 {
        fill: #414142;
      }
    </style>
    <linearGradient id="linear-gradient" x1="284.9" y1="374.2" x2="557.2" y2="374.2" gradientUnits="userSpaceOnUse">
      <stop offset="0" stop-color="#c1d82f"/>
      <stop offset="1" stop-color="#414142"/>
    </linearGradient>
    <linearGradient id="linear-gradient1" x1="347.3" y1="525.8" x2="543.9" y2="121.3" gradientUnits="userSpaceOnUse">
      <stop offset="0" stop-color="#546d13"/>
      <stop offset="1" stop-color="#c1d82f"/>
    </linearGradient>
    <linearGradient id="linear-gradient2" x1="546" y1="411.1" x2="698.5" y2="544.5" gradientUnits="userSpaceOnUse">
      <stop offset="0" stop-color="#004d75"/>
      <stop offset="1" stop-color="#00aeef"/>
    </linearGradient>
    <linearGradient id="linear-gradient3" x1="548.5" y1="570.7" x2="715.2" y2="227.8" gradientUnits="userSpaceOnUse">
      <stop offset="0" stop-color="#004d75"/>
      <stop offset="1" stop-color="#00aeef"/>
    </linearGradient>
  </defs>
  <g>
    <path class="st3" d="M516.3,360.5l-4.3,7.9c-18.7,34.4-41.9,76.7-45,81.9,0,.2-.2.3-.3.5-.2.4-.5.8-.8,1.3-1,1.6-2.1,3.5-3.5,5.8h-116.5c-28.3,0-44.5-3.8-53.4-7.8-6.5-3-9.5-10.7-6.5-17.2,0,0,0-.1,0-.2,2.6-5.8,6.5-12.2,9.9-17.8,1.6-2.6,3.1-5.1,4.4-7.5,3.5-6.2,16.8-31,32.1-59.7,7.5-14.1,15.5-29.1,22.9-42.8,0,0,15.5,23.5,39.4,22.4,28.5-1.3,41.7-36.7,83.8-36.8,9.2,17.2,20.4,38,30.7,57.3,2.3,4.4,4.6,8.6,6.8,12.8ZM556.1,432.9c0,0,0-.1,0-.2-2.6-5.8-6.5-12.2-9.9-17.8-1.6-2.6-3.1-5.1-4.4-7.4-2.6,4.9-5.2,9.7-7.7,14.5-7.1,13.2-13.8,25.8-18.9,35.3,17-1.2,27.9-4.1,34.5-7.2,6.5-3,9.5-10.7,6.5-17.2Z"/>
    <path class="st1" d="M345.9,474.9h107.9c-2.9,6.8-5.4,14.4-6.7,22.2h-95c-32.9,0-80.6-3.1-100-29.5-19.4-26.3,9.4-69.6,15.4-79.6,6-10,67.7-123.3,75-137.3,7.3-14.1,14.3-29.1,14.3-44.9s-1.5-91.2-1.5-91.2c0,0-14.8-7.8-15.5-15-.7-7.3,27.2-7.6,35.7-7.2,0,0,3.9,73.3,4.5,91.1.5,17.8,1,39.3-16.5,71-17.5,31.7-70.4,131.7-77.8,144.5-7.3,12.8-22,33.3-19.1,46.9,2.9,13.6,20.4,29.1,79.3,29.1ZM574.6,388.1c-1.4-2.3-5.6-9.9-11.5-20.6-7.1-12.9-16.6-30.1-26-47.5-16.9-31-33.9-62.3-37.5-69.3-7.3-14.1-14.3-29.1-14.3-44.9s1.5-91.2,1.5-91.2c0,0,14.8-7.8,15.5-15,.7-7.3-27.2-7.6-35.7-7.2,0,0-3.9,73.3-4.5,91.1-.5,17.8-1,39.3,16.5,71,9.6,17.4,29.9,55.3,47.4,88.1,10.2,19.1,19.5,36.5,25.2,47.1,2.4,4.4,4.2,7.7,5.2,9.4,7.3,12.8,22,33.3,19.1,46.9-2.7,12.9-18.6,27.4-70,28.9-.9,1.6-1.9,3.2-3,5-3,4.9-6.3,10.5-8.6,15.5-.3.7-.6,1.3-.8,1.9,32.7-.2,78.1-3.9,96.9-29.5,19.4-26.3-9.4-69.6-15.4-79.6Z"/>
    <path class="st0" d="M718.7,510.1c-7.5,3.4-21.4,6.6-45.4,6.6h-127.8c-11.7,0-23.1-.7-34.4-3.4-4.5-1.1-6.1-5.8-2.9-6,33.6-1.7,76.9-6.3,94.6-30.2,6.2-8.4,9.5-18.4,9.8-29.8.2-8.5-1.3-17.8-4.5-27.7-5.3-16.4-14.1-30.8-18.4-37.7-.5-.8-1-1.6-1.3-2.1-1.4-2.3-6.2-11-12.8-23,6.6-6.5,13.9-11.5,21-11.5,19.5,0,37.3,38.4,63.4,31.6,7.9,14.6,15.9,29.6,24.6,46,13,24.4,24.3,45.5,27.3,50.8,1.1,2,2.4,4.1,3.8,6.3,2.9,4.8,6.2,10.2,8.4,15.2,0,0,0,.1,0,.2,2.5,5.6,0,12.1-5.5,14.7Z"/>
    <path class="st2" d="M540.3,211.9c-.6-6.2,23.2-6.4,30.4-6.1,0,0,3.3,62.4,3.8,77.5.4,14.2.8,31.2-11.5,55.5-3.4-6.3-7.1-13-11-20,1.7-5.4,3.5-10.8,3.5-16.4,0-13.4-2-77.7-2-77.7,0,0-12.6-6.6-13.2-12.8ZM740,457.3c-5.1-8.5-57.6-104.8-63.8-116.8-6.2-12-13.1-25.5-13.1-38.9s2.2-76.8,2.2-76.8c0,0,12.6-6.6,13.2-12.8.6-6.2-23.2-6.4-30.4-6.1,0,0-3.3,62.4-3.8,77.5-.4,15.1-.9,33.4,14,60.4,14.9,26.9,59.9,112,66.1,122.9,6.2,10.9,18.7,28.3,16.3,39.9-2.4,11.6-17.4,24.7-67.5,24.7h-127.8c-43.7,0-60.6-10-65.9-20.2-.8-1.5-1.3-3-1.6-4.5-.9-4.1.2-9,2.1-14.1.3-.9.7-1.8,1.1-2.7.2-.4.3-.7.5-1.1.2-.4.3-.7.5-1.1,0,0,0,0,0,0,.2-.4.4-.7.5-1.1.3-.7.7-1.3,1-2,.1-.2.2-.4.3-.6.3-.5.5-.9.8-1.4.2-.3.4-.7.6-1,.7-1.2,1.4-2.4,2.1-3.6.1-.2.2-.4.3-.6.2-.4.5-.8.7-1.2.1-.2.2-.4.3-.6,1.3-2.1,2.5-4.1,3.6-6,.2-.3.4-.7.6-1,.3-.5.6-1,.9-1.5,0-.2.2-.3.3-.5.9-1.5,2.5-4.6,4.8-8.7,7.5-13.9,21.5-40.1,34.7-64.8-2.8-5.1-6.1-11.3-9.7-18.2-17.7,32.6-41.9,76.7-45.2,82.4-.1.2-.2.4-.4.6-5.8,9.6-28.9,45.2-12.7,67.1,16.5,22.4,57.1,25.1,85.1,25.1h117.2c28,0,68.5-2.7,85.1-25.1,16.5-22.4-8-59.2-13.1-67.7Z"/>
    <g>
      <circle class="st5" cx="435.1" cy="123.5" r="15.4"/>
      <circle class="st5" cx="401" cy="154.5" r="7.7"/>
      <circle class="st5" cx="407.5" cy="66.1" r="19.7"/>
      <circle class="st5" cx="442.2" cy="23.5" r="8.3"/>
    </g>
    <circle class="st4" cx="618.5" cy="209.4" r="13.1"/>
    <circle class="st4" cx="602.3" cy="257.8" r="7.5"/>
    <circle class="st4" cx="631" cy="162.7" r="11.8"/>
    <circle class="st4" cx="580.5" cy="139.3" r="7.3"/>
  </g>
  <g>
    <path class="st6" d="M1228.5,123.7h32v152.9h95.7v29.1h-127.7V123.7Z"/>
    <path class="st6" d="M1429.5,279.2l19.2-22.9c17.4,15.1,34.8,23.7,57.5,23.7s32.2-9.1,32.2-22.9v-.5c0-13-7.3-20-41.1-27.8-38.7-9.4-60.6-20.8-60.6-54.3v-.5c0-31.2,26-52.8,62.1-52.8s47.6,8.1,66.1,22.9l-17.2,24.2c-16.4-12.2-32.8-18.7-49.4-18.7s-29.6,9.6-29.6,21.6v.5c0,14,8.3,20.3,43.2,28.6,38.5,9.4,58.5,23.1,58.5,53.3v.5c0,34.1-26.8,54.3-65,54.3s-54.1-9.6-75.9-29.1Z"/>
    <path class="st6" d="M1660.4,123.7h71.8c42.4,0,69.2,24.2,69.2,60.8v.5c0,40.8-32.8,62.2-72.8,62.2h-36.1v58.5h-32V123.7ZM1729.6,218.3c24.2,0,39.3-13.5,39.3-32.5v-.5c0-21.3-15.3-32.5-39.3-32.5h-37.2v65.5h37.2Z"/>
  </g>
  <g>
    <path class="st6" d="M842.8,489.3l10.1-12c9.1,7.9,18.3,12.4,30.1,12.4s16.9-4.8,16.9-12v-.3c0-6.8-3.8-10.5-21.5-14.6-20.3-4.9-31.8-10.9-31.8-28.5v-.3c0-16.4,13.6-27.7,32.6-27.7s24.9,4.2,34.6,12l-9,12.7c-8.6-6.4-17.2-9.8-25.9-9.8s-15.5,5-15.5,11.3v.3c0,7.4,4.4,10.6,22.6,15,20.2,4.9,30.7,12.1,30.7,27.9v.3c0,17.9-14,28.5-34.1,28.5s-28.4-5-39.8-15.3Z"/>
    <path class="st6" d="M991.3,455.8v-.3c0-26.9,20.7-49.3,50-49.3s49.8,22.2,49.8,49.1v.3c0,26.9-20.7,49.3-50,49.3s-49.8-22.2-49.8-49.1ZM1073.5,455.8v-.3c0-18.5-13.5-33.9-32.4-33.9s-32.2,15.1-32.2,33.7v.3c0,18.5,13.5,33.9,32.4,33.9s32.2-15.1,32.2-33.7Z"/>
    <path class="st6" d="M1168.9,462.8v-54.9h16.8v54.2c0,17.7,9.1,27.3,24.1,27.3s24-9,24-26.6v-54.9h16.8v54.1c0,28.5-16.1,42.8-41,42.8s-40.6-14.3-40.6-42Z"/>
    <path class="st6" d="M1356,423.4h-30.3v-15.5h77.4v15.5h-30.3v79.9h-16.9v-79.9Z"/>
    <path class="st6" d="M1479.9,407.8h16.8v39.7h45.5v-39.7h16.8v95.4h-16.8v-40.2h-45.5v40.2h-16.8v-95.4Z"/>
    <path class="st6" d="M1642.5,407.8h70.7v15h-54v24.8h47.8v15h-47.8v25.6h54.7v15h-71.4v-95.4Z"/>
    <path class="st6" d="M1826.6,407.2h15.5l42,96.1h-17.7l-9.7-23h-45.1l-9.8,23h-17.2l42-96.1ZM1850.6,465.4l-16.5-38.2-16.4,38.2h32.8Z"/>
    <path class="st6" d="M1951.5,489.3l10.1-12c9.1,7.9,18.3,12.4,30.1,12.4s16.9-4.8,16.9-12v-.3c0-6.8-3.8-10.5-21.5-14.6-20.3-4.9-31.8-10.9-31.8-28.5v-.3c0-16.4,13.6-27.7,32.6-27.7s24.9,4.2,34.6,12l-9,12.7c-8.6-6.4-17.2-9.8-25.9-9.8s-15.5,5-15.5,11.3v.3c0,7.4,4.4,10.6,22.6,15,20.2,4.9,30.7,12.1,30.7,27.9v.3c0,17.9-14,28.5-34.1,28.5s-28.4-5-39.8-15.3Z"/>
    <path class="st6" d="M2125.5,423.4h-30.3v-15.5h77.4v15.5h-30.3v79.9h-16.9v-79.9Z"/>
  </g>
</svg>