<?xml version="1.0" encoding="UTF-8"?>
<svg id="Layer_1" data-name="Layer 1" xmlns="http://www.w3.org/2000/svg" xmlns:xlink="http://www.w3.org/1999/xlink" viewBox="0 0 2535 629.34">
  <defs>
    <style>
      .cls-1 {
        fill: url(#linear-gradient-2);
      }

      .cls-2 {
        fill: #fff;
      }

      .cls-3 {
        fill: url(#linear-gradient-6);
      }

      .cls-4 {
        fill: #c60824;
      }

      .cls-5 {
        fill: url(#linear-gradient-5);
      }

      .cls-6 {
        fill: url(#linear-gradient-7);
      }

      .cls-7 {
        fill: #707072;
      }

      .cls-8 {
        fill: url(#linear-gradient-3);
      }

      .cls-9 {
        fill: url(#linear-gradient);
      }

      .cls-10 {
        fill: #595959;
      }

      .cls-11 {
        fill: url(#linear-gradient-4);
      }

      .cls-12 {
        fill: url(#linear-gradient-8);
      }
    </style>
    <linearGradient id="linear-gradient" x1="1462.44" y1="501.38" x2="1742.88" y2="501.38" gradientTransform="translate(0 628) scale(1 -1)" gradientUnits="userSpaceOnUse">
      <stop offset="0" stop-color="#fff6f1"/>
      <stop offset=".15" stop-color="#f4cec5"/>
      <stop offset=".39" stop-color="#e7a195"/>
      <stop offset=".66" stop-color="#d76258"/>
      <stop offset="1" stop-color="#cb5553"/>
    </linearGradient>
    <linearGradient id="linear-gradient-2" x1="1462.43" y1="501.39" x2="1742.86" y2="501.39" gradientTransform="translate(0 628) scale(1 -1)" gradientUnits="userSpaceOnUse">
      <stop offset="0" stop-color="#fffffd"/>
      <stop offset=".15" stop-color="#eed2c6"/>
      <stop offset=".39" stop-color="#d7b1a6"/>
      <stop offset=".66" stop-color="#ca3448"/>
      <stop offset="1" stop-color="#ffcbcd"/>
    </linearGradient>
    <linearGradient id="linear-gradient-3" x1="1604.21" y1="501.38" x2="1884.65" y2="501.38" gradientTransform="translate(0 628) scale(1 -1)" gradientUnits="userSpaceOnUse">
      <stop offset=".03" stop-color="#fff3e7"/>
      <stop offset=".15" stop-color="#f1c7bb"/>
      <stop offset=".58" stop-color="#d35151"/>
      <stop offset="1" stop-color="#bb1837"/>
    </linearGradient>
    <linearGradient id="linear-gradient-4" x1="1604.2" y1="501.39" x2="1884.63" y2="501.39" gradientTransform="translate(0 628) scale(1 -1)" gradientUnits="userSpaceOnUse">
      <stop offset="0" stop-color="#fdefee"/>
      <stop offset=".15" stop-color="#ffd0cb"/>
      <stop offset=".39" stop-color="#c7978b"/>
      <stop offset=".66" stop-color="#ac3549"/>
      <stop offset="1" stop-color="#b05155"/>
    </linearGradient>
    <linearGradient id="linear-gradient-5" x1="1745.98" y1="501.38" x2="2026.42" y2="501.38" gradientTransform="translate(0 628) scale(1 -1)" gradientUnits="userSpaceOnUse">
      <stop offset="0" stop-color="#fff3e7"/>
      <stop offset=".15" stop-color="#f1c7bb"/>
      <stop offset=".19" stop-color="#e9aaa0"/>
      <stop offset=".24" stop-color="#df8680"/>
      <stop offset=".3" stop-color="#d76d68"/>
      <stop offset=".34" stop-color="#d35d5a"/>
      <stop offset=".38" stop-color="#d25855"/>
      <stop offset=".65" stop-color="#c71432"/>
      <stop offset="1" stop-color="#bb1837"/>
    </linearGradient>
    <linearGradient id="linear-gradient-6" x1="1745.97" y1="501.39" x2="2026.4" y2="501.39" gradientTransform="translate(0 628) scale(1 -1)" gradientUnits="userSpaceOnUse">
      <stop offset="0" stop-color="#fbe2db"/>
      <stop offset=".15" stop-color="#f28983"/>
      <stop offset=".39" stop-color="#9e5d5b"/>
      <stop offset=".66" stop-color="#b11129"/>
      <stop offset="1" stop-color="#981f32"/>
    </linearGradient>
    <linearGradient id="linear-gradient-7" x1="1887.75" y1="501.38" x2="2168.19" y2="501.38" gradientTransform="translate(0 628) scale(1 -1)" gradientUnits="userSpaceOnUse">
      <stop offset="0" stop-color="#fff3e7"/>
      <stop offset=".15" stop-color="#f1c7bb"/>
      <stop offset=".39" stop-color="#d25855"/>
      <stop offset=".66" stop-color="#c71432"/>
      <stop offset="1" stop-color="#bb1837"/>
    </linearGradient>
    <linearGradient id="linear-gradient-8" x1="1887.75" y1="501.39" x2="2168.18" y2="501.39" gradientTransform="translate(0 628) scale(1 -1)" gradientUnits="userSpaceOnUse">
      <stop offset="0" stop-color="#ffddd8"/>
      <stop offset=".15" stop-color="#ffaaa8"/>
      <stop offset=".39" stop-color="#bb132d"/>
      <stop offset=".66" stop-color="#b11129"/>
      <stop offset="1" stop-color="#981f32"/>
    </linearGradient>
  </defs>
  <rect class="cls-2" width="2535" height="629.34"/>
  <g>
    <g>
      <path class="cls-9" d="M1602.85,245.48c-1.74-1.09-3.47-2.2-5.19-3.3-37.4-24.01-74.51-51.4-102.86-86.43-13.37-16.52-25.15-36-29.94-57.1-6.04-26.56-1.17-55.35,18.99-74,32.54-30.1,96.94-18.19,119.01,21.61,22.07-39.8,80.73-48.91,115.21-21.06,21.41,17.29,28.82,46.89,22.78,73.45-4.8,21.1-16.58,40.58-29.94,57.1-28.34,35.04-65.45,62.42-102.86,86.43-1.73,1.11-3.46,2.21-5.19,3.3h-.01Z"/>
      <path class="cls-1" d="M1531.06,10.78c13.72,0,27.94,3.45,40.05,9.7,12.81,6.62,22.87,16.04,29.08,27.24l2.65,4.78,2.65-4.78c6.13-11.06,15.63-20.22,27.47-26.47,11.28-5.96,24.2-9.11,37.38-9.12,17.23,0,33.5,5.47,45.81,15.41,19.37,15.64,27.9,43.28,21.73,70.42-4.11,18.08-13.98,36.88-29.34,55.87-30.16,37.29-70.43,65.43-102.14,85.79-1.18,.76-2.37,1.52-3.56,2.27-1.19-.75-2.37-1.51-3.56-2.27-31.71-20.36-71.97-48.5-102.14-85.79-15.36-18.99-25.23-37.78-29.34-55.87-6.4-28.13,.37-54.71,18.09-71.1,11.21-10.37,27.25-16.08,45.16-16.08m.01-3.03c-17.63,0-34.76,5.37-47.22,16.89-20.16,18.64-25.03,47.43-18.99,74,4.8,21.1,16.58,40.58,29.94,57.1,28.34,35.04,65.45,62.42,102.86,86.43,1.73,1.11,3.46,2.21,5.19,3.3,1.74-1.09,3.47-2.2,5.19-3.3,37.4-24.01,74.51-51.4,102.86-86.43,13.37-16.52,25.15-36,29.94-57.1,6.04-26.56-1.37-56.17-22.78-73.45-13.44-10.85-30.54-16.09-47.72-16.09-26.92,0-54.02,12.86-67.49,37.15-13.62-24.56-43.36-38.5-71.78-38.5h0Z"/>
    </g>
    <g>
      <path class="cls-8" d="M1744.62,245.48c-1.74-1.09-3.47-2.2-5.19-3.3-37.4-24.01-74.51-51.4-102.86-86.43-13.37-16.52-25.15-36-29.94-57.1-6.04-26.56-1.17-55.35,18.99-74,32.54-30.1,96.94-18.19,119.01,21.61,22.07-39.8,80.73-48.91,115.21-21.06,21.41,17.29,28.82,46.89,22.78,73.45-4.8,21.1-16.58,40.58-29.94,57.1-28.34,35.04-65.45,62.42-102.86,86.43-1.73,1.11-3.46,2.21-5.19,3.3h-.01Z"/>
      <path class="cls-11" d="M1672.83,10.78c13.72,0,27.94,3.45,40.05,9.7,12.81,6.62,22.87,16.04,29.08,27.24l2.65,4.78,2.65-4.78c6.13-11.06,15.63-20.22,27.47-26.47,11.28-5.96,24.2-9.11,37.38-9.12,17.23,0,33.5,5.47,45.81,15.41,19.37,15.64,27.9,43.28,21.73,70.42-4.11,18.08-13.98,36.88-29.34,55.87-30.16,37.29-70.43,65.43-102.14,85.79-1.18,.76-2.37,1.52-3.56,2.27-1.19-.75-2.37-1.51-3.56-2.27-31.71-20.36-71.97-48.5-102.14-85.79-15.36-18.99-25.23-37.78-29.34-55.87-6.4-28.13,.37-54.71,18.09-71.1,11.21-10.37,27.25-16.08,45.16-16.08m.01-3.03c-17.63,0-34.76,5.37-47.22,16.89-20.16,18.64-25.03,47.43-18.99,74,4.8,21.1,16.58,40.58,29.94,57.1,28.34,35.04,65.45,62.42,102.86,86.43,1.73,1.11,3.46,2.21,5.19,3.3,1.73-1.09,3.47-2.2,5.19-3.3,37.4-24.01,74.51-51.4,102.86-86.43,13.37-16.52,25.15-36,29.94-57.1,6.04-26.56-1.37-56.17-22.78-73.45-13.44-10.85-30.54-16.09-47.72-16.09-26.92,0-54.02,12.86-67.49,37.15-13.62-24.56-43.36-38.5-71.78-38.5h0Z"/>
    </g>
    <g>
      <path class="cls-5" d="M1886.39,245.48c-1.74-1.09-3.47-2.2-5.19-3.3-37.4-24.01-74.51-51.4-102.86-86.43-13.37-16.52-25.15-36-29.94-57.1-6.04-26.56-1.17-55.35,18.99-74,32.54-30.1,96.94-18.19,119.01,21.61,22.07-39.8,80.73-48.91,115.21-21.06,21.41,17.29,28.82,46.89,22.78,73.45-4.8,21.1-16.58,40.58-29.94,57.1-28.34,35.04-65.45,62.42-102.86,86.43-1.73,1.11-3.46,2.21-5.19,3.3h-.01Z"/>
      <path class="cls-3" d="M1814.6,10.78c13.72,0,27.94,3.45,40.05,9.7,12.81,6.62,22.87,16.04,29.08,27.24l2.65,4.78,2.65-4.78c6.13-11.06,15.63-20.22,27.47-26.47,11.28-5.96,24.2-9.11,37.38-9.12,17.23,0,33.5,5.47,45.81,15.41,19.37,15.64,27.9,43.28,21.73,70.42-4.11,18.08-13.98,36.88-29.34,55.87-30.16,37.29-70.43,65.43-102.14,85.79-1.18,.76-2.37,1.52-3.56,2.27-1.19-.75-2.37-1.51-3.56-2.27-31.71-20.36-71.97-48.5-102.14-85.79-15.36-18.99-25.23-37.78-29.34-55.87-6.4-28.13,.37-54.71,18.09-71.1,11.21-10.37,27.25-16.08,45.16-16.08m.01-3.03c-17.63,0-34.76,5.37-47.22,16.89-20.16,18.64-25.03,47.43-18.99,74,4.8,21.1,16.58,40.58,29.94,57.1,28.34,35.04,65.45,62.42,102.86,86.43,1.73,1.11,3.46,2.21,5.19,3.3,1.73-1.09,3.47-2.2,5.19-3.3,37.4-24.01,74.51-51.4,102.86-86.43,13.37-16.52,25.15-36,29.94-57.1,6.04-26.56-1.37-56.17-22.78-73.45-13.44-10.85-30.54-16.09-47.72-16.09-26.92,0-54.02,12.86-67.49,37.15-13.62-24.56-43.36-38.5-71.78-38.5h0Z"/>
    </g>
    <g>
      <path class="cls-6" d="M2028.16,245.48c-1.74-1.09-3.47-2.2-5.19-3.3-37.4-24.01-74.51-51.4-102.86-86.43-13.37-16.52-25.15-36-29.94-57.1-6.04-26.56-1.17-55.35,18.99-74,32.54-30.1,96.94-18.19,119.01,21.61,22.07-39.8,80.73-48.91,115.21-21.06,21.41,17.29,28.82,46.89,22.78,73.45-4.8,21.1-16.58,40.58-29.94,57.1-28.34,35.04-65.45,62.42-102.86,86.43-1.73,1.11-3.46,2.21-5.19,3.3h-.01Z"/>
      <path class="cls-12" d="M1956.38,10.78c13.72,0,27.94,3.45,40.05,9.7,12.81,6.62,22.87,16.04,29.08,27.24l2.65,4.78,2.65-4.78c6.13-11.06,15.63-20.22,27.47-26.47,11.28-5.96,24.2-9.11,37.38-9.12,17.23,0,33.5,5.47,45.81,15.41,19.37,15.64,27.9,43.28,21.73,70.42-4.11,18.08-13.98,36.88-29.34,55.87-30.16,37.29-70.43,65.43-102.14,85.79-1.18,.76-2.37,1.52-3.56,2.27-1.19-.75-2.37-1.51-3.56-2.27-31.71-20.36-71.97-48.5-102.14-85.79-15.36-18.99-25.23-37.78-29.34-55.87-6.4-28.13,.37-54.71,18.09-71.1,11.21-10.37,27.25-16.08,45.16-16.08m.01-3.03c-17.63,0-34.76,5.37-47.22,16.89-20.16,18.64-25.03,47.43-18.99,74,4.8,21.1,16.58,40.58,29.94,57.1,28.34,35.04,65.45,62.42,102.86,86.43,1.73,1.11,3.46,2.21,5.19,3.3,1.73-1.09,3.47-2.2,5.19-3.3,37.4-24.01,74.51-51.4,102.86-86.43,13.37-16.52,25.15-36,29.94-57.1,6.04-26.56-1.37-56.17-22.78-73.45-13.44-10.85-30.54-16.09-47.72-16.09-26.92,0-54.02,12.86-67.49,37.15-13.62-24.56-43.36-38.5-71.78-38.5h0Z"/>
    </g>
  </g>
  <path class="cls-4" d="M537.78,437.4c2.51,0-6.92-.28-28.29-.83-3.08,0-7.33,.2-12.75,.6-1.32,.1-1.57,.2-2.62-.6-1.05-.79-1.58-1.83-1.58-3.1,0-1.35,.63-2.58,2.06-2.63,4.22-.14,4.05-2.24,4.22-3.09,.29-1.47-.11-7.04-1.72-14.68l-9.59-93.03-54.14,112.83c-.89,1.67-1.74,2.98-2.55,3.94h-1.09c-.41,.16-.69,.24-.85,.24h-.85c-1.38-.47-3.68-3.89-6.92-10.26-2.35-4.45-5.76-11.05-10.26-19.8s-7.87-15.35-10.14-19.8l-4.49-8.71c-.97-2.23-2.59-5.6-4.86-10.14-5.1-10.65-11.13-23.46-18.09-38.41l-3.64-7.75-8.26,92.91v10.74c0,2.79,1.42,4.49,4.25,5.13,3.4,.56,6.09,.83,8.08,.83s2.97,.83,2.97,2.5c0,2.07-1.74,3.1-5.22,3.1l-5.34-.24c-1.54,0-3.81-.04-6.8-.12-5.91-.15-8.46-.24-7.65-.24-.97,0-2.49,.06-4.55,.18s-3.58,.18-4.55,.18h-1.7c-1.3,.16-2.51,.24-3.64,.24h-3.4c-3.24,0-4.86-1.04-4.86-3.1,0-1.67,1.13-2.5,3.4-2.5h.61c6.23,0,9.83-1.79,10.8-5.37,1.05-3.18,1.78-6.6,2.18-10.26v-.83l15.17-136.33c.89-3.18,2.11-4.77,3.64-4.77,1.3,0,2.43,.67,3.4,2.03,.32,.48,.69,1.19,1.09,2.15l63.73,128.1,60.94-128.33c1.38-2.62,2.87-3.94,4.49-3.94,2.19,0,3.48,2.19,3.89,6.56l14.2,128.1c.89,7.08,2.35,12.57,4.37,16.46,2.59,4.3,9.14,6.45,19.67,6.45,2.1,0,3.16,.83,3.16,2.5,0,2.07-1.98,3.1-5.95,3.1h.03Z"/>
  <path class="cls-4" d="M677.96,407.22c-1.07,8.99-2.27,15.91-3.59,20.77-.58,2.39-.99,3.87-1.24,4.45-.83,1.73-2.06,2.89-3.71,3.47-.66,.25-1.2,.49-1.61,.74-7.25,2.64-16.73,4.17-28.43,4.58-3.54,.25-7.09,.37-10.63,.37-30.16,0-53.86-7.75-71.08-23.24-11.21-9.89-18.79-22.29-22.75-37.21-2.31-8.48-3.46-17.47-3.46-26.95,0-4.61,.53-10.09,1.61-16.44,2.22-11.37,6.71-21.96,13.47-31.77,8.24-11.78,19.74-20.89,34.49-27.32,10.55-4.53,24.02-6.8,40.42-6.8,8.57,0,15.7,.41,21.39,1.24,9.23,1.15,20.15,2.8,32.76,4.94,1.9,.41,2.84,1.52,2.84,3.34,0-1.24-.29,1.2-.86,7.29-.25,2.14-.37,5.07-.37,8.78,0,1.48-.17,3.05-.49,4.7l.25,7.54c0,.66-.08,1.61-.25,2.84s-.25,2.18-.25,2.84c-.25,3.79-1.32,5.69-3.21,5.69s-2.97-1.9-2.97-5.69v-1.36c0-8.08-2.84-14.54-8.53-19.41-9.07-7.99-22.95-11.99-41.66-11.99-12.36,0-22.05,1.36-29.05,4.08-7.91,2.97-14.3,6.76-19.16,11.37-12.36,11.79-18.54,29.96-18.54,54.52,0,21.26,7.25,39.31,21.76,54.15,14.51,14.83,32.39,22.25,53.65,22.25,7.83,0,14.88-.62,21.14-1.85,7.91-1.73,13.72-5.64,17.43-11.75,1.56-2.55,2.93-5.81,4.08-9.77,.58-1.56,.95-2.84,1.11-3.83,.66-2.97,1.77-4.45,3.34-4.45,1.98,0,2.97,1.53,2.97,4.58,0,.49-.29,2.26-.86,5.31h-.01Z"/>
  <path class="cls-7" d="M2165.61,407.22c-1.07,8.99-2.27,15.91-3.59,20.77-.58,2.39-.99,3.87-1.24,4.45-.83,1.73-2.06,2.89-3.71,3.47-.66,.25-1.2,.49-1.61,.74-7.25,2.64-16.73,4.17-28.43,4.58-3.54,.25-7.09,.37-10.63,.37-30.16,0-53.86-7.75-71.08-23.24-11.21-9.89-18.79-22.29-22.75-37.21-2.31-8.48-3.46-17.47-3.46-26.95,0-4.61,.53-10.09,1.61-16.44,2.22-11.37,6.71-21.96,13.47-31.77,8.24-11.78,19.74-20.89,34.49-27.32,10.55-4.53,24.02-6.8,40.42-6.8,8.57,0,15.7,.41,21.39,1.24,9.23,1.15,20.15,2.8,32.76,4.94,1.9,.41,2.84,1.52,2.84,3.34,0-1.24-.29,1.2-.86,7.29-.25,2.14-.37,5.07-.37,8.78,0,1.48-.17,3.05-.49,4.7l.25,7.54c0,.66-.08,1.61-.25,2.84s-.25,2.18-.25,2.84c-.25,3.79-1.32,5.69-3.21,5.69s-2.97-1.9-2.97-5.69v-1.36c0-8.08-2.84-14.54-8.53-19.41-9.07-7.99-22.95-11.99-41.66-11.99-12.36,0-22.05,1.36-29.05,4.08-7.91,2.97-14.3,6.76-19.16,11.37-12.36,11.79-18.54,29.96-18.54,54.52,0,21.26,7.25,39.31,21.76,54.15,14.51,14.83,32.39,22.25,53.65,22.25,7.83,0,14.88-.62,21.14-1.85,7.91-1.73,13.72-5.64,17.43-11.75,1.56-2.55,2.93-5.81,4.08-9.77,.58-1.56,.95-2.84,1.11-3.83,.66-2.97,1.77-4.45,3.34-4.45,1.98,0,2.97,1.53,2.97,4.58,0,.49-.29,2.26-.86,5.31h-.01Z"/>
  <path class="cls-4" d="M756.91,437.64h-4.29c-2.39,0-5.98-.1-10.79-.3-4.81-.2-8.41-.3-10.8-.3-1.03,0-2.68,.06-4.95,.18-2.27,.12-3.96,.18-5.07,.18h-6.32c-1.75,.16-3.14,.24-4.18,.24-3.1,0-4.65-.95-4.65-2.86s.99-2.74,2.98-2.74h2.86c.79-.16,1.91-.42,3.34-.78s2.42-1.29,2.98-2.81c1.75-4.45,2.66-13.12,2.74-26,.16-7.79,.24-16.74,.24-26.83v-68.7c0-1.43-.06-3.62-.18-6.56s-.18-5.17-.18-6.68v-.24c0-6.04-2.11-9.54-6.32-10.5-.56-.16-.99-.28-1.31-.36-1.99-.32-3.58-.48-4.77-.48-1.99,0-2.98-.83-2.98-2.51,0-2.07,1.55-3.1,4.65-3.1h3.94c1.51,0,3.06,.12,4.65,.36l2.15-.12c1.11,0,2.86,.06,5.25,.18s4.1,.18,5.13,.18c1.11,0,2.81-.06,5.07-.18,2.27-.12,3.92-.18,4.95-.18h6.44c1.75-.16,3.14-.24,4.18-.24,3.18,0,4.77,1.04,4.77,3.1,0,1.67-1.03,2.51-3.1,2.51h-.72c-4.77,0-7.83,1.27-9.18,3.81-.88,1.51-1.51,4.29-1.91,8.35-.16,3.26-.24,7.48-.24,12.64v68.46c0,28.39-.12,37.45-.36,27.19,.24,13.36,1.27,21.91,3.1,25.65,.87,1.67,2.62,2.75,5.25,3.22,2.23,.4,5.29,.6,9.18,.6,2.15,0,3.22,.92,3.22,2.74s-1.59,2.86-4.77,2.86v.02Z"/>
  <path class="cls-7" d="M953.5,390.86c-6.81,14.68-15.29,25.67-25.42,32.97-15.01,10.79-33.46,16.18-55.36,16.18-11.27,0-28.69-.77-44.91-2.31-3.08-.16-4.91-.24-5.47-.24-1.14,0-2.8,.06-4.99,.18s-3.89,.18-5.11,.18h-6.2c-1.87,.16-3.28,.25-4.26,.25-3.08,0-4.62-.98-4.62-2.92,0-1.78,.97-2.67,2.92-2.67h2.92c.73-.16,1.83-.43,3.28-.79,1.46-.37,2.51-1.32,3.16-2.86,1.62-4.46,2.48-13.14,2.56-26.03,.16-7.79,.24-16.75,.24-26.89v-68.86c0-1.46-.06-3.67-.18-6.63s-.18-5.17-.18-6.63v-.37c0-3.16-.57-5.55-1.7-7.18-1.13-1.62-3.33-2.8-6.57-3.53-.65-.08-1.83-.2-3.53-.37-.57-.16-1.06-.24-1.46-.24h-1.7c-1.95,0-2.92-.85-2.92-2.55,0-2.03,1.54-3.04,4.62-3.04l7.18,.24c1.78,0,4.46,.04,8.03,.12,6.98,.16,9.81,.24,8.52,.24,2.92,0,7.3-.1,13.14-.3,5.84-.2,10.22-.3,13.14-.3h6.33c5.76,0,16,.21,23.38,.61,16.06,.57,30.46,3.98,43.19,10.22,14.03,6.98,24.9,18.78,32.61,35.4,4.3,9.09,6.45,19.95,6.45,32.6,0,13.31-2.35,25.14-7.06,35.53h-.03Zm-12.41-29.09c0-18.08-4.99-33.7-14.96-46.84-1.78-2.35-3.61-4.54-5.48-6.57-8.84-9.32-19.51-15.9-32-19.71-9.81-3-25.97-4.5-41.14-4.5-3.49,0-6.98,.32-10.47,.97-4.22,.57-6.32,2.43-6.32,5.6-.17,3.81-.24,8.03-.24,12.65v87.84c0,4.87,.32,12.25,.97,22.14,.24,3.33,.37,5.19,.37,5.6,.32,2.11,.97,3.77,1.95,4.99,1.38,2.27,5.03,4.26,10.95,5.96,5.11,1.55,17.09,2.31,28.61,2.31,20.28,0,37.11-6.57,50.49-19.7,5.35-5.19,9.61-12.73,12.77-22.63,3-8.59,4.5-17.15,4.5-25.67v-2.43h0Z"/>
  <path class="cls-7" d="M1018.17,437.64h-4.29c-2.39,0-5.98-.1-10.79-.3-4.81-.2-8.41-.3-10.8-.3-1.03,0-2.68,.06-4.95,.18s-3.96,.18-5.07,.18h-6.32c-1.75,.16-3.14,.24-4.18,.24-3.1,0-4.65-.95-4.65-2.86s.99-2.74,2.98-2.74h2.86c.79-.16,1.91-.42,3.34-.78,1.43-.36,2.42-1.29,2.98-2.81,1.75-4.45,2.66-13.12,2.74-26,.16-7.79,.24-16.74,.24-26.83v-68.7c0-1.43-.06-3.62-.18-6.56s-.18-5.17-.18-6.68v-.24c0-6.04-2.11-9.54-6.32-10.5-.56-.16-.99-.28-1.31-.36-1.99-.32-3.58-.48-4.77-.48-1.99,0-2.98-.83-2.98-2.51,0-2.07,1.55-3.1,4.65-3.1h3.94c1.51,0,3.06,.12,4.65,.36l2.15-.12c1.11,0,2.86,.06,5.25,.18s4.1,.18,5.13,.18c1.11,0,2.81-.06,5.07-.18,2.27-.12,3.92-.18,4.95-.18h6.44c1.75-.16,3.14-.24,4.18-.24,3.18,0,4.77,1.04,4.77,3.1,0,1.67-1.03,2.51-3.1,2.51h-.72c-4.77,0-7.83,1.27-9.18,3.81-.88,1.51-1.51,4.29-1.91,8.35-.16,3.26-.24,7.48-.24,12.64v68.46c0,28.39-.12,37.45-.36,27.19,.24,13.36,1.27,21.91,3.1,25.65,.87,1.67,2.62,2.75,5.25,3.22,2.23,.4,5.29,.6,9.18,.6,2.15,0,3.22,.92,3.22,2.74s-1.59,2.86-4.77,2.86v.02Z"/>
  <path class="cls-7" d="M1148.54,417.96v.24l-40.91-108.89c-7.32,16.94-18.65,45.88-33.99,86.83-3.9,10.34-6.68,18.17-8.35,23.5-1.19,3.74-1.79,6.2-1.79,7.4v.83l.12,.24c.24,1.11,.88,1.99,1.91,2.62,1.35,.16,2.36,.32,3.04,.48,.67,.16,1.29,.24,1.85,.24h2.15c2.31,0,3.46,.8,3.46,2.39,0,2.07-1.87,3.1-5.6,3.1h-3.7c-1.83,0-4.57-.09-8.23-.3s-6.36-.3-8.11-.3c-1.12,0-3.18,.08-6.2,.24h-4.29c-1.12,.24-2.15,.36-3.1,.36h-2.5c-3.26,0-4.89-.95-4.89-2.86,0-1.75,1.33-2.63,4-2.63s5.43-.63,8.29-1.91c.16-.16,.36-.28,.6-.36,3.34-2.14,7-8.35,10.97-18.6,1.35-3.74,4.13-10.66,8.35-20.76l30.65-73.35c4.85-11.53,8.27-19.48,10.26-23.85l5.01-10.61c1.03-2.31,1.97-3.79,2.8-4.47,.84-.67,1.53-1.02,2.09-1.02,1.11,0,2.18,.56,3.22,1.67,1.03,1.11,2.82,5.09,5.37,11.93l50.21,125.71c2.62,6.45,5.17,10.42,7.63,11.93,1.59,1.03,3.66,2.02,6.2,2.98,.48,0,.99,.08,1.55,.24,2.62,.31,4.53,.47,5.72,.47,2.07,0,3.1,.88,3.1,2.63,0,1.91-2.19,2.86-6.56,2.86h-5.13c-1.99,0-5.11-.09-9.36-.3-4.26-.2-7.42-.3-9.48-.3-1.67,0-4.2,.1-7.58,.3s-5.95,.3-7.69,.3h-3.82c-4.61,0-6.92-.95-6.92-2.86,0-1.75,1.15-2.63,3.46-2.63h1.67c.56,0,1.07-.08,1.55-.24,3.26,0,5.21-.95,5.84-2.86v-.83c0-1.19-.95-4.37-2.86-9.54v-.02Zm-65.97-47.59h59.16l7.75,8.83h-79.31l5.37-8.47,7.04-.36h0Z"/>
  <path class="cls-7" d="M1333.98,362.22h-.61c-4.83,0-7.96,1.31-9.38,3.93-1.44,2.62-2.15,9-2.15,19.13v33.86c0,7.37-1.07,11.54-3.19,12.52l-.24,.24c-9.16,4.66-20.49,7.61-33.98,8.83-4.41,.57-8.3,.86-11.65,.86-5.48,0-12.39-.49-20.73-1.47-19.14-2.12-35.7-9.24-49.68-21.34-8.18-7.03-14.64-16.31-19.38-27.85-4.17-10.87-6.25-22.04-6.25-33.49,0-14.55,2.9-27.97,8.71-40.24,6.29-13.08,15.37-23.31,27.23-30.67,11.29-7.03,23.92-11.2,37.9-12.51,6.87-.65,13.21-.98,19.02-.98h2.82c4.99,0,11.73,.69,20.24,2.08,4.41,.74,8.79,1.51,13.12,2.33,5.4,.98,9.81,1.47,13.25,1.47,2.7,.25,4.05,1.31,4.05,3.19,0,.98-.24,3.8-.74,8.46-.41,5.97-.61,13.17-.61,21.59,0,3.76-1.15,5.64-3.44,5.64-1.55,0-2.5-1.39-2.82-4.17-.98-7.03-3.07-12.31-6.26-15.82-8.75-9.49-24.29-14.23-46.62-14.23-18.08,0-32.88,4.58-44.41,13.74-13.5,10.71-20.24,28.26-20.24,52.63,0,9.81,1.31,18.57,3.92,26.25,4.66,13.82,10.67,24.25,18.03,31.28,14.97,14.8,33.08,22.2,54.35,22.2,10.46,0,18.28-1.35,23.43-4.05,2.45-1.3,3.68-3.39,3.68-6.25v-36.19c0-8.34-.49-13.57-1.47-15.7-1.64-3.19-5.28-4.86-10.92-5.03-.49-.16-.94-.24-1.35-.24h-1.72c-1.96,0-2.94-.82-2.94-2.45,0-2.12,1.55-3.19,4.66-3.19l7.24,.24c1.72,0,4.38,.04,7.97,.12,7.04,.16,9.94,.25,8.71,.25,1.07,0,2.72-.06,4.97-.19,2.25-.12,3.99-.18,5.22-.18h6.25c1.88-.16,3.27-.24,4.18-.24,3.27,0,4.91,1.07,4.91,3.19,0,1.64-1.02,2.45-3.07,2.45h-.01Z"/>
  <path class="cls-7" d="M1509.62,281.55c-6.04,0-9.56,1.6-10.55,4.79-.75,2.64-1.12,7.03-1.12,13.18l-.38,121.83c0,7.1-.21,11.42-.62,12.94-.49,2.24-1.45,3.35-2.85,3.35-1.9,0-7.47-4.55-16.7-13.65-9.23-9.11-23.03-22.84-41.4-41.21l-1.12-.96c-3.14-3.35-7.94-8.26-14.4-14.73l-.5-.6c-4.89-4.63-22.51-23.28-52.89-55.94l2.48,95.84c.33,8.3,1.16,14.13,2.48,17.49,1.24,3.91,3.68,5.87,7.33,5.87,2.32,.56,5.05,.84,8.19,.84,2.16,0,3.23,.88,3.23,2.64,0,1.91-1.78,2.87-5.34,2.87-6.21,0-11.34-.12-15.4-.36-.75,0-2.07-.08-3.97-.24h-3.47c-2.32,0-5.8,.1-10.43,.3-4.64,.2-8.11,.3-10.43,.3-3.14,0-4.71-.96-4.71-2.87,0-1.76,1.07-2.64,3.22-2.64s4.1-.16,5.84-.48c2.48-.8,4.1-1.48,4.84-2.04s1.36-1.96,1.86-4.19c.75-3.6,1.2-10.14,1.36-19.65l.13-119.44c0-4.07,.16-6.87,.49-8.38,.5-2.24,1.57-3.35,3.23-3.35,1.24,0,2.98,1.24,5.22,3.71,1.24,1.12,2.4,2.32,3.47,3.59,2.4,2.56,10.1,10.58,23.09,24.08l45.57,47.32c2.15,2.24,5.42,5.63,9.81,10.18l39.36,41.57-2.24-102.54c-.25-6.54-.87-11.14-1.86-13.78-1.32-3.19-4.14-4.87-8.44-5.03-2.32-.4-4.76-.6-7.33-.6-1.99,0-2.98-.92-2.98-2.76s1.86-2.76,5.59-2.76h2.11c2.32,0,5.71,.1,10.18,.3,4.47,.2,7.86,.3,10.18,.3,2.06,0,5.13-.1,9.19-.3,4.05-.2,7.12-.3,9.19-.3,3.56,0,5.34,.92,5.34,2.76s-1.29,2.76-3.85,2.76h0Z"/>
  <path class="cls-7" d="M1599.69,437.64c-25.63,0-45-7.02-58.1-21.06-16.95-18.03-25.43-38.47-25.43-61.29v-.24c0-23.94,10.2-45.2,30.59-63.8,13.1-12.13,31.16-18.19,54.17-18.19,24.89,0,45.12,7.02,60.68,21.07,16.05,14.45,24.08,33.72,24.08,57.82s-8.05,45.12-24.14,61.35c-16.09,16.24-36.71,24.36-61.85,24.36v-.02Zm-.25-156.94c-20.23,0-35.91,6.58-47.05,19.75-10.32,12.29-15.48,28.57-15.48,48.84v.24c0,21.71,5.69,39.98,17.07,54.83,12.69,16.52,29.81,24.78,51.34,24.78,3.28,0,7.13-.32,11.55-.96,14.41-2.63,26.69-11.05,36.85-25.26,7.37-10.13,11.06-25.17,11.06-45.13,0-20.99-5.45-38.66-16.34-53.03-11.87-16.04-28.22-24.06-49.02-24.06h.02Z"/>
  <path class="cls-7" d="M1791.17,404.69c-2.2,11.38-8.04,20.35-17.55,26.93-8.53,6.01-25.27,9.02-38.52,9.02-10.89,0-20.52-1.95-28.89-5.85-1.05-.41-2.19-1.63-3.41-3.65-.16-.9-.24-2.69-.24-5.37,0,.24,.2-4.92,.61-15.48,0-.49,.08-1.67,.24-3.54,.08-1.38,.12-2.48,.12-3.29,.33-3.25,1.34-4.88,3.05-4.88,1.95,0,2.92,1.26,2.92,3.78,0,11.38,3.78,19.1,11.34,23.16,5.93,3.08,12.22,4.63,18.89,4.63,7.64,0,20.22-2.32,26.02-6.94,5.81-4.63,8.72-10.73,8.72-18.29v-1.22c0-9.75-4.77-17.61-12.9-25.41-3.25-3.25-15.43-10.34-26.23-19.44-9.1-7.72-15.61-14.46-19.51-20.23-5.52-7.96-8.29-16.7-8.29-26.21,0-12.51,4.43-22.35,13.29-29.5,8.29-6.58,18.81-9.87,31.57-9.87,7.48,0,18.68,.77,24.53,2.31,2.68,.57,5.1,.85,7.25,.85s3.23,.98,3.23,2.93c0,.41-.08,1.06-.24,1.95l-.37,4.14c-.16,3.82-.24,9.22-.24,16.21,0,4.06-.97,6.1-2.93,6.1-1.54,0-2.52-1.26-2.92-3.78,0,.41-.25-1.26-.73-5-1.22-4.31-3.29-7.64-6.22-10-4.71-3.74-16.2-5.61-25.38-5.61-7.15,0-13,2.07-17.55,6.22s-6.82,9.75-6.82,16.82,3.37,14.18,10.11,20.84c5.44,5.61,10.44,10.12,14.99,13.53,10.72,8.12,23.8,17.86,29.32,24.12,8.53,10.16,13.7,18.79,13.7,30.97,0,2.52-.33,5.53-.97,9.02v.03Z"/>
  <path class="cls-7" d="M1940.87,288.67v1.31c0,1.35-.06,3.28-.18,5.79-.12,2.5-.18,4.35-.18,5.55,0,2.7-.99,4.05-2.98,4.05-1.75,0-2.7-1.55-2.86-4.65l-.12-2.39c-.63-6.44-8.78-9.9-24.45-10.38l-24.8-.36v86.71c0,28.23-.17,37.26-.48,27.08,.31,13.28,1.39,21.75,3.22,25.4,.79,1.75,2.5,2.82,5.13,3.22,2.23,.4,5.29,.6,9.18,.6,2.15,0,3.22,.92,3.22,2.75s-1.63,2.86-4.89,2.86h-4.17c-2.31,0-5.87-.09-10.68-.3-4.81-.2-8.37-.3-10.67-.3-1.2,0-2.89,.06-5.07,.18-2.19,.12-3.84,.18-4.95,.18h-6.32c-1.83,.16-3.22,.24-4.18,.24-3.02,0-4.53-.95-4.53-2.86s.95-2.75,2.86-2.75h2.86c.79-.16,1.91-.4,3.34-.72,1.43-.31,2.43-1.27,2.98-2.86,1.67-4.37,2.54-13,2.62-25.88,.24-7.71,.36-16.58,.36-26.6v-86.95l-29.58,.24c-5.56,.08-10.06,.66-13.48,1.73-3.42,1.07-6.44,4-9.07,8.77-.47,1.19-1.23,2.62-2.27,4.29-.71,.4-1.39,.6-2.02,.6-1.59,0-2.39-1.03-2.39-3.1,0-1.11,.67-4.77,2.02-10.97,0-.32,.12-.64,.36-.96l1.43-6.44c.4-2.07,.66-3.3,.78-3.7,.12-.4,.3-.95,.53-1.67,.56-2.23,1.51-3.34,2.86-3.34,.24,0,1.55,.46,3.94,1.37,2.39,.91,5.76,1.49,10.14,1.73,.79,0,2.74,.08,5.84,.24,2.23,.16,4.1,.24,5.61,.24l78.12-.24c4.45,0,6.68,.08,6.68,.24,1.98-.16,3.69-.32,5.13-.48,.88-.24,1.79-.36,2.75-.36,3.89-.88,5.92-1.31,6.08-1.31,1.67,0,2.5,1.31,2.5,3.94,0,1.19-.08,2.86-.24,5.01v5.25h.02Z"/>
  <path class="cls-7" d="M2009.59,437.64h-4.29c-2.39,0-5.98-.1-10.8-.3-4.81-.2-8.41-.3-10.8-.3-1.04,0-2.68,.06-4.95,.18-2.27,.12-3.96,.18-5.07,.18h-6.32c-1.75,.16-3.14,.24-4.17,.24-3.1,0-4.65-.95-4.65-2.86s.99-2.74,2.98-2.74h2.86c.79-.16,1.91-.42,3.34-.78s2.42-1.29,2.98-2.81c1.75-4.45,2.66-13.12,2.74-26,.16-7.79,.24-16.74,.24-26.83v-68.7c0-1.43-.06-3.62-.18-6.56s-.18-5.17-.18-6.68v-.24c0-6.04-2.11-9.54-6.32-10.5-.56-.16-.99-.28-1.31-.36-1.99-.32-3.57-.48-4.77-.48-1.99,0-2.98-.83-2.98-2.51,0-2.07,1.55-3.1,4.65-3.1h3.94c1.51,0,3.06,.12,4.65,.36l2.15-.12c1.11,0,2.86,.06,5.25,.18s4.09,.18,5.13,.18c1.11,0,2.81-.06,5.07-.18,2.27-.12,3.91-.18,4.95-.18h6.44c1.75-.16,3.14-.24,4.17-.24,3.18,0,4.78,1.04,4.78,3.1,0,1.67-1.04,2.51-3.1,2.51h-.72c-4.77,0-7.84,1.27-9.19,3.81-.88,1.51-1.51,4.29-1.91,8.35-.17,3.26-.24,7.48-.24,12.64v68.46c0,28.39-.12,37.45-.36,27.19,.24,13.36,1.27,21.91,3.1,25.65,.87,1.67,2.62,2.75,5.24,3.22,2.23,.4,5.29,.6,9.19,.6,2.15,0,3.22,.92,3.22,2.74s-1.59,2.86-4.77,2.86v.02Z"/>
  <g>
    <path class="cls-10" d="M605.91,489.23v-5.58c15.44,.69,25.89,1.04,31.37,1.04,3.4,0,14.27-.34,32.6-1.04v5.58c-11.34,1.95-17.99,3.24-19.94,3.87-1.38,.44-2.39,1.14-3.02,2.08-.94,1.33-1.48,4.07-1.61,8.23-.13,4.15-.19,27.47-.19,69.93,0,8.38,.09,19.56,.28,33.55h41.68c6.24,0,17.06-.37,18.95-1.13s3.84-2.43,5.86-5.01c2.02-2.59,5.79-9.07,11.34-19.47h4.03l-7.56,21.08c-1.32,3.91-2.93,9.04-4.82,15.41-26.06-.7-51.51-1.04-70.83-1.04-13.66,0-26.34,.34-38.05,1.04v-5.58c9.6-1.76,15.24-2.98,16.94-3.64,1.69-.66,2.83-1.56,3.43-2.69,.59-1.14,.89-4.44,.89-9.93l.47-57.92-.28-37.33c0-3.21-.47-5.23-1.42-6.05-1.45-1.26-6.11-2.59-13.99-3.97-1.39-.25-3.44-.72-6.14-1.41v-.02Z"/>
    <path class="cls-10" d="M799.35,481.38h5.95c8.5,21.86,18.96,46.66,31.37,74.37l22.02,48.1c1.01,1.7,2.11,2.97,3.31,3.78,.82,.57,5.45,2.08,13.89,4.54v5.58c-11.47-.7-19.91-1.04-25.33-1.04s-14.99,.34-28.35,1.04v-5.58c7.62-1.57,12.06-2.83,13.33-3.78s1.89-2.05,1.89-3.31-.66-3.56-1.99-6.71l-9.6-23.06c-13.36-.12-23.08-.18-29.16-.18l-25.87,.18-9.94,23.91c-1.64,3.85-2.46,6.24-2.46,7.19,0,.82,.39,1.5,1.18,2.03s4.46,1.5,11.01,2.88c.69,.19,1.67,.47,2.93,.85v5.58c-10.77-.7-18.37-1.04-22.77-1.04-5.61,0-12.79,.34-21.55,1.04v-5.58c5.73-1.26,9.67-2.68,11.81-4.26,1.57-1.2,3.21-3.21,4.92-6.05,3.59-6.24,12.72-26.3,27.41-60.2l25.99-60.29h0Zm-24.9,84.5c8.75,.25,15.01,.38,18.79,.38,1.13,0,10.8-.13,28.99-.38l-23.91-56.69-23.87,56.69Z"/>
    <path class="cls-10" d="M882.42,489.23v-5.58c11.53,.69,22.17,1.04,31.94,1.04,6.36,0,12.99-.12,19.89-.38,6.9-.25,12.24-.38,16.02-.38,12.91,0,22.52,2.71,28.82,8.13,6.24,5.48,9.36,12.44,9.36,20.88,0,4.79-1.18,9.56-3.55,14.32-2.36,4.76-5.68,8.74-9.97,11.96-3.15,2.33-7.94,4.54-14.36,6.62,6.8,.5,12.03,1.48,15.69,2.93,5.54,2.27,9.96,5.7,13.23,10.3,3.28,4.6,4.91,10.33,4.91,17.2,0,13.99-6.55,25.04-19.66,33.17-8.88,5.54-22.08,8.32-39.6,8.32-3.97,0-10.18-.21-18.62-.61-5.86-.29-9.11-.43-9.73-.43-1.14,0-9.26,.34-24.38,1.04v-5.58c1.95-.44,3.43-.76,4.44-.95,9.13-1.76,14.2-3.09,15.21-3.97,.75-.63,1.23-2.23,1.42-4.82,.5-5.86,.75-22.46,.75-49.8l-.19-41.77c-.07-8.69-.47-13.8-1.23-15.31-.38-.75-1.04-1.37-1.98-1.84-.95-.47-5.76-1.65-14.46-3.55-.88-.19-2.21-.5-3.97-.94h.02Zm39.03,53.96c5.68,.06,8.84,.09,9.47,.09,10.6,0,18.37-.88,23.29-2.65,4.92-1.76,8.9-4.87,11.93-9.31,3.03-4.44,4.55-9.59,4.55-15.45,0-8.37-2.99-14.68-8.98-18.9-4.29-3.02-11.28-4.54-20.98-4.54-5.55,0-11.59,.47-18.14,1.42-.82,9.51-1.23,22.56-1.23,39.12,0,2.33,.03,5.74,.09,10.21h0Zm.09,64.36c6.74,1.01,12.79,1.52,18.15,1.52,11.97,0,20.88-2.78,26.74-8.32,5.86-5.55,8.79-13.14,8.79-22.77,0-6.68-1.64-12.1-4.92-16.26-3.28-4.15-7.23-6.96-11.86-8.41-4.63-1.45-11.99-2.17-22.07-2.17-5.99,0-10.93,.07-14.84,.19v56.23h.01Z"/>
    <path class="cls-10" d="M1011.79,551.6c0-20.67,6.66-37.63,19.99-50.89,13.32-13.26,30.44-19.89,51.36-19.89,19.47,0,34.96,5.85,46.49,17.57s17.29,27.85,17.29,48.38c0,22.81-6.49,40.81-19.47,54.01s-30.05,19.8-51.22,19.8c-19.85,0-35.55-5.99-47.11-17.96-11.56-11.97-17.34-28.98-17.34-51.03h.01Zm20.7-2.79c0,20.81,4.55,36.43,13.66,46.86,9.1,10.43,20.61,15.65,34.54,15.65,9.2,0,17.36-2.43,24.48-7.29,7.12-4.85,12.51-11.96,16.16-21.32,3.65-9.36,5.48-19.71,5.48-31.07,0-14.25-2.33-26.07-6.99-35.46-4.66-9.4-10.43-16.13-17.29-20.19-6.87-4.07-14.59-6.1-23.15-6.1-9.39,0-17.8,2.47-25.23,7.43-7.43,4.95-12.9,12.1-16.39,21.47-3.5,9.36-5.25,19.37-5.25,30.02h-.02Z"/>
    <path class="cls-10" d="M1159.69,489.23v-5.58c16.7,.69,30.08,1.04,40.16,1.04,5.8,0,11.21-.06,16.26-.19,6.68-.25,11.31-.38,13.89-.38,12.29,0,21.55,2.9,27.78,8.7,6.18,5.86,9.26,13.77,9.26,23.72,0,6.68-1.4,12.58-4.21,17.72-2.81,5.14-6.85,9.47-12.15,13-3.84,2.52-9.33,4.76-16.45,6.71l31.47,41c3.91,5.11,6.37,8.1,7.37,8.98,1.57,1.32,3.62,2.46,6.14,3.4,3.53,1.38,9.49,2.99,17.87,4.82v5.58c-9.96-.7-17.2-1.04-21.74-1.04-5.23,0-10.58,.34-16.06,1.04-2.83-4.73-6.68-10.67-11.53-17.81-4.85-7.15-7.81-11.39-8.88-12.71-.63-.75-1.23-1.54-1.8-2.36l-20.79-28.54c-5.61-.12-11.28-.53-17.01-1.23l.75,47.63c.13,1.89,.69,3.31,1.7,4.25,1.51,1.26,6.24,2.62,14.17,4.07,1.13,.19,2.87,.57,5.2,1.14v5.58c-11.4-.7-21.45-1.04-30.14-1.04-9.32,0-19.75,.34-31.28,1.04v-5.58l4.07-.85c9.01-1.7,14.13-3.1,15.36-4.21,1.23-1.1,1.94-3.07,2.12-5.91,.13-1.82,.28-18.02,.47-48.57l-.38-44.41c-.06-6.81-.24-10.71-.52-11.72-.28-1.01-.9-1.76-1.84-2.27-3.09-1.64-7.97-2.99-14.65-4.07-1.01-.19-2.55-.5-4.63-.94h.02Zm39.59,57.82c6.55,.7,11.62,1.04,15.21,1.04,11.47,0,19.95-2.56,25.47-7.67,5.51-5.11,8.27-12.21,8.27-21.29,0-7.95-2.44-14.23-7.32-18.84-4.88-4.61-11.99-6.91-21.31-6.91-3.34,0-9.93,.38-19.75,1.14l-.57,52.54h0Z"/>
    <path class="cls-10" d="M1366.07,481.38h5.95c8.5,21.86,18.96,46.66,31.37,74.37l22.02,48.1c1.01,1.7,2.11,2.97,3.31,3.78,.82,.57,5.45,2.08,13.89,4.54v5.58c-11.46-.7-19.9-1.04-25.33-1.04s-14.99,.34-28.35,1.04v-5.58c7.62-1.57,12.07-2.83,13.33-3.78,1.25-.95,1.89-2.05,1.89-3.31s-.66-3.56-1.98-6.71l-9.61-23.06c-13.35-.12-23.07-.18-29.15-.18l-25.86,.18-9.94,23.91c-1.64,3.85-2.46,6.24-2.46,7.19,0,.82,.39,1.5,1.18,2.03s4.46,1.5,11.01,2.88c.69,.19,1.67,.47,2.93,.85v5.58c-10.77-.7-18.37-1.04-22.77-1.04-5.6,0-12.79,.34-21.54,1.04v-5.58c5.73-1.26,9.67-2.68,11.81-4.26,1.57-1.2,3.21-3.21,4.91-6.05,3.59-6.24,12.72-26.3,27.4-60.2l25.99-60.29h0Zm-24.9,84.5c8.75,.25,15.02,.38,18.79,.38,1.13,0,10.8-.13,28.98-.38l-23.91-56.69-23.87,56.69h.01Z"/>
    <path class="cls-10" d="M1441.77,520.51h-7.27c1.2-10.97,2.27-23.25,3.21-36.85,27.89,.69,47.78,1.04,59.68,1.04,9.88,0,27.89-.34,54.01-1.04,.82,14.04,1.76,26.33,2.83,36.85h-7.09c-2.95-11.53-4.87-18.29-5.75-20.27-.88-1.99-2.15-3.4-3.82-4.26-1.66-.85-5.89-1.27-12.68-1.27h-20.93c-.5,16.76-.75,37.48-.75,62.18,0,22.93,.25,38.43,.75,46.5,.13,1.89,.6,3.18,1.42,3.87,1.07,.88,6.27,2.24,15.59,4.07,.88,.12,2.21,.41,3.97,.85v5.58c-12.48-.7-23.6-1.04-33.36-1.04s-18.74,.34-28.44,1.04v-5.58c2.2-.57,3.87-.95,5.01-1.14,8.63-1.45,13.61-2.68,14.93-3.69,.56-.5,.99-1.21,1.27-2.12s.52-7.89,.71-20.93c.25-20.16,.38-35.09,.38-44.79,0-16.94-.13-31.88-.38-44.79h-22.49l-4.07,.09c-3.59,0-5.95,.37-7.08,1.13-1.76,1.07-3.34,3.34-4.73,6.81-1.07,2.65-2.7,8.57-4.91,17.77h-.01Z"/>
    <path class="cls-10" d="M1563.78,551.6c0-20.67,6.66-37.63,19.99-50.89,13.32-13.26,30.45-19.89,51.36-19.89,19.47,0,34.97,5.85,46.5,17.57,11.53,11.72,17.29,27.85,17.29,48.38,0,22.81-6.49,40.81-19.47,54.01s-30.05,19.8-51.22,19.8c-19.84,0-35.55-5.99-47.11-17.96-11.56-11.97-17.34-28.98-17.34-51.03h0Zm20.7-2.79c0,20.81,4.55,36.43,13.65,46.86s20.61,15.65,34.54,15.65c9.2,0,17.35-2.43,24.47-7.29,7.12-4.85,12.51-11.96,16.16-21.32s5.48-19.71,5.48-31.07c0-14.25-2.33-26.07-7-35.46-4.66-9.4-10.43-16.13-17.29-20.19-6.87-4.07-14.58-6.1-23.15-6.1-9.39,0-17.8,2.47-25.23,7.43-7.43,4.95-12.9,12.1-16.39,21.47-3.5,9.36-5.24,19.37-5.24,30.02Z"/>
    <path class="cls-10" d="M1711.67,489.23v-5.58c16.69,.69,30.08,1.04,40.16,1.04,5.79,0,11.21-.06,16.25-.19,6.68-.25,11.31-.38,13.89-.38,12.29,0,21.55,2.9,27.78,8.7,6.18,5.86,9.26,13.77,9.26,23.72,0,6.68-1.4,12.58-4.21,17.72-2.81,5.14-6.85,9.47-12.14,13-3.85,2.52-9.33,4.76-16.45,6.71l31.47,41c3.91,5.11,6.37,8.1,7.37,8.98,1.57,1.32,3.62,2.46,6.14,3.4,3.53,1.38,9.49,2.99,17.87,4.82v5.58c-9.96-.7-17.2-1.04-21.74-1.04-5.23,0-10.58,.34-16.06,1.04-2.83-4.73-6.68-10.67-11.53-17.81-4.85-7.15-7.81-11.39-8.88-12.71-.63-.75-1.23-1.54-1.79-2.36l-20.79-28.54c-5.61-.12-11.28-.53-17.01-1.23l.76,47.63c.12,1.89,.69,3.31,1.7,4.25,1.51,1.26,6.24,2.62,14.17,4.07,1.14,.19,2.86,.57,5.2,1.14v5.58c-11.41-.7-21.45-1.04-30.14-1.04-9.33,0-19.75,.34-31.28,1.04v-5.58l4.06-.85c9.01-1.7,14.13-3.1,15.36-4.21,1.23-1.1,1.94-3.07,2.12-5.91,.12-1.82,.28-18.02,.47-48.57l-.38-44.41c-.07-6.81-.24-10.71-.52-11.72s-.89-1.76-1.84-2.27c-3.09-1.64-7.97-2.99-14.65-4.07-1.01-.19-2.55-.5-4.63-.94h.01Zm39.6,57.82c6.55,.7,11.62,1.04,15.22,1.04,11.46,0,19.95-2.56,25.47-7.67,5.51-5.11,8.27-12.21,8.27-21.29,0-7.95-2.44-14.23-7.33-18.84-4.88-4.61-11.99-6.91-21.31-6.91-3.34,0-9.93,.38-19.75,1.14l-.57,52.54h0Z"/>
    <path class="cls-10" d="M1871.57,617.75v-5.58c2.21-.44,3.84-.76,4.91-.95,7.81-1.26,12.54-2.52,14.18-3.78,.94-.75,1.66-2.66,2.17-5.72,.5-3.05,.75-11.92,.75-26.6l-.09-12.67c-5.3-8.44-14.05-21.73-26.27-39.88l-17.2-24.95c-1.26-1.45-2.81-2.68-4.63-3.69-2.83-1.57-7.5-3.15-13.99-4.72v-5.58c9.96,.69,18.81,1.04,26.56,1.04s16.82-.34,27.78-1.04v5.58c-7.24,1.82-11.42,3.15-12.52,3.97-1.11,.82-1.66,1.67-1.66,2.55,0,.82,.54,2.14,1.61,3.97,5.67,9.82,16.45,26.92,32.34,51.28,7.94-12.59,18.31-29.77,31.1-51.55,1.32-2.21,1.98-3.72,1.98-4.55,0-.88-.35-1.54-1.04-1.99-2.02-1.26-6.43-2.49-13.23-3.69v-5.58c11.53,.69,19.9,1.04,25.13,1.04,6.3,0,14.04-.34,23.23-1.04v5.58c-7.75,1.51-13.23,3.29-16.44,5.34-3.21,2.05-7.03,6.34-11.43,12.9-9.58,14.24-20.95,31.88-34.11,52.92-.07,3.15-.09,5.01-.09,5.58,0,21.92,.12,34,.37,36.24s.95,3.86,2.08,4.87c1.76,1.39,7.05,2.87,15.87,4.44,.76,.12,1.86,.34,3.31,.66v5.58c-11.72-.7-21.2-1.04-28.44-1.04-5.8,0-16.54,.34-32.23,1.04v.02Z"/>
  </g>
</svg>