<?xml version="1.0" encoding="UTF-8"?>
<svg id="Layer_1" data-name="Layer 1" xmlns="http://www.w3.org/2000/svg" viewBox="0 0 1250 290">
  <defs>
    <style>
      .cls-1 {
        fill: #05dafc;
      }

      .cls-1, .cls-2, .cls-3 {
        stroke-width: 0px;
      }

      .cls-2 {
        fill: #2e5a87;
      }

      .cls-3 {
        fill: #fff;
      }
    </style>
  </defs>
  <rect class="cls-3" width="1250" height="290"/>
  <g id="Layer_1-2" data-name="Layer 1">
    <g>
      <path class="cls-2" d="M623.94,12.59c.23,1.26.43,2.43.74,3.68,1.32,5.59,3.3,9.83,6.27,14.72.79,1.3,1.7,2.45,2.59,3.68,4.49,6.23,8.44,9.66,13.99,14.72,4.42,4.02,9.1,7.51,13.63,11.4,8.21,7.08,16.84,13.57,24.1,21.71.06-13.74.13-27.48.19-41.22,8.47-10.7,14.34-23.57,13.63-37.54,25.5-.34,81.61-1.93,104,1.09,51.6,6.98,85.33,43.3,90.75,94.75,7.64,72.82-30.93,126.8-105.83,130.44h-116.32c-.49-3.44-.62-6.89-1.28-10.31-.28-1.43-.74-2.68-1.11-4.04-1.59-5.83-3.36-9.66-6.62-14.72-.7-1.08-1.98-3.02-2.94-3.68-3.38-5.1-8.02-9.17-12.51-13.25-4.49-4.06-9.42-7.49-13.99-11.4-8.29-7.1-17.12-13.57-24.1-22.08-.06,13.87-.13,27.73-.19,41.58v.92c-9.04,10.06-13.76,23.46-13.63,36.97-16.55.06-33.14.11-49.7-.19-.06-32.44-.13-64.88-.19-97.33l-51.17,70.29h-24.67c-17.18-23.43-34.35-46.86-51.53-70.29-.06,32.44-.13,64.88-.19,97.33-20.8.06-41.6.13-62.4.19-.06-75.5-.13-150.99-.19-226.49l49.15-.19c25.9,36.55,51.78,73.11,77.67,109.66,25.64-36.43,51.29-72.85,76.93-109.28,21.23-.13,42.45-.25,63.68-.36l.55.55c-.13,2.93.25,5.79.74,8.64l-.02.04ZM608.84,82.52c-.3,1.87-7.44,10.66-9.57,17.12-1.38,6.29-3.34,12.68-2.59,19.14.21.17,1.09.49,1.11.55,2.47,7.76,1.81,6.87,6.62,13.61.09.13-.11.77,0,.92,1.59,2.13,2.81,2.6,2.94,2.76,4.83,5.53,9.98,9.83,16.01,13.99.15.11.77-.09.92,0,.06.04-.21.59.55,1.09,1.6,1.08,3.68,1.91,5.34,2.94,6.15,3.85,11.87,6.62,17.31,9.93,4.3,2.6,9.61,5.49,13.63,8.1,8.7,5.62,16.87,12.1,24.1,19.5.98-10.1-.7-33.84.19-40.48.09-.72-.04-1.32.38-2.02,4.1-4.85,8.12-11.59,9.95-17.67,1.89-6.29,2.45-10.76,1.11-17.12-1.32-6.23-2.85-8.63-6.27-13.61-1.36-1.98-1.59-2.45-3.32-4.42-5.13-5.83-9.59-8.93-15.84-13.25-2.11-1.45-4.11-2.68-6.27-4.04-5.93-3.76-12.06-7.02-18.04-10.66-4.57-2.79-9.49-5.21-13.99-8.1-8.76-5.64-17.12-12.12-24.1-19.87-.06,13.87-.13,27.73-.19,41.58v.02ZM749.28,64.85l-.19,103.58c25.54-.96,52.55,6.78,69.21-17.67,13.85-20.31,13.27-52.32-2.59-71.38-17.08-20.55-42.71-13.14-66.44-14.53Z"/>
      <path class="cls-1" d="M699.04,3.76c.72,13.97-5.15,26.84-13.63,37.54l-12.7,11.78c-3.86,2.58-7.73,5.15-11.59,7.72-4.53-3.89-9.19-7.38-13.63-11.4,3.79-4.11,8.49-7.66,11.42-12.32.19-.3,1.85-.83,1.47-2.21l-26.88-.19c-.89-1.23-1.79-2.38-2.59-3.68h32.58c2.81-4.51,5.15-9.25,6.08-14.53l-44.9-.19c-.3-1.25-.51-2.42-.74-3.68h46.56l1.11-8.83c9.13-.09,18.29.11,27.42,0h0Z"/>
      <path class="cls-1" d="M647.13,68.89c-5.57,3.94-12.17,6.51-17.48,10.66h35.52c2.15,1.36,4.15,2.59,6.27,4.04h-48.41c-1.42.3-14.87,10.68-15.46,13.61,26.56-.13,53.13-.25,79.7-.36,1.72,1.96,1.96,2.43,3.32,4.42h-86.69c-1.85,1.34-7.63,13.34-5.89,13.99,32.94-.13,65.89-.25,98.84-.36,1.36,6.34.79,10.81-1.11,17.12-1.83,6.08-5.85,12.82-9.95,17.67-.4.7-.26,1.32-.38,2.02-.77-1.55-1.57.91-2.59,2.02-3.64,3.98-7.93,7.27-11.59,11.23l-10.12,7.72c-4.02-2.6-9.32-5.47-13.63-8.1,5.25-3.62,11.42-6.06,16.38-9.93h-33.69c-1.66-1.04-3.72-1.87-5.34-2.94-.77-.51-.51-1.08-.55-1.09h46.56c.74-.17,10.97-8.06,12.15-9.19.74-.7,4.34-4.38,3.68-4.78h-79.33c-.13-.15-1.36-.62-2.94-2.76-.11-.15.09-.77,0-.92h85.59c2.13-.59,7.27-13.17,6.81-13.8-33,.06-66.01.13-99.01.19-49.51.09-.91-.4-1.11-.55-.77-6.45,1.21-12.85,2.59-19.14,2.13-6.45,9.27-15.23,9.57-17.12,7.79-7.63,15.61-15.08,24.29-21.71,4.49,2.89,9.42,5.3,13.99,8.1l-.02-.04Z"/>
      <path class="cls-1" d="M647.13,184.06c-4.49,4.1-8.64,8.38-12.51,13.06,8.34.06,16.68.13,25.03.19.96.66,2.25,2.6,2.94,3.68h-30.75c-2.91,4.55-5.21,9.4-6.81,14.53l44.16.19c.38,1.36.83,2.6,1.11,4.04h-45.09c-2.68,1.11-1.21,6.44-2.21,10.31-9.27.02-18.53-.04-27.8,0-.13-13.51,4.57-26.93,13.63-36.97v-.92c7.46-7.32,15.65-13.65,24.29-19.5,4.57,3.91,9.49,7.34,13.99,11.4h.02Z"/>
      <path class="cls-2" d="M473.19,249.57c9.25-1.19,17.4,1.77,20.06,11.23l-8.29.19c-5-9.32-20.97-5.42-18.59,10.85,1.6,10.95,19.02,11.7,19.87,0l-8.29-.19-.19-5.34,16.01-.19v20.23c-6.44-.26-7.02,1.6-7.36-4.04-4.27,5.85-15.06,5.64-20.61,1.83-11.95-8.17-8.64-32.54,7.36-34.6l.02.02Z"/>
      <path class="cls-2" d="M561.54,249.57c27.46-3.51,27.54,34.52,7.36,37.16-27.57,3.62-27.54-34.6-7.36-37.16ZM562.28,256.2c-3.77.66-7.1,5.81-7.55,9.38-2.28,17.99,19.67,19.57,20.99,4.42.75-8.66-4.21-15.44-13.44-13.8Z"/>
      <path class="cls-2" d="M602.76,249.57c14.61-2.02,17.1,9.87,15.84,10.66h-7.36c-2.13-7.17-10.95-5.1-9.76.19,1.09,4.85,16.61,4.49,18.04,12.87,3.06,17.95-27.42,17.84-26.33,2.02h7.36c1.62,9.76,16.38,4.34,9.57-2.21-3.96-3.81-18.46-2.51-16.38-15.65.64-4,5.19-7.38,9.02-7.91v.02Z"/>
      <path class="cls-2" d="M698.47,249.57c9.63-1.23,18.25,2.42,19.87,12.51h-8.1c-3.34-10.46-20.18-7.79-17.85,9.38,1.32,9.76,14.14,12.34,18.21,3.13l7.55.19c-1.19,14.1-23.03,15.91-30.18,5.51-6.98-10.14-3.02-29.01,10.49-30.73h0Z"/>
      <path class="cls-2" d="M869.28,249.57c7.74-1.11,15.51,1.6,16.38,10.12-9.38,2.06-7.93-.77-8.47-1.47-4.59-5.93-12.55-.34-7.55,4.23,2.76,2.51,14.53,3.3,16.38,10.12,4.81,17.68-26.57,19.57-26.33,2.76h7.36c1.57,7.38,10.44,5.83,11.23,2.76,1.77-6.81-9.1-7.4-13.06-9.76-8.34-4.94-5.44-17.4,4.06-18.76v.02Z"/>
      <path class="cls-2" d="M359.08,249.93c16.02-1.23,32.56.38,30.75,20.8-1.53,17.06-17.55,16.06-30.75,15.65l-.55-.55v-35.33l.55-.55v-.02ZM366.44,256.2l-.19,23.72c5.62.64,13.8,0,15.46-6.62,2.98-11.91-3.23-18.63-15.27-17.12v.02Z"/>
      <path class="cls-2" d="M400.68,249.93l7.17.19-.19,36.24-7.17-.19c.06-12.08.13-24.16.19-36.24Z"/>
      <path class="cls-2" d="M430.86,249.93h8.1c4.62,11.46,8.55,23.52,13.06,35.14l-.19,1.28h-7l-3.32-8.1h-13.25l-2.94,8.1-7.55-.19c4.35-12.08,8.71-24.16,13.06-36.24h.04ZM434.92,258.76l-4.61,13.44c3.13.06,6.26.13,9.38.19l-4.79-13.61.02-.02Z"/>
      <path class="cls-2" d="M505.6,249.93h7c5.53,7.83,10.64,16.06,16.19,23.91.06-7.91.13-15.82.19-23.72h7.36c-.06,12.08-.13,24.16-.19,36.24-2.26-.26-5.87.62-7.55-.55-1.15-.81-13.19-20.42-15.65-23.37l-.19,23.72h-7.36c.06-12.08.13-24.16.19-36.24Z"/>
      <path class="cls-2" d="M628.54,249.93h27.61c2.66,9.36-2.19,4.51-10.12,6.44-.06,9.99-.13,19.99-.19,29.99l-7.17-.19v-29.8c-8.74-1.66-12.59,3.08-10.12-6.44h-.02Z"/>
      <path class="cls-2" d="M666.82,249.93h6.62l.55.55v35.33l-.55.55h-6.62l-.55-.55v-35.33l.55-.55Z"/>
      <path class="cls-2" d="M746.69,249.93h6.62l.55.55v29.8c5.1.06,10.19.13,15.27.19v5.89c-7.55-.06-15.09-.13-22.63-.19.06-12.08.13-24.16.19-36.24h0Z"/>
      <path class="cls-2" d="M791.61,249.93l8.29.19c3.87,12.19,9.23,24.05,12.7,36.24h-7.36l-2.94-8.1h-13.63l-2.94,8.1-7.55-.19c4.48-12.08,8.96-24.16,13.44-36.24ZM795.65,258.76l-4.61,13.44c3.01.06,6.01.13,9.02.19-1.47-4.54-2.94-9.08-4.42-13.61v-.02Z"/>
      <path class="cls-2" d="M822.53,249.93c7.1.77,21.48-2.59,25.57,4.61,2.77,4.85.96,10.68-4.06,13.25,7.42,2.06,8.19,12.76,2.02,16.74-4.87,3.13-17.7,1.53-23.74,1.66.06-12.08.13-24.16.19-36.24l.02-.02ZM830.27,255.82v9.19c4.27-.11,12.42,1.53,11.59-5.34-.6-5.06-8.13-3.72-11.59-3.87v.02ZM830.27,270.54v9.57c4.76-.25,13.49,1.83,12.32-5.7-.81-5.28-8.64-3.62-12.32-3.87h0Z"/>
    </g>
  </g>
</svg>