<?xml version="1.0" encoding="UTF-8"?>
<svg id="Layer_1" data-name="Layer 1" xmlns="http://www.w3.org/2000/svg" xmlns:xlink="http://www.w3.org/1999/xlink" viewBox="0 0 3458.75 1097.89">
  <defs>
    <style>
      .cls-1 {
        fill: url(#linear-gradient-2);
      }

      .cls-2 {
        fill: #4ebdde;
      }

      .cls-3 {
        fill: #fff;
      }

      .cls-4 {
        fill: url(#linear-gradient-4);
      }

      .cls-5 {
        fill: url(#linear-gradient-3);
      }

      .cls-6 {
        fill: url(#linear-gradient-5);
      }

      .cls-7 {
        fill: #ec1b24;
      }

      .cls-8 {
        fill: url(#linear-gradient-6);
      }

      .cls-9 {
        fill: url(#linear-gradient);
      }
    </style>
    <linearGradient id="linear-gradient" x1="1696.98" y1="125.42" x2="1846.91" y2="125.42" gradientTransform="translate(0 1096.15) scale(1 -1)" gradientUnits="userSpaceOnUse">
      <stop offset="0" stop-color="#4dbedc"/>
      <stop offset="1" stop-color="#399cb2"/>
    </linearGradient>
    <linearGradient id="linear-gradient-2" x1="1362.85" y1="11.1" x2="1362.85" y2="235.93" gradientTransform="translate(0 1096.15) scale(1 -1)" gradientUnits="userSpaceOnUse">
      <stop offset="0" stop-color="#404040"/>
      <stop offset=".4" stop-color="#404040"/>
      <stop offset=".7" stop-color="#5e6262"/>
      <stop offset=".82" stop-color="#6b7071"/>
    </linearGradient>
    <linearGradient id="linear-gradient-3" x1="2394.28" y1="11.61" x2="2394.28" y2="235.93" gradientTransform="translate(0 1096.15) scale(1 -1)" gradientUnits="userSpaceOnUse">
      <stop offset="0" stop-color="#404040"/>
      <stop offset=".4" stop-color="#404040"/>
      <stop offset=".7" stop-color="#5e6262"/>
      <stop offset=".82" stop-color="#6b7071"/>
    </linearGradient>
    <linearGradient id="linear-gradient-4" x1="1867.9" y1="176.2" x2="2024.27" y2="23.81" gradientTransform="translate(0 1096.15) scale(1 -1)" gradientUnits="userSpaceOnUse">
      <stop offset=".15" stop-color="#43aac2"/>
      <stop offset=".73" stop-color="#2a7c8a"/>
    </linearGradient>
    <linearGradient id="linear-gradient-5" x1="1535.96" y1="927.39" x2="1987.87" y2="346.72" gradientTransform="translate(0 1096.15) scale(1 -1)" gradientUnits="userSpaceOnUse">
      <stop offset="0" stop-color="#1d5b62"/>
      <stop offset="1" stop-color="#297d8c"/>
    </linearGradient>
    <linearGradient id="linear-gradient-6" x1="2082.21" y1="934.29" x2="2586.37" y2="286.48" gradientTransform="translate(0 1096.15) scale(1 -1)" gradientUnits="userSpaceOnUse">
      <stop offset="0" stop-color="#1d5b62"/>
      <stop offset="1" stop-color="#297d8c"/>
    </linearGradient>
  </defs>
  <rect class="cls-3" x=".03" y="4.44" width="3456" height="1098"/>
  <path class="cls-2" d="M1593.43,81.27l-12.58-16.44c-54.43-71.14-161.57-71.14-216,0l-12.59,16.45-514.02,671.81h241.17l393.43-514.21,393.44,514.21h241.17L1593.43,81.27Z"/>
  <polygon class="cls-9" points="1846.91 860.23 1846.91 900.49 1741.53 900.49 1741.53 951.03 1840.05 951.03 1840.05 991.29 1741.53 991.29 1741.53 1040.98 1846.91 1040.98 1846.91 1081.24 1696.98 1081.24 1696.98 860.23 1846.91 860.23"/>
  <path class="cls-1" d="M1242.28,860.23h45.18v221h-44.55v-130.2l-51.41,104.43h-30.53l-50.85-105.29v131.06h-44.55v-221h44.98l65.72,130.89,66.01-130.89h0ZM1660.14,860.23v221h-42.84v-15.42c-9.62,9.65-21.14,15.93-34.8,17.89-66.43,9.53-101.66-64-76.45-119.27,19.36-42.44,76.86-57.26,111.25-23.68v-80.52h42.84ZM1575.15,962.43c-47.21,3.65-46.1,74.4-5.87,80.73,63.24,9.95,62.73-85.13,5.87-80.73ZM1472.51,998.58c.28,4.94.73,10.22-.64,16.7h-111.59c5.93,37.71,53.55,43.59,75.82,16.31l28.66,21.81c-20.35,28.17-58.74,37.58-91.43,28.06-76.08-22.16-71.62-145.56,8.18-158.44,51.94-8.39,88.13,24.39,90.98,75.57h.02ZM1432.25,987.87c-6.42-43.24-65.17-42.85-71.11,0h71.11Z"/>
  <path class="cls-5" d="M2540.85,860.23v80.52c21.22-23.13,59.85-23.23,85.08-6.69,47.1,30.88,44.74,113.96-4.83,141.32-25.14,13.88-60.22,12.5-80.25-9.57v15.42h-42.84v-221h42.84ZM2575.8,962.42c-47.01,4.06-45.39,75.34-4.31,80.9,62.42,8.45,60.98-85.79,4.31-80.9ZM2417.48,940.75v-16.28h42.84v156.76h-42.84v-14.56c-10.07,8.91-20.35,15.07-33.94,17.03-68,9.81-104.02-67.8-75.01-122.97,20.69-39.36,76.39-52.81,108.95-19.99h0ZM2375.32,962.42c-50.23,4.3-47.11,87.79,10.8,81.03,45.08-5.26,42.44-85.59-10.8-81.03ZM2130.05,860.23h-1.29v221h149.93v-40.26h-105.38v-180.74h-43.26,0Z"/>
  <polygon class="cls-4" points="1921.42 924.48 1952.94 968.49 1984.44 924.48 2033.67 924.48 1978.8 1003.67 2033.67 1081.24 1984.41 1081.24 1952.72 1038.4 1921.43 1081.24 1872.28 1081.24 1928.13 1003.58 1872.06 924.48 1921.42 924.48"/>
  <polygon class="cls-7" points="854.7 864.52 884.59 923.74 914.36 864.52 930.34 864.52 931.62 864.52 931.62 959.6 915.77 959.6 914.49 958.31 914.49 899.64 890.33 947.98 878.94 947.98 854.52 898.78 854.52 959.6 838.24 959.6 838.24 864.52 839.52 864.52 854.7 864.52"/>
  <polygon class="cls-7" points="992.26 959.6 975.98 959.6 975.98 918.91 942.27 864.52 943.86 864.52 960.85 864.52 984.12 901.33 1006.97 864.52 1024.39 864.52 1025.77 864.52 992.26 918.91 992.26 959.6"/>
  <path class="cls-6" d="M2107.46,753.09h-241.17l-393.44-514.21,54-70.57c33.56-43.86,99.63-43.86,133.19,0l447.43,584.78h0Z"/>
  <path class="cls-2" d="M2145.06,81.27l-12.58-16.44c-54.43-71.14-161.57-71.14-216,0l-12.59,16.45-514.02,671.81h241.17l393.43-514.21,393.44,514.21h241.17L2145.06,81.27Z"/>
  <path class="cls-8" d="M2659.08,753.09h-241.17l-393.44-514.21,54-70.57c33.56-43.86,99.63-43.86,133.19,0l447.43,584.78h0Z"/>
</svg>