<?xml version="1.0" encoding="UTF-8"?>
<svg id="Layer_1" data-name="Layer 1" xmlns="http://www.w3.org/2000/svg" viewBox="0 0 421.2 117">
  <defs>
    <style>
      .cls-1 {
        fill: #fff;
      }

      .cls-2 {
        fill: #fdfefe;
      }

      .cls-3 {
        fill: #1560a9;
      }

      .cls-4 {
        fill: #f0f1f2;
      }

      .cls-5 {
        fill: #2c2a2a;
      }

      .cls-6 {
        fill: #0e5fa8;
      }

      .cls-7 {
        fill: #1e61a9;
      }

      .cls-8 {
        fill: #f3f4f4;
      }

      .cls-9 {
        fill: #0d9686;
      }

      .cls-10 {
        fill: #474748;
      }

      .cls-11 {
        fill: #0a0909;
      }

      .cls-12 {
        fill: #079685;
      }

      .cls-13 {
        fill: #080808;
      }

      .cls-14 {
        fill: #fdfdfd;
      }

      .cls-15 {
        fill: #fbfbfb;
      }

      .cls-16 {
        fill: #115fa8;
      }

      .cls-17 {
        fill: #0d5ea8;
      }

      .cls-18 {
        fill: #212121;
      }

      .cls-19 {
        fill: #d8e5e3;
      }

      .cls-20 {
        fill: #1c1919;
      }

      .cls-21 {
        fill: #d2d7ec;
      }

      .cls-22 {
        fill: #0e0c0c;
      }

      .cls-23 {
        fill: #125fa9;
      }

      .cls-24 {
        fill: #efefef;
      }

      .cls-25 {
        fill: #060505;
      }

      .cls-26 {
        fill: #201e1e;
      }

      .cls-27 {
        fill: #1f1c1c;
      }

      .cls-28 {
        fill: #252323;
      }

      .cls-29 {
        fill: #009585;
      }

      .cls-30 {
        fill: #095ea8;
      }

      .cls-31 {
        fill: #fefefe;
      }
    </style>
  </defs>
  <rect class="cls-1" x="0" width="421.2" height="117"/>
  <path class="cls-31" d="M335.25,115.84H64.49v-13.01c1,0,2,0,3-.01,.15,0,.31-.06,.46-.1,.02-.21,.05-.41,.05-.62,0-6.37,0-12.73,0-19.1,0-.21,.01-.42,.02-.63,.23,.31,.37,.62,.52,.93,1.36,2.74,2.71,5.49,4.07,8.23,.58,1.16,1.16,2.33,1.73,3.5,.32,.64,.7,1.23,1.25,1.7,.51,.43,1.07,.72,1.77,.67,2.54-5.04,5.07-10.05,7.6-15.06,.03,0,.06,0,.09,.02v20.44h3.38v-24.03h-5.13c-2.27,4.61-4.53,9.19-6.79,13.76-2.25-4.59-4.51-9.19-6.77-13.8-1.06,0-2.07,0-3.09,0-.69,0-1.38,.02-2.07,.04-.04,0-.08,0-.11,0V2.48h93.05s0,.09,0,.13c-2.48,6.56-4.96,13.12-7.44,19.68-4.99,13.19-9.98,26.38-14.97,39.57-.07,.18-.12,.35-.19,.57h16.8c.48-1.27,.96-2.53,1.43-3.78,6.47-17.1,12.94-34.19,19.4-51.29,.6-1.58,1.18-3.16,1.77-4.74,0-.04,0-.09,.01-.14h28.91s0,.09,.01,.13c-7.54,19.92-15.07,39.84-22.62,59.8h16.81c.08-.2,.15-.38,.22-.56,6.99-18.48,13.98-36.95,20.97-55.43,.48-1.27,.94-2.55,1.41-3.83,0-.04,0-.09,0-.13h28.79s0,.1,.02,.14c-.02,.05-.03,.11-.05,.17-2.55,6.74-5.1,13.47-7.65,20.21-4.91,12.97-9.82,25.95-14.72,38.92-.06,.16-.1,.32-.16,.5h16.77c.06-.15,.12-.27,.17-.4,1.57-4.16,3.15-8.32,4.72-12.47,5.61-14.84,11.23-29.67,16.84-44.51,.31-.81,.59-1.62,.88-2.43,0-.04,0-.09,0-.13h94.55V115.84h-24.76s0-.11,.03-.13c.64-.36,.96-.95,1.18-1.63,.34-1.02,.69-2.02,1.03-3.03,.03-.09,.04-.18,.07-.31h-.67c-.29,.86-.58,1.71-.91,2.7-.38-.99-.72-1.85-1.04-2.69h-.76c.51,1.23,1,2.4,1.51,3.63-.14,.4-.51,.68-.91,.91,.08,.2,.15,.37,.22,.54h0Zm-13.61-13.23c.22,.04,.41,.09,.6,.11,1.33,.13,2.67,.3,4.01,.39,2.16,.15,4.3-.01,6.38-.64,3.62-1.09,6.19-3.34,7.4-6.96,.98-2.94,1.09-5.95,.35-8.96-.55-2.27-1.78-4.14-3.63-5.59-1.94-1.51-4.19-2.19-6.61-2.41-2.23-.21-4.45-.05-6.66,.25-.62,.08-1.23,.24-1.83,.36v23.46h0Zm-74.99-6.36h10.08c.85,2.16,1.69,4.31,2.53,6.45h3.76c-3.15-8-6.28-15.95-9.39-23.87h-3.3c-3.59,7.95-7.18,15.9-10.79,23.88h4.63c.83-2.14,1.65-4.28,2.49-6.46h0Zm-123.05-10.54c-.2-.09-.32-.14-.44-.19-1.61-.72-3.29-.88-5.01-.6-2.77,.45-4.65,2.06-5.74,4.6-.81,1.87-.95,3.85-.73,5.86,.43,3.87,3.48,7.55,8.44,7.79,2.22,.11,4.39-.25,6.48-1.01,.14-.05,.26-.12,.33-.16-.05-1.04-.13-2.01-.13-2.99,0-7.12,0-14.23,0-21.35v-.61c-.63-.11-2.77-.1-3.21,.03v8.64h0Zm21.94-6.23c-.78-.22-1.49-.45-2.21-.63-2.07-.52-4.17-.67-6.27-.17-1.53,.36-2.87,1.06-3.92,2.26-1.93,2.19-2.09,6.97,1.85,9.24,1.63,.94,3.32,1.76,4.98,2.64,.75,.39,1.44,.87,2.03,1.49,1.56,1.63,1.18,4.35-1.11,5.34-.81,.35-1.65,.51-2.51,.53-1.37,.04-2.71-.17-4.04-.52-.59-.15-1.17-.33-1.79-.51-.28,.96-.55,1.89-.82,2.81,.09,.06,.13,.11,.18,.12,2.83,1.02,5.73,1.4,8.71,.84,1.16-.22,2.22-.71,3.21-1.36,3.56-2.34,3.57-7.49,.75-10.06-.45-.41-.95-.78-1.48-1.07-1.55-.84-3.13-1.63-4.69-2.44-.84-.43-1.63-.93-2.27-1.64-1.24-1.36-.72-3.82,1.01-4.5,.55-.21,1.14-.36,1.72-.42,1.71-.18,3.36,.11,4.99,.63,.21,.07,.43,.13,.68,.2,.34-.94,.67-1.83,1.02-2.79h0Zm-48.97,15.62h11.65c.24-1.37,.25-2.7,.01-4.01-.34-1.91-1.16-3.58-2.73-4.77-2.2-1.67-4.68-1.88-7.25-1.11-2.17,.65-3.55,2.22-4.38,4.26-1.06,2.59-1.17,5.28-.31,7.93,.91,2.8,2.77,4.73,5.69,5.49,1.93,.5,3.88,.36,5.79-.13,.72-.18,1.43-.39,2.12-.78-.34-.81-.66-1.59-.97-2.35-.09,0-.11-.01-.13,0-.07,.03-.14,.06-.21,.08-1.54,.52-3.1,.8-4.74,.63-2.59-.27-4.51-2.4-4.55-5.24h0Zm73.26-6.38c.33-.13,.59-.24,.86-.33,1.49-.55,3.01-.9,4.61-.74,.56,.05,1.1,.17,1.59,.46,.72,.41,1.02,1.07,1.02,1.87,0,.74-.45,1.2-1.06,1.52-.25,.13-.52,.25-.8,.32-.99,.24-1.98,.47-2.97,.68-1.3,.28-2.56,.65-3.73,1.29-2.98,1.62-3.23,6.42-.14,8.18,.45,.25,.91,.49,1.4,.67,1.62,.58,3.3,.65,5,.51,1.8-.15,3.55-.56,5.28-1.1,.16-.05,.31-.12,.49-.19-.32-1.47-.25-2.93-.25-4.39,0-2.24,0-4.49,0-6.73,0-.52-.03-1.04-.1-1.55-.28-1.86-1.26-3.2-3.05-3.83-.66-.23-1.37-.39-2.07-.46-2.34-.23-4.58,.19-6.73,1.14-.13,.06-.26,.14-.42,.23,.36,.81,.71,1.6,1.08,2.44h0Zm31.22,14.08v-.7c0-3.58,0-7.17,0-10.75,0-.53-.02-1.07-.09-1.6-.26-2.16-1.39-3.65-3.47-4.37-1.63-.57-3.31-.61-5-.41-1.97,.24-3.85,.84-5.7,1.53-.12,.04-.24,.11-.38,.17,.02,.22,.04,.43,.05,.64,.06,.95,.17,1.91,.17,2.86,.02,3.99,0,7.97,0,11.96,0,.22,.02,.44,.03,.66h3.12v-14.28c1.59-.67,3.2-1.01,4.91-.85,1.7,.16,2.75,1.09,3.06,2.76,.07,.35,.09,.72,.09,1.09,0,3.56,0,7.13,0,10.7,0,.2,.02,.4,.03,.6h3.17Zm111.73-3.31c-1.69,.71-3.43,1.09-5.25,.8-1.6-.26-2.52-1.3-2.7-2.91-.05-.44-.08-.88-.08-1.32,0-3.38,0-6.75,0-10.13v-.64h-3.17v11.88c0,.31,0,.61,.04,.92,.24,2.22,1.33,3.78,3.48,4.54,1.08,.38,2.2,.51,3.33,.52,1.7,.02,3.35-.34,4.96-.84,.93-.28,1.84-.61,2.77-.92-.02-.27-.04-.48-.05-.69-.06-.94-.17-1.87-.17-2.81-.02-4.01,0-8.02,0-12.02,0-.2-.02-.4-.03-.6h-3.12v14.2h0Zm41.08-5.47c1.98-2.9,3.95-5.77,5.98-8.74h-.58c-.86,0-1.73,.02-2.59,0-.42-.02-.66,.13-.88,.47-1.16,1.79-2.35,3.55-3.52,5.33-.1,.16-.22,.3-.35,.48-.14-.2-.26-.35-.37-.51-1.24-1.78-2.49-3.55-3.71-5.34-.22-.32-.46-.45-.85-.44-.9,.03-1.8,0-2.7,0-.17,0-.33,.02-.6,.04,2.06,2.82,4.06,5.58,6.09,8.35-.44,.61-.86,1.2-1.28,1.79-.43,.61-.87,1.22-1.3,1.83-.42,.6-.84,1.19-1.27,1.78-.43,.61-.87,1.22-1.3,1.83-.41,.59-.85,1.16-1.28,1.84,1.15,0,2.19-.02,3.22,0,.4,.01,.62-.14,.84-.46,1.29-1.9,2.6-3.8,3.91-5.69,.11-.15,.22-.3,.37-.51,.15,.21,.27,.38,.39,.54,1.3,1.9,2.6,3.8,3.89,5.71,.19,.28,.39,.41,.74,.4,1-.02,2,0,2.99,0,.12,0,.25-.02,.46-.03-2.13-2.94-4.21-5.81-6.29-8.69h0Zm-68.65,5.74c-.45,.14-.86,.29-1.29,.38-.84,.19-1.68,.41-2.55,.19-.8-.2-1.21-.67-1.29-1.48-.01-.15,0-.31,0-.46v-10.39h5.02v-2.76h-3.37c-.55,0-1.09,0-1.67-.01v-4.7c-.8-.1-2.75-.07-3.21,.05v4.72c-.67,.04-1.29,.07-1.93,.1v2.53c.66,.04,1.28,.07,1.94,.11v.66c0,3.22,0,6.44,0,9.66,0,.5,.03,1,.1,1.49,.22,1.51,1.03,2.58,2.49,3.08,.9,.31,1.83,.39,2.78,.32,1.17-.08,2.3-.36,3.41-.74,.13-.04,.26-.11,.39-.17-.29-.88-.56-1.72-.84-2.57h0Zm-121.07-13.79c-.17-.07-.28-.13-.4-.18-1.87-.73-3.8-1.03-5.8-.93-3.44,.18-6.29,2.27-7.44,5.51-.63,1.75-.74,3.56-.45,5.39,.52,3.24,2.33,5.52,5.37,6.71,2.9,1.13,5.79,.84,8.61-.38,.03-.01,.04-.06,.09-.14-.29-.77-.59-1.56-.86-2.29-1.03,.24-1.97,.52-2.93,.67-3.72,.6-5.92-1.89-6.57-4.12-.5-1.68-.44-3.37,.13-5.03,.25-.73,.65-1.39,1.16-1.97,.84-.95,1.91-1.46,3.16-1.58,1.57-.15,3.05,.22,4.51,.73,.15,.05,.31,.1,.49,.15,.32-.87,.62-1.69,.93-2.54h0Zm107.62,14.22c-.47,.09-.87,.2-1.26,.22-.61,.03-.97-.32-1.02-.92-.03-.29-.02-.57-.02-.86v-20.87c0-.22,0-.44-.02-.65h-3.18v22.58c0,.21,0,.42,.02,.63,.13,1.5,.97,2.48,2.34,2.74,.82,.16,1.64,.12,2.45-.06,.48-.11,.97-.17,1.42-.43-.25-.81-.48-1.59-.72-2.37h0Zm15.53-42.78h-16.91c.67,1.77,1.33,3.5,1.99,5.24,5.62-.07,11.19-.13,16.84-.2-.65-1.72-1.28-3.36-1.92-5.04h0Zm-17.67-2.01c1.03,.13,16.46,.08,16.89-.06-.63-1.64-1.25-3.28-1.88-4.92-.16-.01-.27-.03-.38-.03-5.46,0-10.93,.02-16.39,.03-.02,0-.03,.02-.04,.03-.01,.02-.02,.04-.04,.09,.61,1.6,1.23,3.23,1.85,4.87h0Zm12.41-11.81h-16.89c.63,1.65,1.23,3.26,1.83,4.84,.88,.12,16.46,.07,16.88-.05-.6-1.59-1.21-3.18-1.82-4.79h0Zm-22.09-13.68c.64,1.68,1.25,3.28,1.85,4.87h16.88c-.63-1.66-1.24-3.26-1.86-4.87h-16.87Zm-28.76,.01h-16.85c.63,1.65,1.24,3.26,1.85,4.87h15.88c.14-.36,.29-.71,.41-1.08,.04-.13,.03-.31-.02-.44-.41-1.11-.84-2.22-1.27-3.35Zm-62.58-.01c.63,1.67,1.24,3.27,1.85,4.88h15.88c.11-.27,.2-.54,.32-.8,.15-.32,.14-.61,0-.93-.3-.73-.56-1.47-.84-2.2-.12-.32-.25-.63-.37-.95h-16.84Zm95.78,11.69h16.89c-.62-1.64-1.23-3.23-1.83-4.81h-16.88c.62,1.64,1.23,3.23,1.83,4.81Zm24.64,45.1c.36,1.47,.3,2.91,.3,4.34v11.68h3.19v-14.35c1.78-.63,3.56-.77,5.4-.38,.32-.95,.63-1.86,.95-2.8-3.51-.84-6.65,.21-9.83,1.51h0Zm-28.33-58.83c.62,.13,14.9,.11,15.34-.02-.61-1.59-1.21-3.18-1.81-4.74h-11.74c-.6,1.6-1.2,3.18-1.79,4.75h0Zm-45.64,.05h15.37c-.62-1.64-1.23-3.24-1.83-4.82h-11.71c-.6,1.59-1.2,3.18-1.82,4.82Zm-45.73,0h15.37c-.62-1.64-1.23-3.23-1.83-4.82h-11.72c-.6,1.6-1.2,3.19-1.82,4.82h0Zm61.98,8.87h-14.37c.62,1.64,1.22,3.22,1.83,4.82h10.72c.6-1.61,1.2-3.2,1.82-4.82h0Zm-45.73,0h-14.37c.62,1.64,1.22,3.22,1.83,4.82h10.72c.6-1.61,1.21-3.2,1.82-4.82h0Zm77.68-15.72c.75,.11,9.71,.08,10.17-.04-.62-1.63-1.24-3.25-1.85-4.85h-6.48c-.62,1.63-1.23,3.26-1.85,4.89h0Zm-91.36,.03h10.2c-.64-1.67-1.25-3.29-1.87-4.92h-6.47c-.61,1.62-1.23,3.24-1.86,4.92h0Zm45.73,0h10.2c-.63-1.67-1.25-3.29-1.87-4.92h-6.47c-.61,1.62-1.23,3.24-1.86,4.92Zm11.11,22.51h-9.21c.63,1.66,1.24,3.26,1.84,4.86h5.53c.61-1.62,1.22-3.22,1.84-4.86Zm-45.73,0c-1.33-.11-8.69-.06-9.18,.07,.61,1.61,1.22,3.21,1.82,4.78h5.53c.61-1.61,1.21-3.2,1.83-4.85h0Zm-3.55-29.42c-.08-.24-.15-.43-.22-.62-.45-1.2-.91-2.4-1.36-3.6-.2-.52-.39-1.04-.6-1.55-.04-.1-.18-.21-.28-.22-.1,0-.2,.12-.29,.2-.04,.04-.04,.11-.06,.16-.66,1.74-1.31,3.47-1.97,5.21-.05,.13-.07,.27-.1,.42h4.88Zm45.71,0c-.04-.17-.06-.26-.09-.34-.67-1.77-1.34-3.54-2.02-5.31-.03-.07-.05-.15-.09-.21-.13-.2-.38-.2-.51,0-.05,.08-.07,.18-.11,.26-.65,1.72-1.3,3.44-1.95,5.16-.05,.13-.08,.28-.12,.45h4.89Zm45.62,0c-.07-.22-.11-.37-.16-.51-.65-1.7-1.29-3.4-1.94-5.1-.04-.09-.06-.18-.11-.26-.13-.2-.38-.2-.51,0-.05,.08-.08,.18-.11,.26-.65,1.72-1.3,3.44-1.95,5.16-.05,.13-.08,.28-.12,.45h4.89Zm1.73,99.96v-4.64h-1.02c-.42,.84-.84,1.69-1.29,2.58-.45-.9-.87-1.75-1.28-2.58h-1.03v4.63h.68c0-.6-.01-1.19,0-1.78,.01-.57-.06-1.15,.11-1.73,.11,.1,.17,.21,.23,.32,.27,.55,.53,1.1,.81,1.64,.13,.25,.25,.53,.67,.51,.43-.84,.87-1.69,1.3-2.54,.04,0,.08,.02,.11,.03v3.54c.12,.02,.19,.05,.27,.05,.13,0,.26-.01,.44-.02h0Zm-96.15-63.72c.67,1.77,1.33,3.49,2.03,5.34,.7-1.86,1.35-3.58,2.01-5.34h-4.04Zm47.76,5.34c.7-1.86,1.35-3.58,2.02-5.34h-4.04c.67,1.77,1.32,3.49,2.03,5.34h0Zm92.79,55.68c.98-.43,1.36-.2,1.36,.81v1.92c.26-.02,.46-.03,.66-.04v-1.33c0-.36,.02-.73,0-1.09-.05-.68-.44-1.05-1.12-1.03-.3,0-.6,.1-.9,.14-.14,.02-.31,.07-.42,.02-.79-.36-1.52-.13-2.21,.15v3.14h.67v-2.75c.19-.05,.35-.11,.52-.13,.52-.05,.75,.14,.79,.66,.02,.23,0,.46,0,.69v1.55h.65v-2.7h0Zm-55.81-1.95c-.63,1.56-1.26,3.09-1.89,4.64h.74c.18-.43,.33-.83,.5-1.23h1.89c.18,.42,.35,.84,.51,1.23h.77c-.62-1.58-1.23-3.12-1.83-4.64h-.68Zm20.7,4.52v-4.83h-.65v1.55c-.31-.03-.58-.09-.83-.05-.29,.04-.62,.11-.85,.28-.6,.45-.7,1.11-.6,1.81,.1,.67,.46,1.12,1.09,1.35,.62,.23,1.24,.13,1.83-.11h0Zm39.09-3.1v4.76h.67v-1.46c.22,.01,.39,.03,.56,.03,.8,0,1.47-.47,1.65-1.24,.19-.82,.04-1.62-.69-2.08-.17-.11-.38-.2-.58-.23-.55-.06-1.11-.04-1.62,.22Zm-205.16-1.85v4.87c.58,.23,1.16,.28,1.72,.14,.69-.18,1.1-.68,1.22-1.38,.11-.7,0-1.36-.59-1.82-.23-.18-.55-.26-.84-.3-.26-.04-.54,.03-.87,.05v-1.56h-.64Zm167.84,4.92c.57,.26,1.09,.3,1.63,.23,.69-.09,1.19-.56,1.28-1.14,.09-.59-.19-1.08-.84-1.43-.32-.17-.64-.33-.96-.52-.23-.13-.39-.32-.34-.61,.05-.31,.27-.46,.57-.46,.38,0,.75,.04,1.17,.07,.05-.12,.11-.29,.18-.46-.68-.31-1.26-.36-1.81-.16-.46,.17-.8,.45-.85,.97-.06,.55,.14,.97,.63,1.25,.26,.15,.54,.28,.81,.43,.15,.08,.29,.18,.43,.28,.22,.17,.29,.4,.22,.67-.06,.25-.25,.39-.49,.43-.2,.04-.42,.06-.62,.04-.28-.02-.56-.09-.86-.14-.05,.18-.1,.34-.16,.54h0Zm24.12-.53c-1.39,.32-2.27,.03-2.46-.98-.37-2.01,.56-2.75,2.54-2.25,.07-.15,.13-.3,.19-.44-1.16-.71-2.52-.31-3.1,.46-.71,.94-.64,2.4,.15,3.3,.65,.74,2.05,.95,2.88,.36-.07-.15-.14-.3-.2-.45h0Zm-178.65-2.18c.39-.05,.74-.12,1.1-.14,.22-.01,.41,.1,.45,.36,.04,.28-.18,.36-.38,.42-.31,.09-.63,.14-.94,.24-.57,.19-.82,.56-.77,1.06,.04,.44,.39,.82,.92,.88,.65,.08,1.29,.07,1.86-.22,0-.78,0-1.52,0-2.27-.01-.62-.32-.98-.92-1.04-.52-.05-1.03-.02-1.51,.28,.07,.15,.14,.31,.19,.43h0Zm21.1,2.16c-1.22,.31-1.83-.07-1.8-.84,.73-.05,1.47,.03,2.25-.05-.02-.31,0-.56-.05-.8-.15-.74-.64-1.17-1.33-1.2-.79-.04-1.37,.33-1.54,1.09-.1,.43-.11,.93,0,1.36,.23,.96,1.37,1.51,2.66,.88-.06-.14-.12-.29-.18-.43h0Zm-11.96,.68c1,0,1.68-.72,1.69-1.77,0-1.07-.7-1.81-1.72-1.8-1,0-1.65,.73-1.64,1.81,0,1.09,.65,1.77,1.67,1.77h0Zm172.65-3.46c-1.01,0-1.66,.71-1.66,1.79,0,1.07,.68,1.79,1.68,1.78,.99,0,1.65-.73,1.66-1.8,.01-1.11-.84-1.86-1.68-1.77h0Zm-187.29,1.67c0-1.15-.78-1.88-1.9-1.78-.79,.07-1.39,.74-1.44,1.6-.07,.98,.44,1.78,1.24,1.95,.06,.01,.11,.01,.17,.02,1.17,.1,1.94-.61,1.94-1.79h0Zm204.61,1.64c0-.39,0-.76,0-1.12,0-.44,0-.88-.04-1.32-.06-.51-.37-.8-.87-.85-.52-.05-1.03-.04-1.53,.28,.07,.15,.13,.3,.2,.47,.18-.05,.32-.11,.46-.13,.25-.03,.5-.07,.74-.02,.13,.03,.31,.21,.32,.33,.01,.11-.16,.26-.28,.36-.08,.06-.22,.06-.33,.09-.29,.08-.6,.14-.88,.25-.39,.16-.59,.46-.58,.9,.02,.54,.39,.92,1.06,1,.58,.07,1.15-.02,1.72-.25h0Zm-53.08-1.31h2.19c0-.32,.05-.61,0-.88-.12-.57-.48-.98-1.06-1.09-.57-.11-1.11-.02-1.51,.48-.54,.68-.53,1.86,.03,2.51,.53,.62,1.45,.74,2.34,.27-.07-.14-.13-.28-.2-.41-1.24,.25-1.69,.04-1.79-.88h0Zm55.68,1.49v-2.71c.07-.04,.1-.07,.13-.08,1.14-.36,1.44,.06,1.38,.94-.04,.6,0,1.21,0,1.82h.66c0-.82,.02-1.61,0-2.39-.02-.6-.36-.98-.94-1.05-.67-.09-1.32,.02-1.86,.33v3.14h.64Zm-35.62-.17c0-.8,.02-1.55,0-2.29-.02-.6-.33-.95-.9-1.01-.52-.05-1.03-.04-1.52,.28,.07,.15,.13,.3,.21,.47,.17-.05,.32-.11,.46-.13,.23-.03,.46-.06,.68-.04,.2,.01,.36,.12,.39,.35,.02,.21-.12,.31-.29,.37-.13,.04-.26,.06-.39,.1-.29,.09-.6,.15-.87,.28-.48,.23-.66,.75-.47,1.21,.2,.47,.61,.61,1.06,.66,.56,.06,1.1-.03,1.64-.25h0Zm-183.84-3.12c.08,.16,.15,.31,.21,.43,.38-.05,.71-.12,1.05-.15,.25-.02,.46,.09,.5,.37,.04,.28-.2,.35-.4,.41-.31,.09-.64,.14-.94,.24-.56,.19-.76,.49-.74,1.02,.02,.46,.33,.83,.87,.92,.65,.1,1.29,.07,1.9-.22,0-.76,0-1.51,0-2.26,0-.59-.31-.96-.87-1.04-.53-.07-1.07-.04-1.58,.28h0Zm186.48,3.29v-2.79c.3-.04,.58-.1,.85-.1,.39,0,.6,.22,.64,.6,.02,.17,0,.34,0,.52v1.76h.68c0-.79,.02-1.53,0-2.28-.03-.77-.42-1.14-1.19-1.18-.59-.03-1.13,.09-1.64,.34v3.13h.67Zm-163.71-3.56c-.02-.32-.03-.58-.04-.85h-.64c-.02,.31-.03,.57-.04,.84-.13,.05-.25,.11-.32,.13-.19,.41,.13,.48,.34,.6,0,.61,0,1.18,0,1.76,.01,.9,.36,1.2,1.27,1.07,.18-.03,.36-.09,.58-.14-.07-.2-.13-.36-.18-.51-.22,.03-.41,.06-.6,.07-.26,.02-.39-.11-.4-.37,0-.64,0-1.29,0-1.95,.36-.02,.66-.03,1-.05-.01-.21-.02-.38-.03-.56-.32-.02-.61-.03-.94-.05h0Zm-26.41,2.87v-4.05h-.67v4.69c.45,0,.87,.01,1.29,0,.43-.02,.87,.07,1.29-.06v-.57h-1.91Zm44.46,.46c.45,.24,.91,.25,1.37,.19,.68-.08,1.05-.56,.94-1.19-.06-.33-.27-.54-.55-.69-.25-.13-.52-.25-.77-.39-.18-.1-.32-.28-.2-.47,.07-.12,.26-.23,.4-.24,.26-.02,.52,.04,.82,.08,.04-.15,.09-.31,.15-.55-.4-.04-.76-.11-1.11-.1-.51,.02-.89,.34-.97,.74-.09,.47,.08,.79,.58,1.07,.22,.12,.44,.23,.65,.36,.19,.11,.33,.28,.26,.52-.07,.24-.26,.32-.49,.3-.3-.02-.6-.06-.94-.1-.04,.15-.09,.3-.14,.46h0Zm138.5-.41c-.64,.24-1.25,.28-1.65-.34-.3-.47-.29-1,0-1.47,.42-.68,1.06-.43,1.68-.3,.06-.18,.11-.34,.15-.48-1.17-.56-2.26-.1-2.6,.69-.42,.96-.07,2.03,.8,2.47,.53,.26,1.58,.21,1.8-.13-.05-.11-.11-.25-.18-.43h0Zm-165.29-2.6v3.15h.67v-2.82c.37-.04,.71-.08,1.08-.12,.04-.16,.09-.33,.14-.52-.72-.13-1.34,.02-1.88,.31h0Zm16.97,3.15v-2.82c.37-.04,.7-.08,1.08-.12,.04-.15,.08-.32,.13-.51-.71-.12-1.3,.01-1.85,.3v3.16h.64Zm2.84-3.42v3.42h.61v-3.42h-.61Zm.73-1.18c-.02-.22-.25-.41-.48-.39-.21,.02-.38,.22-.37,.43,0,.24,.21,.4,.47,.37,.22-.02,.39-.21,.38-.41h0Z"/>
  <path class="cls-26" d="M335.25,115.84c-.07-.17-.14-.34-.22-.54,.39-.23,.77-.51,.91-.91-.51-1.23-1-2.4-1.51-3.63h.76c.32,.84,.66,1.7,1.04,2.69,.33-.99,.62-1.85,.91-2.7h.67c-.03,.13-.04,.22-.07,.31-.34,1.01-.7,2.02-1.03,3.03-.22,.67-.54,1.26-1.18,1.63-.03,.02-.02,.09-.03,.13h-.24Z"/>
  <path class="cls-10" d="M64.49,78.78s.08,0,.11,0v23.94h3.35c-.15,.04-.31,.1-.46,.1-1,.01-2,0-3,.01v-24.05h0Z"/>
  <path class="cls-21" d="M220.08,2.48s0,.09,0,.13c-.23,0-.46-.01-.69-.01h-15.41c-.23,0-.46,0-.69,.01,0-.04,0-.09-.01-.13h16.82Z"/>
  <path class="cls-19" d="M265.69,2.48s0,.09,0,.13c-5.5,0-11,0-16.51,0-.1,0-.19,.01-.29,.02,0-.05,0-.1-.02-.14h16.82Z"/>
  <path class="cls-21" d="M174.36,2.48s0,.09-.01,.14c-.23,0-.46-.02-.69-.02h-11.39c-1.57,0-3.14,0-4.72,0,0-.04,0-.09,0-.13h16.82Z"/>
  <path class="cls-29" d="M248.89,2.62c.1,0,.19-.02,.29-.02,5.5,0,11,0,16.51,0-.29,.81-.57,1.62-.88,2.43-5.61,14.84-11.22,29.67-16.84,44.51-1.57,4.16-3.15,8.32-4.72,12.47-.05,.12-.1,.25-.17,.4h-16.77c.05-.18,.1-.34,.16-.5,4.91-12.97,9.81-25.95,14.72-38.92,2.55-6.74,5.1-13.47,7.65-20.21,.02-.05,.03-.11,.05-.17h0Z"/>
  <path class="cls-30" d="M203.28,2.61c.23,0,.46-.01,.69-.01h15.41c.23,0,.46,0,.69,.01-.47,1.28-.93,2.55-1.41,3.83-6.99,18.48-13.98,36.95-20.97,55.43-.07,.18-.14,.36-.22,.56h-16.81c7.55-19.96,15.08-39.88,22.62-59.8h0Z"/>
  <path class="cls-30" d="M157.56,2.61c1.57,0,3.14,0,4.72,0h11.39c.23,0,.46,0,.69,.02-.59,1.58-1.17,3.16-1.77,4.74-6.47,17.1-12.94,34.19-19.4,51.29-.47,1.25-.95,2.51-1.43,3.78h-16.8c.07-.21,.13-.39,.19-.57,4.99-13.19,9.98-26.38,14.97-39.57,2.48-6.56,4.96-13.12,7.44-19.68Z"/>
  <path class="cls-13" d="M67.96,102.73h-3.35v-23.94c.69-.01,1.38-.03,2.07-.04,1.02,0,2.03,0,3.09,0,2.26,4.6,4.52,9.21,6.77,13.8,2.26-4.57,4.52-9.16,6.79-13.76h5.13v24.03h-3.38v-20.44s-.06,0-.09-.02c-2.53,5.01-5.06,10.02-7.6,15.06-.7,.04-1.27-.24-1.77-.67-.55-.47-.94-1.06-1.25-1.7-.58-1.16-1.16-2.33-1.73-3.5-1.36-2.74-2.72-5.49-4.07-8.23-.15-.3-.29-.61-.52-.93,0,.21-.02,.42-.02,.63,0,6.37,0,12.73,0,19.1,0,.21-.04,.41-.05,.62h0Z"/>
  <path class="cls-12" d="M321.64,102.62v-23.46c.61-.12,1.22-.27,1.83-.36,2.21-.3,4.43-.45,6.66-.25,2.42,.22,4.67,.89,6.61,2.41,1.85,1.44,3.08,3.32,3.63,5.59,.74,3.01,.63,6.02-.35,8.96-1.21,3.62-3.78,5.87-7.4,6.96-2.08,.63-4.22,.79-6.38,.64-1.34-.09-2.67-.25-4.01-.39-.19-.02-.37-.07-.6-.11h0Zm3.37-20.84v18.08c.11,.04,.19,.08,.28,.1,1.75,.29,3.51,.32,5.26,0,3.12-.58,5.24-2.34,6.15-5.42,.65-2.18,.75-4.42,.34-6.65-.61-3.33-2.72-5.47-6.02-6.16-1.67-.35-3.35-.31-5.04-.11-.32,.04-.64,.11-.99,.17h0Z"/>
  <path class="cls-11" d="M246.65,96.26c-.84,2.19-1.67,4.32-2.49,6.46h-4.63c3.61-7.98,7.2-15.93,10.79-23.88h3.3c3.12,7.92,6.25,15.87,9.39,23.87h-3.76c-.84-2.14-1.68-4.29-2.53-6.45h-10.08Zm5.12-13.06c-1.31,3.43-2.58,6.73-3.85,10.05h7.69c-1.28-3.35-2.54-6.65-3.84-10.05h0Z"/>
  <path class="cls-11" d="M123.6,85.72v-8.64c.44-.12,2.57-.14,3.21-.03v.61c0,7.12,0,14.23,0,21.35,0,.97,.08,1.95,.13,2.99-.07,.04-.2,.11-.33,.16-2.09,.76-4.26,1.12-6.48,1.01-4.96-.24-8.01-3.92-8.44-7.79-.22-2.02-.08-3.99,.73-5.86,1.09-2.54,2.98-4.15,5.74-4.6,1.72-.28,3.4-.12,5.01,.6,.12,.05,.24,.11,.44,.19h0Zm0,2.91c-1-.73-2.19-1.06-3.5-1.02-1.93,.05-3.35,.94-4.15,2.67-1.15,2.47-1.11,4.97,.13,7.41,.54,1.07,1.39,1.88,2.53,2.32,1.68,.65,3.34,.44,5-.11v-11.27h0Z"/>
  <path class="cls-16" d="M145.54,79.48c-.35,.96-.68,1.85-1.02,2.79-.25-.08-.46-.14-.68-.2-1.62-.52-3.28-.81-4.99-.63-.58,.06-1.17,.21-1.72,.42-1.73,.68-2.25,3.13-1.01,4.5,.64,.71,1.43,1.21,2.27,1.64,1.57,.81,3.14,1.6,4.69,2.44,.53,.29,1.03,.67,1.48,1.07,2.82,2.56,2.81,7.72-.75,10.06-.99,.65-2.05,1.14-3.21,1.36-2.98,.56-5.88,.18-8.71-.84-.05-.02-.09-.06-.18-.12,.27-.92,.54-1.85,.82-2.81,.63,.18,1.21,.36,1.79,.51,1.32,.35,2.67,.55,4.04,.52,.87-.02,1.71-.18,2.51-.53,2.29-1,2.67-3.72,1.11-5.34-.59-.62-1.28-1.09-2.03-1.49-1.66-.88-3.35-1.7-4.98-2.64-3.93-2.27-3.77-7.05-1.85-9.24,1.05-1.2,2.4-1.9,3.92-2.26,2.1-.5,4.19-.35,6.27,.17,.72,.18,1.43,.41,2.21,.63h0Z"/>
  <path class="cls-11" d="M96.57,95.1c.04,2.84,1.95,4.97,4.55,5.24,1.64,.17,3.2-.11,4.74-.63,.07-.03,.14-.06,.21-.08,.02,0,.04,0,.13,0,.31,.75,.64,1.54,.97,2.35-.69,.38-1.4,.6-2.12,.78-1.92,.49-3.86,.63-5.79,.13-2.91-.76-4.78-2.69-5.69-5.49-.87-2.65-.75-5.34,.31-7.93,.83-2.04,2.21-3.61,4.38-4.26,2.57-.77,5.05-.57,7.25,1.11,1.57,1.19,2.39,2.86,2.73,4.77,.23,1.31,.22,2.63-.01,4.01h-11.65Zm-.04-2.64h8.48c0-.12,0-.21,0-.3-.03-.29-.06-.57-.11-.86-.34-2.12-1.65-3.49-3.63-3.72-1.4-.16-2.61,.26-3.53,1.39-.82,1.01-1.14,2.19-1.21,3.49h0Z"/>
  <path class="cls-16" d="M169.83,88.72c-.37-.84-.72-1.63-1.08-2.44,.16-.09,.29-.17,.42-.23,2.14-.95,4.39-1.37,6.73-1.14,.7,.07,1.41,.22,2.07,.46,1.8,.63,2.78,1.97,3.05,3.83,.08,.51,.1,1.03,.1,1.55,0,2.24,0,4.49,0,6.73,0,1.45-.07,2.91,.25,4.39-.18,.07-.33,.14-.49,.19-1.72,.53-3.48,.95-5.28,1.1-1.69,.14-3.38,.07-5-.51-.48-.17-.95-.41-1.4-.67-3.09-1.77-2.84-6.57,.14-8.18,1.18-.64,2.44-1,3.73-1.29,.99-.22,1.98-.44,2.97-.68,.28-.07,.54-.18,.8-.32,.61-.32,1.05-.78,1.06-1.52,0-.81-.3-1.45-1.02-1.87-.49-.28-1.03-.4-1.59-.46-1.6-.15-3.13,.19-4.61,.74-.27,.1-.53,.21-.86,.33h0Zm8.11,11.14v-6.13c-.47,.18-.87,.36-1.28,.48-.88,.25-1.78,.46-2.67,.69-.8,.2-1.6,.4-2.31,.85-.86,.54-1.22,1.35-1.12,2.35,.1,.97,.63,1.62,1.53,1.97,.19,.08,.4,.15,.6,.19,1.79,.35,3.54,.14,5.24-.4h0Z"/>
  <path class="cls-16" d="M201.06,102.78h-3.17c0-.2-.03-.4-.03-.6,0-3.56,0-7.13,0-10.7,0-.36-.02-.73-.09-1.09-.32-1.67-1.36-2.6-3.06-2.76-1.7-.16-3.32,.18-4.91,.85v14.28h-3.12c0-.21-.03-.43-.03-.66,0-3.99,0-7.97,0-11.96,0-.95-.11-1.91-.17-2.86-.01-.21-.03-.42-.05-.64,.14-.06,.25-.12,.38-.17,1.85-.69,3.73-1.3,5.7-1.53,1.69-.2,3.37-.16,5,.41,2.07,.72,3.21,2.21,3.47,4.37,.06,.53,.09,1.07,.09,1.6,0,3.58,0,7.17,0,10.75v.7h0Z"/>
  <path class="cls-25" d="M312.79,99.48v-14.2h3.12c0,.19,.03,.39,.03,.6,0,4.01,0,8.02,0,12.02,0,.94,.11,1.87,.17,2.81,.01,.21,.03,.42,.05,.69-.93,.31-1.84,.64-2.77,.92-1.62,.49-3.26,.86-4.96,.84-1.13-.01-2.25-.14-3.33-.52-2.15-.76-3.25-2.33-3.48-4.54-.03-.31-.04-.61-.04-.92v-11.88h3.17v.64c0,3.38,0,6.75,0,10.13,0,.44,.03,.88,.08,1.32,.18,1.62,1.1,2.65,2.7,2.91,1.83,.3,3.57-.09,5.25-.8h0Z"/>
  <path class="cls-12" d="M353.87,94.02c2.08,2.88,4.16,5.75,6.29,8.69-.21,.02-.34,.03-.46,.03-1,0-2-.01-2.99,0-.35,0-.55-.12-.74-.4-1.29-1.91-2.59-3.81-3.89-5.71-.11-.17-.24-.33-.39-.54-.15,.21-.27,.36-.37,.51-1.3,1.9-2.61,3.79-3.91,5.69-.21,.32-.44,.47-.84,.46-1.03-.03-2.07,0-3.22,0,.43-.68,.87-1.25,1.28-1.84,.43-.61,.87-1.22,1.3-1.83,.42-.6,.84-1.19,1.27-1.78,.43-.61,.87-1.22,1.3-1.83,.42-.59,.84-1.18,1.28-1.79-2.02-2.78-4.03-5.53-6.09-8.35,.27-.02,.44-.04,.6-.04,.9,0,1.8,.02,2.7,0,.39,0,.63,.11,.85,.44,1.22,1.79,2.47,3.56,3.71,5.34,.11,.16,.22,.31,.37,.51,.13-.18,.25-.33,.35-.48,1.18-1.77,2.36-3.54,3.52-5.33,.22-.34,.47-.49,.88-.47,.86,.03,1.73,0,2.59,0h.58c-2.03,2.97-3.99,5.84-5.98,8.74h0Z"/>
  <path class="cls-11" d="M285.21,99.76c.28,.86,.55,1.69,.84,2.57-.13,.05-.26,.12-.39,.17-1.11,.38-2.24,.65-3.41,.74-.95,.07-1.88,0-2.78-.32-1.46-.5-2.27-1.57-2.49-3.08-.07-.49-.1-.99-.1-1.49,0-3.22,0-6.44,0-9.66v-.66c-.66-.04-1.29-.07-1.94-.11v-2.53c.63-.03,1.26-.06,1.93-.1v-4.72c.46-.12,2.41-.15,3.21-.05v4.7c.58,0,1.13,.01,1.67,.01h3.37v2.76h-5.02v10.39c0,.15,0,.31,0,.46,.07,.81,.49,1.28,1.29,1.48,.88,.22,1.71,0,2.55-.19,.42-.1,.83-.25,1.29-.38h0Z"/>
  <path class="cls-16" d="M164.15,85.98c-.31,.85-.61,1.67-.93,2.54-.18-.06-.34-.1-.49-.15-1.46-.51-2.94-.88-4.51-.73-1.26,.12-2.32,.63-3.16,1.58-.52,.58-.91,1.23-1.16,1.97-.57,1.66-.63,3.35-.13,5.03,.66,2.23,2.85,4.73,6.57,4.12,.96-.16,1.9-.43,2.93-.67,.27,.73,.57,1.53,.86,2.29-.05,.08-.06,.12-.09,.14-2.82,1.22-5.72,1.51-8.61,.38-3.04-1.19-4.85-3.47-5.37-6.71-.29-1.82-.18-3.63,.45-5.39,1.16-3.24,4.01-5.33,7.44-5.51,2-.1,3.94,.21,5.8,.93,.12,.05,.24,.11,.4,.18h0Z"/>
  <path class="cls-22" d="M271.77,100.19c.24,.79,.47,1.57,.72,2.37-.45,.26-.94,.32-1.42,.43-.81,.18-1.63,.22-2.45,.06-1.37-.26-2.21-1.24-2.34-2.74-.02-.21-.02-.42-.02-.63v-22.58h3.18c0,.2,.02,.42,.02,.65v20.87c0,.29,0,.58,.02,.86,.06,.61,.42,.95,1.02,.92,.39-.02,.79-.13,1.26-.22h0Z"/>
  <path class="cls-9" d="M287.31,57.42c.64,1.68,1.26,3.32,1.92,5.04-5.65,.07-11.22,.13-16.84,.2-.66-1.74-1.31-3.47-1.99-5.24h16.91Z"/>
  <path class="cls-9" d="M269.63,55.41c-.62-1.65-1.24-3.27-1.85-4.87,.03-.05,.03-.07,.04-.09,0-.01,.03-.03,.04-.03,5.46,0,10.93-.02,16.39-.03,.11,0,.23,.02,.38,.03,.63,1.64,1.25,3.28,1.88,4.92-.42,.13-15.86,.18-16.89,.06h0Z"/>
  <path class="cls-9" d="M282.04,43.59c.61,1.61,1.22,3.2,1.82,4.79-.42,.13-16,.17-16.88,.05-.6-1.58-1.21-3.19-1.83-4.84h16.89Z"/>
  <path class="cls-9" d="M259.96,29.91h16.87c.61,1.61,1.22,3.21,1.86,4.87h-16.88c-.6-1.58-1.21-3.19-1.85-4.87h0Z"/>
  <path class="cls-16" d="M231.19,29.92c.43,1.13,.86,2.24,1.27,3.35,.05,.13,.06,.31,.02,.44-.11,.36-.27,.71-.41,1.08h-15.88c-.61-1.61-1.22-3.21-1.85-4.87,0,0,16.85,0,16.85,0Z"/>
  <path class="cls-16" d="M168.61,29.91h16.84c.12,.32,.25,.63,.37,.95,.28,.73,.55,1.47,.84,2.2,.13,.32,.15,.62,0,.93-.12,.26-.22,.53-.32,.8h-15.88c-.61-1.61-1.22-3.21-1.85-4.88h0Z"/>
  <path class="cls-29" d="M264.39,41.6c-.6-1.59-1.21-3.18-1.83-4.81h16.88c.6,1.59,1.21,3.18,1.83,4.81h-16.89Z"/>
  <path class="cls-22" d="M289.03,86.7c3.18-1.3,6.32-2.35,9.83-1.51-.32,.94-.63,1.85-.95,2.8-1.84-.39-3.62-.25-5.4,.38v14.35h-3.19v-11.68c0-1.44,.06-2.88-.3-4.34h0Z"/>
  <path class="cls-29" d="M260.7,27.86c.6-1.58,1.19-3.15,1.79-4.75h11.74c.6,1.56,1.2,3.14,1.81,4.74-.45,.13-14.72,.15-15.34,.02h0Z"/>
  <path class="cls-17" d="M215.06,27.92c.62-1.64,1.22-3.23,1.82-4.82h11.71c.6,1.58,1.21,3.19,1.83,4.82,0,0-15.37,0-15.37,0Z"/>
  <path class="cls-17" d="M169.34,27.92c.62-1.64,1.22-3.22,1.82-4.82h11.72c.6,1.59,1.21,3.18,1.83,4.82h-15.36Z"/>
  <path class="cls-30" d="M231.32,36.78c-.61,1.63-1.21,3.21-1.82,4.82h-10.72c-.6-1.6-1.21-3.19-1.83-4.82h14.37Z"/>
  <path class="cls-30" d="M185.59,36.78c-.61,1.63-1.21,3.21-1.82,4.82h-10.72c-.6-1.6-1.21-3.18-1.83-4.82h14.37Z"/>
  <path class="cls-12" d="M263.27,21.07c.62-1.64,1.23-3.26,1.85-4.89h6.48c.61,1.6,1.23,3.22,1.85,4.85-.46,.12-9.42,.15-10.17,.04h0Z"/>
  <path class="cls-6" d="M171.91,21.1c.64-1.68,1.25-3.3,1.86-4.92h6.47c.62,1.63,1.23,3.25,1.87,4.92h-10.2Z"/>
  <path class="cls-6" d="M217.64,21.1c.64-1.68,1.25-3.3,1.86-4.92h6.47c.62,1.62,1.23,3.25,1.87,4.92h-10.2Z"/>
  <path class="cls-23" d="M228.75,43.6c-.62,1.64-1.23,3.24-1.84,4.86h-5.53c-.6-1.6-1.21-3.2-1.84-4.86h9.21Z"/>
  <path class="cls-23" d="M183.02,43.61c-.62,1.65-1.22,3.23-1.83,4.85h-5.53c-.6-1.57-1.21-3.18-1.82-4.78,.49-.13,7.85-.18,9.18-.07h0Z"/>
  <path class="cls-3" d="M179.47,14.19h-4.88c.04-.15,.05-.29,.1-.42,.65-1.74,1.31-3.48,1.97-5.21,.02-.05,.03-.12,.06-.16,.09-.08,.2-.2,.29-.2s.24,.12,.28,.22c.21,.51,.4,1.03,.6,1.55,.46,1.2,.91,2.4,1.36,3.6,.07,.19,.13,.39,.22,.62h0Z"/>
  <path class="cls-3" d="M225.18,14.19h-4.89c.04-.17,.07-.31,.12-.45,.65-1.72,1.3-3.44,1.95-5.16,.04-.09,.06-.18,.11-.26,.13-.2,.38-.2,.51,0,.04,.06,.06,.14,.09,.21,.67,1.77,1.35,3.54,2.02,5.31,.03,.09,.05,.18,.09,.34h0Z"/>
  <path class="cls-9" d="M270.81,14.19h-4.89c.04-.17,.07-.31,.12-.45,.65-1.72,1.3-3.44,1.95-5.16,.04-.09,.06-.18,.11-.26,.13-.2,.38-.21,.51,0,.05,.08,.07,.18,.11,.26,.65,1.7,1.3,3.4,1.94,5.1,.05,.14,.09,.29,.16,.51h0Z"/>
  <path class="cls-28" d="M272.54,114.14c-.18,0-.31,.02-.44,.02-.07,0-.14-.03-.27-.05v-3.54s-.08-.02-.11-.03c-.44,.85-.87,1.71-1.3,2.54-.41,.02-.54-.25-.67-.51-.28-.54-.54-1.09-.81-1.64-.05-.11-.12-.22-.23-.32-.17,.58-.09,1.16-.11,1.73-.02,.59,0,1.18,0,1.78h-.68v-4.63h1.03c.41,.82,.83,1.67,1.28,2.58,.45-.9,.87-1.74,1.29-2.58h1.02v4.64h0Z"/>
  <path class="cls-7" d="M176.4,50.42h4.04c-.66,1.76-1.31,3.48-2.01,5.34-.7-1.85-1.36-3.57-2.03-5.34Z"/>
  <path class="cls-7" d="M224.15,55.76c-.7-1.85-1.36-3.57-2.03-5.34h4.04c-.67,1.76-1.31,3.48-2.02,5.34Z"/>
  <path class="cls-28" d="M316.94,111.44v2.7h-.65v-1.55c0-.23,0-.46,0-.69-.04-.52-.27-.71-.79-.66-.17,.02-.33,.08-.52,.13v2.75h-.67v-3.14c.69-.28,1.42-.51,2.21-.15,.11,.05,.28,0,.42-.02,.3-.04,.6-.14,.9-.14,.69,0,1.07,.35,1.12,1.03,.03,.36,0,.73,0,1.09v1.33c-.21,.01-.4,.03-.66,.04v-1.92c0-1.01-.38-1.24-1.36-.81h0Z"/>
  <path class="cls-20" d="M261.13,109.49h.68c.6,1.52,1.2,3.06,1.83,4.64h-.77c-.16-.39-.33-.81-.51-1.23h-1.89c-.16,.4-.32,.8-.5,1.23h-.74c.63-1.55,1.25-3.08,1.89-4.64h0Zm1.01,2.76c-.23-.59-.44-1.15-.7-1.84-.27,.69-.48,1.25-.71,1.84h1.41Z"/>
  <path class="cls-20" d="M281.83,114.01c-.59,.23-1.21,.33-1.83,.11-.63-.23-1-.69-1.09-1.35-.1-.7,0-1.36,.6-1.81,.23-.17,.55-.24,.85-.28,.25-.04,.52,.03,.83,.05v-1.55h.65v4.83h0Zm-.65-2.57c-.8-.44-1.48-.1-1.56,.77-.02,.17-.02,.34,0,.51,.12,.78,.77,1.11,1.55,.79v-2.08h0Z"/>
  <path class="cls-28" d="M320.92,110.91c.51-.26,1.06-.29,1.62-.22,.2,.02,.41,.11,.58,.23,.73,.47,.88,1.26,.69,2.08-.18,.77-.85,1.25-1.65,1.24-.17,0-.34-.02-.56-.03v1.46h-.67v-4.76Zm.67,2.61c.55,.24,1.02,.17,1.31-.2,.32-.39,.33-1.24,.03-1.68-.28-.41-.71-.5-1.34-.26v2.14h0Z"/>
  <path class="cls-27" d="M115.76,109.06h.64v1.56c.32-.02,.6-.09,.87-.05,.29,.04,.61,.13,.84,.3,.59,.46,.7,1.12,.59,1.82-.11,.7-.52,1.21-1.22,1.38-.56,.14-1.14,.09-1.72-.14v-4.87h0Zm.66,2.26c.01,.75-.02,1.47,.02,2.16,1.07,.27,1.51-.33,1.54-1.02,0-.11,0-.23,0-.34-.09-.87-.69-1.19-1.55-.8Z"/>
  <path class="cls-26" d="M283.6,113.98c.06-.2,.11-.36,.16-.54,.3,.05,.58,.12,.86,.14,.21,.02,.42,0,.62-.04,.24-.04,.42-.18,.49-.43,.07-.26,0-.5-.22-.67-.14-.11-.28-.2-.43-.28-.27-.15-.54-.28-.81-.43-.48-.28-.68-.7-.63-1.25,.05-.53,.39-.81,.85-.97,.55-.2,1.13-.15,1.81,.16-.06,.17-.13,.33-.18,.46-.42-.03-.8-.06-1.17-.07-.3,0-.52,.16-.57,.46-.05,.28,.11,.47,.34,.61,.32,.18,.64,.34,.96,.52,.64,.34,.93,.83,.84,1.43-.09,.58-.59,1.05-1.28,1.14-.53,.07-1.07,.03-1.63-.23h0Z"/>
  <path class="cls-18" d="M307.73,113.45c.07,.15,.13,.3,.2,.45-.83,.6-2.23,.38-2.88-.36-.79-.9-.86-2.36-.15-3.3,.59-.77,1.94-1.17,3.1-.46-.06,.14-.12,.29-.19,.44-1.99-.51-2.91,.24-2.54,2.25,.19,1.02,1.07,1.31,2.46,.98h0Z"/>
  <path class="cls-26" d="M129.08,111.27c-.06-.12-.12-.27-.19-.43,.48-.31,1-.34,1.51-.28,.6,.06,.91,.42,.92,1.04,.02,.74,0,1.49,0,2.27-.57,.29-1.21,.31-1.86,.22-.53-.07-.88-.45-.92-.88-.05-.5,.2-.87,.77-1.06,.31-.11,.63-.15,.94-.24,.2-.06,.42-.14,.38-.42-.04-.25-.23-.37-.45-.36-.36,.02-.71,.09-1.1,.14h0Zm1.55,1.08c-.4,.11-.74,.19-1.05,.31-.22,.08-.35,.28-.26,.5,.06,.15,.23,.34,.37,.36,.31,.06,.64,.1,.95-.08v-1.09h0Z"/>
  <path class="cls-18" d="M150.18,113.44c.06,.14,.12,.29,.18,.43-1.29,.63-2.43,.08-2.66-.88-.1-.43-.1-.92,0-1.36,.17-.76,.75-1.12,1.54-1.09,.69,.03,1.18,.46,1.33,1.2,.05,.24,.04,.49,.05,.8-.78,.08-1.52,0-2.25,.05-.03,.77,.58,1.15,1.8,.84h0Zm-1.84-1.43h1.55c-.11-.66-.31-.89-.77-.89-.45,0-.68,.26-.78,.89Z"/>
  <path class="cls-27" d="M138.22,114.13c-1.02,0-1.67-.68-1.67-1.77,0-1.08,.65-1.8,1.64-1.81,1.02,0,1.73,.74,1.72,1.8,0,1.05-.69,1.77-1.69,1.77h0Zm-1-1.85c.07,.29,.11,.54,.2,.76,.15,.34,.42,.53,.81,.52s.66-.2,.79-.55c.18-.48,.2-.98-.05-1.44-.32-.59-1.1-.62-1.46-.05-.15,.23-.2,.52-.29,.76h0Z"/>
  <path class="cls-27" d="M310.87,110.66c.84-.09,1.7,.66,1.68,1.77-.01,1.07-.67,1.79-1.66,1.8-1,0-1.67-.72-1.68-1.78,0-1.08,.65-1.79,1.66-1.79h0Zm.99,1.8c-.06-.25-.09-.47-.18-.68-.14-.34-.39-.54-.79-.55-.39,0-.65,.19-.81,.52-.22,.48-.22,.96,.03,1.43,.16,.31,.42,.48,.78,.47,.36,0,.62-.18,.76-.5,.1-.22,.14-.47,.2-.69h0Z"/>
  <path class="cls-20" d="M123.59,112.33c0,1.18-.77,1.89-1.94,1.79-.06,0-.11,0-.17-.02-.8-.17-1.3-.97-1.24-1.95,.06-.87,.66-1.53,1.44-1.6,1.12-.1,1.9,.63,1.9,1.78h0Zm-.68,.03c-.07-.26-.12-.53-.23-.77-.13-.3-.39-.46-.73-.47-.36-.01-.63,.14-.8,.46-.27,.51-.27,1.03,0,1.54,.17,.31,.44,.46,.81,.45,.35-.01,.59-.18,.73-.47,.1-.22,.15-.47,.22-.72h0Z"/>
  <path class="cls-26" d="M328.2,113.97c-.58,.23-1.14,.32-1.72,.25-.67-.08-1.04-.46-1.06-1-.01-.44,.19-.74,.58-.9,.28-.11,.59-.18,.88-.25,.11-.03,.25-.03,.33-.09,.12-.1,.29-.25,.28-.36-.02-.13-.19-.31-.32-.33-.24-.05-.49,0-.74,.02-.15,.02-.29,.08-.46,.13-.07-.17-.14-.32-.2-.47,.5-.32,1.02-.33,1.53-.28,.49,.05,.81,.35,.87,.85,.05,.44,.04,.88,.04,1.32,0,.36,0,.73,0,1.12h0Zm-.69-1.51c-.39,.11-.72,.18-1.04,.29-.22,.07-.34,.24-.32,.48,.02,.26,.21,.37,.42,.4,.32,.05,.64,.08,.94-.13v-1.05h0Z"/>
  <path class="cls-20" d="M275.11,112.66c.1,.91,.54,1.12,1.79,.88,.06,.13,.13,.27,.2,.41-.88,.47-1.8,.35-2.34-.27-.56-.66-.57-1.83-.03-2.51,.39-.5,.94-.59,1.51-.48,.58,.11,.93,.53,1.06,1.09,.06,.27,0,.56,0,.88h-2.19Zm1.51-.53c-.07-.66-.3-.91-.77-.9-.46,0-.68,.27-.74,.9h1.52Z"/>
  <path class="cls-27" d="M330.8,114.15h-.64v-3.14c.54-.31,1.19-.41,1.86-.33,.58,.07,.92,.45,.94,1.05,.02,.78,0,1.57,0,2.39h-.66c0-.61-.04-1.22,0-1.82,.06-.88-.24-1.3-1.38-.94-.04,0-.06,.04-.13,.08v2.71Z"/>
  <path class="cls-26" d="M295.18,113.98c-.53,.21-1.08,.31-1.64,.25-.45-.05-.87-.19-1.06-.66-.19-.46,0-.98,.47-1.21,.27-.13,.58-.19,.87-.28,.13-.04,.26-.05,.39-.1,.18-.05,.31-.15,.29-.37-.02-.23-.18-.34-.39-.35-.23-.02-.46,.01-.68,.04-.15,.02-.29,.08-.46,.13-.07-.17-.14-.32-.21-.47,.49-.31,1.01-.33,1.52-.28,.57,.06,.88,.41,.9,1.01,.02,.74,0,1.49,0,2.29h0Zm-.69-.38v-1.15c-.36,.1-.69,.18-1.01,.28-.23,.07-.35,.25-.33,.48,.02,.24,.2,.39,.42,.41,.3,.03,.6-.01,.92-.03h0Z"/>
  <path class="cls-27" d="M111.33,110.85c.51-.32,1.04-.35,1.58-.28,.56,.08,.86,.45,.87,1.04,.01,.74,0,1.49,0,2.26-.61,.29-1.25,.32-1.9,.22-.54-.09-.85-.46-.87-.92-.02-.53,.18-.82,.74-1.02,.31-.11,.63-.15,.94-.24,.2-.06,.43-.13,.4-.41-.04-.28-.25-.39-.5-.37-.34,.02-.67,.09-1.05,.15-.06-.12-.13-.27-.21-.43h0Zm1.74,2.67v-1.16c-.37,.11-.71,.18-1.03,.29-.21,.08-.35,.25-.31,.49,.04,.24,.2,.38,.43,.39,.3,.02,.6,0,.91-.02h0Z"/>
  <path class="cls-27" d="M297.82,114.14h-.67v-3.13c.51-.25,1.06-.37,1.64-.34,.77,.04,1.16,.41,1.19,1.18,.03,.74,0,1.49,0,2.28h-.68v-1.76c0-.17,.01-.35,0-.52-.04-.38-.25-.6-.64-.6-.28,0-.55,.06-.85,.1v2.79h0Z"/>
  <path class="cls-5" d="M134.1,110.58c.33,.02,.62,.03,.94,.05,0,.18,.02,.34,.03,.56-.33,.02-.63,.03-1,.05v1.95c0,.25,.13,.39,.4,.37,.19-.02,.37-.04,.6-.07,.05,.15,.11,.31,.18,.51-.22,.05-.4,.12-.58,.14-.91,.12-1.26-.17-1.27-1.07,0-.58,0-1.15,0-1.76-.21-.12-.53-.19-.34-.6,.07-.03,.19-.08,.32-.13,.01-.27,.03-.53,.04-.84h.64c.01,.27,.03,.53,.04,.85h0Z"/>
  <path class="cls-18" d="M107.69,113.45h1.91v.57c-.42,.13-.86,.04-1.29,.06-.42,.02-.84,0-1.29,0v-4.69h.67v4.05h0Z"/>
  <path class="cls-26" d="M152.15,113.92c.05-.16,.1-.31,.14-.46,.34,.04,.64,.08,.94,.1,.23,.02,.43-.06,.49-.3,.07-.24-.07-.4-.26-.52-.21-.13-.44-.24-.65-.36-.5-.28-.67-.59-.58-1.07,.08-.4,.46-.73,.97-.74,.35-.01,.71,.06,1.11,.1-.07,.25-.11,.4-.15,.55-.3-.03-.56-.09-.82-.08-.14,0-.33,.12-.4,.24-.11,.19,.02,.37,.2,.47,.25,.14,.51,.26,.77,.39,.29,.15,.49,.36,.55,.69,.11,.62-.25,1.11-.94,1.19-.46,.05-.92,.05-1.37-.19h0Z"/>
  <path class="cls-26" d="M290.65,113.5c.07,.18,.13,.31,.18,.43-.22,.34-1.27,.4-1.8,.13-.87-.43-1.22-1.51-.8-2.47,.34-.79,1.44-1.25,2.6-.69-.04,.15-.09,.3-.15,.48-.62-.13-1.26-.38-1.68,.3-.29,.47-.3,1,0,1.47,.4,.63,1.01,.59,1.65,.34h0Z"/>
  <path class="cls-5" d="M125.36,110.9c.55-.29,1.16-.43,1.88-.31-.05,.19-.1,.36-.14,.52-.37,.04-.7,.08-1.08,.12v2.82h-.67v-3.15h0Z"/>
  <path class="cls-26" d="M142.33,114.05h-.64v-3.16c.55-.28,1.15-.42,1.85-.3-.05,.19-.09,.37-.13,.51-.38,.04-.71,.08-1.08,.12v2.82h0Z"/>
  <path class="cls-5" d="M145.17,110.64h.61v3.42h-.61v-3.42Z"/>
  <path class="cls-5" d="M145.9,109.45c.02,.2-.16,.39-.38,.41-.25,.03-.46-.13-.47-.37,0-.2,.17-.4,.37-.43,.22-.03,.46,.17,.48,.39h0Z"/>
  <path class="cls-2" d="M325.02,81.77c.35-.06,.67-.13,.99-.17,1.68-.2,3.37-.25,5.04,.11,3.3,.7,5.41,2.84,6.02,6.16,.41,2.24,.31,4.47-.34,6.65-.91,3.08-3.03,4.84-6.15,5.42-1.75,.32-3.51,.29-5.26,0-.09-.02-.18-.06-.28-.1v-18.08h0Z"/>
  <path class="cls-15" d="M251.77,83.2c1.3,3.4,2.56,6.7,3.84,10.05h-7.69c1.27-3.32,2.54-6.62,3.85-10.05Z"/>
  <path class="cls-14" d="M123.6,88.63v11.27c-1.66,.56-3.32,.76-5,.11-1.14-.44-1.98-1.25-2.53-2.32-1.24-2.44-1.28-4.94-.13-7.41,.8-1.73,2.22-2.62,4.15-2.67,1.31-.04,2.5,.29,3.5,1.02h0Z"/>
  <path class="cls-15" d="M96.54,92.46c.07-1.3,.39-2.48,1.21-3.49,.91-1.13,2.13-1.55,3.53-1.39,1.99,.23,3.29,1.6,3.63,3.72,.04,.28,.07,.57,.11,.86,0,.09,0,.18,0,.3h-8.48Z"/>
  <path class="cls-14" d="M177.95,99.86c-1.71,.54-3.45,.75-5.24,.4-.2-.04-.41-.11-.6-.19-.9-.35-1.43-1-1.53-1.97-.1-1,.26-1.8,1.12-2.35,.71-.45,1.51-.64,2.31-.85,.89-.23,1.78-.44,2.67-.69,.42-.12,.81-.3,1.28-.48v6.13h0Z"/>
  <path class="cls-24" d="M262.14,112.26h-1.41c.23-.59,.44-1.15,.71-1.84,.26,.69,.48,1.25,.7,1.84Z"/>
  <path class="cls-24" d="M281.18,111.44v2.08c-.78,.32-1.43-.01-1.55-.79-.03-.17-.03-.34,0-.51,.08-.87,.76-1.22,1.56-.77h0Z"/>
  <path class="cls-24" d="M321.59,113.52v-2.14c.63-.24,1.06-.15,1.34,.26,.3,.44,.29,1.29-.03,1.68-.3,.37-.76,.44-1.31,.2h0Z"/>
  <path class="cls-15" d="M116.42,111.32c.86-.39,1.46-.07,1.55,.8,.01,.11,.01,.23,0,.34-.04,.69-.47,1.3-1.54,1.02-.03-.69,0-1.42-.02-2.16Z"/>
  <path class="cls-4" d="M130.63,112.35v1.09c-.31,.18-.64,.14-.95,.08-.15-.03-.32-.21-.37-.36-.08-.22,.04-.42,.26-.5,.32-.11,.65-.19,1.05-.31h0Z"/>
  <path class="cls-8" d="M148.34,112.02c.1-.64,.33-.89,.78-.89s.67,.23,.77,.89h-1.55Z"/>
  <path class="cls-8" d="M137.23,112.27c.09-.24,.14-.53,.29-.76,.36-.56,1.14-.53,1.46,.05,.25,.46,.24,.96,.05,1.44-.13,.35-.39,.54-.79,.55-.4,0-.67-.18-.81-.52-.1-.22-.13-.47-.2-.76h0Z"/>
  <path class="cls-8" d="M311.87,112.47c-.06,.23-.11,.47-.2,.69-.14,.32-.4,.49-.76,.5-.36,0-.62-.17-.78-.47-.25-.47-.25-.95-.03-1.43,.16-.34,.41-.53,.81-.52s.65,.2,.79,.55c.09,.21,.11,.44,.18,.68h0Z"/>
  <path class="cls-8" d="M122.9,112.37c-.08,.25-.12,.5-.22,.72-.14,.29-.38,.46-.73,.47-.37,.01-.64-.13-.81-.45-.27-.51-.27-1.03,0-1.54,.17-.31,.44-.47,.8-.46,.34,.01,.59,.18,.73,.47,.11,.24,.15,.51,.23,.77h0Z"/>
  <path class="cls-24" d="M327.51,112.45v1.05c-.3,.21-.63,.18-.94,.13-.21-.04-.39-.15-.42-.4-.02-.25,.11-.41,.32-.48,.32-.11,.66-.18,1.04-.29h0Z"/>
  <path class="cls-24" d="M276.62,112.13h-1.52c.06-.63,.28-.89,.74-.9,.48,0,.7,.24,.77,.9Z"/>
  <path class="cls-4" d="M294.48,113.61c-.32,.01-.62,.05-.92,.03-.22-.02-.4-.17-.42-.41-.02-.23,.1-.41,.33-.48,.32-.1,.65-.18,1.01-.28v1.15h0Z"/>
  <path class="cls-4" d="M113.07,113.52c-.32,0-.61,.03-.91,.02-.23-.01-.39-.16-.43-.39-.04-.24,.1-.42,.31-.49,.32-.11,.66-.19,1.03-.29v1.16h0Z"/>
</svg>