<?xml version="1.0" encoding="UTF-8"?>
<svg id="Layer_1" data-name="Layer 1" xmlns="http://www.w3.org/2000/svg" viewBox="0 0 421.2 117">
  <defs>
    <style>
      .cls-1 {
        fill: #0e7dc2;
      }

      .cls-2 {
        fill: #fff;
      }

      .cls-3 {
        fill: #0080c4;
      }

      .cls-4 {
        fill: none;
        stroke: #e90b8d;
        stroke-miterlimit: 10;
        stroke-width: .84px;
      }

      .cls-5 {
        fill: #1c4584;
      }

      .cls-6 {
        fill: #e90b8d;
      }
    </style>
  </defs>
  <rect class="cls-2" x="0" width="421.2" height="117"/>
  <g>
    <polygon class="cls-5" points="24.88 70.44 32.25 32.5 44.38 59.87 56.92 32.5 63.56 70.44 58.15 70.44 54.71 49.13 44.3 72 34.14 49.13 30.37 70.44 24.88 70.44"/>
    <rect class="cls-5" x="73.8" y="35.2" width="5.33" height="35.24"/>
    <path class="cls-5" d="M95.76,51.34h1.72c5,0,7.54-1.97,7.54-5.74s-2.46-5.41-7.38-5.41h-1.88v11.15Zm6.64,4.02l10.9,15h-6.47l-10.16-14.34h-.98v14.42h-5.33V35.2h6.23c4.67,0,8.03,.9,10.08,2.62,2.29,1.97,3.44,4.51,3.44,7.7,0,2.46-.74,4.67-2.13,6.39-1.39,1.8-3.28,2.95-5.57,3.44"/>
    <path class="cls-5" d="M139.94,56.84l-5.24-11.97-5.49,11.97h10.74Zm2.13,5h-15.08l-3.93,8.52h-5.74l17.46-37.45,16.8,37.45h-5.82l-3.69-8.52Z"/>
    <path class="cls-3" d="M234.26,40.2c-1.64-2.54-3.61-4.43-6.06-5.74-2.38-1.31-5.08-1.97-8.11-1.97-5,0-9.1,1.72-12.21,5.08-3.11,3.36-4.75,7.79-4.75,13.11,0,2.38,.41,4.67,1.23,6.8,.82,2.13,2.05,4.02,3.69,5.65s3.44,2.87,5.41,3.69,4.18,1.23,6.56,1.23c4.51,0,8.2-1.31,11.06-4.02s4.26-6.15,4.34-10.41h-13.93v-3.2h17.95v.41c0,6.39-1.72,11.47-5.24,15.08-3.52,3.61-8.36,5.49-14.51,5.49s-11.06-1.97-14.83-5.82-5.65-9.01-5.65-15.33c0-2.87,.49-5.65,1.39-8.2,.98-2.54,2.38-4.84,4.1-6.72,1.97-2.05,4.18-3.61,6.64-4.67,2.46-.98,5.16-1.56,8.2-1.56,4.1,0,7.62,.74,10.49,2.21,2.95,1.48,5.16,3.69,6.72,6.47l-2.46,2.38h0Z"/>
    <path class="cls-3" d="M267.13,55.44c-.16-2.21-.9-4.02-2.21-5.24s-3.11-1.8-5.41-1.8c-2.05,0-3.77,.66-5.16,1.97-1.39,1.31-2.21,3.03-2.38,5.16h15.16v-.08Zm4.02,2.87h-19.42c.08,3.2,.9,5.65,2.38,7.46s3.44,2.7,5.98,2.7c1.8,0,3.36-.49,4.75-1.48,1.39-.98,2.46-2.46,3.36-4.43l3.11,1.72c-1.23,2.46-2.79,4.26-4.59,5.49-1.8,1.15-4.02,1.72-6.64,1.72-3.61,0-6.47-1.23-8.69-3.61s-3.28-5.57-3.28-9.42,1.07-7.21,3.28-9.67,5.08-3.69,8.61-3.69,6.06,1.15,8.11,3.44,3.03,5.33,3.03,9.1v.66h0Z"/>
    <path class="cls-3" d="M281.63,70.44v-24.5h3.2v3.77c.98-1.56,2.21-2.7,3.61-3.52,1.48-.82,3.11-1.15,5-1.15,2.79,0,4.92,.74,6.47,2.29,1.56,1.56,2.29,3.69,2.29,6.47v16.55h-3.44v-15c0-2.46-.49-4.26-1.56-5.41-.98-1.15-2.62-1.8-4.75-1.8-2.62,0-4.51,.74-5.74,2.29s-1.8,3.93-1.8,7.21v12.78h-3.28Z"/>
    <path class="cls-3" d="M331.38,55.44c-.16-2.21-.9-4.02-2.21-5.24s-3.11-1.8-5.41-1.8c-2.05,0-3.77,.66-5.16,1.97-1.39,1.31-2.21,3.03-2.38,5.16h15.16v-.08Zm4.02,2.87h-19.42c.08,3.2,.9,5.65,2.38,7.46s3.44,2.7,5.98,2.7c1.8,0,3.36-.49,4.75-1.48,1.39-.98,2.46-2.46,3.36-4.43l3.11,1.72c-1.23,2.46-2.79,4.26-4.59,5.49-1.8,1.15-4.02,1.72-6.64,1.72-3.61,0-6.47-1.23-8.69-3.61s-3.36-5.57-3.36-9.42,1.07-7.21,3.28-9.67,5.08-3.69,8.61-3.69,6.06,1.15,8.11,3.44,3.03,5.33,3.03,9.1v.66h.08Z"/>
    <polygon class="cls-3" points="346.54 48.89 342.03 48.89 342.03 45.94 346.54 45.94 346.54 35.94 349.9 35.94 349.9 45.94 354.73 45.94 354.73 48.89 349.9 48.89 349.9 70.44 346.54 70.44 346.54 48.89"/>
    <path class="cls-3" d="M366.94,70.44h-3.52v-24.5h3.52v24.5Zm-4.43-34.01c0-.74,.25-1.31,.74-1.8,.49-.49,1.15-.74,1.88-.74s1.31,.25,1.88,.74c.49,.49,.82,1.15,.82,1.8,0,.74-.25,1.39-.74,1.88s-1.15,.74-1.88,.74-1.39-.25-1.88-.74c-.49-.49-.82-1.15-.82-1.88"/>
    <polygon class="cls-3" points="375.88 45.94 380.14 45.94 386.12 54.95 392.02 45.94 396.2 45.94 387.92 57.74 397.02 70.44 392.84 70.44 386.04 60.52 379.24 70.44 375.06 70.44 384.15 57.74 375.88 45.94"/>
    <path class="cls-4" d="M202.3,80.03h195.87m-372.15,0H161.24"/>
    <path class="cls-1" d="M163.46,115.51c-.16,.16-.41,.25-.74,.25h-.25c-.74-.08-1.56-.82-1.07-1.64,.41-.66,1.23-.74,1.88-.57,.41,.16,.66,.57,.66,1.07,0,.25-.08,.57-.25,.82-.16-.08-.25,0-.25,.08"/>
    <path class="cls-1" d="M167.06,109.94c0,.25-.25,.33-.49,.33h-.08c-.57,0-1.15,0-1.64,.16-.41,.16-.66,.49-.98,.66s-.74,.25-1.07,.16c-.66-.08-1.31-.57-1.31-1.31,0-.08,0-.25,.08-.33,.33-.9,1.48-1.15,2.29-.82,.41,.16,.66,.49,.98,.66s.74,.16,1.15,.16h.9c.08,.08,.16,.16,.16,.33"/>
    <path class="cls-1" d="M170.91,105.27c0,.33-.33,.33-.33,.33h-2.62c-.57,0-1.07,.16-1.56,.49-.57,.41-1.15,.74-1.88,.57-.41-.08-.9-.33-1.15-.74-.49-.66-.08-1.56,.57-1.88,.66-.33,1.48-.41,2.05,.08,1.39,1.07,3.03,.82,4.59,.82h0c.08,0,.25,.08,.33,.33,0,0-.08,0,0,0h0Z"/>
    <path class="cls-1" d="M186.81,102.07c.41-.16,.9-.41,1.07-.82,.08-.16,.08-.41,.08-.57,0-.66-.57-1.23-1.23-1.39-.9-.25-1.8-.16-2.29,.49-.33,.41-.82,.66-1.31,.57-5.33-.16-10.65,.41-15.98-.33-.33,0-.66-.08-.9,.16-.25,.16-.25,.57-.08,.82,.33,.33,.82,.25,1.23,.25,.57-.08,1.07-.25,1.64-.25h13.28c.9,0,1.64,0,2.21,.74,.49,.57,1.39,.57,2.29,.33"/>
    <path class="cls-1" d="M170.34,96.58c2.21-.33,4.43-.25,6.64-.25,.9,0,1.72-.08,2.62,0,.41,0,.82,.16,1.15,.41,.25,.25,.49,.49,.82,.66,.98,.57,2.29,.41,3.03-.49,.49-.57,.49-1.39-.08-1.88-.41-.49-1.15-.66-1.72-.66-.82,0-1.39,.41-1.88,.98-.33,.33-.82,.41-1.31,.41-3.03-.08-6.06,.25-9.1-.16-.57-.08-.9,.16-.9,.57-.08,.33,.33,.49,.74,.41"/>
    <path class="cls-1" d="M173.7,91.83c.25-.08,.49-.08,.82-.08,.57-.08,1.15,0,1.64,.08,.66,.08,1.31,.41,1.72,.98,.66,.82,2.38,.66,3.28-.08s.82-1.88-.16-2.62c-.98-.66-2.62-.74-3.28,.16,0,0-.25,.25-.33,.33s-.25,.16-.33,.25c-.25,.16-.49,.25-.82,.33-.41,.08-.74,.08-1.15,.08s-.82-.08-1.23-.08c-.33,0-.9-.08-.9,.33,0,.08,0,.25,.08,.33,.25,.08,.49,0,.66,0"/>
    <path class="cls-1" d="M173.95,86.75c0,1.15,1.07,1.97,2.46,1.97s2.54-.82,2.54-1.97-1.07-1.97-2.46-1.97c-1.48,0-2.54,.82-2.54,1.97"/>
    <path class="cls-1" d="M189.52,115.51c.25,.16,.41,.25,.74,.25h.25c.74-.08,1.56-.82,1.07-1.64-.41-.66-1.23-.74-1.88-.57-.41,.16-.66,.57-.66,1.07,0,.25,.08,.57,.25,.82,.08-.08,.16,0,.25,.08"/>
    <path class="cls-1" d="M185.91,109.94c0,.25,.25,.33,.49,.33h.08c.57,0,1.15,0,1.64,.16,.41,.16,.66,.49,.98,.66s.74,.25,1.07,.16c.66-.08,1.31-.57,1.31-1.31,0-.08,0-.25-.08-.33-.33-.9-1.48-1.15-2.29-.82-.41,.16-.66,.49-.98,.66s-.74,.16-1.15,.16h-.9c-.16,.08-.16,.16-.16,.33"/>
    <path class="cls-1" d="M182.06,105.27c0,.33,.33,.33,.33,.33h2.54c.57,0,1.07,.16,1.56,.49,.57,.41,1.15,.74,1.88,.57,.41-.08,.9-.33,1.23-.74,.49-.66,.08-1.56-.57-1.88-.57-.33-1.48-.41-2.05,.08-1.39,1.07-2.95,.82-4.59,.82h0c-.16,0-.33,.08-.33,.33h0Z"/>
    <path class="cls-6" d="M191.32,58.23c-.57-.41-1.39-.57-1.97-.08-.57,.57-1.23,.49-1.97,.49h-21.23c-.57,0-1.15,.08-1.8-.08-.25-.08-.57-.16-.82-.33-.25-.25-.49-.33-.82-.33h-.16c-.49,0-1.07,.25-1.23,.82-.41,1.15,1.39,1.88,2.21,1.15,.66-.57,1.39-.57,2.21-.57h21.47c.74,0,1.48,0,2.13,.49,.57,.49,1.39,.41,1.97-.08,.49-.49,.57-1.07,0-1.48"/>
    <path class="cls-6" d="M188.86,68.72c.33-.33,.33-.74,0-1.07-.41-.33-.9-.41-1.31-.08-.49,.41-1.15,.33-1.8,.33h-17.37c-.49,0-.98,0-1.48-.16s-.82-.57-1.23-.82c-.57-.33-1.15-.16-1.72,.08-.57,.33-1.07,.98-.74,1.64,.41,.9,1.8,1.23,2.62,.66,.41-.25,.66-.66,1.07-.74,.41-.16,.9-.08,1.39-.08h17.54c.57,0,1.15-.08,1.64,.33,.41,.41,.98,.33,1.39-.08"/>
    <path class="cls-6" d="M164.03,49.13c-.33,.33-.41,.74,0,1.07s.98,.49,1.48,.08,1.07-.33,1.64-.33h17.37c.49,0,.98,0,1.48,.08,.33,.08,.57,.33,.82,.57,.33,.33,.82,.49,1.31,.49,.9,0,1.72-.49,1.8-1.39,.08-1.23-1.72-1.72-2.62-1.23-.33,.16-.57,.49-.9,.66-.57,.33-1.31,.33-1.97,.33h-17.21c-.57,0-1.15,0-1.64-.33-.57-.41-1.15-.33-1.56,0"/>
    <path class="cls-6" d="M166.16,44.62c-.25,.25-.25,.57,0,.82,.25,.33,.66,.41,1.07,.25,.74-.41,1.48-.25,2.21-.25h13.03c.82,0,1.56,0,2.05,.66,.49,.57,1.39,.66,2.21,.41,.66-.16,1.31-.82,1.23-1.48v-.08c-.08-.66-.66-1.07-1.23-1.23-.82-.25-1.72-.16-2.21,.41-.49,.66-1.23,.66-2.05,.66h-12.87c-.82,0-1.64,.08-2.38-.25-.33-.25-.82-.16-1.07,.08"/>
    <path class="cls-6" d="M162.15,53.8c-.41,.33-.33,.82,.08,1.15,.49,.41,1.15,.57,1.72,.16,.57-.49,1.23-.41,1.88-.41h20.41c.49,0,1.07-.08,1.56,0,.25,0,.49,.08,.74,.25,.33,.16,.57,.49,.98,.66,.08,0,.16,0,.25,.08,.33,0,.57,0,.9-.08,.57-.25,1.07-.74,.9-1.39-.08-.33-.33-.57-.66-.74s-.74-.33-1.15-.25c-.33,.08-.66,.33-.9,.49-.66,.57-1.56,.49-2.38,.49h-20.49c-.74,0-1.39,0-1.97-.49-.74-.57-1.48-.41-1.88,.08"/>
    <path class="cls-6" d="M190.75,64.21c.41-.41,.41-.9,0-1.23-.49-.41-1.23-.49-1.72-.08s-.98,.41-1.64,.41h-21.23c-.74,0-1.48,.08-2.05-.57-.41-.49-1.15-.41-1.72-.25-.41,.16-.74,.41-.9,.82,0,.08,0,.16-.08,.33,0,.25,.08,.57,.25,.74,.57,.66,1.88,.74,2.46,.08,.49-.49,1.07-.57,1.8-.57h21.23c.66,0,1.31-.08,1.88,.41,.49,.41,1.23,.41,1.72-.08"/>
    <path class="cls-1" d="M186.81,73.14c.08-.25,.16-.49-.08-.74s-.66-.33-.98-.16c-.74,.41-1.56,.25-2.38,.25h-13.28c-.66,0-1.15,0-1.56-.57-.66-.82-2.05-.82-2.87-.25s-.9,1.64-.16,2.21c.82,.66,2.21,.66,3.03-.16,.49-.49,1.07-.57,1.72-.57h7.79c2.62,.16,5.33-.41,7.95,.33,.33,.16,.66-.08,.82-.33"/>
    <path class="cls-1" d="M183.37,77.73c.08-.16,.08-.33-.08-.49-.16-.25-.49-.33-.82-.25-.41,.16-.82,.25-1.31,.25h-7.13c-.9,0-1.72,0-2.29-.82-.66-.82-2.13-.82-3.03-.16s-.98,1.72-.16,2.38c.74,.66,2.46,.82,3.03,.08,.74-.98,1.72-.9,2.79-.9h3.2c1.48,.16,3.2-.25,5,.16,.33,.08,.74,0,.82-.25"/>
    <path class="cls-6" d="M169.85,39.95c-.16,.08-.33,.16-.33,.33-.08,.33,.16,.57,.41,.57,.25,.08,.57,0,.9,0s.66-.08,.98-.08c.66-.08,1.31-.08,1.88-.08h4.92c.82,0,1.8-.08,2.38,.66,.49,.74,1.48,.9,2.54,.66,.9-.25,1.39-.82,1.39-1.56,0-.82-.49-1.39-1.48-1.64s-1.97-.08-2.46,.74c-.25,.41-.57,.57-1.15,.57h-2.21c-1.31,0-2.62,.08-3.93,0-.66,0-1.31,0-1.97-.08-.33,0-.66-.08-.98-.08s-.66-.08-.9,0"/>
    <path class="cls-6" d="M172.96,35.86c0,.33,.33,.33,.74,.33h.98c.74,0,1.56-.08,2.29,.16,.41,.16,.66,.57,.98,.82s.66,.41,1.07,.49c.74,.08,1.56-.08,2.21-.57,.9-.74,.9-1.88-.08-2.62-.9-.66-2.62-.74-3.28,.08-.74,.98-1.72,.98-2.87,.9-.41,0-.82,0-1.23-.08-.49,0-.82,.08-.82,.49"/>
    <path class="cls-1" d="M179.93,82.24c0-.33-.16-.49-.57-.49h-.57c-1.39,0-2.87,.33-3.93-.98-.66-.82-2.38-.66-3.28,.16-.82,.74-.74,1.88,.16,2.54,.9,.66,2.62,.74,3.2-.08,.74-1.07,1.8-1.07,2.95-.98,.41,.08,.9,.08,1.39,.08,.33,0,.66,0,.66-.25"/>
    <path class="cls-1" d="M189.52,2.42c.25-.16,.41-.16,.74-.16h.25c.74,.08,1.56,.82,1.07,1.64-.41,.66-1.23,.74-1.88,.57-.41-.16-.66-.57-.66-1.07,0-.25,.08-.57,.25-.82,.08,0,.16-.08,.25-.16"/>
    <path class="cls-1" d="M185.91,7.99c0-.25,.25-.33,.49-.33h.08c.57,0,1.15,0,1.64-.16,.41-.16,.66-.49,.98-.66s.74-.25,1.07-.16c.66,.08,1.31,.57,1.31,1.23,0,.08,0,.25-.08,.33-.33,.9-1.48,1.15-2.29,.82-.41-.16-.66-.49-.98-.66-.33-.16-.74-.16-1.15-.16h-.9c-.16,0-.16-.08-.16-.25"/>
    <path class="cls-1" d="M182.06,12.66c0-.33,.33-.33,.33-.33h2.54c.57,0,1.07-.16,1.56-.49,.57-.41,1.15-.74,1.88-.57,.41,.08,.9,.33,1.23,.66,.49,.66,.08,1.56-.57,1.88-.57,.33-1.48,.41-2.05-.08-1.39-1.07-2.95-.82-4.59-.82h0c-.16,.08-.33,0-.33-.25h0Z"/>
    <path class="cls-1" d="M166.16,15.86c-.41,.16-.9,.41-1.07,.9-.08,.16-.08,.41-.08,.57,0,.66,.49,1.23,1.23,1.39,.9,.25,1.8,.16,2.29-.49,.33-.41,.82-.66,1.31-.57,5.33,.16,10.65-.41,15.98,.33,.33,.08,.66,.08,.9-.16,.25-.25,.25-.57,.08-.82-.33-.33-.9-.25-1.23-.25-.57,.08-1.07,.25-1.64,.25h-13.28c-.9,0-1.64,0-2.21-.74-.57-.66-1.48-.66-2.29-.41"/>
    <path class="cls-6" d="M182.55,21.35c-2.21,.33-4.43,.25-6.64,.25-.9,0-1.72,.08-2.62,0-.41,0-.82-.16-1.15-.41-.25-.25-.49-.49-.82-.66-.98-.57-2.29-.41-3.03,.49-.49,.57-.49,1.39,.08,1.88,.41,.49,1.15,.66,1.72,.66,.82,0,1.39-.41,1.88-.98,.33-.33,.9-.41,1.31-.41,3.03,.08,6.06-.25,9.1,.16,.57,.08,.9-.16,.9-.57,.16-.33-.33-.41-.74-.41"/>
    <path class="cls-6" d="M179.19,26.1c-.25,.08-.49,.08-.82,.08-.57,0-1.15,0-1.64-.08-.66-.08-1.31-.41-1.72-.98-.66-.82-2.38-.66-3.28,.08s-.82,1.88,.16,2.62,2.62,.74,3.28-.16c0,0,.25-.25,.33-.33,.08-.08,.25-.16,.33-.25,.25-.16,.49-.25,.82-.33,.41-.08,.74-.08,1.15-.08s.82,.08,1.23,.08c.33,0,.9,.08,.9-.33,0-.08,0-.25-.08-.33h-.66"/>
    <path class="cls-6" d="M178.95,31.18c0-1.15-1.07-1.97-2.46-1.97s-2.54,.82-2.54,1.97,1.07,1.97,2.46,1.97c1.48,0,2.54-.82,2.54-1.97"/>
    <path class="cls-1" d="M163.46,2.42c-.16-.16-.41-.16-.74-.16h-.25c-.74,.08-1.56,.82-1.07,1.64,.41,.66,1.23,.74,1.88,.57,.41-.16,.66-.57,.66-1.07,0-.25-.08-.57-.25-.82-.16,0-.25-.08-.25-.16"/>
    <path class="cls-1" d="M167.06,7.99c0-.25-.25-.33-.49-.33h-.08c-.57,0-1.15,0-1.64-.16-.41-.16-.66-.49-.98-.66s-.74-.25-1.07-.16c-.66,.08-1.31,.57-1.31,1.23,0,.08,0,.25,.08,.33,.33,.9,1.48,1.15,2.29,.82,.41-.16,.66-.49,.98-.66,.33-.16,.74-.16,1.15-.16h.9c.08,0,.16-.08,.16-.25"/>
    <path class="cls-1" d="M170.91,12.66c0-.33-.33-.33-.33-.33h-2.62c-.57,0-1.07-.16-1.56-.49-.57-.41-1.15-.74-1.88-.57-.41,.08-.9,.33-1.15,.66-.49,.66-.08,1.56,.57,1.88s1.48,.41,2.05-.08c1.39-1.07,3.03-.82,4.59-.82h0c.08,.08,.25,0,.33-.25,0,0-.08,0,0,0h0Z"/>
  </g>
</svg>