<?xml version="1.0" encoding="UTF-8"?>
<svg id="Layer_1" data-name="Layer 1" xmlns="http://www.w3.org/2000/svg" viewBox="0 0 1287 421.5">
  <defs>
    <style>
      .cls-1 {
        fill: #bf482b;
      }

      .cls-2 {
        fill: #fff;
      }

      .cls-3 {
        fill: #fbfcfd;
      }

      .cls-4 {
        fill: #0a325d;
      }

      .cls-5 {
        fill: #f6fafa;
      }

      .cls-6 {
        fill: #f9fbfc;
      }

      .cls-7 {
        fill: #fdfdfd;
      }

      .cls-8 {
        fill: #ca4f2e;
      }

      .cls-9 {
        fill: #fafcfb;
      }

      .cls-10 {
        fill: #0c335e;
      }

      .cls-11 {
        fill: #f8fafa;
      }

      .cls-12 {
        fill: #c0d5e4;
      }

      .cls-13 {
        fill: #715f73;
      }

      .cls-14 {
        fill: #fbfcfc;
      }

      .cls-15 {
        fill: #bfd5e4;
      }

      .cls-16 {
        fill: #c0d6e4;
      }

      .cls-17 {
        fill: #11355e;
      }

      .cls-18 {
        fill: #09325d;
      }

      .cls-19 {
        fill: #bdd4e3;
      }

      .cls-20 {
        fill: #f4f8f9;
      }
    </style>
  </defs>
  <rect class="cls-2" x="0" y="0" width="1287" height="421.5"/>
  <g>
    <path class="cls-7" d="M347.57,476.12V-57.88H947.57V476.12H347.57Zm441.3-213.61h-7.41v82.54h44.21v-8.64h-33.49v-29.08h30.36v-8.9h-30.34v-27.23c6.41,0,12.55,.09,18.68-.03,4.9-.1,9.79-.46,14.69-.7l.18-4.99c0-.67,0-1.33,0-2-1.61-.32-3.21-.64-4.82-.96-.33,0-.67,0-1,0-10.34,0-20.69,0-31.03-.01Zm-160.56-42.72c13.78,1.67,27.02,1.69,40.02-1.78,33.76-9,57.19-29.81,70.21-62.2,1.21-3.01,2.52-4.18,5.76-3.72,3.28,.46,6.71,.8,9.93,.31,1.9-.29,4.57-2.02,5-3.62,.41-1.52-1.17-4.34-2.7-5.46-2.63-1.92-5.79-3.28-8.92-4.29-3.52-1.13-3.83-3.22-3.4-6.41,5.67-42.83-17.72-85.59-57.45-103.16-8.6-3.81-13.27-7.43-11.02-17.28,.39-1.7-2.3-4.09-3.57-6.17-2.04,1.31-4.74,2.17-5.98,4.01-2.27,3.36-3.67,7.3-5.4,10.94-1.58-.11-2.74-.15-3.89-.29-43.27-5.32-83.98,16.68-103.34,55.97-2.05,4.15-2.56,10.15-5.79,12.32-3.2,2.15-8.96,.21-13.52,.76-1.83,.22-4.54,2.09-4.85,3.61-.32,1.61,1.34,4.16,2.86,5.45,1.82,1.55,4.33,2.47,6.69,3.2,4.56,1.4,5.7,4.06,5.19,8.81-2.61,24.25,3.38,46.46,17.15,66.5,12.82,18.66,30.27,31.38,51.45,38.66,0,4.89-.36,9.56,.16,14.14,.23,2.02,1.94,5.02,3.53,5.43,1.59,.41,4.64-1.36,5.7-3.03,2.46-3.89,4.11-8.29,6.19-12.68Zm-156.5,83.4c-.09-1.35-.19-3.51-.36-5.66-1.5-18.81-15.18-33.79-32.88-35.99-20.38-2.54-37.77,7.76-43.54,26.7-1.94,6.37-2.64,13.43-2.35,20.1,1.11,25.56,22.95,42.37,47.63,37.2,19.26-4.03,31.15-19.71,31.5-42.35Zm22.89-40.83v82.96c8.52,0,16.9,.84,25.05-.16,23.14-2.84,38.93-14.6,40.74-40.54,1.13-16.2-6.73-30.16-21.57-37.14-14.04-6.61-28.9-6.49-44.22-5.13Zm196.48,5.08c-6.83-4.84-14.08-6.53-21.95-6.17-11.91,.54-20.79,6.75-23.05,16.24-2.7,11.34,1.52,19.99,12.97,26.14,5.4,2.9,11.04,5.36,16.36,8.38,7.01,3.98,9.54,9.3,7.9,15.51-1.59,6.02-6.89,10.24-14.45,9.65-6.92-.54-13.72-2.7-20.96-4.24-.42,1.41-1.25,4.2-2.13,7.16,11.57,7.02,23.27,8.5,35.52,3.52,5.64-2.29,9.58-6.48,11.66-12.26,3.94-10.94,.02-21.51-10.62-27.62-6.45-3.71-13.4-6.57-19.79-10.38-5.71-3.4-7.66-8.57-6.27-13.92,1.3-5.03,6.15-9.23,12.4-8.9,6.57,.35,13.06,2.16,20.11,3.43,.44-1.23,1.3-3.68,2.32-6.53Zm19.92,72.48c8.82,6.11,18.42,7.77,28.59,5.83,11.61-2.21,18.15-8.78,19.63-18.97,1.51-10.37-2.73-18.17-13.26-23.89-4.37-2.37-9.05-4.19-13.36-6.65-3.13-1.78-6.35-3.8-8.73-6.44-4.98-5.54-3.38-14.06,3.3-17.34,2.99-1.47,6.79-2.41,10.02-2,5.57,.7,10.99,2.65,16.57,4.1,.18-.45,.43-1.43,.92-2.28,2.39-4.1,.77-6.8-3.31-7.68-6.4-1.37-12.95-3.04-19.41-2.97-10.5,.12-18.64,7.12-20.79,16.26-2.44,10.38,1.42,19.11,11.35,24.73,5.77,3.27,11.91,5.88,17.7,9.11,7.17,4,10,9.68,8.39,15.87-1.56,5.99-7.29,10.29-15.11,9.62-6.76-.58-13.37-2.8-20.38-4.37-.48,1.59-1.27,4.24-2.12,7.07Zm-77.12-77.27c-9.97-.83-9.66-.69-13.36,7.49-5.49,12.13-11.47,24.04-17.75,37.11-1.89-2.97-3-4.39-3.77-5.98-5.68-11.79-11.24-23.64-16.97-35.4-.67-1.38-2.01-3.13-3.29-3.38-2.68-.52-5.53-.16-8.76-.16,5.97,17.97,14.31,34.11,23.68,49.81,1.83,3.07,2.76,7.02,2.98,10.63,.45,7.43,.13,14.9,.13,22.32h10.41c0-7.79-.3-15.28,.13-22.72,.2-3.44,1.15-7.2,2.91-10.12,9.45-15.68,17.83-31.82,23.67-49.59Zm240.94,82.57c0-3.37,.27-6.37-.05-9.3-1.33-12.32,.79-23.59,8.74-33.56,2.45-3.07,4.1-6.84,5.74-10.45,4.36-9.57,8.52-19.24,12.88-29.15-10.46-1.11-10.16-.97-13.91,7.3-5.5,12.15-11.48,24.08-17.26,36.1-.78,.02-1.57,.04-2.35,.06-5.74-12.04-11.69-23.99-17.16-36.15-3.67-8.16-3.37-8.3-12.41-7.68-.32,.02-.62,.21-1.14,.39,.24,.76,.47,1.53,.72,2.29,5.66,16.76,13.86,32.27,22.93,47.4,1.68,2.8,2.55,6.41,2.72,9.7,.39,7.61,.12,15.26,.12,23.06h10.42Zm-358.05,35.96c-.94,9.92-1.86,19.69-2.83,29.94,2.74-.2,4.32-.31,5.99-.43,.61-7.12,1.19-13.86,1.77-20.59,2.8,5.56,4.46,11.09,6.04,16.65,.65,2.28,1,4.27,4.3,4.37,3.51,.1,4.09-1.93,4.79-4.44,1.56-5.54,3.22-11.05,4.84-16.58,1.6,5.6,2.37,10.99,2.36,16.38-.01,4.81,2.14,5.2,6.09,3.97,.05-.82,.21-1.63,.14-2.41-.65-7.44-1.27-14.88-2.07-22.3-.22-2.07,.42-4.92-3.35-4.92-3.43,0-6.36-.25-7.29,4.41-1.11,5.55-3.08,10.93-4.68,16.38-2.45-4.66-3.95-9.3-5.34-13.98-2.13-7.19-2.09-7.2-10.79-6.44Zm140.82,29.32c3.58,.72,6.45,1.45,6.3-3.54-.06-2.13,.73-4.28,1.13-6.42,1.59,1.65,3.2,3.28,4.74,4.97,.44,.48,.8,1.1,.99,1.72,1.31,4.25,4.33,4.25,8.34,3.29-2.09-4.04-4.05-7.82-5.98-11.57,7.49-6.26,7.45-13.84-.4-16.72-3.9-1.43-8.44-1.24-12.71-1.46-.76-.04-2.29,1.52-2.3,2.36-.17,9.09-.11,18.19-.11,27.37Zm-147.48,.19c-2.92-9.19-5.83-17.73-8.3-26.39-.91-3.2-2.74-3.41-5.44-3.55-2.99-.15-4.15,1.3-4.87,3.78-.5,1.74-1.29,3.4-1.8,5.15-1.99,6.85-3.93,13.73-5.84,20.42,6.5,2.84,6.5-2.09,7.77-4.86h10.29c.58,1.88,1.11,3.59,1.68,5.45h6.5Zm198.62-.69c-2.94-9.1-5.73-18.04-8.79-26.89-.35-1.01-2.07-2.03-3.26-2.18-2.79-.35-5.28-.42-6.34,3.55-2.32,8.66-5.31,17.13-8.19,26.19h6.42c1.7-6.41,3.12-6.96,12.31-5,.55,3.78,1.77,6.81,7.84,4.33Zm105.25-11.91h10.07v-5.06h-9.97v-6.68q11.09-1.59,10.28-5.29h-16.46v29.59h17.24c-.15-1.78-.26-3.18-.42-5.06h-10.74v-7.5Zm-182.82-16.91v29.79c2.07-.11,3.78-.2,5.55-.29,.16-3.04,.28-5.49,.41-7.86,12.58-3.49,15.92-6.84,14.21-14.12-1.52-6.48-9.09-9.4-20.17-7.52Zm102.57,22.6c-6.47,3.09-10.66,2.89-13.42-.49-2.78-3.4-3.13-10.42-.7-14.13,2.47-3.78,6.19-4.36,12.82-2.01,2.08-4.5,1.91-4.9-2.52-6.13-11.56-3.2-20.71,6.82-17.77,19.48,2.09,9,11.4,13.46,19.83,9.61,3.02-1.38,4.19-3.09,1.76-6.32Zm67.2,.05c-6.58,2.97-10.78,2.8-13.48-.41-2.99-3.56-3.45-9.98-.76-14.09,3.48-5.32,8.26-4.3,12.97-1.94,1.7-2.95,1.95-4.93-1.51-6.14-6.12-2.14-12.93-.27-16.48,4.76-4.06,5.76-3.84,15.19,.49,20.57,3.7,4.61,11.03,6.07,16.84,3.54,3.01-1.31,4.27-2.98,1.93-6.29Zm-197.93,6.88c-.41-.27-.82-.53-1.23-.8,3.64-9.52,7.27-19.03,10.91-28.57-4.07-1.42-6.15-.22-7.34,3.65-1,3.24-2.78,6.23-4.07,9-6.14-2.76-2.16-14.15-12.65-13.01,1.56,10.69,11.34,18.3,8.83,29.73h5.55Zm135.16-29.65v4.67c2.7,.19,5.1,.37,8.16,.59v24.4h6.03c0-7.02,.13-13.78-.06-20.53-.09-3.2,.9-4.38,4.23-4.3,4.56,.11,4.56-.13,3.41-4.83h-21.77Zm-267.53,4.88h10.75c-.13-2.04-.22-3.42-.3-4.68h-16.49v29.35h5.91v-11.53h10.07c-.11-1.91-.2-3.31-.31-5.21h-9.63v-7.94Zm48.97-174.66c9.3,.08,16.14-4.04,18.07-10.78,1.22-4.28,1.14-9.23-3.33-10.73-4.18-1.4-9.2-.37-13.84-.25-.32,0-.85,1.33-.86,2.05-.07,6.57-.04,13.15-.04,19.71Zm68.22,199.49v-5.33h-10.51v-24.33h-5.75v29.66h16.26Zm224.94-195.94c-.47,.31-.94,.62-1.41,.93,.88,1.13,1.52,2.75,2.68,3.3,3.24,1.56,6.67,2.15,9.68-.72,4.5-4.3,3.83-16.05-1.53-19.18-2.26-1.32-5.74-1.54-8.33-.89-1.38,.35-3.18,3.91-2.76,5.48,.67,2.55,2.67,5.08,4.78,6.81,1.38,1.13,3.94,.83,5.98,1.17-1.38,5.38-2.59,5.79-9.08,3.1Zm-20.67-11.77c-.5-1.82-.89-4.65-2.04-7.13-1.77-3.82-5.18-5.73-9.34-5.07-4.13,.66-5.37,4.17-5.65,7.78-.19,2.43,.02,4.99,.61,7.35,1.43,5.66,5.56,8.71,10.39,7.73,5.3-1.07,5.39-5.52,6.03-10.66Zm-323.64,4.89v-4.72q7.74-2.33,7.59-5.64c-4.02,.78-8,1.56-11.82,2.3v21.7c10.07-.36,11.68-1.02,11.94-5.25-2.58,.36-5.08,.71-7.53,1.05v-5.49q7.33-1.3,6.71-4.84c-2.12,.27-4.24,.54-6.89,.87Zm303.49,202.78v-29.58h-5.54v29.58h5.54Zm-208.89,.02v-30.01c-2.13,.18-3.85,.33-5.39,.46v29.55h5.39Zm-80.13-196.89c-1.76,3.08-.35,4.14,2.34,4.39,4.44,.41,9.2-2.67,10.07-6.5,1.16-5.11-2.05-6.8-6.13-7.8-.32-.08-.73-.12-.93-.34-.72-.78-1.95-1.68-1.87-2.42,.09-.86,1.22-1.92,2.15-2.31,1-.42,2.34,.06,3.41-.27,.87-.27,1.55-1.15,2.31-1.75-.68-.73-1.24-1.89-2.05-2.11-4.03-1.06-9.09,2.02-10.22,5.95-1.42,4.9,1.77,6.36,5.43,7.82,1.41,.56,2.43,2.1,3.62,3.2-1.47,.88-2.85,2.01-4.43,2.56-.97,.34-2.25-.22-3.7-.42Zm287.15-2.8c-.02-6.9-6.42-2.9-8.41-6.54,1.79-1.39,3.88-2.88,5.82-4.55,3.03-2.61,3.49-6.85,1.19-9.78-2.24-2.86-8.31-4.42-10.84-2.55-.67,.5-.59,2.01-.52,1.73,3.36,1.6,5.8,2.76,8.23,3.92-1.57,2.08-2.83,4.52-4.77,6.17-2.82,2.4-5.03,4.74-4.09,9.02,4.21,.81,8.41,1.63,13.39,2.59Zm-265.93,3.24c3.72,.42,4.62-1.11,4.47-4.04-.2-3.64,.07-7.3-.08-10.94-.11-2.67,.35-4.39,3.52-4.78,1.07-.13,1.94-1.94,2.9-2.98-5.47-.19-9.89,.42-14.21,1.5-1.13,.28-1.91,2-3.67,3.98,3.51-.24,5.14-.35,7.07-.48v17.74Zm296.5-13.74c0,3.98,.12,8.44-.04,12.9-.11,3.01,.99,4.18,4.24,3.42,0-5.73,.01-11.52,0-17.3-.01-5.48-1.05-6.12-6.22-3.8-.99,.44-1.93,1.02-2.89,1.54-.06,.46-.12,.93-.18,1.39,1.58,.57,3.16,1.15,5.1,1.85Z"/>
    <path class="cls-10" d="M628.32,219.79c-2.08,4.4-3.72,8.8-6.19,12.68-1.06,1.67-4.11,3.45-5.7,3.03-1.59-.41-3.3-3.4-3.53-5.43-.52-4.57-.16-9.25-.16-14.14-21.18-7.28-38.63-20-51.45-38.66-13.77-20.04-19.77-42.25-17.15-66.5,.51-4.75-.63-7.4-5.19-8.81-2.36-.72-4.86-1.65-6.69-3.2-1.52-1.29-3.19-3.84-2.86-5.45,.3-1.52,3.01-3.38,4.85-3.61,4.56-.55,10.32,1.39,13.52-.76,3.23-2.17,3.74-8.17,5.79-12.32,19.37-39.28,60.08-61.29,103.34-55.97,1.15,.14,2.31,.17,3.89,.29,1.73-3.64,3.14-7.58,5.4-10.94,1.24-1.84,3.94-2.71,5.98-4.01,1.27,2.07,3.96,4.47,3.57,6.17-2.25,9.85,2.42,13.48,11.02,17.28,39.73,17.57,63.12,60.33,57.45,103.16-.42,3.19-.11,5.28,3.4,6.41,3.13,1.01,6.3,2.37,8.92,4.29,1.53,1.12,3.11,3.94,2.7,5.46-.43,1.6-3.1,3.33-5,3.62-3.23,.49-6.65,.15-9.93-.31-3.24-.46-4.55,.71-5.76,3.72-13.02,32.39-36.45,53.2-70.21,62.2-13,3.47-26.24,3.45-40.02,1.78Zm-10.86-.17v4.1c.56,.1,1.13,.2,1.69,.29,3.06-12.47,6.11-24.94,9.17-37.4-3.7-1.23-6.11-2.04-9.25-3.08v11.88c-.53,8.07-1.07,16.14-1.6,24.21Zm6.02-64.25c.46,.77,.91,1.53,1.37,2.3,.79,4.35,1.46,8.72,2.46,13.02,.34,1.44,1.26,3.55,2.37,3.89,10.5,3.28,20.98,2.78,31.71-.56-1.23-11.82,3.54-20.91,11.5-28.73,2.24-2.2,4.46-4.56,6.07-7.22,1.15-1.9,1.25-4.43,1.83-6.68-2.19-.54-4.38-1.09-6.57-1.63-.92-.25-1.85-.49-2.8-.75,.71-1.33,1.2-2.25,1.7-3.18,5.39-3.13,8.96,.31,12.45,3.68,3.26-5.52,3.46-11.13,2.09-17.01-.34-1.48,.25-3.18,.41-4.78,1.3,1.18,3.27,2.12,3.78,3.58,2.36,6.76,1.22,13.32-1.82,19.71-2.08,4.36-1.05,7.92,2.45,9.86,3.77,2.08,7.46,.82,10.01-3.44,8.13-13.55,5.6-33.48-5.64-44.49-13.42,4.68-24.14,2.21-30.67-7.07-4.36-6.19-4.4-6.19-11.68-3.47-1.38,.52-2.78,.97-4.17,1.46-.95-.24-1.89-.48-2.92-.74,.72-1.3,1.23-2.22,1.74-3.15,.26-.21,.55-.29,.87-.23,1.71-.65,3.41-1.29,5.12-1.94-.33-1.04-.37-2.72-1.03-3.02-5.94-2.68-11.99-5.12-18.07-7.66-.97,1.65-1.4,2.33-1.78,3.05-7.31,14.09-21.23,19.46-35.99,13.62-2.55-1.01-3.79-.58-5.32,1.45-11.39,15.14-13.04,31.42-5.7,48.67,2.95,6.93,4.94,7.93,12.66,7.66,.97,.23,1.94,.47,3.02,.73-.7,1.28-1.21,2.2-1.73,3.12-2.06,.47-4.12,.94-6.56,1.49,6.49,11.84,15.52,20.3,28.99,25.73-1.01-5.33-1.81-9.5-2.6-13.68,.81-1.21,1.63-2.41,2.44-3.62v.02Zm8.66-96.45c0-12.87-10.23-23.09-23.04-23.01-12.53,.09-22.79,10.36-22.82,22.85-.03,12.73,10.38,23.06,23.16,22.99,12.59-.07,22.7-10.23,22.7-22.84Zm71.2,29.03c5.46,10.58,8.45,21.01,8.71,32.2,.02,1.04,.93,2.56,1.84,3.01,8.18,3.96,16.46,7.74,25.22,11.8,3.05-22.14-.52-42.41-11.47-61.82-8.22,5.01-16.12,9.83-24.3,14.82Zm-153.98,18.95c-3.06,22.36,1.23,42.47,12.1,61.65,8.08-4.92,15.83-9.64,23.86-14.53-5.48-10.09-8.25-20.72-8.72-31.99-.05-1.16-1.18-2.79-2.24-3.31-8.01-3.95-16.14-7.67-25-11.83Zm185.89,43.85c-10.03,0-18.82-.05-27.61,.06-1.13,.01-2.85,.55-3.29,1.39-5.42,10.18-13.08,18.32-22.71,25.14,4.89,7.97,9.62,15.68,14.44,23.54,18.38-12.2,31.09-28.05,39.17-50.12Zm-120.84,59.94c0-9.44,.06-18.21-.08-26.97-.02-1.06-.85-2.6-1.76-3.09-9.95-5.4-18.02-12.86-24.75-22.41-8.03,4.9-15.85,9.66-23.68,14.43,12.04,18.21,32.35,33.82,50.27,38.03Zm63.64-29.81c-8.63,2.43-16.32,5.97-24.21,6.47-8.71,.55-13.44,3.65-16.02,11.81-1.7,5.39-4.72,10.37-7.34,15.95,22.36,2.64,42.44-.87,61.33-11.79-4.9-7.97-9.49-15.47-13.77-22.43Zm7.47-89.95c10.72-.08,18.61-8.14,18.59-18.99-.02-10.42-8.52-18.95-18.9-18.97-10.23-.01-18.98,8.73-19.03,19.01-.05,10.68,8.47,19.03,19.34,18.95Zm-132.17-.66c10.07,.31,19.48,.64,28.88,.82,.75,.01,1.76-.85,2.23-1.57,2.15-3.29,4.15-6.69,6.23-10.07-9.2-9.42-11.12-20.18-7.04-32.44-14.27,11.21-24.17,25.31-30.3,43.26Zm121-39.38c9.79-3.69,18.48-3.24,26.08,3.09,7.7,6.4,9.85,14.93,7.67,25.37,6.12-3.76,11.53-7.08,17.07-10.48-12.62-18.72-28.84-31.65-49.89-39.01-.32,7.23-.62,13.85-.94,21.03Zm-63.37-20.12c13.93,2.96,22.62,10.18,25.79,23.61,3.35-.67,8.03-.3,9.01-2.02,4.75-8.38,8.51-17.33,12.89-26.64-16.39-2.04-31.5-.88-47.69,5.05Zm55.27,141.58c12.49-5.64,21.66-13.99,27.51-25.05-3.41-2.83-6.47-5.37-9.84-8.17-6.5,10.07-19.9,16.97-17.67,33.22Zm-84.79-76.17c-14.74-.62-28.85-1.22-42.96-1.82-.04,.37-.07,.74-.11,1.11,13.32,3.19,26.65,6.37,40.18,9.61,1.09-3.36,1.93-5.94,2.89-8.9Zm86.24-73.72c-.62-.17-1.25-.34-1.87-.51-4.91,10.38-9.83,20.76-14.87,31.41,1.8,.46,3.27,.68,4.62,1.21,3.59,1.4,5.32,.81,5.83-3.56,.51-4.34,2.37-8.5,3.33-12.81,1.16-5.21,1.99-10.48,2.97-15.73Zm75.75,121.71l.45-1.73c-10.69-4.93-21.39-9.86-32.68-15.06-.19,4.22-.31,6.99-.45,10.05,11.24,1.48,21.59,6.12,32.67,6.74Z"/>
    <path class="cls-4" d="M825.73,263.48c-1.61-.32-3.21-.64-4.82-.96,1.61,.32,3.21,.64,4.82,.96Z"/>
    <path class="cls-11" d="M650.32,83.86c1.39-.49,2.79-.94,4.17-1.46,7.28-2.72,7.32-2.72,11.68,3.47,6.54,9.28,17.25,11.75,30.67,7.07,11.24,11.01,13.77,30.94,5.64,44.49-2.55,4.25-6.24,5.52-10.01,3.44-3.5-1.93-4.53-5.49-2.45-9.86,3.04-6.39,4.18-12.95,1.82-19.71-.51-1.45-2.48-2.4-3.78-3.58-.16,1.6-.76,3.3-.41,4.78,1.37,5.88,1.17,11.48-2.09,17.01-3.49-3.38-7.06-6.81-12.45-3.68-3.32,2.98-6.64,5.96-10.27,9.22-1.91-8.87-7.58-13.78-15.76-15.79,1.5-7.4,3.88-13.74,10.41-17.75,1.24-.76,1.78-2.67,2.65-4.04-1.77,.13-3.91-.33-5.23,.5-5.83,3.66-9.51,8.92-11.02,15.8-1.06,4.83-4.73,7.36-8.46,6.5-4.3-.99-6.28-4.46-5.3-9.55,2.36-12.22,9.97-20.52,20.19-26.85Z"/>
    <path class="cls-11" d="M650.01,79.74c-.33-.06-.62,.02-.87,.23-11.14,5.17-18.14,13.88-22.28,25.3-2.7,7.45-2.63,13.94,4.21,18.41-2.07,3.99-3.98,7.65-5.95,11.44-5.11-4.36-7.98-12.73-17.12-9.76-3.54-6.4-3.76-11.11-1.43-20.2,.31-1.21-.65-2.74-1.03-4.12-1.07,.87-2.89,1.6-3.08,2.63-.86,4.66-1.87,9.43-1.66,14.1,.26,5.68,3.35,10.87,2.38,17.09-.47,3.03-.64,5.19-3.29,6.72-7.72,.26-9.71-.73-12.66-7.66-7.34-17.25-5.69-33.53,5.7-48.67,1.53-2.03,2.77-2.46,5.32-1.45,14.77,5.85,28.68,.48,35.99-13.62,.37-.71,.81-1.39,1.78-3.05,6.08,2.53,12.13,4.97,18.07,7.66,.66,.3,.7,1.98,1.03,3.02-1.71,.65-3.41,1.29-5.12,1.94Z"/>
    <path class="cls-9" d="M632.12,58.92c0,12.6-10.11,22.77-22.7,22.84-12.78,.07-23.18-10.26-23.16-22.99,.03-12.49,10.28-22.76,22.82-22.85,12.8-.09,23.04,10.13,23.04,23.01Z"/>
    <path class="cls-16" d="M703.32,87.95c8.18-4.99,16.08-9.8,24.3-14.82,10.95,19.41,14.53,39.67,11.47,61.82-8.76-4.06-17.03-7.84-25.22-11.8-.91-.44-1.82-1.96-1.84-3.01-.26-11.18-3.25-21.62-8.71-32.2Z"/>
    <path class="cls-12" d="M549.34,106.9c8.86,4.16,16.98,7.88,25,11.83,1.06,.52,2.19,2.15,2.24,3.31,.47,11.27,3.24,21.9,8.72,31.99-8.03,4.89-15.78,9.61-23.86,14.53-10.86-19.19-15.15-39.29-12.1-61.65Z"/>
    <path class="cls-12" d="M735.23,150.74c-8.08,22.08-20.8,37.92-39.17,50.12-4.82-7.86-9.56-15.58-14.44-23.54,9.63-6.82,17.3-14.96,22.71-25.14,.44-.83,2.16-1.37,3.29-1.39,8.79-.11,17.58-.06,27.61-.06Z"/>
    <path class="cls-16" d="M614.39,210.68c-17.92-4.21-38.23-19.82-50.27-38.03,7.83-4.77,15.65-9.54,23.68-14.43,6.73,9.55,14.8,17.01,24.75,22.41,.9,.49,1.74,2.03,1.76,3.09,.14,8.76,.08,17.53,.08,26.97Z"/>
    <path class="cls-16" d="M678.03,180.87c4.27,6.96,8.87,14.45,13.77,22.43-18.89,10.92-38.97,14.43-61.33,11.79,2.62-5.57,5.63-10.55,7.34-15.95,2.58-8.16,7.31-11.25,16.02-11.81,7.89-.5,15.58-4.03,24.21-6.47Z"/>
    <path class="cls-17" d="M599.9,141.58c2.65-1.53,2.82-3.69,3.29-6.72,.97-6.22-2.12-11.41-2.38-17.09-.21-4.68,.8-9.45,1.66-14.1,.19-1.03,2.01-1.76,3.08-2.63,.37,1.38,1.34,2.91,1.03,4.12-2.33,9.09-2.11,13.8,1.43,20.2,9.13-2.97,12,5.4,17.12,9.76,1.97-3.79,3.87-7.45,5.95-11.44-6.84-4.46-6.91-10.96-4.21-18.41,4.14-11.42,11.14-20.13,22.28-25.3-.51,.92-1.02,1.84-1.74,3.15,1.03,.26,1.97,.5,2.92,.74-10.22,6.33-17.83,14.63-20.19,26.85-.98,5.09,.99,8.56,5.3,9.55,3.73,.86,7.4-1.67,8.46-6.5,1.51-6.87,5.18-12.13,11.02-15.8,1.33-.83,3.47-.37,5.23-.5-.86,1.38-1.4,3.28-2.65,4.04-6.54,4.01-8.92,10.35-10.41,17.75,8.18,2.01,13.85,6.91,15.76,15.79,3.63-3.26,6.95-6.24,10.27-9.22-.49,.93-.99,1.85-1.7,3.18,.95,.25,1.87,.5,2.8,.75-4.84,6.24-9.88,12.34-14.47,18.76-8.03,11.23-24.4,10.47-31.73-1.25-3.56-5.69-8.27-10.67-12.48-15.95-.41-.51-1.02-1.29-1.47-1.25-1.97,.2-4.96,.04-5.62,1.16-.86,1.46-.63,4.57,.43,6.01,4.61,6.23,9.69,12.1,14.6,18.1-.81,1.21-1.63,2.41-2.44,3.62-4.68-5.67-9.36-11.35-13.86-16.8-2.27,1.24-4.12,2.25-5.97,3.26,.51-.92,1.02-1.85,1.73-3.12-1.07-.26-2.04-.49-3.02-.73Zm30.29-3.55c.05,7.92,6.39,14.11,14.33,14,7.99-.11,13.97-6.38,13.81-14.49-.15-7.67-6.4-13.8-14.06-13.79-7.82,.01-14.14,6.42-14.09,14.28Z"/>
    <path class="cls-5" d="M623.47,155.35c-4.91-6-9.99-11.88-14.6-18.1-1.06-1.44-1.3-4.54-.43-6.01,.66-1.12,3.65-.97,5.62-1.16,.45-.04,1.07,.74,1.47,1.25,4.21,5.28,8.92,10.26,12.48,15.95,7.32,11.72,23.7,12.48,31.73,1.25,4.59-6.42,9.63-12.52,14.47-18.76,2.19,.54,4.38,1.09,6.57,1.63-.57,2.25-.68,4.78-1.83,6.68-1.61,2.66-3.83,5.02-6.07,7.22-7.96,7.82-12.73,16.91-11.5,28.73-10.73,3.34-21.21,3.84-31.71,.56-1.11-.35-2.03-2.45-2.37-3.89-1-4.3-1.66-8.67-2.46-13.02-.46-.77-.91-1.53-1.37-2.3v-.02Z"/>
    <path class="cls-6" d="M685.51,90.92c-10.87,.08-19.39-8.27-19.34-18.95,.04-10.28,8.8-19.02,19.03-19.01,10.38,.01,18.88,8.54,18.9,18.97,.02,10.85-7.87,18.92-18.59,18.99Z"/>
    <path class="cls-15" d="M553.33,90.26c6.13-17.95,16.03-32.05,30.3-43.26-4.08,12.26-2.17,23.02,7.04,32.44-2.07,3.39-4.08,6.78-6.23,10.07-.47,.73-1.48,1.59-2.23,1.57-9.4-.18-18.8-.51-28.88-.82Z"/>
    <path class="cls-19" d="M674.33,50.87c.32-7.18,.61-13.8,.94-21.03,21.05,7.36,37.27,20.29,49.89,39.01-5.54,3.4-10.95,6.72-17.07,10.48,2.18-10.44,.03-18.97-7.67-25.37-7.6-6.32-16.29-6.78-26.08-3.09Z"/>
    <path class="cls-15" d="M610.96,30.76c16.19-5.93,31.3-7.09,47.69-5.05-4.38,9.31-8.14,18.26-12.89,26.64-.98,1.72-5.65,1.35-9.01,2.02-3.17-13.43-11.86-20.65-25.79-23.61Z"/>
    <path class="cls-20" d="M666.23,172.33c-2.22-16.26,11.18-23.15,17.67-33.22,3.37,2.8,6.43,5.34,9.84,8.17-5.85,11.06-15.02,19.41-27.51,25.05Z"/>
    <path class="cls-20" d="M601.19,145.43c1.85-1.01,3.7-2.02,5.97-3.26,4.5,5.45,9.18,11.12,13.86,16.8,.79,4.17,1.59,8.35,2.6,13.68-13.47-5.43-22.5-13.89-28.99-25.73,2.44-.55,4.5-1.02,6.56-1.49Z"/>
    <path class="cls-1" d="M581.44,96.16c-.96,2.96-1.8,5.55-2.89,8.9-13.53-3.24-26.86-6.42-40.18-9.61,.04-.37,.07-.74,.11-1.11,14.11,.6,28.23,1.2,42.96,1.82Z"/>
    <path class="cls-1" d="M667.68,22.44c-.98,5.25-1.81,10.52-2.97,15.73-.96,4.31-2.82,8.47-3.33,12.81-.51,4.37-2.24,4.96-5.83,3.56-1.35-.53-2.82-.75-4.62-1.21,5.04-10.65,9.96-21.03,14.87-31.41,.62,.17,1.25,.34,1.87,.51Z"/>
    <path class="cls-1" d="M743.43,144.15c-11.08-.62-21.43-5.26-32.67-6.74,.14-3.07,.26-5.84,.45-10.05,11.29,5.2,21.98,10.13,32.68,15.06l-.45,1.73Z"/>
    <path class="cls-1" d="M619.05,195.4v-11.88c3.14,1.05,5.56,1.85,9.25,3.08-3.05,12.47-6.11,24.94-9.17,37.4-.56-.1-1.13-.2-1.69-.29,0-1.37,0-2.74,0-4.1,.55-.85,1.57-1.69,1.59-2.55,.11-7.22,.03-14.44,.01-21.66Z"/>
    <path class="cls-13" d="M619.05,195.4c.02,7.22,.1,14.44-.01,21.66-.01,.86-1.03,1.7-1.59,2.55,.53-8.07,1.07-16.14,1.6-24.22Z"/>
    <path class="cls-17" d="M650.01,79.74c1.71-.65,3.41-1.29,5.12-1.94-1.71,.65-3.41,1.29-5.12,1.94Z"/>
    <path class="cls-17" d="M623.47,155.37c.46,.77,.91,1.53,1.37,2.3-.46-.77-.91-1.53-1.37-2.3Z"/>
    <path class="cls-14" d="M402.98,303.68c.34-10.66,3.36-20.03,11.72-27.06,12.63-10.62,32.27-7.59,40.71,6.55,7.32,12.26,7.57,25.29,1.72,38.14-5.06,11.12-16.41,17.22-27.94,15.9-11.95-1.37-21.65-10.04-24.55-22.26-.87-3.68-1.13-7.51-1.67-11.27Z"/>
    <path class="cls-3" d="M505.44,336.53v-65.63c14.95,.06,29.71,.31,39.01,14.11,7.71,11.44,7.51,24.19,.72,35.87-8.77,15.08-23.92,16.07-39.73,15.66Z"/>
    <path class="cls-11" d="M630.19,138.03c-.05-7.86,6.27-14.27,14.09-14.28,7.66-.01,13.91,6.12,14.06,13.79,.16,8.11-5.82,14.38-13.81,14.49-7.94,.11-14.28-6.08-14.33-14Z"/>
  </g>
  <g>
    <path class="cls-18" d="M432.64,261.14c3.48,0,6.9,.42,10.24,1.26,3.34,.84,6.51,2.08,9.49,3.72,2.98,1.64,5.73,3.69,8.23,6.16,2.5,2.46,4.65,5.3,6.46,8.5,1.8,3.2,3.21,6.79,4.23,10.75,1.02,3.96,1.53,8.31,1.53,13.03s-.52,9.16-1.56,13.18c-1.04,4.02-2.48,7.68-4.32,10.96-1.84,3.28-4.03,6.18-6.58,8.68-2.54,2.5-5.33,4.59-8.35,6.28-3.02,1.68-6.25,2.94-9.67,3.78-3.42,.84-6.92,1.26-10.48,1.26s-6.96-.42-10.3-1.26c-3.34-.84-6.51-2.08-9.49-3.72-2.98-1.64-5.74-3.68-8.26-6.12s-4.68-5.28-6.49-8.5c-1.8-3.22-3.21-6.82-4.23-10.78-1.02-3.96-1.53-8.29-1.53-12.97s.52-9.17,1.56-13.21c1.04-4.04,2.48-7.71,4.32-10.99,1.84-3.28,4.04-6.18,6.61-8.68,2.56-2.5,5.36-4.59,8.41-6.28,3.04-1.68,6.27-2.94,9.67-3.78,3.4-.84,6.91-1.26,10.51-1.26Zm-.66,9.31c-3.72,0-7.35,.75-10.87,2.25-3.52,1.5-6.67,3.7-9.43,6.61-2.76,2.9-4.98,6.49-6.64,10.75-1.66,4.26-2.49,9.14-2.49,14.62s.82,10.75,2.46,15.07c1.64,4.32,3.84,7.95,6.61,10.87s5.95,5.12,9.55,6.61c3.6,1.48,7.37,2.22,11.29,2.22,3.68,0,7.3-.75,10.84-2.25,3.54-1.5,6.69-3.7,9.43-6.61,2.74-2.9,4.94-6.49,6.61-10.75,1.66-4.26,2.49-9.16,2.49-14.68s-.82-10.7-2.46-15.04c-1.64-4.34-3.84-7.98-6.61-10.9s-5.94-5.12-9.52-6.58c-3.58-1.46-7.34-2.19-11.26-2.19Z"/>
    <path class="cls-18" d="M494.36,262.28c1.4-.08,2.74-.16,4.02-.24,1.28-.08,2.56-.14,3.84-.18,1.28-.04,2.55-.07,3.81-.09,1.26-.02,2.55-.03,3.87-.03,8.21,0,15.52,.96,21.95,2.88,6.43,1.92,11.87,4.7,16.34,8.32,4.46,3.62,7.87,8.02,10.21,13.18,2.34,5.17,3.51,11.01,3.51,17.54,0,6.97-1.2,13.2-3.6,18.71-2.4,5.51-5.86,10.17-10.36,13.99-4.5,3.82-9.99,6.74-16.46,8.74-6.47,2-13.76,3-21.89,3-1.4,0-2.73-.01-3.99-.03-1.26-.02-2.5-.05-3.72-.09-1.22-.04-2.45-.09-3.69-.15-1.24-.06-2.52-.13-3.84-.21v-85.34Zm10.69,76.46c1.12,.04,2.24,.06,3.36,.06h3.48c6.13,0,11.6-.78,16.43-2.34,4.82-1.56,8.92-3.81,12.28-6.76,3.36-2.94,5.93-6.56,7.69-10.84,1.76-4.28,2.64-9.15,2.64-14.59s-.88-9.92-2.64-14.02c-1.76-4.1-4.33-7.58-7.72-10.42-3.38-2.84-7.51-5-12.37-6.49-4.86-1.48-10.4-2.22-16.61-2.22h-3.3c-1.08,0-2.16,.02-3.24,.06v67.57Z"/>
    <path class="cls-18" d="M597.29,318.13c-3-4.64-5.81-9.25-8.41-13.81-2.6-4.56-5.04-9.14-7.33-13.72-2.28-4.58-4.39-9.23-6.34-13.93-1.94-4.7-3.73-9.5-5.38-14.38h11.05c1.36,4.04,2.84,8,4.44,11.86,1.6,3.86,3.31,7.68,5.14,11.44,1.82,3.76,3.76,7.5,5.83,11.2,2.06,3.7,4.23,7.42,6.52,11.14,2.24-3.72,4.39-7.44,6.46-11.14,2.06-3.7,4.01-7.44,5.86-11.2,1.84-3.76,3.56-7.58,5.17-11.44,1.6-3.86,3.1-7.82,4.5-11.86h10.69c-1.64,4.89-3.43,9.68-5.37,14.38-1.94,4.71-4.05,9.35-6.34,13.93-2.28,4.58-4.74,9.16-7.36,13.72-2.62,4.56-5.44,9.17-8.44,13.81v29.49h-10.69v-29.49Z"/>
    <path class="cls-18" d="M648.38,333.15c2.92,2.04,6.06,3.62,9.4,4.75,3.34,1.12,6.74,1.68,10.18,1.68,2.44,0,4.68-.3,6.73-.9,2.04-.6,3.8-1.48,5.29-2.64,1.48-1.16,2.63-2.57,3.45-4.23,.82-1.66,1.23-3.57,1.23-5.74,0-2.48-.56-4.63-1.68-6.46-1.12-1.82-2.61-3.41-4.47-4.77-1.86-1.36-3.97-2.6-6.34-3.72-2.36-1.12-4.76-2.26-7.21-3.42-2.44-1.16-4.84-2.41-7.21-3.75-2.36-1.34-4.46-2.92-6.31-4.75-1.84-1.82-3.32-3.94-4.44-6.37-1.12-2.42-1.68-5.32-1.68-8.68,0-3.6,.65-6.84,1.95-9.7,1.3-2.86,3.12-5.29,5.46-7.27,2.34-1.98,5.11-3.48,8.29-4.5,3.18-1.02,6.68-1.53,10.48-1.53s7.62,.54,10.96,1.62c3.34,1.08,6.54,2.64,9.58,4.69l-2.89,8.59c-2.85-1.92-5.74-3.36-8.66-4.32s-5.94-1.44-9.02-1.44c-2.21,0-4.25,.29-6.13,.87-1.89,.58-3.52,1.42-4.9,2.52-1.38,1.1-2.47,2.44-3.25,4.02-.78,1.58-1.17,3.37-1.17,5.38,0,2.44,.56,4.53,1.68,6.28,1.12,1.74,2.61,3.28,4.45,4.62,1.84,1.34,3.95,2.55,6.32,3.63,2.37,1.08,4.77,2.2,7.22,3.36,2.45,1.16,4.85,2.42,7.22,3.78,2.37,1.36,4.47,2.97,6.32,4.83,1.84,1.86,3.33,4.04,4.45,6.55,1.12,2.5,1.68,5.48,1.68,8.92,0,3.72-.69,7.05-2.07,9.97-1.38,2.92-3.29,5.41-5.74,7.45s-5.33,3.59-8.68,4.65c-3.34,1.06-6.98,1.59-10.9,1.59-4.41,0-8.47-.57-12.19-1.71-3.72-1.14-7.07-2.79-10.03-4.96l2.64-8.89Z"/>
    <path class="cls-18" d="M713.34,333.15c2.92,2.04,6.06,3.62,9.4,4.75,3.34,1.12,6.74,1.68,10.18,1.68,2.44,0,4.68-.3,6.73-.9,2.04-.6,3.8-1.48,5.29-2.64,1.48-1.16,2.63-2.57,3.45-4.23,.82-1.66,1.23-3.57,1.23-5.74,0-2.48-.56-4.63-1.68-6.46-1.12-1.82-2.61-3.41-4.47-4.77-1.86-1.36-3.97-2.6-6.34-3.72-2.36-1.12-4.76-2.26-7.21-3.42-2.44-1.16-4.84-2.41-7.21-3.75-2.36-1.34-4.46-2.92-6.31-4.75-1.84-1.82-3.32-3.94-4.44-6.37-1.12-2.42-1.68-5.32-1.68-8.68,0-3.6,.65-6.84,1.95-9.7,1.3-2.86,3.12-5.29,5.46-7.27,2.34-1.98,5.11-3.48,8.29-4.5,3.18-1.02,6.68-1.53,10.48-1.53s7.62,.54,10.96,1.62c3.34,1.08,6.54,2.64,9.58,4.69l-2.89,8.59c-2.85-1.92-5.74-3.36-8.66-4.32s-5.94-1.44-9.02-1.44c-2.21,0-4.25,.29-6.13,.87-1.89,.58-3.52,1.42-4.9,2.52-1.38,1.1-2.47,2.44-3.25,4.02-.78,1.58-1.17,3.37-1.17,5.38,0,2.44,.56,4.53,1.68,6.28,1.12,1.74,2.61,3.28,4.45,4.62,1.84,1.34,3.95,2.55,6.32,3.63,2.37,1.08,4.77,2.2,7.22,3.36,2.45,1.16,4.85,2.42,7.22,3.78,2.37,1.36,4.47,2.97,6.32,4.83,1.84,1.86,3.33,4.04,4.45,6.55,1.12,2.5,1.68,5.48,1.68,8.92,0,3.72-.69,7.05-2.07,9.97-1.38,2.92-3.29,5.41-5.74,7.45s-5.33,3.59-8.68,4.65c-3.34,1.06-6.98,1.59-10.9,1.59-4.41,0-8.47-.57-12.19-1.71-3.72-1.14-7.07-2.79-10.03-4.96l2.64-8.89Z"/>
    <path class="cls-18" d="M826.36,271.29h-34.83v28.35h31.77v9.01h-31.77v29.97h34.83v9.01h-45.52v-85.34h45.52v9.01Z"/>
    <path class="cls-18" d="M864.18,318.13c-3-4.64-5.81-9.25-8.41-13.81-2.6-4.56-5.04-9.14-7.33-13.72-2.28-4.58-4.39-9.23-6.34-13.93-1.94-4.7-3.73-9.5-5.38-14.38h11.05c1.36,4.04,2.84,8,4.45,11.86,1.6,3.86,3.31,7.68,5.13,11.44,1.82,3.76,3.76,7.5,5.83,11.2,2.06,3.7,4.23,7.42,6.52,11.14,2.24-3.72,4.39-7.44,6.46-11.14,2.06-3.7,4.01-7.44,5.86-11.2,1.84-3.76,3.56-7.58,5.16-11.44,1.6-3.86,3.1-7.82,4.5-11.86h10.69c-1.64,4.89-3.43,9.68-5.38,14.38-1.94,4.71-4.05,9.35-6.34,13.93-2.28,4.58-4.74,9.16-7.36,13.72-2.62,4.56-5.44,9.17-8.44,13.81v29.49h-10.69v-29.49Z"/>
  </g>
  <g>
    <path class="cls-8" d="M481.35,385.57h-11.26v8.57h10.33v5.01h-10.33v11.95h-5.97v-30.53h17.23v5.01Z"/>
    <path class="cls-8" d="M500.25,380.57c2.01,5.03,3.8,10.12,5.38,15.26,1.58,5.15,2.86,10.24,3.85,15.26h-6.12c-.19-1-.38-2.02-.59-3.04-.21-1.02-.44-2.06-.7-3.1h-11.15c-.26,1.05-.49,2.08-.71,3.1-.21,1.02-.41,2.04-.6,3.04h-5.97c.99-5.03,2.28-10.12,3.86-15.26,1.59-5.15,3.37-10.24,5.35-15.26h7.41Zm.58,19.53c-.63-2.31-1.31-4.59-2.03-6.84-.72-2.26-1.51-4.48-2.36-6.67-.8,2.19-1.57,4.42-2.32,6.67-.74,2.26-1.42,4.54-2.04,6.84h8.74Z"/>
    <path class="cls-8" d="M547.73,380.57c.46,2.76,.85,5.45,1.18,8.05,.33,2.6,.62,5.16,.86,7.67s.44,5,.59,7.44,.28,4.91,.38,7.37h-6.04c-.07-2.12-.17-4.22-.29-6.32-.12-2.09-.27-4.17-.43-6.23s-.35-4.1-.56-6.12c-.21-2.02-.45-4.02-.72-5.99l-7.18,24.66h-6.47l-7.18-24.75c-.29,1.98-.53,3.97-.75,5.99s-.4,4.06-.57,6.13c-.16,2.07-.3,4.16-.42,6.26-.11,2.11-.21,4.23-.3,6.36h-5.82c.07-2.46,.19-4.92,.34-7.37s.35-4.93,.58-7.44,.52-5.07,.86-7.67,.74-5.28,1.2-8.05h8.48l6.92,23.68,6.9-23.68h8.43Z"/>
    <path class="cls-8" d="M563.62,411.09h-5.97v-30.53h5.97v30.53Z"/>
    <path class="cls-8" d="M577.32,406.05h10.94v5.05h-16.91v-30.53h5.97v25.48Z"/>
    <path class="cls-8" d="M597.58,400.98c-1.07-1.68-2.07-3.34-2.98-5.01-.91-1.66-1.76-3.33-2.55-5.01-.79-1.68-1.51-3.37-2.17-5.09-.66-1.72-1.27-3.49-1.83-5.31h6.17c.42,1.35,.85,2.64,1.31,3.89,.46,1.25,.95,2.46,1.47,3.65,.52,1.19,1.08,2.37,1.69,3.54,.6,1.17,1.25,2.37,1.96,3.59,.69-1.22,1.33-2.41,1.93-3.59,.6-1.17,1.17-2.36,1.71-3.54,.54-1.19,1.04-2.41,1.5-3.65,.47-1.25,.91-2.54,1.32-3.89h5.97c-.54,1.82-1.15,3.59-1.82,5.31s-1.39,3.42-2.18,5.09c-.79,1.68-1.64,3.34-2.56,5.01-.92,1.66-1.91,3.33-2.99,5.01v10.12h-5.97v-10.12Z"/>
    <path class="cls-8" d="M630.49,380.57c1.25-.1,2.38-.16,3.4-.19,1.02-.03,1.96-.04,2.84-.04,2.35,0,4.44,.24,6.28,.72,1.84,.48,3.4,1.17,4.68,2.08,1.28,.91,2.26,2.02,2.93,3.33,.67,1.31,1.01,2.79,1.01,4.44,0,1.76-.34,3.33-1.03,4.72-.69,1.38-1.68,2.56-2.98,3.52s-2.88,1.71-4.74,2.22c-1.86,.52-3.96,.78-6.29,.79h-.13v8.94h-5.97v-30.53Zm5.97,16.59h1.4c1.19,0,2.26-.14,3.2-.41,.95-.27,1.75-.67,2.41-1.19,.66-.52,1.16-1.16,1.51-1.9,.35-.74,.53-1.58,.53-2.51s-.17-1.71-.52-2.42-.85-1.31-1.5-1.82c-.66-.5-1.47-.89-2.43-1.16-.96-.27-2.06-.41-3.29-.41-.21,0-.43,0-.66,.01-.22,0-.44,.03-.65,.05v11.75Z"/>
    <path class="cls-8" d="M657.41,380.57c1.13-.07,2.24-.13,3.32-.17,1.08-.04,2.09-.06,3.04-.06,2.33,0,4.42,.22,6.26,.67,1.84,.44,3.39,1.09,4.66,1.93,1.27,.85,2.23,1.87,2.9,3.06,.67,1.2,1,2.56,1,4.09,0,.99-.14,1.91-.41,2.76-.27,.85-.67,1.64-1.18,2.36-.52,.72-1.15,1.38-1.9,1.96s-1.61,1.09-2.57,1.54c1.13,1.85,2.26,3.81,3.38,5.89,1.12,2.08,2.22,4.25,3.3,6.51h-6.53c-.85-1.75-1.78-3.54-2.81-5.38-1.03-1.84-2.1-3.66-3.2-5.45-.5,.07-1.02,.12-1.56,.14s-1.11,.03-1.73,.03v10.66h-5.97v-30.53Zm5.97,15.02h1.5c1.2,0,2.27-.12,3.21-.37,.94-.24,1.73-.59,2.36-1.04,.64-.45,1.12-1,1.45-1.63,.33-.64,.49-1.36,.49-2.16s-.17-1.47-.5-2.11c-.34-.63-.83-1.16-1.47-1.6-.64-.44-1.44-.77-2.38-1-.95-.23-2.02-.34-3.22-.34h-1.44v10.25Z"/>
    <path class="cls-8" d="M699.13,380.57c2.01,5.03,3.8,10.12,5.38,15.26,1.58,5.15,2.86,10.24,3.85,15.26h-6.12c-.19-1-.38-2.02-.59-3.04-.21-1.02-.44-2.06-.7-3.1h-11.15c-.26,1.05-.49,2.08-.71,3.1-.21,1.02-.42,2.04-.6,3.04h-5.97c.99-5.03,2.28-10.12,3.86-15.26,1.59-5.15,3.37-10.24,5.34-15.26h7.41Zm.58,19.53c-.63-2.31-1.31-4.59-2.03-6.84s-1.51-4.48-2.36-6.67c-.8,2.19-1.57,4.42-2.32,6.67-.74,2.26-1.42,4.54-2.04,6.84h8.74Z"/>
    <path class="cls-8" d="M732.86,387.57c-.96-.79-2-1.39-3.12-1.79s-2.26-.61-3.44-.61-2.26,.22-3.3,.67c-1.04,.44-1.95,1.11-2.74,1.99-.79,.88-1.41,1.98-1.87,3.31-.46,1.33-.69,2.86-.69,4.61,0,1.63,.2,3.1,.61,4.42s.99,2.43,1.74,3.36c.75,.93,1.68,1.64,2.77,2.14s2.33,.74,3.71,.74c.76,0,1.48-.06,2.16-.19,.68-.13,1.33-.32,1.97-.58,.63-.26,1.23-.58,1.79-.97,.57-.39,1.13-.84,1.69-1.35l1.4,4.88c-1.36,1.07-2.85,1.91-4.47,2.49-1.62,.59-3.41,.88-5.37,.88-2.12,0-4.05-.36-5.78-1.08-1.73-.72-3.22-1.76-4.46-3.1-1.24-1.35-2.2-2.98-2.87-4.89-.67-1.91-1.01-4.06-1.01-6.46,0-1.72,.17-3.31,.52-4.77s.83-2.78,1.46-3.95c.63-1.17,1.38-2.21,2.26-3.12,.87-.9,1.84-1.65,2.9-2.26,1.06-.6,2.2-1.05,3.42-1.35,1.22-.3,2.48-.45,3.78-.45,1.66,0,3.2,.22,4.61,.67,1.41,.44,2.67,1.12,3.77,2.04l-1.44,4.75Z"/>
    <path class="cls-8" d="M760.75,385.61h-8.49v25.48h-5.97v-25.48h-8.51v-5.05h22.97v5.05Z"/>
    <path class="cls-8" d="M772.07,411.09h-5.97v-30.53h5.97v30.53Z"/>
    <path class="cls-8" d="M799.85,387.57c-.96-.79-2-1.39-3.12-1.79s-2.26-.61-3.44-.61-2.26,.22-3.3,.67c-1.04,.44-1.95,1.11-2.74,1.99-.79,.88-1.41,1.98-1.87,3.31-.46,1.33-.69,2.86-.69,4.61,0,1.63,.2,3.1,.61,4.42s.99,2.43,1.74,3.36c.75,.93,1.68,1.64,2.77,2.14s2.33,.74,3.71,.74c.76,0,1.48-.06,2.16-.19,.68-.13,1.33-.32,1.97-.58,.63-.26,1.23-.58,1.79-.97,.57-.39,1.13-.84,1.69-1.35l1.4,4.88c-1.36,1.07-2.85,1.91-4.47,2.49-1.62,.59-3.41,.88-5.37,.88-2.12,0-4.05-.36-5.78-1.08-1.73-.72-3.22-1.76-4.46-3.1-1.24-1.35-2.2-2.98-2.87-4.89-.67-1.91-1.01-4.06-1.01-6.46,0-1.72,.17-3.31,.52-4.77s.83-2.78,1.46-3.95c.63-1.17,1.38-2.21,2.26-3.12,.87-.9,1.84-1.65,2.9-2.26,1.06-.6,2.2-1.05,3.42-1.35,1.22-.3,2.48-.45,3.78-.45,1.66,0,3.2,.22,4.61,.67,1.41,.44,2.67,1.12,3.77,2.04l-1.44,4.75Z"/>
    <path class="cls-8" d="M825.18,385.51h-11.71v7.67h10.83v4.94h-10.83v8.04h11.71v4.94h-17.68v-30.53h17.68v4.94Z"/>
  </g>
  <g>
    <path class="cls-18" d="M478.19,200.99l-8.39,1.48,.97,5.49,7.76-1.37,.62,3.54-7.75,1.37,1.01,5.75,8.39-1.48,.62,3.54-12.66,2.23-3.86-21.87,12.66-2.23,.62,3.54Z"/>
    <path class="cls-18" d="M485.57,213.52c.88,.38,1.78,.64,2.7,.77s1.81,.12,2.68-.04c.52-.09,.98-.23,1.38-.42,.4-.19,.72-.41,.98-.68,.26-.27,.44-.57,.55-.9,.11-.33,.12-.69,.05-1.08-.09-.5-.3-.92-.65-1.25-.34-.33-.77-.6-1.27-.81-.5-.21-1.07-.4-1.69-.56-.63-.16-1.26-.33-1.92-.52-.65-.19-1.3-.4-1.94-.65-.64-.25-1.23-.57-1.77-.97-.54-.4-1-.9-1.38-1.49-.39-.59-.65-1.32-.8-2.18-.17-.97-.15-1.88,.07-2.73,.22-.84,.6-1.59,1.14-2.26,.54-.66,1.24-1.21,2.09-1.65,.85-.44,1.82-.76,2.91-.95,1.1-.19,2.13-.24,3.08-.13,.96,.11,1.88,.34,2.79,.71l-.42,3.6c-.81-.32-1.61-.54-2.4-.65-.79-.11-1.58-.09-2.38,.04-.44,.08-.84,.21-1.21,.38s-.66,.39-.9,.63c-.24,.25-.41,.53-.51,.85-.1,.32-.12,.66-.06,1.02,.09,.49,.3,.89,.63,1.2,.33,.31,.75,.57,1.26,.78,.5,.21,1.07,.39,1.69,.54,.62,.15,1.26,.31,1.92,.5,.65,.18,1.3,.4,1.94,.66,.64,.26,1.24,.59,1.77,1,.54,.41,1,.92,1.39,1.52,.39,.61,.66,1.36,.82,2.25,.18,1,.14,1.92-.1,2.79-.24,.86-.65,1.63-1.23,2.31-.58,.68-1.31,1.25-2.19,1.71-.88,.46-1.87,.79-2.97,.98-1.23,.22-2.38,.26-3.43,.14-1.05-.13-2.04-.4-2.97-.83l.33-3.63Z"/>
    <path class="cls-18" d="M513.81,194.79l-6.08,1.07,3.22,18.25-4.28,.75-3.22-18.25-6.09,1.07-.64-3.62,16.45-2.9,.64,3.62Z"/>
    <path class="cls-18" d="M517,190.5c.42-.09,.81-.18,1.18-.27,.37-.09,.74-.17,1.1-.24,.36-.07,.72-.15,1.08-.21,.36-.07,.74-.14,1.15-.21,2.19-.39,4.2-.49,6-.3,1.8,.19,3.38,.64,4.72,1.36,1.34,.71,2.44,1.68,3.29,2.89,.85,1.21,1.43,2.66,1.72,4.33,.32,1.79,.28,3.45-.11,4.98-.39,1.52-1.1,2.88-2.13,4.07-1.03,1.19-2.35,2.2-3.98,3.01-1.62,.82-3.52,1.41-5.68,1.8-.41,.07-.8,.14-1.16,.2-.36,.06-.72,.11-1.08,.17-.36,.05-.72,.1-1.09,.15-.37,.05-.76,.1-1.17,.15l-3.86-21.87Zm7.5,17.54c.21-.04,.4-.07,.59-.1s.39-.07,.59-.1c1.32-.23,2.48-.61,3.48-1.14s1.81-1.17,2.43-1.94c.62-.77,1.04-1.66,1.28-2.66,.23-1,.24-2.1,.03-3.29-.2-1.15-.57-2.14-1.11-2.96s-1.23-1.48-2.08-1.97c-.85-.48-1.83-.79-2.95-.92-1.12-.13-2.36-.08-3.72,.16-.18,.03-.37,.07-.57,.1-.2,.03-.38,.07-.57,.1l2.6,14.73Z"/>
  </g>
  <g>
    <path class="cls-18" d="M770.84,211l-13.63-2.4c.02-.28,.04-.56,.08-.84,.03-.27,.07-.54,.12-.81,.16-.92,.45-1.75,.86-2.47s.89-1.37,1.44-1.94c.55-.57,1.16-1.08,1.83-1.54,.66-.46,1.33-.89,2.01-1.28,.68-.39,1.34-.78,2-1.15,.65-.37,1.24-.76,1.77-1.16,.53-.4,.97-.83,1.33-1.29,.36-.46,.59-.98,.69-1.55,.08-.46,.07-.89-.03-1.28-.1-.4-.28-.75-.53-1.06-.26-.31-.59-.58-1-.79-.41-.21-.88-.37-1.4-.46-.87-.15-1.72-.16-2.55,0s-1.66,.44-2.49,.88l-.29-3.37c.94-.49,1.98-.83,3.11-.99,1.13-.17,2.34-.14,3.63,.09,1.07,.19,2.01,.5,2.83,.93,.82,.43,1.48,.96,1.99,1.58,.51,.62,.86,1.33,1.06,2.12,.2,.79,.22,1.65,.05,2.57-.14,.82-.39,1.55-.73,2.18-.34,.63-.75,1.2-1.22,1.71s-1,.97-1.58,1.38-1.17,.79-1.78,1.15c-.61,.35-1.21,.7-1.82,1.04-.61,.34-1.18,.69-1.72,1.05-.54,.36-1.03,.75-1.47,1.16s-.79,.88-1.06,1.39l9.14,1.61-.62,3.54Z"/>
    <path class="cls-18" d="M786.91,190.96c1.17,.21,2.22,.62,3.15,1.24s1.69,1.45,2.27,2.5c.58,1.04,.96,2.3,1.14,3.77,.18,1.47,.1,3.17-.24,5.08-.35,1.96-.86,3.61-1.55,4.96-.69,1.35-1.49,2.42-2.42,3.22s-1.95,1.34-3.07,1.61c-1.12,.27-2.29,.3-3.51,.09-1.17-.21-2.22-.62-3.15-1.25-.93-.62-1.69-1.46-2.27-2.49-.58-1.04-.96-2.3-1.14-3.77s-.09-3.17,.24-5.07c.34-1.95,.86-3.6,1.54-4.96,.68-1.36,1.49-2.44,2.42-3.24s1.95-1.34,3.08-1.61c1.12-.27,2.29-.29,3.5-.08Zm-.83,3.55c-.53-.09-1.07-.05-1.61,.14-.54,.19-1.05,.56-1.54,1.1-.49,.54-.93,1.28-1.32,2.2-.39,.92-.71,2.07-.95,3.44-.25,1.41-.34,2.62-.29,3.64,.05,1.02,.22,1.87,.49,2.56,.28,.69,.64,1.21,1.11,1.58,.46,.36,.97,.59,1.53,.69,.53,.09,1.07,.05,1.62-.13,.54-.18,1.06-.55,1.54-1.09,.48-.54,.92-1.28,1.32-2.2,.4-.92,.71-2.07,.96-3.45,.25-1.41,.34-2.62,.29-3.64-.06-1.02-.23-1.87-.5-2.56-.28-.68-.64-1.21-1.1-1.58-.46-.37-.97-.6-1.54-.7Z"/>
    <path class="cls-18" d="M801.97,198.6c-.69,.26-1.37,.51-2.05,.74-.68,.24-1.34,.45-1.99,.66l-.91-3.19c.56-.2,1.11-.39,1.63-.59,.52-.2,1.04-.4,1.54-.61,.51-.21,1.02-.42,1.54-.66,.52-.23,1.06-.48,1.62-.75l3.58,.63-3.86,21.87-4.17-.74,3.06-17.36Z"/>
    <path class="cls-18" d="M810.29,213.38c.62,.53,1.27,.98,1.96,1.33,.69,.35,1.43,.6,2.23,.74,.79,.14,1.54,.13,2.24-.04,.7-.17,1.34-.51,1.92-1.02,.58-.51,1.1-1.2,1.56-2.08,.46-.88,.84-1.95,1.14-3.23,0-.02,0-.04,0-.05,0,0,0-.03,0-.05-.3,.3-.64,.55-1.02,.76s-.8,.36-1.24,.47c-.44,.11-.91,.17-1.41,.18-.5,.01-1.02-.03-1.55-.12-1-.18-1.88-.49-2.66-.95s-1.41-1.03-1.9-1.7c-.49-.67-.83-1.44-1.01-2.31-.19-.87-.19-1.8-.02-2.8,.19-1.09,.55-2.04,1.09-2.85,.54-.82,1.2-1.47,2-1.97,.8-.5,1.69-.84,2.69-1.01,1-.17,2.06-.16,3.19,.04,.74,.13,1.44,.34,2.1,.62s1.25,.66,1.77,1.11,.97,1,1.35,1.64c.37,.64,.66,1.37,.87,2.2,.2,.83,.31,1.75,.31,2.78,0,1.02-.1,2.16-.32,3.41-.35,1.98-.88,3.69-1.6,5.13-.72,1.44-1.59,2.59-2.6,3.46-1.01,.87-2.15,1.46-3.41,1.78-1.26,.32-2.61,.35-4.03,.1-1.06-.19-2.03-.49-2.91-.91-.88-.42-1.67-.94-2.37-1.56l1.62-3.09Zm8.63-13.42c-.52-.09-1.02-.09-1.49,0s-.88,.28-1.25,.54c-.36,.26-.67,.6-.92,1.02-.25,.42-.43,.89-.52,1.44-.1,.55-.1,1.07,0,1.54,.1,.47,.27,.89,.52,1.26,.25,.37,.57,.67,.96,.92,.4,.24,.85,.41,1.36,.5,.49,.09,.97,.08,1.42-.03,.46-.1,.87-.29,1.25-.55,.37-.26,.69-.59,.95-1,.26-.4,.43-.86,.52-1.38,.08-.48,.09-.96,.01-1.43-.08-.47-.23-.9-.47-1.3s-.55-.73-.94-1c-.39-.27-.86-.45-1.4-.55Z"/>
  </g>
</svg>