<?xml version="1.0" encoding="UTF-8"?>
<svg id="Layer_1" data-name="Layer 1" xmlns="http://www.w3.org/2000/svg" xmlns:xlink="http://www.w3.org/1999/xlink" viewBox="0 0 421.2 117">
  <defs>
    <style>
      .cls-1 {
        fill: url(#linear-gradient-2);
      }

      .cls-2 {
        fill: #fff;
      }

      .cls-3 {
        fill: url(#linear-gradient-17);
      }

      .cls-4 {
        fill: url(#linear-gradient-15);
      }

      .cls-5 {
        fill: url(#linear-gradient-18);
      }

      .cls-6 {
        fill: url(#linear-gradient-14);
      }

      .cls-7 {
        fill: url(#linear-gradient-20);
      }

      .cls-8 {
        fill: url(#linear-gradient-6);
      }

      .cls-9 {
        fill: #003e6d;
      }

      .cls-10 {
        fill: url(#linear-gradient-11);
      }

      .cls-11 {
        fill: #0098e7;
      }

      .cls-12 {
        fill: url(#linear-gradient-10);
      }

      .cls-13 {
        fill: url(#radial-gradient);
      }

      .cls-14 {
        fill: url(#linear-gradient-16);
      }

      .cls-15 {
        fill: url(#linear-gradient-21);
      }

      .cls-16 {
        fill: url(#linear-gradient-5);
      }

      .cls-17 {
        fill: url(#radial-gradient-2);
      }

      .cls-18 {
        fill: none;
      }

      .cls-19 {
        fill: #fafbfd;
      }

      .cls-20 {
        fill: #999;
      }

      .cls-21 {
        fill: url(#linear-gradient-7);
      }

      .cls-22 {
        fill: url(#linear-gradient-9);
      }

      .cls-23 {
        fill: url(#linear-gradient-22);
      }

      .cls-24 {
        fill: url(#linear-gradient-3);
      }

      .cls-25 {
        fill: url(#linear-gradient);
      }

      .cls-26 {
        fill: url(#linear-gradient-19);
      }

      .cls-27 {
        fill: url(#linear-gradient-4);
      }

      .cls-28 {
        fill: url(#linear-gradient-8);
      }

      .cls-29 {
        fill: url(#linear-gradient-12);
      }

      .cls-30 {
        fill: url(#linear-gradient-13);
      }
    </style>
    <radialGradient id="radial-gradient" cx="80.32" cy="-7225.78" fx="80.32" fy="-7225.78" r="52.06" gradientTransform="translate(-27.8 748.97) scale(1.03 .09)" gradientUnits="userSpaceOnUse">
      <stop offset="0" stop-color="#494949"/>
      <stop offset="0" stop-color="#4a4a4a"/>
      <stop offset=".32" stop-color="#a9a9a9"/>
      <stop offset=".46" stop-color="#cfcfcf"/>
      <stop offset=".57" stop-color="#ddd" stop-opacity=".88"/>
      <stop offset=".73" stop-color="#f0f0f0" stop-opacity=".7"/>
      <stop offset=".8" stop-color="#fafafa" stop-opacity=".38"/>
      <stop offset=".88" stop-color="#fff" stop-opacity="0"/>
    </radialGradient>
    <linearGradient id="linear-gradient" x1="30.57" y1="-154.23" x2="30.57" y2="-213.23" gradientTransform="translate(0 251)" gradientUnits="userSpaceOnUse">
      <stop offset="0" stop-color="#001f44"/>
      <stop offset="0" stop-color="#002951"/>
      <stop offset=".06" stop-color="#004272"/>
      <stop offset=".1" stop-color="#00538a"/>
      <stop offset=".14" stop-color="#005e99"/>
      <stop offset=".17" stop-color="#00629e"/>
      <stop offset=".25" stop-color="#0065a2"/>
      <stop offset=".33" stop-color="#006faf"/>
      <stop offset=".41" stop-color="#007ec4"/>
      <stop offset=".5" stop-color="#0094e2"/>
      <stop offset=".55" stop-color="#00a3f6"/>
      <stop offset=".59" stop-color="#13aaf7"/>
      <stop offset=".67" stop-color="#46bbfa"/>
      <stop offset=".77" stop-color="#92d6ff"/>
    </linearGradient>
    <linearGradient id="linear-gradient-2" x1="38.57" y1="-154.23" x2="38.57" y2="-226.53" gradientTransform="translate(0 251)" gradientUnits="userSpaceOnUse">
      <stop offset="0" stop-color="#0af"/>
      <stop offset=".04" stop-color="#0099e7"/>
      <stop offset=".11" stop-color="#007cc1"/>
      <stop offset=".19" stop-color="#00639f"/>
      <stop offset=".27" stop-color="#004f84"/>
      <stop offset=".36" stop-color="#003f6f"/>
      <stop offset=".45" stop-color="#003460"/>
      <stop offset=".57" stop-color="#002e58"/>
      <stop offset=".75" stop-color="#002c55"/>
    </linearGradient>
    <linearGradient id="linear-gradient-3" x1="65.38" y1="-232.84" x2="48.01" y2="-194.1" gradientTransform="translate(0 251)" gradientUnits="userSpaceOnUse">
      <stop offset=".13" stop-color="#aed8ee"/>
      <stop offset=".21" stop-color="#93d0f0"/>
      <stop offset=".29" stop-color="#7cc9f1"/>
      <stop offset=".37" stop-color="#6dc5f2"/>
      <stop offset=".44" stop-color="#68c3f2"/>
      <stop offset=".58" stop-color="#47b9f4"/>
      <stop offset=".79" stop-color="#10a9f7"/>
    </linearGradient>
    <linearGradient id="linear-gradient-4" x1="40.85" y1="-150.67" x2="40.85" y2="-200.83" gradientTransform="translate(0 251)" gradientUnits="userSpaceOnUse">
      <stop offset="0" stop-color="#001f44"/>
      <stop offset="0" stop-color="#002951"/>
      <stop offset=".06" stop-color="#004272"/>
      <stop offset=".1" stop-color="#00538a"/>
      <stop offset=".14" stop-color="#005e99"/>
      <stop offset=".17" stop-color="#00629e"/>
      <stop offset=".27" stop-color="#0065a2"/>
      <stop offset=".38" stop-color="#006faf"/>
      <stop offset=".48" stop-color="#007ec4"/>
      <stop offset=".59" stop-color="#0094e2"/>
      <stop offset=".66" stop-color="#00a3f6"/>
    </linearGradient>
    <linearGradient id="linear-gradient-5" x1="51.43" y1="-150.68" x2="51.43" y2="-211.36" xlink:href="#linear-gradient-2"/>
    <linearGradient id="linear-gradient-6" x1="57.45" y1="-150.21" x2="57.45" y2="-188.36" gradientTransform="translate(0 251)" gradientUnits="userSpaceOnUse">
      <stop offset="0" stop-color="#005e99"/>
      <stop offset="0" stop-color="#00558d"/>
      <stop offset=".04" stop-color="#003f6f"/>
      <stop offset=".07" stop-color="#002e58"/>
      <stop offset=".1" stop-color="#002248"/>
      <stop offset=".13" stop-color="#001b3e"/>
      <stop offset=".18" stop-color="#00193b"/>
      <stop offset=".24" stop-color="#002b54"/>
      <stop offset=".33" stop-color="#004475"/>
      <stop offset=".43" stop-color="#00568d"/>
      <stop offset=".51" stop-color="#00609c"/>
      <stop offset=".58" stop-color="#0064a1"/>
      <stop offset=".74" stop-color="#005c97"/>
      <stop offset=".84" stop-color="#00558d"/>
      <stop offset=".9" stop-color="#005891"/>
      <stop offset=".96" stop-color="#00629e"/>
      <stop offset="1" stop-color="#006aa9"/>
    </linearGradient>
    <linearGradient id="linear-gradient-7" x1="65.42" y1="-182.16" x2="77.22" y2="-227.48" gradientTransform="translate(0 251)" gradientUnits="userSpaceOnUse">
      <stop offset="0" stop-color="#146294"/>
      <stop offset="0" stop-color="#166597"/>
      <stop offset=".07" stop-color="#1d6fa1"/>
      <stop offset=".14" stop-color="#1f72a5"/>
      <stop offset=".22" stop-color="#2475a7"/>
      <stop offset=".31" stop-color="#327dab"/>
      <stop offset=".41" stop-color="#4a8ab2"/>
      <stop offset=".52" stop-color="#6a9cbd"/>
      <stop offset=".62" stop-color="#92b2c9"/>
      <stop offset=".68" stop-color="#a4c2d6"/>
      <stop offset=".76" stop-color="#b3cee0"/>
      <stop offset=".86" stop-color="#bcd6e6"/>
      <stop offset="1" stop-color="#bfd8e8"/>
    </linearGradient>
    <linearGradient id="linear-gradient-8" x1="58.56" y1="-157.61" x2="63.45" y2="-157.61" gradientTransform="translate(0 251)" gradientUnits="userSpaceOnUse">
      <stop offset="0" stop-color="#0af"/>
      <stop offset="1" stop-color="#0af"/>
    </linearGradient>
    <radialGradient id="radial-gradient-2" cx="49.52" cy="-200.53" fx="49.52" fy="-200.53" r="52.29" gradientTransform="translate(0 251)" gradientUnits="userSpaceOnUse">
      <stop offset=".76" stop-color="#001f43"/>
      <stop offset=".79" stop-color="#00254b"/>
      <stop offset=".82" stop-color="#003561"/>
      <stop offset=".86" stop-color="#004f84"/>
      <stop offset=".9" stop-color="#0073b5"/>
      <stop offset=".95" stop-color="#00a1f3"/>
      <stop offset=".96" stop-color="#00a7fb"/>
    </radialGradient>
    <linearGradient id="linear-gradient-9" x1="85.82" y1="-218.38" x2="72.87" y2="-171.7" gradientTransform="translate(0 251)" gradientUnits="userSpaceOnUse">
      <stop offset="0" stop-color="#007abe"/>
      <stop offset=".11" stop-color="#0087d0"/>
      <stop offset=".26" stop-color="#0094e2"/>
      <stop offset=".36" stop-color="#0099e8"/>
      <stop offset=".56" stop-color="#0093e0"/>
      <stop offset=".86" stop-color="#0083cb"/>
      <stop offset="1" stop-color="#007abe"/>
    </linearGradient>
    <linearGradient id="linear-gradient-10" x1="90.33" y1="-219.31" x2="86.94" y2="-184.03" gradientTransform="translate(0 251)" gradientUnits="userSpaceOnUse">
      <stop offset="0" stop-color="#bbc4ce"/>
      <stop offset=".14" stop-color="#b3bdc8"/>
      <stop offset=".36" stop-color="#9ea9b7"/>
      <stop offset=".63" stop-color="#7b899c"/>
      <stop offset=".94" stop-color="#4a5e76"/>
      <stop offset="1" stop-color="#40546e"/>
    </linearGradient>
    <linearGradient id="linear-gradient-11" x1="26.39" y1="-172.75" x2="26.39" y2="-231.35" gradientTransform="translate(0 251)" gradientUnits="userSpaceOnUse">
      <stop offset=".06" stop-color="#004a7e"/>
      <stop offset=".18" stop-color="#003b6a"/>
      <stop offset=".38" stop-color="#002951"/>
      <stop offset=".5" stop-color="#002248"/>
    </linearGradient>
    <linearGradient id="linear-gradient-12" x1="14.49" y1="-175.76" x2="31.14" y2="-233.71" gradientTransform="translate(0 251)" gradientUnits="userSpaceOnUse">
      <stop offset="0" stop-color="#00548c"/>
      <stop offset=".08" stop-color="#0c6098"/>
      <stop offset=".24" stop-color="#2b81b6"/>
      <stop offset=".44" stop-color="#5eb5e8"/>
      <stop offset=".53" stop-color="#75cdff"/>
      <stop offset=".64" stop-color="#72ccff"/>
      <stop offset=".72" stop-color="#68c9ff"/>
      <stop offset=".8" stop-color="#58c4fe"/>
      <stop offset=".86" stop-color="#41bdfe"/>
      <stop offset=".93" stop-color="#23b4fe"/>
      <stop offset=".99" stop-color="#00a9fd"/>
    </linearGradient>
    <linearGradient id="linear-gradient-13" x1="27.38" y1="-234.74" x2="8.4" y2="-209.65" gradientTransform="translate(0 251)" gradientUnits="userSpaceOnUse">
      <stop offset=".61" stop-color="#002248"/>
      <stop offset=".7" stop-color="#002951"/>
      <stop offset=".85" stop-color="#003b6a"/>
      <stop offset=".94" stop-color="#004a7e"/>
    </linearGradient>
    <linearGradient id="linear-gradient-14" x1="4.93" y1="-223.17" x2="26.97" y2="-223.17" gradientTransform="translate(0 251)" gradientUnits="userSpaceOnUse">
      <stop offset=".53" stop-color="#75cdff"/>
      <stop offset=".64" stop-color="#72ccff"/>
      <stop offset=".72" stop-color="#68c9ff"/>
      <stop offset=".8" stop-color="#58c4fe"/>
      <stop offset=".86" stop-color="#41bdfe"/>
      <stop offset=".93" stop-color="#23b4fe"/>
      <stop offset=".99" stop-color="#00a9fd"/>
    </linearGradient>
    <linearGradient id="linear-gradient-15" x1="38.84" y1="-182.1" x2="45.66" y2="-153.09" gradientTransform="translate(0 251)" gradientUnits="userSpaceOnUse">
      <stop offset="0" stop-color="#d6d6d6"/>
      <stop offset=".16" stop-color="#dedede"/>
      <stop offset=".41" stop-color="#f3f3f3"/>
      <stop offset=".53" stop-color="#fff"/>
      <stop offset=".86" stop-color="#e3e3e3"/>
      <stop offset="1" stop-color="#d6d6d6"/>
    </linearGradient>
    <linearGradient id="linear-gradient-16" x1="51.27" y1="-230.33" x2="41.02" y2="-207.47" gradientTransform="translate(0 251)" gradientUnits="userSpaceOnUse">
      <stop offset=".13" stop-color="#8dd5f9"/>
      <stop offset=".29" stop-color="#80d3fd"/>
      <stop offset=".44" stop-color="#7bd2ff"/>
      <stop offset=".79" stop-color="#96d9ff"/>
    </linearGradient>
    <linearGradient id="linear-gradient-17" x1="38.25" y1="-155.4" x2="38.25" y2="-226.59" gradientTransform="translate(0 251)" gradientUnits="userSpaceOnUse">
      <stop offset="0" stop-color="#d6d6d6"/>
      <stop offset=".18" stop-color="#eaeaea"/>
      <stop offset=".37" stop-color="#fafafa"/>
      <stop offset=".53" stop-color="#fff"/>
      <stop offset=".67" stop-color="#fbfbfb"/>
      <stop offset=".82" stop-color="#eee"/>
      <stop offset=".98" stop-color="#dadada"/>
      <stop offset="1" stop-color="#d6d6d6"/>
    </linearGradient>
    <linearGradient id="linear-gradient-18" x1="56.08" y1="-221.27" x2="56.08" y2="-232.12" xlink:href="#linear-gradient-17"/>
    <linearGradient id="linear-gradient-19" x1="67.48" y1="-200.96" x2="67.48" y2="-231.74" xlink:href="#linear-gradient-17"/>
    <linearGradient id="linear-gradient-20" x1="77.1" y1="-154.44" x2="77.1" y2="-224.5" xlink:href="#linear-gradient-17"/>
    <linearGradient id="linear-gradient-21" x1="24.51" y1="-173.7" x2="24.51" y2="-226.1" xlink:href="#linear-gradient-17"/>
    <linearGradient id="linear-gradient-22" x1="5.53" y1="-223.2" x2="27.23" y2="-223.2" xlink:href="#linear-gradient-17"/>
  </defs>
  <rect class="cls-2" x="0" width="421.2" height="117"/>
  <path class="cls-19" d="M10.55,85.6c6.93-1.17,7.67,8.58,1.53,9.11s-6.82-8.21-1.53-9.11Z"/>
  <g id="Layer_3" data-name="Layer 3">
    <g>
      <g>
        <ellipse class="cls-13" cx="54.8" cy="101.54" rx="53.34" ry="4.38"/>
        <path class="cls-25" d="M29.57,55.02c-4.9,6.53-6.85,17.79-2.8,27.75,3.97,9.8,11.44,13.87,11.67,14-9-2.62-15.46-12.14-17.58-21.32-2.13-9.21,.05-18.02,6.51-25.59,3.19-3.73,8.09-7.7,11.95-12.08,.49,1.94,1.06,3.89,1.76,5.78h0c-4.2,4.12-8.58,7.55-11.51,11.46h0Z"/>
        <path class="cls-11" d="M51.71,20.87l-4.15,1.61c-.18-1.74-.75-2.8-.75-2.8l3.94-.62c.39,.57,.7,1.17,.96,1.82h0Z"/>
        <path class="cls-1" d="M32.01,56.5c-4.07,6.09-6.61,17.3-.39,27.33,.73,1.89,1.71,3.86,3.01,5.83,1.22,1.84,2.49,3.37,3.79,4.62l.03,2.49c-.23-.13-7.7-4.2-11.67-14-4.05-9.96-2.07-21.21,2.8-27.75,4.9-6.53,13.82-11.7,19.14-20.98,2.39-4.18,3.4-7.21,3.55-9.57,.13,.49,1.17,5.21-1.66,10.79-2.98,5.89-14.34,14.83-18.59,21.24h0Z"/>
        <path class="cls-24" d="M64.4,39.64h0c-2.36,5.65-6.92,10.45-9.47,12.91-1.09,1.06-2.96,2.8-5.06,4.98-2.15-2.23-4.07-4.69-5.65-7.36,1.97-2.13,3.92-4.3,5.65-6.61,2.98-3.99,6.07-8.64,7.16-13.28,.78-3.32,.57-6.61-1.4-9.67h5.08c.62,.6,1.32,1.37,2,2.31,.78,1.06,1.53,2.36,2.1,3.86,.6,1.56,1.04,3.35,1.12,5.34,.1,2.57-.52,5.11-1.53,7.52h0Z"/>
        <path class="cls-27" d="M51.61,100.32s-6.66,.39-13.2-6.04c-1.27-1.27-2.57-2.77-3.79-4.62-1.3-1.97-2.31-3.92-3.01-5.83-1.09-2.88-1.53-5.65-1.53-8.27,0-4.3,1.22-8.22,2.9-11.64,2.33-4.64,6.82-9.02,11.23-13.74,1.58,2.67,3.5,5.16,5.65,7.36-2.46,2.57-5.24,5.76-7.47,9.13,0,0-.05,.08-.16,.23-2.1,3.22-3.66,6.61-3.92,9.8-.65,8.04,.83,14.5,8.61,20.54l.03,.03,.03,.03c1.35,.99,2.88,2.02,4.62,3.03h0Z"/>
        <path class="cls-11" d="M60.69,20.58h-5.08c-.34-.52-.73-1.04-1.17-1.53h4.41s.8,.52,1.84,1.53Z"/>
        <path class="cls-9" d="M57.03,30.28c0-4.51-2.59-6.79-2.59-6.79v-4.43c.44,.52,.83,1.01,1.17,1.53,2,3.06,2.2,6.38,1.43,9.7Z"/>
        <path class="cls-16" d="M64.4,39.64c-.08,.36-1.56,6.28-9.44,14.16-7.18,7.18-14.44,14.18-14.29,22.79,.13,6.53,2.26,12.16,7.05,16.1,1.01,1.82,2.46,3.71,4.51,5.78l-.62,1.84c-1.74-1.01-3.27-2.05-4.62-3.09l-.03-.03-.03-.03c-.49-.47-6.51-5.63-8.04-13.35-1.79-8.92,2.54-15.69,3.35-16.96,.1-.16,.16-.23,.16-.23,4.1-6.22,10.14-11.82,12.53-14.11,2.54-2.44,7.11-7.23,9.47-12.89h0Z"/>
        <path class="cls-11" d="M77.46,26.86c-6.48-4.1-11.51-5.03-12.47-5.19-.29-.26-.54-.54-.86-.8-.34-.31-1.01-1.14-1.45-1.24,4.36,.99,10.32,3.11,14.78,7.23Z"/>
        <path class="cls-8" d="M58.59,88.86c-.31,6.77,4.88,10.63,4.88,10.63-3.29,1.22-8.76,1.3-8.76,1.3-.91-.8-1.71-1.56-2.46-2.31-2.05-2.07-3.5-3.97-4.51-5.78-3.35-6.02-2.83-13.85,.49-19.73,1.01-1.82,2.2-3.53,3.47-5.19,.36-.47,4.1-5.26,4.28-5.13,4.05,2.72,8.61,4.67,13.48,5.55-1.48,1.56-2.8,3.06-3.97,4.69-2.72,3.81-6.02,8.4-6.77,14.39-.08,.52-.1,1.06-.13,1.58h0Z"/>
        <path class="cls-21" d="M83.84,40.65c-.1-1.09-.26-2.23-.49-3.42-.73-3.68-2.39-6.64-4.56-9.02-.41-.47-.88-.91-1.35-1.35-6.48-4.1-11.51-5.03-12.47-5.19,.88,.86,1.74,1.79,2.52,2.75,5.81,7.26,5.76,17.84,.47,25.36-1.37,1.94-3.01,3.73-4.75,5.39-2.2,2.15-4.56,4.51-6.77,6.95-.16,.18-.31,.36-.47,.52,4.05,2.72,8.61,4.67,13.48,5.55,.21-.21,.41-.44,.62-.65,2.13-2.18,4.49-4.49,7.08-7.34,3.81-4.2,7.52-10.19,6.69-19.55Z"/>
        <path class="cls-28" d="M63.46,99.49s-5.19-3.86-4.88-10.63c.03-.54,.08-1.06,.13-1.58,.65,5.47,4.28,8.17,4.28,8.17l.47,4.05Z"/>
        <path class="cls-9" d="M67.97,49.78c-1.37,1.94-3.01,3.73-4.75,5.39,4.9-6.38,7.47-11.31,6.51-18.8-.6-4.56-3.06-7.81-4.93-9.62-.6-1.5-1.35-2.8-2.1-3.86v-3.29c.39,.31,1.14,.93,1.45,1.24,.29,.26,.57,.52,.86,.8,.88,.86,1.74,1.79,2.52,2.75,5.78,7.26,5.73,17.87,.44,25.39h0Z"/>
        <path class="cls-17" d="M85.84,86.91c-10.68,9.85-19.55,12.06-19.55,12.06,0,0-.57-.91-1.17-2.49-2.7-12.84,9.36-22.53,14.7-27.85l.57-.57c.21,0,5.91,.05,10.61-4.77,5.5-5.63,5.47-18.7-6.3-30.96-2.31-3.4-4.72-5.32-4.88-5.45,.34,.21,11.36,6.85,15.69,22.2,5.29,18.72-3.68,32.31-9.67,37.83h0Z"/>
        <path class="cls-22" d="M80.42,68.01c-.18,.21-.39,.39-.57,.57-5.34,5.34-17.4,15.01-14.7,27.85-.96-2.49-2-6.59-1.12-11.23,1.45-7.62,9.18-13.74,14.99-20.33,5.47-6.2,8.35-16.1,4.82-24.25-.1-1.09-.26-2.23-.49-3.42-.73-3.68-2.39-6.64-4.56-9.02l1.04-1.35h0c.16,.13,2.57,2.05,4.88,5.45,1.94,2.85,3.81,6.72,4.25,11.44,.96,10.19-3.42,18.93-8.53,24.3h0Z"/>
        <path class="cls-12" d="M91.03,63.27c-4.69,4.82-10.4,4.77-10.61,4.77,5.11-5.39,9.49-14.13,8.56-24.27-.44-4.72-2.31-8.58-4.25-11.44,11.77,12.24,11.8,25.31,6.3,30.94h0Z"/>
        <path class="cls-10" d="M40.67,25.38c-.62,2.83-5.83,7.86-9.65,11.49s-13.2,12.19-14.24,20.64c-1.04,8.45,.93,14.08,2.75,18.13l-4.15,2.62c-7.39-18.54-1.17-28.99,3.81-34.83,5.29-6.2,14.83-14.06,18.23-18.2,1.87-2.31,2.26-4.25,2.23-5.58,.08,.13,1.61,2.98,1.01,5.73h0Z"/>
        <path class="cls-29" d="M39.66,19.62c.03,1.3-.36,3.27-2.23,5.58-3.37,4.18-12.91,12.03-18.23,18.2-5,5.83-11.2,16.29-3.81,34.83-11.02-18.54-1.92-32.34,3.94-38.33s10.74-10.24,14.81-14.99c3.22-3.73,2.39-5.89,2.39-5.89l2.83-1.12s.29,.65,.31,1.71h0Z"/>
        <path class="cls-30" d="M29.15,19.62s-.29,2.13-4.1,5.03c-3.58,2.72-13.23,11.07-14.86,17.04l-4.43-1.22c1.4-4.28,3.66-7.18,6.9-10.53s9.65-8.09,12.24-10.89c2.41-2.59,2.07-3.71,2-3.86l2.26,4.43h0Z"/>
        <path class="cls-6" d="M24.93,19.05c-2.59,2.8-9,7.55-12.24,10.89-3.24,3.35-5.5,6.28-6.9,10.53l-.86-.23s.86-3.53,4.69-8.56c3.42-4.51,8.51-7.94,11.46-10.58,2.65-2.36,5.83-5.91,5.83-5.91h0c.05,.16,.39,1.27-2,3.86Z"/>
        <path class="cls-18" d="M64.99,21.67c-.1-.03-.16-.03-.16-.03"/>
        <path class="cls-4" d="M46.97,97.21c-7.78-6.02-9.26-12.5-8.61-20.54,.26-3.19,1.82-6.59,3.92-9.8-.8,1.3-4.56,8.14-3.01,17.12,1.56,8.69,7.18,12.76,7.7,13.23Z"/>
        <path class="cls-14" d="M52.26,24.47c-.16,2.36-.6,5.76-2.98,9.93-2.13,3.71-5.39,6.38-8.19,9.13-.7-1.89-1.27-3.84-1.76-5.78h0c2.85-2.93,4.3-4.59,5.81-6.79,2.07-3.03,2.62-6.56,2.44-8.48l4.15-1.61h0c.41,1.04,.62,2.2,.54,3.6Z"/>
        <path class="cls-3" d="M36.16,95.24c-5.65-4.15-9.75-10.42-11.25-17.35-.78-3.45-.91-7.05-.47-10.58s1.48-6.98,3.22-10.11c.86-1.56,1.94-3.01,3.14-4.33,1.19-1.32,2.44-2.54,3.73-3.73,2.59-2.36,5.26-4.62,7.81-7.03,2.52-2.39,4.93-4.95,6.85-7.86,.47-.73,.91-1.48,1.3-2.26,.36-.78,.7-1.58,.96-2.41,.52-1.66,.75-3.4,.88-5.16-.03,.88-.05,1.76-.16,2.62-.1,.88-.26,1.74-.49,2.59-.23,.86-.52,1.69-.88,2.49s-.78,1.58-1.22,2.36c-1.84,3.01-4.23,5.65-6.72,8.12s-5.16,4.75-7.7,7.13c-1.27,1.19-2.52,2.41-3.66,3.71s-2.18,2.67-3.01,4.18c-1.69,3.01-2.7,6.35-3.14,9.78-.47,3.42-.36,6.92,.31,10.32s1.97,6.66,3.76,9.65c1.71,3.01,4.05,5.65,6.74,7.88h0Z"/>
        <path class="cls-5" d="M57.16,29.68c.08-.96,.13-1.89,.1-2.83-.05-.93-.16-1.87-.39-2.75-.21-.91-.54-1.76-.96-2.62-.41-.83-.91-1.63-1.45-2.41,.7,.65,1.32,1.4,1.82,2.23,.49,.83,.88,1.74,1.12,2.67s.34,1.92,.29,2.88c-.05,.96-.23,1.92-.52,2.83h0Z"/>
        <path class="cls-26" d="M62.68,19.62c.57,.41,1.14,.83,1.69,1.3s1.06,.93,1.58,1.43,1.01,1.01,1.48,1.56c.23,.26,.47,.54,.67,.83l.65,.86c.8,1.19,1.53,2.46,2.05,3.81,.13,.34,.29,.67,.39,1.01l.31,1.04c.05,.18,.1,.34,.16,.52l.1,.52,.23,1.06c.21,1.43,.34,2.88,.26,4.3-.03,1.45-.29,2.88-.6,4.28-.7,2.77-1.97,5.42-3.76,7.65,1.45-2.44,2.49-5.06,3.06-7.81,.23-1.37,.44-2.75,.41-4.15,.05-1.4-.1-2.77-.31-4.15-.26-1.35-.57-2.72-1.12-3.99l-.18-.49-.1-.23-.1-.23-.44-.93c-.13-.31-.34-.62-.49-.91-.18-.31-.34-.6-.52-.91l-.6-.86c-.21-.29-.39-.57-.62-.86-.41-.54-.88-1.09-1.35-1.63-.47-.54-.93-1.04-1.43-1.56,0,0-1.43-1.45-1.43-1.45Z"/>
        <path class="cls-7" d="M79.85,26.86c1.32,1.04,2.49,2.23,3.58,3.5s2.05,2.67,2.88,4.12l.31,.54,.29,.57c.18,.39,.39,.75,.54,1.14l.47,1.17,.13,.29,.1,.31,.21,.6c.29,.8,.44,1.63,.65,2.44,.05,.21,.08,.41,.1,.62l.1,.62,.1,.62c.03,.1,.03,.21,.05,.31l.03,.31c.29,3.37,.05,6.77-.8,10.06-.18,.83-.47,1.63-.7,2.44-.13,.39-.29,.8-.44,1.19-.08,.21-.16,.39-.23,.6l-.26,.57c-.65,1.56-1.45,3.06-2.36,4.49-.44,.73-.93,1.4-1.43,2.1l-.78,.99c-.26,.34-.54,.65-.83,.96-.13,.16-.29,.31-.41,.47l-.44,.47c-.29,.31-.6,.62-.88,.91-.6,.6-1.19,1.17-1.82,1.74-1.22,1.14-2.41,2.28-3.58,3.47-1.17,1.19-2.28,2.41-3.32,3.68s-2.02,2.62-2.88,4.05c-.86,1.4-1.61,2.88-2.15,4.43-.57,1.56-.96,3.16-1.12,4.82-.16,1.66-.08,3.32,.21,4.98-.8-3.24-.57-6.74,.47-9.93,1.04-3.22,2.85-6.12,4.9-8.79,2.07-2.65,4.46-5.03,6.85-7.36l1.79-1.74c.31-.29,.57-.6,.86-.88l.41-.44c.13-.16,.26-.31,.41-.47,.26-.31,.54-.62,.8-.93l.75-.99,.7-1.01c.23-.34,.44-.7,.67-1.04,3.53-5.55,5.34-12.21,4.85-18.8l-.03-.31c0-.1-.03-.21-.03-.31l-.08-.62-.08-.62c-.03-.21-.05-.41-.1-.6-.18-.8-.31-1.61-.57-2.39l-.18-.6-.08-.29-.1-.29-.44-1.17c-.16-.39-.34-.75-.49-1.14l-.26-.57-.29-.54c-.75-1.48-1.66-2.88-2.67-4.18-.26-.34-.52-.65-.78-.96-.29-.31-.54-.62-.83-.93-.57-.54-1.17-1.14-1.79-1.69h0Z"/>
        <path class="cls-15" d="M37.43,25.2c-.78,1.04-1.66,1.97-2.54,2.9-.88,.93-1.79,1.84-2.7,2.75-1.82,1.82-3.68,3.6-5.52,5.39-1.84,1.79-3.66,3.6-5.39,5.47-.44,.47-.86,.93-1.27,1.43-.41,.47-.83,.96-1.22,1.45-.8,.99-1.53,2.02-2.2,3.09-1.35,2.15-2.41,4.46-3.11,6.9-.73,2.44-1.06,4.95-1.12,7.49-.05,2.54,.21,5.08,.67,7.6,.23,1.24,.52,2.52,.86,3.73,.31,1.24,.62,2.49,1.04,3.71-.52-1.17-.93-2.41-1.32-3.63-.18-.62-.39-1.22-.57-1.84-.18-.62-.34-1.24-.49-1.87-.29-1.27-.52-2.54-.67-3.81-.16-1.3-.26-2.59-.26-3.89,0-2.59,.31-5.21,1.01-7.73,.7-2.52,1.79-4.93,3.16-7.13,.7-1.09,1.45-2.15,2.28-3.16,.41-.52,.83-1.01,1.27-1.48,.21-.23,.41-.49,.65-.73l.67-.7c1.79-1.87,3.63-3.66,5.52-5.39,1.89-1.76,3.81-3.47,5.71-5.19,1.92-1.74,3.84-3.47,5.55-5.37h0Z"/>
        <path class="cls-23" d="M26.92,15.16c.13,.34,.05,.7-.03,1.04-.1,.34-.26,.67-.44,.96-.34,.62-.78,1.19-1.24,1.71-.91,1.06-1.97,2.02-3.01,2.96-2.1,1.87-4.28,3.63-6.38,5.47-1.06,.91-2.1,1.84-3.06,2.85-.99,.99-1.92,2.02-2.83,3.09-1.79,2.13-3.22,4.56-4.18,7.21,.39-1.35,.91-2.67,1.56-3.92,.31-.62,.7-1.22,1.06-1.82,.39-.6,.8-1.17,1.24-1.71,.86-1.12,1.82-2.15,2.77-3.19,.99-1.01,2.02-1.97,3.09-2.9,2.13-1.84,4.3-3.6,6.46-5.39,.54-.44,1.06-.91,1.58-1.37,.26-.23,.52-.47,.78-.7,.23-.26,.49-.49,.73-.75,.47-.49,.93-1.04,1.3-1.63,.18-.29,.34-.6,.47-.93,.13-.26,.23-.6,.13-.96h0Z"/>
      </g>
      <path d="M136.56,59.51h-7.55c-6.3,0-11.44-5.13-11.44-11.44v-.8c0-6.3,5.13-11.44,11.44-11.44h7.55c6.3,0,11.44,5.13,11.44,11.44v.8c0,6.3-5.13,11.44-11.44,11.44Zm-7.52-21.52c-5.13,0-9.28,4.18-9.28,9.28v.8c0,5.13,4.18,9.28,9.28,9.28h7.55c5.13,0,9.28-4.18,9.28-9.28v-.8c0-5.13-4.18-9.28-9.28-9.28h-7.55Z"/>
      <polygon points="181.27 35.83 168.54 57.72 155.68 35.83 153.37 35.83 153.37 59.51 155.52 59.51 155.52 39.8 167.09 59.51 169.96 59.51 181.43 39.82 181.43 59.51 183.58 59.51 183.58 35.83 181.27 35.83"/>
      <polygon points="215.66 35.83 215.66 57.46 193.3 35.83 190.84 35.83 190.84 59.51 192.86 59.51 192.86 38.21 214.88 59.51 217.68 59.51 217.68 35.83 215.66 35.83"/>
      <rect x="224.91" y="35.83" width="2.02" height="23.68"/>
      <rect x="232.9" y="34.64" width="4.38" height="26.09"/>
      <rect x="257.87" y="34.64" width="4.38" height="26.09"/>
      <rect x="267.13" y="34.64" width="4.38" height="26.09"/>
      <rect x="234.52" y="45.49" width="26.09" height="4.38"/>
      <rect x="388.21" y="34.64" width="4.38" height="26.09"/>
      <rect x="413.2" y="34.64" width="4.38" height="26.09"/>
      <rect x="389.84" y="45.48" width="26.09" height="4.38"/>
      <rect x="267.14" y="34.63" width="26.09" height="4.38"/>
      <rect x="368.73" y="34.64" width="4.75" height="26.09"/>
      <rect x="356.74" y="34.62" width="29.1" height="4.38"/>
      <rect x="267.13" y="45.48" width="26.09" height="4.38"/>
      <rect x="300.09" y="51.73" width="23.44" height="4.38"/>
      <rect x="267.14" y="56.34" width="26.09" height="4.38"/>
      <rect x="330.27" y="34.64" width="4.38" height="26.09"/>
      <rect x="330.29" y="56.33" width="26.09" height="4.38"/>
      <polygon points="294.44 60.72 309.45 34.64 314.25 34.64 329.19 60.72 323.74 60.72 312.17 40.45 311.4 40.45 299.8 60.72 294.44 60.72"/>
      <g>
        <path class="cls-20" d="M118.44,67.28h7.08c2.18-.1,4.3,1.24,5.24,3.22,.75,1.58,.73,3.5-.1,5.03-.91,1.76-2.83,2.98-4.82,3.01h-7.36c-.03-3.76-.03-7.49-.03-11.25Zm1.94,1.92v7.39h5.24c.52,0,1.04-.08,1.5-.29,1.45-.6,2.41-2.2,2.23-3.76-.1-1.04-.67-2.02-1.5-2.62-.65-.47-1.43-.73-2.23-.73h-5.24Z"/>
        <path class="cls-20" d="M148.7,67.28h1.92v11.25h-1.92v-11.25Z"/>
        <path class="cls-20" d="M174.45,67.28c.47,0,.96-.03,1.43,0,2.2,3.76,4.46,7.49,6.66,11.25h-2.39c-.41-.73-.88-1.45-1.3-2.18-.49-.05-.99-.03-1.45-.03-2,.03-3.97-.03-5.96,.03-.41,.73-.86,1.45-1.27,2.18h-2.41c2.23-3.76,4.49-7.49,6.69-11.25Zm.65,2.88c-.83,1.4-1.66,2.83-2.49,4.23,1.71,0,3.4,.05,5.11,0-.86-1.4-1.69-2.83-2.52-4.23-.03-.03-.08,0-.1,0Z"/>
        <path class="cls-20" d="M202.15,67.6c1.3-.47,2.7-.26,4.02-.31,1.43-.05,2.88,.34,3.99,1.27,.62,.52,1.14,1.19,1.43,1.97-.6,.23-1.19,.49-1.79,.73-.39-.83-1.12-1.53-2-1.82-.78-.29-1.63-.21-2.44-.23-.91,0-1.87-.08-2.72,.31-1.01,.41-1.74,1.37-1.94,2.46-.18,.99-.13,2.05,.36,2.96,.39,.73,1.06,1.27,1.84,1.5,.7,.23,1.43,.18,2.15,.18,.6,0,1.19,.03,1.76,0,1.12-.05,2.23-.65,2.8-1.63,.18-.23,.08-.52,.08-.78-1.45-.03-2.9,.03-4.38-.03,0-.57,.03-1.14,.03-1.71,1.82-.08,3.63,.03,5.45-.03,.29-.03,.6,0,.88,.03v6.07h-1.71c0-.34-.03-.65-.05-.99-1.06,.7-2.33,1.04-3.6,.99-1.45-.05-2.98,.18-4.36-.39-1.5-.54-2.65-1.92-3.01-3.47-.36-1.5-.29-3.14,.36-4.54,.54-1.19,1.61-2.13,2.85-2.54h0Z"/>
        <path class="cls-20" d="M230.57,67.28h2.59c2.62,3.01,5.26,5.99,7.88,9,.03-3.01,0-5.99,0-9h2.05v11.25h-2.7c-2.59-3.03-5.24-6.02-7.81-9.08,.03,3.03,.03,6.04,.03,9.08h-2.05c-.03-3.76-.03-7.49,0-11.25Z"/>
        <path class="cls-20" d="M266.07,67.28c.6-.03,1.17,0,1.76,0,.96,0,1.94-.05,2.88,.23,1.53,.39,2.88,1.45,3.5,2.85,.7,1.56,.73,3.37,.08,4.95-.52,1.35-1.71,2.41-3.14,2.88-1.48,.52-3.06,.29-4.62,.34-1.53,.05-3.14-.41-4.23-1.48-1.24-1.19-1.69-2.96-1.58-4.59,.08-1.27,.52-2.57,1.45-3.53,.99-1.06,2.44-1.63,3.89-1.66h0Zm0,1.94c-1.06,.05-2.13,.57-2.7,1.45-.57,.86-.7,1.92-.6,2.9,.1,.75,.39,1.5,.96,2.05,.65,.65,1.61,.99,2.57,.99h2.83c1.01,0,2.05-.39,2.72-1.12,.49-.52,.78-1.19,.88-1.89,.1-.83,.05-1.69-.34-2.46-.44-.91-1.32-1.58-2.33-1.82-.67-.18-1.4-.13-2.1-.13-.65,0-1.27-.03-1.89,.03h0Z"/>
        <path class="cls-20" d="M294.05,67.88c1.04-.52,2.26-.6,3.42-.62h4.36c1.17,.03,2.41,.18,3.37,.86,.7,.49,1.04,1.32,1.04,2.13h-2.07c-.05-.47-.47-.78-.93-.91-1.17-.34-2.44-.23-3.63-.23-1.12,.03-2.26-.08-3.37,.08-.65,.1-1.43,.36-1.63,1.01-.13,.47,0,1.06,.47,1.35,.44,.29,1.01,.34,1.56,.36,1.97,.08,3.97-.05,5.94,.1,1.06,.1,2.15,.41,2.93,1.14,.78,.75,.99,1.89,.75,2.88-.16,.78-.73,1.48-1.5,1.87-1.12,.54-2.41,.65-3.63,.65-1.43,0-2.83,.03-4.25,0-1.17-.05-2.39-.23-3.32-.91-.7-.47-1.06-1.27-1.04-2.05h2.05c.08,.31,.23,.6,.57,.73,.8,.39,1.74,.39,2.62,.41h3.92c.75-.03,1.56-.08,2.15-.54,.41-.31,.49-.86,.34-1.32-.16-.41-.6-.67-1.04-.8-.96-.29-1.94-.16-2.93-.18-1.69-.03-3.4,.13-5.06-.26-.88-.21-1.76-.65-2.23-1.37-.52-.8-.57-1.84-.29-2.72,.18-.73,.75-1.3,1.45-1.63h0Z"/>
        <path class="cls-20" d="M406.13,67.88c1.04-.52,2.26-.6,3.42-.62h4.36c1.17,.03,2.41,.18,3.37,.86,.7,.49,1.04,1.32,1.04,2.13h-2.07c-.05-.47-.47-.78-.93-.91-1.17-.34-2.44-.23-3.63-.23-1.12,.03-2.26-.08-3.37,.08-.65,.1-1.43,.36-1.63,1.01-.13,.47,0,1.06,.47,1.35,.44,.29,1.01,.34,1.56,.36,1.97,.08,3.97-.05,5.94,.1,1.06,.1,2.15,.41,2.93,1.14,.78,.75,.99,1.89,.75,2.88-.16,.78-.73,1.48-1.5,1.87-1.12,.54-2.41,.65-3.63,.65-1.43,0-2.83,.03-4.25,0-1.17-.05-2.39-.23-3.32-.91-.7-.47-1.06-1.27-1.04-2.05h2.05c.08,.31,.23,.6,.57,.73,.8,.39,1.74,.39,2.62,.41h3.92c.75-.03,1.56-.08,2.15-.54,.41-.31,.49-.86,.34-1.32-.16-.41-.6-.67-1.04-.8-.96-.29-1.94-.16-2.93-.18-1.69-.03-3.4,.13-5.06-.26-.88-.21-1.76-.65-2.23-1.37-.52-.8-.57-1.84-.29-2.72,.18-.73,.73-1.3,1.45-1.63h0Z"/>
        <path class="cls-20" d="M323.92,67.28h12.63v1.92h-5.26v9.34h-2.07v-9.34h-5.26c-.03-.65-.03-1.27-.03-1.92h0Z"/>
        <path class="cls-20" d="M353.72,67.28h1.92v11.25h-1.92v-11.25Z"/>
        <path class="cls-20" d="M377.57,67.44c.83-.21,1.69-.16,2.54-.16,1.01,.03,2.07-.08,3.06,.21,1.61,.39,3.01,1.5,3.6,3.01-.62,.23-1.24,.49-1.87,.73-.6-1.32-2.1-2.1-3.55-2.02-1.12,.05-2.28-.13-3.37,.16-.88,.23-1.66,.8-2.07,1.58-.49,.91-.52,1.97-.36,2.96,.18,1.01,.86,1.97,1.87,2.39,.91,.44,1.94,.34,2.9,.34,.91-.03,1.87,.1,2.75-.26,.83-.31,1.5-.93,1.87-1.74,.62,.23,1.27,.47,1.89,.73-.49,1.22-1.53,2.23-2.77,2.75-.93,.39-1.97,.52-2.98,.47-1.4-.03-2.88,.16-4.23-.39-1.61-.57-2.8-1.97-3.16-3.55-.36-1.61-.26-3.37,.6-4.82,.67-1.19,1.92-2.05,3.29-2.36h0Z"/>
      </g>
    </g>
  </g>
</svg>