<?xml version="1.0" encoding="UTF-8"?>
<svg id="Layer_1" data-name="Layer 1" xmlns="http://www.w3.org/2000/svg" viewBox="0 0 421.2 117">
  <defs>
    <style>
      .cls-1 {
        fill: #343434;
      }

      .cls-2 {
        fill: #fff;
      }

      .cls-3 {
        fill: #4890b5;
      }
    </style>
  </defs>
  <rect class="cls-2" x="0" width="421.2" height="117"/>
  <g id="Layer_1-2" data-name="Layer 1">
    <g>
      <path class="cls-3" d="M265.08,48.7l-16.77-21.01-4.65,3.22-13.34-12.18-2.74,2.6-.07,3.49-3.83,3.97,4.31-1.57,2.53-.34,.75-2.19-1.57-.41-.34-1.1,1.3-2.05,9.24,10.06-5.41,3.42-2.74,5.06,3.15,4.17-8.52-8.01-8.48-.11-3.87-4.03,1.66-2.03-5.32-8.12h3.49l.75,.91,3.22-.46-3.66-6.41,.85-3.66-.8-5.61,6.36,.7-6.07-5.02-11.42,8.83-4.36-1.5s-5.56,8.87-6.86,10.17-8.12,6.46-8.12,6.46h-6.91l-6.06,9.62s-3.71,2.86-7.16,5.81c-3.46,2.96-11.77,9.37-12.62,9.97s-3.36,1.8-5.31,2.35-10.82,3.36-10.82,3.36l18.51-.91,18.89-6.16-2.53-6.64h6.64v-8.14l7.19-.89v5.95l-6.02,9.92,12.18-11.77h5.13v.89l-10.95,11.84,15.88-10.81h10.2l-3.35-3.9,5.2-3.42,3.63,3.49,3.49,9.85,.48-6.57,5,.48,9.65,4.17-7.19,6.02,17.11-5.89,6.43,.07-2.87-4.93,.96,.34,.55-5.47,12.25,14.71-8.42,7.05,13.34-2.19,17.38,2.19-18.55-7.66h0Zm-66.25-16.71l1.71-2.32-4.51-4.79,4.2-12.4,5.13,3.06-2.44,9.13,2.9,3.73-7,3.58h0Z"/>
      <g>
        <path class="cls-1" d="M147.37,63.29c2.36,1.95,3.56,4.54,3.56,7.82,0,2.01-.46,3.91-1.38,5.75s-2.53,3.39-4.77,4.6-5.23,1.84-8.96,1.84h-4.42v9.77c0,1.38,.17,2.36,.46,2.99s.8,1.03,1.55,1.26c.46,.11,1.15,.23,2.01,.29v1.21h-12.35v-1.26c.52-.06,.92-.17,1.26-.29,.63-.23,1.03-.63,1.26-1.26,.23-.63,.34-1.61,.34-2.99v-26.83c0-1.38-.11-2.36-.34-2.99s-.63-1.03-1.26-1.26c-.34-.11-.75-.23-1.26-.29v-1.26l13.91,.06c4.48,0,7.93,.98,10.29,2.93l.11-.06h0Zm-2.18,8.39c0-3.51-.75-6.09-2.24-7.76-1.49-1.67-3.91-2.47-7.3-2.47-1.21,0-2.07,.11-2.64,.34s-.98,.69-1.21,1.32-.34,1.61-.34,2.93v14.19c-.06,.11-.69,1.84-2.53,1.84h6.38c3.73,0,6.32-.92,7.76-2.82,1.44-1.9,2.13-4.42,2.13-7.59h0Z"/>
        <path class="cls-1" d="M194.72,98.74h-27.93v-1.21c.57-.06,1.03-.17,1.38-.29,.63-.23,1.03-.63,1.26-1.26s.34-1.61,.34-2.99v-26.83c0-1.38-.11-2.36-.34-2.99s-.63-1.03-1.26-1.26c-.34-.11-.8-.23-1.38-.29v-1.21h26.72v7.99h-1.55c-.23-1.49-.52-2.64-.8-3.51-.4-1.15-1.09-1.95-2.07-2.47-.98-.52-2.47-.8-4.48-.8h-4.77c-1.38,0-2.36,.11-2.99,.29s-1.03,.57-1.26,1.21c-.23,.63-.34,1.61-.34,2.99v10.98c-.11,.23-.75,1.78-2.53,1.78h6.32c1.32,0,2.36-.29,3.1-.86,.75-.57,1.21-1.26,1.44-2.07,.17-.63,.34-1.44,.46-2.36h1.61l.11,11.84h-1.55c-.06-.29-.11-.57-.17-.92-.17-1.49-.69-2.64-1.55-3.39-.86-.75-2.07-1.15-3.62-1.15h-3.79v12.99c0,1.38,.11,2.36,.34,2.99s.63,1.03,1.26,1.21c.63,.17,1.61,.29,2.99,.29h4.19c2.36,0,4.19-.29,5.46-.86,1.26-.57,2.18-1.55,2.76-2.87,.46-.98,.8-2.36,1.09-4.08h1.55v9.14h0Z"/>
        <path class="cls-1" d="M240.97,97.71h5.57v1.09h-12.41v-1.15c.92-.11,1.61-.29,2.07-.46,.63-.29,.92-.8,.92-1.55,0-.63-.23-1.49-.69-2.59l-3.51-8.91h-13.91l-2.36,5.75c-.75,1.95-1.15,3.45-1.15,4.48,0,1.09,.4,1.9,1.21,2.41,.46,.29,1.09,.52,1.9,.63v1.26h-9.08v-1.09c1.9-.46,3.39-2.01,4.48-4.71l13.39-32.52h1.15l13.91,33.79c.29,.63,.57,1.21,.92,1.67-.06,.23-.69,1.84-2.47,1.84l.06,.06h0Zm-8.5-14.54l-6.44-16.2-6.55,16.2h12.99Z"/>
        <path class="cls-1" d="M291.83,96.67c.8,.52,1.78,.92,2.93,1.15v1.09h-12.3v-1.09c.63-.06,1.15-.17,1.49-.34,.4-.17,.63-.46,.63-.8s-.17-.8-.57-1.32l-8.39-11.89c-1.09-1.61-2.01-2.64-2.76-3.1s-1.84-.75-3.22-.8v13.62c0,1.38,.11,2.36,.34,2.99s.63,1.03,1.26,1.26c.29,.11,.69,.23,1.21,.29v1.26h-11.09v-1.26c.52-.06,.92-.17,1.26-.29,.63-.23,1.03-.63,1.26-1.26s.34-1.61,.34-2.99v-26.83c0-1.38-.11-2.36-.34-2.99s-.63-1.03-1.26-1.26c-.34-.11-.75-.23-1.26-.29v-1.26h11.09v1.26c-.52,.06-.92,.17-1.26,.29-.63,.23-1.03,.63-1.26,1.26-.23,.63-.34,1.61-.34,2.99v10.34c-.11,.23-.75,1.78-2.53,1.78h2.53c2.82-.11,5-1.15,6.55-3.05l5.52-6.61c1.95-2.3,2.93-4.02,2.93-5.23,0-.92-.63-1.49-1.84-1.78v-1.26h7.99v1.49c-.63,.17-1.21,.4-1.78,.69-1.09,.57-2.18,1.49-3.22,2.76l-9.37,11.32,13.33,17.58c.63,.92,1.32,1.61,2.13,2.13v.17h0Z"/>
      </g>
      <g>
        <path class="cls-3" d="M131.47,110.88c-.06,.38-.12,.67-.17,.89-.09,.29-.23,.57-.42,.83-.26,.35-.63,.61-1.08,.79-.45,.17-.92,.26-1.4,.26-.63,0-1.19-.19-1.69-.55-.49-.36-.89-.9-1.16-1.61s-.42-1.57-.42-2.56,.13-1.83,.39-2.56c.26-.73,.63-1.28,1.09-1.67h-.03c.37-.3,.8-.49,1.28-.56v-.29c-.73,.05-1.4,.27-2,.64-.7,.44-1.25,1.03-1.64,1.8-.39,.77-.58,1.66-.58,2.66s.19,1.92,.57,2.66c.38,.74,.92,1.31,1.61,1.7,.7,.39,1.5,.6,2.42,.6,.57,0,1.05-.07,1.44-.22,.39-.14,.82-.36,1.25-.65,.13-.07,.23-.12,.3-.12,.1,0,.18,.06,.23,.17,.01,.04,.03,.1,.04,.17h.41v-2.39h-.45Zm-.68-5.73c.2,.23,.35,.48,.44,.74,.06,.19,.13,.47,.2,.83h.48v-2.27h-.41c-.07,.26-.17,.39-.31,.39-.07,0-.16-.04-.26-.13-.39-.28-.79-.49-1.19-.65-.18-.07-.38-.13-.6-.16v.3c.19,.04,.37,.1,.55,.16,.45,.17,.82,.44,1.11,.79h0Z"/>
        <path class="cls-3" d="M171,110.88c-.06,.38-.12,.67-.17,.89-.09,.29-.23,.57-.42,.83-.26,.35-.63,.61-1.08,.79-.45,.17-.92,.26-1.4,.26-.63,0-1.19-.19-1.69-.55-.49-.36-.89-.9-1.16-1.61s-.42-1.57-.42-2.56,.13-1.83,.39-2.56c.26-.73,.63-1.28,1.09-1.67h-.03c.37-.3,.8-.49,1.28-.56v-.29c-.73,.05-1.4,.27-2,.64-.7,.44-1.25,1.03-1.64,1.8-.39,.77-.58,1.66-.58,2.66s.19,1.92,.57,2.66c.38,.74,.92,1.31,1.61,1.7,.7,.39,1.5,.6,2.42,.6,.57,0,1.05-.07,1.44-.22,.39-.14,.82-.36,1.25-.65,.13-.07,.23-.12,.3-.12,.1,0,.18,.06,.23,.17,.01,.04,.03,.1,.04,.17h.41v-2.39h-.45Zm-.68-5.73c.2,.23,.35,.48,.44,.74,.06,.19,.13,.47,.2,.83h.48v-2.27h-.41c-.07,.26-.17,.39-.31,.39-.07,0-.16-.04-.26-.13-.39-.28-.79-.49-1.19-.65-.18-.07-.38-.13-.6-.16v.3c.19,.04,.37,.1,.55,.16,.45,.17,.82,.44,1.11,.79h0Z"/>
        <path class="cls-3" d="M286.53,110.88c-.06,.38-.12,.67-.17,.89-.09,.29-.23,.57-.42,.83-.26,.35-.63,.61-1.08,.79-.45,.17-.92,.26-1.4,.26-.63,0-1.19-.19-1.69-.55-.49-.36-.89-.9-1.16-1.61s-.42-1.57-.42-2.56,.13-1.83,.39-2.56c.26-.73,.63-1.28,1.09-1.67h-.03c.37-.3,.8-.49,1.28-.56v-.29c-.73,.05-1.4,.27-2,.64-.7,.44-1.25,1.03-1.64,1.8-.39,.77-.58,1.66-.58,2.66s.19,1.92,.57,2.66c.38,.74,.92,1.31,1.61,1.7,.7,.39,1.5,.6,2.42,.6,.57,0,1.05-.07,1.44-.22,.39-.14,.82-.36,1.25-.65,.13-.07,.23-.12,.3-.12,.1,0,.18,.06,.23,.17,.01,.04,.03,.1,.04,.17h.41v-2.39h-.45Zm-.68-5.73c.2,.23,.35,.48,.44,.74,.06,.19,.13,.47,.2,.83h.48v-2.27h-.41c-.07,.26-.17,.39-.31,.39-.07,0-.16-.04-.26-.13-.39-.28-.79-.49-1.19-.65-.18-.07-.38-.13-.6-.16v.3c.19,.04,.37,.1,.55,.16,.45,.17,.82,.44,1.11,.79h0Z"/>
        <path class="cls-3" d="M145.94,113.44v.31h-2.82v-.32c.13-.01,.23-.04,.32-.07,.16-.06,.26-.16,.32-.32,.06-.16,.09-.41,.09-.76v-6.79c0-.35-.03-.6-.09-.76-.06-.16-.16-.26-.32-.32-.09-.03-.19-.06-.32-.07v-.32h2.82v.32c-.13,.01-.23,.04-.32,.07-.16,.06-.26,.16-.32,.32-.06,.16-.09,.41-.09,.76v6.79c0,.31,.01,.54,.06,.7-.01,.06-.17,.47-.63,.47h1.29Z"/>
        <path class="cls-3" d="M156.22,104.07v.32c-.13,.03-.23,.06-.32,.1-.16,.07-.28,.2-.33,.38-.06,.17-.09,.44-.09,.79v8.12h-.38l-6.07-8.83v7.23c0,.35,.03,.61,.09,.79,.06,.17,.19,.31,.38,.38,.1,.04,.25,.07,.42,.1v.32h-1.95v-.32c.13-.03,.23-.06,.32-.1,.16-.07,.28-.2,.33-.38,.06-.17,.09-.44,.09-.79v-6.66c0-.35-.03-.6-.09-.76-.06-.16-.16-.26-.32-.32-.09-.03-.19-.06-.32-.07v-.32h2.05l5.14,7.46v-5.86c0-.35-.03-.61-.09-.79-.06-.17-.17-.31-.36-.38-.1-.04-.25-.07-.42-.1v-.32h1.92s0,.02,0,.02Z"/>
        <path class="cls-3" d="M161.12,113.44v.31h-2.82v-.32c.13-.01,.23-.04,.32-.07,.16-.06,.26-.16,.32-.32,.06-.16,.09-.41,.09-.76v-6.79c0-.35-.03-.6-.09-.76-.06-.16-.16-.26-.32-.32-.09-.03-.19-.06-.32-.07v-.32h2.82v.32c-.13,.01-.23,.04-.32,.07-.16,.06-.26,.16-.32,.32-.06,.16-.09,.41-.09,.76v6.79c0,.31,.01,.54,.06,.7-.01,.06-.17,.47-.63,.47h1.29Z"/>
        <path class="cls-3" d="M180.73,113.5h-.01c.45-.01,.61-.42,.63-.48-.09-.12-.16-.26-.23-.42l-3.52-8.55h-.29l-3.39,8.23c-.28,.68-.65,1.08-1.13,1.19v.28h2.3v-.32c-.2-.03-.36-.09-.48-.16-.2-.13-.31-.33-.31-.61,0-.26,.1-.64,.29-1.13l.6-1.46,1.77-4.35,1.75,4.35,.89,2.26c.12,.28,.17,.49,.17,.65,0,.19-.07,.32-.23,.39-.12,.04-.29,.09-.52,.12v.29h3.14v-.28h-1.41Z"/>
        <path class="cls-3" d="M221.44,113.5h-.01c.45-.01,.61-.42,.63-.48-.09-.12-.16-.26-.23-.42l-3.52-8.55h-.29l-3.39,8.23c-.28,.68-.65,1.08-1.13,1.19v.28h2.3v-.32c-.2-.03-.36-.09-.48-.16-.2-.13-.31-.33-.31-.61,0-.26,.1-.64,.29-1.13l.6-1.46,1.77-4.35,1.75,4.35,.89,2.26c.12,.28,.17,.49,.17,.65,0,.19-.07,.32-.23,.39-.12,.04-.29,.09-.52,.12v.29h3.14v-.28h-1.41Z"/>
        <path class="cls-3" d="M191,111.33c-.07,.47-.16,.83-.28,1.11-.15,.35-.38,.61-.7,.77-.1,.05-.22,.09-.35,.13,0,0,0,0,0,0-.05,.02-.52,.22-1.07,.44h2.81v-2.43l-.41-.02Zm-6.71-6.97c.13,.01,.23,.04,.32,.07,.16,.06,.26,.16,.32,.32,.06,.16,.09,.41,.09,.76v6.79c0,.35-.03,.6-.09,.76-.06,.16-.16,.26-.32,.32-.09,.03-.19,.06-.32,.07v.32h1.81c.14-.1,.28-.21,.41-.33h-.7c.48,0,.64-.47,.64-.47-.04-.16-.06-.38-.06-.67v-6.79c0-.35,.03-.6,.09-.76,.06-.16,.16-.26,.32-.32,.07-.03,.17-.06,.31-.07v-.32h-2.82v.32h0Z"/>
        <path class="cls-3" d="M140.65,111.33c-.07,.47-.16,.83-.28,1.11-.15,.35-.38,.61-.7,.77-.1,.05-.22,.09-.35,.13,0,0,0,0,0,0-.05,.02-.52,.22-1.07,.44h2.81v-2.43l-.41-.02Zm-6.71-6.97c.13,.01,.23,.04,.32,.07,.16,.06,.26,.16,.32,.32,.06,.16,.09,.41,.09,.76v6.79c0,.35-.03,.6-.09,.76-.06,.16-.16,.26-.32,.32-.09,.03-.19,.06-.32,.07v.32h1.81c.14-.1,.28-.21,.41-.33h-.7c.48,0,.64-.47,.64-.47-.04-.16-.06-.38-.06-.67v-6.79c0-.35,.03-.6,.09-.76,.06-.16,.16-.26,.32-.32,.07-.03,.17-.06,.31-.07v-.32h-2.82v.32h0Z"/>
        <path class="cls-3" d="M206.09,105.25c.86,.82,1.28,1.99,1.28,3.54,0,.99-.2,1.86-.63,2.6-.42,.76-1.02,1.34-1.8,1.75s-1.73,.61-2.82,.61h-3.42v-.31c.15-.01,.26-.04,.35-.07,.16-.06,.26-.16,.32-.32,.06-.16,.09-.41,.09-.76v-6.79c0-.35-.03-.6-.09-.76-.06-.16-.16-.26-.32-.32-.09-.03-.2-.06-.35-.07v-.31h3.55c1.72,0,3,.41,3.86,1.22h-.01s0-.01,0-.01Zm-.55,6.17c.23-.67,.35-1.53,.35-2.57s-.13-1.91-.39-2.57c-.26-.67-.68-1.16-1.27-1.5s-1.38-.49-2.39-.49c-.31,0-.54,.03-.68,.09s-.25,.17-.31,.33-.09,.41-.09,.74v6.85c0,.32,.03,.57,.09,.73-.01,.06-.17,.45-.63,.45h1.66c1.03,0,1.85-.17,2.44-.52s1-.86,1.24-1.53h-.03Z"/>
        <path class="cls-3" d="M212.24,113.44v.31h-2.82v-.32c.13-.01,.23-.04,.32-.07,.16-.06,.26-.16,.32-.32,.06-.16,.09-.41,.09-.76v-6.79c0-.35-.03-.6-.09-.76-.06-.16-.16-.26-.32-.32-.09-.03-.19-.06-.32-.07v-.32h2.82v.32c-.13,.01-.23,.04-.32,.07-.16,.06-.26,.16-.32,.32-.06,.16-.09,.41-.09,.76v6.79c0,.31,.01,.54,.06,.7-.01,.06-.17,.47-.63,.47h1.29Z"/>
        <path class="cls-3" d="M230.12,109.6l.07,.31c.16,.01,.29,.04,.39,.07,.19,.06,.32,.17,.39,.35,.07,.18,.12,.45,.12,.83v1.31c0,.19-.03,.33-.09,.44s-.17,.2-.35,.32c-.42,.28-.93,.42-1.51,.42-1.19,0-2.07-.38-2.62-1.14-.55-.76-.83-1.96-.83-3.61,0-.98,.13-1.82,.39-2.55,.26-.73,.64-1.28,1.12-1.67,.42-.35,.92-.55,1.47-.59v-.22c-.81,.03-1.54,.25-2.19,.63-.71,.42-1.27,1.03-1.67,1.82-.41,.79-.61,1.7-.61,2.75s.19,1.89,.57,2.62c.38,.73,.92,1.28,1.63,1.67,.71,.39,1.57,.58,2.58,.58,.45,0,.86-.06,1.22-.17,.36-.12,.71-.3,1.05-.55,.14-.1,.25-.16,.3-.19,.06-.03,.12-.04,.17-.04h.68v-1.94c0-.35,.01-.6,.04-.76,.03-.16,.1-.26,.2-.32,.07-.04,.19-.07,.33-.09v-.29h-2.87Zm1.28-4.44c.2,.23,.35,.51,.45,.83,.06,.2,.12,.45,.17,.74h.44l.04-2.27h-.39c-.07,.28-.17,.41-.31,.41-.07,0-.17-.04-.3-.13-.44-.29-.84-.51-1.21-.65-.19-.08-.41-.13-.66-.17v.25c.23,.05,.45,.12,.68,.21,.45,.19,.81,.45,1.09,.79h0Z"/>
        <path class="cls-3" d="M241.4,104.06v.32c.17,.03,.32,.06,.42,.1,.19,.07,.31,.2,.36,.38,.06,.17,.09,.44,.09,.79v5.86l-5.14-7.46h-2.05v.32c.13,.01,.23,.04,.32,.07,.16,.06,.26,.16,.32,.32,.06,.16,.09,.41,.09,.76v6.66c0,.35-.03,.61-.09,.79-.06,.17-.17,.3-.33,.38-.09,.04-.19,.07-.32,.1v.32h1.95v-.32c-.17-.03-.32-.06-.42-.1-.19-.07-.32-.2-.38-.38-.06-.17-.09-.44-.09-.79v-7.23l6.07,8.83h.38v-8.12c0-.35,.03-.61,.09-.79,.06-.17,.17-.31,.33-.38,.09-.04,.19-.07,.32-.1v-.32h-1.92Z"/>
        <path class="cls-3" d="M254.07,106.14c-.38-.74-.92-1.31-1.61-1.7-.54-.3-1.13-.49-1.8-.56v.31c.33,.1,.65,.26,.94,.5,.48,.39,.86,.95,1.15,1.67,.29,.73,.44,1.56,.44,2.5s-.13,1.77-.39,2.5c-.26,.73-.63,1.29-1.09,1.7-.47,.41-1,.61-1.63,.61s-1.13-.19-1.61-.58c-.48-.39-.87-.95-1.16-1.67-.29-.73-.44-1.56-.44-2.5s.13-1.77,.39-2.5c.26-.73,.63-1.29,1.09-1.7,.4-.35,.85-.55,1.36-.6v-.25c-.75,.05-1.44,.26-2.05,.64-.7,.44-1.25,1.03-1.64,1.8-.39,.77-.58,1.66-.58,2.66s.19,1.92,.57,2.66c.38,.74,.92,1.31,1.61,1.7,.7,.39,1.5,.58,2.42,.58s1.69-.22,2.39-.65c.7-.44,1.25-1.03,1.64-1.8,.39-.77,.58-1.66,.58-2.66s-.19-1.92-.57-2.66Z"/>
        <path class="cls-3" d="M262.57,110.1l.04,.03c-.22-.35-.49-.65-.84-.93s-.83-.6-1.44-.95l-.42-.25c-.48-.28-.86-.51-1.12-.7-.26-.19-.48-.41-.65-.67s-.26-.57-.26-.92c0-.47,.16-.84,.49-1.14,.26-.22,.57-.36,.94-.41v-.25c-.68,.03-1.26,.24-1.74,.61-.52,.41-.79,.99-.79,1.76,0,.48,.12,.9,.33,1.27,.22,.36,.51,.67,.86,.93,.35,.26,.82,.55,1.38,.89,.79,.45,1.35,.86,1.72,1.21,.36,.35,.54,.79,.54,1.3,0,.6-.19,1.05-.55,1.35-.36,.3-.82,.47-1.34,.47-.86,0-1.5-.29-1.92-.87-.3-.42-.51-.93-.63-1.53h-.45l-.04,2.56h.33c.03-.2,.07-.36,.12-.47,.04-.1,.12-.15,.2-.15,.12,0,.28,.06,.49,.19,.28,.16,.55,.28,.84,.36,.29,.09,.67,.13,1.13,.13,.89,0,1.63-.23,2.21-.68s.87-1.09,.87-1.92c0-.47-.1-.87-.32-1.22h0Zm-.48-6.1c-.03,.2-.07,.36-.12,.47-.04,.1-.12,.15-.2,.15-.12,0-.28-.06-.49-.19-.26-.16-.51-.29-.76-.38-.08-.03-.16-.05-.26-.07v.24c.45,.1,.81,.33,1.09,.69,.31,.41,.51,.89,.61,1.44h.47v-2.34h-.33Z"/>
        <path class="cls-3" d="M294.91,110.1l.04,.03c-.22-.35-.49-.65-.84-.93s-.83-.6-1.44-.95l-.42-.25c-.48-.28-.86-.51-1.12-.7-.26-.19-.48-.41-.65-.67s-.26-.57-.26-.92c0-.47,.16-.84,.49-1.14,.26-.22,.57-.36,.94-.41v-.25c-.68,.03-1.26,.24-1.74,.61-.52,.41-.79,.99-.79,1.76,0,.48,.12,.9,.33,1.27,.22,.36,.51,.67,.86,.93,.35,.26,.82,.55,1.38,.89,.79,.45,1.35,.86,1.72,1.21,.36,.35,.54,.79,.54,1.3,0,.6-.19,1.05-.55,1.35-.36,.3-.82,.47-1.34,.47-.86,0-1.5-.29-1.92-.87-.3-.42-.51-.93-.63-1.53h-.45l-.04,2.56h.33c.03-.2,.07-.36,.12-.47,.04-.1,.12-.15,.2-.15,.12,0,.28,.06,.49,.19,.28,.16,.55,.28,.84,.36,.29,.09,.67,.13,1.13,.13,.89,0,1.63-.23,2.21-.68s.87-1.09,.87-1.92c0-.47-.1-.87-.32-1.22h0Zm-.48-6.1c-.03,.2-.07,.36-.12,.47-.04,.1-.12,.15-.2,.15-.12,0-.28-.06-.49-.19-.26-.16-.51-.29-.76-.38-.08-.03-.16-.05-.26-.07v.24c.45,.1,.81,.33,1.09,.69,.31,.41,.51,.89,.61,1.44h.47v-2.34h-.33Z"/>
        <path class="cls-3" d="M272.1,104.04v2.43h-.45c-.07-.48-.15-.86-.23-1.12-.12-.35-.32-.6-.61-.76-.29-.16-.74-.25-1.34-.25h-.61v7.8c0,.38,.04,.65,.12,.83-.01,.06-.17,.47-.63,.47h1.53v.31h-3.39v-.31c.22-.03,.38-.06,.49-.1,.19-.06,.32-.17,.39-.35,.07-.17,.12-.45,.12-.83v-7.8h-.6c-.6,0-1.05,.09-1.34,.25-.29,.16-.49,.41-.61,.76-.09,.26-.16,.64-.23,1.12h-.45v-2.43h7.84s0-.02,0-.02Z"/>
        <path class="cls-3" d="M276.65,113.44v.31h-2.82v-.32c.13-.01,.23-.04,.32-.07,.16-.06,.26-.16,.32-.32,.06-.16,.09-.41,.09-.76v-6.79c0-.35-.03-.6-.09-.76-.06-.16-.16-.26-.32-.32-.09-.03-.19-.06-.32-.07v-.32h2.82v.32c-.13,.01-.23,.04-.32,.07-.16,.06-.26,.16-.32,.32-.06,.16-.09,.41-.09,.76v6.79c0,.31,.01,.54,.06,.7-.01,.06-.17,.47-.63,.47h1.29Z"/>
      </g>
    </g>
  </g>
</svg>