<?xml version="1.0" encoding="UTF-8"?>
<svg id="Layer_1" data-name="Layer 1" xmlns="http://www.w3.org/2000/svg" width="5.85in" height="1.62in" viewBox="0 0 421.2 117">
  <rect x="0" width="421.2" height="117" fill="#fff"/>
  <g id="Layer_1-2" data-name="Layer 1">
    <g>
      <path d="M79.85,25.43c0-.22,.2-.4,.45-.4h7.91c5.43,0,8.15,3.36,8.15,10.09,0,2.68-.48,4.79-1.44,6.33s-2.16,2.51-3.6,2.91c-1.36,.38-3.33,.6-5.91,.65-.24,0-.45,.18-.45,.4v14.83c0,.22-.2,.4-.45,.4h-4.22c-.25,0-.45-.18-.45-.4V25.43h0Zm5.12,15.46c0,.22,.21,.41,.47,.4,1.92-.06,3.31-.46,4.18-1.22,.93-.82,1.4-2.47,1.4-4.95s-.4-4.19-1.22-5.09c-.76-.83-2.21-1.28-4.36-1.33-.25,0-.47,.18-.47,.4v11.78Z" fill="#444"/>
      <path d="M122.99,52.22c0,5.94-2.84,8.91-8.51,8.91-6.23,0-9.34-2.95-9.34-8.86V25.49c0-.22,.2-.4,.45-.4h4.16c.25,0,.45,.18,.45,.4v24.78c0,2.7,.25,4.57,.74,5.6s1.58,1.55,3.24,1.55,2.71-.54,3.13-1.63c.42-1.09,.63-3.02,.63-5.8V25.49c0-.22,.2-.4,.45-.4h4.16c.25,0,.45,.18,.45,.4v26.73Z" fill="#444"/>
      <path d="M149.12,60.64h-4.35c-.2,0-.37-.12-.43-.28l-5.84-16.43h-.45v16.32c0,.22-.2,.4-.45,.4h-4.22c-.25,0-.45-.18-.45-.4V25.43c0-.22,.2-.4,.45-.4h6.63c5.77,0,8.66,3.04,8.66,9.11,0,2.76-.43,4.83-1.28,6.24-.79,1.31-2.06,2.31-3.79,3.01-.21,.08-.32,.29-.24,.49l6.18,16.23c.1,.26-.12,.53-.42,.53h0Zm-11.07-20.41c0,.23,.22,.42,.47,.4,1.74-.1,3.01-.53,3.83-1.31,.88-.85,1.33-2.39,1.33-4.63s-.4-3.67-1.2-4.58-2.18-1.37-4.12-1.37h-.29v11.48h0Z" fill="#444"/>
      <path d="M171.2,60.64h-12.82c-.25,0-.45-.18-.45-.4V25.43c0-.22,.2-.4,.45-.4h12.58c.25,0,.45,.18,.45,.4v3.25c0,.22-.2,.4-.45,.4h-7.52c-.25,0-.45,.18-.45,.4v10.49c0,.22,.2,.4,.45,.4h6.9c.25,0,.45,.18,.45,.4v3.25c0,.22-.2,.4-.45,.4h-6.9c-.25,0-.45,.18-.45,.4v11.47c0,.22,.2,.4,.45,.4h7.76c.25,0,.45,.18,.45,.4v3.14c0,.22-.2,.4-.45,.4v.03Z" fill="#444"/>
      <path d="M180.43,25.43c0-.22,.2-.4,.45-.4h6.93c3.49,0,6.24,1.24,8.26,3.7,2.01,2.47,3.02,7.11,3.02,13.93s-.88,11.21-2.65,13.92c-1.77,2.7-4.94,4.05-9.52,4.05h-6.04c-.25,0-.45-.18-.45-.4V25.43Zm5.12,3.26v27.93c0,.22,.21,.41,.47,.4,1.92-.05,3.38-.42,4.42-1.12,1.11-.74,1.94-2.13,2.49-4.17s.82-5.08,.82-9.14c0-5.18-.51-8.79-1.53-10.84-1.02-2.05-3.01-3.08-5.97-3.08h-.69Z" fill="#604890"/>
      <path d="M209.47,25.04h4.22c.25,0,.45,.18,.45,.4V60.23c0,.22-.2,.4-.45,.4h-4.22c-.25,0-.45-.18-.45-.4V25.43c0-.22,.2-.4,.45-.4Z" fill="#604890"/>
      <path d="M243.71,60.64h-4.01c-.22,0-.4-.14-.44-.33l-1.26-6.38c-.04-.19-.22-.33-.44-.33h-7.27c-.22,0-.4,.14-.44,.33l-1.28,6.38c-.04,.19-.22,.33-.44,.33h-3.94c-.28,0-.5-.23-.44-.48l8-34.8c.04-.19,.22-.32,.44-.32h3.46c.21,0,.4,.13,.44,.32l8.05,34.8c.06,.25-.15,.48-.44,.48h0Zm-6.98-10.65c.28,0,.49-.22,.44-.47l-3.24-16.42h-.12l-3.06,16.42c-.04,.24,.17,.47,.44,.47h5.54Z" fill="#604890"/>
      <path d="M270.72,48.03c0,4.1-.74,7.28-2.23,9.54s-4.11,3.4-7.89,3.4c-3.37,0-5.81-1.17-7.32-3.51s-2.26-6.83-2.26-13.48c0-.78,.09-2.86,.27-6.25s.44-5.67,.79-6.88,.93-2.32,1.74-3.35,1.85-1.81,3.1-2.32,2.72-.77,4.4-.77c2.38,0,4.43,.67,6.16,2.02,1.65,1.29,2.59,2.97,2.83,5.04,.02,.18-.1,.35-.29,.42l-3.96,1.36c-.28,.1-.56-.07-.6-.33-.47-3.09-1.85-4.63-4.13-4.63-1.85,0-3.13,.89-3.85,2.67s-1.08,4.73-1.08,8.84v1.81c0,2.38,.08,4.67,.24,6.83,.16,2.17,.31,3.76,.45,4.77s.42,1.81,.87,2.4c.44,.6,.9,1,1.38,1.2s1.06,.31,1.71,.31c1.23,0,2.18-.35,2.86-1.06,.67-.7,1.14-1.73,1.4-3.06,.24-1.28,.38-3.41,.38-6.4,0-.22-.2-.41-.45-.41h-3.74c-.25,0-.45-.18-.45-.4v-3.39c0-.22,.2-.4,.45-.4h8.8c.25,0,.45,.18,.45,.4v5.61h0Z" fill="#604890"/>
      <path d="M296.93,60.64h-3.25c-.19,0-.36-.11-.42-.27l-9.57-24.17h-.12v24.04c0,.22-.2,.4-.45,.4h-3.68c-.25,0-.45-.18-.45-.4V25.43c0-.22,.2-.4,.45-.4h3.31c.19,0,.36,.11,.42,.27l9.59,24.16,.12,.02V25.43c0-.22,.2-.4,.45-.4h3.59c.25,0,.45,.18,.45,.4V60.23c0,.22-.2,.4-.45,.4h0Z" fill="#604890"/>
      <path d="M307.2,42.74c0-7.73,.81-12.73,2.42-14.99s4.28-3.41,7.99-3.41c4.24,0,7.07,1.27,8.47,3.81s2.1,7.12,2.1,13.73c0,5.92-.31,10.02-.94,12.32s-1.7,3.97-3.24,5.06-3.63,1.62-6.26,1.62-4.8-.5-6.25-1.49-2.52-2.61-3.23-4.84c-.7-2.24-1.06-6.16-1.06-11.78h0Zm15.62,.27c0-6.75-.42-10.93-1.27-12.52-.85-1.59-2.11-2.39-3.81-2.39-1.99,0-3.35,.95-4.09,2.86s-1.1,5.12-1.1,9.64v1.95c0,5.04,.3,8.73,.9,11.04,.6,2.32,2.03,3.47,4.3,3.47,1.39,0,2.59-.65,3.58-1.95s1.49-4.9,1.49-10.8v-1.31h0Z" fill="#604890"/>
      <path d="M350.41,28.95c0,.3-.36,.49-.66,.35-1.4-.63-2.68-.94-3.83-.94-1.33,0-2.47,.45-3.41,1.34-.94,.9-1.42,1.97-1.42,3.24,0,.9,.28,1.85,.84,2.86,.56,1.01,1.83,2.64,3.79,4.87s3.47,4.17,4.51,5.81c1.04,1.64,1.56,3.52,1.56,5.65,0,2.65-.85,4.8-2.54,6.45-1.7,1.65-3.92,2.47-6.65,2.47-1.44,0-3.19-.38-5.25-1.15-.17-.06-.28-.21-.28-.37v-4.01c.06,.02,.12,.04,.18,.08,.29,.21,.92,.52,1.88,.94s1.88,.63,2.79,.63c1.49,0,2.71-.47,3.67-1.4s1.44-2.13,1.44-3.58c0-1.01-.24-1.94-.74-2.79-.49-.86-1.38-2.02-2.67-3.5l-3.42-3.95c-1.33-1.53-2.31-2.93-2.94-4.2-.63-1.27-.95-2.78-.95-4.53,0-2.59,.8-4.7,2.41-6.32s3.69-2.44,6.25-2.44c1.7,0,3.42,.38,5.16,1.14,.15,.07,.26,.21,.26,.37v2.97h.02Z" fill="#604890"/>
      <path d="M374.36,29.09h-4.9c-.25,0-.45,.18-.45,.4v30.75c0,.22-.2,.4-.45,.4h-4.22c-.25,0-.45-.18-.45-.4V29.49c0-.22-.2-.4-.45-.4h-4.87c-.25,0-.45-.18-.45-.4v-3.25c0-.22,.2-.4,.45-.4h15.8c.25,0,.45,.18,.45,.4v3.25c0,.22-.2,.4-.45,.4h-.01Z" fill="#604890"/>
      <path d="M383.87,25.04h4.22c.25,0,.45,.18,.45,.4V60.23c0,.22-.2,.4-.45,.4h-4.22c-.25,0-.45-.18-.45-.4V25.43c0-.22,.2-.4,.45-.4Z" fill="#604890"/>
      <path d="M414.93,59.77c0,.15-.1,.3-.26,.37-1.44,.62-2.88,.92-4.32,.92-3.06,0-5.7-1.11-7.93-3.33s-3.35-6.85-3.35-13.9c0-7.64,1.12-12.79,3.35-15.44s4.93-3.97,8.11-3.97c1.11,0,2.45,.16,4.05,.49,.21,.04,.36,.21,.36,.4v3.46c0,.28-.31,.46-.61,.37-.92-.29-1.8-.44-2.63-.44-1.99,0-3.68,.95-5.09,2.84s-2.11,5.63-2.11,11.2c0,3.32,.15,5.91,.46,7.79,.31,1.87,1.02,3.36,2.13,4.47s2.51,1.67,4.2,1.67c.85,0,1.86-.21,3.03-.63,.3-.11,.63,.08,.63,.37v3.36h0Z" fill="#604890"/>
    </g>
    <path d="M71.09,62.68c0,6.32-3.28,11.43-7.32,11.43s-7.33-5.12-7.33-11.43c0-2.25,.41-4.34,1.12-6.1l-8.47-10.89c-1.82,1.79-4.01,2.82-6.35,2.82-1.7,0-3.31-.54-4.76-1.53l-6.14,14.47c1.55,2.1,2.52,5.18,2.52,8.63,0,6.32-3.28,11.44-7.32,11.44s-7.33-5.13-7.33-11.44,3.28-11.43,7.33-11.43c.24,0,.47,.02,.7,.05l6.6-15.53c-1.78-2.76-2.93-6.41-3.16-10.45h-11.48c0,6.32-3.28,11.43-7.33,11.43s-7.32-5.12-7.32-11.43,3.28-11.43,7.32-11.43c2.95,0,5.47,2.7,6.64,6.6h12.35c1.06-7.89,5.75-13.85,11.37-13.85,6.4,0,11.59,7.72,11.59,17.23,0,3.88-.86,7.46-2.31,10.33l8.45,10.86c.99-.78,2.11-1.22,3.29-1.22,4.04,0,7.32,5.12,7.32,11.43h.01Z" fill="#604890"/>
  </g>
  <text transform="translate(9.09 98.03)"><tspan font-family="Roboto-Regular, Roboto" font-size="9"><tspan x="0" y="0">4025 Pleasantdale Road, Bldg 500, Ste 525, </tspan></tspan><tspan><tspan x="0" y="10.8" font-family="Roboto-Regular, Roboto" font-size="9" letter-spacing="0em">A</tspan><tspan x="5.8" y="10.8" font-family="Roboto-Regular, Roboto" font-size="9">tlanta, GA 30340</tspan><tspan x="72.11" y="10.8" font-family="MyriadPro-Regular, &apos;Myriad Pro&apos;" font-size="8"> </tspan></tspan></text>
  <text transform="translate(208.1 97.36)" font-family="Roboto-Regular, Roboto" font-size="9"><tspan x="0" y="0">Tel # 1 (800) 303-1146: </tspan><tspan x="95.46" y="0" letter-spacing="-.02em">F</tspan><tspan x="100.29" y="0" letter-spacing="0em">ax #: (404) 999-2362 </tspan><tspan x="0" y="10.8">Lab Direc</tspan><tspan x="37.63" y="10.8" letter-spacing="0em">t</tspan><tspan x="40.48" y="10.8">or: Mark Kidd, PhD, DABCC.</tspan></text>
</svg>