<?xml version="1.0" encoding="UTF-8"?>
<svg id="Layer_1" data-name="Layer 1" xmlns="http://www.w3.org/2000/svg" viewBox="0 0 421.2 117">
  <defs>
    <style>
      .cls-1 {
        fill: #fff;
      }

      .cls-2 {
        fill: #fdfefe;
      }

      .cls-3 {
        fill: #f4f5f8;
      }

      .cls-4 {
        fill: #235fac;
      }

      .cls-5 {
        fill: #f5f5f8;
      }

      .cls-6 {
        fill: #2a3d70;
      }

      .cls-7 {
        fill: #f7f7f9;
      }

      .cls-8 {
        fill: #1f2358;
      }

      .cls-9 {
        fill: #f6f7f9;
      }

      .cls-10 {
        fill: #f8fafd;
      }

      .cls-11 {
        fill: #204da1;
      }

      .cls-12 {
        fill: #2360ad;
      }

      .cls-13 {
        fill: #2461ad;
      }

      .cls-14 {
        fill: #23366b;
      }

      .cls-15 {
        fill: #24376c;
      }

      .cls-16 {
        fill: #fdfdfe;
      }

      .cls-17 {
        fill: #2460ad;
      }

      .cls-18 {
        fill: #235fad;
      }

      .cls-19 {
        fill: #f7f9fc;
      }

      .cls-20 {
        fill: #fafbfd;
      }

      .cls-21 {
        fill: #4070b6;
      }

      .cls-22 {
        fill: #2560ad;
      }

      .cls-23 {
        fill: #f9fbfd;
      }

      .cls-24 {
        fill: #f1f2f5;
      }

      .cls-25 {
        fill: #f5f6f8;
      }

      .cls-26 {
        fill: #f7f8fa;
      }

      .cls-27 {
        fill: #285aa9;
      }

      .cls-28 {
        fill: #fbfcfe;
      }
    </style>
  </defs>
  <rect class="cls-1" x="0" width="421.2" height="117"/>
  <path class="cls-16" d="M420,10.29V107.7H.82V10.29H420Zm-153.9,53.3l-22.85-51.3-22.66,51.3h7.69l6.29-14.28,17.27-.1,6.57,14.39h7.69Zm-98.81,4.37l-9.57-10.28c12.77-11.47,9.91-32.5-5.2-40.52-22.63-12.02-48.96,11.64-36.17,34.58,6.96,12.49,23.16,16.13,35.64,9.88l6.02,6.36h9.29Zm15.37-52.91h-7.38v31.84c.71,12.61,8.28,18.41,20.67,17.86,10.93-.48,17.23-6.48,17.86-17.47V15.08h-7.39V47.51c0,1.62-1.18,5.09-2.11,6.47-2.81,4.19-9.54,4.55-14.06,3.51-5.49-1.25-7.18-5.59-7.6-10.77V15.08h.01Zm93.02,48.1l.11,.4h25.24v-6.98h-17.76c-.11-.02-.26-.17-.4-.21V15.28l-7.19-.21V63.19h0Zm45.91-48.11h-7.38V63.59h7.09l.3-.3V15.08h0Zm26.35,7.38l.1,41.12h6.98l.3-.3V22.07h13.38v-6.98h-34.34v6.98l13.57,.21v.21h0v-.02Zm37.04-7.38h-8.28l16.77,26.44v22.06h7.19v-21.85l16.77-26.65h-8.28l-11.39,18.55-.79,.82-11.97-19.36h-.01ZM56.53,79.97l4.24-2.18,27.27,16.63c.81,.54-.06,1.53-.17,2.42-1.11,8.9,11.26,10.71,13.41,3.03,1.69-6.05-4.51-10.5-9.96-7.94l-27.81-16.88c3.84-5.48,4.1-12.59,.01-18l.16-.56,17.24-16.84c6.13,4.49,15.4,1.71,17.96-5.47,3.51-9.84-6.22-18.62-15.76-14.77-6.79,2.75-9.5,11.35-5.08,17.34l-17.28,17.2c-.51,.14-1.4-.74-1.93-1-4.81-2.5-9.59-2.64-14.51-.26-.57,.27-1.96,1.4-2.45,1.28l-7.64-7.56c3.43-6.38-4.3-12.99-10.13-8.75-5.25,3.81-2.7,11.86,3.59,12.32,1.54,.11,2.65-.6,4.06-.68l7.56,7.6c-3.2,4.06-3.99,9.49-2.19,14.36l-18.94,10.22c-.89-.57-1.65-1.33-2.6-1.81-8.09-4.12-16.36,5.42-10.78,12.58,4.79,6.14,14.89,3.06,15.36-4.59,.05-.84-.44-2.5,0-3l18.82-9.85c3.32,4.15,8.34,6.47,13.69,5.99l2.02,8.54c-3.74,1.8-4.76,6.7-2.27,9.98,3.33,4.39,10.69,3.16,12.16-2.18,1.24-4.45-1.87-8.12-6.2-8.78l-1.88-8.36h.02Zm56.47-7.02l-.21,30.54H417.21l-.21-30.54H113.01Z"/>
  <path class="cls-14" d="M113.01,72.97c.31,9.81-.41,19.86,0,29.64,0,.25-.15,.74,.21,.69v-30.15l303.8-.21,.21,30.54H112.8l.21-30.54h0Zm30.49,8.65c-8.94,1.3-6.31,15.62,3.25,13.03,8.08-2.19,5.81-14.34-3.25-13.03Zm69.92,.95c-3.28-2.07-8.95-1.06-8.36,3.68,.4,3.19,5.16,2.79,5.54,4.06,.55,1.86-1.55,2.14-2.89,1.49-.35-.17-1.62-1.4-1.86-1.24l-1.37,2.32c2.89,3.71,10.29,2.28,9.54-3.21-.14-1.05-.84-1.93-1.77-2.42-.8-.43-5.22-1.18-3.52-2.7,1.28-1.13,3.53,.74,3.7,.6l1-2.6h-.01Zm25.55,3.41v-3.5c-3.62-2.32-8.64-.3-9.68,3.88-1.5,6.03,4.14,10.39,9.68,7.79v-3.79c-1.53,1.52-4,2.07-5.56,.26-2.36-2.72,.54-7.45,4.17-5.57,.55,.28,.8,.84,1.39,.91h0Zm33.48-4.32c-8.07,1.11-7.14,13.72,1.54,13.32,9.5-.42,8.5-14.71-1.54-13.32Zm49.75,4.55v-3.69c-3.61-2.23-8.53-.47-9.68,3.69-1.71,6.15,4.06,10.62,9.68,7.99v-3.79l-2.03,1.26c-3.37,.91-5.53-2.69-3.73-5.53,1.42-2.23,4.2-1.7,5.75,.07Zm10.53-4.55c-8.19,1.28-6.84,13.99,1.93,13.3,9.34-.74,7.9-14.83-1.93-13.3Zm32.33,0c-8.13,1.12-7.15,13.72,1.54,13.32,9.5-.42,8.49-14.7-1.54-13.32Zm23.61,8.33c-1.04,3.25-6.11,2.88-6.57-.51-.42-3.03,1.15-5.74,4.48-4.68,.75,.24,1.37,1.13,1.62,1.18s2.94-1.28,2.86-1.65c-.14-.59-2.27-2.02-2.93-2.27-10.86-3.96-13.59,13.11-2.56,12.93,4.47-.08,6.97-3.49,6.49-7.79h-6.98v2.79h3.6Zm-255.7-8.18h-7.99v12.77h3.59v-4.99h4.19v-2.79h-4.19v-1.99h4.39v-3h.01Zm30.04,0c-1.74-.17-3.73,.13-5.49,0v12.77h3.4v-4.59l2.89,4.59h3.9l-3.4-5.09c2.42-.66,3.28-2.62,2.6-5-.5-1.77-2.2-2.52-3.9-2.69h0Zm13.08,3.01h4.3c.48-.64,.49-2.32,0-3h-7.69v12.77h7.99c-.14-.95,.32-2.24-.3-3h-4.3v-1.99h4.19v-2.79h-4.19v-1.99Zm13.67-3h-3.29v12.77h3.4v-8.18l5.89,8.18h3.29v-12.77h-3.1l-.3,.3v7.88l-1.04-1.87-4.85-6.32h0Zm33.44,.01h-3.59v12.77h3.59v-12.77Zm38.92,0h-9.38v3.19h2.79v9.58h3.59v-9.58c.95-.14,2.24,.32,3-.3,0,0,0-2.89,0-2.89Zm27.25,0h-4.09l4.16,6.25-4.56,6.52h3.9l2.6-4.59,2.79,4.59h3.9l-4.6-6.49,4-6.28h-3.9l-2.29,3.79-1.89-3.79h-.01Zm17.07,0h-3.59v12.77h3.59v-12.77Zm43.92,0h-3.59v12.77h7.99v-3h-4.39v-9.79h-.01Zm49.21,.01h-3.9c-.08,.31,.13,.43,.24,.66,.51,.97,4.15,5.86,4.15,6.23v5.89h3.4v-5.69l4.59-7.09h-4.19l-2.1,4.19-2.2-4.19h.01Z"/>
  <path class="cls-17" d="M56.53,79.97l1.88,8.36c4.33,.65,7.44,4.33,6.2,8.78-1.48,5.32-8.84,6.56-12.16,2.18-2.48-3.28-1.46-8.18,2.27-9.98l-2.02-8.54c-5.34,.48-10.38-1.85-13.69-5.99l-18.82,9.85c-.44,.5,.05,2.14,0,3-.47,7.66-10.57,10.72-15.36,4.59-5.58-7.15,2.7-16.7,10.78-12.58,.96,.49,1.71,1.25,2.6,1.81l18.94-10.22c-1.8-4.86-1.03-10.3,2.19-14.36l-7.56-7.6c-1.4,.08-2.52,.8-4.06,.68-6.29-.47-8.84-8.51-3.59-12.32,5.83-4.24,13.57,2.37,10.13,8.75l7.64,7.56c.49,.13,1.88-1,2.45-1.28,4.91-2.37,9.7-2.23,14.51,.26,.51,.26,1.4,1.14,1.93,1l17.28-17.2c-4.42-5.98-1.71-14.59,5.08-17.34,9.54-3.86,19.27,4.91,15.76,14.77-2.55,7.17-11.83,9.96-17.96,5.47l-17.24,16.84-.16,.56c4.08,5.41,3.83,12.52-.01,18l27.81,16.88c5.45-2.56,11.65,1.89,9.96,7.94-2.14,7.69-14.51,5.87-13.41-3.03,.1-.88,.98-1.88,.17-2.42l-27.27-16.63-4.24,2.18h-.02Zm30.28-57.64c-10.21,1.17-8.8,16.41,1.54,15.71,10.33-.69,9.23-16.94-1.54-15.71ZM27.31,40.28c-3.4,.71-2.57,6.47,1.3,5.9s3.19-6.82-1.3-5.9Zm22.77,14.58c-15.4,1.74-11.76,24.98,3.45,22.01,14.12-2.76,10.65-23.61-3.45-22.01ZM10.55,82.6c-5.3,.9-4.55,9.65,1.53,9.11,6.07-.54,5.41-10.29-1.53-9.11Zm46.51,9.79c-3.77,.79-2.08,7.25,2.05,5.64,3.25-1.26,2.12-6.51-2.05-5.64Zm37.35,2.59c-3.95,.39-3.61,6.64,.93,5.94,3.46-.55,3-6.31-.93-5.94Z"/>
  <path class="cls-18" d="M167.29,67.98h-9.29l-6.02-6.36c-12.48,6.24-28.68,2.6-35.64-9.88-12.78-22.93,13.53-46.59,36.17-34.58,15.11,8.02,17.98,29.05,5.2,40.52l9.57,10.28h0Zm-30.54-22.74h9.08l6.49,6.89h.4c9.07-8.43,6.03-24.46-5.32-29.43-14.37-6.28-29.53,5.8-26.04,21.26,2.48,11.03,15.19,16.59,25.37,12.25l-9.98-10.98h0Z"/>
  <path class="cls-12" d="M182.66,15.08v31.65c.4,5.17,2.1,9.52,7.59,10.77,4.51,1.04,11.23,.67,14.06-3.51,.92-1.38,2.11-4.85,2.11-6.47V15.08h7.38V47.32c-.63,10.98-6.92,16.99-17.85,17.47-12.38,.54-19.96-5.25-20.68-17.86V15.08h7.39Z"/>
  <path class="cls-17" d="M266.1,63.59h-7.69l-6.57-14.39-17.27,.1-6.29,14.28h-7.69l22.66-51.3,22.85,51.3h0Zm-16.57-20.74l-6.29-14.17-6.29,14.17h12.58Z"/>
  <polygon class="cls-18" points="384.97 15.08 396.94 34.45 397.73 33.63 409.12 15.08 417.4 15.08 400.64 41.73 400.64 63.59 393.45 63.59 393.45 41.53 376.68 15.08 384.97 15.08"/>
  <path class="cls-12" d="M347.94,22.27v-.6h-13.17v-6.19h33.53v6.19h-12.98c.07,.21-.21,.43-.21,.5V63.19h-7.19V22.27h.01Z"/>
  <path class="cls-4" d="M282.86,15.28c-2.08,.07-4.2-.08-6.29,0-.25,0-.74-.15-.69,.21h6.79l.21,40.92c.14,.03,.28,.17,.4,.21,.05,0,.17,.19,.48,.21,5.5,.39,11.38-.47,16.9,.19v6.19h-24.95V15.08l7.19,.21h-.02Z"/>
  <polygon class="cls-13" points="321.59 15.08 321.59 63.29 321.29 63.59 314.21 63.59 314.21 15.08 321.59 15.08"/>
  <path class="cls-8" d="M417,72.97l-303.8,.21v30.15c-.35,.05-.19-.44-.21-.69-.41-9.79,.31-19.84,0-29.64H417Z"/>
  <path class="cls-27" d="M347.94,22.27l-13.57-.21v-6.98h34.34v6.98h-13.38V63.29l-.3,.3h-6.98l-.1-41.12V63.19h7.19V22.17c0-.07,.26-.3,.21-.5h12.98v-6.19h-33.53v6.19h13.17v.6h-.02Z"/>
  <path class="cls-21" d="M283.26,56.61h17.76v6.98h-25.24l-.11-.4h24.95v-6.19c-5.5-.66-11.38,.19-16.9-.19-.31-.02-.42-.21-.48-.21h.01Z"/>
  <path class="cls-11" d="M282.86,15.28V56.4l-.21-40.92h-6.79c-.05-.35,.44-.19,.69-.21,2.08-.08,4.2,.07,6.29,0h.01Z"/>
  <polygon class="cls-7" points="189.75 81.75 194.6 88.07 195.64 89.94 195.64 82.06 195.94 81.75 199.03 81.75 199.03 94.53 195.74 94.53 189.85 86.34 189.85 94.53 186.46 94.53 186.46 81.75 189.75 81.75"/>
  <path class="cls-5" d="M388.66,89.94h-3.59v-2.79h6.98c.47,4.3-2.03,7.71-6.49,7.79-11.03,.18-8.31-16.91,2.56-12.93,.66,.24,2.8,1.67,2.93,2.27,.08,.38-2.62,1.7-2.86,1.65s-.87-.93-1.62-1.18c-3.34-1.06-4.9,1.65-4.48,4.68,.47,3.4,5.54,3.77,6.57,.51h-.01Z"/>
  <path class="cls-7" d="M365.06,81.6c10.03-1.37,11.04,12.9,1.54,13.32-8.68,.39-9.67-12.21-1.54-13.32Zm.39,3c-3.55,.74-3.35,7.63,1.13,7.33s3.9-8.36-1.13-7.33Z"/>
  <path class="cls-7" d="M143.49,81.6c9.07-1.31,11.32,10.85,3.25,13.03-9.56,2.59-12.18-11.73-3.25-13.03Zm.39,3c-3.06,.63-3.38,6.52,.24,7.26,5.31,1.06,5.47-8.43-.24-7.26Z"/>
  <path class="cls-7" d="M272.44,81.6c10.04-1.38,11.04,12.9,1.54,13.32-8.67,.39-9.6-12.21-1.54-13.32Zm3.57,3.82c-1.09-1.07-2.84-1.21-4.11-.35-2.64,1.77-1.81,6.63,1.52,6.86s4.85-4.3,2.6-6.51Z"/>
  <path class="cls-7" d="M332.72,81.6c9.82-1.54,11.26,12.57,1.93,13.3-8.76,.69-10.12-12.02-1.93-13.3Zm.39,3c-3.11,.64-3.33,6.7,.4,7.29,5.21,.83,5.3-8.46-.4-7.29Z"/>
  <path class="cls-26" d="M163,81.75c1.7,.17,3.41,.91,3.9,2.69,.67,2.38-.19,4.34-2.6,5l3.4,5.09h-3.9l-2.89-4.59v4.59h-3.4v-12.77c1.77,.13,3.75-.17,5.49,0h0Zm-2.29,2.78v3.1c0,.49,2.23,.17,2.68-.51,1.21-1.87-.95-3.05-2.68-2.59Z"/>
  <polygon class="cls-5" points="289.36 81.75 291.25 85.54 293.55 81.75 297.43 81.75 293.44 88.04 298.04 94.53 294.14 94.53 291.35 89.94 288.75 94.53 284.87 94.53 289.43 88.01 285.27 81.75 289.36 81.75"/>
  <path class="cls-9" d="M176.08,84.75v1.99h4.19v2.79h-4.19v1.99h4.3c.63,.75,.17,2.05,.3,3h-7.99v-12.77h7.69c.49,.66,.48,2.36,0,3,0,0-4.3,0-4.3,0Z"/>
  <path class="cls-25" d="M213.4,82.55l-1,2.6c-.17,.13-2.43-1.74-3.7-.6-1.71,1.52,2.72,2.27,3.52,2.7,.92,.51,1.62,1.37,1.77,2.42,.75,5.5-6.64,6.92-9.54,3.21l1.37-2.32c.23-.17,1.49,1.06,1.86,1.24,1.36,.65,3.45,.35,2.89-1.49-.38-1.25-5.14-.85-5.54-4.06-.59-4.74,5.09-5.74,8.36-3.68h.01Z"/>
  <path class="cls-25" d="M322.19,86.15c-1.56-1.77-4.33-2.3-5.75-.07-1.8,2.84,.35,6.44,3.73,5.53l2.03-1.26v3.79c-5.64,2.62-11.38-1.83-9.68-7.99,1.15-4.15,6.07-5.91,9.68-3.69v3.69Z"/>
  <path class="cls-9" d="M238.95,85.94c-.59-.08-.84-.63-1.39-.91-3.63-1.89-6.53,2.85-4.17,5.57,1.56,1.8,4.03,1.25,5.56-.26v3.79c-5.56,2.6-11.2-1.77-9.68-7.79,1.05-4.18,6.06-6.21,9.68-3.88v3.5h0Z"/>
  <polygon class="cls-24" points="132.97 81.75 132.97 84.75 128.57 84.75 128.57 86.74 132.76 86.74 132.76 89.54 128.57 89.54 128.57 94.53 124.98 94.53 124.98 81.75 132.97 81.75"/>
  <path class="cls-25" d="M399.54,82.75l2.2,4.19,2.1-4.19h4.19l-4.59,7.09v5.69h-3.4v-5.89c0-.38-3.65-5.25-4.15-6.23-.11-.23-.32-.35-.24-.66h3.89Z"/>
  <path class="cls-5" d="M262.11,81.75v2.89c-.75,.63-2.05,.17-3,.3v9.58h-3.59v-9.58h-2.79v-3.19h9.38Z"/>
  <polygon class="cls-3" points="350.33 81.75 350.33 91.54 354.73 91.54 354.73 94.53 346.74 94.53 346.74 81.75 350.33 81.75"/>
  <rect class="cls-9" x="219.59" y="81.75" width="3.59" height="12.77"/>
  <rect class="cls-9" x="302.84" y="81.75" width="3.59" height="12.77"/>
  <path class="cls-28" d="M50.08,54.86c14.1-1.6,17.56,19.25,3.45,22.01-15.2,2.97-18.84-20.28-3.45-22.01Zm6.49,12.45c1.37,1.37,3.37,.17,3.34-1.82-.07-4.31-4.6-8.41-8.9-7.9-1.96,.23-2.16,2.94-.41,3.61,1.4,.54,2.54,.02,4.01,1.38,1.65,1.53,1.15,3.9,1.97,4.72h-.01Z"/>
  <path class="cls-23" d="M86.81,22.32c10.77-1.23,12.21,14.98,1.54,15.71-10.68,.73-11.75-14.54-1.54-15.71Zm.39,2.78c-1.34,.31-1.8,2.14-.82,3.13,.75,.77,1.71,.41,2.29,.9,.54,.44,.39,1.32,.69,1.9,.95,1.83,3.83,1.07,3.67-1.25-.18-2.68-3.1-5.3-5.83-4.67h0Z"/>
  <path class="cls-20" d="M10.55,82.6c6.93-1.17,7.67,8.58,1.53,9.11s-6.82-8.21-1.53-9.11Z"/>
  <path class="cls-19" d="M27.31,40.28c4.48-.93,5.22,5.32,1.3,5.9s-4.69-5.2-1.3-5.9Z"/>
  <path class="cls-19" d="M94.39,94.97c3.93-.39,4.39,5.38,.93,5.94-4.53,.72-4.89-5.55-.93-5.94Z"/>
  <path class="cls-19" d="M57.06,92.38c4.17-.87,5.31,4.37,2.05,5.64-4.12,1.61-5.83-4.85-2.05-5.64Z"/>
  <path class="cls-2" d="M136.75,45.22l9.98,10.98c-10.2,4.34-22.89-1.22-25.37-12.25-3.49-15.46,11.69-27.54,26.04-21.26,11.35,4.96,14.4,20.99,5.32,29.44h-.4l-6.49-6.92h-9.08Z"/>
  <polygon class="cls-10" points="249.54 42.83 236.96 42.83 243.25 28.66 249.54 42.83"/>
  <path class="cls-15" d="M365.45,84.6c5.02-1.04,5.71,7.01,1.13,7.33s-4.67-6.59-1.13-7.33Z"/>
  <path class="cls-15" d="M143.88,84.6c5.71-1.18,5.56,8.32,.24,7.26-3.62-.73-3.32-6.61-.24-7.26Z"/>
  <path class="cls-15" d="M276,85.42c2.27,2.21,.81,6.73-2.6,6.51s-4.16-5.09-1.52-6.86c1.28-.84,3.01-.72,4.11,.35Z"/>
  <path class="cls-15" d="M333.12,84.6c5.7-1.17,5.61,8.12,.4,7.29-3.74-.6-3.52-6.65-.4-7.29Z"/>
  <path class="cls-6" d="M160.71,84.55c1.74-.47,3.88,.73,2.68,2.59-.44,.68-2.68,1-2.68,.51,0,0,0-3.1,0-3.1Z"/>
  <path class="cls-22" d="M56.58,67.32c-.82-.82-.32-3.19-1.97-4.72-1.47-1.37-2.6-.84-4.01-1.38-1.75-.67-1.55-3.37,.41-3.61,4.3-.51,8.84,3.59,8.9,7.9,.03,1.98-1.98,3.19-3.34,1.82h.01Z"/>
  <path class="cls-13" d="M87.19,25.1c2.72-.63,5.65,1.99,5.83,4.67,.16,2.32-2.72,3.1-3.67,1.25-.3-.58-.15-1.45-.69-1.9-.59-.49-1.54-.13-2.29-.9-.98-1-.52-2.83,.82-3.13h0Z"/>
</svg>