<?xml version="1.0" encoding="UTF-8"?>
<svg id="Layer_1" data-name="Layer 1" xmlns="http://www.w3.org/2000/svg" viewBox="0 0 421.2 117">
  <defs>
    <style>
      .cls-1 {
        fill: #5a5650;
      }

      .cls-2 {
        fill: #fd533c;
      }

      .cls-3 {
        fill: #4b4744;
      }

      .cls-4 {
        fill: #6a655f;
      }

      .cls-5 {
        fill: #554b46;
      }

      .cls-6 {
        fill: #524e48;
      }

      .cls-7 {
        fill: #fff;
      }

      .cls-8 {
        fill: #fcfbfb;
      }

      .cls-9 {
        fill: #554f4b;
      }

      .cls-10 {
        fill: #fe523b;
      }

      .cls-11 {
        fill: #534e48;
      }

      .cls-12 {
        fill: #6d6862;
      }

      .cls-13 {
        fill: #6b6660;
      }

      .cls-14 {
        fill: #6a645e;
      }

      .cls-15 {
        fill: #fefcfc;
      }

      .cls-16 {
        fill: #fd553c;
      }

      .cls-17 {
        fill: #514c47;
      }

      .cls-18 {
        fill: #58524c;
      }

      .cls-19 {
        fill: #fefefe;
      }

      .cls-20 {
        fill: #fd543d;
      }

      .cls-21 {
        fill: #6c6761;
      }

      .cls-22 {
        fill: #fdfdfd;
      }

      .cls-23 {
        fill: #706660;
      }
    </style>
  </defs>
  <rect class="cls-7" x="0" width="421.2" height="117"/>
  <g>
    <path class="cls-19" d="M435.87-154.95v453.75H-17.88V-154.95h453.75ZM266.32,73.47h-11.73l-2.88,4.43h17.71l3.54,8.85h-26.12l-.89,3.98h28.77l1.77,8.85h-33.64l-.44,3.98h34.53l.49,5.26,4.38.05c.65-19.02-8.7-36-20.37-50.24,0-.79,5.61-7.56,6.56-8.94,8.47-12.31,14.11-26.02,13.36-41.31l-4.68.42-.19,5.34h-33.64v3.98h33.2l-1.99,8.41h-29.44c-.32.84,1.46,3.98,1.99,3.98h26.34l-3.61,8.34-18.96.52c-.23.25,1.79,3.54,1.99,3.54h14.39c-1.8,3.04-3.78,6.06-6.02,8.81-.53.66-2.58,3.62-3.27,3.14-2.67-4.27-6.15-7.94-8.78-12.26-6.34-10.42-9.41-22.02-9.83-34.22l-4.43.25c-.41,19.1,8.6,35.69,20.38,49.98-11.41,14.54-20.97,31.06-20.37,50.25h4.43c.15-17.68,8.15-33.32,19.03-46.71l5.49,6.47,2.93,4.82ZM71.99,74.36c-.3,1.76-2.54,2.79-1.15,4.45,1.82,2.18,7.92,4.2,10.72,4.35,9.16.51,16.69-6,14.12-15.46s-16.52-8.63-19.16-14.93c-2.46-5.88,2.71-10.24,8.4-9.28,1.59-.39,6.7,3.24,7.42,2.79.53-.33,1.87-2.85,1.79-3.57-.2-2.01-6.83-3.6-8.67-3.76-9.26-.79-16.73,5.49-13.81,15.14,2.82,9.33,18.77,7.71,19.38,16.49.57,8.14-8.2,9.16-14.2,6.66-.87-.36-4.54-3.11-4.86-2.88ZM102.08,55.32c-.59,2.97-.75,5.87-.44,8.85,3.1,30.12,48.58,21.98,39.51-10.52-5.75-20.62-34.96-19.15-39.07,1.66ZM4.69,39.83c.03,9.44-.04,18.89,0,28.33,0,.15,0,.3,0,.44.02,3.24-.06,6.5,0,9.74,0,.15,0,.3,0,.44.03,1.03-.02,2.07,0,3.1l4.43.44v-18.15s7.96.22,7.96.22l10.41,17.94,5.53.42-11.06-19.26c8.68-1.67,12.2-12.53,7.08-19.47-2.84-3.85-6.6-4.39-11.07-4.65-.15,0-.3,0-.44,0-2.95-.14-7.33-.29-10.18,0-.83.06-2.16-.34-2.66.44ZM40.55,54.88c-.01.44,0,.89,0,1.33-.03,1.62.02,3.25,0,4.87-.01.88.01,1.77,0,2.66-.04,2.94-.01,5.91,0,8.85,0,.74,0,1.48,0,2.21.01,1.62-.05,3.26,0,4.87,0,.29,0,.59,0,.89.01.59-.02,1.18,0,1.77h23.46s.4-.25.4-.25l-.4-3.74-18.15-.44c-.23-.58-.41-.63-.47-1.5-.24-3.29-.3-9.24.01-12.48.04-.39-.04-1.03.46-1.08.15-.02.3.02.44,0,.91-.13,2.12.02,3.1,0,.15,0,.3,0,.44,0,3.52-.05,7.12.18,10.62,0,.29-.02.59.03.88,0,.04-.59-.03-1.18,0-1.77s.03-1.2,0-1.77c-.02-.29.02-.59,0-.88h-15.5c-1.41-3.52.13-10.59-.44-14.61h18.15s.4-4.18.4-4.18l-.4-.25h-22.58l-.44,15.49ZM150.34,39.83v21.25c0,.88,0,1.77,0,2.66,0,1.03,0,2.07,0,3.1,0,.44,0,.89,0,1.33,0,.59,0,1.18,0,1.77,0,.3,0,.59,0,.89v11.07c.05.61.65.41,1.08.46,4.82.6,14.18.23,19.28-.02.29-.01.59,0,.89,0l.44-.44c-.03-1.03.05-2.07,0-3.1-.01-.29.02-.59,0-.88h-15.94c-.35-.34-.7.7-.89-1.33-.01-.15,0-.3,0-.44-.03-.73.02-1.48,0-2.21s.01-1.48,0-2.21c-.16-10.76.12-21.56,0-32.32h-4.43s-.44.44-.44.44ZM174.67,39.4l-5.29-.02,15.26,42.94,5.05.39,15.1-43.34-4.82.05-12.67,35.81-12.64-35.84ZM210.98,39.83c-.02,1.47.03,2.96,0,4.43-.02.88,0,1.77,0,2.66,0,.44,0,.89,0,1.33-.03,4.27-.01,8.57,0,12.84,0,.3,0,.59,0,.89.02,6.78-.01,13.58,0,20.37h22.58s.44-4.43.44-4.43h-18.15v-15.05h15.49v-4.43h-15.49v-14.61h18.15v-4.43s-22.58,0-22.58,0l-.44.44ZM302.84,39.38h-11.73v43.38h8.85v-29.22l12.61,28.78c.58.7,5.16.73,5.76,0l12.61-29.22v29.66h8.41v-43.38h-10.85l-12.62,28.77-13.05-28.77ZM348.22,82.77h19.26c21.09,0,27.2-33.82,6.72-41.69-1.51-.58-5.27-1.69-6.72-1.69h-19.26v43.38ZM397.13,52.22h-8.63l10.48,15.27-10.92,15.28h9.07l6.2-9.3c.62-.14.73.38,1.03.74,1.94,2.31,3.83,5.91,5.38,8.56h9.3l-10.55-15.2,10.55-15.34h-8.63l-6.42,9.74-6.86-9.74Z"/>
    <path class="cls-16" d="M266.32,73.47l-2.93-4.82-5.49-6.47c-10.88,13.39-18.88,29.03-19.03,46.71h-4.43c-.6-19.19,8.96-35.72,20.37-50.25-11.77-14.29-20.79-30.88-20.38-49.98l4.43-.25c.42,12.2,3.49,23.8,9.83,34.22,2.63,4.32,6.11,7.98,8.78,12.26.69.47,2.73-2.49,3.27-3.14,2.24-2.74,4.22-5.77,6.02-8.81h-14.39c-.2,0-2.22-3.29-1.99-3.54l18.96-.52,3.61-8.34h-26.34c-.53,0-2.31-3.14-1.99-3.98h29.44l1.99-8.41h-33.2v-3.98h33.64l.19-5.34,4.68-.42c.74,15.29-4.89,29-13.36,41.31-.95,1.39-6.57,8.16-6.56,8.94,11.67,14.24,21.02,31.22,20.37,50.24l-4.38-.05-.49-5.26h-34.53l.44-3.98h33.64l-1.77-8.85h-28.77l.89-3.98h26.12l-3.54-8.85h-17.71l2.88-4.43h11.73Z"/>
    <path class="cls-10" d="M302.84,39.38l13.05,28.77,12.62-28.77h10.85v43.38h-8.41v-29.66l-12.61,29.22c-.6.73-5.18.7-5.76,0l-12.61-28.78v29.22h-8.85v-43.38h11.73Z"/>
    <path class="cls-2" d="M348.22,82.77v-43.38h19.26c1.45,0,5.21,1.11,6.72,1.69,20.48,7.87,14.37,41.69-6.72,41.69h-19.26ZM357.07,75.24h8.63c.2,0,3.28-.94,3.75-1.12,12.14-4.63,10.33-25.62-3.29-26.79-1.97-.17-4.21.08-6.23.04-1.12-.02-2.15-.9-2.86.2v27.67Z"/>
    <path class="cls-4" d="M101.64,64.18c.56-1.97.62-4.37.84-6.48.08-.73.36-1.92-.39-2.38,4.11-20.81,33.32-22.28,39.07-1.66,9.07,32.5-36.42,40.64-39.51,10.52ZM120.13,43.49c-18.92,1.99-18.21,35.15,1.57,35.12,21.51-.03,20.26-37.42-1.57-35.12Z"/>
    <path class="cls-13" d="M17.53,39.38l.22.43.22-.43c4.46.26,8.22.8,11.07,4.65,5.12,6.94,1.61,17.81-7.08,19.47l11.06,19.26-5.53-.42-10.41-17.94-7.97-.22-.44,17.71h-3.99c-.02-1.03.03-2.07,0-3.1l.43-.22-.43-.22c-.06-3.24.02-6.5,0-9.74l.43-.22-.43-.22c-.04-9.44.03-18.89,0-28.33.98.44,2.15-.39,2.66-.44,2.86-.29,7.23-.14,10.18,0ZM9.12,44.25l-.32.19c0,.11.32.2.32.25-.01.74,0,1.48,0,2.21,0,.14,0,.3,0,.44-.02,2.21,0,4.43,0,6.64-1.04,1.24-.37,3.07,0,4.43.09.32-.17.88.05,1.26,7.81,1.56,18.93.41,17.11-10.23-1.14-6.66-10.9-6.13-16.08-5.66-.39.04-1.03-.04-1.08.46Z"/>
    <path class="cls-20" d="M397.13,52.22l6.86,9.74,6.42-9.74h8.63l-10.55,15.34,10.55,15.2h-9.3c-1.56-2.65-3.44-6.25-5.38-8.56-.3-.36-.41-.88-1.03-.74l-6.2,9.3h-9.07l10.92-15.28-10.48-15.27h8.63Z"/>
    <polygon class="cls-14" points="174.67 39.4 187.3 75.25 199.97 39.44 204.79 39.39 189.69 82.72 184.64 82.33 169.37 39.39 174.67 39.4"/>
    <path class="cls-14" d="M71.99,74.36c.32-.23,3.99,2.52,4.86,2.88,5.99,2.5,14.76,1.48,14.2-6.66-.61-8.77-16.57-7.15-19.38-16.49-2.91-9.65,4.55-15.93,13.81-15.14,1.83.16,8.46,1.75,8.67,3.76.07.72-1.27,3.23-1.79,3.57-.72.45-5.83-3.19-7.42-2.79-5.69-.96-10.86,3.4-8.4,9.28,2.63,6.3,16.54,5.28,19.16,14.93s-4.96,15.97-14.12,15.46c-2.8-.16-8.9-2.17-10.72-4.35-1.39-1.66.85-2.69,1.15-4.45Z"/>
    <path class="cls-23" d="M211.43,39.38h22.58s0,4.43,0,4.43h-18.15v14.61h15.49v4.43h-15.49v15.05h18.15l-.44,4.43-22.14-.44-.44-19.92c0-.3,0-.59,0-.89.78-3.2.49-7.06.45-10.41,0-.75.28-1.97-.45-2.43,0-.44,0-.89,0-1.33.72-.45.71-2.24,0-2.66.03-1.47-.02-2.96,0-4.43l.44-.44Z"/>
    <path class="cls-12" d="M63.57,39.38v4.43h-18.15c.57,4.02-.96,11.09.44,14.61.09.22-.27.8.28.9l15.22-.02c.03.58.03,1.2,0,1.77l-.89,1.77c-3.51.18-7.1-.05-10.62,0l-.22-.43-.22.43c-.98.02-2.19-.13-3.1,0l-.22-.43-.22.43c-.5.04-.42.68-.46,1.08-.31,3.24-.26,9.19-.01,12.48.06.86.24.92.47,1.5.07.17-.14.57.05.82l.59.09,17.51-.47.4,3.74-.4.25c-.46-.73-1.68-.44-2.43-.45-6.65-.08-13.31.05-19.96.04l-1.08-1.36c0-.29,0-.59,0-.89.74-1.04.76-3.75,0-4.87,0-.74,0-1.48,0-2.21.74-2.57.74-6.32,0-8.85.01-.88-.01-1.77,0-2.66.74-1.04.76-3.75,0-4.87,0-.44-.01-.89,0-1.33,0-.08.45-.7.48-1.5.12-4.66-.16-9.34-.03-14h22.58Z"/>
    <path class="cls-21" d="M150.78,39.38h4.43c.12,10.76-.16,21.55,0,32.32-.7.29-.7,1.92,0,2.21.02.74-.03,1.48,0,2.21l-.32.2.32.25c.18,2.03.53.99.89,1.33.07.06-.25,1.06.63.92l15.3-.04c.05,1.03-.03,2.07,0,3.1l-.44.44c-.29,0-.59-.01-.89,0l-20.36-.44v-11.07l.44-.66-.44-.23c0-.59,0-1.18,0-1.77.67-.06.67-1.27,0-1.33,0-1.03,0-2.07,0-3.1.72-.45.71-2.24,0-2.66v-21.25l.44-.44Z"/>
    <path class="cls-5" d="M210.98,61.96l.44,19.92,22.14.44h-22.58c0-6.78.02-13.58,0-20.36Z"/>
    <path class="cls-3" d="M64.01,78.34l-17.51.47-.59-.09c-.19-.25.02-.65-.05-.82l18.15.44Z"/>
    <path class="cls-17" d="M156.09,77.9h15.94c.02.29-.02.59,0,.89l-15.3.04c-.88.14-.57-.86-.63-.92Z"/>
    <path class="cls-1" d="M45.86,58.42h15.5c.02.29-.02.59,0,.89l-15.22.02c-.54-.11-.19-.68-.28-.9Z"/>
    <path class="cls-6" d="M40.55,80.55l1.08,1.36c6.65,0,13.31-.13,19.96-.04.75,0,1.97-.28,2.43.45h-23.46c-.02-.59.02-1.18,0-1.77Z"/>
    <polygon class="cls-11" points="9.12 64.18 9.12 82.33 4.69 81.88 8.68 81.88 9.12 64.18"/>
    <path class="cls-17" d="M170.7,82.32c-5.1.25-14.46.62-19.28.02-.43-.05-1.03.15-1.08-.46l20.36.44Z"/>
    <path class="cls-6" d="M40.55,54.88l.44-15.49c-.12,4.65.15,9.34.03,14-.02.8-.47,1.42-.48,1.5Z"/>
    <path class="cls-5" d="M210.98,61.08c-.01-4.27-.03-8.57,0-12.84.73.46.44,1.68.45,2.43.04,3.35.33,7.21-.45,10.41Z"/>
    <path class="cls-9" d="M101.64,64.18c-.31-2.98-.14-5.89.44-8.85.76.46.47,1.65.39,2.38-.22,2.11-.27,4.51-.84,6.48Z"/>
    <path class="cls-6" d="M40.55,72.59c-.01-2.94-.04-5.91,0-8.85.74,2.54.74,6.28,0,8.85Z"/>
    <path class="cls-6" d="M40.55,61.08c.02-1.62-.03-3.25,0-4.87.76,1.12.74,3.83,0,4.87Z"/>
    <path class="cls-6" d="M40.55,79.67c-.05-1.61.01-3.25,0-4.87.76,1.12.74,3.83,0,4.87Z"/>
    <polygon class="cls-6" points="63.57 43.81 63.57 39.38 63.98 39.63 63.57 43.81"/>
    <path class="cls-11" d="M7.35,39.38c-.51.05-1.68.88-2.66.44.5-.78,1.82-.38,2.66-.44Z"/>
    <path class="cls-5" d="M210.98,46.91c0-.88-.02-1.77,0-2.66.71.42.72,2.21,0,2.66Z"/>
    <path class="cls-1" d="M61.36,61.08c-.03.59.04,1.19,0,1.77-.29.02-.59-.02-.88,0l.89-1.77Z"/>
    <path class="cls-17" d="M150.34,63.73c0-.88,0-1.77,0-2.66.71.42.72,2.21,0,2.66Z"/>
    <path class="cls-17" d="M155.21,73.91c-.7-.29-.7-1.92,0-2.21.01.74-.02,1.48,0,2.21Z"/>
    <path class="cls-17" d="M150.34,68.16c0-.44,0-.89,0-1.33.67.06.67,1.27,0,1.33Z"/>
    <path class="cls-17" d="M150.34,70.82c0-.3,0-.59,0-.89l.44.23-.44.66Z"/>
    <path class="cls-17" d="M150.34,39.83l.44-.44-.44.44Z"/>
    <path class="cls-1" d="M46.31,62.85c-.14.02-.3-.02-.44,0l.22-.43.22.43Z"/>
    <path class="cls-1" d="M49.85,62.85c-.15,0-.3,0-.44,0l.22-.43.22.43Z"/>
    <path class="cls-11" d="M17.53,39.38c.15,0,.3,0,.44,0l-.22.43-.22-.43Z"/>
    <path class="cls-11" d="M4.69,68.6c0-.15,0-.3,0-.44l.43.22-.43.22Z"/>
    <path class="cls-17" d="M155.21,76.57l-.32-.25.32-.2c0,.15-.01.3,0,.44Z"/>
    <path class="cls-5" d="M210.98,39.83l.44-.44-.44.44Z"/>
    <path class="cls-11" d="M4.69,78.78c0-.15,0-.3,0-.44l.43.22-.43.22Z"/>
    <path class="cls-17" d="M171.59,82.32l.44-.44-.44.44Z"/>
    <path class="cls-15" d="M357.07,75.24v-27.67c.71-1.09,1.73-.22,2.86-.2,2.02.04,4.26-.21,6.23-.04,13.62,1.17,15.44,22.16,3.29,26.79-.47.18-3.56,1.12-3.75,1.12h-8.63Z"/>
    <path class="cls-22" d="M120.13,43.49c21.83-2.3,23.08,35.08,1.57,35.12-19.78.03-20.5-33.12-1.57-35.12Z"/>
    <path class="cls-8" d="M9.12,44.25c.05-.5.69-.42,1.08-.46,5.18-.48,14.94-1,16.08,5.66,1.82,10.64-9.3,11.79-17.11,10.23-.23-.38.04-.94-.05-1.26v-4.43c0-2.21-.02-4.43,0-6.64v-.44c0-.74-.01-1.48,0-2.21v-.44Z"/>
    <path class="cls-18" d="M9.12,58.42c-.37-1.36-1.04-3.19,0-4.43v4.43Z"/>
    <path class="cls-18" d="M9.12,47.35c0-.14,0-.3,0-.44v.44Z"/>
    <path class="cls-18" d="M9.12,44.7c0-.05-.33-.15-.32-.25l.32-.19v.44Z"/>
  </g>
</svg>