<?xml version="1.0" encoding="UTF-8"?>
<svg id="Layer_1" data-name="Layer 1" xmlns="http://www.w3.org/2000/svg" viewBox="0 0 2788 860.52">
  <defs>
    <style>
      .cls-1 {
        fill: #fff;
      }

      .cls-2 {
        fill: #004aad;
      }

      .cls-3 {
        isolation: isolate;
      }

      .cls-4 {
        fill: #3981cc;
      }

      .cls-5 {
        fill: #4b4b4b;
      }
    </style>
  </defs>
  <rect class="cls-1" y="2.03" width="2790" height="855"/>
  <g>
    <g>
      <g>
        <path class="cls-5" d="M1205.1,646.73c4.3-30.4.4-57.5-9.4-81.7-1.5-3.8-3.1-7.5-5-11.1-8.1-16.5-19.1-31.7-32.1-45.8-3.1-3.4-6.3-6.7-9.6-9.9-10.3-10.1-21.8-19.7-33.9-28.9-36.9-30.1-79.7-54.5-106.9-95.6-3.5-5.3-6.4-10.8-8.6-16.5v-.1c-.6-1.6-1.2-3.1-1.7-4.7-7.1-22.2-5.1-47,2.7-69.2.9-2.8,2-5.5,3.2-8.3,1.1-2.7,2.3-5.3,3.7-7.8,8.5-16.1,19.8-30.4,33.1-42.7,2.9-2.7,5.9-5.2,8.9-7.7,10.9-8.8,22.9-16.3,35.5-22.5-10.9,6.6-21.3,14.5-30.9,23.3-3.6,3.3-7,6.7-10.3,10.2-13.3,14.2-24.3,30.4-31.3,47.9-1.6,3.7-2.9,7.5-4.1,11.4-4.8,15.9-6.3,32.7-3.5,49.9.7,3.7,1.7,7.3,3,10.7,1.6,4.7,3.6,9.2,5.9,13.5,12,22.1,32.6,39.4,52.3,55.5,32.5,24.9,67,49.9,94,79.1,1.9,1.9,3.7,3.9,5.3,5.9,13.7,15.6,25.1,32.3,32.9,50.9,1.3,3.1,2.5,6.2,3.7,9.4,8.5,24.8,10.5,52.6,3.1,84.8Z"/>
        <path class="cls-5" d="M1165.5,501.73c0,2.7-1.8,5.1-4.5,5.8l-2.3.6-107.9,27.5c-.5.1-1,.2-1.5.2-2.7,0-5.1-1.8-5.8-4.5-.8-3.2,1.1-6.5,4.3-7.3l101.3-25.9,8.9-2.3c.7-.2,1.5-.2,2.2-.1,1.8,2,3.6,4,5.3,6Z"/>
        <path class="cls-5" d="M1202,561.93c-.8,1.1-1.9,1.9-3.3,2.3l-3,.8-101.9,26.5c-.5.1-1,.2-1.5.2-2.7,0-5.1-1.8-5.8-4.5-.8-3.2,1.1-6.5,4.3-7.3l99.9-26.1,4.9-1.3c.9-.3,1.9-.3,2.7-.1,1.4,3.2,2.6,6.3,3.7,9.5Z"/>
        <path class="cls-5" d="M1147.5,240.93c-.5,2.9-3.1,4.9-5.9,4.9-.4,0-.7,0-1.1-.1l-95.3-17.7c-.5-.1-.9-.2-1.3-.3-1.5-.7-2.6-1.9-3.2-3.3,2.9-2.7,5.9-5.2,8.9-7.7l4.5.9,88.5,16.5c3.3.5,5.5,3.6,4.9,6.8Z"/>
        <path class="cls-5" d="M1118.4,303.33c-.6,2.9-3.1,4.8-5.9,4.8-.4,0-.8,0-1.2-.1l-102.9-20.9-3.7-.7c-1.9-.3-3.3-1.6-4.1-3.2.9-2.8,2-5.5,3.2-8.3,1-.4,2.2-.5,3.3-.3l5.3,1.1,101.1,20.5c3.4.7,5.6,3.9,4.9,7.1Z"/>
        <g>
          <path class="cls-4" d="M1078.9,659.93c-12.1-5.7-23.7-13-34.4-21.6-3.1-2.4-6.1-4.9-8.9-7.6-15.5-14.1-28.5-31-37-49.7-1.3-2.7-2.5-5.5-3.5-8.3-6.7-17.7-9.5-36.7-6.9-56.3.5-3.3,1.1-6.3,2-9.4q-.1-.1,0-.1c.5-1.8,1-3.5,1.6-5.3,9.8-29,34.3-51.5,57.2-70.3,3.2,2.6,6.4,5.1,9.6,7.7-20.7,16.7-42.1,34.9-53.3,58.6-2.1,4.3-3.9,8.8-5.1,13.5-.7,2.3-1.2,4.6-1.7,7-2.7,17.5-.9,34.5,4.2,50.7,1.2,3.9,2.6,7.6,4.2,11.3,7.3,17.4,18.4,33.5,31.7,47.5,3.3,3.5,6.6,6.7,10.1,9.9,9.5,8.4,19.7,16,30.2,22.4Z"/>
          <path class="cls-4" d="M1193.5,283.93c-.8,3.3-1.7,6.5-2.7,9.7-6.4,20.4-16.9,38.5-30.3,55.3-1.7,2.1-3.3,4.1-5.1,6.2-19.5,22.9-44.2,43.3-70.2,63.4-.3-.2-.7-.5-1-.7l-8.7-6.7c24.9-18.8,48.7-37.3,68.3-58.1,3.2-3.3,6.3-6.7,9.3-10.3,12.9-15.1,23.4-31.5,30.7-50,1.5-3.7,2.7-7.5,3.9-11.4,6.5-21.5,8.7-45.9,5.1-74.1,6.4,28.9,6.1,54.2.7,76.7Z"/>
          <path class="cls-4" d="M1078.9,492.93l-78.7,18-2.8.7c-.5.1-.9.1-1.3.1-2.7,0-5.3-1.9-5.9-4.7,0-.1-.1-.1,0-.2q-.1-.1,0-.1c.5-1.8,1-3.5,1.6-5.3.8-.7,1.8-1.3,2.9-1.6l10.6-2.4,70.9-16.2c3.3-.7,6.5,1.3,7.2,4.5.7,3.3-1.3,6.5-4.5,7.2Z"/>
          <path class="cls-4" d="M1108.1,557.33l-101.2,22.6-5.1,1.1c-.5.1-.9.2-1.3.2-.7,0-1.3-.1-1.9-.3-1.3-2.7-2.5-5.5-3.5-8.3.8-1.5,2.3-2.8,4.1-3.2l3.5-.8,102.7-23c3.3-.7,6.5,1.3,7.2,4.5.8,3.3-1.3,6.5-4.5,7.2Z"/>
          <path class="cls-4" d="M1140.9,616.43l-92.1,20.9-4.3.9c-3.1-2.4-6.1-4.9-8.9-7.6.6-1.4,1.7-2.6,3.1-3.3.4-.2.8-.3,1.2-.4l98.3-22.3c3.3-.7,6.5,1.3,7.2,4.5.7,3.3-1.3,6.6-4.5,7.3Z"/>
          <path class="cls-4" d="M1193.5,283.93c-.8,3.3-1.7,6.5-2.7,9.7-.6.2-1.2.3-1.8.3-.5,0-.9-.1-1.3-.1l-3.9-.9-102.1-23.6c-3.2-.7-5.2-3.9-4.5-7.2.7-3.2,3.9-5.2,7.2-4.5l103.3,23.9,2.7.6c1.2.2,2.3.9,3.1,1.8Z"/>
          <path class="cls-4" d="M1160.5,349.03c-1.7,2.1-3.3,4.1-5.1,6.2-.3.1-.6.1-.9.1-.4,0-.9-.1-1.3-.1l-9.5-2-94.7-19.7c-3.3-.7-5.3-3.9-4.7-7.1.7-3.3,3.9-5.3,7.1-4.7l101.6,21.3,2.7.5c2.8.5,4.7,2.8,4.8,5.5Z"/>
        </g>
        <path class="cls-5" d="M1081.9,369.23c-.6,2.9-3.1,4.8-5.9,4.8-.4,0-.9-.1-1.3-.1l-60.9-12.7-11.3-2.3c-1.2-.3-2.2-.9-3-1.7-.1,0,0-.1,0-.1-.6-1.6-1.2-3.1-1.7-4.7,0-.2,0-.4.1-.7.7-3.2,3.8-5.3,7.1-4.6l2.9.6,69.3,14.5c3.3.6,5.4,3.8,4.7,7Z"/>
      </g>
      <g>
        <path class="cls-5" d="M1610.7,226.03c-29.9,6.8-57.2,5.1-82.2-2.6-3.9-1.1-7.7-2.5-11.5-4.1-17.1-6.7-33.1-16.4-48.3-28.2-3.6-2.8-7.2-5.7-10.7-8.7-11-9.5-21.5-20.1-31.6-31.4-33-34.3-60.9-74.9-104.1-98.6-5.5-3.1-11.3-5.5-17.2-7.2h-.1c-1.6-.5-3.2-.9-4.9-1.3-22.7-5.2-47.3-1.2-68.7,8.4-2.7,1.2-5.3,2.4-8,3.9-2.6,1.3-5.1,2.8-7.5,4.3-15.3,9.8-28.7,22.2-39.8,36.5-2.4,3.1-4.7,6.3-7,9.5-7.9,11.6-14.4,24.2-19.5,37.2,5.7-11.4,12.7-22.5,20.7-32.8,3-3.9,6.1-7.5,9.3-11.1,13.1-14.4,28.3-26.7,45.2-35.2,3.6-1.9,7.3-3.5,11-5,15.4-6.1,32-9,49.4-7.6,3.7.4,7.4,1.1,10.9,2.1,4.8,1.2,9.5,2.8,13.9,4.8,23,10.1,42,29.2,59.7,47.5,27.5,30.3,55.3,62.7,86.6,87.2,2.1,1.7,4.2,3.3,6.4,4.8,16.7,12.4,34.3,22.4,53.4,28.6,3.2,1.1,6.4,2,9.7,2.9,25.5,6.5,53.5,6.2,84.9-3.9Z"/>
        <path class="cls-5" d="M1462.9,198.53c2.7-.2,5-2.2,5.4-5l.4-2.4,18.5-109.8c.1-.5.1-1,.1-1.5-.2-2.7-2.2-4.9-5-5.4-3.3-.5-6.4,1.7-6.9,4.9l-17.4,103.1-1.5,9.1c-.1.7-.1,1.5,0,2.2,2.1,1.7,4.3,3.3,6.4,4.8Z"/>
        <path class="cls-5" d="M1526,230.03c1-.9,1.7-2.1,2-3.5l.5-3.1,18-103.8c.1-.5.1-1,.1-1.5-.2-2.7-2.2-4.9-4.9-5.4-3.3-.5-6.4,1.6-7,4.9l-17.7,101.7-.9,5c-.2,1-.1,1.9.2,2.7,3.2,1.2,6.4,2.1,9.7,3Z"/>
        <path class="cls-5" d="M1201.6,202.13c2.9-.8,4.7-3.5,4.4-6.3,0-.4-.1-.7-.2-1.1l-25.5-93.5c-.1-.5-.3-.8-.4-1.2-.8-1.4-2.1-2.4-3.6-2.9-2.4,3.1-4.7,6.3-7,9.5l1.2,4.4,23.7,86.9c.9,3.2,4.2,5.1,7.4,4.2Z"/>
        <path class="cls-5" d="M1261.3,168.03c2.8-.8,4.5-3.5,4.3-6.2,0-.4-.1-.8-.2-1.2l-29.3-100.8-1-3.6c-.5-1.8-1.9-3.2-3.5-3.9-2.7,1.2-5.3,2.4-8,3.9-.3,1-.4,2.2,0,3.3l1.5,5.2,28.8,99.1c.9,3.3,4.2,5.1,7.4,4.2Z"/>
        <g>
          <path class="cls-4" d="M1613.4,99.23c-6.7-11.6-14.9-22.5-24.4-32.5-2.6-2.9-5.4-5.6-8.3-8.3-15.4-14.2-33.2-25.8-52.6-32.8-2.8-1-5.7-2-8.6-2.8-18.2-5.3-37.3-6.5-56.7-2.3-3.2.7-6.2,1.7-9.2,2.8q-.1-.1-.1,0c-1.8.6-3.4,1.3-5.1,2-28.1,12.2-48.5,38.4-65.3,62.8,2.9,3,5.6,6,8.4,8.9,15-22,31.3-44.9,54-57.9,4.1-2.5,8.5-4.6,13-6.2,2.2-.9,4.5-1.6,6.8-2.2,17.2-4.1,34.3-3.8,50.8,0,4,.9,7.8,2,11.6,3.3,17.9,5.9,34.9,15.6,49.9,27.7,3.7,3,7.3,6,10.7,9.3,9.5,8.7,17.9,18.3,25.1,28.2Z"/>
          <path class="cls-4" d="M1248.2,244.43c3.3-1.1,6.4-2.2,9.5-3.5,19.8-8.1,37-20.1,52.6-34.7,1.9-1.8,3.8-3.7,5.8-5.6,21.2-21.4,39.5-47.6,57.4-75.2-.2-.3-.5-.6-.8-.9l-7.4-8.2c-16.7,26.4-33.2,51.6-52.2,72.9-3.1,3.5-6.2,6.8-9.5,10.1-14,14.1-29.5,25.9-47.3,34.7-3.6,1.8-7.2,3.3-11,4.9-20.9,8.3-45,12.4-73.5,11.2,29.2,3.9,54.4,1.5,76.4-5.7Z"/>
          <path class="cls-4" d="M1447,112.93l11.5-79.9.4-2.8c0-.5.1-.9,0-1.3-.2-2.7-2.3-5.1-5.1-5.5-.1,0-.1-.1-.2,0q-.1-.1-.1,0c-1.8.6-3.4,1.3-5.1,2-.7.9-1.2,1.9-1.4,3.1l-1.5,10.8-10.3,72c-.5,3.3,1.8,6.3,5,6.8,3.4.4,6.4-1.8,6.8-5.2Z"/>
          <path class="cls-4" d="M1513.6,136.83l14.2-102.7.7-5.1c.1-.5.1-.9.1-1.3-.1-.7-.2-1.3-.5-1.9-2.8-1-5.7-2-8.6-2.8-1.5.9-2.6,2.5-2.9,4.3l-.5,3.6-14.4,104.3c-.5,3.3,1.9,6.3,5.1,6.8,3.4.4,6.4-2,6.8-5.2Z"/>
          <path class="cls-4" d="M1575.2,164.53l13.3-93.5.6-4.3c-2.6-2.9-5.4-5.6-8.3-8.3-1.3.7-2.5,1.9-3,3.3-.2.4-.3.8-.3,1.2l-14.1,99.8c-.5,3.3,1.8,6.3,5.1,6.8,3.2.6,6.2-1.6,6.7-5Z"/>
          <path class="cls-4" d="M1248.2,244.43c3.3-1.1,6.4-2.2,9.5-3.5.1-.6.2-1.2.1-1.8,0-.5-.1-.9-.2-1.3l-1.3-3.8-31.9-99.8c-1-3.1-4.3-4.9-7.5-3.9-3.1,1-4.9,4.3-3.9,7.5l32.3,100.9.8,2.6c.4,1.4,1.1,2.4,2.1,3.1Z"/>
          <path class="cls-4" d="M1310.3,206.23c1.9-1.8,3.8-3.7,5.8-5.6v-.9c0-.4-.1-.9-.2-1.3l-2.8-9.3-27.5-92.8c-1-3.2-4.3-5-7.5-4.1s-5,4.3-4.1,7.4l29.6,99.5.8,2.6c.8,2.9,3.3,4.6,5.9,4.5Z"/>
        </g>
        <path class="cls-5" d="M1324,126.23c2.8-.8,4.5-3.5,4.3-6.2,0-.4-.1-.9-.2-1.3l-17.7-59.7-3.3-11c-.4-1.2-1-2.1-1.9-2.9,0-.1-.1,0-.1,0-1.6-.5-3.2-.9-4.9-1.3-.2,0-.4,0-.7.1-3.1.9-5,4.2-4,7.4l.8,2.8,20.1,67.9c1.1,3.3,4.4,5.1,7.6,4.2Z"/>
      </g>
      <g>
        <path class="cls-5" d="M1619.4,643.03c-29.9-6.8-57.2-5.1-82.2,2.6-3.9,1.1-7.7,2.5-11.5,4.1-17.1,6.7-33.1,16.4-48.3,28.2-3.6,2.8-7.2,5.7-10.7,8.7-11,9.5-21.5,20.1-31.6,31.4-33,34.3-60.9,74.9-104.1,98.6-5.5,3.1-11.3,5.5-17.2,7.2h-.1c-1.6.5-3.2.9-4.9,1.3-22.7,5.2-47.3,1.2-68.7-8.4-2.7-1.2-5.3-2.4-8-3.9-2.6-1.3-5.1-2.8-7.5-4.3-15.3-9.8-28.7-22.2-39.8-36.5-2.4-3.1-4.7-6.3-7-9.5-7.9-11.6-14.4-24.2-19.5-37.2,5.7,11.4,12.7,22.5,20.7,32.8,3,3.9,6.1,7.5,9.3,11.1,13.1,14.4,28.3,26.7,45.2,35.2,3.6,1.9,7.3,3.5,11,5,15.4,6.1,32,9,49.4,7.6,3.7-.4,7.4-1.1,10.9-2.1,4.8-1.2,9.5-2.8,13.9-4.8,23-10.1,42-29.2,59.7-47.5,27.5-30.3,55.3-62.7,86.6-87.2,2.1-1.7,4.2-3.3,6.4-4.8,16.7-12.4,34.3-22.4,53.4-28.6,3.2-1.1,6.4-2,9.7-2.9,25.5-6.5,53.4-6.2,84.9,3.9Z"/>
        <path class="cls-5" d="M1471.5,670.53c2.7.2,5,2.2,5.4,5l.4,2.4,18.5,109.8c.1.5.1,1,.1,1.5-.2,2.7-2.2,4.9-5,5.4-3.3.5-6.4-1.7-6.9-4.9l-17.4-103.1-1.5-9.1c-.1-.7-.1-1.5,0-2.2,2.2-1.6,4.3-3.3,6.4-4.8Z"/>
        <path class="cls-5" d="M1534.6,639.13c1,.9,1.7,2.1,2,3.5l.5,3.1,18,103.8c.1.5.1,1,.1,1.5-.2,2.7-2.2,4.9-4.9,5.4-3.3.5-6.4-1.6-7-4.9l-17.7-101.7-.9-5c-.2-1-.1-1.9.2-2.7,3.2-1.2,6.4-2.1,9.7-3Z"/>
        <path class="cls-5" d="M1210.2,667.03c2.9.8,4.7,3.5,4.4,6.3,0,.4-.1.7-.2,1.1l-25.5,93.5c-.1.5-.3.8-.4,1.2-.8,1.4-2.1,2.4-3.6,2.9-2.4-3.1-4.7-6.3-7-9.5l1.2-4.4,23.7-86.9c1-3.2,4.3-5.1,7.4-4.2Z"/>
        <path class="cls-5" d="M1269.9,701.13c2.8.8,4.5,3.5,4.3,6.2,0,.4-.1.8-.2,1.2l-29.3,100.8-1,3.6c-.5,1.8-1.9,3.2-3.5,3.9-2.7-1.2-5.3-2.4-8-3.9-.3-1-.4-2.2,0-3.3l1.5-5.2,28.8-99.1c.9-3.3,4.3-5.2,7.4-4.2Z"/>
        <g>
          <path class="cls-4" d="M1622,769.83c-6.7,11.6-14.9,22.5-24.4,32.5-2.6,2.9-5.4,5.6-8.3,8.3-15.4,14.2-33.2,25.8-52.6,32.8-2.8,1-5.7,2-8.6,2.8-18.2,5.3-37.3,6.5-56.7,2.3-3.2-.7-6.2-1.7-9.2-2.8q-.1.1-.1,0c-1.8-.6-3.4-1.3-5.1-2-28.1-12.2-48.5-38.4-65.3-62.8,2.9-3,5.6-6,8.4-8.9,15,22,31.3,44.9,54,57.9,4.1,2.5,8.5,4.6,13,6.2,2.2.9,4.5,1.6,6.8,2.2,17.2,4.1,34.3,3.8,50.8,0,4-.9,7.8-2,11.6-3.3,17.9-5.9,34.9-15.6,49.9-27.7,3.7-3,7.3-6,10.7-9.3,9.5-8.7,17.9-18.2,25.1-28.2Z"/>
          <path class="cls-4" d="M1256.8,624.73c3.3,1.1,6.4,2.2,9.5,3.5,19.8,8.1,37,20.1,52.6,34.7,1.9,1.8,3.8,3.7,5.8,5.6,21.2,21.4,39.5,47.6,57.4,75.2-.2.3-.5.6-.8.9l-7.4,8.2c-16.7-26.4-33.2-51.6-52.2-72.9-3.1-3.5-6.2-6.8-9.5-10.1-14-14.1-29.5-25.9-47.3-34.7-3.6-1.8-7.2-3.3-11-4.9-20.9-8.3-45-12.4-73.5-11.2,29.3-4,54.4-1.6,76.4,5.7Z"/>
          <path class="cls-4" d="M1455.7,756.13l11.5,79.9.4,2.8c0,.5.1.9,0,1.3-.2,2.7-2.3,5.1-5.1,5.5-.1,0-.1.1-.2,0q-.1.1-.1,0c-1.8-.6-3.4-1.3-5.1-2-.7-.9-1.2-1.9-1.4-3.1l-1.5-10.8-10.3-72c-.5-3.3,1.8-6.3,5-6.8,3.3-.4,6.3,1.9,6.8,5.2Z"/>
          <path class="cls-4" d="M1522.3,732.33l14.2,102.7.7,5.1c.1.5.1.9.1,1.3-.1.7-.2,1.3-.5,1.9-2.8,1-5.7,2-8.6,2.8-1.5-.9-2.6-2.5-2.9-4.3l-.5-3.6-14.4-104.3c-.5-3.3,1.9-6.3,5.1-6.8,3.3-.4,6.3,1.9,6.8,5.2Z"/>
          <path class="cls-4" d="M1583.8,704.53l13.3,93.5.6,4.3c-2.6,2.9-5.4,5.6-8.3,8.3-1.3-.7-2.5-1.9-3-3.3-.2-.4-.3-.8-.3-1.2l-14.1-99.8c-.5-3.3,1.8-6.3,5.1-6.8,3.2-.6,6.3,1.7,6.7,5Z"/>
          <path class="cls-4" d="M1256.8,624.73c3.3,1.1,6.4,2.2,9.5,3.5.1.6.2,1.2.1,1.8,0,.5-.1.9-.2,1.3l-1.3,3.8-31.9,99.8c-1,3.1-4.3,4.9-7.5,3.9-3.1-1-4.9-4.3-3.9-7.5l32.3-100.9.8-2.6c.4-1.4,1.1-2.4,2.1-3.1Z"/>
          <path class="cls-4" d="M1319,662.93c1.9,1.8,3.8,3.7,5.8,5.6v.9c0,.4-.1.9-.2,1.3l-2.8,9.3-27.5,92.8c-1,3.2-4.3,5-7.5,4.1s-5-4.3-4.1-7.4l29.6-99.5.8-2.6c.7-3,3.2-4.6,5.9-4.5Z"/>
        </g>
        <path class="cls-5" d="M1332.6,742.93c2.8.8,4.5,3.5,4.3,6.2,0,.4-.1.9-.2,1.3l-17.7,59.6-3.3,11c-.4,1.2-1,2.1-1.9,2.9,0,.1-.1,0-.1,0-1.6.5-3.2.9-4.9,1.3-.2,0-.4,0-.7-.1-3.1-.9-5-4.2-4-7.4l.8-2.8,20.1-67.9c1.1-3.3,4.5-5.1,7.6-4.1Z"/>
      </g>
    </g>
    <path class="cls-2" d="M1266.5,412.13l7.3-16.5c9.1,7.3,23.6,12.6,37.7,12.6,17.8,0,25.3-6.4,25.3-14.8,0-24.6-67.8-8.5-67.8-50.9,0-18.4,14.7-34.1,46-34.1,13.7,0,28,3.6,38,10.1l-6.7,16.5c-10.3-6-21.5-9-31.5-9-17.6,0-24.8,6.8-24.8,15.5,0,24.3,67.7,8.5,67.7,50.4,0,18.3-14.8,33.9-46.1,33.9-17.9,0-35.7-5.6-45.1-13.7Z"/>
    <path class="cls-2" d="M1479.6,406.43v17.8h-85.6v-114.2h83.3v17.8h-62.1v29.7h55.1v17.4h-55.1v31.5h64.4Z"/>
    <path class="cls-2" d="M1638.7,435.63c-7.5,8.8-17.8,13.5-29.8,13.5-15.5,0-27.1-6-43.9-23.6-32-2.8-55-26.7-55-58.4,0-33.8,26.1-58.7,61.5-58.7s61.5,24.8,61.5,58.7c0,27.6-17.3,49.1-42.7,56.3,6.5,7,12.4,9.6,19.1,9.6,7.5,0,14-3.1,19.6-9.1l9.7,11.7ZM1571.5,407.23c23,0,40.1-16.8,40.1-40.1s-17.1-40.1-40.1-40.1-40.1,16.8-40.1,40.1,17.1,40.1,40.1,40.1Z"/>
    <g class="cls-3">
      <path class="cls-2" d="M1274.53,486.15h8.21v37.27h23.12v6.95h-31.33v-44.22Z"/>
      <path class="cls-2" d="M1352.36,520.14h-22.11l-4.36,10.23h-8.46l19.9-44.22h8.09l19.96,44.22h-8.59l-4.42-10.23ZM1349.64,513.69l-8.34-19.33-8.28,19.33h16.61Z"/>
      <path class="cls-2" d="M1421.28,518.37c0,7.58-5.94,12-17.31,12h-21.98v-44.22h20.72c10.61,0,16.3,4.49,16.3,11.5,0,4.55-2.27,7.9-5.69,9.73,4.74,1.52,7.96,5.24,7.96,10.99ZM1390.2,492.6v12.19h11.62c5.69,0,8.91-2.02,8.91-6.06s-3.22-6.13-8.91-6.13h-11.62ZM1413,517.55c0-4.42-3.35-6.38-9.54-6.38h-13.27v12.76h13.27c6.19,0,9.54-1.96,9.54-6.38Z"/>
      <path class="cls-2" d="M1437.89,508.26c0-13.08,10.11-22.74,23.82-22.74s23.82,9.6,23.82,22.74-10.11,22.74-23.82,22.74-23.82-9.67-23.82-22.74ZM1477.25,508.26c0-9.03-6.63-15.54-15.54-15.54s-15.54,6.51-15.54,15.54,6.63,15.54,15.54,15.54,15.54-6.51,15.54-15.54Z"/>
      <path class="cls-2" d="M1534.17,530.37l-9.03-12.95c-.57.06-1.14.06-1.71.06h-9.98v12.89h-8.21v-44.22h18.19c11.62,0,18.82,5.94,18.82,15.73,0,6.7-3.41,11.62-9.41,13.96l10.17,14.53h-8.84ZM1523.05,493.1h-9.6v17.62h9.6c7.2,0,10.93-3.29,10.93-8.84s-3.73-8.78-10.93-8.78Z"/>
      <path class="cls-2" d="M1591.09,520.14h-22.11l-4.36,10.23h-8.46l19.9-44.22h8.09l19.96,44.22h-8.59l-4.42-10.23ZM1588.37,513.69l-8.34-19.33-8.28,19.33h16.61Z"/>
      <path class="cls-2" d="M1627.48,493.1h-14.66v-6.95h37.52v6.95h-14.66v37.27h-8.21v-37.27Z"/>
      <path class="cls-2" d="M1663.74,508.26c0-13.08,10.11-22.74,23.82-22.74s23.82,9.6,23.82,22.74-10.11,22.74-23.82,22.74-23.82-9.67-23.82-22.74ZM1703.09,508.26c0-9.03-6.63-15.54-15.54-15.54s-15.54,6.51-15.54,15.54,6.63,15.54,15.54,15.54,15.54-6.51,15.54-15.54Z"/>
      <path class="cls-2" d="M1760.01,530.37l-9.03-12.95c-.57.06-1.14.06-1.71.06h-9.98v12.89h-8.21v-44.22h18.19c11.62,0,18.83,5.94,18.83,15.73,0,6.7-3.41,11.62-9.41,13.96l10.17,14.53h-8.84ZM1748.89,493.1h-9.6v17.62h9.6c7.2,0,10.93-3.29,10.93-8.84s-3.73-8.78-10.93-8.78Z"/>
      <path class="cls-2" d="M1788.25,486.15h8.21v44.22h-8.21v-44.22Z"/>
      <path class="cls-2" d="M1852.56,523.49v6.89h-33.17v-44.22h32.28v6.89h-24.07v11.5h21.35v6.76h-21.35v12.19h24.95Z"/>
      <path class="cls-2" d="M1868.99,525.7l2.84-6.38c3.54,2.84,9.16,4.86,14.59,4.86,6.89,0,9.79-2.46,9.79-5.75,0-9.54-26.28-3.29-26.28-19.71,0-7.14,5.69-13.2,17.81-13.2,5.31,0,10.87,1.39,14.72,3.92l-2.59,6.38c-3.98-2.34-8.34-3.47-12.19-3.47-6.82,0-9.6,2.65-9.6,6,0,9.41,26.22,3.29,26.22,19.52,0,7.08-5.75,13.14-17.88,13.14-6.89,0-13.77-2.15-17.44-5.31Z"/>
    </g>
  </g>
</svg>