<?xml version="1.0" encoding="UTF-8"?>
<svg id="Layer_1" data-name="Layer 1" xmlns="http://www.w3.org/2000/svg" xmlns:xlink="http://www.w3.org/1999/xlink" viewBox="0 0 421.2 117">
  <defs>
    <style>
      .cls-1 {
        fill: url(#linear-gradient-2);
      }

      .cls-2 {
        fill: #fff;
      }

      .cls-3 {
        fill: #242021;
      }

      .cls-4 {
        fill: #ee2d2d;
      }

      .cls-5 {
        fill: #2f2a68;
      }

      .cls-6 {
        fill: url(#linear-gradient);
      }
    </style>
    <linearGradient id="linear-gradient" x1="40.1" y1="-300.84" x2="97.09" y2="-247.4" gradientTransform="translate(0 334.24)" gradientUnits="userSpaceOnUse">
      <stop offset="0" stop-color="#5e469c"/>
      <stop offset="1" stop-color="#5ea0dd"/>
    </linearGradient>
    <linearGradient id="linear-gradient-2" x1="4.68" y1="-327.01" x2="109.61" y2="-255.08" gradientTransform="translate(0 334.24)" gradientUnits="userSpaceOnUse">
      <stop offset="0" stop-color="#5e469c"/>
      <stop offset=".19" stop-color="#5e50a3"/>
      <stop offset=".52" stop-color="#5e6cb7"/>
      <stop offset=".94" stop-color="#5e99d8"/>
      <stop offset="1" stop-color="#5ea0dd"/>
    </linearGradient>
  </defs>
  <rect class="cls-2" x="0" width="421.2" height="117"/>
  <path class="cls-6" d="M127.92,26.63c-.04-.41-.1-.81-.18-1.2-.1-.53-.26-1.02-.45-1.49-.14-.37-.29-.71-.47-1.04-.18-.33-.39-.67-.61-.96v-.02c-.28-.35-.57-.69-.88-1-7.33-7.23-28.47-2.24-51.94,11.47-1.06,.63-2.14,1.26-3.22,1.95-4.36,2.65-8.78,5.62-13.2,8.86-4.89,3.58-9.47,7.27-13.67,11.02-.41,.33-.81,.69-1.2,1.04-18.57,16.68-29.63,33.77-27.92,43.67,.06,.26,.12,.51,.18,.77,.1,.37,.22,.77,.35,1.12,.02,.06,.04,.1,.06,.16,.04,.06,.06,.12,.1,.18,.14,.35,.31,.69,.51,1.02,.12,.22,.26,.41,.39,.61,0,0,0,.02,.02,.02,.28,.37,.57,.71,.88,1.02,.16,.18,.33,.31,.51,.47,.35,.29,.73,.55,1.12,.81l.02,.02c.41,.26,.83,.47,1.28,.67,.45,.2,.92,.37,1.41,.53,.43,.14,.9,.26,1.38,.35,12.69,2.73,37.84-6.96,62.65-25.13,1.1-.81,2.18-1.61,3.24-2.44,.24-.16,.47-.33,.69-.53,4.79-3.67,9.25-7.46,13.32-11.28-1.51-.67-2.83-1.65-3.89-2.87-4.34,4.11-9.19,8.21-14.52,12.18-.24,.18-.47,.35-.71,.53-.28,.21-.57,.43-.86,.65-26.84,19.67-54.04,28.13-60.78,18.94-5.44-7.41,4.11-24.05,22.08-40.49,.37-.37,.77-.73,1.16-1.06,4.01-3.62,8.43-7.21,13.16-10.67,4.66-3.42,9.33-6.48,13.91-9.18,1.1-.67,2.2-1.3,3.28-1.91,20.41-11.39,38.31-15.05,43.58-7.86,3.38,4.62,.94,12.83-5.72,22.36,1.51,1.02,2.75,2.38,3.62,3.99,7.78-9.9,11.97-18.94,11.34-25.28h0Z"/>
  <path class="cls-5" d="M57,63.66c-.92-.53-1.24-1.61-2.17-2.17C25.23,43.96,4.8,23.74,9.2,16.33c4.38-7.43,31.94,.79,61.53,18.33,1.14,.67,2.41,1.15,3.53,1.84-25.48-14.64-49.16-20.45-53.47-13.31-4.51,7.47,11.5,25.23,36.21,40.47h0Z"/>
  <circle class="cls-4" cx="106.79" cy="57.16" r="8.09"/>
  <g>
    <path class="cls-3" d="M182.12,58.88h-27.68v-3.5h27.68c.87,0,1.47-.61,1.47-1.15v-6.23c0-.55-.6-1.15-1.47-1.15h-24.74c-2.44,0-4.42-2.09-4.42-4.66v-6.21c0-2.57,1.98-4.66,4.42-4.66h27.68v3.5h-27.68c-.87,0-1.47,.61-1.47,1.15v6.21c0,.55,.61,1.15,1.47,1.15h24.74c2.44,0,4.42,2.09,4.42,4.66v6.23c0,2.57-1.98,4.66-4.42,4.66h0Z"/>
    <path class="cls-3" d="M233.01,46.77c-2.07-.42-3.58-2.34-3.58-4.58v-6.22c0-2.57,1.98-4.66,4.42-4.66h27.68v3.5h-27.68c-.87,0-1.47,.61-1.47,1.15v6.22c0,.5,.5,.99,1.13,1.12l-.49,3.46h0Z"/>
    <path class="cls-3" d="M261.53,58.76h-27.68c-2.44,0-4.42-2.09-4.42-4.66v-6.22c0-2.24,1.51-4.16,3.58-4.58,.28-.05,.56-.08,.84-.08h27.68v3.5h-27.68c-.12,0-.23,.01-.35,.04-.64,.13-1.12,.61-1.12,1.12v6.22c0,.55,.6,1.15,1.47,1.15h27.68v3.5h0Z"/>
    <path class="cls-3" d="M365.13,58.76h-17.08c-2.44,0-4.42-2.09-4.42-4.66v-18.13c0-2.24,1.51-4.16,3.59-4.58,.28-.05,.55-.08,.83-.08h17.08v3.5h-17.08c-.12,0-.23,.01-.35,.03-.64,.13-1.13,.61-1.13,1.12v18.13c0,.55,.6,1.15,1.47,1.15h17.08v3.5h0Z"/>
    <path class="cls-3" d="M372.2,58.76h-17.08v-3.5h17.08c.12,0,.23-.01,.35-.03,.64-.13,1.13-.61,1.13-1.12v-18.13c0-.55-.6-1.15-1.47-1.15h-17.08v-3.5h17.08c2.44,0,4.42,2.09,4.42,4.66v18.13c0,2.24-1.51,4.16-3.59,4.58-.28,.05-.56,.08-.83,.08h0Z"/>
    <path class="cls-4" d="M300.21,58.76h-27.68c-2.44,0-4.42-2.09-4.42-4.66v-18.13c0-2.24,1.51-4.16,3.59-4.58,.28-.05,.56-.08,.83-.08h27.68v3.5h-27.68c-.12,0-.23,.01-.35,.03-.64,.13-1.13,.61-1.13,1.12v18.13c0,.55,.6,1.15,1.47,1.15h27.68v3.5h0Z"/>
    <path class="cls-3" d="M190.85,58.58v-13.9h0v-13.37h29.15c2.44,0,4.42,2.09,4.42,4.66v7.56c0,2.57-1.98,4.66-4.42,4.66h-26.21v10.39h-2.95Zm2.95-13.9h26.21c.87,0,1.47-.61,1.47-1.15v-7.56c0-.55-.6-1.15-1.47-1.15h-26.21v9.86h0Z"/>
    <path class="cls-3" d="M382.25,58.58V31.32h29.15c2.44,0,4.42,2.09,4.42,4.66v5.59c0,2.57-1.98,4.66-4.42,4.66h-26.21v12.36h-2.95Zm2.95-15.86h26.21c.87,0,1.47-.61,1.47-1.15v-5.59c0-.55-.6-1.15-1.47-1.15h-26.21v7.9h0Z"/>
    <rect class="cls-3" x="320.94" y="33.07" width="2.95" height="25.51"/>
    <rect class="cls-3" x="305.75" y="31.32" width="33.08" height="3.5"/>
    <path class="cls-3" d="M414.78,58.58h-2.95v-10.28c0-2.08-.47-2.08-.79-2.08v-3.5c1.12,0,3.74,.54,3.74,5.58v10.28h0Z"/>
  </g>
  <g>
    <path class="cls-3" d="M185.21,83.09c.83,.51,2.06,.94,3.34,.94,1.91,0,3.02-1.01,3.02-2.47,0-1.35-.77-2.12-2.72-2.87-2.36-.83-3.81-2.06-3.81-4.09,0-2.25,1.86-3.92,4.67-3.92,1.48,0,2.55,.34,3.19,.71l-.51,1.52c-.47-.26-1.44-.69-2.74-.69-1.97,0-2.72,1.18-2.72,2.17,0,1.35,.88,2.01,2.87,2.79,2.44,.94,3.69,2.12,3.69,4.24,0,2.23-1.65,4.16-5.06,4.16-1.39,0-2.91-.41-3.69-.92l.47-1.56h0Z"/>
    <path class="cls-3" d="M209.21,84.98c-.49,.26-1.59,.6-2.98,.6-3.13,0-5.17-2.12-5.17-5.29s2.19-5.51,5.57-5.51c1.12,0,2.1,.28,2.62,.54l-.43,1.46c-.45-.26-1.16-.49-2.19-.49-2.38,0-3.66,1.76-3.66,3.92,0,2.4,1.54,3.88,3.6,3.88,1.07,0,1.78-.28,2.31-.51l.32,1.41h0Z"/>
    <path class="cls-3" d="M219.23,72.07c.02,.64-.45,1.16-1.2,1.16-.67,0-1.14-.51-1.14-1.16s.49-1.18,1.18-1.18,1.16,.51,1.16,1.18h0Zm-2.1,13.29v-10.37h1.88v10.37h-1.88Z"/>
    <path class="cls-3" d="M228.92,80.52c.04,2.55,1.67,3.6,3.56,3.6,1.35,0,2.17-.24,2.87-.54l.32,1.35c-.66,.3-1.8,.64-3.45,.64-3.19,0-5.1-2.1-5.1-5.23s1.84-5.59,4.86-5.59c3.39,0,4.29,2.98,4.29,4.89,0,.38-.04,.69-.07,.88h-7.29Zm5.53-1.35c.02-1.2-.49-3.07-2.62-3.07-1.91,0-2.74,1.76-2.89,3.07h5.51Z"/>
    <path class="cls-3" d="M244.32,77.8c0-1.07-.02-1.95-.09-2.81h1.67l.11,1.72h.04c.52-.99,1.72-1.95,3.43-1.95,1.43,0,3.66,.86,3.66,4.41v6.19h-1.88v-5.98c0-1.67-.62-3.07-2.4-3.07-1.24,0-2.21,.88-2.53,1.93-.09,.24-.13,.56-.13,.88v6.24h-1.88v-7.56Z"/>
    <path class="cls-3" d="M264.11,72.01v2.98h2.7v1.44h-2.7v5.59c0,1.29,.36,2.02,1.41,2.02,.49,0,.86-.06,1.09-.13l.09,1.41c-.36,.15-.94,.26-1.67,.26-.88,0-1.59-.28-2.04-.79-.54-.56-.73-1.48-.73-2.7v-5.66h-1.61v-1.44h1.61v-2.49l1.84-.49h0Z"/>
    <path class="cls-3" d="M276.75,72.07c.02,.64-.45,1.16-1.2,1.16-.67,0-1.14-.51-1.14-1.16s.49-1.18,1.18-1.18,1.16,.51,1.16,1.18h0Zm-2.1,13.29v-10.37h1.88v10.37h-1.88Z"/>
    <path class="cls-3" d="M285.58,85.36v-8.94h-1.46v-1.44h1.46v-.49c0-1.46,.32-2.79,1.2-3.62,.71-.69,1.65-.96,2.53-.96,.66,0,1.24,.15,1.61,.3l-.26,1.46c-.28-.13-.66-.24-1.2-.24-1.61,0-2.01,1.41-2.01,3v.56h2.51v1.44h-2.51v8.94h-1.87Z"/>
    <path class="cls-3" d="M297.72,72.07c.02,.64-.45,1.16-1.2,1.16-.67,0-1.14-.51-1.14-1.16s.49-1.18,1.18-1.18,1.16,.51,1.16,1.18h0Zm-2.1,13.29v-10.37h1.88v10.37h-1.88Z"/>
    <path class="cls-3" d="M313.75,84.98c-.49,.26-1.59,.6-2.98,.6-3.13,0-5.17-2.12-5.17-5.29s2.19-5.51,5.57-5.51c1.12,0,2.1,.28,2.62,.54l-.43,1.46c-.45-.26-1.16-.49-2.19-.49-2.38,0-3.66,1.76-3.66,3.92,0,2.4,1.54,3.88,3.6,3.88,1.07,0,1.78-.28,2.31-.51l.32,1.41h0Z"/>
  </g>
  <g>
    <path class="cls-3" d="M342.68,70.92h1.86v12.88h6.17v1.56h-8.04v-14.45h0Z"/>
    <path class="cls-3" d="M364.19,85.36l-.15-1.31h-.06c-.58,.81-1.69,1.54-3.17,1.54-2.1,0-3.17-1.48-3.17-2.98,0-2.51,2.23-3.88,6.24-3.86v-.21c0-.86-.24-2.4-2.36-2.4-.96,0-1.97,.3-2.7,.77l-.43-1.24c.86-.56,2.1-.92,3.41-.92,3.17,0,3.94,2.17,3.94,4.24v3.88c0,.9,.04,1.78,.17,2.49h-1.71Zm-.28-5.29c-2.06-.04-4.39,.32-4.39,2.34,0,1.22,.81,1.8,1.78,1.8,1.35,0,2.21-.86,2.51-1.74,.06-.19,.11-.41,.11-.6v-1.8h0Z"/>
    <path class="cls-3" d="M374.4,85.36c.04-.71,.09-1.76,.09-2.68v-12.54h1.86v6.51h.04c.66-1.16,1.86-1.91,3.54-1.91,2.57,0,4.39,2.14,4.37,5.29,0,3.71-2.34,5.55-4.65,5.55-1.5,0-2.7-.58-3.47-1.95h-.06l-.09,1.72h-1.63Zm1.95-4.16c0,.24,.04,.47,.08,.69,.36,1.31,1.46,2.21,2.83,2.21,1.97,0,3.15-1.61,3.15-3.99,0-2.08-1.07-3.86-3.09-3.86-1.29,0-2.49,.88-2.87,2.31-.04,.21-.11,.47-.11,.77v1.86h0Z"/>
  </g>
  <path class="cls-1" d="M114.42,65.21c-.67,.65-1.43,1.22-2.26,1.65,3.62,4.67,5.34,8.7,4.72,11.59-.04,.31-.14,.59-.26,.86-.06,.18-.16,.35-.26,.53-.16,.26-.33,.49-.53,.71-.14,.14-.26,.26-.41,.37-.04,.06-.08,.1-.12,.12-2.71,2.26-8.47,2.36-16.07,.61-.01-.01-.03-.02-.04-.02-.84-.18-1.73-.41-2.63-.65-.47-.14-.94-.28-1.43-.41-.92-.26-1.87-.55-2.83-.86-1.08-.35-2.2-.73-3.34-1.14-1.65-.59-3.34-1.24-5.09-1.96-7.23-2.95-15.17-6.89-23.24-11.67-1.02-.61-2.04-1.22-3.05-1.83-.92-.53-1.83-1.06-2.75-1.61-3.5-2.08-6.88-4.18-10.08-6.33-.51-.31-.98-.63-1.47-.96C20.12,38.69,5.41,22.74,9.2,16.33c4.36-7.39,31.59,.69,60.96,18,.2,.12,.37,.21,.57,.33,.37,.21,.75,.43,1.1,.67,.77,.45,1.53,.9,2.28,1.38,.81,.45,1.61,.92,2.42,1.39,7.62,4.52,14.52,9.29,20.39,13.97,.41-.81,.9-1.53,1.49-2.2-6.68-5.44-14.56-11.04-23.3-16.44-.57-.35-1.14-.69-1.73-1.04-.81-.49-1.61-.98-2.44-1.47C38.59,11.74,8.25,3.11,3.21,11.64c-4.5,7.58,12.42,26.13,38.88,43.61,.49,.31,1,.65,1.51,.98,2.89,1.89,5.91,3.75,9.02,5.6,10.69,6.33,21.14,11.51,30.55,15.3,1.75,.71,3.46,1.36,5.11,1.96,16.56,6.03,29.02,7.19,32.1,1.98,2.02-3.42-.31-9.08-5.95-15.87h0Z"/>
</svg>