<?xml version="1.0" encoding="UTF-8"?>
<svg id="Layer_1" data-name="Layer 1" xmlns="http://www.w3.org/2000/svg" viewBox="0 0 421.2 117">
  <defs>
    <style>
      .cls-1 {
        fill: #76777a;
      }

      .cls-2 {
        fill: #fff;
      }

      .cls-3 {
        fill: #bbb;
      }

      .cls-4 {
        fill: #c3db6e;
      }
    </style>
  </defs>
  <rect class="cls-2" x="0" width="421.2" height="117"/>
  <g>
    <path class="cls-1" d="M193.28,68.28c.57.65,1.21,1.31,1.92,1.98.71.67,1.51,1.27,2.41,1.8.89.53,1.89.96,2.99,1.28,1.1.33,2.3.49,3.6.49,2.68,0,4.78-.61,6.28-1.83,1.5-1.22,2.26-2.87,2.26-4.94,0-2.24-.85-3.91-2.56-5.03-1.71-1.12-4.17-2.02-7.38-2.71-1.75-.37-3.33-.87-4.76-1.52-1.42-.65-2.65-1.46-3.69-2.44-1.04-.98-1.84-2.1-2.41-3.38-.57-1.28-.85-2.73-.85-4.36,0-1.5.28-2.93.85-4.27.57-1.34,1.42-2.52,2.56-3.54,1.14-1.02,2.56-1.83,4.27-2.44,1.71-.61,3.68-.91,5.91-.91,1.99,0,3.71.21,5.15.64,1.44.43,2.67.94,3.69,1.55,1.02.61,1.83,1.24,2.44,1.89.61.65,1.08,1.18,1.4,1.59l-3.9,3.6c-.24-.28-.61-.66-1.1-1.13-.49-.47-1.11-.92-1.86-1.37-.75-.45-1.63-.82-2.62-1.13-1-.31-2.14-.46-3.45-.46s-2.42.17-3.35.52c-.94.35-1.71.79-2.32,1.34-.61.55-1.06,1.17-1.34,1.86-.29.69-.43,1.38-.43,2.07,0,1.02.21,1.88.64,2.59.43.71,1.05,1.34,1.86,1.89.81.55,1.82,1.02,3.02,1.4,1.2.39,2.57.76,4.12,1.13,1.5.37,2.98.84,4.42,1.43,1.44.59,2.73,1.38,3.87,2.38,1.14,1,2.04,2.22,2.71,3.66.67,1.44,1.01,3.2,1.01,5.27,0,1.75-.37,3.35-1.1,4.82-.73,1.46-1.74,2.73-3.02,3.81-1.28,1.08-2.79,1.91-4.54,2.5-1.75.59-3.64.88-5.67.88-1.91,0-3.65-.22-5.21-.67-1.57-.45-2.99-1.02-4.27-1.71-1.28-.69-2.4-1.45-3.35-2.29-.96-.83-1.74-1.66-2.35-2.47l4.15-3.78Z"/>
    <path class="cls-1" d="M236.57,42.61h-14.57v-5.12h34.94v5.12h-14.51v35.55h-5.85v-35.55Z"/>
    <path class="cls-1" d="M277.85,79.19c-2.93,0-5.65-.56-8.17-1.68-2.52-1.12-4.72-2.64-6.59-4.57-1.87-1.93-3.33-4.2-4.39-6.8-1.06-2.6-1.59-5.39-1.59-8.35s.53-5.74,1.59-8.32c1.06-2.58,2.51-4.84,4.36-6.77,1.85-1.93,4.04-3.45,6.59-4.57,2.54-1.12,5.27-1.68,8.2-1.68s5.66.56,8.2,1.68c2.54,1.12,4.75,2.64,6.62,4.57,1.87,1.93,3.33,4.19,4.39,6.77,1.06,2.58,1.59,5.36,1.59,8.32s-.53,5.75-1.59,8.35c-1.06,2.6-2.52,4.87-4.39,6.8-1.87,1.93-4.08,3.46-6.62,4.57s-5.27,1.68-8.2,1.68ZM277.85,73.7c2.24,0,4.26-.43,6.07-1.28,1.81-.85,3.35-2.01,4.63-3.48,1.28-1.46,2.27-3.16,2.96-5.09.69-1.93,1.04-3.97,1.04-6.13s-.35-4.26-1.04-6.19c-.69-1.93-1.68-3.63-2.96-5.09-1.28-1.46-2.82-2.61-4.63-3.44-1.81-.83-3.83-1.25-6.07-1.25s-4.25.42-6.04,1.25-3.32,1.98-4.6,3.44c-1.28,1.46-2.27,3.16-2.96,5.09-.69,1.93-1.04,3.99-1.04,6.19s.34,4.2,1.04,6.13c.69,1.93,1.68,3.63,2.96,5.09,1.28,1.46,2.82,2.62,4.6,3.48,1.79.85,3.8,1.28,6.04,1.28Z"/>
    <path class="cls-1" d="M306.27,37.49h5.91l22.19,31.77v-31.77h5.73v40.67h-5.85l-22.26-31.83v31.83h-5.73v-40.67Z"/>
    <path class="cls-1" d="M349.37,37.49h25.61v5.18h-19.76v11.83h14.88v5.24h-14.88v13.17h21.22v5.24h-27.07v-40.67Z"/>
  </g>
  <g>
    <path class="cls-3" d="M75.7,44.73c0,1.95,1.58,3.53,3.53,3.53h70.32c1.95,0,3.53-1.58,3.53-3.53s-1.58-3.53-3.53-3.53h-70.32c-1.95,0-3.53,1.58-3.53,3.53Z"/>
    <path class="cls-3" d="M71.06,21.33h47.36c1.95,0,3.53-1.58,3.53-3.53s-1.58-3.53-3.53-3.53h-47.36c-1.95,0-3.53,1.58-3.53,3.53s1.58,3.53,3.53,3.53Z"/>
    <path class="cls-3" d="M91.2,8.25h18.65c1.95,0,3.53-1.58,3.53-3.53s-1.58-3.53-3.53-3.53h-18.65c-1.95,0-3.53,1.58-3.53,3.53s1.58,3.53,3.53,3.53Z"/>
    <path class="cls-3" d="M130.8,95.06h-47.36c-1.95,0-3.53,1.58-3.53,3.53s1.58,3.53,3.53,3.53h47.36c1.95,0,3.53-1.58,3.53-3.53s-1.58-3.53-3.53-3.53Z"/>
    <path class="cls-3" d="M126.16,71.66c0-1.95-1.58-3.53-3.53-3.53H52.31c-1.95,0-3.53,1.58-3.53,3.53s1.58,3.53,3.53,3.53h70.32c1.95,0,3.53-1.58,3.53-3.53Z"/>
    <path class="cls-4" d="M139.53,73.71c-4.13,0-7.47,3.34-7.47,7.47,0,.14.03.27.04.41h-65.33s-.09.01-.14.01c-.05,0-.09-.01-.14-.01-4.13,0-7.47,3.34-7.47,7.47s3.34,7.47,7.47,7.47,7.47-3.34,7.47-7.47c0-.14-.03-.27-.04-.41h65.21c.07,0,.13-.02.2-.02.07,0,.13.02.2.02,4.13,0,7.47-3.34,7.47-7.47s-3.34-7.47-7.47-7.47ZM62.14,42.68c4.13,0,7.47-3.34,7.47-7.47,0-.14-.03-.27-.04-.41h65.53c.06,0,.11-.01.17-.02.06,0,.11.02.17.02,4.13,0,7.47-3.34,7.47-7.47s-3.34-7.47-7.47-7.47-7.47,3.34-7.47,7.47c0,.14.03.27.04.41H62.74c-.1,0-.2.02-.3.03-.1,0-.2-.03-.3-.03-4.13,0-7.47,3.34-7.47,7.47s3.34,7.47,7.47,7.47ZM146.79,54.67s-.06,0-.09,0c-.03,0-.06,0-.09,0H62.09c0-.14.04-.27.04-.41,0-4.13-3.34-7.47-7.47-7.47s-7.47,3.34-7.47,7.47,3.34,7.47,7.47,7.47h84.69c0,.14-.04.27-.04.41,0,4.13,3.34,7.47,7.47,7.47s7.47-3.34,7.47-7.47-3.34-7.47-7.47-7.47Z"/>
    <path class="cls-3" d="M110.05,107.94h-18.65c-1.95,0-3.53,1.58-3.53,3.53s1.58,3.53,3.53,3.53h18.65c1.95,0,3.53-1.58,3.53-3.53s-1.58-3.53-3.53-3.53Z"/>
  </g>
</svg>