<?xml version="1.0" encoding="UTF-8"?>
<svg id="Layer_2" data-name="Layer 2" xmlns="http://www.w3.org/2000/svg" viewBox="0 0 2112 460.39">
  <defs>
    <style>
      .cls-1 {
        fill: #080808;
      }

      .cls-2 {
        fill: #231e84;
      }

      .cls-3 {
        fill: #060606;
      }

      .cls-4 {
        fill: #02092e;
      }

      .cls-5 {
        fill: #eaeaed;
      }

      .cls-6 {
        fill: #00072d;
      }

      .cls-7 {
        fill: #080f33;
      }

      .cls-8 {
        fill: #01082e;
      }

      .cls-9 {
        fill: #02092f;
      }

      .cls-10 {
        fill: #090f34;
      }

      .cls-11 {
        fill: #fafafa;
      }

      .cls-12 {
        fill: #070707;
      }

      .cls-13 {
        fill: #31f070;
      }

      .cls-14 {
        fill: #fdfefe;
      }

      .cls-15 {
        fill: #fdfdfd;
      }
    </style>
  </defs>
  <path class="cls-14" d="M1568-.3c-7.11,2.24-12.12,6.63-13,14.47l-.04,235.53c.99,16.54,21.95,21.29,29.09,5.99,1.59-81.91,1.59-164.67,0-246.56-2.16-6.04-6.61-7.34-12.05-9.43h540v32.93l-4.58-10.89c-14.76-24.3-54.84-15.97-57.46,12.35-3.78,40.92,50.88,49.15,62.04,11.52v415.1H0v-113.75c5,17.38,16.58,30.48,35.46,31.97,31.11,2.44,65.48-1.81,96.93-.14,24.9-2.9,42.76-38.42,60.61-53.78,21.91-1.3,45.8,1.75,67.48-.02,14.78-1.2,23.1-6.71,33.03-16.93,37.77-38.88,71.88-82.52,107.67-123.07,7.77-16.74,4.61-35.81-8.14-49.12-47.68-32.55-92.79-73.38-140.73-105.05-9.6-6.34-15.99-9.26-27.83-10.15-27.92-2.09-65.73-3.14-75.77,29.15-18.56,59.7,74.25,57.68,73.28,112.53l-108.09-80.24c-14.35-8.77-53.02-8.01-70.4-6.56-29.94,2.5-47.43,34.34-31.34,60.18,8.79,14.12,46.9,34.87,61.74,47.16,17.33,14.35,22.67,37.13,8.06,55.77-19.84,25.32-49.38,48.55-70.49,73.35-5.22,6.13-7.99,11.82-11.49,18.97V-.3h1568ZM1637.75,8.91c-16.76,2.37-21.73,24.68-7.68,34.12,16.09,10.82,35.24-6.36,27.1-24.05-3.1-6.74-12.14-11.1-19.42-10.07ZM659,73.53v-37.42c0-1.55-5.35-7.94-7.08-8.9-6.7-3.73-16.72-1.65-20.77,5.06-.4.66-2.15,4.57-2.15,4.84v36.42h-23.5c-.29,0-4.4,2.45-5.02,2.98-7.66,6.57-5.64,19.36,3.79,23.19.77.31,5.89,1.77,6.22,1.77h18.5c1.48,29.2-1.99,60.32.01,89.3,2.15,31.11,19.26,59.02,49.47,69.38,12.35,4.23,42.04,11.62,43.48-8.62,1.18-16.6-20.21-14.16-30.72-17.09-18.45-5.13-32.24-24.57-32.24-43.66v-89.31h48.5c6.78,0,13.99-6.71,14.46-13.59.34-5-5.56-14.35-10.46-14.35h-52.5ZM506.36,141.03c-8.76-8.86-9-22.17-2.77-32.49,10.08-16.71,37.28-15.5,49.4-1.56,6.46,7.44,5.09,19.86,17.49,20.51,21.45,1.12,15.12-25.74,6.04-37-35.91-44.54-121.31-15.6-104.22,49.11,11.62,43.96,80.71,32.41,83.74,69.1,2.42,29.25-34.55,38.9-52.93,20.89-9.1-8.91-8.75-27.66-25.94-22.67-15.32,4.46-8.16,26.69-1.17,35.75,38.42,49.81,130.66,13.16,107.04-51.93-13.62-37.53-56.38-29.18-76.68-49.71ZM814.79,69.84c-90.38,8.39-62.49,119.89-66.8,180.82,2.83,18.54,26.07,19.22,29.91.91,2-35.22-2.35-72.79.05-107.72,1.39-20.33,11.29-39.15,32.02-44.88,9-2.49,24.61.85,27.59-11.38,4.01-16.49-10.06-18.92-22.77-17.74ZM976.87,107.58l-.37,2.87-58.28,68.58c-4.78,12.21,3.23,22.29,16.22,20.17,3.64-.59,7.51-5.2,10.07-7.91,22.63-23.99,42.58-53.35,64.89-77.94,11.77-18.38-20.33-33.84-34.2-38.53-75.69-25.6-146.32,40.3-127.71,117.46,14.19,58.82,79.19,88.95,134.47,65.32,12.49-5.34,48.33-27.36,33.88-43.71-13.24-14.98-26.93,6.63-37.31,13.34-38.27,24.73-88.26,4.75-100.55-38.43-17.32-60.87,42.45-114.75,98.89-81.22ZM1200,98.48c-50.84-52.25-140.53-30.82-160.71,39.7-20.81,72.68,37.31,140.3,112.75,125.48,18.16-3.57,34.79-13.93,47.96-26.48v15.47c0,.41,2.03,4.66,2.54,5.44,7.53,11.56,25.29,8.13,27.37-5.53l-.68-172.77c-4.47-10.88-20.02-13.18-26.44-2.97-.48.77-2.79,5.86-2.79,6.2v15.47ZM1392.02,95.48c-22.91-37.29-85.15-33.22-108.83,1.69-24.22,35.71-6.77,111.11-12.24,153.53,2.57,17.71,25.1,19.57,29.81,1.71,2.6-37.98-2.63-78.92.2-116.55,1.83-24.31,17.22-40.53,42.57-38.41,22.2,1.85,33.09,19.77,34.51,40.41,2.55,37.2-2.04,77.22.02,114.73,4.21,17.42,28.02,15.98,29.94-1.93,3.84-35.78-2.79-78.26-.04-114.79,1.84-24.37,17.17-40.53,42.57-38.41,22.16,1.85,32.98,19.81,34.5,40.41,2.76,37.35-2.33,77.87.19,115.56,4.64,16.88,27.91,14.59,29.77-2.76-5.28-43.32,12.1-117.38-12.78-153.9-23.5-34.49-84.82-38-108.15-1.89l-2.06.62ZM1767.8,69.84c-93.15,8.73-68.93,116.71-71.84,180.85,1.8,19.1,28.19,19.84,30.07-2,2.92-33.93-7.79-100.46,7.8-127.93,16.34-28.79,62.05-31.69,82.59-6.23,23.82,29.53,7.6,102.04,12.82,138.88,6.99,18.38,28.3,14.35,29.81-5.71,2.05-27.23,1.63-69.36-.05-96.82-3.13-51.03-38.73-85.95-91.19-81.03ZM1978.8,69.84c-67.55,6.02-106.63,76.65-79.97,138.07,22.8,52.54,87.81,73.34,137.85,45.4,11.4-6.36,41.68-28.58,22.26-41.51-14.11-9.4-22.31,7.2-32.6,14.23-65.23,44.56-136.97-39.05-91.74-101.52,19.62-27.1,61.48-37.56,88.34-15.42l-59.17,70.46c-3.36,10.8,1.86,20.28,13.76,19.77,6.2-.26,8.08-2.97,12-7.03,19.36-20.06,45.52-51.96,62.46-74.38,9.23-12.21,8.32-18.57-3.49-28.39-18.09-15.03-46.51-21.75-69.68-19.68ZM1635.73,70.77c-6.92,1.42-10.08,8.91-10.72,15.25,3.34,52.23-4.49,110.1-.05,161.67,2.02,23.44,28.8,23.09,31.02.95-3.34-52.24,4.48-110.09.05-161.67-1.04-12.06-7.66-18.8-20.31-16.2ZM1117,326.49c-.83,6.97.61,15.31,0,22.45h-20v9.98h20v99.78h11v-99.78h35v-9.98h-35v-21.45c0-1.66,3.65-9.25,4.98-10.71,5.56-6.11,16.41-6.4,23.82-4.05,2.22.7,8.07,4.59,9.23,3.85,4.9-7.06,3.78-9.32-3.76-12.31-18.51-7.33-42.69.52-45.27,22.22ZM682.76,305.26c-9.71,2.5-7.13,19.95,4.51,17.56,11.05-2.27,8.2-20.83-4.51-17.56ZM1068.72,305.23c-10.82,2.4-7.82,18.81,2.68,17.76,12.52-1.26,10.12-20.6-2.68-17.76ZM1203.73,305.23c-8.15,1.77-8.69,15.7,1.03,17.57,13.31,2.57,14.44-20.93-1.03-17.57ZM1000,324.99h-11v23.95h-20v9.98h20v79.33c0,1.88,3.63,9.11,5,10.98,8.32,11.29,24.33,12.7,37,8.98,8.72-2.56,13.08-4.74,6.91-13.41-9.34,5.46-24.1,9.26-32.92.44-1.26-1.26-5-8.71-5-9.98v-76.33h33.5c2.74-2.37,1.13-6.69,1.5-9.98h-35v-23.95ZM530.95,366.86c.2-3.25,4.71-6.42,2.04-9.42-1.82-2.05-8.93-5.2-11.76-6.25-26.59-9.83-54.55,2.55-49.98,33.91,5.03,34.47,59.78,13.48,56.77,48.2-1.78,20.6-31.39,18.83-45.07,11.97-4.12-2.07-7.18-5.71-11.44-7.53-8.7,9.56,3.32,15.18,11.5,18.45,26.54,10.6,57.19.99,54.02-31.95-3.35-34.83-64.44-14.41-56.82-51.62,3.26-15.93,25.33-16.84,37.76-12.19,2.67,1,11.83,7.22,12.97,6.44ZM641.65,369.24c1.41,1.21,2.22,4.69,4.86,4.67l7.45-5.63c-21.01-30.46-71.6-25.72-89.76,5.29-15.59,26.62-8.61,63.94,19.13,79.3,21.98,12.17,56.88,9.41,70.67-13.61l-8.44-5.59c-23.7,29.85-72.06,17.02-77.43-21.51-6.1-43.78,40.02-71.77,73.52-42.93ZM815.86,375.75c-2.28-8.98-13.1-18.7-21.49-22.69-46.9-22.34-88.09,23.46-74.09,69.94,11.95,39.66,69.28,49.97,95.65,19.11l-5.46-7.35c-7.26,6.06-12.93,11.1-22.46,13.48-39.86,9.94-69.02-23.38-57.05-61.92,7.54-24.28,34.85-34.89,57.74-24.59,1.96.88,15.34,9.18,13.84,11.18l-53.51,38.94c-.68.97,4.16,8,6.31,7.8l60.53-43.89ZM949,458.7v-72.34c0-16.97-15.64-33.52-31.78-37.14-21.36-4.79-44.15,1.95-56.22,20.68v-20.95h-11v109.76h11v-63.36c0-40.16,64.72-53.42,75.3-13.27.34,1.28,1.7,6.63,1.7,7.29v69.35h11ZM1327.13,373.75c2.01,1.18,7.62-3.58,8.76-5.5-14.27-23.61-50.88-25.42-72.81-11.75-31.88,19.87-32.94,72.5-1.99,93.62,22.22,15.16,59.11,13.83,74.77-10.06l-6.51-6.23c-8.39,7.22-14.65,13.65-26.3,15.44-60.5,9.27-71.48-75.18-22.5-89.3,16.32-4.71,36.98-1.12,46.57,13.78ZM691,348.94h-11v109.76h11v-109.76ZM1076,348.94h-11v109.76h11v-109.76ZM1212,348.94h-11v109.76h11v-109.76Z"/>
  <path class="cls-2" d="M222,162.34c0,.33.02.67,0,1-.47,8.92-2.44,14.63-7.59,21.87-16.52,23.23-46.68,45.86-65.38,68.47-13.06,15.78-15.28,35.18-3.84,52.67,11.16,17.05,28.74,18.99,47.81,17.65v1c-17.85,15.36-35.71,50.87-60.61,53.78-31.45-1.67-65.82,2.59-96.93.14-18.89-1.48-30.46-14.59-35.46-31.97v-15.97c3.5-7.16,6.27-12.85,11.49-18.97,21.11-24.8,50.65-48.03,70.49-73.35,14.61-18.65,9.27-41.42-8.06-55.77-14.84-12.29-52.95-33.04-61.74-47.16-16.09-25.84,1.4-57.68,31.34-60.18,17.37-1.45,56.05-2.22,70.4,6.56l108.09,80.24Z"/>
  <path class="cls-9" d="M1572-.3c5.43,2.09,9.89,3.4,12.05,9.43,1.59,81.89,1.59,164.65,0,246.56-7.14,15.3-28.1,10.54-29.09-5.99l.04-235.53c.88-7.83,5.89-12.22,13-14.47h4Z"/>
  <path class="cls-10" d="M2112,32.62v12.97c-11.17,37.64-65.82,29.41-62.04-11.52,2.62-28.32,42.7-36.65,57.46-12.35l4.58,10.89ZM2097.64,21.01c-22.37-21.93-56.59,12.96-33.68,35.1,22.33,21.57,56.74-12.5,33.68-35.1Z"/>
  <path class="cls-13" d="M193,324.99v-1c1.8-.97,3.11-2.55,4.51-3.98,20.2-20.7,46.57-49.84,64.46-72.38,17.45-21.99,14.44-43.35-7.06-60.76-10.37-8.39-21.98-15.88-32.91-23.53.02-.33,0-.67,0-1,.97-54.85-91.83-52.84-73.28-112.53,10.03-32.28,47.85-31.24,75.77-29.15,11.84.89,18.22,3.81,27.83,10.15,47.93,31.66,93.04,72.49,140.73,105.05,12.75,13.31,15.91,32.38,8.14,49.12-35.79,40.55-69.9,84.19-107.67,123.07-9.93,10.22-18.25,15.73-33.03,16.93-21.68,1.77-45.57-1.28-67.48.02Z"/>
  <path class="cls-9" d="M1392.02,95.48l2.06-.62c23.32-36.1,84.65-32.6,108.15,1.89,24.88,36.52,7.49,110.58,12.78,153.9-1.86,17.35-25.13,19.64-29.77,2.76-2.53-37.69,2.57-78.2-.19-115.56-1.52-20.6-12.34-38.56-34.5-40.41-25.4-2.12-40.74,14.05-42.57,38.41-2.75,36.53,3.88,79.01.04,114.79-1.92,17.91-25.73,19.34-29.94,1.93-2.06-37.5,2.52-77.52-.02-114.73-1.41-20.64-12.31-38.56-34.51-40.41-25.35-2.11-40.74,14.1-42.57,38.41-2.83,37.63,2.4,78.57-.2,116.55-4.71,17.86-27.24,16.01-29.81-1.71,5.46-42.43-11.98-117.82,12.24-153.53,23.68-34.91,85.92-38.98,108.83-1.69Z"/>
  <path class="cls-4" d="M1200,98.48v-15.47c0-.34,2.31-5.43,2.79-6.2,6.42-10.21,21.97-7.91,26.44,2.97l.68,172.77c-2.08,13.66-19.84,17.09-27.37,5.53-.51-.78-2.54-5.03-2.54-5.44v-15.47c-13.18,12.55-29.8,22.91-47.96,26.48-75.44,14.82-133.56-52.8-112.75-125.48,20.19-70.52,109.87-91.95,160.71-39.7ZM1124.79,97.78c-82.86,8.53-76.52,144.47,11.7,140.38,89.37-4.14,82.61-150.09-11.7-140.38Z"/>
  <path class="cls-4" d="M976.87,107.58c-56.44-33.53-116.21,20.35-98.89,81.22,12.28,43.18,62.28,63.15,100.55,38.43,10.39-6.71,24.07-28.32,37.31-13.34,14.45,16.36-21.38,38.38-33.88,43.71-55.28,23.63-120.28-6.5-134.47-65.32-18.61-77.15,52.03-143.06,127.71-117.46,13.87,4.69,45.97,20.15,34.2,38.53-22.31,24.58-42.26,53.95-64.89,77.94-2.56,2.71-6.42,7.31-10.07,7.91-12.99,2.12-21-7.96-16.22-20.17l58.28-68.58.37-2.87Z"/>
  <path class="cls-4" d="M1978.8,69.84c23.17-2.07,51.59,4.65,69.68,19.68,11.81,9.82,12.72,16.17,3.49,28.39-16.94,22.42-43.1,54.32-62.46,74.38-3.92,4.06-5.8,6.77-12,7.03-11.9.51-17.12-8.97-13.76-19.77l59.17-70.46c-26.86-22.14-68.72-11.68-88.34,15.42-45.23,62.47,26.51,146.08,91.74,101.52,10.29-7.03,18.49-23.63,32.6-14.23,19.42,12.93-10.86,35.15-22.26,41.51-50.04,27.94-115.04,7.14-137.85-45.4-26.66-61.43,12.42-132.05,79.97-138.07Z"/>
  <path class="cls-4" d="M1767.8,69.84c52.46-4.92,88.06,30,91.19,81.03,1.69,27.46,2.11,69.59.05,96.82-1.51,20.06-22.82,24.1-29.81,5.71-5.21-36.84,11.01-109.35-12.82-138.88-20.54-25.46-66.25-22.56-82.59,6.23-15.59,27.47-4.88,94-7.8,127.93-1.88,21.84-28.28,21.09-30.07,2,2.91-64.14-21.31-172.11,71.84-180.85Z"/>
  <path class="cls-4" d="M506.36,141.03c20.3,20.53,63.06,12.18,76.68,49.71,23.62,65.09-68.62,101.74-107.04,51.93-6.98-9.06-14.15-31.29,1.17-35.75,17.19-5,16.83,13.75,25.94,22.67,18.38,18,55.35,8.36,52.93-20.89-3.03-36.69-72.13-25.14-83.74-69.1-17.1-64.71,68.31-93.65,104.22-49.11,9.08,11.27,15.41,38.13-6.04,37-12.4-.65-11.03-13.07-17.49-20.51-12.11-13.94-39.31-15.16-49.4,1.56-6.22,10.32-5.98,23.63,2.77,32.49Z"/>
  <path class="cls-4" d="M659,73.53h52.5c4.9,0,10.81,9.35,10.46,14.35-.47,6.88-7.69,13.59-14.46,13.59h-48.5v89.31c0,19.09,13.79,38.54,32.24,43.66,10.51,2.92,31.9.48,30.72,17.09-1.43,20.24-31.13,12.85-43.48,8.62-30.22-10.35-47.33-38.26-49.47-69.38-2-28.98,1.47-60.1-.01-89.3h-18.5c-.34,0-5.45-1.46-6.22-1.77-9.44-3.83-11.46-16.62-3.79-23.19.62-.53,4.72-2.98,5.02-2.98h23.5v-36.42c0-.26,1.75-4.18,2.15-4.84,4.05-6.7,14.06-8.79,20.77-5.06,1.73.96,7.08,7.35,7.08,8.9v37.42Z"/>
  <path class="cls-8" d="M814.79,69.84c12.72-1.18,26.78,1.25,22.77,17.74-2.97,12.23-18.58,8.9-27.59,11.38-20.73,5.73-30.63,24.55-32.02,44.88-2.39,34.93,1.95,72.5-.05,107.72-3.85,18.31-27.08,17.63-29.91-.91,4.3-60.93-23.59-172.43,66.8-180.82Z"/>
  <path class="cls-7" d="M1635.73,70.77c12.65-2.6,19.27,4.14,20.31,16.2,4.44,51.58-3.39,109.44-.05,161.67-2.23,22.14-29,22.49-31.02-.95-4.44-51.57,3.39-109.44.05-161.67.64-6.34,3.79-13.83,10.72-15.25Z"/>
  <path class="cls-12" d="M815.86,375.75l-60.53,43.89c-2.15.19-6.98-6.83-6.31-7.8l53.51-38.94c1.5-2-11.87-10.29-13.84-11.18-22.88-10.3-50.2.31-57.74,24.59-11.97,38.54,17.19,71.86,57.05,61.92,9.53-2.38,15.21-7.42,22.46-13.48l5.46,7.35c-26.37,30.86-83.7,20.55-95.65-19.11-14-46.48,27.19-92.28,74.09-69.94,8.38,3.99,19.21,13.71,21.49,22.69Z"/>
  <path class="cls-12" d="M949,458.7h-11v-69.35c0-.65-1.36-6-1.7-7.29-10.58-40.14-75.3-26.89-75.3,13.27v63.36h-11v-109.76h11v20.95c12.07-18.73,34.87-25.47,56.22-20.68,16.14,3.62,31.78,20.17,31.78,37.14v72.34Z"/>
  <path class="cls-12" d="M641.65,369.24c-33.51-28.83-79.63-.85-73.52,42.93,5.37,38.53,53.74,51.36,77.43,21.51l8.44,5.59c-13.8,23.02-48.69,25.78-70.67,13.61-27.74-15.36-34.72-52.69-19.13-79.3,18.16-31.01,68.75-35.75,89.76-5.29l-7.45,5.63c-2.63.02-3.45-3.46-4.86-4.67Z"/>
  <path class="cls-12" d="M1327.13,373.75c-9.6-14.9-30.25-18.49-46.57-13.78-48.98,14.13-38,98.57,22.5,89.3,11.65-1.79,17.91-8.21,26.3-15.44l6.51,6.23c-15.66,23.9-52.55,25.22-74.77,10.06-30.95-21.13-29.89-73.75,1.99-93.62,21.94-13.67,58.55-11.86,72.81,11.75-1.15,1.92-6.75,6.68-8.76,5.5Z"/>
  <path class="cls-1" d="M1117,326.49c2.58-21.7,26.77-29.56,45.27-22.22,7.53,2.99,8.65,5.25,3.76,12.31-1.16.74-7.01-3.15-9.23-3.85-7.41-2.35-18.26-2.06-23.82,4.05-1.33,1.46-4.98,9.06-4.98,10.71v21.45h35v9.98h-35v99.78h-11v-99.78h-20v-9.98h20c.61-7.14-.83-15.48,0-22.45Z"/>
  <path class="cls-1" d="M530.95,366.86c-1.14.78-10.29-5.44-12.97-6.44-12.43-4.66-34.5-3.74-37.76,12.19-7.62,37.21,53.47,16.79,56.82,51.62,3.17,32.95-27.49,42.55-54.02,31.95-8.18-3.27-20.2-8.89-11.5-18.45,4.26,1.81,7.32,5.46,11.44,7.53,13.68,6.86,43.29,8.63,45.07-11.97,3-34.72-51.75-13.73-56.77-48.2-4.57-31.35,23.39-43.73,49.98-33.91,2.83,1.05,9.94,4.2,11.76,6.25,2.67,3-1.85,6.17-2.04,9.42Z"/>
  <path class="cls-1" d="M1000,324.99v23.95h35c-.37,3.29,1.24,7.6-1.5,9.98h-33.5v76.33c0,1.27,3.74,8.72,5,9.98,8.82,8.81,23.58,5.02,32.92-.44,6.16,8.67,1.81,10.85-6.91,13.41-12.67,3.72-28.68,2.3-37-8.98-1.37-1.86-5-9.1-5-10.98v-79.33h-20v-9.98h20v-23.95h11Z"/>
  <rect class="cls-3" x="680" y="348.94" width="11" height="109.76"/>
  <rect class="cls-3" x="1065" y="348.94" width="11" height="109.76"/>
  <rect class="cls-3" x="1201" y="348.94" width="11" height="109.76"/>
  <path class="cls-9" d="M1637.75,8.91c7.28-1.03,16.32,3.33,19.42,10.07,8.13,17.7-11.01,34.87-27.1,24.05-14.05-9.45-9.07-31.75,7.68-34.12Z"/>
  <path class="cls-1" d="M1068.72,305.23c12.8-2.84,15.2,16.5,2.68,17.76-10.5,1.05-13.49-15.36-2.68-17.76Z"/>
  <path class="cls-12" d="M1203.73,305.23c15.47-3.36,14.33,20.14,1.03,17.57-9.71-1.87-9.17-15.81-1.03-17.57Z"/>
  <path class="cls-12" d="M682.76,305.26c12.71-3.27,15.55,15.29,4.51,17.56-11.64,2.39-14.22-15.06-4.51-17.56Z"/>
  <path class="cls-6" d="M193,323.99c-19.07,1.33-36.65-.6-47.81-17.65-11.44-17.48-9.22-36.88,3.84-52.67,18.71-22.61,48.86-45.24,65.38-68.47,5.15-7.24,7.12-12.95,7.59-21.87,10.94,7.66,22.55,15.14,32.91,23.53,21.5,17.41,24.51,38.76,7.06,60.76-17.89,22.54-44.25,51.68-64.46,72.38-1.4,1.43-2.71,3.02-4.51,3.98Z"/>
  <path class="cls-11" d="M2097.64,21.01c23.06,22.6-11.35,56.68-33.68,35.1-22.92-22.14,11.3-57.03,33.68-35.1ZM2087.5,22.65c-4.5-1-12.08.73-17,0l-1.5,1.5v28.94c8.58,5.16,8.62-1.86,7.99-8.92,8.36-2.88,4.05,10.96,12.51,10.51,7.62-.4.1-6.95.47-10.53s6.18-3.92,4.97-12.94c-.46-3.47-4.12-7.82-7.44-8.55Z"/>
  <path class="cls-15" d="M1124.79,97.78c94.31-9.7,101.07,136.24,11.7,140.38-88.22,4.09-94.56-131.86-11.7-140.38Z"/>
  <path class="cls-10" d="M2087.5,22.65c3.32.73,6.97,5.09,7.44,8.55,1.21,9.01-4.62,9.45-4.97,12.94s7.16,10.13-.47,10.53c-8.46.45-4.15-13.39-12.51-10.51.63,7.06.59,14.08-7.99,8.92v-28.94l1.5-1.5c4.92.73,12.5-1,17,0ZM2076.99,36.62c14.26,2.36,13.16-8.84,0-6.99v6.99Z"/>
  <path class="cls-5" d="M2076.99,36.62v-6.99c13.16-1.85,14.26,9.36,0,6.99Z"/>
</svg>