<?xml version="1.0" encoding="UTF-8"?>
<svg id="Layer_1" data-name="Layer 1" xmlns="http://www.w3.org/2000/svg" viewBox="0 0 756 216">
  <defs>
    <style>
      .cls-1 {
        fill: #124b67;
      }

      .cls-2 {
        fill: #fccf9b;
      }

      .cls-3 {
        fill: #134a66;
      }

      .cls-4 {
        fill: #fdfefe;
      }

      .cls-5 {
        fill: #f7f8f8;
      }

      .cls-6 {
        fill: #0d4864;
      }

      .cls-7 {
        fill: #194d69;
      }

      .cls-8 {
        fill: #0c4764;
      }

      .cls-9 {
        fill: #1a4e6a;
      }

      .cls-10 {
        fill: #0a4764;
      }

      .cls-11 {
        fill: #e9edef;
      }

      .cls-12 {
        fill: #174d69;
      }

      .cls-13 {
        fill: #054462;
      }

      .cls-14 {
        fill: #ec9a26;
      }

      .cls-15 {
        fill: #074663;
      }

      .cls-16 {
        fill: #f4b161;
      }

      .cls-17 {
        fill: #f1f3f5;
      }

      .cls-18 {
        fill: #1d506b;
      }

      .cls-19 {
        fill: #fafbfb;
      }

      .cls-20 {
        fill: #0a4663;
      }

      .cls-21 {
        fill: #0d4865;
      }

      .cls-22 {
        fill: #1a4e69;
      }

      .cls-23 {
        fill: #084764;
      }

      .cls-24 {
        fill: #164c68;
      }

      .cls-25 {
        fill: #f8f9fa;
      }

      .cls-26 {
        fill: #084663;
      }

      .cls-27 {
        fill: #184d69;
      }
    </style>
  </defs>
  <path class="cls-4" d="M-51.76,249.02V-37.49H807.76V249.02H-51.76Zm312.67-46.26c.08-.03,.17-.05,.23-.1,.03-.03,.02-.11,.03-.17-.08,.1-.15,.2-.23,.31-.09,.08-.19,.15-.28,.23,.06-.01,.13,0,.16-.04,.05-.06,.06-.14,.09-.22Zm10.88-22.32c.67-.34,1.37-.62,2-1.03,7.54-4.89,15.83-7.28,24.79-7.76,10.44-.56,19.94,2.6,29.15,6.99,12.22,5.83,24.35,11.77,38.2,12.9,14.06,1.15,26.78-1.87,37.39-11.45,3.56-3.22,6.36-7.26,9.51-10.93-.22-.2-.44-.39-.66-.59-.32,.17-.67,.31-.97,.51-12.15,8.34-25.4,10.66-39.78,7.6-9.61-2.05-18.41-6.16-27.25-10.17-8.8-3.99-17.73-7.49-27.51-8.24-15.74-1.19-28.6,5.13-39.81,15.47-2.03,1.87-3.37,4.47-5.03,6.73l-.16,.2c.04-.08,.09-.16,.13-.23Zm155.21-35.44c-3.93,2.11-7.73,4.52-11.81,6.27-13.36,5.72-26.77,3.99-39.9-.78-8.41-3.05-16.5-6.98-24.83-10.28-16.81-6.66-33.27-7.01-49,3.22-5.61,3.65-10.81,7.75-15.24,13.99,1.59-.52,2.51-.66,3.25-1.09,15.47-9.08,31.44-9.47,47.77-2.64,11.06,4.63,21.57,10.58,33.42,13.28,15.47,3.53,30.16,2.37,43.45-7.07,5.48-3.89,9.93-8.79,12.85-14.93,.1-.06,.2-.13,.3-.19-.05,0-.13,0-.15,.02-.05,.06-.07,.14-.11,.21Zm22.6-44.8c6.14,0,11.76,.09,17.37-.05,1.92-.05,2.84,.54,3.65,2.28,3.68,7.94,7.52,15.81,11.36,23.68,.37,.76,1.13,1.84,1.75,1.87,3.85,.17,7.7,.09,11.89,.09-5.03-10.49-9.83-20.47-14.63-30.49,.88-.54,1.34-.86,1.84-1.13,16.63-8.99,16.23-32.41,8.61-42.91-5.66-7.79-13.57-11.2-22.87-11.47-9.62-.27-19.26-.09-28.89-.1-.44,0-.88,.13-1.36,.2v86.11h11.3v-28.1Zm-127.63,27.72h13.02V11.17h-23.92v120.83c1.04-.43,1.79-.9,2.59-1.04,3.09-.55,3.82-2.3,3.81-5.37-.12-34.89-.07-69.79-.07-104.68,0-1.11,0-2.21,0-3.43h4.57V127.92Zm67.77,17.23V49.41h4.65v96.13h12.95V42.21h-23.8v101.42c2.02,.5,3.93,.96,6.21,1.52ZM129.21,55.31v72.97h9.68v-23.85c5.07,0,9.73,.08,14.39-.04,1.68-.04,2.52,.49,3.23,2.03,2.89,6.32,5.9,12.58,8.94,18.82,.51,1.05,1.3,2.68,2.09,2.76,3.25,.31,6.54,.13,10.23,.13-4.28-8.9-8.3-17.28-12.42-25.87,7.72-4,11.92-10.26,12.89-18.59,1.72-14.69-5.98-27.19-21.92-28.26-8.92-.6-17.92-.11-27.1-.11Zm553.82,47.05c1.39-.91,2.72-1.66,3.91-2.58,8.15-6.31,9.94-14.93,8.78-24.55-1.13-9.34-7.42-17.47-16.65-18.75-10.58-1.47-21.39-1.24-32.24-1.76v73.57h9.65v-23.85c4.77,0,9.15,.14,13.51-.06,2.34-.11,3.57,.62,4.55,2.78,2.9,6.42,6.02,12.74,9.12,19.07,.37,.76,1.15,1.81,1.8,1.85,3.18,.19,6.37,.09,9.97,.09-4.29-8.92-8.31-17.3-12.39-25.79ZM103.29,55.35v27.75c-10.1,0-19.9,.03-29.7-.1-.48,0-1.33-1.4-1.35-2.17-.11-4.95-.04-9.91-.03-14.87,0-3.51,0-7.01,0-10.64h-9.56v72.97h9.53c0-1.13,0-2.16,0-3.19,0-10.1,.03-20.21-.04-30.31-.01-1.92,.47-2.68,2.55-2.65,8.87,.11,17.75,.04,26.62,.06,.63,0,1.25,.16,2.15,.29v35.69h9.56V55.35h-9.73Zm601.29,51.63c.45,6.68,2.28,12.4,7.09,16.71,7.13,6.39,15.76,6.86,24.53,5.12,8.3-1.65,13.74-6.82,15.52-15.25,1.86-8.85-1.09-16.01-8.51-21.12-3.12-2.15-6.62-3.75-9.96-5.56-4.92-2.68-10.2-4.84-14.68-8.12-5.24-3.83-3.86-11.53,2.06-14.3,8.9-4.17,17.22-.12,19.42,9.53h9.46c-.25-6.66-2.71-12.09-7.98-15.85-6.87-4.9-14.57-5-22.44-2.92-6.41,1.69-10.84,5.57-12.56,12.03-1.76,6.59-1,12.89,4.36,17.61,3.32,2.93,7.17,5.34,11.03,7.55,5.03,2.88,10.47,5.07,15.41,8.08,2,1.22,3.81,3.62,4.56,5.86,1.78,5.33-.62,9.98-5.72,12.51-8.78,4.36-19.03,.5-21.28-8.05-.33-1.25-.43-2.56-.64-3.83h-9.66ZM35.88,128.34V52.59h21v-10.45H3.27v10.56H24.23v75.65h11.65Zm164.84-36.66h22.26v-9.01h-22.22v-18.48h26.81v-8.76h-36.7v72.85h36.66v-9.06h-26.81v-27.53Zm74.92-9.07h-22.57c0-5.37,.09-10.5-.04-15.62-.05-2.1,.53-2.81,2.72-2.78,7.25,.13,14.5,.04,21.75,.04,.91,0,1.82,0,2.7,0v-8.87h-36.7v72.85h36.73v-8.95h-26.91v-27.56h22.34v-9.11Zm330.24,.07v-18.39h26.82v-8.93h-36.58v72.95h36.6v-9.12h-26.84v-27.43h22.41v-9.08h-22.41Zm-243.62,118.33c-.06-.23-.11-.45-.17-.68-.33-.12-.65-.33-.98-.34-6.69-.13-12.97-2.04-19.03-4.66-7.78-3.37-15.41-7.09-23.19-10.46-7.5-3.25-15.21-5.64-23.56-3.82-10.77,2.35-20.83,6.21-28.95,13.96-1.89,1.8-3.36,4.02-5.03,6.05,.22,.23,.44,.46,.66,.69,4.98-3.96,10.65-5.72,16.93-5.91,7.87-.24,15.03,2.21,21.96,5.46,17.63,8.27,35.59,8.81,53.9,2.69,2.53-.85,4.97-1.99,7.45-2.99Zm195.76-69.1c10.28-25.98,20.25-51.19,30.35-76.7-2.89,0-5.29,.2-7.64-.06-2.36-.26-3.36,.73-4.12,2.79-5.28,14.29-10.64,28.54-15.99,42.8-.75,2-1.58,3.98-2.62,6.59-.89-2.16-1.53-3.61-2.09-5.1-5.72-15.12-11.41-30.25-17.17-45.36-.25-.65-1-1.56-1.55-1.59-3.08-.15-6.18-.07-9.63-.07,10.17,25.61,20.16,50.76,30.46,76.7Zm-187.05,7.39v-63.37h-23.84c0,17.68-.01,35.12,.05,52.56,0,.64,.67,1.57,1.26,1.85,1.43,.67,3,1.02,4.9,1.63v-49.73h4.7c0,1.23,0,2.26,0,3.29,0,15.25-.03,30.5,.05,45.75,0,1.05,.47,2.69,1.21,3.05,3.67,1.79,7.5,3.24,11.67,4.97ZM510.11,55.33v72.92h9.45V55.33h-9.45Zm27.73,101.79c-.82,5.43-4.24,8.79-9.28,9.49-4.8,.67-9.11-1.64-11.27-6.04-2.37-4.83-1.43-10.86,2.36-14.19,4.36-3.84,10.07-4.13,15.94,.44,.91-.78,1.83-1.56,2.75-2.35-6.04-5.8-14.92-6.32-20.95-1.53-5.69,4.52-7.29,13.81-3.49,20.27,3.87,6.57,12.12,9.14,19.45,6.06,6.39-2.69,10.17-9.73,8.55-15.83h-14.72v3.69h10.65Zm77.56-1.85c.06-9.01-6.2-15.47-15.06-15.56-8.89-.09-15.32,6.29-15.35,15.24-.03,9.1,6.15,15.5,15.03,15.56,8.89,.06,15.32-6.32,15.38-15.24Zm-62.91-16.27v30.99h3.96v-19.99c6.37,7.4,12.17,14.13,18.23,21.16v-30.84h-4.05v19.78c-6.29-7.31-12.02-13.98-18.14-21.1Zm-114.97,31.05c7.14,.42,13.9,.12,18.1-6.6,3.48-5.58,3.43-11.5-.16-16.99-4.25-6.5-10.92-6.77-17.93-6.22v29.81Zm186.59-8.71c.15,4.55,2.32,7.56,6.05,8.71,4.31,1.33,9.33,.11,11.55-2.82,3.06-4.02,2-9.53-2.57-12.3-2.92-1.77-6.15-3.05-9-4.92-.92-.61-1.65-2.53-1.4-3.6,.25-1.07,1.69-2.26,2.86-2.64,3.33-1.08,5.24,.16,6.97,3.99h3.83c-.28-1.13-.43-2.06-.74-2.95-1.36-3.87-5.57-5.82-10.71-5-4.04,.65-6.56,3.47-6.63,7.38-.06,3.39,1.93,5.5,4.59,7.04,2.63,1.52,5.56,2.58,8.02,4.33,1.16,.83,2.24,2.88,2.05,4.2-.19,1.31-1.79,2.92-3.15,3.48-3.67,1.52-6.1-.08-8.22-4.9h-3.52Zm104.5,.05c.44,6.77,4.82,9.95,11.96,8.94,3.64-.51,6.19-2.64,6.99-5.82,.93-3.69-.1-6.99-3.15-9.09-1.71-1.18-3.68-1.97-5.51-2.99-1.65-.92-3.41-1.74-4.85-2.92-1.7-1.39-1.53-3.18-.06-4.75,2.01-2.13,6.82-1.79,7.94,.89,1.06,2.54,2.59,2.49,4.63,2.12-.09-4.44-2.73-7.46-6.91-7.99-5.53-.7-9.46,1.36-10.54,5.54-.91,3.52,.47,6.65,4.16,8.82,2.62,1.54,5.45,2.71,8.08,4.24,2.42,1.41,3.42,4.04,1.83,5.71-1.27,1.34-3.53,2.46-5.31,2.4-1.65-.05-4.31-1.51-4.66-2.83-.77-2.98-2.39-2.58-4.59-2.27Zm-234.92-22.84c-4.46,10.83-8.67,21.06-13.07,31.75,2.12-.6,4.46,1.07,5.04-1.7,.94-4.5,3.74-5.6,7.85-4.91,1.02,.17,2.12,.17,3.14,0,2.49-.43,3.8,.74,4.28,3,.67,3.15,2.46,4.25,5.73,3.15-4.24-10.24-8.48-20.47-12.97-31.29Zm226.35,5.86c-6.74-6.48-17.07-6.18-22.72,.34-5.73,6.61-4.56,17.75,2.37,22.93,6.47,4.84,17.44,2.94,20.1-2.12-.84-.79-1.72-1.61-2.57-2.41-5.41,4.43-11.53,4.66-15.76,.75-4.28-3.95-5.05-11.53-1.2-16.09,1.49-1.77,3.82-3.17,6.04-3.91,4.11-1.38,7.77,.29,11.1,3.18,.93-.95,1.72-1.74,2.64-2.68Zm-50.51-4.2h-18.54v3.68c1.66,0,3.17,.11,4.67-.03,1.99-.19,2.66,.53,2.62,2.56-.12,5.14-.03,10.28-.03,15.41,0,2.71,0,5.43,0,8.08h4.19v-26.08h7.1v-3.63Zm13.38,29.86v-29.78h-3.68v29.78h3.68Zm-210.85,0v-29.77h-3.75v29.77h3.75Z"/>
  <path class="cls-6" d="M449.61,100.2v28.1h-11.3V42.18c.47-.07,.91-.2,1.36-.2,9.63,0,19.27-.18,28.89,.1,9.3,.26,17.21,3.68,22.87,11.47,7.62,10.49,8.02,33.92-8.61,42.91-.5,.27-.96,.59-1.84,1.13,4.81,10.02,9.6,20,14.63,30.49-4.18,0-8.04,.09-11.89-.09-.62-.03-1.38-1.11-1.75-1.87-3.84-7.87-7.68-15.74-11.36-23.68-.81-1.74-1.73-2.33-3.65-2.28-5.61,.15-11.23,.05-17.37,.05Zm.14-10.79c6.73,0,13.12,.35,19.46-.09,8.14-.56,13.74-5.75,15.39-13.4,2.34-10.83-2.56-20.62-12.29-22.37-7.29-1.31-14.89-.9-22.55-1.26v37.12Z"/>
  <path class="cls-3" d="M321.98,127.92V17.49h-4.57c0,1.22,0,2.32,0,3.43,0,34.89-.05,69.79,.07,104.68,.01,3.07-.72,4.82-3.81,5.37-.8,.14-1.55,.61-2.59,1.04V11.17h23.92V127.92h-13.02Z"/>
  <path class="cls-26" d="M389.75,145.15c-2.28-.56-4.19-1.03-6.21-1.52V42.21h23.8v103.32h-12.95V49.41h-4.65v95.75Z"/>
  <path class="cls-8" d="M129.21,55.31c9.18,0,18.18-.49,27.1,.11,15.94,1.08,23.63,13.57,21.92,28.26-.97,8.32-5.17,14.59-12.89,18.59,4.12,8.58,8.15,16.96,12.42,25.87-3.69,0-6.98,.18-10.23-.13-.79-.08-1.57-1.71-2.09-2.76-3.04-6.25-6.06-12.5-8.94-18.82-.71-1.54-1.54-2.07-3.23-2.03-4.66,.12-9.32,.04-14.39,.04v23.85h-9.68V55.31Zm9.76,40.02c4.75,0,9.3,.12,13.85-.02,11.58-.35,17.39-7.71,15.44-19.19-.86-5.07-3.57-8.62-8.25-10.45-6.8-2.67-13.9-.93-21.04-1.47v31.14Z"/>
  <path class="cls-20" d="M683.03,102.37c4.08,8.49,8.11,16.87,12.39,25.79-3.6,0-6.8,.1-9.97-.09-.64-.04-1.43-1.09-1.8-1.85-3.1-6.33-6.22-12.65-9.12-19.07-.97-2.16-2.21-2.89-4.55-2.78-4.36,.2-8.74,.06-13.51,.06v23.85h-9.65V54.72c10.84,.52,21.66,.29,32.24,1.76,9.23,1.28,15.52,9.41,16.65,18.75,1.16,9.63-.63,18.25-8.78,24.55-1.19,.92-2.52,1.67-3.91,2.58Zm-26.51-7.21c5.9,0,11.55,.38,17.12-.09,7.74-.66,12.52-6.53,12.72-14.7,.21-8.42-4.2-14.67-11.98-15.56-5.81-.67-11.77-.13-17.85-.13v30.49Z"/>
  <path class="cls-14" d="M426.96,144.96c-2.92,6.14-7.37,11.04-12.85,14.93-13.29,9.44-27.98,10.6-43.45,7.07-11.84-2.7-22.36-8.66-33.42-13.28-16.33-6.83-32.29-6.44-47.77,2.64-.74,.43-1.66,.57-3.25,1.09,4.42-6.24,9.63-10.34,15.24-13.99,15.73-10.23,32.19-9.88,49-3.22,8.33,3.3,16.42,7.23,24.83,10.28,13.13,4.77,26.54,6.5,39.9,.78,4.08-1.75,7.88-4.16,11.81-6.27,0,0-.04-.04-.04-.04Z"/>
  <path class="cls-16" d="M271.83,180.48c1.66-2.26,3.01-4.86,5.03-6.73,11.21-10.34,24.07-16.66,39.81-15.47,9.77,.74,18.7,4.24,27.51,8.24,8.85,4.01,17.64,8.12,27.25,10.17,14.38,3.07,27.63,.75,39.78-7.6,.3-.2,.64-.34,.97-.51,.22,.2,.44,.39,.66,.59-3.15,3.67-5.96,7.71-9.51,10.93-10.6,9.58-23.33,12.6-37.39,11.45-13.85-1.13-25.98-7.08-38.2-12.9-9.21-4.39-18.71-7.55-29.15-6.99-8.96,.48-17.25,2.87-24.79,7.76-.63,.41-1.33,.69-2,1.03,0,0,.04,.04,.04,.04Z"/>
  <path class="cls-15" d="M103.29,55.35h9.73v72.85h-9.56v-35.69c-.9-.13-1.53-.29-2.15-.29-8.87-.02-17.75,.04-26.62-.06-2.08-.03-2.57,.73-2.55,2.65,.08,10.1,.04,20.21,.04,30.31,0,1.03,0,2.06,0,3.19h-9.53V55.33h9.56c0,3.62,0,7.13,0,10.64,0,4.96-.08,9.91,.03,14.87,.02,.76,.87,2.16,1.35,2.17,9.8,.13,19.61,.1,29.7,.1v-27.75Z"/>
  <path class="cls-6" d="M704.58,106.98h9.66c.21,1.27,.31,2.58,.64,3.83,2.24,8.55,12.5,12.41,21.28,8.05,5.1-2.53,7.5-7.19,5.72-12.51-.75-2.24-2.56-4.64-4.56-5.86-4.94-3.01-10.38-5.21-15.41-8.08-3.86-2.21-7.71-4.62-11.03-7.55-5.36-4.72-6.11-11.02-4.36-17.61,1.72-6.46,6.15-10.34,12.56-12.03,7.88-2.07,15.57-1.98,22.44,2.92,5.27,3.76,7.73,9.2,7.98,15.85h-9.46c-2.21-9.65-10.53-13.7-19.42-9.53-5.91,2.77-7.3,10.47-2.06,14.3,4.48,3.27,9.77,5.44,14.68,8.12,3.34,1.82,6.84,3.42,9.96,5.56,7.42,5.1,10.37,12.27,8.51,21.12-1.77,8.43-7.21,13.6-15.52,15.25-8.77,1.74-17.4,1.27-24.53-5.12-4.81-4.31-6.64-10.03-7.09-16.71Z"/>
  <path class="cls-10" d="M35.88,128.34h-11.65V52.69H3.27v-10.56H56.87v10.45h-21v75.75Z"/>
  <path class="cls-3" d="M200.72,91.68v27.53h26.81v9.06h-36.66V55.42h36.7v8.76h-26.81v18.48h22.22v9.01h-22.26Z"/>
  <path class="cls-21" d="M275.64,82.61v9.11h-22.34v27.56h26.91v8.95h-36.73V55.39h36.7v8.87c-.88,0-1.79,0-2.7,0-7.25,0-14.5,.08-21.75-.04-2.19-.04-2.77,.68-2.72,2.78,.13,5.12,.04,10.26,.04,15.62h22.57Z"/>
  <path class="cls-21" d="M605.88,82.68h22.41v9.08h-22.41v27.43h26.84v9.12h-36.6V55.36h36.58v8.93h-26.82v18.39Z"/>
  <path class="cls-2" d="M362.26,201.01c-2.48,1-4.92,2.14-7.45,2.99-18.31,6.12-36.28,5.58-53.9-2.69-6.93-3.25-14.09-5.7-21.96-5.46-6.28,.19-11.95,1.95-16.93,5.91-.22-.23-.44-.46-.66-.69,1.67-2.03,3.14-4.25,5.03-6.05,8.13-7.75,18.19-11.62,28.95-13.96,8.36-1.82,16.06,.57,23.56,3.82,7.78,3.37,15.41,7.09,23.19,10.46,6.05,2.62,12.33,4.53,19.03,4.66,.33,0,.65,.22,.98,.34,.06,.23,.11,.45,.17,.68Z"/>
  <path class="cls-6" d="M558.02,131.91c-10.3-25.94-20.29-51.08-30.46-76.7,3.45,0,6.55-.08,9.63,.07,.55,.03,1.3,.93,1.55,1.59,5.75,15.11,11.45,30.24,17.17,45.36,.56,1.49,1.2,2.94,2.09,5.1,1.04-2.61,1.87-4.58,2.62-6.59,5.35-14.26,10.71-28.52,15.99-42.8,.76-2.06,1.76-3.05,4.12-2.79,2.35,.26,4.75,.06,7.64,.06-10.09,25.51-20.07,50.73-30.35,76.7Z"/>
  <path class="cls-13" d="M370.97,139.29c-4.17-1.74-8-3.19-11.67-4.97-.74-.36-1.2-2-1.21-3.05-.08-15.25-.05-30.5-.05-45.75,0-1.03,0-2.06,0-3.29h-4.7v49.73c-1.89-.6-3.47-.96-4.9-1.63-.6-.28-1.26-1.21-1.26-1.85-.07-17.44-.05-34.88-.05-52.56h23.84v63.37Z"/>
  <path class="cls-23" d="M510.11,55.33h9.45v72.92h-9.45V55.33Z"/>
  <path class="cls-9" d="M537.84,157.12h-10.65v-3.69h14.72c1.62,6.1-2.17,13.15-8.55,15.83-7.33,3.08-15.58,.51-19.45-6.06-3.8-6.46-2.21-15.76,3.49-20.27,6.03-4.78,14.91-4.26,20.95,1.53-.92,.79-1.84,1.58-2.75,2.35-5.87-4.57-11.58-4.28-15.94-.44-3.79,3.33-4.73,9.37-2.36,14.19,2.16,4.4,6.47,6.71,11.27,6.04,5.04-.7,8.46-4.06,9.28-9.49Z"/>
  <path class="cls-27" d="M615.39,155.27c-.05,8.92-6.49,15.3-15.38,15.24-8.88-.06-15.07-6.46-15.03-15.56,.03-8.95,6.46-15.33,15.35-15.24,8.86,.09,15.12,6.55,15.06,15.56Zm-4.1-.11c.02-6.62-4.76-11.67-11.08-11.7-6.34-.03-11.12,4.94-11.14,11.59-.02,6.73,4.61,11.63,11.03,11.67,6.38,.04,11.17-4.9,11.19-11.56Z"/>
  <path class="cls-24" d="M552.48,139c6.12,7.12,11.86,13.79,18.14,21.1v-19.78h4.05v30.84c-6.06-7.03-11.86-13.76-18.23-21.16v19.99h-3.96v-30.99Z"/>
  <path class="cls-7" d="M437.52,170.05v-29.81c7.01-.56,13.68-.29,17.93,6.22,3.59,5.49,3.64,11.42,.16,16.99-4.19,6.72-10.95,7.02-18.1,6.6Zm4.09-26.11v22.03c4.31,.63,7.75-.71,10.1-4.09,2.78-4.01,2.94-8.44,.55-12.69-2.21-3.93-5.84-5.48-10.65-5.26Z"/>
  <path class="cls-7" d="M624.11,161.34h3.52c2.12,4.82,4.54,6.42,8.22,4.9,1.36-.56,2.96-2.17,3.15-3.48,.19-1.31-.89-3.37-2.05-4.2-2.46-1.75-5.39-2.8-8.02-4.33-2.66-1.54-4.66-3.64-4.59-7.04,.07-3.91,2.59-6.73,6.63-7.38,5.14-.82,9.35,1.12,10.71,5,.31,.88,.46,1.82,.74,2.95h-3.83c-1.72-3.84-3.64-5.07-6.97-3.99-1.17,.38-2.61,1.57-2.86,2.64-.25,1.07,.47,3,1.4,3.6,2.85,1.87,6.08,3.15,9,4.92,4.56,2.77,5.63,8.28,2.57,12.3-2.23,2.93-7.24,4.15-11.55,2.82-3.73-1.15-5.9-4.16-6.05-8.71Z"/>
  <path class="cls-22" d="M728.61,161.39c2.21-.31,3.82-.7,4.59,2.27,.34,1.32,3.01,2.78,4.66,2.83,1.78,.05,4.04-1.06,5.31-2.4,1.59-1.67,.59-4.3-1.83-5.71-2.62-1.53-5.46-2.7-8.08-4.24-3.69-2.17-5.07-5.3-4.16-8.82,1.08-4.18,5.01-6.24,10.54-5.54,4.18,.53,6.82,3.55,6.91,7.99-2.04,.38-3.57,.42-4.63-2.12-1.12-2.68-5.93-3.02-7.94-.89-1.47,1.56-1.65,3.35,.06,4.75,1.45,1.18,3.2,2,4.85,2.92,1.83,1.02,3.8,1.8,5.51,2.99,3.04,2.11,4.07,5.4,3.15,9.09-.8,3.18-3.35,5.3-6.99,5.82-7.14,1.01-11.52-2.17-11.96-8.94Z"/>
  <path class="cls-7" d="M493.68,138.55c4.48,10.82,8.72,21.05,12.97,31.29-3.27,1.1-5.06,0-5.73-3.15-.48-2.26-1.79-3.43-4.28-3-1.02,.17-2.12,.18-3.14,0-4.11-.69-6.91,.41-7.85,4.91-.58,2.77-2.92,1.09-5.04,1.7,4.4-10.7,8.61-20.92,13.07-31.75Zm4.45,21.19c-1.46-3.58-2.81-6.87-4.45-10.88-1.63,4.01-2.97,7.31-4.42,10.88h8.87Z"/>
  <path class="cls-12" d="M720.03,144.42c-.92,.94-1.7,1.73-2.64,2.68-3.33-2.89-6.99-4.57-11.1-3.18-2.22,.75-4.55,2.15-6.04,3.91-3.85,4.56-3.08,12.14,1.2,16.09,4.23,3.91,10.35,3.68,15.76-.75,.85,.79,1.72,1.61,2.57,2.41-2.66,5.06-13.63,6.95-20.1,2.12-6.94-5.18-8.11-16.32-2.37-22.93,5.65-6.52,15.98-6.82,22.72-.34Z"/>
  <path class="cls-18" d="M669.52,140.22v3.63h-7.1v26.08h-4.19c0-2.66,0-5.37,0-8.08,0-5.14-.09-10.28,.03-15.41,.05-2.03-.62-2.74-2.62-2.56-1.49,.14-3.01,.03-4.67,.03v-3.68h18.54Z"/>
  <path class="cls-1" d="M682.9,170.08h-3.68v-29.78h3.68v29.78Z"/>
  <path class="cls-6" d="M472.05,170.07h-3.75v-29.77h3.75v29.77Z"/>
  <path class="cls-14" d="M427,145c.03-.07,.06-.15,.11-.21,.02-.03,.1-.02,.15-.02-.1,.06-.2,.13-.3,.19,0,0,.04,.04,.04,.04Z"/>
  <path class="cls-16" d="M271.79,180.44c-.04,.08-.09,.16-.13,.23,.05-.07,.11-.13,.16-.2,0,0-.04-.04-.04-.04Z"/>
  <path class="cls-2" d="M260.94,202.79c.08-.1,.15-.2,.23-.31,0,.06,0,.14-.03,.17-.06,.05-.15,.07-.23,.1l.03,.03Z"/>
  <path class="cls-2" d="M260.91,202.76c-.03,.07-.04,.16-.09,.22-.03,.03-.11,.03-.16,.04,.09-.08,.19-.15,.28-.23,0,0-.03-.03-.03-.03Z"/>
  <path class="cls-25" d="M449.74,89.41V52.29c7.66,.36,15.26-.05,22.55,1.26,9.73,1.75,14.63,11.54,12.29,22.37-1.65,7.64-7.25,12.84-15.39,13.4-6.34,.43-12.73,.09-19.46,.09Z"/>
  <path class="cls-19" d="M138.97,95.33v-31.14c7.14,.55,14.25-1.19,21.04,1.47,4.68,1.83,7.39,5.38,8.25,10.45,1.95,11.48-3.86,18.84-15.44,19.19-4.55,.14-9.1,.02-13.85,.02Z"/>
  <path class="cls-5" d="M656.52,95.15v-30.49c6.09,0,12.04-.54,17.85,.13,7.78,.9,12.19,7.14,11.98,15.56-.2,8.17-4.98,14.04-12.72,14.7-5.57,.48-11.22,.09-17.12,.09Z"/>
  <path class="cls-5" d="M611.29,155.16c-.02,6.66-4.8,11.6-11.19,11.56-6.42-.04-11.05-4.94-11.03-11.67,.02-6.65,4.79-11.62,11.14-11.59,6.32,.03,11.1,5.08,11.08,11.7Z"/>
  <path class="cls-17" d="M441.61,143.94c4.8-.22,8.44,1.33,10.65,5.26,2.39,4.25,2.23,8.68-.55,12.69-2.35,3.38-5.79,4.71-10.1,4.09v-22.03Z"/>
  <path class="cls-11" d="M498.14,159.75h-8.87c1.45-3.58,2.79-6.87,4.42-10.88,1.64,4.01,2.98,7.3,4.45,10.88Z"/>
</svg>