<?xml version="1.0" encoding="UTF-8"?>
<svg id="Layer_1" data-name="Layer 1" xmlns="http://www.w3.org/2000/svg" viewBox="0 0 612 126">
  <defs>
    <style>
      .cls-1 {
        fill: #fff;
      }

      .cls-2 {
        fill: #fdfefe;
      }

      .cls-3 {
        fill: #f1f3fa;
      }

      .cls-4 {
        fill: #3773b9;
      }

      .cls-5 {
        fill: #3572b9;
      }

      .cls-6 {
        fill: #f9f9fd;
      }

      .cls-7 {
        fill: #3673b9;
      }

      .cls-8 {
        fill: #3773ba;
      }

      .cls-9 {
        fill: #eceef8;
      }

      .cls-10 {
        fill: #f8f9fc;
      }

      .cls-11 {
        fill: #fdfdfe;
      }

      .cls-12 {
        fill: #3472b9;
      }

      .cls-13 {
        fill: #3e75bb;
      }

      .cls-14 {
        fill: #fafbfd;
      }

      .cls-15 {
        fill: #edeff8;
      }

      .cls-16 {
        fill: #3372b9;
      }

      .cls-17 {
        fill: #3271b9;
      }

      .cls-18 {
        fill: #3c75bb;
      }

      .cls-19 {
        fill: #3e76bb;
      }

      .cls-20 {
        fill: #3d75bb;
      }

      .cls-21 {
        fill: #fcfdfe;
      }

      .cls-22 {
        fill: #fbfcfe;
      }
    </style>
  </defs>
  <path class="cls-1" d="M764.72,228.96H-122V-98H764.72V228.96ZM270.53,99.82c-.27-.94-.54-1.88-.87-3.02h-13.19v-21.45h-4.29v25.54h18.34q4.2,.28,5.69-3.58c.28-.72,.49-1.48,.85-2.16,.2-.38,.63-.89,.97-.89,2.82-.04,5.8-.49,8.39,.29,1.17,.35,1.57,3.23,2.32,4.96,.08,.19,.11,.45,.26,.57,.38,.33,.79,.81,1.23,.86,1.16,.12,2.34,.04,3.47,.04,.07-.38,.15-.54,.11-.65-3.15-8.07-6.27-16.15-9.55-24.16-.22-.54-1.6-.83-2.45-.84-.67-.01-1.76,.41-1.97,.92-3.18,7.83-6.24,15.7-9.32,23.56Zm293.3-54.65c.53-.3,.83-.46,1.12-.63,4.55-2.64,6.73-8.06,5.34-13.32-1.46-5.53-5.81-9.01-11.31-9.02-3.53,0-7.06,0-10.6,0-1.73,0-3.46,0-5.4,0V57.3h-14.49c.02-.18,0-.26,.04-.29,.16-.14,.32-.28,.49-.4,6.41-4.3,9.06-10.39,8.53-17.96-.62-8.96-8.33-16.58-16.96-16.81-7.26-.2-13.59,3.91-16.71,10.85-3.11,6.9-1.76,15.56,3.34,20.91,1.27,1.33,2.76,2.46,4.13,3.66h-21.51V27.73h11.89v-5.42h-30.26v5.5h11.88v29.61c-2.63,0-5.16-.09-7.68,.04-1.44,.07-2.08-.41-2.6-1.76-4.05-10.44-8.2-20.85-12.27-31.28-.54-1.39-.98-2.54-2.9-2.26-1.77,.25-3.47-.43-4.46,2.21-3.98,10.62-8.3,21.11-12.51,31.64-.68,1.71-1.78,2.03-2.64,.68-2.42-3.77-4.74-7.61-7.14-11.51,.56-.33,.92-.53,1.28-.74,4.49-2.68,6.6-8.2,5.14-13.42-1.52-5.42-5.83-8.81-11.25-8.82-2.54,0-5.09,0-7.63,0-2.72,0-5.45,0-8.38,0V57.3h-14.85c.56-.4,.82-.6,1.08-.78,6.21-4.36,8.88-10.37,8.34-17.88-.75-10.36-10.56-18.44-20.33-16.57-8,1.54-12.66,6.67-14.54,14.43-1.74,7.19,1.28,15.19,7.22,19.53,.52,.38,1.03,.77,1.61,1.2h-16.86c3.46-2.4,4.74-5.41,4.36-9.18-.38-3.76-2.43-6.33-5.69-7.88,1.07-1.28,2.18-2.3,2.91-3.54,3.28-5.53,.02-13.94-5.78-14.29-6.75-.4-13.53-.09-20.54-.09V57.16q-4.22,.66-5.62-2.87c-3.99-10.09-8.06-20.15-11.88-30.3-.94-2.5-2.69-1.59-4.27-1.81-1.46-.2-2.2,.31-2.77,1.78-4.11,10.57-8.33,21.1-12.53,31.64-.26,.65-.62,1.25-.93,1.88-.19-.05-.38-.09-.56-.14-.08-1.27-.16-2.54-.25-4.01h-19.39V22.35h-6.32V57.41c-6.68,0-13.11-.23-19.51,.09-3.5,.18-5.7-.82-7.6-3.79-2.69-4.19-5.87-8.08-8.85-12.12,4.49-6.17,8.88-12.19,13.51-18.56-2.72,0-5.03-.11-7.32,.06-.82,.06-1.86,.61-2.35,1.26-2.87,3.84-5.6,7.79-8.44,11.78-2.88-4.01-5.7-7.97-8.56-11.89-.37-.51-1.02-1.13-1.56-1.16-2.52-.12-5.04-.05-7.86-.05,.54,.82,.89,1.41,1.28,1.95,3.7,5.08,7.37,10.17,11.13,15.2,.75,1.01,.82,1.7,.03,2.74-3.37,4.44-6.64,8.96-9.98,13.42-.34,.46-.96,.99-1.46,1-4.9,.07-9.8,.04-14.38,.04,2.2-2.24,4.72-4.31,6.63-6.85,3.9-5.2,4.84-11.34,4.51-17.67-.74-13.93-10.31-22.96-24.22-22.97-4.59,0-9.18,0-13.78,0-1.46,0-2.91,0-4.62,0V57.24h-10.77c0-1.09,.05-2.01-.02-2.92-.04-.43-.23-1.15-.49-1.22-1.83-.48-1.61-1.9-1.61-3.23,0-8.12,0-16.24,0-24.35v-2.35h-8.35v2.2c0,5.86,0,11.72,0,17.58,0,5.21-3,9.11-8.03,10.46-4.5,1.21-7.66-.66-8.73-5.19-.18-.75-.31-1.53-.31-2.3-.06-6.84-.09-13.69-.12-20.54,0-.74,0-1.48,0-2.25h-8.31c0,4.88-.08,9.67,.02,14.45,.14,6.68-1.08,13.57,2.99,19.65h-20.55v-16.47c0-4.72,1.74-7.46,6.21-9.18,2.07-.8,4.31-1.15,6.58-1.74v-7.09c-6.04-.74-9.93,2.52-13.52,7.46v-7.04h-7.65V57.25h-13.78V17.39h16.29v-7.36H57.77v7.43h16.38V57.41c-.99,0-1.91,.12-2.79-.02-4.01-.65-6.93,1.22-9.5,3.96-.43,.46-.87,.92-1.29,1.4-4.19,4.84-6.71,10.56-8.74,16.53-.83,2.43-1.52,4.91-2.42,7.84-.32-4.55-.64-8.55-.89-12.55-.38-6.26-1.33-12.57-.91-18.78,.7-10.25,.72-20.42-.58-30.6-.46-3.63-.98-7.26-1.63-10.87-.29-1.62-1.45-2.59-3.21-2.42-1.72,.16-2.71,1.16-2.76,2.9-.06,1.82-.09,3.66,0,5.48,.38,7.96,.77,15.91,1.23,23.87,.42,7.32,1.02,14.58-1.16,21.81-2.7,8.93-6.08,17.42-12.63,24.34-1.43,1.52-2.94,2.2-5.01,2.02-1.82-.15-3.67-.1-5.51,0-2.13,.11-3.28,1.32-3.2,3.16,.07,1.74,1.24,2.78,3.3,2.82,2.61,.05,5.23-.08,7.84,.04,1.84,.09,3.25-.56,4.59-1.73,5.74-4.96,9.54-11.26,12.59-18.09,.26-.58,.55-1.15,.82-1.72,.44,.38,.49,.63,.5,.88,.61,9.15,1.21,18.29,1.83,27.44,.25,3.73,.51,7.46,.82,11.18,.16,1.93,1.43,3.1,3.17,2.96,1.86-.15,2.71-1.26,2.8-3.08,.08-1.69,.2-3.38,.36-5.06,.96-10.34,2.51-20.57,5.91-30.43,1.94-5.63,4.35-11.01,8.65-15.34,1.42-1.43,2.92-2.07,5.03-2.07,172.45,.05,344.9,.05,517.35,.05h3.11c0-5.4-.04-10.6,.04-15.81,.01-1,.28-2.1,.77-2.96,2.91-5.16,5.93-10.25,8.91-15.38,1.3-2.23,2.58-4.48,4.03-7.01-1.33,0-2.31,.13-3.26-.02-2.73-.44-4.27,.58-5.53,3.15-2.41,4.92-5.28,9.61-8.09,14.65-3.07-5.58-5.98-10.89-8.93-16.18-.32-.58-.81-1.45-1.28-1.49-2.04-.16-4.1-.07-6.46-.07,.48,.89,.72,1.39,1,1.86,3.88,6.71,7.77,13.43,11.64,20.14,.31,.54,.79,1.12,.8,1.69,.07,3.78,.04,7.57,.04,11.49-4.58,0-8.87,.03-13.17-.04-.51,0-1.2-.45-1.48-.89-2.35-3.68-4.62-7.41-7.03-11.31Zm-419.68,29.96c-6.96,0-12.5,5.69-12.57,12.92-.07,7.13,5.53,13.17,12.33,13.31,6.91,.14,12.62-5.82,12.62-13.16,0-7.33-5.43-13.06-12.38-13.07Zm-15.93,25.75v-25.38q-4.39-.7-6.34,2.94c-2.08,3.86-4.18,7.7-6.43,11.84-2.3-4.24-4.41-8.14-6.52-12.03-1.84-3.39-2.15-3.52-6.14-2.71v25.27h4.45v-16.05c2.35,3.48,4.37,7.01,6.23,10.61,.62,1.2,1.51,1.53,2.56,1.19,.61-.2,1.18-.9,1.52-1.52,1.99-3.52,3.91-7.08,5.85-10.62,.17,.05,.33,.09,.5,.14v16.31h4.32Zm283.9-25.44v25.43h4.23v-16.99c4.27,5.3,8.31,10.08,12.05,15.07,1.48,1.97,3.04,2.4,5.29,1.82v-25.2h-4.6v17.03c-4.32-5.44-8.34-10.33-12.15-15.39-1.35-1.8-2.81-2.32-4.83-1.77Zm-83.47,25.49c3.73,0,7.27,.24,10.76-.05,5.75-.48,9.59-4.2,10.66-9.79,1.32-6.98-1.77-13.56-7.8-14.97-4.36-1.01-9-.81-13.61-1.16v25.97Zm-17.49-9.5c.53-.36,1.02-.64,1.45-.99,2.53-2.04,3.59-4.73,3.08-7.88-.55-3.37-2.39-6.34-5.81-6.79-4.32-.57-8.78-.14-13.16-.14v25.23h4.34v-8.65c1.05,0,1.9,.1,2.71-.02,1.94-.29,3.12,.48,4,2.21,.93,1.81,2.2,3.45,3.19,5.23,.6,1.08,1.35,1.47,2.54,1.36,1.02-.09,2.05-.02,3.47-.02-2.07-3.4-3.93-6.43-5.83-9.55Zm96.62,9.45v-13.08h-8.88v3.5h5.46c-.41,1.14-.51,2.17-1.05,2.82-2.28,2.72-6.04,3.58-9,2.23-3.32-1.52-5.19-5.32-4.71-9.59,.4-3.58,2.87-6.68,5.84-7.29,.34-.07,.7-.06,1.05-.1,3.31-.3,5.63,1.31,7.28,4.1,1.27-.93,2.33-1.7,3.35-2.44-2.85-5.53-9.57-7.5-15.28-4.67-6.24,3.1-8.78,11.1-5.62,17.67,1.48,3.07,3.74,5.33,6.94,6.46,3.86,1.36,7.48,.63,10.78-2.07,.08,.98,.14,1.66,.2,2.45h3.63Zm41.85,.23c6.86,0,12.31-5.69,12.33-12.89,.03-7.17-5.44-13.01-12.2-13.02-6.93-.02-12.56,5.85-12.48,13,.09,7.23,5.53,12.92,12.35,12.91Zm-264.35-11.24h10.86v-3.97h-10.87v-6.56h12.6v-3.9h-17.29v25.42h17.68v-4.04h-12.97v-6.94Zm280.29,3.97c-.33,.58-.58,1.17-.97,1.64-1.5,1.82-.57,2.77,1.12,3.67,3.71,1.97,7.66,2.4,11.71,1.74,3.75-.62,6.03-3.14,6.24-6.45,.24-3.72-1.36-6-5.33-7.34-2.06-.7-4.21-1.14-6.29-1.81-1.5-.48-3.01-1.13-2.77-3.17,.24-2.01,1.68-2.57,3.43-2.77,3-.34,5.6,.68,8.02,2.55,.71-1.31,1.33-2.46,1.92-3.57-3.71-3.3-9.91-4.16-14.02-2.04-3.04,1.57-4.29,4.13-4.05,7.49,.22,3.07,2.22,4.56,4.87,5.42,2.34,.76,4.73,1.39,7.05,2.22,1.38,.5,2.51,1.39,2.26,3.14-.24,1.63-1.47,2.11-2.87,2.33-3.87,.61-7.16-.83-10.34-3.06Zm74.88,3.73c4.26,3.42,9.03,4.13,14.06,3.27,3.66-.63,5.82-3.06,6.02-6.15,.26-4.08-1.17-6.23-5.21-7.6-2-.68-4.08-1.13-6.1-1.75-1.6-.48-3.17-1.1-3.04-3.2,.11-1.71,1.49-2.97,3.87-2.75,2.62,.24,5.19,1.15,8.01,1.82,.35-.64,.99-1.79,1.67-3.03-4.29-3.03-8.74-3.93-13.54-2.13-3.07,1.15-4.78,3.87-4.74,7.08,.04,3,1.52,4.86,4.95,6.07,1.39,.49,2.85,.82,4.25,1.27,1.2,.39,2.55,.64,3.52,1.36,.78,.58,1.53,1.8,1.47,2.69-.05,.77-1.12,1.75-1.96,2.11-.97,.42-2.28,.58-3.29,.31-2.73-.71-5.38-1.71-8.22-2.65-.44,.84-1.06,2.01-1.72,3.26Zm-314.87-22.26c0,5.87-.42,11.6,.12,17.23,.52,5.4,4.67,8.45,10.13,8.56,5.87,.11,10.09-2.63,10.85-8.19,.78-5.74,.56-11.61,.79-17.54h-4.58c0,.94,.02,1.76,0,2.59-.1,4.3-.02,8.61-.38,12.88-.37,4.44-3.59,6.75-7.74,5.98-2.8-.52-4.76-2.93-4.94-6.56-.2-4.22-.13-8.46-.18-12.69,0-.74-.07-1.48-.1-2.26h-3.96Zm159.25,25.53c-.29-.83-.5-1.5-.76-2.14-2.83-7.2-5.71-14.38-8.48-21.61-.54-1.41-1.26-1.85-2.76-1.91-1.65-.06-2.17,.72-2.68,2.01-2.84,7.27-5.74,14.52-8.61,21.78-.24,.6-.42,1.23-.68,2,1.2,0,2.12-.07,3.03,.02,1.24,.13,1.91-.29,2.34-1.52,.61-1.77,1-4.14,2.31-5,1.34-.88,3.7-.07,5.57-.33,2.63-.37,3.84,.63,4.64,3.14,1.27,3.98,1.46,3.92,6.07,3.54Zm-165.94-7.97c-3.59,4.58-7.99,5.4-11.51,2.28-3.91-3.47-4.08-10.32-.34-13.87,3.36-3.18,7.98-2.41,11.66,2.03,1.08-.73,2.17-1.47,3.23-2.18-2.02-4.69-7.13-6.89-12.69-5.6-5.9,1.37-9.86,6.89-9.5,13.27,.33,5.98,5.16,11.62,10.46,12.24,5.58,.65,10.79-1.99,12.03-6.2-1.05-.62-2.14-1.25-3.34-1.96Zm316.67-9.51c1.2-.81,2.28-1.54,3.34-2.25-2.25-4.85-7.57-7-13.2-5.5-5.84,1.56-9.46,7.19-8.94,13.89,.44,5.6,5.3,10.97,10.44,11.54,5.58,.62,10.78-2.05,11.97-6.22-1.13-.64-2.27-1.29-3.4-1.93-2.83,3.73-5.63,4.88-8.95,3.77-3.32-1.11-5.6-4.69-5.54-8.69,.06-3.98,2.19-7.26,5.4-8.31,3.32-1.09,6.22,.07,8.86,3.7Zm-29.78-3.97v-4.05h-21.04v4.09h8.21v21.4h4.68v-21.45h8.14Zm-345.75-4.03v25.46h17.75v-4.06h-13.35v-21.4h-4.4Zm353.1,25.5v-25.47h-4.39v25.47h4.39Zm-154.93,0v-25.49h-4.14v25.49h4.14Z"/>
  <path class="cls-17" d="M563.83,45.16c2.41,3.9,4.68,7.63,7.03,11.31,.28,.44,.97,.89,1.48,.89,4.3,.07,8.59,.04,13.17,.04,0-3.92,.03-7.71-.04-11.49-.01-.57-.48-1.15-.8-1.69-3.88-6.72-7.76-13.43-11.64-20.14-.28-.48-.52-.97-1-1.86,2.36,0,4.42-.09,6.46,.07,.47,.04,.96,.91,1.28,1.49,2.95,5.29,5.85,10.6,8.93,16.18,2.81-5.03,5.68-9.73,8.09-14.65,1.26-2.57,2.8-3.58,5.53-3.15,.94,.15,1.93,.02,3.26,.02-1.45,2.53-2.73,4.77-4.03,7.01-2.97,5.12-5.99,10.22-8.91,15.38-.49,.86-.76,1.97-.77,2.96-.08,5.2-.04,10.41-.04,15.81h-3.11c-172.45,0-344.9,0-517.35-.05-2.11,0-3.61,.64-5.03,2.07-4.29,4.33-6.71,9.71-8.65,15.34-3.4,9.86-4.95,20.09-5.91,30.43-.16,1.68-.28,3.37-.36,5.06-.09,1.82-.94,2.93-2.8,3.08-1.74,.14-3.01-1.03-3.17-2.96-.31-3.72-.57-7.45-.82-11.18-.62-9.14-1.22-18.29-1.83-27.44-.02-.25-.07-.51-.5-.88-.28,.57-.56,1.14-.82,1.72-3.05,6.83-6.85,13.12-12.59,18.09-1.35,1.17-2.75,1.81-4.59,1.73-2.61-.12-5.23,0-7.84-.04-2.06-.04-3.22-1.08-3.3-2.82-.08-1.84,1.06-3.04,3.2-3.16,1.83-.1,3.68-.15,5.51,0,2.07,.17,3.57-.51,5.01-2.02,6.55-6.92,9.93-15.41,12.63-24.34,2.18-7.23,1.59-14.5,1.16-21.81-.46-7.95-.85-15.91-1.23-23.87-.09-1.82-.05-3.65,0-5.48,.06-1.74,1.05-2.74,2.76-2.9,1.76-.17,2.92,.8,3.21,2.42,.65,3.6,1.17,7.23,1.63,10.87,1.3,10.18,1.27,20.35,.58,30.6-.42,6.21,.53,12.52,.91,18.78,.24,4,.56,8,.89,12.55,.9-2.94,1.59-5.41,2.42-7.84,2.03-5.97,4.55-11.7,8.74-16.53,.42-.48,.85-.94,1.29-1.4,2.57-2.74,5.49-4.61,9.5-3.96,.88,.14,1.79,.02,2.79,.02V17.46h-16.38v-7.43h41.39v7.36h-16.29V57.25h13.78V23.18h7.65v7.04c3.59-4.94,7.48-8.2,13.52-7.46v7.09c-2.28,.59-4.51,.94-6.58,1.74-4.47,1.72-6.21,4.45-6.21,9.18v16.47h20.55c-4.06-6.08-2.84-12.97-2.99-19.65-.1-4.78-.02-9.56-.02-14.45h8.31c0,.77,0,1.51,0,2.25,.04,6.85,.06,13.69,.12,20.54,0,.77,.14,1.55,.31,2.3,1.07,4.53,4.23,6.4,8.73,5.19,5.03-1.35,8.03-5.26,8.03-10.46,0-5.86,0-11.72,0-17.58v-2.2h8.35v2.35c0,8.12,0,16.24,0,24.35,0,1.33-.22,2.74,1.61,3.23,.26,.07,.45,.79,.49,1.22,.07,.91,.02,1.83,.02,2.92h10.77V9.91c1.7,0,3.16,0,4.62,0,4.59,0,9.18,0,13.78,0,13.91,.02,23.48,9.05,24.22,22.97,.34,6.33-.6,12.47-4.51,17.67-1.9,2.53-4.42,4.6-6.63,6.85,4.58,0,9.48,.03,14.38-.04,.5,0,1.12-.54,1.46-1,3.34-4.46,6.61-8.98,9.98-13.42,.79-1.05,.73-1.73-.03-2.74-3.75-5.04-7.43-10.13-11.13-15.2-.4-.55-.75-1.13-1.28-1.95,2.82,0,5.35-.07,7.86,.05,.54,.03,1.19,.65,1.56,1.16,2.87,3.92,5.68,7.87,8.56,11.89,2.84-3.99,5.57-7.94,8.44-11.78,.49-.66,1.53-1.2,2.35-1.26,2.29-.17,4.6-.06,7.32-.06-4.63,6.36-9.02,12.39-13.51,18.56,2.99,4.04,6.16,7.93,8.85,12.12,1.9,2.96,4.1,3.97,7.6,3.79,6.4-.33,12.83-.09,19.51-.09V22.35h6.32v30.99h19.39c.09,1.47,.17,2.74,.25,4.01,.19,.05,.38,.09,.56,.14,.31-.62,.67-1.23,.93-1.88,4.2-10.54,8.42-21.06,12.53-31.64,.57-1.47,1.31-1.98,2.77-1.78,1.58,.22,3.32-.69,4.27,1.81,3.82,10.15,7.89,20.21,11.88,30.3q1.4,3.53,5.62,2.87V22.25c7.01,0,13.79-.31,20.54,.09,5.8,.34,9.06,8.76,5.78,14.29-.74,1.24-1.84,2.26-2.91,3.54,3.26,1.55,5.31,4.12,5.69,7.88,.38,3.77-.9,6.78-4.36,9.18h16.86c-.58-.43-1.09-.82-1.61-1.2-5.94-4.33-8.96-12.34-7.22-19.53,1.88-7.75,6.54-12.89,14.54-14.43,9.77-1.87,19.58,6.21,20.33,16.57,.55,7.51-2.13,13.51-8.34,17.88-.26,.18-.52,.38-1.08,.78h14.85V22.19c2.93,0,5.65,0,8.38,0,2.54,0,5.09,0,7.63,0,5.42,.02,9.73,3.4,11.25,8.82,1.46,5.21-.65,10.73-5.14,13.42-.35,.21-.71,.42-1.28,.74,2.41,3.89,4.72,7.73,7.14,11.51,.86,1.35,1.96,1.03,2.64-.68,4.2-10.53,8.53-21.02,12.51-31.64,.99-2.65,2.69-1.96,4.46-2.21,1.92-.28,2.36,.87,2.9,2.26,4.08,10.43,8.23,20.83,12.27,31.28,.52,1.35,1.16,1.83,2.6,1.76,2.52-.13,5.05-.04,7.68-.04V27.81h-11.88v-5.5h30.26v5.42h-11.89v29.52h21.51c-1.37-1.2-2.86-2.33-4.13-3.66-5.1-5.34-6.45-14.01-3.34-20.91,3.12-6.94,9.45-11.04,16.71-10.85,8.62,.23,16.33,7.85,16.96,16.81,.53,7.57-2.12,13.66-8.53,17.96-.17,.12-.34,.26-.49,.4-.03,.03-.02,.11-.04,.29h14.49V22.19c1.94,0,3.67,0,5.4,0,3.53,0,7.06,0,10.6,0,5.49,.01,9.85,3.49,11.31,9.02,1.39,5.26-.79,10.68-5.34,13.32-.3,.17-.6,.34-1.12,.63Zm-385.76,7.76c4.68-.26,9.29-.15,13.75-.87,4.76-.77,8.05-3.97,9.89-8.4,2.27-5.49,2.36-11.11,.26-16.69-1.88-5-5.52-8.38-10.76-9.11-4.26-.59-8.67-.12-13.15-.12V52.92Zm208.89-25.23c-2.19-.13-4.35,.77-6.29,2.32-5.86,4.66-6.28,15-.83,20.42,4.53,4.49,11.66,4.09,15.65-.89,3.8-4.73,4.12-12,.66-16.99-2.12-3.06-4.98-4.93-9.2-4.86Zm121.57,12.83c.22,1.38,.33,2.79,.69,4.14,1.37,5.22,5.63,8.78,10.52,8.87,4.93,.1,8.95-3.04,10.71-8.3,1.24-3.72,1.03-7.36-.57-10.9-3.21-7.08-11.68-8.95-17.19-3.75-2.8,2.64-4,6.06-4.15,9.93Zm-91.75,.31c.94,0,1.64,0,2.33,0,2.4,0,4.81,.1,7.2-.05,3-.19,5.1-2.64,5.28-5.88,.19-3.38-1.73-6.71-4.55-6.98-3.4-.33-6.85-.08-10.27-.08v12.99Zm132.74-13.06v13c3.37,0,6.61,.18,9.83-.05,3.05-.22,4.99-3.06,4.94-6.59-.05-3.23-2.33-6.19-5.11-6.32-3.16-.14-6.33-.03-9.65-.03Zm-205.91,25.72c4.05,0,7.99,.16,11.91-.06,2.6-.14,4.41-2.5,4.44-5.09,.03-2.54-1.55-5.12-3.71-5.23-4.19-.22-8.4-.06-12.64-.06v10.44Zm0-15.62c1.64,0,3.11,0,4.57,0,1.97-.01,3.95,.1,5.9-.09,2.72-.27,4.47-2.29,4.55-4.94,.07-2.48-1.48-4.93-3.57-5.03-3.77-.18-7.56-.05-11.45-.05v10.11Zm-17.48,19.44c-.96-2.51-1.8-4.89-2.81-7.19-.2-.46-1.07-.87-1.64-.88-3.67-.08-7.34-.07-11.01,0-.53,0-1.37,.3-1.54,.69-1.02,2.37-1.89,4.81-2.88,7.39h19.89Zm140.99,.05c-1.03-2.65-1.89-5.02-2.9-7.33-.18-.41-.96-.79-1.47-.8-3.74-.07-7.48-.07-11.23,0-.52,0-1.32,.37-1.5,.78-1.01,2.37-1.87,4.8-2.83,7.35h19.92Zm-35.66-.03c-2.28-3.64-4.34-6.98-6.46-10.27-.21-.33-.77-.61-1.18-.62-2.3-.06-4.61-.03-6.99-.03v10.92h14.63Zm118.09-10.92v10.89h14.54c-2.25-3.61-4.34-6.99-6.49-10.34-.2-.32-.8-.52-1.23-.53-2.24-.05-4.48-.02-6.83-.02Zm-92.38-16.63c-1.96,5.09-3.72,9.68-5.54,14.42h10.92c-1.77-4.74-3.48-9.34-5.37-14.42Zm-140.97,.02c-1.96,5.08-3.72,9.65-5.55,14.38h10.92c-1.78-4.76-3.49-9.33-5.38-14.38Zm-76.58,27.56c-2.62-3.61-5-6.89-7.47-10.3-2.51,3.47-4.9,6.79-7.44,10.3h14.91Zm-93.77-.05h3.68c-.13-1.23-.24-2.32-.37-3.62-1.2,1.32-2.17,2.38-3.31,3.62Z"/>
  <path class="cls-16" d="M128.22,100.87h-4.32v-16.31c-.17-.05-.33-.09-.5-.14-1.94,3.55-3.86,7.1-5.85,10.62-.35,.61-.91,1.32-1.52,1.52-1.05,.34-1.94,.01-2.56-1.19-1.86-3.61-3.87-7.14-6.23-10.61v16.05h-4.45v-25.27c3.99-.81,4.3-.68,6.14,2.71,2.11,3.89,4.22,7.79,6.52,12.03,2.25-4.13,4.35-7.98,6.43-11.84q1.96-3.64,6.34-2.94v25.38Z"/>
  <path class="cls-17" d="M412.12,75.44c2.02-.55,3.47-.02,4.83,1.77,3.81,5.05,7.83,9.95,12.15,15.39v-17.03h4.6v25.2c-2.24,.57-3.81,.15-5.29-1.82-3.75-4.99-7.78-9.76-12.05-15.07v16.99h-4.23v-25.43Z"/>
  <path class="cls-4" d="M328.65,100.93v-25.97c4.61,.35,9.25,.15,13.61,1.16,6.03,1.4,9.13,7.99,7.8,14.97-1.06,5.59-4.91,9.31-10.66,9.79-3.49,.29-7.02,.05-10.76,.05Zm4.62-4.23c6.5,.66,9.45-.32,11.25-3.61,1.79-3.27,1.48-8.36-.74-11-2.88-3.43-6.74-2.69-10.51-2.63v17.24Z"/>
  <path class="cls-12" d="M311.16,91.43c1.9,3.12,3.76,6.16,5.83,9.55-1.42,0-2.46-.07-3.47,.02-1.19,.1-1.95-.28-2.54-1.36-.99-1.79-2.27-3.42-3.19-5.23-.88-1.73-2.06-2.5-4-2.21-.81,.12-1.66,.02-2.71,.02v8.65h-4.34v-25.23c4.38,0,8.84-.44,13.16,.14,3.42,.45,5.26,3.42,5.81,6.79,.51,3.14-.55,5.84-3.08,7.88-.43,.35-.91,.63-1.45,.99Zm-10.04-3.17c2.26,0,4.29,.08,6.31-.02,2.24-.11,3.71-1.87,3.77-4.29,.06-2.19-1.4-4.32-3.35-4.47-2.21-.17-4.44-.04-6.74-.04v8.82Z"/>
  <path class="cls-5" d="M407.78,100.88h-3.63c-.06-.78-.12-1.47-.2-2.45-3.31,2.7-6.92,3.42-10.78,2.07-3.21-1.13-5.47-3.39-6.94-6.46-3.16-6.57-.62-14.57,5.62-17.67,5.71-2.83,12.43-.86,15.28,4.67-1.02,.75-2.08,1.52-3.35,2.44-1.65-2.8-3.97-4.4-7.28-4.1-.35,.03-.71,.03-1.05,.1-2.96,.61-5.44,3.71-5.84,7.29-.47,4.27,1.39,8.07,4.71,9.59,2.96,1.35,6.72,.49,9-2.23,.55-.65,.65-1.69,1.05-2.82h-5.46v-3.5h8.88v13.08Z"/>
  <path class="cls-7" d="M449.63,101.11c-6.82,0-12.26-5.68-12.35-12.91-.09-7.15,5.54-13.02,12.48-13,6.76,.01,12.23,5.85,12.2,13.02-.03,7.2-5.47,12.88-12.33,12.89Zm.13-4.14c4.03-.04,7.02-3.25,7.59-8.14,.61-5.26-3.58-9.87-8.57-9.42-3.63,.32-6.38,3.62-6.84,8.2-.5,4.94,3.24,9.41,7.82,9.36Z"/>
  <path class="cls-7" d="M143.63,101.11c-6.82,0-12.26-5.68-12.35-12.91-.09-7.15,5.54-13.02,12.48-13,6.76,.01,12.23,5.85,12.2,13.02-.03,7.2-5.47,12.88-12.33,12.89Zm.13-4.14c4.03-.04,7.02-3.25,7.59-8.14,.61-5.26-3.58-9.87-8.57-9.42-3.63,.32-6.38,3.62-6.84,8.2-.5,4.94,3.24,9.41,7.82,9.36Z"/>
  <path class="cls-8" d="M185.28,89.87v6.94h12.97v4.04h-17.68v-25.42h17.29v3.9h-12.6v6.56h10.87v3.97h-10.86Z"/>
  <path class="cls-5" d="M465.57,93.84c3.18,2.23,6.47,3.67,10.34,3.06,1.4-.22,2.63-.7,2.87-2.33,.26-1.75-.87-2.65-2.26-3.14-2.32-.83-4.71-1.46-7.05-2.22-2.66-.86-4.65-2.35-4.87-5.42-.24-3.36,1.01-5.92,4.05-7.49,4.11-2.12,10.31-1.25,14.02,2.04-.59,1.1-1.21,2.26-1.92,3.57-2.42-1.87-5.02-2.88-8.02-2.55-1.75,.2-3.19,.76-3.43,2.77-.24,2.04,1.26,2.68,2.77,3.17,2.07,.67,4.23,1.11,6.29,1.81,3.97,1.34,5.57,3.62,5.33,7.34-.22,3.31-2.49,5.83-6.24,6.45-4.05,.67-8,.23-11.71-1.74-1.69-.9-2.63-1.84-1.12-3.67,.39-.47,.63-1.06,.97-1.64Z"/>
  <path class="cls-5" d="M540.46,97.58c.66-1.26,1.27-2.42,1.72-3.26,2.84,.94,5.49,1.94,8.22,2.65,1.02,.27,2.32,.11,3.29-.31,.84-.37,1.92-1.35,1.96-2.11,.05-.89-.7-2.12-1.47-2.69-.97-.72-2.32-.97-3.52-1.36-1.41-.46-2.86-.78-4.25-1.27-3.43-1.21-4.91-3.08-4.95-6.07-.04-3.22,1.67-5.93,4.74-7.08,4.8-1.8,9.25-.9,13.54,2.13-.69,1.24-1.32,2.39-1.67,3.03-2.82-.67-5.38-1.57-8.01-1.82-2.38-.22-3.76,1.04-3.87,2.75-.14,2.11,1.44,2.72,3.04,3.2,2.02,.61,4.1,1.07,6.1,1.75,4.04,1.37,5.47,3.52,5.21,7.6-.19,3.09-2.36,5.52-6.02,6.15-5.03,.86-9.81,.15-14.06-3.27Z"/>
  <path class="cls-16" d="M225.59,75.32h3.96c.04,.78,.09,1.52,.1,2.26,.06,4.23-.02,8.47,.18,12.69,.17,3.63,2.14,6.04,4.94,6.56,4.15,.78,7.37-1.53,7.74-5.98,.36-4.28,.28-8.59,.38-12.88,.02-.83,0-1.65,0-2.59h4.58c-.22,5.93,0,11.8-.79,17.54-.76,5.56-4.98,8.3-10.85,8.19-5.47-.11-9.62-3.16-10.13-8.56-.54-5.63-.12-11.36-.12-17.23Z"/>
  <path class="cls-4" d="M384.84,100.85c-4.61,.38-4.8,.44-6.07-3.54-.8-2.52-2.01-3.51-4.64-3.14-1.87,.26-4.23-.55-5.57,.33-1.31,.86-1.7,3.23-2.31,5-.42,1.23-1.1,1.64-2.34,1.52-.9-.09-1.83-.02-3.03-.02,.26-.77,.44-1.39,.68-2,2.87-7.26,5.77-14.51,8.61-21.78,.51-1.3,1.03-2.08,2.68-2.01,1.5,.06,2.22,.5,2.76,1.91,2.77,7.22,5.65,14.41,8.48,21.61,.25,.65,.46,1.31,.76,2.14Zm-8.34-10.24c-1.2-3.21-2.33-6.23-3.61-9.67-1.33,3.49-2.49,6.52-3.69,9.67h7.3Z"/>
  <path class="cls-7" d="M270.53,99.82c3.09-7.86,6.15-15.74,9.32-23.56,.21-.51,1.3-.94,1.97-.92,.85,.01,2.23,.3,2.45,.84,3.28,8.02,6.4,16.1,9.55,24.16,.04,.11-.04,.27-.11,.65-1.13,0-2.31,.08-3.47-.04-.44-.05-.85-.53-1.23-.86-.14-.12-.17-.38-.26-.57-.75-1.73-1.16-4.61-2.32-4.96-2.6-.78-5.57-.33-8.39-.29-.33,0-.77,.52-.97,.89-.36,.68-.57,1.44-.85,2.16q-1.49,3.86-5.69,3.58c0-.36,0-.72,0-1.08Zm11.56-18.87c-1.32,3.42-2.49,6.44-3.71,9.6h7.28c-1.19-3.2-2.3-6.18-3.57-9.6Z"/>
  <path class="cls-5" d="M218.9,92.88c1.2,.71,2.29,1.34,3.34,1.96-1.24,4.21-6.46,6.85-12.03,6.2-5.3-.61-10.13-6.26-10.46-12.24-.35-6.38,3.6-11.89,9.5-13.27,5.56-1.29,10.68,.9,12.69,5.6-1.06,.72-2.15,1.45-3.23,2.18-3.68-4.44-8.3-5.21-11.66-2.03-3.74,3.54-3.57,10.4,.34,13.87,3.52,3.12,7.93,2.31,11.51-2.28Z"/>
  <path class="cls-5" d="M535.58,83.37c-2.64-3.63-5.54-4.79-8.86-3.7-3.21,1.05-5.34,4.33-5.4,8.31-.06,4,2.22,7.58,5.54,8.69,3.32,1.11,6.12-.04,8.95-3.77,1.13,.64,2.27,1.29,3.4,1.93-1.2,4.17-6.4,6.84-11.97,6.22-5.14-.57-10.01-5.94-10.44-11.54-.52-6.7,3.1-12.33,8.94-13.89,5.62-1.5,10.94,.65,13.2,5.5-1.06,.71-2.15,1.45-3.34,2.25Z"/>
  <path class="cls-18" d="M505.8,79.4h-8.14v21.45h-4.68v-21.4h-8.21v-4.09h21.04v4.05Z"/>
  <path class="cls-19" d="M270.53,99.82c0,.36,0,.72,0,1.08-6.06,0-12.12,0-18.34,0v-25.54h4.29v21.45h13.19c.33,1.14,.6,2.08,.87,3.02Z"/>
  <path class="cls-13" d="M160.05,75.38h4.4v21.4h13.35v4.06h-17.75v-25.46Z"/>
  <path class="cls-20" d="M513.15,100.88h-4.39v-25.47h4.39v25.47Z"/>
  <path class="cls-17" d="M358.22,100.87h-4.14v-25.49h4.14v25.49Z"/>
  <path class="cls-11" d="M178.07,52.92V17.73c4.47,0,8.88-.47,13.15,.12,5.24,.73,8.87,4.11,10.76,9.11,2.1,5.57,2.02,11.2-.26,16.69-1.83,4.43-5.13,7.63-9.89,8.4-4.47,.72-9.07,.61-13.75,.87Z"/>
  <path class="cls-21" d="M386.96,27.69c4.22-.07,7.07,1.79,9.2,4.86,3.46,4.99,3.14,12.26-.66,16.99-4,4.98-11.13,5.38-15.65,.89-5.46-5.42-5.04-15.75,.83-20.42,1.94-1.54,4.1-2.45,6.29-2.32Z"/>
  <path class="cls-21" d="M508.53,40.52c.14-3.87,1.35-7.28,4.15-9.93,5.51-5.21,13.98-3.33,17.19,3.75,1.6,3.54,1.82,7.18,.57,10.9-1.76,5.25-5.78,8.39-10.71,8.3-4.89-.1-9.15-3.65-10.52-8.87-.35-1.35-.46-2.76-.69-4.14Z"/>
  <path class="cls-22" d="M416.79,40.83v-12.99c3.42,0,6.87-.25,10.27,.08,2.82,.27,4.74,3.6,4.55,6.98-.18,3.25-2.28,5.69-5.28,5.88-2.39,.15-4.8,.04-7.2,.05-.7,0-1.39,0-2.33,0Z"/>
  <path class="cls-22" d="M549.52,27.77c3.32,0,6.49-.11,9.65,.03,2.78,.13,5.06,3.09,5.11,6.32,.06,3.53-1.89,6.37-4.94,6.59-3.21,.23-6.46,.05-9.83,.05v-13Z"/>
  <path class="cls-10" d="M343.61,53.49v-10.44c4.24,0,8.45-.15,12.64,.06,2.17,.11,3.75,2.69,3.71,5.23-.03,2.59-1.85,4.95-4.44,5.09-3.92,.22-7.86,.06-11.91,.06Z"/>
  <path class="cls-10" d="M343.61,37.87v-10.11c3.89,0,7.67-.13,11.45,.05,2.1,.1,3.65,2.54,3.57,5.03-.08,2.65-1.82,4.67-4.55,4.94-1.95,.19-3.93,.08-5.9,.09-1.46,0-2.93,0-4.57,0Z"/>
  <path class="cls-11" d="M326.13,57.31h-19.89c.99-2.59,1.86-5.02,2.88-7.39,.17-.39,1-.68,1.54-.69,3.67-.06,7.34-.07,11.01,0,.57,.01,1.44,.42,1.64,.88,1.01,2.3,1.85,4.68,2.81,7.19Z"/>
  <path class="cls-11" d="M467.12,57.36h-19.92c.96-2.54,1.82-4.98,2.83-7.35,.17-.41,.98-.77,1.5-.78,3.74-.07,7.48-.07,11.23,0,.51,0,1.29,.38,1.47,.8,1.01,2.31,1.87,4.68,2.9,7.33Z"/>
  <path class="cls-2" d="M431.46,57.33h-14.63v-10.92c2.38,0,4.69-.03,6.99,.03,.41,.01,.97,.29,1.18,.62,2.12,3.3,4.18,6.63,6.46,10.27Z"/>
  <path class="cls-11" d="M549.55,46.4c2.35,0,4.59-.03,6.83,.02,.42,0,1.02,.22,1.23,.53,2.15,3.34,4.24,6.73,6.49,10.34h-14.54v-10.89Z"/>
  <path class="cls-10" d="M457.17,29.77c1.89,5.08,3.61,9.67,5.37,14.42h-10.92c1.82-4.74,3.58-9.32,5.54-14.42Z"/>
  <path class="cls-10" d="M316.2,29.8c1.89,5.05,3.6,9.62,5.38,14.38h-10.92c1.83-4.73,3.59-9.3,5.55-14.38Z"/>
  <path class="cls-14" d="M239.63,57.35h-14.91c2.54-3.51,4.93-6.83,7.44-10.3,2.48,3.42,4.86,6.7,7.47,10.3Z"/>
  <path class="cls-3" d="M145.85,57.31c1.14-1.24,2.11-2.31,3.31-3.62,.13,1.3,.25,2.4,.37,3.62h-3.68Z"/>
  <path class="cls-2" d="M333.28,96.7v-17.24c3.77-.06,7.63-.8,10.51,2.63,2.22,2.64,2.53,7.73,.74,11-1.8,3.29-4.76,4.27-11.25,3.61Z"/>
  <path class="cls-6" d="M301.12,88.26v-8.82c2.3,0,4.53-.13,6.74,.04,1.95,.15,3.41,2.28,3.35,4.47-.07,2.42-1.53,4.17-3.77,4.29-2.02,.1-4.06,.02-6.31,.02Z"/>
  <path class="cls-22" d="M449.76,96.97c-4.59,.05-8.32-4.42-7.82-9.36,.46-4.58,3.22-7.87,6.84-8.2,4.99-.45,9.18,4.16,8.57,9.42-.57,4.89-3.56,8.09-7.59,8.14Z"/>
  <path class="cls-9" d="M376.5,90.61h-7.3c1.2-3.15,2.36-6.18,3.69-9.67,1.29,3.44,2.41,6.46,3.61,9.67Z"/>
  <path class="cls-15" d="M282.09,80.95c1.27,3.42,2.38,6.41,3.57,9.6h-7.28c1.22-3.17,2.39-6.18,3.71-9.6Z"/>
</svg>