<?xml version="1.0" encoding="UTF-8"?>
<svg id="Layer_1" data-name="Layer 1" xmlns="http://www.w3.org/2000/svg" viewBox="0 0 421.2 117">
  <defs>
    <style>
      .cls-1 {
        fill: #fff;
      }

      .cls-2 {
        fill: #090808;
      }

      .cls-3 {
        fill: #fafafa;
      }

      .cls-4 {
        fill: #1fa9df;
      }

      .cls-5 {
        fill: #040404;
      }

      .cls-6 {
        fill: #070606;
      }

      .cls-7 {
        fill: #17a8df;
      }

      .cls-8 {
        fill: #0b0a0a;
      }

      .cls-9 {
        fill: #0a0909;
      }

      .cls-10 {
        fill: #f1f0f0;
      }

      .cls-11 {
        fill: #121110;
      }

      .cls-12 {
        fill: #21a9df;
      }

      .cls-13 {
        fill: #fdfdfd;
      }

      .cls-14 {
        fill: #060505;
      }

      .cls-15 {
        fill: #efeeee;
      }

      .cls-16 {
        fill: #080707;
      }

      .cls-17 {
        fill: #070707;
      }

      .cls-18 {
        fill: #19a9df;
      }

      .cls-19 {
        fill: #231f20;
      }
    </style>
  </defs>
  <rect class="cls-1" x="0" width="421.2" height="117"/>
  <rect class="cls-1" x="87.53" y="15.44" width="295.87" height="89.97"/>
  <g>
    <path class="cls-13" d="M416.62,83.76v11.02H170.82V22.44h34.98c-.2,.08-.39,.2-.59,.22-1.78,.24-3.58,.36-5.34,.7-7.32,1.41-13.63,4.8-18.88,10.04-5.57,5.57-8.77,12.32-9.7,20.17-.28,2.37,.19,4.12,2.53,5.06,.28,.11,.53,.31,.8,.45,4.3,2.3,8.64,2.71,13.04,.29,.84-.46,1.7-.89,2.57-1.27,3.74-1.63,7.42-1.69,11.02,.4,.99,.58,1.98,1.16,2.98,1.73,1.4,.81,2.92,1.08,4.44,.62,2.07-.63,4.14-1.34,6.1-2.26,3.32-1.56,6.57-1.89,9.91-.14,1.15,.61,2.35,1.11,3.53,1.66,2.55,1.18,5.07,1.18,7.64-.03,2.21-1.04,4.49-1.92,6.71-2.93,.24-.11,.48-.58,.45-.86-.17-1.63-.35-3.27-.64-4.88-2.59-14.25-15.02-26.23-29.34-28.31-1.57-.23-3.14-.45-4.7-.66h208.28v59.25c-.08-.23-.2-.45-.23-.69-.16-1.48-.74-2.73-1.99-3.58-.91-.62-1.88-1.17-2.83-1.72-1.06-.61-2.17-1.14-3.19-1.8-1.13-.74-1.61-2.22-1.08-3.43,.17-.39,.74-.76,1.17-.8,.25-.03,.75,.57,.82,.94,.17,.88,.14,1.8,.19,2.71h6.43c0-.8-.03-1.53,0-2.25,.1-2.52-1.18-4.11-3.42-5.01-2.34-.94-4.78-.97-7.22-.45-3.07,.65-4.32,2.01-4.71,5.07-.43,3.43,.42,6.29,3.76,7.98,1.29,.66,2.53,1.42,3.78,2.16,1.48,.88,2.05,2.21,1.48,3.85-.14,.41-.76,.85-1.19,.88-.31,.03-.91-.55-.98-.92-.21-1.14-.23-2.33-.33-3.51h-6.32c0,1.05-.05,2.05,.01,3.03,.17,2.64,1.5,4.42,4.06,5.21,2.47,.76,4.96,.86,7.46,.13,2.51-.74,3.81-2.35,4.08-4.93,.03-.27,.16-.53,.24-.8h.01Zm-243.26-13.32s-.01-.07-.03-.09c-.01-.01-.05,0-.08-.01l.11,.1c.62,1.55,1.24,3.1,1.88,4.64,.08,.18,.32,.33,.52,.41,2.57,1.12,5.25,1.91,8.03,1.12,1.97-.56,3.85-1.46,5.72-2.32,2.6-1.2,5.31-2.03,8.11-1.26,1.92,.52,3.72,1.54,5.51,2.47,1.51,.8,3,1.72,4.76,1.33,1.85-.41,3.66-1.05,5.45-1.66,1.8-.61,3.53-1.5,5.37-1.93,2.43-.56,4.63,.48,6.83,1.46,1.97,.88,4.03,1.72,6.13,2.1,2.41,.44,4.49-1,6.58-2.03,1.47-.73,3.04-3.66,2.87-5.47-.81,.41-1.62,.78-2.37,1.21-4.16,2.39-8.38,2.69-12.7,.42-1.05-.55-2.15-1.01-3.22-1.52-1.84-.88-3.69-.92-5.55-.09-1.61,.71-3.19,1.5-4.83,2.15-3.81,1.5-7.54,1.58-11.06-.88-.75-.52-1.58-.94-2.4-1.36-1.55-.78-3.23-1.16-4.89-.64-1.89,.59-3.74,1.34-5.52,2.18-3.1,1.47-6.31,2.23-9.69,1.48-1.89-.42-3.7-1.18-5.54-1.79h0Zm62.75,8.87c-3.86,1.48-7.44,.53-10.91-1.28-.61-.32-1.25-.58-1.86-.9-2.23-1.16-4.47-1.12-6.71-.04-1.2,.58-2.41,1.16-3.64,1.68-4.14,1.76-8.16,1.85-11.96-.91-3.44-2.5-7.05-2.51-10.67-.48-3.72,2.08-7.59,3.21-11.87,2.42-.07-.01-.15-.03-.21-.04,.04,.04,.08,.09,.12,.13,1.2,1.43,2.28,2.97,3.6,4.27,11.82,11.55,29.98,13.55,44.05,4.87,4.05-2.5,7.53-5.62,10.21-9.58,.04-.05,.09-.11,.13-.17-.09,.01-.18,.02-.27,.03h0Zm16.71-53.84c0,7.55-.04,15.01,.02,22.46,.03,3.16,1.62,5.44,4.66,6.37,1.72,.52,3.61,.76,5.41,.68,4.39-.2,7.05-2.99,7.1-7.37,.08-7.31,.05-14.61,.07-21.92,0-.06-.07-.12-.09-.17h-7.54v21.9c0,.57,.07,1.18-.12,1.7-.13,.37-.6,.74-.98,.83-.19,.05-.7-.52-.76-.86-.16-.94-.21-1.9-.21-2.85-.01-6.54-.01-13.09-.01-19.63v-1.14h-7.54Zm2.17,35.13c-1.28,9.64-2.55,19.22-3.83,28.82h7.91c.15-1.68,.29-3.31,.44-4.98h2.59c.14,1.71,.28,3.36,.42,5.01h7.8c-1.44-9.65-2.87-19.24-4.3-28.85h-11.02Zm78.12-7.86c.18,3.3,1.22,4.77,4.27,5.35,1.96,.37,4.05,.47,6.04,.25,3.88-.42,6.67-2.26,6.49-7.59-.21-6.27-.05-12.55-.05-18.83v-1.24h-6.79c-.17,.5-.33,.95-.47,1.37-.12,.01-.16,.03-.18,.02-.2-.17-.4-.35-.61-.52-1.74-1.48-3.75-1.69-5.82-1-1.92,.64-2.66,2.3-2.71,4.14-.12,4.08-.2,8.18-.06,12.26,.15,4.36,3.91,5.26,6.74,4.6,.93-.22,1.78-.78,2.77-1.23-.07,1.04-.07,2.03-.25,2.99-.06,.33-.56,.78-.89,.8-.38,.03-.84-.31-1.17-.58-.2-.17-.22-.53-.31-.78h-7Zm-161.84,8.39c.03,.45,.15,1.06,.11,1.66-.16,2.51,1.37,3.69,3.39,4.72,4.37,2.22,8.68,2.55,13.06,.09,.6-.34,1.22-.63,1.85-.92,4.18-1.94,8.28-1.99,12.26,.53,.58,.37,1.2,.69,1.77,1.07,1.68,1.1,3.55,1.39,5.4,.82,2.18-.66,4.29-1.58,6.39-2.49,2.85-1.23,5.68-1.47,8.55-.11,1.52,.72,3.05,1.42,4.6,2.1,2.18,.96,4.38,1,6.57,.04,2.28-.99,4.55-1.99,6.82-3.01,.17-.08,.37-.3,.4-.48,.25-1.56,.47-3.13,.72-4.93-.99,.38-1.72,.61-2.4,.93-1.18,.55-2.33,1.15-3.51,1.72-3.42,1.68-6.85,1.72-10.3,.1-1.21-.57-2.45-1.1-3.63-1.72-2.21-1.14-4.4-1.14-6.62-.06-1.1,.53-2.21,1.07-3.34,1.55-2.54,1.06-5.19,1.95-7.91,1.2-1.84-.51-3.58-1.5-5.25-2.48-2.77-1.62-5.56-1.83-8.47-.58-1.26,.55-2.48,1.2-3.73,1.78-3.15,1.49-6.46,2.04-9.83,1.08-2.33-.67-4.56-1.7-6.92-2.61h0Zm159.72-18.71h0c0-1.83,.07-3.67-.02-5.5-.13-2.7-1.44-4.68-3.94-5.83-2.17-1.01-4.47-1.08-6.74-.66-3.44,.63-5.34,2.39-5.61,5.84-.32,4.18-.36,8.4-.11,12.59,.2,3.36,1.94,5.18,4.85,5.69,1.64,.29,3.36,.38,5.02,.23,3.93-.34,6.38-3.02,6.53-6.95,.07-1.79,.01-3.59,.01-5.38h0s0,0,0,0Zm-45.5,.31c.07,0,.13,0,.2,0,0,1.83-.06,3.67,.01,5.5,.13,3.38,1.71,5.6,4.7,6.21,1.77,.36,3.67,.48,5.46,.29,3.63-.39,5.89-2.46,6.18-6.1,.33-4.1,.25-8.25,.07-12.36-.11-2.45-1.65-4.19-3.92-5.22-2.1-.95-4.33-1.02-6.53-.66-3.48,.57-5.26,2.36-5.77,5.85-.31,2.14-.28,4.33-.4,6.5h0Zm73.82,32.23c0-1.5-.07-2.88,.04-4.24,.03-.4,.55-.76,.84-1.13,.37,.32,.93,.58,1.05,.97,.2,.67,.08,1.44,.17,2.15,.17,1.34-.39,2.12-1.65,2.61-1.81,.7-3.57,1.52-5.33,2.34-1.12,.52-1.87,1.42-1.92,2.66-.08,1.94-.15,3.9,.01,5.84,.16,1.96,1.41,3.12,3.32,3.58,2.26,.55,4.22,.15,5.78-2.02v1.72h7.03c0-5.88,.03-11.72-.01-17.56-.01-2.09-.53-4.02-2.45-5.26-2.07-1.35-4.4-1.44-6.74-1.24-6.34,.53-7.64,4.5-6.87,9.58h6.73Zm-37.21,2.48h.15c0-1.53,.03-3.06,0-4.59-.09-4.12-2.21-6.65-6.26-7.38-1.19-.21-2.44-.16-3.66-.09-3.82,.22-6.46,2.77-6.59,6.57-.13,3.96-.11,7.93,0,11.9,.07,2.79,1.67,4.97,4.16,5.53,1.84,.41,3.81,.62,5.67,.44,4.02-.4,6.07-2.52,6.5-6.55,.2-1.93,.03-3.89,.03-5.84h0s0,0,0,0Zm69.73,2.15c0,.67,.01,1.24,0,1.81-.03,1.07,.04,2.15-.15,3.2-.07,.4-.71,.88-1.14,.95-.28,.04-.95-.58-.97-.94-.09-2.15-.05-4.32-.05-6.58h9.5c-.19-2.43-.28-4.75-.59-7.04-.35-2.59-2.02-4.23-4.4-5.11-2.02-.74-4.13-.8-6.22-.34-3.39,.75-5.19,2.46-5.44,5.88-.29,3.92-.34,7.87-.12,11.79,.21,3.62,2.06,5.63,5.39,6.36,1.51,.33,3.13,.4,4.67,.27,3.05-.27,5.28-1.9,6.11-4.89,.47-1.69,.4-3.52,.58-5.36h-7.16s-.01,0-.01,0Zm-39.14-21.86c2.08,0,4.04,.07,5.99-.01,3.77-.16,5.4-1.4,6.09-4.51,.14-.63,.23-1.28,.31-1.92,.52-4.08,1.04-8.17,1.55-12.26,.34-2.75,.64-5.51,.97-8.34h-6.64c-.35,4.81-.7,9.57-1.05,14.33-.08,0-.16,.01-.24,.01-.72-4.78-1.43-9.57-2.14-14.34h-6.69c1.37,6.79,2.71,13.5,4.08,20.21,.57,2.81,.59,2.8-2.06,3-.06,0-.11,.08-.16,.12v3.7h0Zm-66.56,15.63c0-.84-.02-1.6,0-2.35,.07-2.46-1.18-4.04-3.36-4.93-2.38-.98-4.85-.99-7.33-.47-2.93,.62-4.29,1.97-4.6,4.91-.51,4.76,.53,6.22,3.78,8.16,1.21,.72,2.46,1.4,3.67,2.11,1.54,.91,2.07,2.13,1.53,3.84-.13,.41-.72,.84-1.17,.95-.67,.17-1.03-.33-1.07-1.01-.07-1.14-.13-2.27-.2-3.44h-6.41c0,1-.05,1.91,.01,2.83,.21,3.1,1.55,4.71,4.55,5.55,2.14,.6,4.32,.65,6.47,.15,1.94-.46,3.76-1.39,4.16-3.47,.37-1.94,.43-4.02,.22-5.99-.23-2.29-2.27-3.2-4.04-4.2-1.16-.66-2.38-1.21-3.52-1.91-1.29-.78-1.82-2.06-1.37-3.44,.14-.43,.72-.85,1.17-.97,.21-.05,.82,.61,.88,1,.14,.88,.04,1.79,.04,2.71h6.58Zm17.26-.03c0-.69-.03-1.3,0-1.9,.21-3.55-1.92-5.21-4.48-5.7-1.98-.38-4.12-.39-6.13-.09-3.07,.45-4.39,1.87-4.7,4.89-.48,4.63,.4,6.09,3.7,8.09,1.21,.73,2.45,1.4,3.67,2.12,1.62,.96,2.06,1.99,1.68,3.79-.14,.67-.46,1.11-1.23,1.09-.72-.02-1.02-.41-1.07-1.08-.09-1.13-.17-2.26-.27-3.45h-6.3c0,1.12-.07,2.18,.01,3.24,.22,2.84,1.86,4.46,4.55,5.17,2.11,.56,4.25,.63,6.36,.15,2.47-.57,4.28-1.97,4.57-4.63,.62-5.79-.21-6.95-4.49-9.23-1.21-.65-2.45-1.26-3.59-2.02-1.03-.68-1.44-2.29-.89-3.39,.18-.36,.73-.75,1.1-.74,.31,.01,.78,.56,.85,.92,.17,.88,.14,1.81,.2,2.77h6.45Zm37.33,1.38c-.17-1.43-.3-2.75-.49-4.06-.28-1.91-1.38-3.27-3.03-4.2-2.55-1.42-5.26-1.52-7.99-.7-2.81,.84-4.73,2.67-4.79,5.72-.08,4.28-.04,8.56,.21,12.83,.13,2.35,1.53,4.13,3.83,4.99,2.33,.86,4.73,.94,7.1,.23,4.28-1.28,5.47-5.33,4.88-9.83h-6.44c0,.61,.02,1.14,0,1.68-.05,1.14-.06,2.29-.21,3.42-.04,.3-.52,.75-.8,.75-.36,0-.77-.33-1.06-.62-.19-.19-.25-.57-.25-.86-.01-4.44-.03-8.87,.03-13.31,0-.39,.48-1.03,.84-1.11,.67-.15,.98,.41,1.01,1.07,.06,1.32,.13,2.65,.19,4.02h6.95Zm-36.14-20.39h7.48V25.5h-7.48v28.84h0Zm76.55,31.34c-1.5-.18-2.26-1.02-2.26-2.51v-13.02h1.94v-3.88h-1.97v-3.63h-7.36v3.62c-.53,.03-.98,.05-1.46,.07v3.8c.51,.03,.96,.05,1.5,.09v1.15c0,4.17-.01,8.34,.01,12.51,0,.84,.08,1.68,.17,2.51,.16,1.46,1.1,2.55,2.41,2.75,2.31,.36,4.68,.33,7.02,.47v-3.92h0Zm-108.37-31.34h7.32v-1.3c.01-3.78,.01-7.57,.05-11.35,.02-1.86,.93-2.79,2.79-2.96,.44-.04,.89-.07,1.32-.09v-8.4c-2.01,.02-3.19,1.28-4.31,2.83v-2.38h-7.17v23.67h0Zm77.35,35.07v-23.7h-7.39v23.7h7.39Zm-7.34-28.83v3.75h7.34v-3.75s-7.34,0-7.34,0Z"/>
    <path class="cls-7" d="M208.34,22.44c1.57,.22,3.14,.44,4.7,.66,14.33,2.08,26.75,14.06,29.34,28.32,.29,1.61,.48,3.25,.64,4.88,.03,.28-.21,.75-.45,.86-2.22,1-4.5,1.89-6.71,2.93-2.57,1.21-5.09,1.21-7.64,.03-1.18-.55-2.38-1.06-3.53-1.66-3.34-1.75-6.59-1.42-9.91,.14-1.95,.92-4.03,1.63-6.1,2.26-1.51,.46-3.04,.19-4.44-.62-1-.57-1.98-1.16-2.98-1.73-3.6-2.09-7.29-2.03-11.02-.4-.88,.39-1.74,.81-2.57,1.27-4.41,2.42-8.75,2.02-13.04-.29-.27-.15-.52-.34-.8-.45-2.35-.94-2.81-2.69-2.53-5.06,.92-7.86,4.13-14.61,9.7-20.18,5.25-5.25,11.56-8.63,18.88-10.04,1.76-.34,3.56-.46,5.34-.7,.2-.03,.4-.15,.59-.22h2.53Z"/>
    <path class="cls-8" d="M416.62,83.76c-.08,.27-.21,.53-.24,.8-.27,2.58-1.57,4.2-4.08,4.93-2.49,.73-4.98,.63-7.46-.13-2.57-.79-3.9-2.57-4.06-5.21-.07-.98-.01-1.98-.01-3.03h6.32c.09,1.19,.11,2.37,.33,3.51,.07,.38,.67,.95,.98,.92,.43-.04,1.05-.48,1.19-.88,.56-1.64,0-2.97-1.48-3.85-1.25-.74-2.49-1.5-3.78-2.16-3.34-1.7-4.19-4.55-3.76-7.98,.39-3.06,1.64-4.42,4.71-5.07,2.43-.52,4.87-.49,7.22,.45,2.23,.9,3.52,2.49,3.42,5.01-.03,.72,0,1.45,0,2.25h-6.43c-.05-.91-.03-1.83-.19-2.71-.07-.37-.57-.97-.82-.94-.43,.04-1,.42-1.17,.8-.52,1.21-.04,2.69,1.08,3.43,1.02,.66,2.13,1.19,3.19,1.8,.96,.55,1.92,1.1,2.83,1.72,1.25,.85,1.83,2.1,1.99,3.58,.03,.23,.15,.46,.23,.69v2.07h-.01Z"/>
    <path class="cls-18" d="M178.47,79.8c4.28,.79,8.16-.34,11.87-2.42,3.62-2.03,7.22-2.02,10.67,.48,3.8,2.76,7.82,2.67,11.96,.91,1.23-.53,2.44-1.1,3.64-1.68,2.25-1.09,4.48-1.12,6.71,.04,.61,.32,1.25,.58,1.86,.9,3.48,1.81,7.05,2.75,10.91,1.28,.05,.05,.09,.09,.14,.14-2.69,3.96-6.17,7.09-10.21,9.58-14.07,8.67-32.23,6.67-44.05-4.87-1.33-1.3-2.41-2.84-3.6-4.27l.09-.09h0Z"/>
    <path class="cls-14" d="M252.82,25.46h7.54v1.14c0,6.54,0,13.09,.01,19.63,0,.95,.05,1.91,.21,2.85,.06,.34,.58,.9,.76,.86,.39-.09,.85-.47,.98-.83,.19-.52,.12-1.13,.12-1.7,0-7.27,0-14.54,0-21.9h7.54s.09,.11,.09,.17c-.01,7.31,.02,14.62-.07,21.92-.05,4.37-2.71,7.17-7.1,7.37-1.79,.08-3.69-.16-5.41-.68-3.03-.92-4.63-3.2-4.66-6.37-.06-7.46-.02-14.91-.02-22.46h0Z"/>
    <path class="cls-17" d="M254.99,60.6h11.02c1.44,9.62,2.86,19.21,4.3,28.85h-7.8c-.14-1.65-.28-3.3-.42-5.01h-2.59c-.15,1.68-.29,3.3-.44,4.98h-7.91c1.28-9.61,2.55-19.19,3.83-28.82h0Zm6.87,18.46c-.34-3.48-.66-6.84-.99-10.2-.1,0-.2,.01-.29,.01-.4,3.38-.8,6.76-1.2,10.18h2.49Z"/>
    <path class="cls-16" d="M333.11,52.74h7c.09,.25,.11,.62,.31,.78,.33,.28,.78,.61,1.17,.58,.33-.02,.82-.48,.89-.8,.18-.96,.18-1.95,.25-2.99-.99,.45-1.84,1.02-2.77,1.23-2.83,.66-6.59-.24-6.74-4.6-.13-4.08-.05-8.18,.06-12.26,.05-1.84,.78-3.5,2.71-4.14,2.07-.69,4.08-.48,5.82,1,.2,.17,.4,.35,.61,.52,.02,.01,.07,0,.18-.02,.15-.42,.31-.88,.47-1.37h6.79v1.24c0,6.28-.16,12.56,.05,18.83,.17,5.33-2.62,7.18-6.49,7.59-1.99,.21-4.08,.12-6.04-.25-3.05-.58-4.09-2.05-4.27-5.35h0Zm9.4-11.9h.02v-1.37c0-1.14,.02-2.29-.03-3.43-.03-.61,.08-1.39-.88-1.46-1.01-.07-1,.74-1.13,1.39-.05,.26-.05,.53-.05,.8,0,2.86-.01,5.73,0,8.59,0,.49,.05,1,.21,1.46,.09,.25,.47,.57,.7,.57,.31-.01,.76-.24,.89-.51,.2-.43,.25-.96,.25-1.45,.03-1.53,.01-3.05,.01-4.58h0Z"/>
    <path class="cls-4" d="M171.27,61.14c2.36,.9,4.59,1.94,6.92,2.61,3.37,.97,6.68,.41,9.83-1.08,1.25-.58,2.46-1.24,3.73-1.78,2.91-1.25,5.7-1.04,8.47,.58,1.67,.98,3.41,1.97,5.25,2.48,2.73,.76,5.38-.13,7.91-1.2,1.13-.47,2.23-1.01,3.34-1.55,2.22-1.08,4.41-1.08,6.62,.06,1.19,.61,2.42,1.15,3.63,1.72,3.45,1.61,6.88,1.57,10.3-.1,1.17-.57,2.33-1.18,3.51-1.72,.69-.32,1.41-.55,2.4-.93-.26,1.81-.48,3.37-.72,4.93-.03,.18-.23,.4-.4,.48-2.27,1.02-4.54,2.02-6.82,3.01-2.19,.96-4.4,.92-6.57-.04-1.54-.68-3.07-1.38-4.6-2.1-2.87-1.36-5.7-1.12-8.55,.11-2.1,.9-4.21,1.82-6.39,2.49-1.85,.57-3.72,.28-5.4-.82-.58-.38-1.19-.7-1.77-1.07-3.99-2.53-8.08-2.48-12.26-.53-.62,.29-1.25,.58-1.85,.92-4.37,2.46-8.69,2.13-13.06-.09-2.01-1.02-3.55-2.21-3.39-4.72,.04-.6-.08-1.21-.11-1.66h0Z"/>
    <path class="cls-8" d="M330.99,42.41c0,1.79,.05,3.59-.01,5.38-.15,3.94-2.6,6.62-6.53,6.95-1.66,.15-3.38,.05-5.02-.23-2.91-.51-4.65-2.32-4.85-5.69-.25-4.18-.21-8.41,.11-12.59,.27-3.44,2.16-5.2,5.61-5.84,2.27-.41,4.57-.34,6.74,.66,2.49,1.16,3.8,3.13,3.94,5.83,.09,1.83,.02,3.66,.02,5.5h0s0,0,0,0Zm-7.33,.13v-6.76c0-.66-.11-1.25-.97-1.22-.81,.03-.89,.61-.89,1.2-.01,4.51-.01,9.01,0,13.51,0,.65,.13,1.25,.99,1.23,.8-.03,.87-.61,.88-1.21,0-2.25,0-4.51,0-6.76h0Z"/>
    <path class="cls-8" d="M285.49,42.72c.12-2.17,.09-4.36,.4-6.5,.51-3.48,2.29-5.28,5.77-5.85,2.19-.36,4.42-.29,6.53,.66,2.27,1.02,3.82,2.77,3.92,5.22,.18,4.12,.27,8.27-.07,12.36-.29,3.64-2.55,5.7-6.18,6.1-1.79,.19-3.69,.07-5.46-.29-2.99-.61-4.57-2.83-4.7-6.21-.07-1.83-.01-3.66-.01-5.5-.07,0-.13,0-.2,0h0Zm7.53-.18c0,2.25-.01,4.51,0,6.76,0,.65,.12,1.26,1,1.21,.8-.04,.86-.63,.87-1.22,0-4.51,0-9.01,0-13.51,0-.6-.07-1.18-.88-1.21-.88-.03-.98,.56-.98,1.22,0,2.25,0,4.51,0,6.76h0Z"/>
    <path class="cls-2" d="M359.31,74.97h-6.73c-.77-5.09,.54-9.05,6.87-9.58,2.34-.2,4.67-.11,6.74,1.24,1.92,1.24,2.43,3.17,2.45,5.26,.04,5.84,.01,11.68,.01,17.56h-7.03v-1.72c-1.56,2.17-3.52,2.56-5.78,2.02-1.91-.46-3.17-1.62-3.32-3.58-.15-1.94-.09-3.9-.01-5.84,.05-1.24,.8-2.14,1.92-2.66,1.76-.81,3.52-1.64,5.33-2.34,1.26-.49,1.82-1.27,1.65-2.61-.09-.72,.03-1.48-.17-2.15-.12-.39-.69-.65-1.05-.97-.29,.38-.81,.74-.84,1.13-.11,1.36-.04,2.74-.04,4.24h0Zm2.1,3.44c-1.24,.81-2.06,1.7-2.09,3.09-.02,.92-.03,1.83,0,2.75,.03,.71,.15,1.42,1.14,1.37,.94-.04,.94-.75,.94-1.41,.01-1.87,0-3.74,0-5.81h0Z"/>
    <path class="cls-2" d="M322.1,77.45c0,1.95,.17,3.91-.03,5.84-.43,4.03-2.48,6.16-6.5,6.55-1.86,.19-3.83-.03-5.67-.44-2.49-.56-4.09-2.74-4.16-5.53-.11-3.96-.13-7.94,0-11.9,.13-3.81,2.77-6.35,6.59-6.57,1.22-.07,2.47-.12,3.66,.09,4.05,.72,6.16,3.26,6.26,7.38,.04,1.53,0,3.06,0,4.59h-.15s0,0,0,0Zm-7.2,.29c0-2.1,0-4.2,0-6.3,0-.38,.02-.81-.15-1.12-.17-.31-.57-.69-.85-.68-.29,.01-.72,.41-.82,.72-.17,.49-.17,1.05-.17,1.58-.01,3.82-.01,7.63,0,11.45,0,.53,.02,1.09,.19,1.58,.09,.28,.51,.6,.79,.61,.28,.01,.67-.29,.82-.56,.17-.31,.19-.73,.19-1.1,.01-2.06,.01-4.12,.01-6.18h0Z"/>
    <path class="cls-9" d="M391.82,79.61h7.16c-.18,1.84-.12,3.67-.58,5.36-.82,2.99-3.05,4.62-6.11,4.89-1.54,.14-3.16,.06-4.67-.27-3.34-.72-5.18-2.73-5.39-6.36-.23-3.92-.17-7.88,.12-11.79,.25-3.42,2.05-5.13,5.44-5.88,2.09-.47,4.2-.4,6.22,.34,2.38,.87,4.05,2.52,4.4,5.11,.31,2.29,.39,4.61,.59,7.04h-9.5c0,2.26-.05,4.43,.05,6.58,.01,.35,.69,.98,.97,.94,.44-.07,1.08-.56,1.14-.95,.19-1.04,.13-2.13,.15-3.2,.01-.57,0-1.14,0-1.81h0s.01,0,.01,0Zm-.31-5.53c-.06-1.18-.05-2.32-.21-3.44-.05-.38-.51-.7-.79-1.05-.35,.33-.94,.63-.98,1-.13,1.15-.05,2.33-.05,3.49h2.03Z"/>
    <path class="cls-2" d="M352.69,57.75v-3.7c.05-.04,.1-.12,.16-.12,2.65-.2,2.63-.2,2.06-3-1.36-6.71-2.71-13.42-4.08-20.21h6.69c.71,4.77,1.43,9.56,2.14,14.34,.08,0,.16-.01,.24-.01,.35-4.76,.7-9.52,1.05-14.33h6.64c-.33,2.83-.63,5.58-.97,8.34-.51,4.09-1.02,8.18-1.55,12.26-.08,.64-.17,1.29-.31,1.92-.69,3.11-2.31,4.36-6.09,4.51-1.95,.08-3.9,.01-5.99,.01h0Z"/>
    <path class="cls-8" d="M286.13,73.37h-6.57c0-.92,.09-1.83-.04-2.71-.06-.39-.68-1.06-.88-1-.46,.12-1.03,.55-1.17,.97-.45,1.38,.08,2.66,1.37,3.44,1.14,.69,2.36,1.25,3.52,1.91,1.77,1,3.8,1.91,4.04,4.2,.2,1.98,.15,4.05-.22,5.99-.4,2.08-2.23,3.01-4.16,3.47-2.15,.51-4.33,.45-6.47-.15-3-.84-4.34-2.45-4.55-5.55-.06-.91-.01-1.83-.01-2.83h6.41c.07,1.17,.14,2.31,.2,3.44,.04,.69,.4,1.18,1.07,1.01,.45-.11,1.04-.54,1.17-.95,.53-1.71,0-2.93-1.53-3.84-1.21-.72-2.46-1.39-3.67-2.11-3.25-1.94-4.28-3.39-3.78-8.16,.31-2.94,1.68-4.28,4.6-4.91,2.47-.53,4.95-.51,7.33,.47,2.18,.9,3.44,2.47,3.36,4.93-.02,.76,0,1.52,0,2.35h-.01Z"/>
    <path class="cls-8" d="M303.39,73.35h-6.45c-.05-.96-.03-1.88-.2-2.77-.07-.37-.55-.92-.85-.92-.37-.01-.92,.38-1.1,.74-.55,1.1-.14,2.71,.89,3.39,1.14,.75,2.38,1.37,3.59,2.02,4.27,2.28,5.11,3.44,4.49,9.23-.29,2.66-2.1,4.07-4.57,4.63-2.11,.48-4.24,.41-6.36-.15-2.7-.71-4.34-2.33-4.55-5.17-.08-1.06-.01-2.12-.01-3.24h6.3c.09,1.18,.19,2.31,.27,3.45,.05,.67,.35,1.05,1.07,1.08,.77,.02,1.09-.41,1.23-1.09,.38-1.81-.07-2.83-1.68-3.79-1.21-.72-2.46-1.39-3.67-2.12-3.3-1.99-4.17-3.47-3.7-8.09,.31-3.02,1.64-4.43,4.7-4.89,2-.29,4.14-.29,6.13,.09,2.56,.49,4.69,2.15,4.48,5.7-.04,.61,0,1.21,0,1.9h0Z"/>
    <path class="cls-9" d="M340.72,74.73h-6.95c-.07-1.37-.13-2.69-.19-4.02-.03-.66-.34-1.22-1.01-1.07-.36,.08-.84,.72-.84,1.11-.06,4.44-.04,8.87-.03,13.31,0,.29,.07,.66,.25,.86,.28,.29,.7,.62,1.06,.62,.28,0,.76-.45,.8-.75,.15-1.13,.16-2.27,.21-3.42,.02-.53,0-1.06,0-1.68h6.44c.58,4.5-.61,8.54-4.88,9.83-2.37,.71-4.77,.63-7.1-.23-2.3-.85-3.7-2.63-3.83-4.99-.25-4.27-.29-8.55-.21-12.83,.06-3.05,1.98-4.88,4.79-5.72,2.73-.82,5.44-.73,7.99,.7,1.66,.93,2.75,2.29,3.03,4.2,.19,1.31,.32,2.62,.49,4.06h0Z"/>
    <path class="cls-12" d="M173.36,70.43c1.84,.61,3.66,1.37,5.54,1.79,3.39,.76,6.59,0,9.69-1.48,1.79-.84,3.64-1.6,5.52-2.18,1.67-.52,3.35-.14,4.89,.64,.82,.41,1.65,.83,2.4,1.36,3.52,2.46,7.24,2.38,11.06,.88,1.64-.65,3.21-1.44,4.83-2.15,1.86-.82,3.71-.78,5.55,.09,1.07,.51,2.17,.97,3.22,1.52,4.32,2.27,8.54,1.97,12.7-.42,.76-.44,1.56-.8,2.37-1.21,.17,1.81-1.4,4.74-2.87,5.47-2.09,1.04-4.16,2.47-6.58,2.03-2.11-.38-4.16-1.22-6.13-2.1-2.2-.98-4.4-2.01-6.83-1.46-1.84,.42-3.57,1.32-5.37,1.93-1.8,.61-3.6,1.25-5.45,1.66-1.75,.39-3.24-.53-4.76-1.33-1.78-.94-3.59-1.95-5.51-2.47-2.81-.76-5.51,.06-8.11,1.26-1.87,.86-3.75,1.76-5.72,2.32-2.78,.79-5.46,0-8.03-1.12-.2-.09-.44-.24-.52-.41-.65-1.54-1.26-3.09-1.88-4.64h0Z"/>
    <path class="cls-16" d="M304.58,54.34V25.5h7.48v28.84h-7.48Z"/>
    <path class="cls-16" d="M381.13,85.69v3.91c-2.35-.13-4.71-.11-7.02-.47-1.31-.2-2.25-1.29-2.41-2.75-.09-.83-.17-1.68-.17-2.51-.01-4.17-.01-8.34-.01-12.51v-1.15c-.55-.03-.99-.05-1.5-.09v-3.8c.49-.03,.94-.05,1.46-.07v-3.62h7.36v3.63h1.97v3.88h-1.94v13.02c0,1.49,.75,2.33,2.26,2.51h0s0,.01,0,.01Z"/>
    <path class="cls-6" d="M272.76,54.36V30.7h7.17v2.38c1.12-1.56,2.3-2.81,4.31-2.83v8.39c-.43,.03-.87,.05-1.32,.09-1.86,.18-2.77,1.1-2.79,2.96-.04,3.78-.04,7.57-.05,11.35v1.3h-7.32s0,0,0,0Z"/>
    <path class="cls-5" d="M350.11,89.44h-7.39v-23.7h7.39v23.7h0Z"/>
    <path class="cls-11" d="M342.77,60.61h7.34v3.75h-7.34v-3.75Z"/>
    <path class="cls-12" d="M173.36,70.43l-.11-.1s.07,0,.08,.01c.02,.03,.03,.06,.03,.09h0Z"/>
    <path class="cls-18" d="M236.1,79.31c.09-.01,.18-.02,.27-.03-.04,.05-.09,.11-.13,.17-.05-.05-.09-.09-.14-.14h0Z"/>
    <path class="cls-18" d="M178.38,79.89s-.08-.09-.12-.13c.07,.01,.15,.03,.21,.04l-.09,.09h0Z"/>
    <path class="cls-15" d="M261.86,79.06h-2.49c.41-3.43,.8-6.81,1.2-10.18,.1,0,.2-.01,.29-.01,.33,3.36,.65,6.72,.99,10.2h0Z"/>
    <path class="cls-3" d="M342.52,40.83c0,1.53,.02,3.05-.01,4.58-.01,.49-.05,1.02-.25,1.45-.12,.26-.58,.49-.89,.51-.24,.01-.61-.31-.7-.57-.16-.45-.21-.97-.21-1.46-.02-2.86-.01-5.72,0-8.59,0-.27,0-.54,.05-.8,.14-.65,.12-1.46,1.13-1.39,.95,.07,.85,.85,.88,1.46,.05,1.14,.03,2.29,.03,3.43v1.37h-.01Z"/>
    <path class="cls-13" d="M323.66,42.54v6.76c0,.6-.07,1.18-.88,1.21-.86,.03-.99-.58-.99-1.23-.01-4.51-.01-9.01,0-13.51,0-.59,.08-1.18,.89-1.2,.87-.03,.97,.56,.97,1.22v6.76h0Z"/>
    <path class="cls-13" d="M293.02,42.54v-6.76c0-.66,.11-1.25,.98-1.22,.81,.03,.88,.61,.88,1.21,.01,4.51,.01,9.01,0,13.51,0,.59-.07,1.18-.87,1.22-.87,.04-.99-.57-1-1.21-.01-2.25,0-4.51,0-6.76h0Z"/>
    <path class="cls-3" d="M361.4,78.41c0,2.06,.01,3.94,0,5.81,0,.65,0,1.36-.94,1.41-.98,.05-1.1-.66-1.14-1.37-.04-.92-.03-1.83,0-2.75,.03-1.4,.85-2.28,2.09-3.09h0Z"/>
    <path class="cls-10" d="M314.9,77.74c0,2.06,.01,4.12-.01,6.18,0,.37-.02,.8-.19,1.1-.15,.27-.55,.57-.82,.56-.28-.01-.69-.33-.79-.61-.17-.49-.19-1.05-.19-1.58-.01-3.82-.01-7.63,0-11.45,0-.53,0-1.09,.17-1.58,.11-.32,.53-.71,.82-.72,.29-.01,.69,.37,.85,.68,.17,.31,.15,.74,.15,1.12,.01,2.1,0,4.2,0,6.3h0Z"/>
    <path class="cls-10" d="M391.51,74.07h-2.03c0-1.16-.08-2.34,.05-3.49,.04-.36,.64-.66,.98-1,.27,.35,.74,.67,.79,1.05,.16,1.12,.15,2.25,.21,3.44h0Z"/>
  </g>
  <g>
    <path class="cls-19" d="M7.93,10.49l3.49,7.49h-.81l-1.18-2.46h-3.23l-1.17,2.46h-.83l3.54-7.49h.18Zm-.1,1.59l-1.28,2.71h2.56s-1.28-2.71-1.28-2.71Z"/>
    <path class="cls-19" d="M18,10.3v7.68h-.7v-.95c-.3,.36-.63,.63-1,.82s-.78,.27-1.22,.27c-.78,0-1.46-.28-2.01-.85s-.83-1.26-.83-2.08,.28-1.48,.84-2.05,1.23-.85,2.02-.85c.46,0,.86,.1,1.23,.29,.37,.2,.69,.48,.97,.87v-3.16h.71Zm-2.85,2.69c-.4,0-.76,.1-1.1,.29s-.6,.47-.8,.82c-.2,.35-.3,.73-.3,1.12s.1,.76,.3,1.12c.2,.36,.47,.63,.81,.83,.34,.2,.7,.3,1.09,.3s.76-.1,1.11-.3c.35-.2,.62-.46,.81-.8s.28-.71,.28-1.13c0-.64-.21-1.18-.63-1.61-.42-.43-.94-.65-1.56-.65h0Z"/>
    <path class="cls-19" d="M25.14,10.3v7.68h-.7v-.95c-.3,.36-.63,.63-1,.82s-.78,.27-1.22,.27c-.78,0-1.46-.28-2.01-.85s-.83-1.26-.83-2.08,.28-1.48,.84-2.05,1.23-.85,2.02-.85c.46,0,.86,.1,1.23,.29s.69,.48,.97,.87v-3.16h.71Zm-2.85,2.69c-.4,0-.76,.1-1.1,.29s-.6,.47-.8,.82-.3,.73-.3,1.12,.1,.76,.3,1.12,.47,.63,.81,.83,.7,.3,1.09,.3,.76-.1,1.11-.3,.62-.46,.81-.8c.19-.33,.28-.71,.28-1.13,0-.64-.21-1.18-.63-1.61-.42-.43-.94-.65-1.56-.65h0Z"/>
    <path class="cls-19" d="M26.48,12.44h.73v.81c.22-.32,.45-.56,.69-.72s.49-.23,.75-.23c.2,0,.41,.06,.63,.19l-.37,.6c-.15-.07-.27-.1-.38-.1-.24,0-.46,.1-.69,.29s-.39,.5-.5,.91c-.09,.32-.13,.96-.13,1.92v1.87h-.73v-5.54h0Z"/>
    <path class="cls-19" d="M34.55,16.14l.6,.32c-.2,.39-.43,.7-.68,.94s-.55,.42-.87,.54-.69,.19-1.09,.19c-.9,0-1.61-.3-2.12-.89s-.76-1.26-.76-2.01c0-.7,.22-1.33,.65-1.88,.55-.7,1.28-1.05,2.2-1.05s1.7,.36,2.26,1.07c.4,.5,.6,1.14,.61,1.89h-4.98c.01,.64,.22,1.17,.62,1.58,.4,.41,.89,.62,1.47,.62,.28,0,.56-.05,.82-.15s.5-.23,.68-.39c.19-.16,.39-.43,.61-.79h0Zm0-1.5c-.1-.38-.23-.68-.42-.91-.18-.23-.42-.41-.72-.55s-.61-.21-.94-.21c-.54,0-1.01,.17-1.4,.53-.29,.26-.5,.63-.65,1.15h4.13Z"/>
    <path class="cls-19" d="M39.45,13.05l-.46,.47c-.38-.37-.76-.56-1.12-.56-.23,0-.43,.08-.6,.23-.17,.15-.25,.33-.25,.53,0,.18,.07,.35,.2,.51,.13,.17,.42,.36,.86,.59,.53,.27,.89,.54,1.08,.79,.19,.26,.28,.55,.28,.87,0,.46-.16,.84-.48,1.16s-.72,.47-1.2,.47c-.32,0-.63-.07-.92-.21s-.53-.33-.72-.57l.45-.51c.36,.41,.75,.62,1.16,.62,.29,0,.53-.09,.73-.27s.3-.4,.3-.65c0-.2-.07-.39-.2-.54s-.43-.35-.9-.59c-.5-.26-.84-.51-1.02-.76s-.27-.54-.27-.86c0-.42,.14-.77,.43-1.05,.29-.28,.65-.42,1.09-.42,.51,0,1.03,.25,1.54,.75h0Z"/>
    <path class="cls-19" d="M43.5,13.05l-.46,.47c-.38-.37-.76-.56-1.12-.56-.23,0-.43,.08-.6,.23-.17,.15-.25,.33-.25,.53,0,.18,.07,.35,.2,.51,.13,.17,.42,.36,.86,.59,.53,.27,.89,.54,1.08,.79,.19,.26,.28,.55,.28,.87,0,.46-.16,.84-.48,1.16s-.72,.47-1.2,.47c-.32,0-.63-.07-.92-.21s-.53-.33-.72-.57l.45-.51c.36,.41,.75,.62,1.16,.62,.29,0,.53-.09,.73-.27s.3-.4,.3-.65c0-.2-.07-.39-.2-.54s-.43-.35-.9-.59c-.5-.26-.84-.51-1.02-.76s-.27-.54-.27-.86c0-.42,.14-.77,.43-1.05,.29-.28,.65-.42,1.09-.42,.51,0,1.03,.25,1.54,.75h0Z"/>
    <path class="cls-19" d="M45.54,12.3c.17,0,.32,.06,.44,.18s.18,.27,.18,.45-.06,.33-.18,.45-.27,.18-.44,.18-.32-.06-.44-.18-.18-.27-.18-.45,.06-.32,.18-.45,.27-.19,.44-.19h0Zm0,4.57c.17,0,.32,.06,.44,.18s.18,.27,.18,.45-.06,.32-.18,.45-.27,.19-.44,.19-.32-.06-.44-.19-.18-.27-.18-.45,.06-.33,.18-.45,.27-.18,.44-.18Z"/>
    <path class="cls-19" d="M5.89,23h1.47v7.49h-.74v-6.75h-1.18s.45-.73,.45-.73Z"/>
    <path class="cls-19" d="M14.87,23v.71h-2.66l-.37,2.04c.33-.1,.62-.14,.88-.14,.68,0,1.24,.23,1.69,.69,.44,.46,.66,1.04,.66,1.75,0,.49-.11,.94-.34,1.36s-.53,.73-.93,.94-.84,.33-1.35,.33c-.61,0-1.12-.19-1.54-.56s-.67-.85-.75-1.44h.77c.06,.29,.16,.52,.29,.7s.32,.33,.55,.43,.47,.17,.72,.17c.49,0,.92-.19,1.27-.56s.53-.84,.53-1.4c0-.5-.16-.92-.48-1.23s-.74-.47-1.28-.47c-.44,0-.98,.13-1.6,.4l.69-3.72h3.24Z"/>
    <path class="cls-19" d="M17.45,23h1.47v7.49h-.74v-6.75h-1.18s.45-.73,.45-.73Z"/>
    <path class="cls-19" d="M23.3,30.68l-.62-.4,2.02-3.07c-.27,.09-.53,.13-.76,.13-.6,0-1.1-.21-1.52-.64s-.62-.96-.62-1.59c0-.43,.1-.82,.3-1.16s.49-.62,.85-.83,.76-.31,1.18-.31,.79,.1,1.15,.3,.63,.48,.83,.84,.3,.74,.3,1.15c0,.31-.06,.63-.19,.97s-.34,.74-.66,1.22l-2.27,3.38h.01Zm.82-3.99c.44,0,.81-.15,1.12-.46s.46-.68,.46-1.11-.15-.8-.46-1.11-.68-.46-1.12-.46-.8,.15-1.11,.46-.46,.68-.46,1.11,.15,.8,.46,1.11,.68,.46,1.12,.46Z"/>
    <path class="cls-19" d="M27.41,26.75c0-.99,.1-1.75,.32-2.29s.51-.95,.9-1.22,.82-.42,1.3-.42,.93,.14,1.32,.42,.7,.7,.93,1.26,.34,1.31,.34,2.25-.11,1.69-.34,2.25-.54,.98-.93,1.26-.84,.43-1.32,.43-.91-.14-1.29-.41-.68-.69-.9-1.23-.32-1.31-.32-2.29h0Zm.71,0c0,.85,.07,1.49,.23,1.92,.15,.43,.37,.76,.67,.99s.61,.33,.94,.33,.64-.11,.93-.33,.51-.55,.66-.99c.19-.53,.28-1.18,.28-1.92s-.08-1.37-.25-1.85c-.17-.48-.4-.83-.69-1.06-.3-.22-.6-.33-.93-.33s-.64,.11-.94,.33c-.29,.22-.51,.55-.67,.98-.15,.43-.23,1.07-.23,1.92h0Z"/>
    <path class="cls-19" d="M43.62,24.39l-.59,.45c-.33-.43-.72-.75-1.17-.96s-.96-.33-1.5-.33c-.6,0-1.15,.14-1.66,.43s-.9,.67-1.18,1.16-.42,1.03-.42,1.63c0,.91,.31,1.68,.94,2.28s1.42,.92,2.37,.92c1.05,0,1.92-.41,2.63-1.23l.59,.45c-.37,.47-.84,.84-1.4,1.1s-1.18,.39-1.87,.39c-1.31,0-2.34-.43-3.1-1.31-.63-.74-.95-1.62-.95-2.67,0-1.09,.38-2.02,1.15-2.77s1.73-1.12,2.89-1.12c.7,0,1.33,.14,1.89,.42s1.03,.66,1.39,1.16h0Z"/>
    <path class="cls-19" d="M47.63,24.81c.85,0,1.56,.31,2.12,.93,.51,.56,.76,1.23,.76,2s-.27,1.45-.81,2.03-1.23,.87-2.08,.87-1.54-.29-2.09-.87c-.54-.58-.81-1.26-.81-2.03s.26-1.43,.76-1.99c.56-.62,1.27-.93,2.13-.93h0Zm0,.7c-.59,0-1.1,.22-1.53,.66-.43,.44-.64,.97-.64,1.59,0,.4,.1,.77,.29,1.12,.2,.35,.46,.61,.79,.8s.7,.28,1.09,.28,.76-.1,1.09-.28,.59-.46,.79-.8,.29-.72,.29-1.12c0-.62-.21-1.15-.64-1.59-.43-.44-.93-.66-1.52-.66h0Z"/>
    <path class="cls-19" d="M51.83,24.95h.71v.96c.25-.35,.5-.61,.76-.77,.36-.22,.74-.33,1.14-.33,.27,0,.52,.05,.76,.16s.44,.24,.59,.42c.15,.17,.29,.43,.4,.75,.23-.43,.53-.76,.89-.99s.74-.34,1.15-.34c.38,0,.72,.1,1.01,.29,.29,.2,.51,.46,.65,.81s.21,.86,.21,1.56v3.02h-.73v-3.02c0-.6-.04-1-.13-1.22s-.23-.4-.43-.54c-.2-.13-.45-.2-.73-.2-.34,0-.66,.1-.95,.3s-.5,.47-.63,.82-.2,.91-.2,1.7v2.17h-.71v-2.84c0-.67-.04-1.12-.13-1.36s-.23-.43-.43-.57-.45-.22-.74-.22c-.33,0-.64,.1-.93,.3s-.5,.46-.63,.8-.2,.85-.2,1.54v2.35h-.71v-5.54h0Z"/>
    <path class="cls-19" d="M61.61,24.95h.71v.96c.25-.35,.5-.61,.76-.77,.36-.22,.74-.33,1.14-.33,.27,0,.52,.05,.76,.16s.44,.24,.59,.42c.15,.17,.29,.43,.4,.75,.23-.43,.53-.76,.89-.99s.74-.34,1.15-.34c.38,0,.72,.1,1.01,.29,.29,.2,.51,.46,.65,.81s.21,.86,.21,1.56v3.02h-.73v-3.02c0-.6-.04-1-.13-1.22s-.23-.4-.43-.54c-.2-.13-.45-.2-.73-.2-.34,0-.66,.1-.95,.3-.29,.2-.5,.47-.63,.82s-.2,.91-.2,1.7v2.17h-.71v-2.84c0-.67-.04-1.12-.13-1.36s-.23-.43-.43-.57-.45-.22-.74-.22c-.33,0-.64,.1-.93,.3s-.5,.46-.63,.8-.2,.85-.2,1.54v2.35h-.71v-5.54Z"/>
    <path class="cls-19" d="M71.3,24.95h.71v2.58c0,.63,.03,1.06,.1,1.3,.1,.34,.3,.61,.58,.8s.63,.3,1.03,.3,.73-.1,1.01-.29,.47-.44,.57-.76c.07-.21,.11-.67,.11-1.36v-2.58h.73v2.72c0,.76-.09,1.34-.27,1.72s-.45,.69-.8,.91-.81,.33-1.35,.33-.99-.11-1.35-.33-.63-.53-.81-.92-.27-.98-.27-1.77v-2.67h0Z"/>
    <path class="cls-19" d="M77.73,24.95h.71v.99c.29-.38,.6-.66,.95-.85s.72-.28,1.13-.28,.78,.1,1.1,.32,.56,.5,.71,.85,.23,.91,.23,1.66v2.85h-.71v-2.64c0-.64-.03-1.06-.08-1.28-.08-.36-.24-.64-.47-.83s-.54-.28-.92-.28c-.43,0-.82,.14-1.16,.43s-.56,.64-.67,1.06c-.07,.27-.1,.78-.1,1.51v2.03h-.71v-5.54h0Z"/>
    <path class="cls-19" d="M84.34,22.67c.16,0,.3,.06,.42,.17,.11,.12,.17,.26,.17,.42s-.06,.3-.17,.41c-.11,.12-.25,.17-.42,.17s-.3-.06-.41-.17-.17-.25-.17-.41,.06-.3,.17-.42,.25-.17,.41-.17Zm-.35,2.28h.71v5.54h-.71v-5.54Z"/>
    <path class="cls-19" d="M86.8,22.9h.71v2.05h1.13v.62h-1.13v4.92h-.71v-4.92h-.97v-.62h.97v-2.05Z"/>
    <path class="cls-19" d="M89.11,24.95h.75l1.9,4.27,1.85-4.27h.76l-3.31,7.56h-.75l1.06-2.45-2.27-5.12h0Z"/>
    <path class="cls-19" d="M98.34,23h1.49c.83,0,1.39,.03,1.69,.1,.44,.1,.81,.32,1.09,.66s.42,.75,.42,1.24c0,.41-.1,.76-.29,1.08-.19,.31-.46,.54-.82,.7-.36,.16-.85,.24-1.48,.24l2.69,3.48h-.93l-2.69-3.48h-.42v3.48h-.75v-7.49h0Zm.75,.73v2.55h1.29c.5,0,.87-.04,1.11-.13s.43-.25,.56-.46,.2-.44,.2-.7-.07-.48-.2-.69c-.13-.2-.31-.35-.53-.44s-.59-.13-1.1-.13h-1.32Z"/>
    <path class="cls-19" d="M107.13,24.81c.85,0,1.56,.31,2.12,.93,.51,.56,.76,1.23,.76,2s-.27,1.45-.81,2.03-1.23,.87-2.08,.87-1.54-.29-2.09-.87c-.54-.58-.81-1.26-.81-2.03s.26-1.43,.76-1.99c.56-.62,1.27-.93,2.13-.93h0Zm0,.7c-.59,0-1.1,.22-1.53,.66-.43,.44-.64,.97-.64,1.59,0,.4,.1,.77,.29,1.12,.2,.35,.46,.61,.79,.8s.7,.28,1.09,.28,.76-.1,1.09-.28,.59-.46,.79-.8,.29-.72,.29-1.12c0-.62-.21-1.15-.64-1.59-.43-.44-.93-.66-1.52-.66h0Z"/>
    <path class="cls-19" d="M116.86,24.95v5.54h-.7v-.95c-.3,.36-.63,.63-1,.82s-.78,.27-1.22,.27c-.78,0-1.46-.28-2.01-.85s-.83-1.26-.83-2.08,.28-1.48,.84-2.05,1.23-.85,2.02-.85c.46,0,.86,.1,1.23,.29s.69,.48,.97,.87v-1.02h.71Zm-2.85,.54c-.4,0-.76,.1-1.1,.29-.33,.2-.6,.47-.8,.82s-.3,.73-.3,1.12,.1,.76,.3,1.12,.47,.63,.81,.83,.7,.3,1.09,.3,.76-.1,1.11-.3,.62-.46,.81-.8c.19-.33,.28-.71,.28-1.13,0-.64-.21-1.18-.63-1.61s-.94-.65-1.56-.65h0Z"/>
    <path class="cls-19" d="M123.99,22.81v7.68h-.7v-.95c-.3,.36-.63,.63-1,.82s-.78,.27-1.22,.27c-.78,0-1.46-.28-2.01-.85s-.83-1.26-.83-2.08,.28-1.48,.84-2.05,1.23-.85,2.02-.85c.46,0,.86,.1,1.23,.29s.69,.48,.97,.87v-3.16h.71Zm-2.85,2.69c-.4,0-.76,.1-1.1,.29-.33,.2-.6,.47-.8,.82s-.3,.73-.3,1.12,.1,.76,.3,1.12,.47,.63,.81,.83,.7,.3,1.09,.3,.76-.1,1.11-.3,.62-.46,.81-.8c.19-.33,.28-.71,.28-1.13,0-.64-.21-1.18-.63-1.61s-.94-.65-1.56-.65h0Z"/>
    <path class="cls-19" d="M126.31,29.12l.69,.33-1.03,1.92-.5-.21,.85-2.04h0Z"/>
    <path class="cls-19" d="M130.72,29.09l.63-.38c.45,.83,.96,1.24,1.55,1.24,.25,0,.49-.06,.71-.17s.39-.27,.5-.47,.17-.4,.17-.63c0-.25-.09-.5-.26-.74-.23-.33-.66-.73-1.28-1.2-.63-.47-1.01-.81-1.16-1.03-.26-.35-.4-.73-.4-1.15,0-.33,.08-.62,.23-.89s.38-.48,.66-.63,.59-.23,.93-.23c.35,0,.68,.09,.99,.26s.63,.5,.97,.96l-.61,.46c-.28-.37-.52-.62-.72-.74s-.42-.18-.65-.18c-.3,0-.55,.09-.74,.27s-.29,.41-.29,.68c0,.17,.03,.32,.1,.47s.19,.32,.37,.5c.1,.1,.42,.34,.97,.75,.65,.48,1.09,.9,1.33,1.28s.36,.75,.36,1.13c0,.54-.2,1.02-.62,1.42s-.91,.6-1.5,.6c-.46,0-.87-.12-1.24-.36s-.71-.65-1.03-1.22h0Z"/>
    <path class="cls-19" d="M137.19,22.9h.71v2.05h1.13v.62h-1.13v4.92h-.71v-4.92h-.97v-.62h.97v-2.05Z"/>
    <path class="cls-19" d="M144.76,28.65l.6,.32c-.2,.39-.43,.7-.68,.94s-.55,.42-.87,.54-.69,.19-1.09,.19c-.9,0-1.61-.3-2.12-.89s-.76-1.26-.76-2.01c0-.7,.22-1.33,.65-1.88,.55-.7,1.28-1.05,2.2-1.05s1.7,.36,2.26,1.07c.4,.5,.6,1.14,.61,1.89h-4.98c.01,.64,.22,1.17,.62,1.58s.89,.62,1.47,.62c.28,0,.56-.05,.82-.15s.5-.23,.68-.39c.19-.16,.39-.43,.61-.79h0Zm0-1.5c-.1-.38-.23-.68-.42-.91-.18-.23-.42-.41-.72-.55s-.61-.21-.94-.21c-.54,0-1.01,.17-1.4,.53-.29,.26-.5,.63-.65,1.15h4.13Z"/>
    <path class="cls-19" d="M150.34,24.74h-.76c.14-.62,.4-1.09,.8-1.42s.86-.5,1.39-.5c.39,0,.76,.09,1.09,.27s.6,.42,.78,.72,.28,.62,.28,.95c0,.64-.32,1.16-.96,1.53,.36,.15,.66,.36,.89,.64,.33,.4,.49,.84,.49,1.33,0,.43-.11,.83-.33,1.21s-.53,.68-.92,.89-.82,.32-1.3,.32c-.64,0-1.18-.19-1.61-.56s-.71-.92-.85-1.64h.73c.13,.49,.31,.84,.56,1.06,.31,.27,.7,.41,1.18,.41,.54,0,.98-.17,1.31-.49s.5-.71,.5-1.15c0-.29-.08-.56-.25-.82s-.39-.45-.66-.57-.7-.21-1.29-.24v-.69c.34,0,.66-.06,.94-.18s.49-.27,.61-.46,.19-.39,.19-.61c0-.33-.13-.61-.39-.85s-.59-.36-.99-.36c-.32,0-.6,.09-.83,.27s-.43,.49-.6,.93h0Z"/>
    <path class="cls-19" d="M155.08,26.75c0-.99,.1-1.75,.32-2.29s.51-.95,.9-1.22,.82-.42,1.3-.42,.93,.14,1.32,.42,.7,.7,.93,1.26,.34,1.31,.34,2.25-.11,1.69-.34,2.25-.54,.98-.93,1.26-.84,.43-1.32,.43-.91-.14-1.29-.41-.68-.69-.9-1.23-.32-1.31-.32-2.29h0Zm.71,0c0,.85,.07,1.49,.23,1.92,.15,.43,.37,.76,.67,.99s.61,.33,.94,.33,.64-.11,.93-.33,.51-.55,.66-.99c.19-.53,.28-1.18,.28-1.92s-.08-1.37-.25-1.85c-.17-.48-.4-.83-.69-1.06-.3-.22-.6-.33-.93-.33s-.64,.11-.94,.33c-.29,.22-.51,.55-.67,.98-.15,.43-.23,1.07-.23,1.92h0Z"/>
    <path class="cls-19" d="M160.85,26.75c0-.99,.1-1.75,.32-2.29s.51-.95,.9-1.22,.82-.42,1.3-.42,.93,.14,1.32,.42,.7,.7,.93,1.26,.34,1.31,.34,2.25-.11,1.69-.34,2.25-.54,.98-.93,1.26-.84,.43-1.32,.43-.91-.14-1.29-.41-.68-.69-.9-1.23-.32-1.31-.32-2.29h0Zm.71,0c0,.85,.07,1.49,.23,1.92,.15,.43,.37,.76,.67,.99s.61,.33,.94,.33,.64-.11,.93-.33,.51-.55,.66-.99c.19-.53,.28-1.18,.28-1.92s-.08-1.37-.25-1.85c-.17-.48-.4-.83-.69-1.06-.3-.22-.6-.33-.93-.33s-.64,.11-.94,.33c-.29,.22-.51,.55-.67,.98-.15,.43-.23,1.07-.23,1.92h0Z"/>
    <path class="cls-19" d="M12.1,36.77l-.58,.55c-.42-.41-.87-.72-1.37-.93s-.98-.32-1.46-.32c-.59,0-1.15,.14-1.68,.43s-.94,.68-1.23,1.17-.44,1.02-.44,1.56,.15,1.1,.45,1.61c.3,.51,.72,.91,1.25,1.19s1.12,.43,1.75,.43c.77,0,1.42-.22,1.95-.65s.85-1,.95-1.69h-2.39v-.72h3.23c0,1.16-.35,2.08-1.03,2.76s-1.59,1.02-2.73,1.02c-1.39,0-2.48-.47-3.29-1.42-.62-.73-.93-1.57-.93-2.52,0-.71,.18-1.37,.53-1.98s.85-1.09,1.47-1.43,1.32-.52,2.11-.52c.63,0,1.23,.11,1.79,.34s1.11,.6,1.64,1.1h0Z"/>
    <path class="cls-19" d="M13.76,37.46h.71v2.58c0,.63,.03,1.06,.1,1.3,.1,.34,.3,.61,.58,.8s.63,.3,1.03,.3,.73-.1,1.01-.29c.28-.19,.47-.44,.57-.76,.07-.21,.11-.67,.11-1.36v-2.58h.73v2.72c0,.76-.09,1.34-.27,1.72s-.45,.69-.8,.91-.81,.33-1.35,.33-.99-.11-1.35-.33-.63-.53-.81-.92-.27-.98-.27-1.77c0,0,0-2.67,0-2.67Z"/>
    <path class="cls-19" d="M20.08,35.32h.71v7.68h-.71v-7.68Z"/>
    <path class="cls-19" d="M24.55,35.32v.7c-.26-.11-.49-.17-.67-.17-.14,0-.26,.03-.35,.08s-.15,.12-.17,.2-.03,.27-.03,.58v.75h1.16v.62h-1.16v4.92h-.72v-4.92h-.73v-.62h.73v-.86c0-.4,.03-.68,.11-.85s.2-.31,.37-.41,.39-.16,.63-.16c.23,0,.51,.05,.83,.14Z"/>
    <path class="cls-19" d="M25.56,37.46h.71v1.02c.28-.39,.6-.68,.97-.87,.36-.2,.77-.29,1.22-.29,.79,0,1.46,.28,2.02,.85,.56,.57,.84,1.25,.84,2.05s-.28,1.51-.83,2.08-1.22,.85-2.01,.85c-.44,0-.85-.09-1.22-.27s-.7-.46-1-.82v2.98h-.71v-7.56h0Zm2.85,.54c-.62,0-1.13,.22-1.56,.65-.42,.43-.63,.96-.63,1.61,0,.42,.1,.8,.28,1.13s.46,.6,.81,.8c.35,.2,.72,.3,1.11,.3s.74-.1,1.08-.3,.6-.47,.8-.83c.2-.36,.3-.73,.3-1.12s-.1-.76-.3-1.12c-.2-.35-.46-.63-.8-.82s-.7-.29-1.1-.29h0Z"/>
    <path class="cls-19" d="M35.28,37.32c.85,0,1.56,.31,2.12,.93,.51,.56,.76,1.23,.76,2s-.27,1.45-.81,2.03-1.23,.87-2.08,.87-1.54-.29-2.09-.87c-.54-.58-.81-1.26-.81-2.03s.26-1.43,.76-1.99c.56-.62,1.27-.93,2.13-.93h0Zm0,.7c-.59,0-1.1,.22-1.53,.66-.43,.44-.64,.97-.64,1.59,0,.4,.1,.77,.29,1.12s.46,.61,.79,.8,.7,.28,1.09,.28,.76-.1,1.09-.28,.59-.46,.79-.8c.2-.35,.29-.72,.29-1.12,0-.62-.21-1.15-.64-1.59-.43-.44-.93-.66-1.52-.66h0Z"/>
    <path class="cls-19" d="M39.22,37.46h.73v.81c.22-.32,.45-.56,.69-.72s.49-.23,.75-.23c.2,0,.41,.06,.63,.19l-.37,.6c-.15-.07-.27-.1-.38-.1-.24,0-.46,.1-.69,.29s-.39,.5-.5,.91c-.09,.32-.13,.96-.13,1.92v1.87h-.73v-5.54h0Z"/>
    <path class="cls-19" d="M43.24,35.41h.71v2.05h1.13v.62h-1.13v4.92h-.71v-4.92h-.97v-.62h.97v-2.05Z"/>
    <path class="cls-19" d="M46.86,41.63l.69,.33-1.03,1.92-.5-.21,.85-2.04Z"/>
    <path class="cls-19" d="M51.7,43l1.07-7.49h.12l3.05,6.14,3.01-6.14h.12l1.08,7.49h-.73l-.74-5.36-2.65,5.36h-.19l-2.68-5.4-.73,5.4h-.73Z"/>
    <path class="cls-19" d="M60.85,41.61l.63-.38c.45,.83,.96,1.24,1.55,1.24,.25,0,.49-.06,.71-.17s.39-.27,.5-.47,.17-.4,.17-.63c0-.25-.09-.5-.26-.74-.23-.33-.66-.73-1.28-1.2-.63-.47-1.01-.81-1.16-1.03-.26-.35-.4-.73-.4-1.15,0-.33,.08-.62,.23-.89s.38-.48,.66-.63,.59-.23,.93-.23c.35,0,.68,.09,.99,.26s.63,.5,.97,.96l-.61,.46c-.28-.37-.52-.62-.72-.74s-.42-.18-.65-.18c-.3,0-.55,.09-.74,.27s-.29,.41-.29,.68c0,.17,.03,.32,.1,.47s.19,.32,.37,.5c.1,.1,.42,.34,.97,.75,.65,.48,1.09,.9,1.33,1.28s.36,.75,.36,1.13c0,.54-.2,1.02-.62,1.42s-.91,.6-1.5,.6c-.46,0-.87-.12-1.24-.36s-.71-.65-1.03-1.22h0Z"/>
    <path class="cls-19" d="M70.17,37.25h-.76c.14-.62,.4-1.09,.8-1.42s.86-.5,1.39-.5c.39,0,.76,.09,1.09,.27s.6,.42,.78,.72,.28,.62,.28,.95c0,.64-.32,1.16-.96,1.53,.36,.15,.66,.36,.89,.64,.33,.4,.49,.84,.49,1.33,0,.43-.11,.83-.33,1.21s-.53,.68-.92,.89-.82,.32-1.3,.32c-.64,0-1.18-.19-1.61-.56s-.71-.92-.85-1.64h.73c.13,.49,.31,.84,.56,1.06,.31,.27,.7,.41,1.18,.41,.54,0,.98-.17,1.31-.49s.5-.71,.5-1.15c0-.29-.08-.56-.25-.82s-.39-.45-.66-.57-.7-.21-1.29-.24v-.69c.34,0,.66-.06,.94-.18s.49-.27,.61-.46,.19-.39,.19-.61c0-.33-.13-.61-.39-.85s-.59-.36-.99-.36c-.32,0-.6,.09-.83,.27s-.43,.49-.6,.93h0Z"/>
    <path class="cls-19" d="M76.57,43.19l-.62-.4,2.02-3.07c-.27,.09-.53,.13-.76,.13-.6,0-1.1-.21-1.52-.64s-.62-.96-.62-1.59c0-.43,.1-.82,.3-1.16s.49-.62,.85-.83,.76-.31,1.18-.31,.79,.1,1.15,.3,.63,.48,.83,.84,.3,.74,.3,1.15c0,.31-.06,.63-.19,.97s-.34,.74-.66,1.22l-2.27,3.38h.01Zm.82-3.99c.44,0,.81-.15,1.12-.46s.46-.68,.46-1.11-.15-.8-.46-1.11-.68-.46-1.12-.46-.8,.15-1.11,.46-.46,.68-.46,1.11,.15,.8,.46,1.11c.31,.31,.68,.46,1.12,.46h0Z"/>
    <path class="cls-19" d="M85.47,35.51v.71h-2.66l-.37,2.04c.33-.1,.62-.14,.88-.14,.68,0,1.24,.23,1.69,.69s.66,1.04,.66,1.75c0,.49-.11,.94-.34,1.36s-.53,.73-.93,.94-.84,.33-1.35,.33c-.61,0-1.12-.19-1.54-.56s-.67-.85-.75-1.44h.77c.06,.29,.16,.52,.29,.7s.32,.33,.55,.43,.47,.17,.72,.17c.49,0,.92-.19,1.27-.56s.53-.84,.53-1.4c0-.5-.16-.92-.48-1.23s-.74-.47-1.28-.47c-.44,0-.98,.13-1.6,.4l.69-3.72h3.24Z"/>
    <path class="cls-19" d="M86.46,39.26c0-.99,.1-1.75,.32-2.29s.51-.95,.9-1.22,.82-.42,1.3-.42,.93,.14,1.32,.42,.7,.7,.93,1.26,.34,1.31,.34,2.25-.11,1.69-.34,2.25-.54,.98-.93,1.26-.84,.43-1.32,.43-.91-.14-1.29-.41-.68-.69-.9-1.23-.32-1.31-.32-2.29h0Zm.71,0c0,.85,.07,1.49,.23,1.92s.37,.76,.67,.99,.61,.33,.94,.33,.64-.11,.93-.33,.51-.55,.66-.99c.19-.53,.28-1.18,.28-1.92s-.08-1.37-.25-1.85c-.17-.48-.4-.83-.69-1.06s-.6-.33-.93-.33-.64,.11-.94,.33c-.29,.22-.51,.55-.67,.98-.15,.43-.23,1.07-.23,1.92h0Z"/>
    <path class="cls-19" d="M93.28,37.25h-.76c.14-.62,.4-1.09,.8-1.42s.86-.5,1.39-.5c.39,0,.76,.09,1.09,.27s.6,.42,.78,.72,.28,.62,.28,.95c0,.64-.32,1.16-.96,1.53,.36,.15,.66,.36,.89,.64,.33,.4,.49,.84,.49,1.33,0,.43-.11,.83-.33,1.21s-.53,.68-.92,.89-.82,.32-1.3,.32c-.64,0-1.18-.19-1.61-.56s-.71-.92-.85-1.64h.73c.13,.49,.31,.84,.56,1.06,.31,.27,.7,.41,1.18,.41,.54,0,.98-.17,1.31-.49s.5-.71,.5-1.15c0-.29-.08-.56-.25-.82s-.39-.45-.66-.57-.7-.21-1.29-.24v-.69c.34,0,.66-.06,.94-.18s.49-.27,.61-.46,.19-.39,.19-.61c0-.33-.13-.61-.39-.85s-.59-.36-.99-.36c-.32,0-.6,.09-.83,.27s-.43,.49-.6,.93h0Z"/>
    <path class="cls-19" d="M4.88,60.53h.75v6.76h2.88v.72h-3.63v-7.49h0Z"/>
    <path class="cls-19" d="M15.09,62.48v5.54h-.7v-.95c-.3,.36-.63,.63-1,.82s-.78,.27-1.22,.27c-.78,0-1.46-.28-2.01-.85s-.83-1.26-.83-2.08,.28-1.48,.84-2.05,1.23-.85,2.02-.85c.46,0,.87,.1,1.23,.29s.69,.48,.97,.87v-1.02h.71Zm-2.85,.54c-.4,0-.76,.1-1.1,.29s-.6,.47-.8,.82c-.2,.35-.3,.73-.3,1.12s.1,.76,.3,1.12c.2,.36,.47,.63,.81,.83,.34,.2,.7,.3,1.09,.3s.76-.1,1.11-.3,.62-.46,.81-.8,.28-.71,.28-1.13c0-.64-.21-1.18-.63-1.61-.42-.43-.94-.65-1.56-.65h0Z"/>
    <path class="cls-19" d="M16.74,68.02v-7.68h.71v3.09c.3-.36,.63-.64,1-.82,.37-.18,.77-.27,1.22-.27,.78,0,1.45,.28,2.01,.85s.83,1.26,.83,2.07-.28,1.49-.84,2.05-1.23,.85-2.02,.85c-.45,0-.86-.1-1.22-.29s-.69-.48-.97-.87v1.02h-.71Zm2.85-.54c.4,0,.76-.1,1.1-.29s.6-.47,.8-.82c.2-.35,.3-.73,.3-1.12s-.1-.77-.3-1.13c-.2-.36-.47-.63-.8-.83s-.7-.3-1.08-.3-.76,.1-1.11,.3-.62,.46-.81,.8-.28,.71-.28,1.13c0,.64,.21,1.18,.63,1.61,.42,.43,.94,.65,1.56,.65h0Z"/>
    <path class="cls-19" d="M26.81,68.02v-7.49h1.55c1.12,0,1.93,.09,2.44,.27,.73,.26,1.29,.7,1.7,1.32s.61,1.38,.61,2.25c0,.75-.16,1.41-.49,1.98s-.74,.99-1.26,1.26-1.24,.41-2.18,.41h-2.38Zm.72-.71h.86c1.03,0,1.75-.07,2.15-.2,.56-.18,1.01-.51,1.33-.99s.48-1.06,.48-1.75c0-.72-.17-1.34-.53-1.85s-.84-.86-1.46-1.05c-.47-.14-1.24-.21-2.32-.21h-.53v6.05Z"/>
    <path class="cls-19" d="M34.7,60.2c.16,0,.3,.06,.42,.17,.11,.12,.17,.26,.17,.42s-.06,.3-.17,.41c-.11,.12-.25,.17-.42,.17s-.3-.06-.41-.17-.17-.25-.17-.41,.06-.3,.17-.42,.25-.17,.41-.17Zm-.35,2.28h.71v5.54h-.71v-5.54Z"/>
    <path class="cls-19" d="M36.27,62.48h.73v.81c.22-.32,.45-.56,.69-.72s.49-.23,.75-.23c.2,0,.41,.06,.63,.19l-.37,.6c-.15-.07-.27-.1-.38-.1-.24,0-.46,.1-.69,.29s-.39,.5-.5,.91c-.09,.32-.13,.96-.13,1.92v1.87h-.73v-5.54h0Z"/>
    <path class="cls-19" d="M44.34,66.18l.6,.32c-.2,.39-.43,.7-.68,.94s-.55,.42-.87,.54-.69,.19-1.09,.19c-.9,0-1.61-.3-2.12-.89s-.76-1.26-.76-2.01c0-.7,.22-1.33,.65-1.88,.55-.7,1.28-1.05,2.2-1.05s1.7,.36,2.26,1.07c.4,.5,.6,1.14,.61,1.89h-4.98c.01,.64,.22,1.17,.62,1.58s.89,.62,1.47,.62c.28,0,.56-.05,.82-.15s.5-.23,.68-.39,.39-.43,.61-.79h0Zm0-1.5c-.1-.38-.23-.68-.42-.91-.18-.23-.42-.41-.72-.55s-.61-.21-.94-.21c-.54,0-1.01,.17-1.4,.53-.29,.26-.5,.63-.65,1.15h4.13Z"/>
    <path class="cls-19" d="M51.83,63.63l-.56,.35c-.49-.65-1.16-.97-2-.97-.67,0-1.23,.22-1.68,.65s-.67,.96-.67,1.58c0,.4,.1,.78,.31,1.14s.49,.63,.84,.83,.76,.3,1.2,.3c.81,0,1.48-.33,1.99-.97l.56,.37c-.26,.4-.62,.71-1.07,.93s-.96,.33-1.52,.33c-.88,0-1.6-.28-2.18-.83s-.86-1.23-.86-2.03c0-.53,.13-1.03,.4-1.49s.64-.82,1.11-1.08,1-.39,1.58-.39c.36,0,.72,.06,1.06,.17s.63,.26,.87,.44,.44,.41,.6,.69h0Z"/>
    <path class="cls-19" d="M53.82,60.43h.71v2.05h1.13v.62h-1.13v4.92h-.71v-4.92h-.97v-.62h.97v-2.05Z"/>
    <path class="cls-19" d="M59.35,62.34c.85,0,1.56,.31,2.12,.93,.51,.56,.76,1.23,.76,2s-.27,1.45-.81,2.03-1.23,.87-2.08,.87-1.54-.29-2.09-.87c-.54-.58-.81-1.26-.81-2.03s.26-1.43,.76-1.99c.56-.62,1.27-.93,2.13-.93h0Zm0,.7c-.59,0-1.1,.22-1.53,.66s-.64,.97-.64,1.59c0,.4,.1,.77,.29,1.12s.46,.61,.79,.8c.33,.19,.7,.28,1.09,.28s.76-.1,1.09-.28,.59-.46,.79-.8,.29-.72,.29-1.12c0-.62-.21-1.15-.64-1.59-.43-.44-.93-.66-1.52-.66h0Z"/>
    <path class="cls-19" d="M63.28,62.48h.73v.81c.22-.32,.45-.56,.69-.72s.49-.23,.75-.23c.2,0,.41,.06,.63,.19l-.37,.6c-.15-.07-.27-.1-.38-.1-.24,0-.46,.1-.69,.29s-.39,.5-.5,.91c-.09,.32-.13,.96-.13,1.92v1.87h-.73v-5.54h0Z"/>
    <path class="cls-19" d="M67.47,62.34c.17,0,.32,.06,.44,.18s.18,.27,.18,.45-.06,.33-.18,.45-.27,.18-.44,.18-.32-.06-.44-.18-.18-.27-.18-.45,.06-.32,.18-.45,.27-.19,.44-.19h0Zm0,4.57c.17,0,.32,.06,.44,.18s.18,.27,.18,.45-.06,.32-.18,.45-.27,.19-.44,.19-.32-.06-.44-.19-.18-.27-.18-.45,.06-.33,.18-.45,.27-.18,.44-.18Z"/>
    <path class="cls-19" d="M4.88,80.53v-7.49h1.55c1.12,0,1.93,.09,2.44,.27,.73,.26,1.29,.7,1.7,1.32s.61,1.38,.61,2.25c0,.75-.16,1.41-.49,1.98s-.74,.99-1.26,1.26-1.24,.41-2.18,.41h-2.38Zm.72-.71h.86c1.03,0,1.75-.07,2.15-.2,.56-.18,1.01-.51,1.33-.99s.48-1.06,.48-1.75c0-.72-.17-1.34-.53-1.85s-.84-.86-1.46-1.05c-.47-.14-1.24-.21-2.32-.21h-.53s0,6.05,0,6.05Z"/>
    <path class="cls-19" d="M12.25,74.99h.73v.81c.22-.32,.45-.56,.69-.72s.49-.23,.75-.23c.2,0,.41,.06,.63,.19l-.37,.6c-.15-.07-.27-.1-.38-.1-.24,0-.46,.1-.69,.29s-.39,.5-.5,.91c-.09,.32-.13,.96-.13,1.92v1.87h-.73v-5.54h0Z"/>
    <path class="cls-19" d="M16.44,79.41c.17,0,.32,.06,.44,.18s.18,.27,.18,.45-.06,.32-.18,.45-.27,.19-.44,.19-.32-.06-.44-.19-.18-.27-.18-.45,.06-.33,.18-.45,.27-.18,.44-.18Z"/>
    <path class="cls-19" d="M21.54,73.04h.75v6.76h2.88v.72h-3.63v-7.49h0Z"/>
    <path class="cls-19" d="M31.76,74.99v5.54h-.7v-.95c-.3,.36-.63,.63-1,.82s-.78,.27-1.22,.27c-.78,0-1.46-.28-2.01-.85s-.83-1.26-.83-2.08,.28-1.48,.84-2.05,1.23-.85,2.02-.85c.46,0,.86,.1,1.23,.29s.69,.48,.97,.87v-1.02h.71Zm-2.85,.54c-.4,0-.76,.1-1.1,.29s-.6,.47-.8,.82-.3,.73-.3,1.12,.1,.76,.3,1.12,.47,.63,.81,.83c.34,.2,.7,.3,1.09,.3s.76-.1,1.11-.3c.35-.2,.62-.46,.81-.8,.19-.33,.28-.71,.28-1.13,0-.64-.21-1.18-.63-1.61s-.94-.65-1.56-.65h0Z"/>
    <path class="cls-19" d="M33.27,74.99h.71v2.58c0,.63,.03,1.06,.1,1.3,.1,.34,.3,.61,.58,.8s.63,.3,1.03,.3,.73-.1,1.01-.29,.47-.44,.57-.76c.07-.21,.11-.67,.11-1.36v-2.58h.73v2.72c0,.76-.09,1.34-.27,1.72s-.45,.69-.8,.91-.81,.33-1.35,.33-.99-.11-1.35-.33-.63-.53-.81-.92-.27-.98-.27-1.77v-2.67h0Z"/>
    <path class="cls-19" d="M39.43,74.99h.73v.81c.22-.32,.45-.56,.69-.72s.49-.23,.75-.23c.2,0,.41,.06,.63,.19l-.37,.6c-.15-.07-.27-.1-.38-.1-.24,0-.46,.1-.69,.29s-.39,.5-.5,.91c-.09,.32-.13,.96-.13,1.92v1.87h-.73v-5.54h0Z"/>
    <path class="cls-19" d="M48.35,74.99v5.54h-.7v-.95c-.3,.36-.63,.63-1,.82s-.78,.27-1.22,.27c-.78,0-1.46-.28-2.01-.85s-.83-1.26-.83-2.08,.28-1.48,.84-2.05,1.23-.85,2.02-.85c.46,0,.86,.1,1.23,.29s.69,.48,.97,.87v-1.02h.71Zm-2.85,.54c-.4,0-.76,.1-1.1,.29s-.6,.47-.8,.82-.3,.73-.3,1.12,.1,.76,.3,1.12,.47,.63,.81,.83c.34,.2,.7,.3,1.09,.3s.76-.1,1.11-.3,.62-.46,.81-.8c.19-.33,.28-.71,.28-1.13,0-.64-.21-1.18-.63-1.61s-.94-.65-1.56-.65h0Z"/>
    <path class="cls-19" d="M56.53,72.85c1.13,0,2.09,.38,2.85,1.13s1.15,1.69,1.15,2.79-.38,2.02-1.14,2.79-1.69,1.15-2.79,1.15-2.05-.38-2.81-1.14-1.15-1.68-1.15-2.76c0-.72,.17-1.39,.52-2,.35-.61,.82-1.09,1.42-1.44s1.25-.52,1.95-.52h0Zm.03,.73c-.56,0-1.08,.14-1.58,.43-.5,.29-.89,.68-1.16,1.17s-.42,1.03-.42,1.63c0,.89,.31,1.64,.93,2.25s1.36,.92,2.23,.92c.58,0,1.12-.14,1.61-.42,.5-.28,.88-.67,1.16-1.16s.42-1.03,.42-1.63-.14-1.13-.42-1.61-.67-.86-1.17-1.16c-.5-.29-1.04-.43-1.6-.43h0Z"/>
    <path class="cls-19" d="M64.69,75.6l-.46,.47c-.38-.37-.76-.56-1.12-.56-.23,0-.43,.08-.6,.23-.17,.15-.25,.33-.25,.53,0,.18,.07,.35,.2,.51,.13,.17,.42,.36,.86,.59,.53,.27,.89,.54,1.08,.79,.19,.26,.28,.55,.28,.87,0,.46-.16,.84-.48,1.16s-.72,.47-1.2,.47c-.32,0-.63-.07-.92-.21s-.53-.33-.72-.57l.45-.51c.36,.41,.75,.62,1.16,.62,.29,0,.53-.09,.73-.27s.3-.4,.3-.65c0-.2-.07-.39-.2-.54-.13-.16-.43-.35-.9-.59-.5-.26-.84-.51-1.02-.76s-.27-.54-.27-.86c0-.42,.14-.77,.43-1.05s.65-.42,1.09-.42c.51,0,1.03,.25,1.54,.75h0Z"/>
    <path class="cls-19" d="M71.33,76.14l-.56,.35c-.49-.65-1.16-.97-2-.97-.67,0-1.23,.22-1.68,.65s-.67,.96-.67,1.58c0,.4,.1,.78,.31,1.14s.49,.63,.84,.83,.76,.3,1.2,.3c.81,0,1.48-.33,1.99-.97l.56,.37c-.26,.4-.62,.71-1.07,.93s-.96,.33-1.52,.33c-.88,0-1.6-.28-2.18-.83s-.86-1.23-.86-2.03c0-.53,.13-1.03,.4-1.49s.64-.82,1.11-1.08,1-.39,1.58-.39c.36,0,.72,.06,1.06,.17s.63,.26,.87,.44,.44,.41,.6,.69h0Z"/>
    <path class="cls-19" d="M78.21,74.99v5.54h-.7v-.95c-.3,.36-.63,.63-1,.82s-.78,.27-1.22,.27c-.78,0-1.46-.28-2.01-.85s-.83-1.26-.83-2.08,.28-1.48,.84-2.05,1.23-.85,2.02-.85c.46,0,.86,.1,1.23,.29s.69,.48,.97,.87v-1.02h.71Zm-2.85,.54c-.4,0-.76,.1-1.1,.29s-.6,.47-.8,.82-.3,.73-.3,1.12,.1,.76,.3,1.12,.47,.63,.81,.83c.34,.2,.7,.3,1.09,.3s.76-.1,1.11-.3,.62-.46,.81-.8c.19-.33,.28-.71,.28-1.13,0-.64-.21-1.18-.63-1.61s-.94-.65-1.56-.65h0Z"/>
    <path class="cls-19" d="M79.55,74.99h.73v.81c.22-.32,.45-.56,.69-.72s.49-.23,.75-.23c.2,0,.41,.06,.63,.19l-.37,.6c-.15-.07-.27-.1-.38-.1-.24,0-.46,.1-.69,.29s-.39,.5-.5,.91c-.09,.32-.13,.96-.13,1.92v1.87h-.73v-5.54h0Z"/>
    <path class="cls-19" d="M11.85,99.45l-.59,.45c-.33-.43-.72-.75-1.17-.96s-.96-.33-1.5-.33c-.6,0-1.15,.14-1.66,.43s-.9,.67-1.18,1.16-.42,1.03-.42,1.63c0,.91,.31,1.68,.94,2.28s1.42,.92,2.37,.92c1.05,0,1.92-.41,2.63-1.23l.59,.45c-.37,.47-.84,.84-1.4,1.1s-1.18,.39-1.87,.39c-1.31,0-2.34-.43-3.1-1.31-.63-.74-.95-1.62-.95-2.67,0-1.09,.38-2.02,1.15-2.77s1.73-1.12,2.89-1.12c.7,0,1.33,.14,1.89,.42s1.03,.66,1.39,1.16h0Z"/>
    <path class="cls-19" d="M13.35,98.06h.75v6.76h2.88v.72h-3.63v-7.49h0Z"/>
    <path class="cls-19" d="M18.06,98.06h.75v7.49h-.75v-7.49Z"/>
    <path class="cls-19" d="M23.58,98.06l3.49,7.49h-.81l-1.18-2.46h-3.23l-1.17,2.46h-.83l3.54-7.49h.19Zm-.1,1.59l-1.28,2.71h2.56l-1.28-2.71Z"/>
    <path class="cls-19" d="M36.49,102.49v.55h-1.26l-.37,2.52h-.57l.37-2.52h-1.71l-.38,2.52h-.56l.38-2.52h-1.25v-.55h1.33l.26-1.7h-1.28v-.56h1.36l.36-2.38h.54l-.36,2.38h1.7l.35-2.38h.57l-.35,2.38h1.14v.56h-1.22l-.25,1.7h1.19Zm-1.5-1.7h-1.7l-.26,1.7h1.71l.25-1.7Z"/>
    <path class="cls-19" d="M39.3,99.87c.17,0,.32,.06,.44,.18s.18,.27,.18,.45-.06,.33-.18,.45-.27,.18-.44,.18-.32-.06-.44-.18-.18-.27-.18-.45,.06-.32,.18-.45,.27-.19,.44-.19h0Zm0,4.57c.17,0,.32,.06,.44,.18s.18,.27,.18,.45-.06,.32-.18,.45-.27,.19-.44,.19-.32-.06-.44-.19-.18-.27-.18-.45,.06-.33,.18-.45,.27-.18,.44-.18Z"/>
    <path class="cls-19" d="M44.7,100.4h-.72c.02-.74,.27-1.34,.74-1.82s1.06-.71,1.75-.71,1.25,.22,1.67,.67c.43,.44,.64,.97,.64,1.57,0,.43-.1,.82-.3,1.19-.2,.37-.6,.87-1.18,1.51l-1.86,2.01h3.45v.72h-5.09l2.86-3.09c.58-.62,.96-1.08,1.13-1.38,.17-.3,.26-.62,.26-.95,0-.42-.16-.78-.47-1.09s-.7-.46-1.15-.46c-.48,0-.88,.16-1.19,.48s-.5,.77-.54,1.34h0Z"/>
    <path class="cls-19" d="M54.4,98.06v.71h-2.66l-.37,2.04c.33-.1,.62-.14,.88-.14,.68,0,1.24,.23,1.69,.69s.66,1.04,.66,1.75c0,.49-.11,.94-.34,1.36s-.53,.73-.93,.94-.84,.33-1.35,.33c-.61,0-1.12-.19-1.54-.56s-.67-.85-.75-1.44h.77c.06,.29,.16,.52,.29,.7s.32,.33,.55,.43,.47,.17,.72,.17c.49,0,.92-.19,1.27-.56s.53-.84,.53-1.4c0-.5-.16-.92-.48-1.23s-.74-.47-1.28-.47c-.44,0-.98,.13-1.6,.4l.69-3.72h3.24Z"/>
    <path class="cls-19" d="M55.96,105.55v-7.49h1.55c1.12,0,1.93,.09,2.44,.27,.73,.26,1.29,.7,1.7,1.32s.61,1.38,.61,2.25c0,.75-.16,1.41-.49,1.98s-.74,.99-1.26,1.26-1.24,.41-2.18,.41h-2.38Zm.72-.71h.86c1.03,0,1.75-.07,2.15-.19,.56-.18,1.01-.51,1.33-.99s.48-1.06,.48-1.75-.17-1.34-.53-1.85-.84-.86-1.46-1.05c-.47-.14-1.24-.21-2.32-.21h-.53v6.05h0Z"/>
    <path class="cls-19" d="M64.01,100.4h-.72c.02-.74,.27-1.34,.74-1.82s1.06-.71,1.75-.71,1.25,.22,1.67,.67c.43,.44,.64,.97,.64,1.57,0,.43-.1,.82-.3,1.19s-.6,.87-1.18,1.51l-1.86,2.01h3.45v.72h-5.09l2.86-3.09c.58-.62,.96-1.08,1.13-1.38,.17-.3,.26-.62,.26-.95,0-.42-.16-.78-.47-1.09s-.7-.46-1.15-.46c-.48,0-.88,.16-1.19,.48s-.5,.77-.54,1.34h0Z"/>
    <path class="cls-19" d="M69.79,100.4h-.72c.02-.74,.27-1.34,.74-1.82s1.06-.71,1.75-.71,1.25,.22,1.67,.67c.43,.44,.64,.97,.64,1.57,0,.43-.1,.82-.3,1.19s-.6,.87-1.18,1.51l-1.86,2.01h3.45v.72h-5.09l2.86-3.09c.58-.62,.96-1.08,1.13-1.38,.17-.3,.26-.62,.26-.95,0-.42-.16-.78-.47-1.09s-.7-.46-1.15-.46c-.48,0-.88,.16-1.19,.48s-.5,.77-.54,1.34h0Z"/>
    <path class="cls-19" d="M75.11,98.06h4.75l-4.01,7.68-.62-.32,3.46-6.65h-3.58v-.71Z"/>
    <path class="cls-19" d="M80.89,98.06h4.75l-4.01,7.68-.62-.32,3.46-6.65h-3.58v-.71h0Z"/>
    <path class="cls-19" d="M87.92,105.74l-.62-.4,2.02-3.07c-.27,.09-.53,.13-.76,.13-.6,0-1.1-.21-1.52-.64s-.62-.96-.62-1.59c0-.43,.1-.82,.3-1.16s.49-.62,.85-.83,.76-.31,1.18-.31,.79,.1,1.15,.3,.63,.48,.83,.84,.3,.74,.3,1.15c0,.31-.06,.63-.19,.97s-.34,.74-.66,1.22l-2.27,3.38h.01Zm.82-3.99c.44,0,.81-.15,1.12-.46s.46-.68,.46-1.11-.15-.8-.46-1.11-.68-.46-1.12-.46-.8,.15-1.11,.46-.46,.68-.46,1.11,.15,.8,.46,1.11,.68,.46,1.12,.46h0Z"/>
    <path class="cls-19" d="M93.08,99.8h-.76c.14-.62,.4-1.09,.8-1.42s.86-.5,1.39-.5c.39,0,.76,.09,1.09,.27s.6,.42,.78,.72,.28,.62,.28,.95c0,.64-.32,1.16-.96,1.53,.36,.15,.66,.36,.89,.64,.33,.4,.49,.84,.49,1.33,0,.43-.11,.83-.33,1.21s-.53,.68-.92,.89-.82,.32-1.3,.32c-.64,0-1.18-.19-1.61-.56s-.71-.92-.85-1.64h.73c.13,.49,.31,.84,.56,1.06,.31,.27,.7,.41,1.18,.41,.54,0,.98-.17,1.31-.49s.5-.71,.5-1.15c0-.29-.08-.56-.25-.82s-.39-.45-.66-.57-.7-.21-1.29-.24v-.69c.34,0,.66-.06,.94-.18s.49-.27,.61-.46,.19-.39,.19-.61c0-.33-.13-.61-.39-.85s-.59-.36-.99-.36c-.32,0-.6,.09-.83,.27s-.43,.49-.6,.93h0Z"/>
    <path class="cls-19" d="M101.48,101.44c.5,.25,.87,.54,1.09,.86s.33,.69,.33,1.1c0,.58-.19,1.09-.56,1.53-.46,.54-1.12,.81-1.98,.81s-1.46-.23-1.89-.71-.64-.99-.64-1.56c0-.42,.11-.79,.33-1.13s.6-.63,1.12-.89c-.36-.19-.64-.43-.83-.71s-.27-.58-.27-.91,.1-.64,.29-.96,.46-.56,.81-.73,.72-.27,1.12-.27,.75,.09,1.09,.27,.6,.43,.78,.73,.28,.63,.28,.97-.09,.64-.27,.91-.45,.5-.8,.69h0Zm-1.08,.38c-.52,0-.95,.17-1.29,.5s-.53,.73-.53,1.17c0,.27,.07,.53,.22,.78s.36,.43,.63,.56,.58,.2,.93,.2c.55,0,.98-.16,1.3-.48,.32-.32,.48-.7,.48-1.13s-.17-.79-.51-1.11-.75-.49-1.23-.49h0Zm-.03-3.22c-.41,0-.75,.12-1.02,.36s-.4,.53-.4,.87,.14,.63,.43,.9,.63,.4,1.02,.4c.25,0,.48-.06,.7-.18s.4-.29,.52-.5c.13-.21,.19-.43,.19-.64,0-.3-.12-.58-.37-.83s-.6-.38-1.06-.38h0Z"/>
  </g>
</svg>